$MeshFormat
2.2 0 8
$EndMeshFormat
$PhysicalNames
1
3 1 "air_OPEM_RESERVED_1"
$EndPhysicalNames
$Nodes
127
1 0.008999999999999999 0 0
2 0.008999999999999999 0 0.1
3 0.03186 0 0
4 0.03186 0 0.1
5 0.02043 0 0
6 0.02043 0 0.1
7 0.03186 0.01016 0
8 0.03186 0.01016 0.1
9 0.008999999999999999 0.01016 0
10 0.008999999999999999 0.01016 0.1
11 0.02043 0.01016 0
12 0.02043 0.01016 0.1
13 0.008999999999999999 0 0.01000000000000003
14 0.008999999999999999 0 0.02000000000000004
15 0.008999999999999999 0 0.03000000000000006
16 0.008999999999999999 0 0.04000000000000006
17 0.008999999999999999 0 0.05000000000000008
18 0.008999999999999999 0 0.0600000000000001
19 0.008999999999999999 0 0.0700000000000001
20 0.008999999999999999 0 0.08000000000000011
21 0.008999999999999999 0 0.09000000000000007
22 0.03186 0 0.01000000000000003
23 0.03186 0 0.02000000000000004
24 0.03186 0 0.03000000000000006
25 0.03186 0 0.04000000000000006
26 0.03186 0 0.05000000000000008
27 0.03186 0 0.0600000000000001
28 0.03186 0 0.0700000000000001
29 0.03186 0 0.08000000000000011
30 0.03186 0 0.09000000000000007
31 0.014715 0 0
32 0.02614499999999999 0 0
33 0.014715 0 0.1
34 0.02614499999999999 0 0.1
35 0.03186 0.01016 0.01000000000000003
36 0.03186 0.01016 0.02000000000000004
37 0.03186 0.01016 0.03000000000000006
38 0.03186 0.01016 0.04000000000000006
39 0.03186 0.01016 0.05000000000000008
40 0.03186 0.01016 0.0600000000000001
41 0.03186 0.01016 0.0700000000000001
42 0.03186 0.01016 0.08000000000000011
43 0.03186 0.01016 0.09000000000000007
44 0.008999999999999999 0.01016 0.01000000000000003
45 0.008999999999999999 0.01016 0.02000000000000004
46 0.008999999999999999 0.01016 0.03000000000000006
47 0.008999999999999999 0.01016 0.04000000000000006
48 0.008999999999999999 0.01016 0.05000000000000008
49 0.008999999999999999 0.01016 0.0600000000000001
50 0.008999999999999999 0.01016 0.0700000000000001
51 0.008999999999999999 0.01016 0.08000000000000011
52 0.008999999999999999 0.01016 0.09000000000000007
53 0.026145 0.01016 0
54 0.01471500000000001 0.01016 0
55 0.026145 0.01016 0.1
56 0.01471500000000001 0.01016 0.1
57 0.01644948342508045 0 0.08378449971064951
58 0.01766025403784439 0 0.05500000000000008
59 0.01766025403784439 0 0.02500000000000005
60 0.02542876317431694 0 0.09545116637731611
61 0.02401078663755375 0 0.005640690899933798
62 0.02319974596215563 0 0.07500000000000009
63 0.02319974596215561 0 0.03500000000000007
64 0.02344290190326579 0 0.01613562118058192
65 0.01752502942388412 0 0.06608941201189612
66 0.01752502942388411 0 0.04391058798810404
67 0.017104046520757 0 0.0938417142192129
68 0.01801735524599733 0 0.01074587090996812
69 0.02460406058167233 0 0.08731530278343425
70 0.01606058768916713 0 0.01738843176696391
71 0.01503485176222404 0 0.07497478234450919
72 0.02334293900671878 0 0.05981647087073842
73 0.01521957554242542 0 0.03500000000000007
74 0.02560458038065316 0 0.02522712423611642
75 0.02431852551257005 0 0.05132156842566319
76 0.01586219031392518 0 0.004397760301650322
77 0.02545641465537098 0 0.04356862689246047
78 0.02555754287855171 0 0.06618117657652699
79 0.03186 0.005080000000000001 0.07500000000000009
80 0.03186 0.00508 0.08500000000000009
81 0.03186 0.005080000000000001 0.09500000000000008
82 0.03186 0.005079999999999998 0.05500000000000009
83 0.03186 0.00508 0.02500000000000005
84 0.03186 0.00508 0.03500000000000006
85 0.03186 0.005079999999999999 0.04500000000000007
86 0.03186 0.005079999999999999 0.0650000000000001
87 0.03186 0.00508 0.005000000000000013
88 0.03186 0.00508 0.01500000000000003
89 0.02441051657491955 0.01016 0.0837844997106495
90 0.02333497057611589 0.01016 0.05391058798810407
91 0.02319974596215561 0.01016 0.03500000000000007
92 0.02441051657491956 0.01016 0.01621550028935058
93 0.01543123682568307 0.01016 0.09545116637731613
94 0.01543123682568306 0.01016 0.004548833622683891
95 0.01766025403784437 0.01016 0.07500000000000009
96 0.01766025403784439 0.01016 0.02500000000000004
97 0.01758279886399076 0.01016 0.04486183970610585
98 0.02335428837811021 0.01016 0.0659337817244824
99 0.023755953479243 0.01016 0.09384171421921292
100 0.023755953479243 0.01016 0.006158285780787108
101 0.01625593941832769 0.01016 0.08731530278343427
102 0.01625593941832768 0.01016 0.01268469721656574
103 0.02582901179817482 0.01016 0.07494365628702644
104 0.0169801704197302 0.01016 0.06000000000000014
105 0.02564042445757457 0.01016 0.04500000000000007
106 0.01521957554242543 0.01016 0.03500000000000007
107 0.02579810331498391 0.01016 0.02524310005787016
108 0.01546901587809967 0.01016 0.06659793569871821
109 0.01545519116726425 0.01016 0.05336009421823801
110 0.008999999999999999 0.005079999999999999 0.07500000000000009
111 0.008999999999999999 0.00508 0.08500000000000008
112 0.008999999999999999 0.005079999999999999 0.09500000000000008
113 0.008999999999999999 0.00508 0.05500000000000009
114 0.008999999999999999 0.005080000000000002 0.0650000000000001
115 0.008999999999999999 0.00508 0.04500000000000007
116 0.008999999999999999 0.00508 0.02500000000000005
117 0.008999999999999999 0.00508 0.03500000000000006
118 0.008999999999999999 0.00508 0.005000000000000013
119 0.008999999999999999 0.00508 0.01500000000000003
120 0.01641441212650334 0.005079999999999999 0
121 0.01276888242530067 0.00508 0
122 0.02444578703703704 0.00508 0
123 0.0280911574074074 0.00508 0
124 0.01641441212650334 0.005079999999999999 0.1
125 0.01276888242530067 0.00508 0.1
126 0.02444578703703704 0.00508 0.1
127 0.0280911574074074 0.00508 0.1
$EndNodes
$Elements
298
1 4 2 1 1 76 120 94 100
2 4 2 1 1 11 61 122 100
3 4 2 1 1 12 6 99 126
4 4 2 1 1 11 61 5 122
5 4 2 1 1 68 76 94 100
6 4 2 1 1 76 120 100 61
7 4 2 1 1 64 100 88 61
8 4 2 1 1 68 76 118 94
9 4 2 1 1 41 78 79 103
10 4 2 1 1 106 46 116 117
11 4 2 1 1 116 15 73 117
12 4 2 1 1 117 106 47 115
13 4 2 1 1 117 16 73 115
14 4 2 1 1 116 73 106 117
15 4 2 1 1 117 73 106 115
16 4 2 1 1 64 68 100 61
17 4 2 1 1 88 92 100 64
18 4 2 1 1 110 19 108 71
19 4 2 1 1 93 124 67 99
20 4 2 1 1 84 107 83 74
21 4 2 1 1 74 83 84 24
22 4 2 1 1 107 91 96 74
23 4 2 1 1 105 97 91 77
24 4 2 1 1 100 35 88 87
25 4 2 1 1 87 88 100 22
26 4 2 1 1 68 100 92 64
27 4 2 1 1 73 91 96 106
28 4 2 1 1 91 84 38 77
29 4 2 1 1 84 107 37 83
30 4 2 1 1 127 60 126 99
31 4 2 1 1 125 93 124 67
32 4 2 1 1 97 66 91 77
33 4 2 1 1 61 100 88 22
34 4 2 1 1 38 105 91 77
35 4 2 1 1 73 66 106 115
36 4 2 1 1 66 73 106 91
37 4 2 1 1 61 87 100 22
38 4 2 1 1 121 76 120 94
39 4 2 1 1 66 73 16 115
40 4 2 1 1 6 99 67 124
41 4 2 1 1 73 116 106 96
42 4 2 1 1 63 91 66 77
43 4 2 1 1 68 76 100 61
44 4 2 1 1 47 106 97 115
45 4 2 1 1 74 92 83 23
46 4 2 1 1 15 73 59 116
47 4 2 1 1 71 19 108 65
48 4 2 1 1 63 59 96 74
49 4 2 1 1 63 96 91 74
50 4 2 1 1 41 79 78 86
51 4 2 1 1 96 73 59 63
52 4 2 1 1 91 73 96 63
53 4 2 1 1 114 18 104 65
54 4 2 1 1 82 40 72 86
55 4 2 1 1 58 97 109 75
56 4 2 1 1 88 64 61 22
57 4 2 1 1 83 107 92 74
58 4 2 1 1 90 40 72 82
59 4 2 1 1 72 40 98 86
60 4 2 1 1 85 38 84 77
61 4 2 1 1 103 41 78 98
62 4 2 1 1 74 64 92 23
63 4 2 1 1 58 104 18 65
64 4 2 1 1 95 110 71 57
65 4 2 1 1 74 84 63 24
66 4 2 1 1 28 78 79 86
67 4 2 1 1 92 88 83 23
68 4 2 1 1 66 73 91 63
69 4 2 1 1 97 66 106 91
70 4 2 1 1 89 79 62 103
71 4 2 1 1 116 73 59 96
72 4 2 1 1 123 87 122 61
73 4 2 1 1 97 106 66 115
74 4 2 1 1 105 38 85 77
75 4 2 1 1 96 59 64 74
76 4 2 1 1 107 91 84 37
77 4 2 1 1 65 58 104 72
78 4 2 1 1 71 110 20 57
79 4 2 1 1 6 12 99 124
80 4 2 1 1 79 29 80 89
81 4 2 1 1 51 111 110 57
82 4 2 1 1 116 46 106 96
83 4 2 1 1 110 108 19 114
84 4 2 1 1 84 85 77 25
85 4 2 1 1 79 89 42 103
86 4 2 1 1 36 92 88 83
87 4 2 1 1 111 20 110 57
88 4 2 1 1 89 80 79 42
89 4 2 1 1 90 72 40 98
90 4 2 1 1 18 113 104 58
91 4 2 1 1 92 96 70 64
92 4 2 1 1 63 84 91 77
93 4 2 1 1 78 62 79 103
94 4 2 1 1 104 72 90 98
95 4 2 1 1 88 92 64 23
96 4 2 1 1 92 100 35 88
97 4 2 1 1 102 68 118 94
98 4 2 1 1 50 108 110 114
99 4 2 1 1 94 102 68 100
100 4 2 1 1 113 104 49 114
101 4 2 1 1 29 79 62 89
102 4 2 1 1 110 95 51 57
103 4 2 1 1 72 104 65 98
104 4 2 1 1 109 113 115 17
105 4 2 1 1 115 113 109 48
106 4 2 1 1 61 11 120 100
107 4 2 1 1 104 113 18 114
108 4 2 1 1 96 59 70 64
109 4 2 1 1 75 97 109 90
110 4 2 1 1 11 61 120 5
111 4 2 1 1 82 72 27 86
112 4 2 1 1 102 68 100 92
113 4 2 1 1 114 108 19 65
114 4 2 1 1 109 113 17 58
115 4 2 1 1 92 36 107 83
116 4 2 1 1 110 108 95 71
117 4 2 1 1 98 78 72 86
118 4 2 1 1 41 78 98 86
119 4 2 1 1 66 97 58 75
120 4 2 1 1 80 29 69 89
121 4 2 1 1 51 101 111 57
122 4 2 1 1 108 95 71 65
123 4 2 1 1 114 104 108 65
124 4 2 1 1 72 58 104 90
125 4 2 1 1 45 116 70 96
126 4 2 1 1 67 60 69 99
127 4 2 1 1 67 101 93 99
128 4 2 1 1 62 95 57 89
129 4 2 1 1 94 120 11 100
130 4 2 1 1 124 93 12 99
131 4 2 1 1 102 119 70 45
132 4 2 1 1 75 109 58 90
133 4 2 1 1 78 62 103 98
134 4 2 1 1 119 116 70 45
135 4 2 1 1 13 68 76 118
136 4 2 1 1 116 70 14 119
137 4 2 1 1 13 68 118 102
138 4 2 1 1 108 95 65 98
139 4 2 1 1 81 69 60 99
140 4 2 1 1 101 93 112 67
141 4 2 1 1 62 78 65 98
142 4 2 1 1 113 109 104 58
143 4 2 1 1 45 70 102 96
144 4 2 1 1 29 62 69 89
145 4 2 1 1 101 51 95 57
146 4 2 1 1 120 76 5 61
147 4 2 1 1 69 101 67 99
148 4 2 1 1 99 81 69 43
149 4 2 1 1 21 101 112 67
150 4 2 1 1 127 81 60 99
151 4 2 1 1 125 112 93 67
152 4 2 1 1 71 95 57 62
153 4 2 1 1 70 102 96 92
154 4 2 1 1 76 121 118 94
155 4 2 1 1 89 62 95 103
156 4 2 1 1 68 13 119 102
157 4 2 1 1 105 39 75 85
158 4 2 1 1 57 69 62 89
159 4 2 1 1 95 101 57 89
160 4 2 1 1 77 63 84 25
161 4 2 1 1 95 71 65 62
162 4 2 1 1 126 127 99 55
163 4 2 1 1 33 125 124 67
164 4 2 1 1 65 78 72 98
165 4 2 1 1 79 62 78 28
166 4 2 1 1 99 69 89 43
167 4 2 1 1 57 101 21 67
168 4 2 1 1 75 97 90 105
169 4 2 1 1 69 80 89 43
170 4 2 1 1 21 111 101 57
171 4 2 1 1 80 69 81 43
172 4 2 1 1 112 111 101 21
173 4 2 1 1 65 104 108 98
174 4 2 1 1 75 39 82 85
175 4 2 1 1 118 119 13 102
176 4 2 1 1 62 65 95 98
177 4 2 1 1 92 102 68 64
178 4 2 1 1 102 70 68 64
179 4 2 1 1 103 62 95 98
180 4 2 1 1 97 115 109 48
181 4 2 1 1 81 30 69 80
182 4 2 1 1 111 101 52 112
183 4 2 1 1 102 118 119 44
184 4 2 1 1 59 70 116 96
185 4 2 1 1 82 26 75 85
186 4 2 1 1 90 72 75 82
187 4 2 1 1 99 127 81 55
188 4 2 1 1 112 125 33 67
189 4 2 1 1 75 105 85 77
190 4 2 1 1 122 87 100 61
191 4 2 1 1 109 104 58 90
192 4 2 1 1 70 102 92 64
193 4 2 1 1 90 39 75 105
194 4 2 1 1 101 69 89 99
195 4 2 1 1 67 57 101 69
196 4 2 1 1 50 108 95 110
197 4 2 1 1 75 39 90 82
198 4 2 1 1 87 123 32 61
199 4 2 1 1 30 69 60 81
200 4 2 1 1 101 93 52 112
201 4 2 1 1 118 102 94 44
202 4 2 1 1 32 123 122 61
203 4 2 1 1 2 112 33 67
204 4 2 1 1 81 8 99 55
205 4 2 1 1 53 7 100 87
206 4 2 1 1 31 1 76 121
207 4 2 1 1 119 70 68 102
208 4 2 1 1 121 9 1 118
209 4 2 1 1 4 8 81 127
210 4 2 1 1 3 7 123 87
211 4 2 1 1 10 2 112 125
212 4 2 1 1 58 72 75 90
213 4 2 1 1 27 72 78 86
214 4 2 1 1 87 123 3 32
215 4 2 1 1 69 57 101 89
216 4 2 1 1 14 59 70 116
217 4 2 1 1 60 34 4 127
218 4 2 1 1 54 9 121 94
219 4 2 1 1 56 10 93 125
220 4 2 1 1 32 3 87 61
221 4 2 1 1 70 68 13 119
222 4 2 1 1 7 53 123 87
223 4 2 1 1 8 81 127 55
224 4 2 1 1 2 112 125 33
225 4 2 1 1 27 75 72 82
226 4 2 1 1 49 104 108 114
227 4 2 1 1 104 109 113 49
228 4 2 1 1 22 88 64 23
229 4 2 1 1 100 7 35 87
230 4 2 1 1 99 8 81 43
231 4 2 1 1 112 2 21 67
232 4 2 1 1 59 14 15 116
233 4 2 1 1 25 63 84 24
234 4 2 1 1 38 84 91 37
235 4 2 1 1 115 97 47 48
236 4 2 1 1 19 18 114 65
237 4 2 1 1 16 66 115 17
238 4 2 1 1 85 26 75 77
239 4 2 1 1 54 121 120 94
240 4 2 1 1 124 56 93 125
241 4 2 1 1 126 34 60 127
242 4 2 1 1 17 113 18 58
243 4 2 1 1 76 31 121 120
244 4 2 1 1 75 27 26 82
245 4 2 1 1 39 40 90 82
246 4 2 1 1 98 40 41 86
247 4 2 1 1 28 79 62 29
248 4 2 1 1 51 50 95 110
249 4 2 1 1 116 45 46 96
250 4 2 1 1 13 14 70 119
251 4 2 1 1 3 87 61 22
252 4 2 1 1 1 13 76 118
253 4 2 1 1 94 9 118 44
254 4 2 1 1 93 10 52 112
255 4 2 1 1 30 60 4 81
256 4 2 1 1 50 49 108 114
257 4 2 1 1 49 109 113 48
258 4 2 1 1 77 85 26 25
259 4 2 1 1 89 80 42 43
260 4 2 1 1 111 21 20 57
261 4 2 1 1 92 35 36 88
262 4 2 1 1 121 1 76 118
263 4 2 1 1 20 19 110 71
264 4 2 1 1 79 42 41 103
265 4 2 1 1 81 60 4 127
266 4 2 1 1 118 121 9 94
267 4 2 1 1 112 93 10 125
268 4 2 1 1 52 51 101 111
269 4 2 1 1 29 69 30 80
270 4 2 1 1 45 102 119 44
271 4 2 1 1 24 74 83 23
272 4 2 1 1 106 47 46 117
273 4 2 1 1 38 39 105 85
274 4 2 1 1 15 16 73 117
275 4 2 1 1 36 37 107 83
276 4 2 1 1 28 27 78 86
277 4 2 1 1 34 6 126 60
278 4 2 1 1 54 120 11 94
279 4 2 1 1 56 93 12 124
280 4 2 1 1 12 126 99 55
281 4 2 1 1 53 100 11 122
282 4 2 1 1 33 124 6 67
283 4 2 1 1 32 122 5 61
284 4 2 1 1 31 76 5 120
285 4 2 1 1 92 74 96 64
286 4 2 1 1 96 74 92 107
287 4 2 1 1 122 87 53 100
288 4 2 1 1 122 53 87 123
289 4 2 1 1 97 58 17 66
290 4 2 1 1 17 58 97 109
291 4 2 1 1 17 115 97 66
292 4 2 1 1 97 115 17 109
293 4 2 1 1 74 91 84 107
294 4 2 1 1 74 84 91 63
295 4 2 1 1 97 77 75 66
296 4 2 1 1 75 77 97 105
297 4 2 1 1 99 6 60 126
298 4 2 1 1 99 60 6 67
$EndElements
