$MeshFormat
2.2 0 8
$EndMeshFormat
$PhysicalNames
2
3 1 "alumina_OPEM_RESERVED_1"
3 2 "air_OPEM_RESERVED_2"
$EndPhysicalNames
$Nodes
257
1 0 0 0
2 0.00127 0 0
3 0.00127 0 0.000254
4 0.001143 0 0.000254
5 0 0 0.000254
6 0.00254 0 0
7 0.00254 0 0.000254
8 0.001397 0 0.000254
9 0.00254 0.01 0
10 0.00254 0.01 0.000254
11 0.00127 0.01 0
12 0.00127 0.01 0.000254
13 0.001524 0.01 0.000254
14 0 0.01 0
15 0 0.01 0.000254
16 0.001016 0.01 0.000254
17 0.001016 0.005 0.000254
18 0.001143 0.005 0.000254
19 0.001524 0.005 0.000254
20 0.001397 0.005 0.000254
21 0.001143 0 0.000279
22 0.001397 0 0.000279
23 0.00254 0 0.001524
24 0 0 0.001524
25 0.001143 0.005 0.000279
26 0.001016 0.005 0.000279
27 0.001397 0.005 0.000279
28 0.001524 0.005 0.000279
29 0.001524 0.01 0.000279
30 0.001016 0.01 0.000279
31 0.00254 0.01 0.001524
32 0 0.01 0.001524
33 0.0006350000000000012 0 0
34 0.0005714999999999993 0 0.000254
35 0.001905000000000001 0 0
36 0.001968499999999999 0 0.000254
37 0.00254 0.001000000000000001 0
38 0.00254 0.002000000000000002 0
39 0.00254 0.003000000000000004 0
40 0.00254 0.004000000000000006 0
41 0.00254 0.005000000000000009 0
42 0.00254 0.00600000000000001 0
43 0.00254 0.007000000000000012 0
44 0.00254 0.008000000000000014 0
45 0.00254 0.00900000000000001 0
46 0.00254 0.001000000000000001 0.000254
47 0.00254 0.002000000000000002 0.000254
48 0.00254 0.003000000000000004 0.000254
49 0.00254 0.004000000000000006 0.000254
50 0.00254 0.005000000000000009 0.000254
51 0.00254 0.00600000000000001 0.000254
52 0.00254 0.007000000000000012 0.000254
53 0.00254 0.008000000000000014 0.000254
54 0.00254 0.00900000000000001 0.000254
55 0.001904999999999999 0.01 0
56 0.0006349999999999991 0.01 0
57 0 0.008999999999999999 0
58 0 0.007999999999999998 0
59 0 0.006999999999999996 0
60 0 0.005999999999999994 0
61 0 0.004999999999999991 0
62 0 0.003999999999999991 0
63 0 0.002999999999999988 0
64 0 0.001999999999999986 0
65 0 0.0009999999999999905 0
66 0 0.008999999999999999 0.000254
67 0 0.007999999999999998 0.000254
68 0 0.006999999999999996 0.000254
69 0 0.005999999999999994 0.000254
70 0 0.004999999999999991 0.000254
71 0 0.003999999999999991 0.000254
72 0 0.002999999999999988 0.000254
73 0 0.001999999999999986 0.000254
74 0 0.0009999999999999905 0.000254
75 0.001016 0.008999999999999999 0.000254
76 0.001016 0.007999999999999997 0.000254
77 0.001016 0.006999999999999996 0.000254
78 0.001016 0.005999999999999993 0.000254
79 0.001143 0.003999999999999999 0.000254
80 0.001143 0.002999999999999997 0.000254
81 0.001143 0.001999999999999995 0.000254
82 0.001143 0.0009999999999999931 0.000254
83 0.001524 0.006000000000000001 0.000254
84 0.001524 0.007000000000000003 0.000254
85 0.001524 0.008000000000000005 0.000254
86 0.001524 0.009000000000000008 0.000254
87 0.001397 0.001000000000000001 0.000254
88 0.001397 0.002000000000000003 0.000254
89 0.001397 0.003000000000000005 0.000254
90 0.001397 0.004000000000000007 0.000254
91 0.00254 0 0.0008890000000000012
92 0.0008466666666666687 0 0.001524
93 0.001693333333333335 0 0.001524
94 0 0 0.0008890000000000012
95 0.001143 0.003999999999999999 0.000279
96 0.001143 0.002999999999999997 0.000279
97 0.001143 0.001999999999999995 0.000279
98 0.001143 0.0009999999999999931 0.000279
99 0.001397 0.001000000000000001 0.000279
100 0.001397 0.002000000000000003 0.000279
101 0.001397 0.003000000000000005 0.000279
102 0.001397 0.004000000000000007 0.000279
103 0.001524 0.006000000000000001 0.000279
104 0.001524 0.007000000000000003 0.000279
105 0.001524 0.008000000000000005 0.000279
106 0.001524 0.009000000000000008 0.000279
107 0.001016 0.008999999999999999 0.000279
108 0.001016 0.007999999999999997 0.000279
109 0.001016 0.006999999999999996 0.000279
110 0.001016 0.005999999999999993 0.000279
111 0.00254 0.01 0.0008890000000000012
112 0.00254 0.001000000000000001 0.001524
113 0.00254 0.002000000000000002 0.001524
114 0.00254 0.003000000000000004 0.001524
115 0.00254 0.004000000000000006 0.001524
116 0.00254 0.005000000000000009 0.001524
117 0.00254 0.00600000000000001 0.001524
118 0.00254 0.007000000000000012 0.001524
119 0.00254 0.008000000000000014 0.001524
120 0.00254 0.00900000000000001 0.001524
121 0.001693333333333331 0.01 0.001524
122 0.0008466666666666653 0.01 0.001524
123 0 0.008999999999999999 0.001524
124 0 0.007999999999999998 0.001524
125 0 0.006999999999999996 0.001524
126 0 0.005999999999999994 0.001524
127 0 0.004999999999999991 0.001524
128 0 0.003999999999999991 0.001524
129 0 0.002999999999999988 0.001524
130 0 0.001999999999999986 0.001524
131 0 0.0009999999999999905 0.001524
132 0 0.01 0.0008890000000000012
133 0.0003016250000000001 0 0.000127
134 0.002238375 0 0.000127
135 0.0009122729517798638 0.001381587952680477 0
136 0.001653654719347499 0.008618412047319522 0
137 0.001576274048666812 0.005393571080965938 0
138 0.00167397459621556 0.003500000000000005 0
139 0.001563720122211109 0.0005752978799064548 0
140 0.0009524999999999996 0.009450073868596882 0
141 0.0009448708751223966 0.007562387604624058 0
142 0.000899016949075503 0.004474385469950976 0
143 0.0008543745913325701 0.002646931325446742 0
144 0.001573580466350984 0.006600137302689788 0
145 0.0009525000000000005 0.0005499261314031176 0
146 0.001919166179736652 0.001330505990505825 0
147 0.001590048310515451 0.009479866364768719 0
148 0.0006516178117943282 0.008684120568348743 0
149 0.001739964719844108 0.002309837544772176 0
150 0.001850421212164176 0.007556187390926679 0
151 0.000911659876940574 0.00600000000000001 0
152 0.001845853118791575 0.004473591310183387 0
153 0.0006854732273247267 0.00352426335907954 0
154 0.0007122910588700897 0.005285868491225773 0
155 0.0007245731830020879 0.006745002433238479 0
156 0.0003954558790813486 0.0005418083534636008 0
157 0.002146026627251576 0.009459742692776083 0
158 0.002093577260389552 0.000581160774082456 0
159 0.0004223543377694964 0.009440270602292801 0
160 0.0005080000000000042 0.004499999999999991 0.000254
161 0.0005079999999999994 0.005499999999999996 0.000254
162 0.0005714999999999993 0.001499999999999988 0.000254
163 0.0005714999999999997 0.0005833333333333289 0.000254
164 0.0005715000000000006 0.002499999999999992 0.000254
165 0.0005609166666666677 0.003499999999999993 0.000254
166 0.0005138709396019356 0.004999999999999994 0.000254
167 0.0005080000000000002 0.006499999999999994 0.000254
168 0.0005080000000000002 0.008499999999999999 0.000254
169 0.0005080000000000001 0.007499999999999996 0.000254
170 0.000508 0.009500000000000001 0.000254
171 0.00127 0.006499999999999999 0.000254
172 0.00127 0.0075 0.000254
173 0.00127 0.008500000000000002 0.000254
174 0.001269999999999997 0.009498271479057449 0.000254
175 0.00127 0.005333333333333332 0.000254
176 0.002032000000000004 0.004500000000000007 0.000254
177 0.002032000000000002 0.005500000000000007 0.000254
178 0.001979083333333334 0.003500000000000006 0.000254
179 0.0019685 0.001500000000000001 0.000254
180 0.0019685 0.0005833333333333341 0.000254
181 0.001970263888888889 0.002500000000000004 0.000254
182 0.002032 0.008500000000000008 0.000254
183 0.002031999999999999 0.009500000000000003 0.000254
184 0.002032000000000003 0.007500000000000012 0.000254
185 0.002032000000000003 0.006500000000000009 0.000254
186 0.001269109107920639 0 0.0009822270314485525
187 0.0007524659371436969 0 0.0009055672334498383
188 0.001001683942780226 0 0.0006822468450870292
189 0.001269158100871831 0 0.0004260206332314162
190 0.0019047511916911 0 0.00092394603336591
191 0.001679077532949996 0 0.0006564973841798294
192 0.001272614650928045 0 0.0006565636218841264
193 0.001095825022052467 0 0.0004967008493620048
194 0.001465302713678845 0 0.0004861852775851211
195 0.002190411238036156 0 0.0006361602934729273
196 0.0004029589670033602 0 0.0006581233966762154
197 0.0007926684156822313 0 0.0004396731466074519
198 0.0003720472098860278 0 0.001130527232875151
199 0.002205624735400844 0 0.001151867992534576
200 0.00127 0.009500000000000001 0.000279
201 0.00127 0.006499999999999999 0.000279
202 0.00127 0.007500000000000001 0.000279
203 0.00127 0.008500000000000002 0.000279
204 0.00127 0.005333333333333333 0.000279
205 0.00254 0.008500000000000013 0.0008889999999999988
206 0.00254 0.007500000000000014 0.0008889999999999997
207 0.00254 0.001500000000000001 0.000889
208 0.00254 0.006500000000000011 0.0008889999999999999
209 0.00254 0.005500000000000008 0.0008890000000000001
210 0.00254 0.004500000000000007 0.0008890000000000001
211 0.00254 0.003500000000000005 0.0008890000000000001
212 0.00254 0.002500000000000003 0.0008890000000000001
213 0.00254 0.009358734013605444 0.0008890000000000001
214 0.00254 0.0006412659863945582 0.0008890000000000001
215 0.001263005018486278 0.009273382326007409 0.001524
216 0.001276994981513723 0.0007266176739925924 0.001524
217 0.0008660254037844375 0.002499999999999987 0.001524
218 0.001673974596215563 0.007500000000000013 0.001524
219 0.001673974596215561 0.005500000000000009 0.001524
220 0.00167397459621556 0.003500000000000005 0.001524
221 0.0008660254037844401 0.006499999999999995 0.001524
222 0.0008660254037844393 0.004499999999999991 0.001524
223 0.0007470011473699307 0.001397572027295301 0.001524
224 0.001792998852630069 0.008602427972704699 0.001524
225 0.001751866600977761 0.001520141865075842 0.001524
226 0.000788133399022239 0.008479858134924158 0.001524
227 0.0006656266798044484 0.007495971626984832 0.001524
228 0.001874373320195552 0.002504028373015168 0.001524
229 0.001858794919243112 0.004500000000000004 0.001524
230 0.000681205080756888 0.005499999999999996 0.001524
231 0.001858794919243113 0.006500000000000008 0.001524
232 0.0006812050807568873 0.003499999999999992 0.001524
233 0.001952880102056338 0.009361327375296593 0.001524
234 0.0005871198979436619 0.0006386726247034069 0.001524
235 0.0005871198979436577 0.009361327375296592 0.001524
236 0.001952880102056342 0.0006386726247034078 0.001524
237 0 0.001499999999999987 0.0008889999999999988
238 0 0.002499999999999987 0.0008889999999999999
239 0 0.007499999999999997 0.0008890000000000001
240 0 0.003499999999999989 0.0008890000000000001
241 0 0.008499999999999999 0.000889
242 0 0.005499999999999993 0.0008890000000000001
243 0 0.006499999999999994 0.0008890000000000001
244 0 0.004499999999999992 0.0008890000000000001
245 0 0.0006412659863945566 0.0008890000000000001
246 0 0.009358734013605442 0.0008890000000000001
247 0.001271928015803637 0.01 0.00058562366173579
248 0.0005004950787401569 0.01 0.0005715000000000006
249 0.002039504921259842 0.01 0.0005715000000000006
250 0.001269999999999998 0.01 0.001098902760516055
251 0.002095201934065419 0.01 0.001071197004711143
252 0.0004514528821537057 0.01 0.001061487321307731
253 0.001672705264070328 0.01 0.0008728523457966881
254 0.0008832632757865781 0.01 0.00084609289120118
255 0.001721178346377444 0.01 0.0005320064239251567
256 0.0008044421274025794 0.01 0.000506663803303676
257 0.001151245741362611 0.0006249391170386888 0.0008181077410670972
$EndNodes
$Elements
822
1 4 2 1 1 84 85 150 172
2 4 2 1 1 76 75 173 148
3 4 2 1 1 86 13 147 174
4 4 2 1 1 75 16 174 140
5 4 2 1 1 85 86 136 173
6 4 2 1 1 173 76 148 136
7 4 2 1 1 152 90 142 138
8 4 2 1 1 136 85 141 150
9 4 2 1 1 17 78 175 154
10 4 2 1 1 153 142 79 138
11 4 2 1 1 77 76 172 141
12 4 2 1 1 76 141 148 136
13 4 2 1 1 84 83 171 144
14 4 2 1 1 137 144 151 83
15 4 2 1 1 143 138 89 149
16 4 2 1 1 185 144 43 42
17 4 2 1 1 42 177 137 41
18 4 2 1 1 90 79 142 138
19 4 2 1 1 83 137 144 42
20 4 2 1 1 149 88 135 146
21 4 2 1 1 59 169 141 58
22 4 2 1 1 158 35 6 134
23 4 2 1 1 19 83 137 175
24 4 2 1 1 141 76 85 136
25 4 2 1 1 80 143 153 138
26 4 2 1 1 20 142 137 152
27 4 2 1 1 62 160 142 61
28 4 2 1 1 85 76 173 136
29 4 2 1 1 45 44 182 136
30 4 2 1 1 80 143 138 89
31 4 2 1 1 18 142 154 137
32 4 2 1 1 162 65 64 135
33 4 2 1 1 141 150 84 144
34 4 2 1 1 87 139 135 146
35 4 2 1 1 34 5 163 133
36 4 2 1 1 36 7 134 180
37 4 2 1 1 156 133 1 33
38 4 2 1 1 15 16 170 56
39 4 2 1 1 166 142 61 154
40 4 2 1 1 13 10 183 55
41 4 2 1 1 142 18 20 137
42 4 2 1 1 137 19 20 152
43 4 2 1 1 163 82 4 145
44 4 2 1 1 75 148 140 136
45 4 2 1 1 77 155 141 144
46 4 2 1 1 84 150 141 172
47 4 2 1 1 40 39 178 138
48 4 2 1 1 151 60 167 155
49 4 2 1 1 86 13 183 147
50 4 2 1 1 164 143 64 63
51 4 2 1 1 137 83 177 42
52 4 2 1 1 185 83 144 42
53 4 2 1 1 82 145 135 139
54 4 2 1 1 61 160 142 166
55 4 2 1 1 39 181 138 149
56 4 2 1 1 84 77 141 144
57 4 2 1 1 58 76 148 168
58 4 2 1 1 87 180 8 139
59 4 2 1 1 147 86 140 136
60 4 2 1 1 60 59 167 155
61 4 2 1 1 155 171 151 144
62 4 2 1 1 39 181 149 38
63 4 2 1 1 154 60 161 151
64 4 2 1 1 61 60 161 154
65 4 2 1 1 148 141 76 58
66 4 2 1 1 16 75 170 140
67 4 2 1 1 135 82 139 87
68 4 2 1 1 59 169 155 141
69 4 2 1 1 86 75 140 136
70 4 2 1 1 136 44 182 150
71 4 2 1 1 17 79 160 142
72 4 2 1 1 83 84 185 144
73 4 2 1 1 19 83 177 137
74 4 2 1 1 17 18 142 154
75 4 2 1 1 89 138 181 149
76 4 2 1 1 76 77 169 141
77 4 2 1 1 173 148 75 136
78 4 2 1 1 158 7 180 134
79 4 2 1 1 41 40 176 152
80 4 2 1 1 8 87 139 3
81 4 2 1 1 180 46 7 158
82 4 2 1 1 85 86 182 136
83 4 2 1 1 158 36 35 134
84 4 2 1 1 84 141 77 172
85 4 2 1 1 151 154 137 175
86 4 2 1 1 79 17 18 142
87 4 2 1 1 89 90 178 138
88 4 2 1 1 182 85 136 150
89 4 2 1 1 81 82 162 135
90 4 2 1 1 57 159 14 66
91 4 2 1 1 5 74 163 156
92 4 2 1 1 7 37 6 158
93 4 2 1 1 7 37 158 46
94 4 2 1 1 150 85 141 172
95 4 2 1 1 181 178 39 138
96 4 2 1 1 139 82 3 87
97 4 2 1 1 90 19 176 152
98 4 2 1 1 150 84 144 43
99 4 2 1 1 38 179 149 146
100 4 2 1 1 150 44 184 43
101 4 2 1 1 84 150 184 43
102 4 2 1 1 176 19 41 152
103 4 2 1 1 19 137 41 152
104 4 2 1 1 63 165 153 62
105 4 2 1 1 148 57 58 168
106 4 2 1 1 45 10 9 157
107 4 2 1 1 45 10 157 54
108 4 2 1 1 152 40 178 138
109 4 2 1 1 40 178 176 152
110 4 2 1 1 5 65 156 1
111 4 2 1 1 65 5 156 74
112 4 2 1 1 156 5 133 163
113 4 2 1 1 137 154 18 175
114 4 2 1 1 185 144 84 43
115 4 2 1 1 144 171 151 83
116 4 2 1 1 76 141 169 58
117 4 2 1 1 58 169 76 168
118 4 2 1 1 185 84 184 43
119 4 2 1 1 160 142 153 62
120 4 2 1 1 41 177 19 176
121 4 2 1 1 19 137 177 41
122 4 2 1 1 77 167 169 155
123 4 2 1 1 165 160 153 62
124 4 2 1 1 158 6 7 134
125 4 2 1 1 78 161 167 151
126 4 2 1 1 85 84 150 184
127 4 2 1 1 138 181 178 89
128 4 2 1 1 80 81 164 143
129 4 2 1 1 176 178 40 49
130 4 2 1 1 160 153 79 165
131 4 2 1 1 146 38 179 37
132 4 2 1 1 167 161 69 151
133 4 2 1 1 39 48 178 181
134 4 2 1 1 162 73 65 74
135 4 2 1 1 38 47 179 37
136 4 2 1 1 46 179 47 37
137 4 2 1 1 90 176 178 152
138 4 2 1 1 169 167 68 155
139 4 2 1 1 157 182 183 86
140 4 2 1 1 71 160 165 62
141 4 2 1 1 39 48 181 47
142 4 2 1 1 181 39 47 38
143 4 2 1 1 183 54 182 157
144 4 2 1 1 17 78 154 161
145 4 2 1 1 54 53 182 45
146 4 2 1 1 178 48 39 49
147 4 2 1 1 39 40 178 49
148 4 2 1 1 83 185 177 42
149 4 2 1 1 60 69 70 161
150 4 2 1 1 68 60 167 69
151 4 2 1 1 71 165 63 62
152 4 2 1 1 71 165 72 63
153 4 2 1 1 79 80 165 153
154 4 2 1 1 58 66 168 57
155 4 2 1 1 168 58 169 67
156 4 2 1 1 20 19 90 152
157 4 2 1 1 176 40 41 49
158 4 2 1 1 41 50 177 176
159 4 2 1 1 52 185 184 43
160 4 2 1 1 54 183 10 157
161 4 2 1 1 71 160 62 70
162 4 2 1 1 179 87 88 146
163 4 2 1 1 64 73 162 164
164 4 2 1 1 66 58 168 67
165 4 2 1 1 41 50 176 49
166 4 2 1 1 61 62 160 70
167 4 2 1 1 51 43 185 52
168 4 2 1 1 180 36 158 134
169 4 2 1 1 61 60 70 161
170 4 2 1 1 45 182 54 157
171 4 2 1 1 73 65 64 162
172 4 2 1 1 64 73 164 72
173 4 2 1 1 72 164 64 63
174 4 2 1 1 184 44 53 52
175 4 2 1 1 44 182 53 45
176 4 2 1 1 75 168 170 148
177 4 2 1 1 145 156 163 135
178 4 2 1 1 150 182 85 184
179 4 2 1 1 52 184 44 43
180 4 2 1 1 67 59 169 68
181 4 2 1 1 156 162 163 135
182 4 2 1 1 87 179 180 146
183 4 2 1 1 4 34 145 33
184 4 2 1 1 51 177 185 42
185 4 2 1 1 60 68 167 59
186 4 2 1 1 67 59 58 169
187 4 2 1 1 4 34 163 145
188 4 2 1 1 20 90 18 142
189 4 2 1 1 157 86 147 136
190 4 2 1 1 66 168 148 170
191 4 2 1 1 51 50 177 42
192 4 2 1 1 88 89 181 149
193 4 2 1 1 42 50 177 41
194 4 2 1 1 133 156 34 33
195 4 2 1 1 43 51 185 42
196 4 2 1 1 79 18 90 142
197 4 2 1 1 46 180 179 146
198 4 2 1 1 87 135 88 146
199 4 2 1 1 181 88 149 179
200 4 2 1 1 87 81 135 82
201 4 2 1 1 34 163 145 33
202 4 2 1 1 81 87 135 88
203 4 2 1 1 156 65 162 135
204 4 2 1 1 79 142 153 160
205 4 2 1 1 75 76 168 148
206 4 2 1 1 165 153 143 63
207 4 2 1 1 88 149 179 146
208 4 2 1 1 161 60 69 151
209 4 2 1 1 167 69 60 151
210 4 2 1 1 79 89 138 90
211 4 2 1 1 89 79 138 80
212 4 2 1 1 164 165 143 72
213 4 2 1 1 178 90 152 138
214 4 2 1 1 174 86 140 147
215 4 2 1 1 86 157 182 136
216 4 2 1 1 79 80 153 138
217 4 2 1 1 157 45 182 136
218 4 2 1 1 72 165 143 63
219 4 2 1 1 174 140 11 147
220 4 2 1 1 90 142 20 152
221 4 2 1 1 8 35 139 36
222 4 2 1 1 155 77 171 144
223 4 2 1 1 143 164 72 63
224 4 2 1 1 81 80 88 143
225 4 2 1 1 88 80 89 143
226 4 2 1 1 179 149 181 47
227 4 2 1 1 180 139 35 36
228 4 2 1 1 164 80 143 165
229 4 2 1 1 145 2 4 33
230 4 2 1 1 78 151 137 175
231 4 2 1 1 46 180 146 158
232 4 2 1 1 154 151 78 175
233 4 2 1 1 66 148 159 170
234 4 2 1 1 78 151 171 83
235 4 2 1 1 180 8 139 36
236 4 2 1 1 34 156 133 163
237 4 2 1 1 47 179 149 38
238 4 2 1 1 146 180 139 158
239 4 2 1 1 163 82 145 135
240 4 2 1 1 13 12 11 174
241 4 2 1 1 11 12 16 174
242 4 2 1 1 86 140 75 174
243 4 2 1 1 175 137 78 83
244 4 2 1 1 55 13 11 147
245 4 2 1 1 75 86 173 136
246 4 2 1 1 82 163 162 135
247 4 2 1 1 61 161 166 154
248 4 2 1 1 2 8 35 139
249 4 2 1 1 166 17 142 154
250 4 2 1 1 88 143 89 149
251 4 2 1 1 158 146 46 37
252 4 2 1 1 35 180 36 158
253 4 2 1 1 159 56 14 170
254 4 2 1 1 159 148 75 170
255 4 2 1 1 1 5 133 156
256 4 2 1 1 151 78 137 83
257 4 2 1 1 153 143 80 165
258 4 2 1 1 68 59 169 155
259 4 2 1 1 57 148 159 66
260 4 2 1 1 16 11 140 56
261 4 2 1 1 183 157 86 147
262 4 2 1 1 85 76 141 172
263 4 2 1 1 180 139 87 146
264 4 2 1 1 161 17 166 154
265 4 2 1 1 75 140 148 159
266 4 2 1 1 47 149 181 38
267 4 2 1 1 161 70 61 166
268 4 2 1 1 160 61 70 166
269 4 2 1 1 157 183 10 55
270 4 2 1 1 10 9 157 55
271 4 2 1 1 161 154 151 78
272 4 2 1 1 174 11 13 147
273 4 2 1 1 35 139 180 158
274 4 2 1 1 15 14 56 170
275 4 2 1 1 18 20 137 175
276 4 2 1 1 163 34 156 33
277 4 2 1 1 155 169 77 141
278 4 2 1 1 145 163 156 33
279 4 2 1 1 55 183 13 147
280 4 2 1 1 75 140 159 170
281 4 2 1 1 179 46 146 37
282 4 2 1 1 154 17 18 175
283 4 2 1 1 140 11 16 174
284 4 2 1 1 84 171 77 144
285 4 2 1 1 8 2 3 139
286 4 2 1 1 59 68 167 155
287 4 2 1 1 56 140 16 170
288 4 2 1 1 55 157 183 147
289 4 2 1 1 140 56 159 170
290 4 2 1 1 17 142 160 166
291 4 2 1 1 148 57 168 66
292 4 2 1 1 137 20 19 175
293 4 2 1 1 135 88 143 81
294 4 2 1 1 135 143 88 149
295 4 2 1 1 143 164 135 81
296 4 2 1 1 143 135 164 64
297 4 2 1 1 162 135 164 81
298 4 2 1 1 162 164 135 64
299 4 2 1 1 139 82 2 3
300 4 2 1 1 139 2 82 145
301 4 2 1 1 4 2 82 3
302 4 2 1 1 4 82 2 145
303 4 2 1 1 44 184 182 150
304 4 2 1 1 182 184 44 53
305 4 2 1 1 156 74 162 65
306 4 2 1 1 162 74 156 163
307 4 2 1 1 170 14 66 15
308 4 2 1 1 170 66 14 159
309 4 2 1 1 171 155 78 77
310 4 2 1 1 171 78 155 151
311 4 2 1 1 167 78 155 77
312 4 2 1 1 167 155 78 151
313 4 2 2 2 247 253 250 200
314 4 2 2 2 247 250 254 200
315 4 2 2 2 253 215 250 200
316 4 2 2 2 250 215 254 200
317 4 2 2 2 255 106 253 200
318 4 2 2 2 107 200 256 254
319 4 2 2 2 215 253 106 200
320 4 2 2 2 193 192 189 257
321 4 2 2 2 253 247 255 200
322 4 2 2 2 107 254 215 200
323 4 2 2 2 103 104 201 231
324 4 2 2 2 109 108 227 202
325 4 2 2 2 188 193 197 257
326 4 2 2 2 105 106 203 224
327 4 2 2 2 215 107 106 203
328 4 2 2 2 230 242 166 244
329 4 2 2 2 190 180 191 257
330 4 2 2 2 30 107 200 256
331 4 2 2 2 106 224 215 203
332 4 2 2 2 29 106 255 200
333 4 2 2 2 233 251 213 253
334 4 2 2 2 110 109 221 201
335 4 2 2 2 253 233 215 106
336 4 2 2 2 194 189 192 257
337 4 2 2 2 110 26 204 230
338 4 2 2 2 214 236 99 180
339 4 2 2 2 249 251 253 183
340 4 2 2 2 104 105 202 218
341 4 2 2 2 247 254 256 200
342 4 2 2 2 207 214 236 179
343 4 2 2 2 188 197 187 257
344 4 2 2 2 107 108 203 226
345 4 2 2 2 99 236 214 179
346 4 2 2 2 107 254 235 215
347 4 2 2 2 203 226 108 105
348 4 2 2 2 236 180 190 257
349 4 2 2 2 201 231 221 103
350 4 2 2 2 104 231 221 201
351 4 2 2 2 254 248 170 252
352 4 2 2 2 26 161 166 230
353 4 2 2 2 202 108 227 218
354 4 2 2 2 240 238 96 232
355 4 2 2 2 211 229 210 102
356 4 2 2 2 244 240 95 232
357 4 2 2 2 227 109 202 218
358 4 2 2 2 228 211 212 101
359 4 2 2 2 180 99 214 179
360 4 2 2 2 203 224 226 105
361 4 2 2 2 99 180 236 257
362 4 2 2 2 233 253 183 106
363 4 2 2 2 166 230 244 222
364 4 2 2 2 241 107 246 235
365 4 2 2 2 230 166 26 222
366 4 2 2 2 221 110 201 103
367 4 2 2 2 104 221 109 201
368 4 2 2 2 226 107 215 203
369 4 2 2 2 181 207 100 179
370 4 2 2 2 162 97 164 237
371 4 2 2 2 237 97 164 238
372 4 2 2 2 207 181 100 212
373 4 2 2 2 238 165 96 164
374 4 2 2 2 178 212 101 181
375 4 2 2 2 95 165 240 244
376 4 2 2 2 212 178 101 211
377 4 2 2 2 165 238 96 240
378 4 2 2 2 181 212 228 100
379 4 2 2 2 181 228 212 101
380 4 2 2 2 240 165 95 232
381 4 2 2 2 240 96 165 232
382 4 2 2 2 242 166 161 230
383 4 2 2 2 26 25 204 230
384 4 2 2 2 163 162 245 257
385 4 2 2 2 218 109 202 104
386 4 2 2 2 202 108 218 105
387 4 2 2 2 165 95 160 244
388 4 2 2 2 237 245 162 257
389 4 2 2 2 254 170 107 235
390 4 2 2 2 255 106 183 253
391 4 2 2 2 176 210 229 102
392 4 2 2 2 241 239 108 227
393 4 2 2 2 245 198 196 187
394 4 2 2 2 231 208 209 103
395 4 2 2 2 231 206 208 104
396 4 2 2 2 28 229 210 209
397 4 2 2 2 243 242 110 230
398 4 2 2 2 109 239 243 227
399 4 2 2 2 237 162 97 223
400 4 2 2 2 224 226 215 203
401 4 2 2 2 28 103 204 219
402 4 2 2 2 204 110 230 219
403 4 2 2 2 186 190 191 257
404 4 2 2 2 245 223 234 257
405 4 2 2 2 251 213 253 183
406 4 2 2 2 107 215 106 200
407 4 2 2 2 230 25 204 219
408 4 2 2 2 27 28 229 102
409 4 2 2 2 236 214 190 180
410 4 2 2 2 253 213 233 183
411 4 2 2 2 224 233 213 106
412 4 2 2 2 237 223 245 257
413 4 2 2 2 101 181 228 100
414 4 2 2 2 245 196 163 187
415 4 2 2 2 204 110 219 103
416 4 2 2 2 96 95 165 232
417 4 2 2 2 109 108 169 227
418 4 2 2 2 190 186 236 257
419 4 2 2 2 238 237 97 217
420 4 2 2 2 107 256 170 254
421 4 2 2 2 103 104 231 185
422 4 2 2 2 110 26 230 161
423 4 2 2 2 176 229 28 102
424 4 2 2 2 253 255 249 183
425 4 2 2 2 234 198 245 187
426 4 2 2 2 25 27 204 219
427 4 2 2 2 192 191 194 257
428 4 2 2 2 166 160 26 222
429 4 2 2 2 95 244 232 222
430 4 2 2 2 211 220 229 102
431 4 2 2 2 160 166 244 222
432 4 2 2 2 228 220 211 101
433 4 2 2 2 237 162 223 257
434 4 2 2 2 213 251 249 183
435 4 2 2 2 183 213 233 106
436 4 2 2 2 232 238 96 217
437 4 2 2 2 229 222 27 102
438 4 2 2 2 220 211 178 102
439 4 2 2 2 178 211 220 101
440 4 2 2 2 218 205 206 105
441 4 2 2 2 236 225 99 257
442 4 2 2 2 213 205 224 106
443 4 2 2 2 225 98 99 257
444 4 2 2 2 246 107 170 235
445 4 2 2 2 223 97 237 217
446 4 2 2 2 129 238 240 232
447 4 2 2 2 118 231 206 208
448 4 2 2 2 242 230 127 244
449 4 2 2 2 116 210 229 209
450 4 2 2 2 211 210 229 115
451 4 2 2 2 128 240 244 232
452 4 2 2 2 243 242 230 126
453 4 2 2 2 208 117 231 209
454 4 2 2 2 234 187 245 257
455 4 2 2 2 239 241 124 227
456 4 2 2 2 207 212 228 113
457 4 2 2 2 96 95 232 220
458 4 2 2 2 188 192 193 257
459 4 2 2 2 238 164 96 217
460 4 2 2 2 238 97 164 217
461 4 2 2 2 236 225 207 179
462 4 2 2 2 95 160 244 222
463 4 2 2 2 100 207 225 179
464 4 2 2 2 225 236 99 179
465 4 2 2 2 233 224 215 106
466 4 2 2 2 101 228 217 100
467 4 2 2 2 227 239 243 125
468 4 2 2 2 212 211 228 114
469 4 2 2 2 219 231 209 103
470 4 2 2 2 229 28 219 209
471 4 2 2 2 221 243 110 230
472 4 2 2 2 246 168 107 241
473 4 2 2 2 205 213 182 106
474 4 2 2 2 191 180 194 257
475 4 2 2 2 246 170 248 252
476 4 2 2 2 221 109 243 227
477 4 2 2 2 162 98 97 223
478 4 2 2 2 239 169 108 227
479 4 2 2 2 197 193 163 257
480 4 2 2 2 231 208 103 185
481 4 2 2 2 242 161 110 230
482 4 2 2 2 104 208 231 185
483 4 2 2 2 210 229 28 176
484 4 2 2 2 239 109 169 227
485 4 2 2 2 225 223 98 257
486 4 2 2 2 190 186 93 236
487 4 2 2 2 225 98 97 99
488 4 2 2 2 100 225 97 99
489 4 2 2 2 105 106 224 182
490 4 2 2 2 182 205 224 105
491 4 2 2 2 256 248 170 254
492 4 2 2 2 231 218 206 104
493 4 2 2 2 250 121 233 253
494 4 2 2 2 178 48 212 181
495 4 2 2 2 48 212 211 178
496 4 2 2 2 250 233 215 253
497 4 2 2 2 163 196 197 187
498 4 2 2 2 218 224 205 105
499 4 2 2 2 226 241 108 227
500 4 2 2 2 195 190 214 180
501 4 2 2 2 98 97 223 225
502 4 2 2 2 130 237 238 217
503 4 2 2 2 205 119 218 206
504 4 2 2 2 237 164 73 238
505 4 2 2 2 73 162 164 237
506 4 2 2 2 222 25 27 102
507 4 2 2 2 179 181 207 47
508 4 2 2 2 181 212 207 47
509 4 2 2 2 235 241 107 226
510 4 2 2 2 163 245 187 257
511 4 2 2 2 72 164 165 238
512 4 2 2 2 238 165 72 240
513 4 2 2 2 229 28 27 219
514 4 2 2 2 176 210 211 49
515 4 2 2 2 176 211 178 49
516 4 2 2 2 195 191 190 180
517 4 2 2 2 215 254 235 250
518 4 2 2 2 95 101 220 96
519 4 2 2 2 101 95 220 102
520 4 2 2 2 222 95 25 102
521 4 2 2 2 26 25 230 222
522 4 2 2 2 122 235 254 250
523 4 2 2 2 192 186 191 257
524 4 2 2 2 101 217 96 100
525 4 2 2 2 97 96 217 100
526 4 2 2 2 162 98 223 257
527 4 2 2 2 110 221 219 103
528 4 2 2 2 108 226 218 105
529 4 2 2 2 182 224 205 106
530 4 2 2 2 215 235 107 226
531 4 2 2 2 231 219 221 103
532 4 2 2 2 230 110 221 219
533 4 2 2 2 218 221 109 104
534 4 2 2 2 237 130 223 217
535 4 2 2 2 218 224 119 205
536 4 2 2 2 236 216 225 257
537 4 2 2 2 162 163 98 257
538 4 2 2 2 227 221 109 218
539 4 2 2 2 27 222 229 219
540 4 2 2 2 218 231 221 104
541 4 2 2 2 227 108 226 218
542 4 2 2 2 204 27 28 219
543 4 2 2 2 25 230 222 219
544 4 2 2 2 232 95 222 220
545 4 2 2 2 222 229 220 102
546 4 2 2 2 222 27 25 219
547 4 2 2 2 224 218 226 105
548 4 2 2 2 103 209 219 177
549 4 2 2 2 28 219 209 177
550 4 2 2 2 110 167 243 221
551 4 2 2 2 167 109 243 221
552 4 2 2 2 220 228 217 101
553 4 2 2 2 244 230 127 222
554 4 2 2 2 219 116 229 209
555 4 2 2 2 232 244 128 222
556 4 2 2 2 211 229 220 115
557 4 2 2 2 117 219 231 209
558 4 2 2 2 230 221 243 126
559 4 2 2 2 217 228 225 100
560 4 2 2 2 220 95 222 102
561 4 2 2 2 217 96 232 220
562 4 2 2 2 190 214 199 195
563 4 2 2 2 225 97 217 100
564 4 2 2 2 199 214 190 236
565 4 2 2 2 99 100 225 179
566 4 2 2 2 227 243 221 125
567 4 2 2 2 211 220 228 114
568 4 2 2 2 216 236 186 257
569 4 2 2 2 218 206 104 184
570 4 2 2 2 105 206 218 184
571 4 2 2 2 107 108 226 168
572 4 2 2 2 28 103 219 177
573 4 2 2 2 110 109 167 221
574 4 2 2 2 217 96 220 101
575 4 2 2 2 25 26 95 222
576 4 2 2 2 118 231 218 206
577 4 2 2 2 232 129 238 217
578 4 2 2 2 163 187 197 257
579 4 2 2 2 160 95 26 222
580 4 2 2 2 241 168 107 226
581 4 2 2 2 207 214 112 236
582 4 2 2 2 123 241 246 235
583 4 2 2 2 217 223 97 225
584 4 2 2 2 228 225 207 113
585 4 2 2 2 226 124 241 227
586 4 2 2 2 102 178 220 101
587 4 2 2 2 74 163 162 245
588 4 2 2 2 214 46 180 179
589 4 2 2 2 241 108 168 226
590 4 2 2 2 223 225 216 257
591 4 2 2 2 104 105 218 184
592 4 2 2 2 97 96 164 217
593 4 2 2 2 186 187 92 257
594 4 2 2 2 21 163 197 193
595 4 2 2 2 216 93 186 236
596 4 2 2 2 245 131 234 223
597 4 2 2 2 224 233 120 213
598 4 2 2 2 215 121 233 250
599 4 2 2 2 245 162 74 237
600 4 2 2 2 46 214 207 179
601 4 2 2 2 235 122 215 250
602 4 2 2 2 54 205 213 182
603 4 2 2 2 92 187 234 257
604 4 2 2 2 70 166 242 244
605 4 2 2 2 246 66 168 241
606 4 2 2 2 254 252 235 122
607 4 2 2 2 111 213 251 249
608 4 2 2 2 131 245 237 223
609 4 2 2 2 205 224 120 213
610 4 2 2 2 251 233 121 253
611 4 2 2 2 248 16 256 170
612 4 2 2 2 180 195 191 36
613 4 2 2 2 132 246 248 252
614 4 2 2 2 98 22 189 21
615 4 2 2 2 180 191 194 36
616 4 2 2 2 194 180 99 257
617 4 2 2 2 16 15 170 248
618 4 2 2 2 199 214 91 195
619 4 2 2 2 29 106 183 255
620 4 2 2 2 10 13 183 249
621 4 2 2 2 107 30 170 256
622 4 2 2 2 186 92 216 257
623 4 2 2 2 112 225 207 236
624 4 2 2 2 235 123 241 226
625 4 2 2 2 187 234 198 92
626 4 2 2 2 187 186 188 257
627 4 2 2 2 94 198 196 245
628 4 2 2 2 234 223 216 257
629 4 2 2 2 121 215 122 250
630 4 2 2 2 247 256 30 200
631 4 2 2 2 186 92 93 216
632 4 2 2 2 246 248 15 132
633 4 2 2 2 198 24 234 245
634 4 2 2 2 251 31 233 213
635 4 2 2 2 111 10 213 249
636 4 2 2 2 255 247 29 200
637 4 2 2 2 188 186 192 257
638 4 2 2 2 92 234 216 257
639 4 2 2 2 199 23 214 236
640 4 2 2 2 32 246 132 252
641 4 2 2 2 195 214 7 180
642 4 2 2 2 213 251 31 111
643 4 2 2 2 252 32 246 235
644 4 2 2 2 34 163 196 197
645 4 2 2 2 199 190 93 236
646 4 2 2 2 7 91 214 195
647 4 2 2 2 94 196 5 245
648 4 2 2 2 22 180 99 194
649 4 2 2 2 196 163 5 245
650 4 2 2 2 94 24 198 245
651 4 2 2 2 34 4 163 197
652 4 2 2 2 214 91 23 199
653 4 2 2 2 198 234 24 92
654 4 2 2 2 233 121 31 251
655 4 2 2 2 131 234 24 245
656 4 2 2 2 120 233 31 213
657 4 2 2 2 93 23 199 236
658 4 2 2 2 123 246 32 235
659 4 2 2 2 112 214 23 236
660 4 2 2 2 235 252 32 122
661 4 2 2 2 114 211 220 115
662 4 2 2 2 125 243 221 126
663 4 2 2 2 127 128 244 222
664 4 2 2 2 219 117 116 209
665 4 2 2 2 249 13 183 255
666 4 2 2 2 36 7 180 195
667 4 2 2 2 5 34 163 196
668 4 2 2 2 118 218 119 206
669 4 2 2 2 129 130 238 217
670 4 2 2 2 15 170 248 246
671 4 2 2 2 74 5 163 245
672 4 2 2 2 46 7 214 180
673 4 2 2 2 249 10 213 183
674 4 2 2 2 237 130 131 223
675 4 2 2 2 224 120 119 205
676 4 2 2 2 166 161 70 242
677 4 2 2 2 166 70 160 244
678 4 2 2 2 230 242 127 126
679 4 2 2 2 116 229 210 115
680 4 2 2 2 240 128 129 232
681 4 2 2 2 231 118 117 208
682 4 2 2 2 113 212 228 114
683 4 2 2 2 227 124 239 125
684 4 2 2 2 180 194 22 36
685 4 2 2 2 183 10 213 54
686 4 2 2 2 170 15 66 246
687 4 2 2 2 112 207 225 113
688 4 2 2 2 123 124 241 226
689 4 2 2 2 82 163 4 21
690 4 2 2 2 74 162 73 237
691 4 2 2 2 207 46 179 47
692 4 2 2 2 181 48 212 47
693 4 2 2 2 178 211 48 49
694 4 2 2 2 98 21 163 82
695 4 2 2 2 73 164 72 238
696 4 2 2 2 69 70 161 242
697 4 2 2 2 205 54 53 182
698 4 2 2 2 68 69 167 243
699 4 2 2 2 72 165 71 240
700 4 2 2 2 180 87 8 22
701 4 2 2 2 53 206 184 52
702 4 2 2 2 68 169 67 239
703 4 2 2 2 51 185 208 52
704 4 2 2 2 66 67 168 241
705 4 2 2 2 50 177 209 51
706 4 2 2 2 50 210 176 49
707 4 2 2 2 71 160 70 244
708 4 2 2 2 180 22 99 87
709 4 2 2 2 79 17 160 26
710 4 2 2 2 102 176 178 90
711 4 2 2 2 79 95 160 165
712 4 2 2 2 168 75 170 107
713 4 2 2 2 103 83 185 177
714 4 2 2 2 184 104 84 185
715 4 2 2 2 106 183 182 86
716 4 2 2 2 105 86 106 182
717 4 2 2 2 169 108 76 168
718 4 2 2 2 75 168 108 107
719 4 2 2 2 167 77 169 109
720 4 2 2 2 161 78 167 110
721 4 2 2 2 85 84 184 104
722 4 2 2 2 83 103 28 177
723 4 2 2 2 30 107 170 75
724 4 2 2 2 104 83 185 103
725 4 2 2 2 84 83 185 104
726 4 2 2 2 85 182 105 184
727 4 2 2 2 29 86 183 106
728 4 2 2 2 20 102 28 27
729 4 2 2 2 78 77 167 110
730 4 2 2 2 77 167 110 109
731 4 2 2 2 86 85 182 105
732 4 2 2 2 85 105 104 184
733 4 2 2 2 109 76 169 108
734 4 2 2 2 77 76 169 109
735 4 2 2 2 76 75 168 108
736 4 2 2 2 110 78 26 161
737 4 2 2 2 160 79 26 95
738 4 2 2 2 83 19 177 28
739 4 2 2 2 26 78 17 161
740 4 2 2 2 177 28 19 176
741 4 2 2 2 75 16 170 30
742 4 2 2 2 13 86 183 29
743 4 2 2 2 101 178 181 89
744 4 2 2 2 164 80 165 96
745 4 2 2 2 181 88 179 100
746 4 2 2 2 97 81 162 164
747 4 2 2 2 81 98 162 82
748 4 2 2 2 4 163 197 21
749 4 2 2 2 25 17 79 26
750 4 2 2 2 90 89 178 102
751 4 2 2 2 102 89 178 101
752 4 2 2 2 80 79 165 95
753 4 2 2 2 165 80 95 96
754 4 2 2 2 89 88 181 101
755 4 2 2 2 101 88 181 100
756 4 2 2 2 98 81 162 97
757 4 2 2 2 87 100 179 88
758 4 2 2 2 100 87 179 99
759 4 2 2 2 97 164 80 81
760 4 2 2 2 164 97 80 96
761 4 2 2 2 26 79 25 95
762 4 2 2 2 17 25 79 18
763 4 2 2 2 162 163 82 98
764 4 2 2 2 179 87 180 99
765 4 2 2 2 180 8 36 22
766 4 2 2 2 29 30 200 247
767 4 2 2 2 183 29 255 13
768 4 2 2 2 170 30 16 256
769 4 2 2 2 17 161 166 26
770 4 2 2 2 160 26 17 166
771 4 2 2 2 252 170 235 246
772 4 2 2 2 252 235 170 254
773 4 2 2 2 207 228 100 225
774 4 2 2 2 207 100 228 212
775 4 2 2 2 176 211 102 178
776 4 2 2 2 176 102 211 210
777 4 2 2 2 165 244 71 240
778 4 2 2 2 71 244 165 160
779 4 2 2 2 98 189 193 21
780 4 2 2 2 193 189 98 257
781 4 2 2 2 193 163 98 21
782 4 2 2 2 98 163 193 257
783 4 2 2 2 257 98 194 189
784 4 2 2 2 257 194 98 99
785 4 2 2 2 22 194 98 189
786 4 2 2 2 22 98 194 99
787 4 2 2 2 182 183 213 54
788 4 2 2 2 213 183 182 106
789 4 2 2 2 167 161 243 69
790 4 2 2 2 167 243 161 110
791 4 2 2 2 242 243 161 69
792 4 2 2 2 242 161 243 110
793 4 2 2 2 185 177 208 103
794 4 2 2 2 185 208 177 51
795 4 2 2 2 209 208 177 103
796 4 2 2 2 209 177 208 51
797 4 2 2 2 170 168 246 66
798 4 2 2 2 170 246 168 107
799 4 2 2 2 206 184 205 53
800 4 2 2 2 206 205 184 105
801 4 2 2 2 182 205 184 53
802 4 2 2 2 182 184 205 105
803 4 2 2 2 239 169 243 68
804 4 2 2 2 239 243 169 109
805 4 2 2 2 167 243 169 68
806 4 2 2 2 167 169 243 109
807 4 2 2 2 184 185 206 104
808 4 2 2 2 184 206 185 52
809 4 2 2 2 208 206 185 104
810 4 2 2 2 208 185 206 52
811 4 2 2 2 168 241 239 108
812 4 2 2 2 239 241 168 67
813 4 2 2 2 239 169 168 108
814 4 2 2 2 168 169 239 67
815 4 2 2 2 176 210 209 28
816 4 2 2 2 209 210 176 50
817 4 2 2 2 209 177 176 28
818 4 2 2 2 176 177 209 50
819 4 2 2 2 19 20 102 28
820 4 2 2 2 102 20 19 90
821 4 2 2 2 102 176 19 28
822 4 2 2 2 19 176 102 90
$EndElements
