$MeshFormat
2.2 0 8
$EndMeshFormat
$PhysicalNames
3
3 1 "air_OPEM_RESERVED_1"
3 2 "teflon_OPEM_RESERVED_2"
3 3 "air_OPEM_RESERVED_3"
$EndPhysicalNames
$Nodes
96
1 0 0 0
2 0.01043 0 0
3 0.01043 0 0.1
4 0 0 0.1
5 0 0.01016 0
6 0.01043 0.01016 0
7 0.01043 0.01016 0.1
8 0 0.01016 0.1
9 0.01043 0 0.01999999999999999
10 0.01043 0 0.03999999999999999
11 0.01043 0 0.06000000000000003
12 0.01043 0 0.08000000000000007
13 0 0 0.01999999999999999
14 0 0 0.03999999999999999
15 0 0 0.06000000000000003
16 0 0 0.08000000000000007
17 0.01043 0.01016 0.01999999999999999
18 0.01043 0.01016 0.03999999999999999
19 0.01043 0.01016 0.06000000000000003
20 0.01043 0.01016 0.08000000000000007
21 0 0.01016 0.01999999999999999
22 0 0.01016 0.03999999999999999
23 0 0.01016 0.06000000000000003
24 0 0.01016 0.08000000000000007
25 0.005215 0 0.05000000000000001
26 0.005215 0 0.07000000000000005
27 0.005215 0 0.02999999999999999
28 0.005215 0 0.009999999999999995
29 0.005214999999999999 0 0.09000000000000004
30 0.005214999999999999 0.00508 0
31 0.01043 0.00508 0.07000000000000005
32 0.01043 0.00508 0.05000000000000002
33 0.01043 0.00508 0.02999999999999999
34 0.01043 0.005080000000000001 0.009999999999999992
35 0.01043 0.00508 0.09000000000000004
36 0.005214999999999999 0.00508 0.1
37 0 0.00508 0.05000000000000002
38 0 0.005080000000000001 0.07000000000000005
39 0 0.005080000000000001 0.02999999999999999
40 0 0.005080000000000001 0.009999999999999992
41 0 0.005080000000000001 0.09000000000000004
42 0.005214999999999997 0.01016 0.05000000000000001
43 0.005215000000000001 0.01016 0.07000000000000005
44 0.005215000000000004 0.01016 0.02999999999999999
45 0.005215000000000001 0.01016 0.009999999999999992
46 0.005215000000000001 0.01016 0.09000000000000004
47 0.01143 0 0
48 0.01243 0 0
49 0.01243 0 0.1
50 0.01143 0 0.1
51 0.01243 0.01016 0
52 0.01243 0.01016 0.1
53 0.01143 0.01016 0
54 0.01143 0.01016 0.1
55 0.01243 0 0.01999999999999999
56 0.01243 0 0.03999999999999999
57 0.01243 0 0.06000000000000003
58 0.01243 0 0.08000000000000007
59 0.01243 0.01016 0.01999999999999999
60 0.01243 0.01016 0.03999999999999999
61 0.01243 0.01016 0.06000000000000003
62 0.01243 0.01016 0.08000000000000007
63 0.01243 0.00508 0.05000000000000002
64 0.01243 0.005079999999999999 0.07000000000000005
65 0.01243 0.00508 0.02999999999999999
66 0.01243 0.005079999999999999 0.009999999999999992
67 0.01243 0.005079999999999999 0.09000000000000004
68 0.02286 0 0
69 0.02286 0 0.1
70 0.02286 0.01016 0
71 0.02286 0.01016 0.1
72 0.02286 0 0.01999999999999999
73 0.02286 0 0.03999999999999999
74 0.02286 0 0.06000000000000003
75 0.02286 0 0.08000000000000007
76 0.02286 0.01016 0.01999999999999999
77 0.02286 0.01016 0.03999999999999999
78 0.02286 0.01016 0.06000000000000003
79 0.02286 0.01016 0.08000000000000007
80 0.017645 0 0.05000000000000001
81 0.017645 0 0.07000000000000005
82 0.017645 0 0.02999999999999999
83 0.017645 0 0.009999999999999993
84 0.017645 0 0.09000000000000004
85 0.017645 0.00508 0
86 0.02286 0.00508 0.05000000000000002
87 0.02286 0.005079999999999999 0.07000000000000005
88 0.02286 0.00508 0.02999999999999999
89 0.02286 0.005079999999999999 0.009999999999999992
90 0.02286 0.005079999999999999 0.09000000000000004
91 0.017645 0.00508 0.1
92 0.017645 0.01016 0.05000000000000002
93 0.017645 0.01016 0.07000000000000005
94 0.017645 0.01016 0.02999999999999999
95 0.017645 0.01016 0.009999999999999992
96 0.017645 0.01016 0.09000000000000004
$EndNodes
$Elements
260
1 4 2 1 1 37 42 22 23
2 4 2 1 1 14 25 37 15
3 4 2 1 1 38 43 23 24
4 4 2 1 1 26 16 38 15
5 4 2 1 1 13 14 27 39
6 4 2 1 1 21 44 22 39
7 4 2 1 1 40 5 21 45
8 4 2 1 1 13 28 1 40
9 4 2 1 1 4 41 29 16
10 4 2 1 1 24 46 8 41
11 4 2 1 1 2 9 34 28
12 4 2 1 1 3 12 29 35
13 4 2 1 1 20 19 31 43
14 4 2 1 1 19 18 32 42
15 4 2 1 1 6 34 17 45
16 4 2 1 1 20 7 46 35
17 4 2 1 1 12 11 26 31
18 4 2 1 1 9 10 33 27
19 4 2 1 1 10 11 32 25
20 4 2 1 1 18 17 33 44
21 4 2 1 1 46 35 36 29
22 4 2 1 1 41 46 36 29
23 4 2 1 1 30 28 34 45
24 4 2 1 1 28 30 40 45
25 4 2 1 1 13 28 40 45
26 4 2 1 1 29 41 46 16
27 4 2 1 1 44 13 27 39
28 4 2 1 1 22 44 27 39
29 4 2 1 1 25 42 37 23
30 4 2 1 1 26 38 43 15
31 4 2 1 1 43 16 38 26
32 4 2 1 1 22 25 42 37
33 4 2 1 1 46 35 29 12
34 4 2 1 1 31 43 26 12
35 4 2 1 1 44 27 9 33
36 4 2 1 1 34 28 9 45
37 4 2 1 1 42 25 32 11
38 4 2 1 1 18 27 44 33
39 4 2 1 1 31 26 43 11
40 4 2 1 1 18 42 25 32
41 4 2 1 1 12 16 43 26
42 4 2 1 1 13 27 9 44
43 4 2 1 1 28 13 9 45
44 4 2 1 1 46 29 16 12
45 4 2 1 1 22 27 44 18
46 4 2 1 1 15 43 26 11
47 4 2 1 1 25 42 23 11
48 4 2 1 1 25 18 22 42
49 4 2 1 1 21 13 40 45
50 4 2 1 1 44 21 13 39
51 4 2 1 1 23 37 25 15
52 4 2 1 1 23 43 38 15
53 4 2 1 1 22 27 14 39
54 4 2 1 1 24 46 41 16
55 4 2 1 1 43 16 24 38
56 4 2 1 1 22 25 37 14
57 4 2 1 1 19 42 32 11
58 4 2 1 1 31 43 19 11
59 4 2 1 1 20 43 31 12
60 4 2 1 1 9 17 44 33
61 4 2 1 1 35 46 20 12
62 4 2 1 1 17 34 9 45
63 4 2 1 1 10 27 18 33
64 4 2 1 1 18 25 10 32
65 4 2 1 1 41 36 4 29
66 4 2 1 1 8 46 36 41
67 4 2 1 1 30 28 2 34
68 4 2 1 1 40 30 5 45
69 4 2 1 1 6 30 34 45
70 4 2 1 1 30 1 28 40
71 4 2 1 1 7 46 35 36
72 4 2 1 1 36 35 3 29
73 4 2 1 1 17 13 44 21
74 4 2 1 1 21 17 13 45
75 4 2 1 1 19 43 23 11
76 4 2 1 1 22 10 25 14
77 4 2 1 1 25 23 15 11
78 4 2 1 1 15 23 43 11
79 4 2 1 1 23 42 19 11
80 4 2 1 1 10 27 14 22
81 4 2 1 1 16 20 43 24
82 4 2 1 1 46 24 20 16
83 4 2 1 1 17 9 13 45
84 4 2 1 1 20 16 43 12
85 4 2 1 1 13 17 44 9
86 4 2 1 1 16 20 46 12
87 4 2 1 1 10 27 22 18
88 4 2 1 1 10 22 25 18
89 4 2 1 1 7 8 46 36
90 4 2 1 1 3 4 36 29
91 4 2 1 1 28 2 1 30
92 4 2 1 1 30 6 5 45
93 4 2 1 1 35 3 7 36
94 4 2 1 1 36 4 8 41
95 4 2 1 1 5 1 30 40
96 4 2 1 1 2 6 30 34
97 4 2 2 2 60 33 59 65
98 4 2 2 2 31 61 20 64
99 4 2 2 2 61 32 18 63
100 4 2 2 2 56 33 65 55
101 4 2 2 2 59 53 66 34
102 4 2 2 2 32 61 18 19
103 4 2 2 2 61 31 20 19
104 4 2 2 2 34 47 9 2
105 4 2 2 2 53 59 66 51
106 4 2 2 2 3 12 35 50
107 4 2 2 2 52 62 67 54
108 4 2 2 2 11 58 31 12
109 4 2 2 2 61 20 64 62
110 4 2 2 2 33 55 10 9
111 4 2 2 2 60 33 17 59
112 4 2 2 2 47 66 55 48
113 4 2 2 2 53 34 17 6
114 4 2 2 2 49 58 50 67
115 4 2 2 2 20 7 35 54
116 4 2 2 2 18 61 63 60
117 4 2 2 2 11 10 32 56
118 4 2 2 2 33 60 17 18
119 4 2 2 2 56 33 55 10
120 4 2 2 2 34 53 17 59
121 4 2 2 2 33 55 59 65
122 4 2 2 2 58 31 20 64
123 4 2 2 2 56 32 63 18
124 4 2 2 2 33 60 56 65
125 4 2 2 2 35 54 50 67
126 4 2 2 2 34 47 53 66
127 4 2 2 2 9 17 33 59
128 4 2 2 2 55 33 59 9
129 4 2 2 2 9 59 34 17
130 4 2 2 2 19 31 11 61
131 4 2 2 2 32 19 11 61
132 4 2 2 2 58 64 20 62
133 4 2 2 2 31 58 20 12
134 4 2 2 2 56 32 18 10
135 4 2 2 2 60 63 18 56
136 4 2 2 2 18 33 56 10
137 4 2 2 2 60 33 56 18
138 4 2 2 2 50 3 7 35
139 4 2 2 2 54 49 67 52
140 4 2 2 2 47 34 6 2
141 4 2 2 2 51 53 48 66
142 4 2 2 2 54 50 7 35
143 4 2 2 2 49 54 67 50
144 4 2 2 2 47 34 53 6
145 4 2 2 2 66 47 53 48
146 4 2 2 2 63 61 11 57
147 4 2 2 2 11 61 63 32
148 4 2 2 2 11 56 63 57
149 4 2 2 2 63 56 11 32
150 4 2 2 2 61 64 11 57
151 4 2 2 2 61 11 64 31
152 4 2 2 2 58 11 64 57
153 4 2 2 2 58 64 11 31
154 4 2 2 2 58 20 67 62
155 4 2 2 2 54 20 67 35
156 4 2 2 2 54 67 20 62
157 4 2 2 2 59 66 9 34
158 4 2 2 2 59 9 66 55
159 4 2 2 2 47 9 66 34
160 4 2 2 2 47 66 9 55
161 4 2 2 2 20 35 58 67
162 4 2 2 2 20 58 35 12
163 4 2 2 2 50 58 35 67
164 4 2 2 2 50 35 58 12
165 4 2 3 3 92 78 86 77
166 4 2 3 3 87 81 74 75
167 4 2 3 3 78 87 79 93
168 4 2 3 3 80 86 74 73
169 4 2 3 3 94 77 88 76
170 4 2 3 3 73 82 88 72
171 4 2 3 3 95 70 76 89
172 4 2 3 3 89 72 83 68
173 4 2 3 3 84 69 75 90
174 4 2 3 3 90 96 71 79
175 4 2 3 3 51 59 66 95
176 4 2 3 3 52 62 96 67
177 4 2 3 3 57 56 63 80
178 4 2 3 3 58 57 64 81
179 4 2 3 3 55 48 66 83
180 4 2 3 3 49 58 67 84
181 4 2 3 3 61 62 64 93
182 4 2 3 3 59 60 65 94
183 4 2 3 3 60 61 63 92
184 4 2 3 3 56 55 65 82
185 4 2 3 3 91 84 67 96
186 4 2 3 3 84 91 90 96
187 4 2 3 3 85 95 66 83
188 4 2 3 3 95 85 89 83
189 4 2 3 3 89 76 95 83
190 4 2 3 3 96 90 84 79
191 4 2 3 3 76 88 94 82
192 4 2 3 3 74 81 87 93
193 4 2 3 3 88 77 94 82
194 4 2 3 3 86 92 77 80
195 4 2 3 3 92 86 74 80
196 4 2 3 3 87 81 79 93
197 4 2 3 3 62 67 84 96
198 4 2 3 3 81 62 93 64
199 4 2 3 3 94 65 59 82
200 4 2 3 3 55 66 95 83
201 4 2 3 3 60 65 94 82
202 4 2 3 3 63 60 92 80
203 4 2 3 3 61 63 92 80
204 4 2 3 3 81 93 61 64
205 4 2 3 3 59 76 94 82
206 4 2 3 3 79 81 62 93
207 4 2 3 3 96 84 62 79
208 4 2 3 3 55 95 76 83
209 4 2 3 3 77 92 60 80
210 4 2 3 3 94 77 60 82
211 4 2 3 3 74 61 92 80
212 4 2 3 3 93 74 81 61
213 4 2 3 3 76 89 72 83
214 4 2 3 3 76 88 82 72
215 4 2 3 3 78 74 87 93
216 4 2 3 3 75 84 90 79
217 4 2 3 3 82 88 77 73
218 4 2 3 3 87 81 75 79
219 4 2 3 3 86 74 78 92
220 4 2 3 3 80 77 86 73
221 4 2 3 3 57 81 61 64
222 4 2 3 3 63 61 57 80
223 4 2 3 3 62 81 58 64
224 4 2 3 3 55 59 65 82
225 4 2 3 3 58 67 84 62
226 4 2 3 3 95 59 66 55
227 4 2 3 3 65 60 56 82
228 4 2 3 3 60 63 56 80
229 4 2 3 3 84 67 49 91
230 4 2 3 3 85 89 83 68
231 4 2 3 3 66 48 85 83
232 4 2 3 3 70 95 85 89
233 4 2 3 3 95 51 85 66
234 4 2 3 3 91 67 52 96
235 4 2 3 3 69 84 91 90
236 4 2 3 3 91 90 96 71
237 4 2 3 3 82 55 76 72
238 4 2 3 3 72 55 76 83
239 4 2 3 3 61 74 57 80
240 4 2 3 3 74 57 81 61
241 4 2 3 3 61 78 74 92
242 4 2 3 3 77 56 82 73
243 4 2 3 3 56 77 80 73
244 4 2 3 3 75 81 58 79
245 4 2 3 3 93 78 74 61
246 4 2 3 3 84 75 58 79
247 4 2 3 3 62 58 81 79
248 4 2 3 3 59 95 76 55
249 4 2 3 3 76 59 55 82
250 4 2 3 3 62 84 58 79
251 4 2 3 3 77 56 80 60
252 4 2 3 3 56 60 77 82
253 4 2 3 3 49 69 84 91
254 4 2 3 3 96 52 91 71
255 4 2 3 3 83 48 85 68
256 4 2 3 3 70 95 51 85
257 4 2 3 3 90 91 69 71
258 4 2 3 3 91 67 49 52
259 4 2 3 3 85 51 48 66
260 4 2 3 3 89 85 70 68
$EndElements
