$MeshFormat
2.2 0 8
$EndMeshFormat
$PhysicalNames
2
3 1 "air_OPEM_RESERVED_1"
3 2 "dielectric-loading_OPEM_RESERVED_2"
$EndPhysicalNames
$Nodes
233
1 0 0 0
2 0 0 0.04572
3 0.009525 0 0
4 0.009525 0 0.04572
5 0.01905 0 0
6 0.01905 0 0.04572
7 0.005296 0 0.01905
8 0.005296 0 0.02667
9 0.013754 0 0.02667
10 0.013754 0 0.01905
11 0 0.009525 0
12 0 0.009525 0.04572
13 0.009525 0.009525 0
14 0.009525 0.009525 0.04572
15 0.01905 0.009525 0
16 0.01905 0.009525 0.04572
17 0.005296 0.0038 0.01905
18 0.005296 0.0038 0.02667
19 0.013754 0.0038 0.02667
20 0.013754 0.0038 0.01905
21 0 0 0.004572000000000005
22 0 0 0.009144000000000006
23 0 0 0.01371600000000001
24 0 0 0.018288
25 0 0 0.02286
26 0 0 0.027432
27 0 0 0.032004
28 0 0 0.03657600000000002
29 0 0 0.04114800000000003
30 0.004762499999999984 0 0
31 0.004762499999999984 0 0.04572
32 0.01428749999999998 0 0
33 0.01428749999999998 0 0.04572
34 0.01905 0 0.004572000000000005
35 0.01905 0 0.009144000000000006
36 0.01905 0 0.01371600000000001
37 0.01905 0 0.018288
38 0.01905 0 0.02286
39 0.01905 0 0.027432
40 0.01905 0 0.032004
41 0.01905 0 0.03657600000000002
42 0.01905 0 0.04114800000000003
43 0.005296 0 0.02286
44 0.009525000000000006 0 0.02667
45 0.013754 0 0.02286
46 0.009524999999999995 0 0.01905
47 0 0.009525 0.004572000000000005
48 0 0.009525 0.009144000000000006
49 0 0.009525 0.01371600000000001
50 0 0.009525 0.018288
51 0 0.009525 0.02286
52 0 0.009525 0.027432
53 0 0.009525 0.032004
54 0 0.009525 0.03657600000000002
55 0 0.009525 0.04114800000000003
56 0 0.004762500000000017 0
57 0 0.004762500000000017 0.04572
58 0.004762500000000017 0.009525 0
59 0.009525 0.004762499999999984 0
60 0.004762500000000017 0.009525 0.04572
61 0.009525 0.004762499999999984 0.04572
62 0.01428750000000002 0.009525 0
63 0.01905 0.004762499999999984 0
64 0.01428750000000002 0.009525 0.04572
65 0.01905 0.004762499999999984 0.04572
66 0.01905 0.009525 0.004572000000000005
67 0.01905 0.009525 0.009144000000000006
68 0.01905 0.009525 0.01371600000000001
69 0.01905 0.009525 0.018288
70 0.01905 0.009525 0.02286
71 0.01905 0.009525 0.027432
72 0.01905 0.009525 0.032004
73 0.01905 0.009525 0.03657600000000002
74 0.01905 0.009525 0.04114800000000003
75 0.005296 0.0038 0.02286
76 0.009525000000000006 0.0038 0.02667
77 0.013754 0.0038 0.02286
78 0.009524999999999995 0.0038 0.01905
79 0.0116395 0 0.01556901088948845
80 0.00738196489251303 0 0.03026307898344693
81 0.01212866506784264 0 0.003660057211034125
82 0.01195183544222703 0 0.04117878215027034
83 0.004278290581713642 0 0.01144506530289246
84 0.01543735882264335 0 0.03394876090639747
85 0.003715190656204865 0 0.03873633472406204
86 0.01446110950261673 0 0.01154479623982122
87 0.007344130276588255 0 0.01540020562249839
88 0.009688135043260323 0 0.01177004761946238
89 0.007053636617440576 0 0.007728071143896439
90 0.01187864489446952 0 0.0310850342039825
91 0.008738506047261899 0 0.03432588568985119
92 0.004261655300999563 0 0.03411548795807597
93 0.007054146840907462 0 0.04123497466057139
94 0.01520321000936921 0 0.006923640171924605
95 0.01553299427580876 0 0.03851567320355161
96 0.00338368417166038 0 0.01557985418507817
97 0.01583400074342257 0 0.03022795902207599
98 0.003387924038702518 0 0.03009691338830458
99 0.01557452698926625 0 0.01556142199759168
100 0.009351162128118587 0 0.03795596211907221
101 0.007198014932873111 0 0.003761102113063585
102 0.01095546186223376 0 0.007564619083200393
103 0.0035204295826065 0 0.006713284146122965
104 0.002648000000000003 0 0.02139042857142857
105 0.002648000000000002 0 0.02439177551020408
106 0.016402 0 0.02432957142857143
107 0.016402 0 0.02132822448979592
108 0.01559013592126531 0 0.003409556332015293
109 0.01569018017947591 0 0.04234846100523471
110 0.003271871122485196 0 0.04244547979727461
111 0.003337552336877169 0 0.003282148267580391
112 0.01214841693508819 0 0.03616834971218755
113 0.006520452500283384 0 0.03674453830676323
114 0 0.005827938025577412 0.03870873944605831
115 0 0.006082322715367484 0.01524
116 0 0.003948006119574551 0.02579914285714285
117 0 0.005827938025577401 0.007011260553941705
118 0 0.003792702817750339 0.03428430071718847
119 0 0.00339264972662923 0.01134303722199168
120 0 0.006052618156220815 0.03058790726238855
121 0 0.004020195953137702 0.01990530612244898
122 0 0.006495608665628129 0.00286892613215568
123 0 0.006495608665628138 0.04285107386784432
124 0 0.00294058766326738 0.04275290111500325
125 0 0.002940587663267357 0.002967098884996714
126 0 0.002414796710694054 0.03877627972227043
127 0 0.006272755491562161 0.02285999999999999
128 0 0.007037666449935458 0.01135900997713606
129 0 0.002510096699320514 0.01584713707596334
130 0 0.002313287345459713 0.006858000000000007
131 0 0.002540521056301256 0.02987283171803264
132 0 0.007211712654540282 0.03429000000000001
133 0.006727031249999996 0.002797968749999997 0
134 0.003571874999999995 0.003571875000000004 0
135 0.006131718750000003 0.006171406249999999 0
136 0.002678906250000008 0.006846093750000008 0
137 0.006727031249999996 0.002797968749999997 0.04572
138 0.003571874999999995 0.003571875000000004 0.04572
139 0.006131718750000003 0.006171406249999999 0.04572
140 0.002678906250000008 0.006846093750000008 0.04572
141 0.01211886160714287 0.006931138392857136 0
142 0.01547812500000001 0.005953125000000001 0
143 0.01288426339285714 0.003387611607142853 0
144 0.01637109374999999 0.002678906249999995 0
145 0.01211886160714287 0.006931138392857136 0.04572
146 0.01547812500000001 0.005953125000000001 0.04572
147 0.01288426339285714 0.003387611607142853 0.04572
148 0.01637109374999999 0.002678906249999995 0.04572
149 0.01905 0.005462563122637137 0.03864743522448163
150 0.01905 0.00395946814610245 0.020574
151 0.01905 0.003959468146102451 0.01143000000000001
152 0.01905 0.003959468146102456 0.02971799999999999
153 0.01905 0.0058279380255774 0.007011260553941705
154 0.01905 0.00556553185389755 0.01600200000000001
155 0.01905 0.005565531853897548 0.02514600000000001
156 0.01905 0.006332838544789933 0.03349223920408027
157 0.01905 0.006495608665628122 0.002868926132155683
158 0.01905 0.006347018349622839 0.04271555692486585
159 0.01905 0.002995746204122793 0.04253866499438502
160 0.01905 0.002940587663267356 0.002967098884996724
161 0.01905 0.002154319334443928 0.03864002004377334
162 0.01905 0.002313287345459713 0.01600200000000001
163 0.01905 0.007211712654540283 0.020574
164 0.01905 0.007211712654540287 0.01143
165 0.01905 0.002313287345459709 0.02514600000000001
166 0.01905 0.002479224075123805 0.006977194205562637
167 0.01905 0.00721171265454029 0.02971799999999999
168 0.01905 0.002792985568699615 0.03468734458003991
169 0.005296 0.0019 0.024765
170 0.005296 0.0019 0.020955
171 0.007410500000000002 0.0019 0.02667
172 0.0116395 0.0019 0.02667
173 0.013754 0.0019 0.020955
174 0.013754 0.0019 0.024765
175 0.0116395 0.0019 0.01905
176 0.007410499999999999 0.0019 0.01905
177 0.003737977624442987 0.009525 0.01580307423579008
178 0.003836466444749827 0.009525 0.02514599999999999
179 0.003776676599376647 0.009525 0.03404058965405948
180 0.01526152839870399 0.009525 0.02063027291753563
181 0.01528572088965328 0.009525 0.01197817006521967
182 0.01474894775964995 0.009525 0.029997054273553
183 0.007348754770066983 0.009525 0.00399493260664241
184 0.01170124522993303 0.009525 0.04172506739335758
185 0.01191180431317816 0.009525 0.003770795468582958
186 0.009669202808275941 0.009525 0.007728759695129456
187 0.004440600166052126 0.009525 0.007551569119571911
188 0.007435563801295522 0.009525 0.01244351788916906
189 0.007138195686821851 0.009525 0.04194920453141704
190 0.009310179285588889 0.009525 0.03811225775929414
191 0.01459931156164285 0.009525 0.03818571908820288
192 0.01153211228506002 0.009525 0.03386540967461392
193 0.00377905107424781 0.009525 0.02054084570596501
194 0.007918936292204897 0.009525 0.01828800000000001
195 0.01143153484127514 0.009525 0.01478245358913318
196 0.003875507218706949 0.009525 0.02967643160900991
197 0.007918936292204914 0.009525 0.02743199999999999
198 0.01518510229700998 0.009525 0.02520188786518143
199 0.01108829542105971 0.009525 0.02288341723698099
200 0.007476630818904012 0.009525 0.03179196000748946
201 0.01475546044482045 0.009525 0.007295529275412794
202 0.004401282616072259 0.009525 0.03848514277005676
203 0.01530670559207683 0.009525 0.01633675567951704
204 0.006908337104893431 0.009525 0.02285805258858919
205 0.01191475432520327 0.009525 0.02719843694106539
206 0.003122828318358126 0.009525 0.01173163224890621
207 0.01576906309358972 0.009525 0.03407712110929309
208 0.0120756999129968 0.009525 0.01859602491908491
209 0.003516782275671378 0.009525 0.00346884612049101
210 0.01553321772432863 0.009525 0.04225115387950897
211 0.003459864078734672 0.009525 0.04231044366798471
212 0.01559013592126532 0.009525 0.003409556332015304
213 0.01150222990120519 0.009525 0.01118660094889974
214 0.007169698245859377 0.009525 0.03525939137537747
215 0.01069376588474368 0.009525 0.03017721593656355
216 0.007733399365063641 0.0038 0.02427300191990922
217 0.01087324385582964 0.0038 0.02289386302077708
218 0.007902726512700372 0.0038 0.02165410747175837
219 0.01131660063493636 0 0.02144699808009078
220 0.008176756144170362 0 0.02282613697922292
221 0.01114727348729963 0 0.02406589252824163
222 0.009533913447421629 0.004663414787042503 0.03187858541385732
223 0.004926711665384555 0.004754481505797146 0.01386570324243075
224 0.01372856350104485 0.004814977469920795 0.03496324074469646
225 0.01389673385920055 0.004789423499954558 0.005074420892489531
226 0.01431134118339316 0.004800802100341131 0.01396178331078955
227 0.004936618306301984 0.004914691297338616 0.03614374507269993
228 0.009355330021055848 0.004723735970300603 0.04040294115643178
229 0.005038734431968413 0.004687557076534917 0.004911917957247929
230 0.004781942281216023 0.00439067440428509 0.03139026700122301
231 0.01441825238955733 0.004535369183948827 0.04048100678605765
232 0.0042570127580924 0.004844993478988836 0.04101664069124935
233 0.007736829971400506 0.004933890017188935 0.009421676747031028
$EndNodes
$Elements
701
1 4 2 1 1 79 223 78 226
2 4 2 1 1 195 78 223 226
3 4 2 1 1 78 79 87 223
4 4 2 1 1 100 222 91 227
5 4 2 1 1 213 225 226 233
6 4 2 1 1 100 222 227 228
7 4 2 1 1 100 224 222 228
8 4 2 1 1 59 225 183 229
9 4 2 1 1 100 91 222 224
10 4 2 1 1 185 183 59 225
11 4 2 1 1 151 201 225 226
12 4 2 1 1 151 201 153 225
13 4 2 1 1 195 226 223 233
14 4 2 1 1 88 223 79 226
15 4 2 1 1 213 225 201 226
16 4 2 1 1 101 225 59 229
17 4 2 1 1 151 225 86 226
18 4 2 1 1 164 201 151 226
19 4 2 1 1 97 152 19 224
20 4 2 1 1 153 164 201 151
21 4 2 1 1 151 94 86 225
22 4 2 1 1 166 94 151 225
23 4 2 1 1 164 181 201 226
24 4 2 1 1 88 87 79 223
25 4 2 1 1 223 226 88 233
26 4 2 1 1 185 186 183 225
27 4 2 1 1 182 222 19 224
28 4 2 1 1 222 190 227 228
29 4 2 1 1 152 182 19 224
30 4 2 1 1 222 224 190 228
31 4 2 1 1 119 103 130 229
32 4 2 1 1 81 59 101 225
33 4 2 1 1 97 19 90 224
34 4 2 1 1 214 222 190 227
35 4 2 1 1 153 166 151 225
36 4 2 1 1 119 130 117 229
37 4 2 1 1 213 201 181 226
38 4 2 1 1 103 229 119 233
39 4 2 1 1 117 128 119 233
40 4 2 1 1 19 222 90 224
41 4 2 1 1 100 112 91 224
42 4 2 1 1 88 226 86 233
43 4 2 1 1 78 175 79 226
44 4 2 1 1 182 215 19 222
45 4 2 1 1 215 19 76 205
46 4 2 1 1 81 101 102 225
47 4 2 1 1 213 226 195 233
48 4 2 1 1 117 119 229 233
49 4 2 1 1 76 19 215 222
50 4 2 1 1 195 223 188 233
51 4 2 1 1 18 75 178 216
52 4 2 1 1 213 186 225 233
53 4 2 1 1 206 223 128 233
54 4 2 1 1 75 218 17 204
55 4 2 1 1 78 194 195 223
56 4 2 1 1 113 100 91 227
57 4 2 1 1 88 86 102 233
58 4 2 1 1 171 76 18 230
59 4 2 1 1 128 223 119 233
60 4 2 1 1 185 59 141 225
61 4 2 1 1 167 182 152 224
62 4 2 1 1 17 78 176 223
63 4 2 1 1 206 128 187 233
64 4 2 1 1 86 94 102 225
65 4 2 1 1 83 103 119 233
66 4 2 1 1 20 175 78 226
67 4 2 1 1 176 78 87 223
68 4 2 1 1 178 75 204 216
69 4 2 1 1 117 187 128 233
70 4 2 1 1 182 19 215 205
71 4 2 1 1 167 156 182 224
72 4 2 1 1 167 152 156 224
73 4 2 1 1 171 222 76 230
74 4 2 1 1 190 222 192 224
75 4 2 1 1 172 90 19 222
76 4 2 1 1 208 77 20 180
77 4 2 1 1 213 186 201 225
78 4 2 1 1 198 77 180 163
79 4 2 1 1 214 192 190 222
80 4 2 1 1 172 19 76 222
81 4 2 1 1 89 101 229 233
82 4 2 1 1 77 198 155 163
83 4 2 1 1 52 18 178 196
84 4 2 1 1 193 75 17 204
85 4 2 1 1 89 102 101 233
86 4 2 1 1 152 19 182 167
87 4 2 1 1 213 195 188 233
88 4 2 1 1 192 215 182 222
89 4 2 1 1 191 228 224 231
90 4 2 1 1 17 177 50 193
91 4 2 1 1 217 76 19 205
92 4 2 1 1 17 194 78 223
93 4 2 1 1 217 20 78 208
94 4 2 1 1 218 204 216 199
95 4 2 1 1 182 156 207 224
96 4 2 1 1 18 196 120 230
97 4 2 1 1 120 18 52 196
98 4 2 1 1 208 199 77 180
99 4 2 1 1 187 117 229 233
100 4 2 1 1 18 75 127 178
101 4 2 1 1 75 104 105 116
102 4 2 1 1 101 59 133 229
103 4 2 1 1 193 17 75 127
104 4 2 1 1 204 75 218 216
105 4 2 1 1 190 224 191 228
106 4 2 1 1 216 76 217 199
107 4 2 1 1 84 97 90 224
108 4 2 1 1 83 119 223 233
109 4 2 1 1 95 161 224 231
110 4 2 1 1 217 218 216 199
111 4 2 1 1 76 216 197 199
112 4 2 1 1 50 177 17 115
113 4 2 1 1 80 222 171 230
114 4 2 1 1 172 76 90 222
115 4 2 1 1 173 150 77 107
116 4 2 1 1 214 200 222 230
117 4 2 1 1 192 222 182 224
118 4 2 1 1 204 218 17 194
119 4 2 1 1 198 167 19 155
120 4 2 1 1 91 227 222 230
121 4 2 1 1 214 222 227 230
122 4 2 1 1 154 20 163 203
123 4 2 1 1 198 77 19 199
124 4 2 1 1 141 185 13 59
125 4 2 1 1 197 222 200 230
126 4 2 1 1 19 182 167 198
127 4 2 1 1 217 78 218 199
128 4 2 1 1 163 20 180 203
129 4 2 1 1 18 197 196 230
130 4 2 1 1 77 217 19 199
131 4 2 1 1 180 77 20 163
132 4 2 1 1 59 81 143 225
133 4 2 1 1 135 59 183 229
134 4 2 1 1 80 90 172 76
135 4 2 1 1 77 165 106 107
136 4 2 1 1 145 228 184 231
137 4 2 1 1 145 147 228 231
138 4 2 1 1 168 95 161 224
139 4 2 1 1 188 195 194 223
140 4 2 1 1 76 215 197 222
141 4 2 1 1 216 197 18 76
142 4 2 1 1 4 137 61 228
143 4 2 1 1 198 19 77 155
144 4 2 1 1 199 217 78 208
145 4 2 1 1 145 61 184 228
146 4 2 1 1 145 61 14 184
147 4 2 1 1 194 218 78 199
148 4 2 1 1 208 203 20 226
149 4 2 1 1 50 121 17 193
150 4 2 1 1 208 78 194 195
151 4 2 1 1 75 170 104 121
152 4 2 1 1 116 105 75 169
153 4 2 1 1 76 217 199 205
154 4 2 1 1 52 178 18 116
155 4 2 1 1 204 197 216 199
156 4 2 1 1 151 166 35 94
157 4 2 1 1 145 147 61 228
158 4 2 1 1 204 193 75 178
159 4 2 1 1 80 76 171 222
160 4 2 1 1 149 224 161 231
161 4 2 1 1 199 217 19 205
162 4 2 1 1 199 19 198 205
163 4 2 1 1 184 228 191 231
164 4 2 1 1 163 155 77 150
165 4 2 1 1 17 115 177 223
166 4 2 1 1 214 179 200 230
167 4 2 1 1 227 228 202 232
168 4 2 1 1 163 77 20 150
169 4 2 1 1 120 131 18 230
170 4 2 1 1 93 137 4 228
171 4 2 1 1 78 17 218 194
172 4 2 1 1 92 227 91 230
173 4 2 1 1 189 184 61 228
174 4 2 1 1 17 176 87 223
175 4 2 1 1 50 17 121 115
176 4 2 1 1 149 207 156 224
177 4 2 1 1 149 191 207 224
178 4 2 1 1 76 197 215 205
179 4 2 1 1 127 75 193 178
180 4 2 1 1 152 168 156 224
181 4 2 1 1 141 59 143 225
182 4 2 1 1 214 227 179 230
183 4 2 1 1 61 189 14 184
184 4 2 1 1 185 183 13 59
185 4 2 1 1 200 196 197 230
186 4 2 1 1 44 80 172 76
187 4 2 1 1 18 120 52 116
188 4 2 1 1 19 90 172 97
189 4 2 1 1 195 203 208 226
190 4 2 1 1 155 198 70 163
191 4 2 1 1 20 203 154 226
192 4 2 1 1 165 77 150 107
193 4 2 1 1 189 202 228 232
194 4 2 1 1 150 77 20 173
195 4 2 1 1 190 191 184 228
196 4 2 1 1 176 87 78 46
197 4 2 1 1 202 227 190 228
198 4 2 1 1 173 20 150 107
199 4 2 1 1 85 113 227 232
200 4 2 1 1 191 73 149 207
201 4 2 1 1 207 73 149 156
202 4 2 1 1 98 18 131 230
203 4 2 1 1 194 204 218 199
204 4 2 1 1 104 7 17 170
205 4 2 1 1 75 17 170 121
206 4 2 1 1 204 17 193 194
207 4 2 1 1 105 104 25 116
208 4 2 1 1 70 198 180 163
209 4 2 1 1 103 83 89 233
210 4 2 1 1 35 86 151 94
211 4 2 1 1 168 161 149 224
212 4 2 1 1 116 75 18 169
213 4 2 1 1 199 198 77 180
214 4 2 1 1 103 130 22 119
215 4 2 1 1 197 76 199 205
216 4 2 1 1 85 28 126 227
217 4 2 1 1 139 228 137 232
218 4 2 1 1 17 96 129 223
219 4 2 1 1 178 18 197 196
220 4 2 1 1 17 129 115 223
221 4 2 1 1 103 89 229 233
222 4 2 1 1 172 9 19 97
223 4 2 1 1 137 228 93 232
224 4 2 1 1 177 194 17 223
225 4 2 1 1 105 18 8 169
226 4 2 1 1 184 210 145 231
227 4 2 1 1 82 61 147 228
228 4 2 1 1 179 227 132 230
229 4 2 1 1 19 182 198 205
230 4 2 1 1 180 20 208 203
231 4 2 1 1 85 93 113 232
232 4 2 1 1 121 75 17 127
233 4 2 1 1 28 85 92 227
234 4 2 1 1 78 79 175 46
235 4 2 1 1 28 118 126 227
236 4 2 1 1 78 194 199 208
237 4 2 1 1 179 54 132 227
238 4 2 1 1 84 95 168 224
239 4 2 1 1 61 82 4 228
240 4 2 1 1 127 75 18 116
241 4 2 1 1 98 131 27 230
242 4 2 1 1 135 133 59 229
243 4 2 1 1 18 26 98 131
244 4 2 1 1 96 24 17 129
245 4 2 1 1 202 190 189 228
246 4 2 1 1 207 192 182 224
247 4 2 1 1 197 215 200 222
248 4 2 1 1 189 61 139 228
249 4 2 1 1 152 19 167 155
250 4 2 1 1 59 101 3 81
251 4 2 1 1 104 75 121 116
252 4 2 1 1 61 137 139 228
253 4 2 1 1 28 92 118 227
254 4 2 1 1 98 27 92 230
255 4 2 1 1 212 185 141 225
256 4 2 1 1 40 97 84 168
257 4 2 1 1 17 104 170 121
258 4 2 1 1 193 17 177 194
259 4 2 1 1 91 222 80 230
260 4 2 1 1 198 71 167 155
261 4 2 1 1 20 154 163 150
262 4 2 1 1 189 228 139 232
263 4 2 1 1 163 69 154 203
264 4 2 1 1 172 90 9 97
265 4 2 1 1 19 9 174 106
266 4 2 1 1 92 113 91 227
267 4 2 1 1 18 105 116 169
268 4 2 1 1 45 77 106 173
269 4 2 1 1 169 104 75 43
270 4 2 1 1 133 101 3 59
271 4 2 1 1 145 210 146 231
272 4 2 1 1 174 77 106 45
273 4 2 1 1 104 170 75 43
274 4 2 1 1 132 54 114 227
275 4 2 1 1 155 165 77 150
276 4 2 1 1 68 203 181 226
277 4 2 1 1 178 127 18 116
278 4 2 1 1 97 40 152 168
279 4 2 1 1 95 224 112 231
280 4 2 1 1 82 228 147 231
281 4 2 1 1 154 203 68 226
282 4 2 1 1 44 80 90 172
283 4 2 1 1 153 212 157 225
284 4 2 1 1 119 23 96 129
285 4 2 1 1 118 27 131 230
286 4 2 1 1 193 121 17 127
287 4 2 1 1 93 4 82 228
288 4 2 1 1 120 196 179 230
289 4 2 1 1 90 76 80 222
290 4 2 1 1 83 103 22 119
291 4 2 1 1 147 4 61 82
292 4 2 1 1 202 54 179 227
293 4 2 1 1 173 77 106 107
294 4 2 1 1 105 104 75 169
295 4 2 1 1 201 186 185 225
296 4 2 1 1 122 136 209 229
297 4 2 1 1 191 224 149 231
298 4 2 1 1 122 134 136 229
299 4 2 1 1 129 96 119 223
300 4 2 1 1 179 132 120 230
301 4 2 1 1 10 20 173 107
302 4 2 1 1 191 190 192 224
303 4 2 1 1 132 227 118 230
304 4 2 1 1 116 18 120 131
305 4 2 1 1 99 20 162 226
306 4 2 1 1 129 121 17 115
307 4 2 1 1 164 201 67 153
308 4 2 1 1 80 44 171 76
309 4 2 1 1 39 152 19 97
310 4 2 1 1 27 118 92 230
311 4 2 1 1 187 229 183 233
312 4 2 1 1 160 142 144 225
313 4 2 1 1 212 141 142 225
314 4 2 1 1 173 106 45 107
315 4 2 1 1 169 105 104 43
316 4 2 1 1 162 36 99 226
317 4 2 1 1 143 108 144 225
318 4 2 1 1 91 80 92 230
319 4 2 1 1 165 77 19 155
320 4 2 1 1 160 144 108 225
321 4 2 1 1 93 110 137 232
322 4 2 1 1 86 99 36 226
323 4 2 1 1 68 181 164 226
324 4 2 1 1 200 179 196 230
325 4 2 1 1 85 227 126 232
326 4 2 1 1 107 20 150 37
327 4 2 1 1 122 209 117 229
328 4 2 1 1 202 114 54 227
329 4 2 1 1 68 164 154 226
330 4 2 1 1 154 162 20 226
331 4 2 1 1 180 69 163 203
332 4 2 1 1 118 227 92 230
333 4 2 1 1 14 189 61 139
334 4 2 1 1 8 26 18 105
335 4 2 1 1 71 167 182 198
336 4 2 1 1 183 135 13 59
337 4 2 1 1 148 146 159 231
338 4 2 1 1 202 214 190 227
339 4 2 1 1 24 7 17 104
340 4 2 1 1 148 109 147 231
341 4 2 1 1 157 142 160 225
342 4 2 1 1 150 20 154 162
343 4 2 1 1 83 223 88 233
344 4 2 1 1 187 183 186 233
345 4 2 1 1 94 166 108 225
346 4 2 1 1 200 192 214 222
347 4 2 1 1 17 7 24 96
348 4 2 1 1 37 99 20 162
349 4 2 1 1 8 18 26 98
350 4 2 1 1 96 17 87 223
351 4 2 1 1 201 181 164 67
352 4 2 1 1 162 151 36 226
353 4 2 1 1 48 187 206 128
354 4 2 1 1 3 143 59 81
355 4 2 1 1 9 19 165 106
356 4 2 1 1 95 112 82 231
357 4 2 1 1 158 210 149 231
358 4 2 1 1 187 48 117 128
359 4 2 1 1 86 36 151 226
360 4 2 1 1 7 17 176 87
361 4 2 1 1 138 137 110 232
362 4 2 1 1 160 108 166 225
363 4 2 1 1 153 201 212 225
364 4 2 1 1 188 223 206 233
365 4 2 1 1 145 146 147 231
366 4 2 1 1 96 83 23 119
367 4 2 1 1 79 86 88 226
368 4 2 1 1 148 159 109 231
369 4 2 1 1 119 96 83 223
370 4 2 1 1 157 160 153 225
371 4 2 1 1 84 90 112 224
372 4 2 1 1 135 209 136 229
373 4 2 1 1 161 109 159 231
374 4 2 1 1 165 152 19 39
375 4 2 1 1 142 157 212 225
376 4 2 1 1 161 95 109 231
377 4 2 1 1 20 150 37 162
378 4 2 1 1 121 25 104 116
379 4 2 1 1 87 88 83 223
380 4 2 1 1 111 130 103 229
381 4 2 1 1 105 26 18 116
382 4 2 1 1 196 53 120 179
383 4 2 1 1 111 133 134 229
384 4 2 1 1 104 17 24 121
385 4 2 1 1 149 156 168 224
386 4 2 1 1 19 9 39 97
387 4 2 1 1 84 112 95 224
388 4 2 1 1 123 114 211 232
389 4 2 1 1 111 125 130 229
390 4 2 1 1 41 95 161 168
391 4 2 1 1 19 152 165 155
392 4 2 1 1 10 20 107 37
393 4 2 1 1 79 78 87 46
394 4 2 1 1 126 227 114 232
395 4 2 1 1 128 206 115 223
396 4 2 1 1 159 146 158 231
397 4 2 1 1 188 194 177 223
398 4 2 1 1 26 18 116 131
399 4 2 1 1 121 17 24 129
400 4 2 1 1 111 101 133 229
401 4 2 1 1 143 144 142 225
402 4 2 1 1 127 121 75 116
403 4 2 1 1 126 118 114 227
404 4 2 1 1 125 134 122 229
405 4 2 1 1 20 10 99 37
406 4 2 1 1 210 191 149 231
407 4 2 1 1 114 227 202 232
408 4 2 1 1 106 165 9 39
409 4 2 1 1 125 122 117 229
410 4 2 1 1 153 160 166 225
411 4 2 1 1 53 132 120 179
412 4 2 1 1 211 139 140 232
413 4 2 1 1 187 188 206 233
414 4 2 1 1 212 66 153 157
415 4 2 1 1 107 165 106 38
416 4 2 1 1 109 82 147 231
417 4 2 1 1 211 55 114 123
418 4 2 1 1 123 140 138 232
419 4 2 1 1 141 143 142 225
420 4 2 1 1 123 211 140 232
421 4 2 1 1 209 187 117 229
422 4 2 1 1 158 149 210 74
423 4 2 1 1 158 146 210 231
424 4 2 1 1 148 147 146 231
425 4 2 1 1 126 110 85 232
426 4 2 1 1 132 114 118 227
427 4 2 1 1 41 84 95 168
428 4 2 1 1 177 115 206 223
429 4 2 1 1 83 88 89 233
430 4 2 1 1 132 118 120 230
431 4 2 1 1 107 150 165 38
432 4 2 1 1 183 209 135 229
433 4 2 1 1 211 189 139 232
434 4 2 1 1 114 202 211 232
435 4 2 1 1 81 108 143 225
436 4 2 1 1 125 117 130 229
437 4 2 1 1 109 42 161 159
438 4 2 1 1 192 200 215 222
439 4 2 1 1 85 113 92 227
440 4 2 1 1 122 117 209 47
441 4 2 1 1 191 192 207 224
442 4 2 1 1 19 9 165 39
443 4 2 1 1 126 124 110 232
444 4 2 1 1 135 136 134 229
445 4 2 1 1 206 49 128 115
446 4 2 1 1 102 94 81 225
447 4 2 1 1 49 206 177 115
448 4 2 1 1 149 210 74 191
449 4 2 1 1 164 151 154 226
450 4 2 1 1 212 66 201 153
451 4 2 1 1 190 184 189 228
452 4 2 1 1 181 203 195 226
453 4 2 1 1 93 82 100 228
454 4 2 1 1 151 162 154 226
455 4 2 1 1 211 55 202 114
456 4 2 1 1 134 125 111 229
457 4 2 1 1 17 7 96 87
458 4 2 1 1 185 62 212 141
459 4 2 1 1 213 181 195 226
460 4 2 1 1 90 80 91 222
461 4 2 1 1 98 92 80 230
462 4 2 1 1 99 86 79 226
463 4 2 1 1 129 119 115 223
464 4 2 1 1 118 131 120 230
465 4 2 1 1 128 115 119 223
466 4 2 1 1 161 95 42 109
467 4 2 1 1 161 159 149 231
468 4 2 1 1 141 62 212 142
469 4 2 1 1 145 184 64 210
470 4 2 1 1 64 146 145 210
471 4 2 1 1 193 51 127 178
472 4 2 1 1 110 31 93 137
473 4 2 1 1 89 88 102 233
474 4 2 1 1 127 178 52 116
475 4 2 1 1 184 191 210 231
476 4 2 1 1 68 154 69 203
477 4 2 1 1 138 124 123 232
478 4 2 1 1 139 137 138 232
479 4 2 1 1 57 123 140 138
480 4 2 1 1 134 56 122 136
481 4 2 1 1 110 93 85 232
482 4 2 1 1 214 202 179 227
483 4 2 1 1 96 87 83 223
484 4 2 1 1 36 86 151 35
485 4 2 1 1 134 133 135 229
486 4 2 1 1 185 212 201 225
487 4 2 1 1 50 121 193 127
488 4 2 1 1 159 158 149 231
489 4 2 1 1 187 186 188 233
490 4 2 1 1 110 124 126 29
491 4 2 1 1 133 30 111 134
492 4 2 1 1 27 28 92 118
493 4 2 1 1 160 166 108 34
494 4 2 1 1 189 211 202 232
495 4 2 1 1 32 144 143 108
496 4 2 1 1 47 117 209 187
497 4 2 1 1 94 108 81 225
498 4 2 1 1 73 149 74 191
499 4 2 1 1 89 101 103 229
500 4 2 1 1 31 110 138 137
501 4 2 1 1 139 138 140 232
502 4 2 1 1 130 111 21 125
503 4 2 1 1 126 110 29 85
504 4 2 1 1 139 60 211 140
505 4 2 1 1 147 33 82 109
506 4 2 1 1 124 138 110 232
507 4 2 1 1 147 33 109 148
508 4 2 1 1 206 188 177 223
509 4 2 1 1 136 135 58 209
510 4 2 1 1 146 16 158 210
511 4 2 1 1 144 63 142 160
512 4 2 1 1 142 15 212 157
513 4 2 1 1 155 198 71 70
514 4 2 1 1 33 4 147 82
515 4 2 1 1 111 101 30 133
516 4 2 1 1 123 124 114 232
517 4 2 1 1 108 166 94 34
518 4 2 1 1 11 122 136 209
519 4 2 1 1 183 58 135 209
520 4 2 1 1 12 211 140 123
521 4 2 1 1 14 145 184 64
522 4 2 1 1 58 135 13 183
523 4 2 1 1 55 54 202 114
524 4 2 1 1 130 21 111 103
525 4 2 1 1 93 31 4 137
526 4 2 1 1 66 67 201 153
527 4 2 1 1 189 60 211 139
528 4 2 1 1 188 186 213 233
529 4 2 1 1 183 187 209 229
530 4 2 1 1 101 111 103 229
531 4 2 1 1 63 157 142 160
532 4 2 1 1 159 109 6 148
533 4 2 1 1 189 14 60 139
534 4 2 1 1 9 44 90 172
535 4 2 1 1 109 95 82 231
536 4 2 1 1 13 62 185 141
537 4 2 1 1 124 126 114 232
538 4 2 1 1 178 51 127 52
539 4 2 1 1 193 51 50 127
540 4 2 1 1 138 57 123 124
541 4 2 1 1 125 134 56 122
542 4 2 1 1 117 47 48 187
543 4 2 1 1 143 81 32 108
544 4 2 1 1 16 146 64 210
545 4 2 1 1 125 111 1 134
546 4 2 1 1 124 138 2 110
547 4 2 1 1 3 143 81 32
548 4 2 1 1 62 15 212 142
549 4 2 1 1 160 144 5 108
550 4 2 1 1 22 23 83 119
551 4 2 1 1 30 1 111 134
552 4 2 1 1 152 39 40 97
553 4 2 1 1 58 11 136 209
554 4 2 1 1 60 12 211 140
555 4 2 1 1 32 5 144 108
556 4 2 1 1 158 65 16 146
557 4 2 1 1 157 142 15 63
558 4 2 1 1 38 107 150 37
559 4 2 1 1 110 138 2 31
560 4 2 1 1 161 95 41 42
561 4 2 1 1 30 101 3 133
562 4 2 1 1 6 42 109 159
563 4 2 1 1 109 33 6 148
564 4 2 1 1 182 72 167 71
565 4 2 1 1 6 159 148 65
566 4 2 1 1 87 176 7 46
567 4 2 1 1 53 120 52 196
568 4 2 1 1 211 12 55 123
569 4 2 1 1 123 140 12 57
570 4 2 1 1 179 53 132 54
571 4 2 1 1 122 56 11 136
572 4 2 1 1 15 66 212 157
573 4 2 1 1 210 16 158 74
574 4 2 1 1 209 11 122 47
575 4 2 1 1 175 79 10 46
576 4 2 1 1 69 70 180 163
577 4 2 1 1 108 5 160 34
578 4 2 1 1 138 2 57 124
579 4 2 1 1 134 1 125 56
580 4 2 1 1 40 84 41 168
581 4 2 1 1 181 68 164 67
582 4 2 1 1 73 207 72 156
583 4 2 1 1 166 35 94 34
584 4 2 1 1 28 126 29 85
585 4 2 1 1 50 49 177 115
586 4 2 1 1 1 21 111 125
587 4 2 1 1 5 63 144 160
588 4 2 1 1 24 25 104 121
589 4 2 1 1 110 2 124 29
590 4 2 1 1 44 171 8 80
591 4 2 1 1 105 25 26 116
592 4 2 1 1 22 21 130 103
593 4 2 1 1 48 206 49 128
594 4 2 1 1 98 26 27 131
595 4 2 1 1 23 24 96 129
596 4 2 1 1 173 45 10 107
597 4 2 1 1 169 8 105 43
598 4 2 1 1 162 37 99 36
599 4 2 1 1 106 9 174 45
600 4 2 1 1 170 104 7 43
601 4 2 1 1 39 106 165 38
602 4 2 1 1 233 86 225 226
603 4 2 1 1 233 225 86 102
604 4 2 1 1 233 183 225 229
605 4 2 1 1 233 225 183 186
606 4 2 1 1 216 178 197 204
607 4 2 1 1 216 197 178 18
608 4 2 1 1 233 101 225 102
609 4 2 1 1 233 225 101 229
610 4 2 1 1 82 100 231 112
611 4 2 1 1 82 231 100 228
612 4 2 1 1 224 231 100 112
613 4 2 1 1 224 100 231 228
614 4 2 1 1 208 226 78 195
615 4 2 1 1 78 226 208 20
616 4 2 1 1 227 100 232 113
617 4 2 1 1 227 232 100 228
618 4 2 1 1 93 232 100 113
619 4 2 1 1 93 100 232 228
620 4 2 1 1 77 208 217 199
621 4 2 1 1 217 208 77 20
622 4 2 1 1 97 168 224 84
623 4 2 1 1 224 168 97 152
624 4 2 1 1 230 76 197 222
625 4 2 1 1 230 197 76 18
626 4 2 1 1 224 91 90 112
627 4 2 1 1 224 90 91 222
628 4 2 1 1 226 175 99 20
629 4 2 1 1 226 99 175 79
630 4 2 1 1 10 99 175 20
631 4 2 1 1 10 175 99 79
632 4 2 1 1 171 230 98 80
633 4 2 1 1 98 230 171 18
634 4 2 1 1 98 8 171 80
635 4 2 1 1 171 8 98 18
636 4 2 1 1 19 106 77 165
637 4 2 1 1 77 106 19 174
638 4 2 1 1 182 156 72 207
639 4 2 1 1 72 156 182 167
640 4 2 1 1 146 159 65 148
641 4 2 1 1 146 65 159 158
642 4 2 2 2 78 175 219 46
643 4 2 2 2 175 217 78 219
644 4 2 2 2 78 218 176 46
645 4 2 2 2 218 78 219 46
646 4 2 2 2 171 216 220 169
647 4 2 2 2 219 175 217 173
648 4 2 2 2 216 171 44 76
649 4 2 2 2 76 172 221 217
650 4 2 2 2 220 176 218 46
651 4 2 2 2 76 221 216 217
652 4 2 2 2 172 174 221 217
653 4 2 2 2 170 220 176 218
654 4 2 2 2 218 78 217 219
655 4 2 2 2 219 220 218 46
656 4 2 2 2 45 219 217 173
657 4 2 2 2 216 75 220 169
658 4 2 2 2 216 44 221 76
659 4 2 2 2 220 216 171 44
660 4 2 2 2 172 221 44 76
661 4 2 2 2 175 20 217 173
662 4 2 2 2 19 174 172 217
663 4 2 2 2 217 174 221 45
664 4 2 2 2 170 220 218 75
665 4 2 2 2 45 217 77 173
666 4 2 2 2 169 75 220 43
667 4 2 2 2 170 220 75 43
668 4 2 2 2 174 217 77 45
669 4 2 2 2 220 8 171 169
670 4 2 2 2 220 216 44 221
671 4 2 2 2 7 170 220 176
672 4 2 2 2 221 220 216 217
673 4 2 2 2 217 220 218 219
674 4 2 2 2 217 78 20 175
675 4 2 2 2 76 19 172 217
676 4 2 2 2 219 217 221 45
677 4 2 2 2 220 218 75 216
678 4 2 2 2 77 217 20 173
679 4 2 2 2 217 19 174 77
680 4 2 2 2 176 220 7 46
681 4 2 2 2 171 216 18 76
682 4 2 2 2 218 176 17 78
683 4 2 2 2 17 170 176 218
684 4 2 2 2 220 8 169 43
685 4 2 2 2 217 221 220 219
686 4 2 2 2 220 218 216 217
687 4 2 2 2 220 170 7 43
688 4 2 2 2 171 8 220 44
689 4 2 2 2 171 18 216 169
690 4 2 2 2 17 170 218 75
691 4 2 2 2 18 75 216 169
692 4 2 2 2 219 175 10 46
693 4 2 2 2 174 221 9 172
694 4 2 2 2 9 221 174 45
695 4 2 2 2 10 175 219 173
696 4 2 2 2 45 10 219 173
697 4 2 2 2 221 44 9 172
698 4 2 2 2 170 7 17 176
699 4 2 2 2 171 8 18 169
700 4 2 2 2 9 19 174 172
701 4 2 2 2 175 10 20 173
$EndElements
