$MeshFormat
2.2 0 8
$EndMeshFormat
$PhysicalNames
3
3 1 "air_OPEM_RESERVED_1"
3 2 "air_OPEM_RESERVED_2"
3 3 "air_OPEM_RESERVED_3"
$EndPhysicalNames
$Nodes
124
1 0 0 0
2 0 0 0.05
3 0.02286 0 0
4 0.02286 0 0.05
5 0.01143 0 0
6 0.02286 0.01016 0
7 0.02286 0.01016 0.05
8 0 0.01016 0
9 0 0.01016 0.05
10 0.01143 0.01016 0
11 0 -0.001 0.05
12 0 -0.001 0.07500000000000001
13 0.02286 -0.001 0.05
14 0.02286 -0.001 0.07500000000000001
15 0.02286 0.01116 0.05
16 0.02286 0.01116 0.07500000000000001
17 0.02286 0 0.07500000000000001
18 0.02286 0.01016 0.07500000000000001
19 0 0.01116 0.05
20 0 0.01116 0.07500000000000001
21 0 0.01016 0.07500000000000001
22 0 0 0.07500000000000001
23 0 0 0.125
24 0.02286 0 0.125
25 0.01143 0 0.125
26 0.02286 0.01016 0.125
27 0 0.01016 0.125
28 0.01143 0.01016 0.125
29 0 0 0.01250000000000001
30 0 0 0.02500000000000002
31 0 0 0.03750000000000001
32 0.02286 0 0.01250000000000001
33 0.02286 0 0.02500000000000002
34 0.02286 0 0.03750000000000001
35 0.01143000000000002 0 0.05
36 0.02286 0.01016 0.01250000000000001
37 0.02286 0.01016 0.02500000000000002
38 0.02286 0.01016 0.03750000000000001
39 0 0.01016 0.01250000000000001
40 0 0.01016 0.02500000000000002
41 0 0.01016 0.03750000000000001
42 0.01142999999999998 0.01016 0.05
43 0 -0.001 0.06250000000000001
44 0.02286 -0.001 0.06250000000000001
45 0.01143000000000002 -0.001 0.05
46 0.01143000000000002 -0.001 0.07500000000000001
47 0.02286 0.01116 0.06250000000000001
48 0 0.01116 0.06250000000000001
49 0.01142999999999998 0.01116 0.05
50 0.01142999999999998 0.01116 0.07500000000000001
51 0.01143000000000002 0 0.07500000000000001
52 0.01142999999999998 0.01016 0.07500000000000001
53 0 0 0.08750000000000002
54 0 0 0.1
55 0 0 0.1125
56 0.02286 0 0.08750000000000002
57 0.02286 0 0.1
58 0.02286 0 0.1125
59 0.02286 0.01016 0.08750000000000002
60 0.02286 0.01016 0.1
61 0.02286 0.01016 0.1125
62 0 0.01016 0.08750000000000002
63 0 0.01016 0.1
64 0 0.01016 0.1125
65 0.01101551041873842 0 0.0325777162076453
66 0.01187165999146628 0 0.01761195753630404
67 0.01405332619468189 0 0.0413536088573115
68 0.00864367200967235 0 0.008341907444839017
69 0.006523554756471468 0 0.04300319643519969
70 0.01632258489807537 0 0.006985088263381947
71 0.02286 0.005079999999999999 0.006250000000000003
72 0.02286 0.00508 0.01875000000000001
73 0.02286 0.00508 0.04375
74 0.02286 0.005080000000000001 0.03125000000000001
75 0.01184448958126158 0.01016 0.0325777162076453
76 0.01098834000853371 0.01016 0.01761195753630404
77 0.008806673805318112 0.01016 0.0413536088573115
78 0.01421632799032765 0.01016 0.008341907444839017
79 0.01633644524352853 0.01016 0.04300319643519969
80 0.00653741510192463 0.01016 0.006985088263381947
81 0 0.005080000000000001 0.006250000000000003
82 0 0.00508 0.01875000000000001
83 0 0.00508 0.04375
84 0 0.005079999999999999 0.03125000000000001
85 0.005714999999999999 0.00508 0
86 0.017145 0.00508 0
87 0.017145 0.00508 0.05
88 0.005715 0.00508 0.05
89 0.006985453809844893 -0.001 0.05720686216372217
90 0.009412562335957999 -0.001 0.06536894900000001
91 0.01446036122409032 -0.001 0.0584605320336629
92 0.017145 -0.001 0.06877604216855999
93 0.02286 0.00508 0.05439940905122495
94 0.02286 0.00508 0.07060059094877506
95 0.01587454619015511 0.01116 0.05720686216372217
96 0.013447437664042 0.01116 0.06536894900000001
97 0.008399638775909681 0.01116 0.0584605320336629
98 0.005714999999999998 0.01116 0.06877604216855999
99 0 0.00508 0.05439940905122495
100 0 0.005080000000000001 0.07060059094877506
101 0.017145 0.00508 0.07500000000000001
102 0.005715 0.00508 0.07500000000000001
103 0.01101551041873842 0 0.1075777162076453
104 0.01187165999146628 0 0.09261195753630405
105 0.008643672009672351 0 0.08334190744483902
106 0.01405332619468189 0 0.1163536088573115
107 0.01632258489807537 0 0.08198508826338195
108 0.00652355475647145 0 0.1180031964351997
109 0.02286 0.005079999999999999 0.08125000000000002
110 0.02286 0.00508 0.09375000000000003
111 0.02286 0.00508 0.11875
112 0.02286 0.00508 0.10625
113 0.01184448958126158 0.01016 0.1075777162076453
114 0.01098834000853371 0.01016 0.09261195753630405
115 0.01421632799032765 0.01016 0.08334190744483902
116 0.008806673805318112 0.01016 0.1163536088573115
117 0.006537415101924626 0.01016 0.08198508826338195
118 0.01633644524352855 0.01016 0.1180031964351997
119 0 0.005080000000000001 0.08125000000000002
120 0 0.005080000000000001 0.09375000000000003
121 0 0.00508 0.11875
122 0 0.00508 0.10625
123 0.005714999999999999 0.00508 0.125
124 0.017145 0.00508 0.125
$EndNodes
$Elements
307
1 4 2 1 1 40 30 65 84
2 4 2 1 1 75 37 74 33
3 4 2 1 1 76 82 30 40
4 4 2 1 1 72 37 66 33
5 4 2 1 1 65 40 84 75
6 4 2 1 1 74 65 75 33
7 4 2 1 1 82 68 29 39
8 4 2 1 1 72 78 36 32
9 4 2 1 1 30 82 76 66
10 4 2 1 1 72 37 76 66
11 4 2 1 1 31 41 77 84
12 4 2 1 1 76 68 82 39
13 4 2 1 1 66 78 72 32
14 4 2 1 1 77 65 31 84
15 4 2 1 1 30 65 76 40
16 4 2 1 1 66 37 75 33
17 4 2 1 1 37 75 76 66
18 4 2 1 1 65 30 76 66
19 4 2 1 1 40 65 76 75
20 4 2 1 1 66 75 65 33
21 4 2 1 1 82 29 68 66
22 4 2 1 1 78 36 76 72
23 4 2 1 1 42 79 87 67
24 4 2 1 1 88 69 77 35
25 4 2 1 1 67 87 42 35
26 4 2 1 1 42 88 77 35
27 4 2 1 1 10 5 68 85
28 4 2 1 1 5 10 78 86
29 4 2 1 1 85 68 10 80
30 4 2 1 1 86 78 5 70
31 4 2 1 1 76 82 68 66
32 4 2 1 1 76 78 72 66
33 4 2 1 1 79 73 67 34
34 4 2 1 1 65 74 67 34
35 4 2 1 1 41 77 84 75
36 4 2 1 1 73 79 38 34
37 4 2 1 1 84 40 41 75
38 4 2 1 1 34 65 74 33
39 4 2 1 1 76 36 37 72
40 4 2 1 1 30 29 82 66
41 4 2 1 1 84 77 65 75
42 4 2 1 1 74 75 65 67
43 4 2 1 1 77 9 83 88
44 4 2 1 1 87 73 4 67
45 4 2 1 1 68 76 80 39
46 4 2 1 1 78 66 70 32
47 4 2 1 1 1 68 85 81
48 4 2 1 1 6 78 86 71
49 4 2 1 1 31 69 65 77
50 4 2 1 1 65 76 75 66
51 4 2 1 1 77 83 69 88
52 4 2 1 1 79 73 87 67
53 4 2 1 1 37 38 75 74
54 4 2 1 1 30 31 65 84
55 4 2 1 1 9 41 77 83
56 4 2 1 1 4 34 67 73
57 4 2 1 1 76 82 40 39
58 4 2 1 1 32 72 66 33
59 4 2 1 1 68 85 81 80
60 4 2 1 1 78 86 71 70
61 4 2 1 1 78 6 36 71
62 4 2 1 1 68 1 29 81
63 4 2 1 1 42 9 77 88
64 4 2 1 1 35 4 67 87
65 4 2 1 1 5 10 68 78
66 4 2 1 1 68 5 1 85
67 4 2 1 1 78 10 6 86
68 4 2 1 1 67 42 77 35
69 4 2 1 1 78 68 5 70
70 4 2 1 1 80 68 10 78
71 4 2 1 1 79 42 77 67
72 4 2 1 1 67 77 69 35
73 4 2 1 1 31 2 69 83
74 4 2 1 1 7 38 73 79
75 4 2 1 1 70 3 71 32
76 4 2 1 1 80 8 81 39
77 4 2 1 1 80 76 68 78
78 4 2 1 1 66 68 78 70
79 4 2 1 1 77 75 79 67
80 4 2 1 1 69 65 77 67
81 4 2 1 1 7 42 79 87
82 4 2 1 1 2 35 69 88
83 4 2 1 1 85 10 8 80
84 4 2 1 1 86 5 3 70
85 4 2 1 1 78 76 68 66
86 4 2 1 1 73 7 79 87
87 4 2 1 1 83 2 69 88
88 4 2 1 1 81 85 8 80
89 4 2 1 1 71 86 3 70
90 4 2 1 1 73 4 7 87
91 4 2 1 1 8 1 85 81
92 4 2 1 1 9 2 83 88
93 4 2 1 1 3 6 86 71
94 4 2 1 1 75 77 65 67
95 4 2 1 1 39 68 81 80
96 4 2 1 1 39 81 68 29
97 4 2 1 1 32 78 71 70
98 4 2 1 1 32 71 78 36
99 4 2 1 1 31 77 83 69
100 4 2 1 1 83 77 31 41
101 4 2 1 1 34 79 74 67
102 4 2 1 1 34 74 79 38
103 4 2 1 1 75 74 79 67
104 4 2 1 1 75 79 74 38
105 4 2 2 2 90 51 92 101
106 4 2 2 2 102 98 52 96
107 4 2 2 2 96 52 51 101
108 4 2 2 2 52 102 90 51
109 4 2 2 2 91 93 95 44
110 4 2 2 2 98 100 48 43
111 4 2 2 2 47 94 92 44
112 4 2 2 2 93 47 95 44
113 4 2 2 2 98 102 90 96
114 4 2 2 2 96 90 92 101
115 4 2 2 2 43 89 97 90
116 4 2 2 2 43 98 100 90
117 4 2 2 2 92 96 94 47
118 4 2 2 2 51 90 96 101
119 4 2 2 2 90 102 52 96
120 4 2 2 2 97 42 95 91
121 4 2 2 2 35 97 89 91
122 4 2 2 2 48 97 98 90
123 4 2 2 2 96 92 91 44
124 4 2 2 2 102 100 98 90
125 4 2 2 2 101 92 96 94
126 4 2 2 2 92 96 47 44
127 4 2 2 2 43 48 98 90
128 4 2 2 2 42 97 35 91
129 4 2 2 2 97 48 43 90
130 4 2 2 2 89 97 90 91
131 4 2 2 2 95 96 97 91
132 4 2 2 2 51 90 52 96
133 4 2 2 2 97 98 90 96
134 4 2 2 2 96 92 90 91
135 4 2 2 2 96 90 97 91
136 4 2 2 2 42 7 95 87
137 4 2 2 2 35 2 89 88
138 4 2 2 2 94 96 16 47
139 4 2 2 2 43 100 12 90
140 4 2 2 2 97 48 19 99
141 4 2 2 2 91 13 93 44
142 4 2 2 2 99 11 89 43
143 4 2 2 2 47 95 15 93
144 4 2 2 2 16 52 50 96
145 4 2 2 2 14 92 94 44
146 4 2 2 2 48 100 98 20
147 4 2 2 2 17 51 101 92
148 4 2 2 2 52 21 98 102
149 4 2 2 2 88 2 89 99
150 4 2 2 2 93 95 7 87
151 4 2 2 2 42 19 97 49
152 4 2 2 2 7 15 95 93
153 4 2 2 2 89 2 11 99
154 4 2 2 2 49 7 95 42
155 4 2 2 2 35 11 45 89
156 4 2 2 2 2 35 89 11
157 4 2 2 2 7 49 95 15
158 4 2 2 2 14 92 17 94
159 4 2 2 2 21 98 100 20
160 4 2 2 2 17 51 92 46
161 4 2 2 2 50 21 98 52
162 4 2 2 2 21 50 98 20
163 4 2 2 2 17 46 92 14
164 4 2 2 2 9 2 88 99
165 4 2 2 2 93 7 4 87
166 4 2 2 2 101 18 17 94
167 4 2 2 2 100 21 22 102
168 4 2 2 2 100 98 21 102
169 4 2 2 2 17 92 101 94
170 4 2 2 2 51 46 90 92
171 4 2 2 2 52 98 50 96
172 4 2 2 2 42 49 97 95
173 4 2 2 2 45 35 89 91
174 4 2 2 2 43 97 99 48
175 4 2 2 2 43 99 97 89
176 4 2 2 2 95 44 96 91
177 4 2 2 2 96 44 95 47
178 4 2 2 2 100 51 102 22
179 4 2 2 2 100 102 51 90
180 4 2 2 2 12 46 100 22
181 4 2 2 2 12 100 46 90
182 4 2 2 2 46 51 100 22
183 4 2 2 2 46 100 51 90
184 4 2 2 2 101 94 52 18
185 4 2 2 2 101 52 94 96
186 4 2 2 2 16 52 94 18
187 4 2 2 2 16 94 52 96
188 4 2 2 2 88 99 42 9
189 4 2 2 2 19 42 99 9
190 4 2 2 2 19 99 42 97
191 4 2 2 2 93 13 45 4
192 4 2 2 2 93 45 13 91
193 4 2 2 2 35 93 45 4
194 4 2 2 2 35 45 93 91
195 4 2 2 2 87 93 35 4
196 4 2 2 2 99 42 89 88
197 4 2 2 2 99 89 42 97
198 4 2 2 2 35 89 42 88
199 4 2 2 2 35 42 89 97
200 4 2 2 2 93 35 95 87
201 4 2 2 2 93 95 35 91
202 4 2 2 2 42 95 35 87
203 4 2 2 2 42 35 95 91
204 4 2 3 3 113 112 57 60
205 4 2 3 3 63 122 54 103
206 4 2 3 3 54 63 114 120
207 4 2 3 3 57 110 104 60
208 4 2 3 3 112 57 103 113
209 4 2 3 3 103 63 122 113
210 4 2 3 3 120 53 62 105
211 4 2 3 3 59 56 110 115
212 4 2 3 3 120 114 54 104
213 4 2 3 3 114 104 110 60
214 4 2 3 3 106 58 112 61
215 4 2 3 3 120 62 114 105
216 4 2 3 3 104 110 56 115
217 4 2 3 3 113 106 112 61
218 4 2 3 3 113 57 104 60
219 4 2 3 3 54 114 63 103
220 4 2 3 3 54 114 103 104
221 4 2 3 3 104 114 113 60
222 4 2 3 3 57 104 103 113
223 4 2 3 3 103 114 63 113
224 4 2 3 3 59 110 114 115
225 4 2 3 3 105 120 53 104
226 4 2 3 3 124 106 28 118
227 4 2 3 3 25 123 116 108
228 4 2 3 3 123 116 28 25
229 4 2 3 3 28 25 106 124
230 4 2 3 3 105 102 52 51
231 4 2 3 3 115 51 52 101
232 4 2 3 3 107 51 115 101
233 4 2 3 3 52 117 102 105
234 4 2 3 3 114 120 105 104
235 4 2 3 3 110 104 114 115
236 4 2 3 3 64 116 121 108
237 4 2 3 3 103 106 58 112
238 4 2 3 3 64 116 122 113
239 4 2 3 3 55 64 121 108
240 4 2 3 3 58 57 103 112
241 4 2 3 3 122 63 64 113
242 4 2 3 3 110 114 60 59
243 4 2 3 3 54 53 120 104
244 4 2 3 3 103 106 112 113
245 4 2 3 3 103 122 116 113
246 4 2 3 3 106 24 111 124
247 4 2 3 3 123 27 116 121
248 4 2 3 3 62 117 114 105
249 4 2 3 3 56 107 104 115
250 4 2 3 3 102 119 22 105
251 4 2 3 3 115 18 109 101
252 4 2 3 3 113 118 106 61
253 4 2 3 3 104 114 103 113
254 4 2 3 3 121 116 123 108
255 4 2 3 3 124 111 106 118
256 4 2 3 3 122 55 54 103
257 4 2 3 3 61 112 113 60
258 4 2 3 3 27 64 116 121
259 4 2 3 3 106 24 58 111
260 4 2 3 3 63 62 114 120
261 4 2 3 3 56 110 104 57
262 4 2 3 3 115 109 107 101
263 4 2 3 3 102 117 119 105
264 4 2 3 3 59 18 109 115
265 4 2 3 3 22 53 105 119
266 4 2 3 3 116 28 27 123
267 4 2 3 3 24 106 25 124
268 4 2 3 3 51 52 105 115
269 4 2 3 3 51 22 105 102
270 4 2 3 3 52 18 115 101
271 4 2 3 3 25 116 28 106
272 4 2 3 3 105 107 51 115
273 4 2 3 3 108 116 25 106
274 4 2 3 3 106 116 28 118
275 4 2 3 3 105 52 117 115
276 4 2 3 3 23 55 121 108
277 4 2 3 3 61 118 111 26
278 4 2 3 3 62 21 117 119
279 4 2 3 3 56 17 107 109
280 4 2 3 3 105 117 114 115
281 4 2 3 3 104 107 105 115
282 4 2 3 3 103 116 108 106
283 4 2 3 3 118 106 116 113
284 4 2 3 3 25 23 123 108
285 4 2 3 3 118 28 124 26
286 4 2 3 3 17 51 107 101
287 4 2 3 3 21 52 117 102
288 4 2 3 3 104 105 114 115
289 4 2 3 3 121 123 23 108
290 4 2 3 3 118 124 111 26
291 4 2 3 3 17 107 109 101
292 4 2 3 3 119 21 117 102
293 4 2 3 3 119 22 21 102
294 4 2 3 3 24 111 124 26
295 4 2 3 3 121 123 27 23
296 4 2 3 3 18 17 109 101
297 4 2 3 3 106 103 116 113
298 4 2 3 3 56 115 109 107
299 4 2 3 3 109 115 56 59
300 4 2 3 3 62 105 119 117
301 4 2 3 3 119 105 62 53
302 4 2 3 3 106 61 111 58
303 4 2 3 3 111 61 106 118
304 4 2 3 3 108 103 122 116
305 4 2 3 3 122 103 108 55
306 4 2 3 3 122 64 108 116
307 4 2 3 3 108 64 122 55
$EndElements
