$MeshFormat
2.2 0 8
$EndMeshFormat
$PhysicalNames
2
3 1 "er3p15_OPEM_RESERVED_1"
3 2 "er3p3_OPEM_RESERVED_2"
$EndPhysicalNames
$Nodes
504
1 0 1.11022302462516e-20 0.0001
2 0.00049 1.110223024625158e-20 0.0001
3 0.0005 1.11022302462516e-20 0.0001
4 0.0005 -0.002 0.0001000000000000002
5 0 -0.002 0.0001000000000000002
6 0.00049 -0.002 0.0001000000000000002
7 0.0013 1.11022302462516e-20 0.0001
8 0.0013 2.220446049250316e-20 0.0002
9 0.00081 1.110223024625158e-20 0.0001
10 0.00081 1.4432899320127e-20 0.00013
11 0.00075 1.4432899320127e-20 0.00013
12 0.00069 1.4432899320127e-20 0.00013
13 0.00069 1.110223024625158e-20 0.0001
14 0.00061 1.110223024625158e-20 0.0001
15 0.00061 1.4432899320127e-20 0.00013
16 0.00055 1.4432899320127e-20 0.00013
17 0.00049 1.4432899320127e-20 0.00013
18 0 2.22044604925032e-20 0.0002
19 0.0008 1.11022302462516e-20 0.0001
20 0.0007945401685505001 1.27675647831893e-20 0.000115
21 0.0007054598314495001 1.27675647831893e-20 0.000115
22 0.0007 1.11022302462516e-20 0.0001
23 0.0005999999999999999 1.11022302462516e-20 0.0001
24 0.0005945401685505 1.27675647831893e-20 0.000115
25 0.0005054598314494999 1.27675647831893e-20 0.000115
26 0.0005054598314494999 -0.002 0.0001150000000000002
27 0.0013 -0.002 0.0001000000000000002
28 0.0013 -0.002 0.0002000000000000002
29 0.00081 -0.002 0.0001000000000000002
30 0.00081 -0.002 0.00013
31 0.00075 -0.002 0.00013
32 0.00069 -0.002 0.00013
33 0.00069 -0.002 0.0001000000000000002
34 0.00061 -0.002 0.0001000000000000002
35 0.00061 -0.002 0.00013
36 0.00055 -0.002 0.00013
37 0.00049 -0.002 0.00013
38 0 -0.002 0.0002000000000000002
39 0.0008 -0.002 0.0001000000000000002
40 0.0007945401685505001 -0.002 0.0001150000000000002
41 0.0007054598314495001 -0.002 0.0001150000000000002
42 0.0007 -0.002 0.0001000000000000002
43 0.0005999999999999999 -0.002 0.0001000000000000002
44 0.0005945401685505 -0.002 0.0001150000000000002
45 0.0008 -0.0009499999999999999 0.0001000000000000001
46 0.0008 -0.00105 0.0001000000000000001
47 0.0007 -0.0009499999999999999 0.0001000000000000001
48 0.0007 -0.00105 0.0001000000000000001
49 0.000163333333333333 1.11022302462516e-20 0.0001
50 0.0003266666666666662 1.11022302462516e-20 0.0001
51 0.0005 -0.0002222222222222221 0.0001
52 0.0005 -0.0004444444444444439 0.0001000000000000001
53 0.0005 -0.0006666666666666663 0.0001000000000000001
54 0.0005 -0.0008888888888888888 0.0001000000000000001
55 0.0005 -0.001111111111111111 0.0001000000000000001
56 0.0005 -0.001333333333333334 0.0001000000000000002
57 0.0005 -0.001555555555555557 0.0001000000000000002
58 0.0005 -0.001777777777777779 0.0001000000000000002
59 0.000163333333333333 -0.002 0.0001000000000000002
60 0.0003266666666666662 -0.002 0.0001000000000000002
61 0 -0.0002222222222222221 0.0001
62 0 -0.0004444444444444439 0.0001000000000000001
63 0 -0.0006666666666666663 0.0001000000000000001
64 0 -0.0008888888888888888 0.0001000000000000001
65 0 -0.001111111111111111 0.0001000000000000001
66 0 -0.001333333333333334 0.0001000000000000002
67 0 -0.001555555555555557 0.0001000000000000002
68 0 -0.001777777777777779 0.0001000000000000002
69 0.000973333333333333 1.11022302462516e-20 0.0001
70 0.001136666666666666 1.11022302462516e-20 0.0001
71 0.001083333333333333 2.22044604925032e-20 0.0002
72 0.0008666666666666652 2.22044604925032e-20 0.0002
73 0.0006499999999999988 2.22044604925032e-20 0.0002
74 0.0004333333333333326 2.22044604925032e-20 0.0002
75 0.0002166666666666662 2.22044604925032e-20 0.0002
76 0.0005054598314494999 -0.0002222222222222221 0.000115
77 0.0005054598314494999 -0.0004444444444444439 0.0001150000000000001
78 0.0005054598314494999 -0.0006666666666666663 0.0001150000000000001
79 0.0005054598314494999 -0.0008888888888888888 0.0001150000000000001
80 0.0005054598314494999 -0.001111111111111111 0.0001150000000000001
81 0.0005054598314494999 -0.001333333333333334 0.0001150000000000002
82 0.0005054598314494999 -0.001555555555555557 0.0001150000000000002
83 0.0005054598314494999 -0.001777777777777779 0.0001150000000000002
84 0.000973333333333333 -0.002 0.0001000000000000002
85 0.001136666666666666 -0.002 0.0001000000000000002
86 0.001083333333333333 -0.002 0.0002000000000000002
87 0.0008666666666666652 -0.002 0.0002000000000000002
88 0.0006499999999999988 -0.002 0.0002000000000000002
89 0.0004333333333333326 -0.002 0.0002000000000000002
90 0.0002166666666666662 -0.002 0.0002000000000000002
91 0 -0.000222222222222222 0.0002
92 0 -0.0004444444444444439 0.0002000000000000001
93 0 -0.0006666666666666663 0.0002000000000000001
94 0 -0.0008888888888888888 0.0002000000000000001
95 0 -0.001111111111111111 0.0002000000000000001
96 0 -0.001333333333333334 0.0002000000000000001
97 0 -0.001555555555555557 0.0002000000000000002
98 0 -0.001777777777777779 0.0002000000000000002
99 0.0013 -0.000222222222222222 0.0002
100 0.0013 -0.0004444444444444439 0.0002000000000000001
101 0.0013 -0.0006666666666666663 0.0002000000000000001
102 0.0013 -0.0008888888888888888 0.0002000000000000001
103 0.0013 -0.001111111111111111 0.0002000000000000001
104 0.0013 -0.001333333333333334 0.0002000000000000001
105 0.0013 -0.001555555555555557 0.0002000000000000002
106 0.0013 -0.001777777777777779 0.0002000000000000002
107 0.0013 -0.0002222222222222221 0.0001
108 0.0013 -0.0004444444444444439 0.0001000000000000001
109 0.0013 -0.0006666666666666663 0.0001000000000000001
110 0.0013 -0.0008888888888888888 0.0001000000000000001
111 0.0013 -0.001111111111111111 0.0001000000000000001
112 0.0013 -0.001333333333333334 0.0001000000000000002
113 0.0013 -0.001555555555555557 0.0001000000000000002
114 0.0013 -0.001777777777777779 0.0001000000000000002
115 0.0008 -0.0002374999999999998 0.0001
116 0.0008 -0.0004749999999999999 0.0001000000000000001
117 0.0008 -0.0007124999999999998 0.0001000000000000001
118 0.0008 -0.0012875 0.0001000000000000002
119 0.0008 -0.001525 0.0001000000000000002
120 0.0008 -0.0017625 0.0001000000000000002
121 0.0007945401685505 -0.0002222222222222221 0.000115
122 0.0007945401685505 -0.0004444444444444439 0.0001150000000000001
123 0.0007945401685505 -0.0006666666666666663 0.0001150000000000001
124 0.0007945401685505 -0.0008888888888888888 0.0001150000000000001
125 0.0007945401685505 -0.001111111111111111 0.0001150000000000001
126 0.0007945401685505 -0.001333333333333334 0.0001150000000000002
127 0.0007945401685505 -0.001555555555555557 0.0001150000000000002
128 0.0007945401685505 -0.001777777777777779 0.0001150000000000002
129 0.0007054598314495 -0.0002222222222222221 0.000115
130 0.0007054598314495 -0.0004444444444444439 0.0001150000000000001
131 0.0007054598314495 -0.0006666666666666663 0.0001150000000000001
132 0.0007054598314495 -0.0008888888888888888 0.0001150000000000001
133 0.0007054598314495 -0.001111111111111111 0.0001150000000000001
134 0.0007054598314495 -0.001333333333333334 0.0001150000000000002
135 0.0007054598314495 -0.001555555555555557 0.0001150000000000002
136 0.0007054598314495 -0.001777777777777779 0.0001150000000000002
137 0.0007 -0.0002374999999999998 0.0001
138 0.0007 -0.0004749999999999999 0.0001000000000000001
139 0.0007 -0.0007124999999999998 0.0001000000000000001
140 0.0007 -0.0012875 0.0001000000000000002
141 0.0007 -0.001525 0.0001000000000000002
142 0.0007 -0.0017625 0.0001000000000000002
143 0.0005999999999999999 -0.0002222222222222221 0.0001
144 0.0005999999999999999 -0.0004444444444444439 0.0001000000000000001
145 0.0005999999999999999 -0.0006666666666666663 0.0001000000000000001
146 0.0005999999999999999 -0.0008888888888888888 0.0001000000000000001
147 0.0005999999999999999 -0.001111111111111111 0.0001000000000000001
148 0.0005999999999999999 -0.001333333333333334 0.0001000000000000002
149 0.0005999999999999999 -0.001555555555555557 0.0001000000000000002
150 0.0005999999999999999 -0.001777777777777779 0.0001000000000000002
151 0.0005945401685505 -0.0002222222222222221 0.000115
152 0.0005945401685505 -0.0004444444444444439 0.0001150000000000001
153 0.0005945401685505 -0.0006666666666666663 0.0001150000000000001
154 0.0005945401685505 -0.0008888888888888888 0.0001150000000000001
155 0.0005945401685505 -0.001111111111111111 0.0001150000000000001
156 0.0005945401685505 -0.001333333333333334 0.0001150000000000002
157 0.0005945401685505 -0.001555555555555557 0.0001150000000000002
158 0.0005945401685505 -0.001777777777777779 0.0001150000000000002
159 0.0002519756175533895 -0.001853050540376078 0.0001000000000000002
160 0.0002383462625500296 -0.0001489123031525391 0.0001
161 0.0003508701798153154 -0.000557477141390328 0.0001000000000000001
162 0.0001656055341286866 -0.001405569471938062 0.0001000000000000002
163 0.0001924500897298755 -0.001 0.0001000000000000001
164 0.0003177645265453027 -0.001216668654721311 0.0001000000000000001
165 0.000311003458226662 -0.0007780522900398879 0.0001000000000000001
166 0.0003240334626107558 -0.0003382904445802878 0.0001
167 0.0001754365390362541 -0.001655993335092496 0.0001000000000000002
168 0.0004083333333333331 -0.0001060881119635938 0.0001
169 0.0004083333333333331 -0.001893911888036406 0.0001000000000000002
170 0.000367006925313589 -0.001696788923547126 0.0001000000000000002
171 0.0001296250549781491 -0.0003034226801776932 0.0001
172 0.0001656741959375883 -0.0005532333674114938 0.0001000000000000001
173 0.0001337039380414428 -0.0007777777777777777 0.0001000000000000001
174 0.0003458242944909965 -0.00146792570724459 0.0001000000000000002
175 0.0003662960619585575 -0.001 0.0001000000000000001
176 0.0001347468609266786 -0.001215875287935466 0.0001000000000000001
177 0.0001062609301723023 -0.0001349114411104909 0.0001
178 0.0001077255461794728 -0.001866371347289162 0.0001000000000000002
179 9.499999999999982e-05 1.66533453693774e-20 0.00015
180 0.001205 1.66533453693774e-20 0.00015
181 0.001205 -0.002 0.0001500000000000002
182 9.499999999999982e-05 -0.002 0.0001500000000000002
183 0 -0.000111111111111111 0.00015
184 0 -0.0007777777777777776 0.0001500000000000001
185 0 -0.001666666666666668 0.0001500000000000002
186 0 -0.0005555555555555551 0.0001500000000000001
187 0 -0.001 0.0001500000000000001
188 0 -0.001222222222222223 0.0001500000000000001
189 0 -0.001444444444444445 0.0001500000000000002
190 0 -0.00188888888888889 0.0001500000000000002
191 0 -0.0003333333333333329 0.00015
192 0.001104334021972394 -0.0007713666698629441 0.0002000000000000001
193 0.0001925157619653921 -0.001222475814385628 0.0002000000000000001
194 0.001123092870094192 -0.001461090071824781 0.0002000000000000002
195 0.0001922679397186665 -0.000558397800859642 0.0002000000000000001
196 0.0007586829559469602 -0.0002155623721533897 0.0002
197 0.0005258835497003984 -0.001802987035839394 0.0002000000000000002
198 0.000348066058013353 -0.0002010281988846884 0.0002
199 0.0009719657729520888 -0.001833165146091962 0.0002000000000000002
200 0.00110685142291901 -0.0003588913301586285 0.0002
201 0.0001827871390433552 -0.001665240458856386 0.0002000000000000002
202 0.0001905803652728323 -0.00144434249936546 0.0002000000000000002
203 0.0003841560261224982 -0.00133382092094513 0.0002000000000000001
204 0.0003850967022303513 -0.001111995122666469 0.0002000000000000001
205 0.0005768919545764974 -0.001223528208636401 0.0002000000000000001
206 0.0005775071239525522 -0.001001651079077419 0.0002000000000000001
207 0.0007692208409528128 -0.001113113081112081 0.0002000000000000001
208 0.0005794790691131045 -0.001439374144591186 0.0002000000000000002
209 0.0003861142555983014 -0.0008902097248464438 0.0002000000000000001
210 0.0005781412499688661 -0.0007801068395504184 0.0002000000000000001
211 0.0003860719556868415 -0.0006688343501210698 0.0002000000000000001
212 0.0005784003368841156 -0.0005590690777080427 0.0002000000000000001
213 0.0007629494446388019 -0.0006701094622997457 0.0002000000000000001
214 0.0007628763223019399 -0.000454660088168105 0.0002000000000000001
215 0.0009607688409711198 -0.0005604800056194664 0.0002000000000000001
216 0.0005626162483507376 -0.0003385849322479432 0.0002
217 0.0001935485024981969 -0.0007787573949186047 0.0002000000000000001
218 0.0003754994319280467 -0.0004451928897122585 0.0002000000000000001
219 0.0003989650383151221 -0.001590824263614829 0.0002000000000000002
220 0.0007615964627667092 -0.000891314396639895 0.0002000000000000001
221 0.0009669644593835844 -0.0009769843962156724 0.0002000000000000001
222 0.0009516553254443921 -0.001207709076814185 0.0002000000000000001
223 0.0007621546154687599 -0.001321450917178114 0.0002000000000000001
224 0.000767361928521595 -0.001556062733289937 0.0002000000000000002
225 0.000192879203715374 -0.001000573009469524 0.0002000000000000001
226 0.0007491445818771097 -0.001787925690693942 0.0002000000000000002
227 0.0001789107898388269 -0.0003384103656454896 0.0002
228 0.001094201574426289 -0.001673450219815578 0.0002000000000000002
229 0.0009655983696786905 -0.0001822108036897996 0.0002
230 0.0003271282117121429 -0.00181682421168149 0.0002000000000000002
231 0.0005480045612825305 -0.0001520020037671119 0.0002
232 0.0005954674886323567 -0.001632215589396048 0.0002000000000000002
233 0.0009559283227825795 -0.001554114122759088 0.0002000000000000002
234 0.001154390857172505 -0.0005603698233504298 0.0002000000000000001
235 0.001112476409796199 -0.00111322071791849 0.0002000000000000001
236 0.0009113226459465217 -0.0007740509861275448 0.0002000000000000001
237 0.000910955582363544 -0.0003543609199578778 0.0002
238 0.001136761347974812 -0.0001636647996830334 0.0002
239 0.0001632386520251884 -0.001836335200316966 0.0002000000000000002
240 0.001144329187689588 -0.001845002679848906 0.0002000000000000002
241 0.0001576313093728946 -0.0001591766377496835 0.0002
242 0.00115175754445753 -0.0009645301561453947 0.0002000000000000001
243 0.0009283185742041576 -0.001388918258624894 0.0002000000000000002
244 0.001134967127496182 -0.001276668427703877 0.0002000000000000001
245 0.0008816279529076516 -0.001687366477576203 0.0002000000000000002
246 0.0013 -0.0007777777777777776 0.0001500000000000001
247 0.0013 -0.001666666666666668 0.0001500000000000002
248 0.0013 -0.000111111111111111 0.00015
249 0.0013 -0.0005555555555555551 0.0001500000000000001
250 0.0013 -0.001222222222222223 0.0001500000000000001
251 0.0013 -0.001444444444444445 0.0001500000000000002
252 0.0013 -0.001 0.0001500000000000001
253 0.0013 -0.0003333333333333329 0.0001500000000000001
254 0.0013 -0.00188888888888889 0.0001500000000000002
255 0.0009065177045464805 -0.001009306632958569 0.0001000000000000001
256 0.001062426957721633 -0.001848869573931994 0.0001000000000000002
257 0.001062426957721633 -0.0001511304260680062 0.0001
258 0.001092716458122618 -0.000535689574749165 0.0001000000000000001
259 0.00109507991901551 -0.001464405375788243 0.0001000000000000002
260 0.001141939047193207 -0.00100214437634096 0.0001000000000000001
261 0.001117127409521429 -0.00120604616308417 0.0001000000000000001
262 0.001102839447586898 -0.0007981414340095825 0.0001000000000000001
263 0.0009213100277779193 -0.00116875 0.0001000000000000001
264 0.0009323601740902098 -0.0008482208431139821 0.0001000000000000001
265 0.0009689028989530132 -0.001693558917403885 0.0001000000000000002
266 0.0009685089888041978 -0.0003064569076856829 0.0001
267 0.0008916666666666662 -0.0001060881119635935 0.0001
268 0.0008916666666666663 -0.001893911888036406 0.0001000000000000002
269 0.0009657579624330636 -0.0006778943499344154 0.0001000000000000001
270 0.0009601797015470772 -0.001327524766089765 0.0001000000000000002
271 0.001157457184837248 -0.001704842681557724 0.0001000000000000002
272 0.001156997622996964 -0.0002951757810467718 0.0001
273 0.001191218249477053 -0.0001337056858674 0.0001
274 0.001191310161845109 -0.001866298006653499 0.0001000000000000002
275 0.001016310753695861 -0.001067540205520479 0.0001000000000000001
276 0.001013863343452695 -0.0009421943970547449 0.0001000000000000001
277 0.00075 -0.0007777777777777776 0.0001150000000000001
278 0.00075 -0.001666666666666668 0.0001150000000000002
279 0.00075 -0.000111111111111111 0.000115
280 0.00075 -0.0005555555555555551 0.0001150000000000001
281 0.00075 -0.001222222222222223 0.0001150000000000001
282 0.00075 -0.001444444444444445 0.0001150000000000002
283 0.00075 -0.001 0.0001150000000000001
284 0.00075 -0.0003333333333333329 0.000115
285 0.00075 -0.00188888888888889 0.0001150000000000002
286 0.00065 -3.464101615137753e-05 0.0001
287 0.00065 -0.001965358983848622 0.0001000000000000002
288 0.0006547275866404807 -0.00188125 0.0001000000000000002
289 0.0006471371531119856 -0.0001023693515136888 0.0001
290 0.0005499999999999999 -0.001666666666666668 0.0001150000000000002
291 0.0005499999999999999 -0.0007777777777777776 0.0001150000000000001
292 0.00055 -0.000111111111111111 0.000115
293 0.0005499999999999999 -0.0005555555555555551 0.0001150000000000001
294 0.0005499999999999999 -0.001222222222222223 0.0001150000000000001
295 0.0005499999999999999 -0.001444444444444445 0.0001150000000000002
296 0.0005499999999999999 -0.00188888888888889 0.0001150000000000002
297 0.0005499999999999999 -0.001 0.0001150000000000001
298 0.00055 -0.0003333333333333329 0.000115
299 0 0 0
300 0 -0.002 2.20309881449055e-19
301 0.00055 0 0
302 0.00075 0 0
303 0.0013 7.401486830834367e-21 0
304 0.00055 -0.002 2.16840434497101e-19
305 0.00075 -0.002 2.16840434497101e-19
306 0.0013 -0.002 2.22044604925032e-19
307 0.0008 -0.00105 1.16573417585641e-19
308 0.0007 -0.00105 1.16573417585641e-19
309 0.0008 -0.0009499999999999999 1.054711873393894e-19
310 0.0007 -0.0009499999999999999 1.054711873393894e-19
311 0.00049 9.992007221626409e-21 9.000000000000001e-05
312 0.00055 4.996003610813205e-21 9.000000000000001e-05
313 0.00061 9.992007221626409e-21 9.000000000000001e-05
314 0.00069 9.992007221626409e-21 9.000000000000001e-05
315 0.00075 4.996003610813205e-21 9.000000000000001e-05
316 0.00081 9.992007221626409e-21 9.000000000000001e-05
317 0.00055 0 0.0001
318 0.00075 0 0.0001
319 0.00049 -0.002 9.00000000000002e-05
320 0.00055 -0.002 9.00000000000002e-05
321 0.00061 -0.002 9.00000000000002e-05
322 0.00069 -0.002 9.00000000000002e-05
323 0.00075 -0.002 9.00000000000002e-05
324 0.00081 -0.002 9.00000000000002e-05
325 0.00055 -0.002 0.0001
326 0.00075 -0.002 0.0001
327 0 -0.0002222222222222221 2.467162276944798e-20
328 0 -0.0004444444444444439 4.934324553889593e-20
329 0 -0.0006666666666666663 7.401486830834396e-20
330 0 -0.0008888888888888888 9.868649107779199e-20
331 0 -0.001111111111111111 1.2335811384724e-19
332 0 -0.001333333333333334 1.480297366166881e-19
333 0 -0.001555555555555557 1.727013593861361e-19
334 0 -0.001777777777777779 1.973729821555841e-19
335 0.0001833333333333332 0 0
336 0.0003666666666666669 0 0
337 0.0009333333333333332 0 0
338 0.001116666666666667 0 0
339 0.0001833333333333332 -0.002 2.22044604925032e-19
340 0.0003666666666666669 -0.002 2.22044604925032e-19
341 0.0009333333333333332 -0.002 2.22044604925032e-19
342 0.001116666666666667 -0.002 2.22044604925032e-19
343 0.0013 -0.0002222222222222221 2.467162276944798e-20
344 0.0013 -0.0004444444444444439 4.934324553889593e-20
345 0.0013 -0.0006666666666666663 7.401486830834396e-20
346 0.0013 -0.0008888888888888888 9.868649107779199e-20
347 0.0013 -0.001111111111111111 1.2335811384724e-19
348 0.0013 -0.001333333333333334 1.480297366166881e-19
349 0.0013 -0.001555555555555557 1.727013593861361e-19
350 0.0013 -0.001777777777777779 1.973729821555841e-19
351 0.0007500315997109711 -0.001139347743163516 1.264930097514849e-19
352 0.0007500315997109712 -0.0008606522568364836 9.555159517354708e-20
353 0.0006400198931165799 -0.001849789137882312 2.053678491578468e-19
354 0.0006424981338110563 -0.0001458364488968297 1.619109833948308e-20
355 0.0006463860309411006 -0.001138944640156421 1.264482563275076e-19
356 0.0006429108278050466 -0.0008600339422738313 9.548294846715533e-20
357 0.0006984250507542181 -0.001238123429366346 1.37459313861038e-19
358 0.0006978458502315426 -0.000761706334372029 8.456639104226575e-20
359 0.0005806335600832581 -0.0007623490327898877 8.463774490040544e-20
360 0.0005195667874786086 -0.0008687605518267886 9.645179675241603e-20
361 0.000579632049001075 -0.001239020381105248 1.375588955082887e-19
362 0.0006420968565229391 -0.0006527405369958321 7.246875732789639e-20
363 0.0007695763065057037 -0.0006572660438227555 7.297118951563126e-20
364 0.0008618878508594974 -0.0008763289396990649 9.729205659992552e-20
365 0.0006403568781302706 -0.001349712435746066 1.498481822788189e-19
366 0.0007695763065057042 -0.001342733956177244 1.490734154094007e-19
367 0.0008618878508594972 -0.001123671060300935 1.247525483251064e-19
368 0.0005057761109625987 -0.000656171104445235 7.284962682488206e-20
369 0.0005047671345625515 -0.001352261959197927 1.501312362426267e-19
370 0.0004400191619027992 -0.001225554916390473 1.360639286119267e-19
371 0.0008805728692150369 -0.0009999999999999996 1.110223024625159e-19
372 0.0007101471651020557 -0.00146945028056247 1.631417535022356e-19
373 0.0008558987400226747 -0.00146318219343072 1.62445856036833e-19
374 0.0007101472835644165 -0.0005335746974577957 5.923869144750486e-20
375 0.0008558987597664001 -0.0005373219695726555 5.965472222565017e-20
376 0.0001890962555472132 -0.0003216431104620507 3.570955869470224e-20
377 0.0001862770230357592 -0.00167118199799665 1.855384732514958e-19
378 0.0003366071730949065 -0.001363937980825467 1.514275350473183e-19
379 0.0004337828792194166 -0.001488566332815601 1.652640616373719e-19
380 0.0001924500897298755 -0.0009999999999999998 1.11022302462516e-19
381 0.001025 -0.001841228675972853 2.04417446966516e-19
382 0.001025 -0.0001587713240271469 1.762715795851604e-20
383 0.0009820495438110973 -0.0009250908566989801 1.027057168977422e-19
384 0.0009816797459735165 -0.001083448491637321 1.202869461411154e-19
385 0.000788666551419962 -0.00159834241581765 1.774516551275757e-19
386 0.000788666551419959 -0.0004016575841823488 4.459294979745621e-20
387 0.00097224832608677 -0.0007529884653477506 8.359851315062372e-20
388 0.0009721954978242585 -0.001248231441557434 1.385815286478118e-19
389 0.0006320927215836655 -0.0003977887731413609 4.416342548789333e-20
390 0.0006361046595211551 -0.001592897386429106 1.768471354278834e-19
391 0.0009767867515043012 -0.001585359022710048 1.760102089309937e-19
392 0.000976786754324831 -0.0004147130005761468 4.604239218510254e-20
393 0.0005920542547799344 -0.001045302829294734 1.160519268788837e-19
394 0.0009993096554579241 -0.0005848325186799365 6.492945277879896e-20
395 0.0009993008469867965 -0.001415466830185855 1.571483865465528e-19
396 0.0002746722753442856 -0.001183972118042217 1.314473105964687e-19
397 0.001123745967155587 -0.001001016589087655 1.111351665236857e-19
398 0.0003784134612507 -0.001069369943439788 1.187239133048957e-19
399 0.0003675863831401199 -0.0008809599712780876 9.780620438860525e-20
400 0.0004588939930053535 -0.001844006071731475 2.047257998384877e-19
401 0.0004591663556351761 -0.0001438821700646996 1.597412980388624e-20
402 0.0001630820147317313 -0.001463496107452828 1.624807074943427e-19
403 0.0002101015547549756 -0.0005620719774531602 6.240252508650923e-20
404 0.0003395949220019946 -0.0004357966468452833 4.838314713820731e-20
405 0.0008232568571419603 -0.0001467871731751361 1.629664993786767e-20
406 0.0008228438170262157 -0.001852483757954721 2.056670120825473e-19
407 0.0001840474070564924 -0.000772626542718099 8.577877771621682e-20
408 0.001137000322397498 -0.0008158857803804253 9.058151788426148e-20
409 0.00113692988471415 -0.00118607962518904 1.316812908923652e-19
410 0.0002817636498923228 -0.0001485981771778823 1.649771177202139e-20
411 0.0002866526198544494 -0.001834112900253256 2.036274371623194e-19
412 0.0003862343901494248 -0.00166823818638213 1.85211644508036e-19
413 0.0003485497068623617 -0.0007162781821419182 7.952285298506117e-20
414 0.001134118161037628 -0.0003150649634204581 3.497923766420764e-20
415 0.001134118160749819 -0.00168494238589446 1.87066183198688e-19
416 0.0005622673546367645 -0.0005385555674108669 5.979167909796118e-20
417 0.0005727745628724948 -0.001472617638237596 1.634934008440504e-19
418 0.0005541666666666668 -0.0002717709887763153 3.017264091646112e-20
419 0.0003666666666666667 -0.0002869142586879058 3.185388160885723e-20
420 0.0008243725633065684 -0.001238944490091716 1.375504699132302e-19
421 0.0008242848345965411 -0.0007612304550155427 8.451355782041426e-20
422 0.0007132467378663095 -0.0002836893283620627 3.149584241880095e-20
423 0.0006025528744965236 -0.0009484098479363175 1.052946449960146e-19
424 0.0005001321025125086 -0.0009918999048798356 1.1012301125211e-19
425 0.0005268726208331666 -0.001703998260086844 1.891818102269625e-19
426 0.0007132467378663128 -0.001716310671637938 1.905487625062312e-19
427 0.000480060471402852 -0.0004159974104224422 4.618499032354379e-20
428 0.0005227728433980195 -0.001118348769211083 1.241616553139354e-19
429 0.0003004503638105225 -0.001541810742819668 1.711753786292816e-19
430 0.000459831193787042 -0.0007678910279157137 8.525302995951069e-20
431 0.0003978745650862714 -0.0005678540746849792 6.304446683424791e-20
432 0.0008754629378410688 -0.001707574062235222 1.895788040146259e-19
433 0.0008754629378410633 -0.0002924259377647771 3.246580091040597e-20
434 0.0008842635764826677 -0.0006587278904877282 7.313348709822367e-20
435 0.0008842687909292005 -0.001341711782288594 1.489599313107657e-19
436 0.001135712300701889 -0.0006607634407116773 7.33594785708646e-20
437 0.00113570542469101 -0.001339417976475975 1.487052677080468e-19
438 0.000163266012946059 -0.001302255679473331 1.445794239300174e-19
439 0.0001338679314544138 -0.001854072845438997 2.05843436233866e-19
440 0.0001308386477545738 -0.000138492701972431 1.537577864723432e-20
441 0.001174347378495119 -0.001860850476147361 2.065959044003493e-19
442 0.00117434737849512 -0.0001391495238526375 1.544870052468261e-20
443 0.001144374261245204 -0.001494094339739828 1.658777936941283e-19
444 0.001144376128815484 -0.0005059723434333338 5.617421455032361e-20
445 0.0001318064060606055 -0.001173521866417996 1.302870995998351e-19
446 0.001007913399489669 -0.001709864977910718 1.89833146747667e-19
447 0.001007913399489661 -0.0002901350220892787 3.221145817736466e-20
448 0.0005111538225191316 -0.001585263560790255 1.759996105288609e-19
449 0 -0.001666666666666668 5.000000000000019e-05
450 0 -0.0007777777777777776 5.000000000000009e-05
451 0 -0.000111111111111111 5.000000000000001e-05
452 0 -0.000555555555555555 5.000000000000006e-05
453 0 -0.001222222222222223 5.000000000000014e-05
454 0 -0.001444444444444445 5.000000000000017e-05
455 0 -0.001 5.000000000000012e-05
456 0 -0.0003333333333333329 5.000000000000004e-05
457 0 -0.00188888888888889 5.000000000000022e-05
458 8.666666666666664e-05 5.551115123125799e-21 5e-05
459 0.0005042687074829932 5.551115123125799e-21 4.5e-05
460 0.0007199999999999999 5.551115123125799e-21 5.102885682970024e-05
461 0.0006869429518273786 5.551115123125799e-21 5.177575558394404e-05
462 0.00065 5.551115123125799e-21 8.0100561265696e-05
463 0.0006276699581775891 5.551115123125799e-21 4.293522947347947e-05
464 0.001213333333333333 5.551115123125799e-21 5e-05
465 0.0007957312925170068 5.551115123125799e-21 4.5e-05
466 8.666666666666664e-05 -0.002 5.000000000000023e-05
467 0.0005042687074829932 -0.002 4.500000000000021e-05
468 0.0007199999999999999 -0.002 5.102885682970043e-05
469 0.0006869429518273786 -0.002 5.177575558394424e-05
470 0.00065 -0.002 8.01005612656962e-05
471 0.0006276699581775891 -0.002 4.293522947347967e-05
472 0.001213333333333333 -0.002 5.000000000000023e-05
473 0.0007957312925170068 -0.002 4.500000000000021e-05
474 0.0013 -0.001666666666666668 5.000000000000019e-05
475 0.0013 -0.0007777777777777776 5.000000000000006e-05
476 0.0013 -0.000555555555555555 5.000000000000007e-05
477 0.0013 -0.000111111111111111 5.000000000000002e-05
478 0.0013 -0.001888888888888889 5.000000000000021e-05
479 0.0013 -0.001222222222222223 5.000000000000014e-05
480 0.0013 -0.001444444444444445 5.000000000000016e-05
481 0.0013 -0.0003333333333333329 5.000000000000004e-05
482 0.0013 -0.001 5.00000000000001e-05
483 0.00075 -0.00105 5.000000000000012e-05
484 0.0008 -0.0009999999999999998 5.00000000000001e-05
485 0.00075 -0.0009499999999999999 5.000000000000011e-05
486 0.0007 -0.001 5.000000000000012e-05
487 0.00075 -0.0003562499999999999 0.0001
488 0.00075 -0.0001202063188324498 0.0001
489 0.00075 -0.0008312499999999998 0.0001000000000000001
490 0.00075 -0.0005937499999999999 0.0001000000000000001
491 0.00075 -0.00140625 0.0001000000000000002
492 0.00075 -0.00164375 0.0001000000000000002
493 0.00075 -0.00187979368116755 0.0001000000000000002
494 0.00075 -0.00116875 0.0001000000000000001
495 0.00055 -0.0007777777777777776 0.0001000000000000001
496 0.0005499999999999999 -0.001666666666666668 0.0001000000000000002
497 0.0005499999999999997 -0.001887526251384843 0.0001000000000000002
498 0.0005499999999999999 -0.0005555555555555551 0.0001000000000000001
499 0.0005499999999999999 -0.001222222222222223 0.0001000000000000001
500 0.0005499999999999999 -0.001444444444444445 0.0001000000000000002
501 0.0005499999999999999 -0.001 0.0001000000000000001
502 0.0005499999999999999 -0.0003333333333333329 0.0001
503 0.0005499999999999999 -0.0001124737486151578 0.0001
504 0.0007060005950567895 -0.0001003227739823006 5.189910365138623e-05
$EndNodes
$Elements
1670
1 4 2 1 1 88 136 32 288
2 4 2 1 1 126 263 270 118
3 4 2 1 1 41 288 32 136
4 4 2 1 1 130 131 212 138
5 4 2 1 1 124 207 283 125
6 4 2 1 1 207 124 283 220
7 4 2 1 1 115 116 266 122
8 4 2 1 1 119 120 265 127
9 4 2 1 1 12 129 73 289
10 4 2 1 1 35 158 288 44
11 4 2 1 1 76 25 231 292
12 4 2 1 1 21 289 129 12
13 4 2 1 1 126 127 119 243
14 4 2 1 1 122 123 116 215
15 4 2 1 1 157 158 232 290
16 4 2 1 1 95 193 96 188
17 4 2 1 1 187 94 95 225
18 4 2 1 1 184 217 93 94
19 4 2 1 1 153 154 210 291
20 4 2 1 1 154 155 206 297
21 4 2 1 1 155 156 205 294
22 4 2 1 1 195 92 186 93
23 4 2 1 1 152 153 212 293
24 4 2 1 1 1 61 177 183
25 4 2 1 1 156 157 208 295
26 4 2 1 1 27 114 274 254
27 4 2 1 1 7 107 248 273
28 4 2 1 1 97 201 98 185
29 4 2 1 1 92 227 191 91
30 4 2 1 1 228 106 247 105
31 4 2 1 1 288 41 42 136
32 4 2 1 1 110 111 252 260
33 4 2 1 1 251 105 104 194
34 4 2 1 1 64 65 163 187
35 4 2 1 1 151 152 216 298
36 4 2 1 1 183 18 91 241
37 4 2 1 1 192 101 102 246
38 4 2 1 1 97 96 202 189
39 4 2 1 1 99 100 200 253
40 4 2 1 1 98 239 38 190
41 4 2 1 1 106 254 28 240
42 4 2 1 1 244 104 250 103
43 4 2 1 1 100 101 234 249
44 4 2 1 1 23 289 24 143
45 4 2 1 1 242 103 252 102
46 4 2 1 1 67 68 167 185
47 4 2 1 1 110 109 262 246
48 4 2 1 1 99 238 8 248
49 4 2 1 1 66 67 162 189
50 4 2 1 1 65 66 176 188
51 4 2 1 1 68 5 178 190
52 4 2 1 1 111 112 250 261
53 4 2 1 1 240 181 28 86
54 4 2 1 1 63 64 173 184
55 4 2 1 1 239 90 38 182
56 4 2 1 1 238 71 8 180
57 4 2 1 1 109 108 258 249
58 4 2 1 1 114 113 271 247
59 4 2 1 1 62 63 172 186
60 4 2 1 1 112 113 251 259
61 4 2 1 1 107 108 253 272
62 4 2 1 1 267 121 19 115
63 4 2 1 1 120 39 268 128
64 4 2 1 1 61 62 171 191
65 4 2 1 1 75 18 179 241
66 4 2 1 1 150 44 43 288
67 4 2 1 1 150 44 288 158
68 4 2 1 1 21 22 129 289
69 4 2 1 1 190 239 38 182
70 4 2 1 1 248 238 8 180
71 4 2 1 1 288 88 35 287
72 4 2 1 1 35 197 36 88
73 4 2 1 1 89 83 37 169
74 4 2 1 1 18 183 179 241
75 4 2 1 1 88 197 36 89
76 4 2 1 1 127 128 120 245
77 4 2 1 1 254 181 28 240
78 4 2 1 1 259 119 265 233
79 4 2 1 1 32 288 287 88
80 4 2 1 1 121 122 115 237
81 4 2 1 1 288 44 287 35
82 4 2 1 1 135 136 232 142
83 4 2 1 1 87 128 268 30
84 4 2 1 1 129 130 216 137
85 4 2 1 1 206 204 80 205
86 4 2 1 1 79 210 209 206
87 4 2 1 1 80 209 175 204
88 4 2 1 1 65 225 187 95
89 4 2 1 1 209 80 175 79
90 4 2 1 1 180 248 238 273
91 4 2 1 1 212 211 78 210
92 4 2 1 1 73 74 16 231
93 4 2 1 1 194 104 251 112
94 4 2 1 1 233 270 119 243
95 4 2 1 1 179 183 177 241
96 4 2 1 1 201 98 185 68
97 4 2 1 1 235 244 250 103
98 4 2 1 1 225 65 187 163
99 4 2 1 1 94 187 64 163
100 4 2 1 1 187 94 225 163
101 4 2 1 1 73 12 289 286
102 4 2 1 1 274 181 254 240
103 4 2 1 1 233 270 259 119
104 4 2 1 1 255 263 275 221
105 4 2 1 1 113 228 105 194
106 4 2 1 1 155 206 205 207
107 4 2 1 1 97 202 67 189
108 4 2 1 1 154 210 206 220
109 4 2 1 1 113 271 247 105
110 4 2 1 1 113 271 228 194
111 4 2 1 1 174 202 219 203
112 4 2 1 1 73 289 15 286
113 4 2 1 1 74 75 50 198
114 4 2 1 1 276 221 192 264
115 4 2 1 1 94 173 217 225
116 4 2 1 1 77 216 218 212
117 4 2 1 1 49 1 177 179
118 4 2 1 1 225 95 65 176
119 4 2 1 1 203 208 81 205
120 4 2 1 1 230 90 60 89
121 4 2 1 1 164 225 193 204
122 4 2 1 1 95 225 193 176
123 4 2 1 1 228 247 271 105
124 4 2 1 1 233 270 243 259
125 4 2 1 1 7 70 273 180
126 4 2 1 1 85 27 274 181
127 4 2 1 1 218 293 77 212
128 4 2 1 1 153 212 210 213
129 4 2 1 1 195 173 217 93
130 4 2 1 1 258 116 269 215
131 4 2 1 1 225 175 209 204
132 4 2 1 1 211 161 165 195
133 4 2 1 1 165 209 217 225
134 4 2 1 1 127 243 233 119
135 4 2 1 1 192 101 246 109
136 4 2 1 1 288 41 32 287
137 4 2 1 1 185 167 201 68
138 4 2 1 1 242 252 103 260
139 4 2 1 1 182 190 239 178
140 4 2 1 1 45 46 255 221
141 4 2 1 1 71 229 72 69
142 4 2 1 1 218 227 166 195
143 4 2 1 1 202 162 67 189
144 4 2 1 1 207 124 220 221
145 4 2 1 1 217 211 165 195
146 4 2 1 1 235 275 222 221
147 4 2 1 1 246 102 262 110
148 4 2 1 1 76 218 216 198
149 4 2 1 1 225 94 173 163
150 4 2 1 1 152 216 212 214
151 4 2 1 1 94 64 173 163
152 4 2 1 1 221 192 242 276
153 4 2 1 1 76 218 198 166
154 4 2 1 1 100 200 253 108
155 4 2 1 1 231 198 76 216
156 4 2 1 1 262 234 192 109
157 4 2 1 1 229 71 257 69
158 4 2 1 1 211 218 161 195
159 4 2 1 1 65 225 176 163
160 4 2 1 1 176 96 193 188
161 4 2 1 1 163 225 164 204
162 4 2 1 1 193 225 164 163
163 4 2 1 1 172 166 227 195
164 4 2 1 1 193 95 176 188
165 4 2 1 1 271 113 228 105
166 4 2 1 1 82 203 174 219
167 4 2 1 1 194 251 259 112
168 4 2 1 1 205 208 156 223
169 4 2 1 1 82 203 81 174
170 4 2 1 1 75 160 50 198
171 4 2 1 1 169 26 83 37
172 4 2 1 1 165 209 225 163
173 4 2 1 1 235 250 261 103
174 4 2 1 1 173 184 217 93
175 4 2 1 1 209 211 165 217
176 4 2 1 1 262 234 109 258
177 4 2 1 1 217 184 173 94
178 4 2 1 1 225 217 165 163
179 4 2 1 1 196 72 229 267
180 4 2 1 1 25 231 292 16
181 4 2 1 1 221 236 192 264
182 4 2 1 1 202 201 174 219
183 4 2 1 1 82 219 232 208
184 4 2 1 1 172 165 161 195
185 4 2 1 1 62 171 191 92
186 4 2 1 1 151 73 231 129
187 4 2 1 1 218 172 161 195
188 4 2 1 1 106 247 271 228
189 4 2 1 1 251 113 105 194
190 4 2 1 1 227 191 171 92
191 4 2 1 1 166 171 172 227
192 4 2 1 1 246 262 192 109
193 4 2 1 1 73 16 15 231
194 4 2 1 1 249 258 109 234
195 4 2 1 1 201 167 202 174
196 4 2 1 1 21 289 12 286
197 4 2 1 1 198 227 166 218
198 4 2 1 1 223 263 207 222
199 4 2 1 1 223 263 222 126
200 4 2 1 1 50 168 74 198
201 4 2 1 1 275 263 222 221
202 4 2 1 1 200 100 234 108
203 4 2 1 1 17 231 16 74
204 4 2 1 1 234 101 192 109
205 4 2 1 1 200 253 108 272
206 4 2 1 1 262 192 102 246
207 4 2 1 1 111 103 252 260
208 4 2 1 1 67 167 202 97
209 4 2 1 1 174 201 167 219
210 4 2 1 1 244 250 261 235
211 4 2 1 1 40 128 30 268
212 4 2 1 1 253 200 99 272
213 4 2 1 1 230 197 170 219
214 4 2 1 1 227 62 172 92
215 4 2 1 1 230 170 201 219
216 4 2 1 1 164 193 203 204
217 4 2 1 1 195 172 173 93
218 4 2 1 1 56 164 174 203
219 4 2 1 1 70 180 238 273
220 4 2 1 1 271 113 259 194
221 4 2 1 1 166 172 218 195
222 4 2 1 1 86 87 199 84
223 4 2 1 1 176 193 164 163
224 4 2 1 1 172 227 92 195
225 4 2 1 1 60 169 230 89
226 4 2 1 1 67 167 97 185
227 4 2 1 1 201 97 167 185
228 4 2 1 1 259 112 261 244
229 4 2 1 1 195 186 172 93
230 4 2 1 1 129 73 231 196
231 4 2 1 1 92 186 172 195
232 4 2 1 1 103 250 261 111
233 4 2 1 1 164 175 163 204
234 4 2 1 1 166 172 161 218
235 4 2 1 1 229 238 200 257
236 4 2 1 1 97 167 202 201
237 4 2 1 1 179 177 49 241
238 4 2 1 1 108 100 234 249
239 4 2 1 1 276 242 275 260
240 4 2 1 1 209 165 175 163
241 4 2 1 1 162 164 193 203
242 4 2 1 1 63 173 172 93
243 4 2 1 1 67 167 162 202
244 4 2 1 1 5 59 178 182
245 4 2 1 1 186 63 172 93
246 4 2 1 1 192 236 215 269
247 4 2 1 1 225 173 217 163
248 4 2 1 1 167 170 174 219
249 4 2 1 1 13 14 286 12
250 4 2 1 1 155 206 207 133
251 4 2 1 1 228 271 259 194
252 4 2 1 1 12 14 286 15
253 4 2 1 1 51 52 76 166
254 4 2 1 1 171 62 172 227
255 4 2 1 1 207 205 155 133
256 4 2 1 1 202 162 193 203
257 4 2 1 1 197 158 232 226
258 4 2 1 1 256 85 86 84
259 4 2 1 1 202 193 162 96
260 4 2 1 1 199 256 86 84
261 4 2 1 1 173 165 217 163
262 4 2 1 1 194 244 104 112
263 4 2 1 1 71 70 257 69
264 4 2 1 1 159 90 60 230
265 4 2 1 1 162 167 174 202
266 4 2 1 1 181 274 85 240
267 4 2 1 1 159 170 201 230
268 4 2 1 1 127 243 224 233
269 4 2 1 1 96 193 162 176
270 4 2 1 1 201 239 98 68
271 4 2 1 1 186 172 62 92
272 4 2 1 1 163 175 225 204
273 4 2 1 1 265 259 233 228
274 4 2 1 1 225 193 176 163
275 4 2 1 1 225 209 175 163
276 4 2 1 1 180 7 248 273
277 4 2 1 1 181 27 274 254
278 4 2 1 1 113 251 259 194
279 4 2 1 1 258 108 234 249
280 4 2 1 1 183 177 1 179
281 4 2 1 1 242 262 110 260
282 4 2 1 1 119 265 233 127
283 4 2 1 1 252 242 110 260
284 4 2 1 1 234 192 215 269
285 4 2 1 1 266 258 272 200
286 4 2 1 1 174 164 162 203
287 4 2 1 1 257 200 229 266
288 4 2 1 1 257 229 69 267
289 4 2 1 1 236 213 215 123
290 4 2 1 1 69 229 72 267
291 4 2 1 1 160 168 50 198
292 4 2 1 1 53 77 52 161
293 4 2 1 1 78 77 53 161
294 4 2 1 1 66 96 176 188
295 4 2 1 1 243 244 194 270
296 4 2 1 1 262 276 192 264
297 4 2 1 1 167 170 201 159
298 4 2 1 1 259 265 271 228
299 4 2 1 1 262 234 258 192
300 4 2 1 1 257 238 200 272
301 4 2 1 1 160 166 168 198
302 4 2 1 1 262 102 242 110
303 4 2 1 1 54 165 175 209
304 4 2 1 1 242 103 235 260
305 4 2 1 1 241 160 75 198
306 4 2 1 1 162 202 96 189
307 4 2 1 1 201 170 167 219
308 4 2 1 1 197 83 170 219
309 4 2 1 1 261 235 111 260
310 4 2 1 1 24 289 286 15
311 4 2 1 1 80 155 206 205
312 4 2 1 1 210 79 154 206
313 4 2 1 1 180 238 71 70
314 4 2 1 1 244 261 250 112
315 4 2 1 1 171 191 227 91
316 4 2 1 1 182 239 90 59
317 4 2 1 1 169 26 4 83
318 4 2 1 1 83 4 169 58
319 4 2 1 1 232 208 224 135
320 4 2 1 1 57 81 56 174
321 4 2 1 1 82 81 57 174
322 4 2 1 1 242 275 221 276
323 4 2 1 1 108 234 200 258
324 4 2 1 1 193 164 162 176
325 4 2 1 1 241 227 160 198
326 4 2 1 1 257 70 238 273
327 4 2 1 1 242 235 275 260
328 4 2 1 1 239 201 167 68
329 4 2 1 1 229 71 238 257
330 4 2 1 1 258 200 108 272
331 4 2 1 1 213 210 153 131
332 4 2 1 1 151 144 143 137
333 4 2 1 1 152 144 151 137
334 4 2 1 1 214 237 215 122
335 4 2 1 1 235 103 111 260
336 4 2 1 1 208 232 157 135
337 4 2 1 1 276 192 242 262
338 4 2 1 1 212 78 153 210
339 4 2 1 1 265 127 120 245
340 4 2 1 1 220 154 210 132
341 4 2 1 1 256 85 274 240
342 4 2 1 1 242 275 235 221
343 4 2 1 1 259 244 194 112
344 4 2 1 1 239 167 178 68
345 4 2 1 1 220 206 154 132
346 4 2 1 1 32 34 287 33
347 4 2 1 1 101 234 249 109
348 4 2 1 1 265 245 233 127
349 4 2 1 1 239 182 178 59
350 4 2 1 1 34 32 287 35
351 4 2 1 1 213 153 212 131
352 4 2 1 1 83 82 170 219
353 4 2 1 1 85 181 240 86
354 4 2 1 1 237 122 115 266
355 4 2 1 1 266 257 200 272
356 4 2 1 1 96 162 66 176
357 4 2 1 1 237 196 229 121
358 4 2 1 1 82 57 58 170
359 4 2 1 1 83 82 58 170
360 4 2 1 1 214 152 216 130
361 4 2 1 1 168 74 198 231
362 4 2 1 1 192 102 242 262
363 4 2 1 1 266 229 257 267
364 4 2 1 1 80 79 55 175
365 4 2 1 1 79 54 55 175
366 4 2 1 1 223 208 156 134
367 4 2 1 1 184 64 173 94
368 4 2 1 1 90 60 59 159
369 4 2 1 1 184 173 63 93
370 4 2 1 1 169 159 60 230
371 4 2 1 1 66 162 96 189
372 4 2 1 1 170 83 197 230
373 4 2 1 1 256 199 265 268
374 4 2 1 1 166 168 198 51
375 4 2 1 1 244 243 222 270
376 4 2 1 1 116 269 215 123
377 4 2 1 1 262 242 276 260
378 4 2 1 1 227 166 160 198
379 4 2 1 1 245 199 226 128
380 4 2 1 1 259 233 228 194
381 4 2 1 1 267 20 19 121
382 4 2 1 1 39 40 268 128
383 4 2 1 1 119 270 126 243
384 4 2 1 1 171 62 227 92
385 4 2 1 1 75 179 49 241
386 4 2 1 1 176 95 65 188
387 4 2 1 1 240 256 199 228
388 4 2 1 1 201 239 159 230
389 4 2 1 1 238 99 200 272
390 4 2 1 1 84 199 256 268
391 4 2 1 1 156 205 223 134
392 4 2 1 1 123 215 236 269
393 4 2 1 1 234 215 200 258
394 4 2 1 1 158 232 226 136
395 4 2 1 1 288 44 43 287
396 4 2 1 1 160 50 49 75
397 4 2 1 1 167 239 178 159
398 4 2 1 1 151 152 137 216
399 4 2 1 1 261 235 103 111
400 4 2 1 1 156 81 208 205
401 4 2 1 1 130 216 137 152
402 4 2 1 1 141 148 149 156
403 4 2 1 1 177 160 49 241
404 4 2 1 1 214 212 152 130
405 4 2 1 1 192 234 258 269
406 4 2 1 1 240 199 256 86
407 4 2 1 1 237 229 200 266
408 4 2 1 1 252 242 102 110
409 4 2 1 1 261 259 244 270
410 4 2 1 1 76 25 168 231
411 4 2 1 1 256 85 240 86
412 4 2 1 1 222 223 126 243
413 4 2 1 1 41 40 285 31
414 4 2 1 1 21 20 11 279
415 4 2 1 1 171 166 160 227
416 4 2 1 1 240 106 271 228
417 4 2 1 1 26 44 296 36
418 4 2 1 1 70 238 71 257
419 4 2 1 1 25 24 16 292
420 4 2 1 1 91 177 183 241
421 4 2 1 1 261 275 235 260
422 4 2 1 1 261 275 222 235
423 4 2 1 1 250 104 244 112
424 4 2 1 1 155 140 156 148
425 4 2 1 1 155 140 148 147
426 4 2 1 1 182 5 190 178
427 4 2 1 1 3 51 25 168
428 4 2 1 1 51 76 25 168
429 4 2 1 1 87 199 84 268
430 4 2 1 1 174 162 202 203
431 4 2 1 1 169 170 159 230
432 4 2 1 1 99 238 248 273
433 4 2 1 1 275 222 263 261
434 4 2 1 1 258 262 192 269
435 4 2 1 1 106 274 254 240
436 4 2 1 1 121 229 237 115
437 4 2 1 1 121 196 229 267
438 4 2 1 1 222 270 126 263
439 4 2 1 1 160 171 227 241
440 4 2 1 1 216 77 152 212
441 4 2 1 1 231 17 16 25
442 4 2 1 1 239 167 201 159
443 4 2 1 1 245 199 265 228
444 4 2 1 1 159 239 90 230
445 4 2 1 1 60 37 6 169
446 4 2 1 1 199 128 120 268
447 4 2 1 1 245 199 128 120
448 4 2 1 1 265 199 256 228
449 4 2 1 1 194 244 259 270
450 4 2 1 1 59 239 90 159
451 4 2 1 1 265 233 245 228
452 4 2 1 1 258 234 215 269
453 4 2 1 1 91 227 171 241
454 4 2 1 1 10 9 69 267
455 4 2 1 1 84 29 30 268
456 4 2 1 1 120 265 199 268
457 4 2 1 1 243 233 259 194
458 4 2 1 1 270 222 126 243
459 4 2 1 1 106 271 274 240
460 4 2 1 1 171 177 91 241
461 4 2 1 1 178 98 239 68
462 4 2 1 1 231 17 168 74
463 4 2 1 1 59 178 239 159
464 4 2 1 1 171 177 61 91
465 4 2 1 1 224 233 245 127
466 4 2 1 1 190 98 239 178
467 4 2 1 1 274 114 271 106
468 4 2 1 1 115 229 237 266
469 4 2 1 1 266 115 229 267
470 4 2 1 1 199 245 265 120
471 4 2 1 1 194 259 243 270
472 4 2 1 1 75 49 160 241
473 4 2 1 1 273 107 99 272
474 4 2 1 1 51 166 76 198
475 4 2 1 1 115 121 229 267
476 4 2 1 1 271 256 240 228
477 4 2 1 1 99 238 273 272
478 4 2 1 1 231 17 25 168
479 4 2 1 1 197 158 290 232
480 4 2 1 1 256 271 265 228
481 4 2 1 1 222 263 261 270
482 4 2 1 1 157 82 232 208
483 4 2 1 1 171 160 177 241
484 4 2 1 1 276 255 221 264
485 4 2 1 1 244 261 222 235
486 4 2 1 1 114 274 254 106
487 4 2 1 1 183 61 177 91
488 4 2 1 1 247 271 114 106
489 4 2 1 1 271 256 274 240
490 4 2 1 1 107 253 99 272
491 4 2 1 1 169 26 37 6
492 4 2 1 1 107 99 248 273
493 4 2 1 1 17 2 168 50
494 4 2 1 1 222 261 244 270
495 4 2 1 1 15 12 73 286
496 4 2 1 1 169 60 37 89
497 4 2 1 1 236 264 117 269
498 4 2 1 1 174 81 56 203
499 4 2 1 1 267 20 10 9
500 4 2 1 1 268 40 29 30
501 4 2 1 1 137 151 216 129
502 4 2 1 1 139 153 210 131
503 4 2 1 1 76 168 198 231
504 4 2 1 1 191 171 61 91
505 4 2 1 1 238 257 273 272
506 4 2 1 1 32 35 88 287
507 4 2 1 1 206 47 154 132
508 4 2 1 1 288 41 287 42
509 4 2 1 1 130 212 152 138
510 4 2 1 1 26 169 4 6
511 4 2 1 1 206 155 48 133
512 4 2 1 1 178 190 98 68
513 4 2 1 1 69 72 10 267
514 4 2 1 1 84 30 87 268
515 4 2 1 1 168 25 2 17
516 4 2 1 1 28 27 181 254
517 4 2 1 1 21 22 289 286
518 4 2 1 1 1 18 183 179
519 4 2 1 1 50 168 17 74
520 4 2 1 1 20 267 19 9
521 4 2 1 1 40 39 268 29
522 4 2 1 1 248 8 7 180
523 4 2 1 1 190 38 5 182
524 4 2 1 1 117 123 236 269
525 4 2 1 1 54 175 79 209
526 4 2 1 1 168 3 2 25
527 4 2 1 1 221 275 255 276
528 4 2 1 1 82 157 295 208
529 4 2 1 1 291 153 78 210
530 4 2 1 1 79 297 154 206
531 4 2 1 1 293 152 77 212
532 4 2 1 1 231 76 151 216
533 4 2 1 1 155 80 294 205
534 4 2 1 1 290 83 158 197
535 4 2 1 1 23 289 286 24
536 4 2 1 1 81 156 294 205
537 4 2 1 1 297 80 155 206
538 4 2 1 1 291 79 154 210
539 4 2 1 1 76 168 51 198
540 4 2 1 1 293 78 153 212
541 4 2 1 1 298 151 76 216
542 4 2 1 1 137 289 143 129
543 4 2 1 1 156 81 295 208
544 4 2 1 1 13 21 12 286
545 4 2 1 1 15 24 14 286
546 4 2 1 1 126 134 282 223
547 4 2 1 1 157 82 290 232
548 4 2 1 1 130 122 284 214
549 4 2 1 1 32 41 33 287
550 4 2 1 1 298 77 152 216
551 4 2 1 1 34 44 35 287
552 4 2 1 1 136 278 226 128
553 4 2 1 1 129 121 196 284
554 4 2 1 1 283 125 207 133
555 4 2 1 1 282 127 224 135
556 4 2 1 1 132 283 124 220
557 4 2 1 1 127 135 278 224
558 4 2 1 1 131 277 123 213
559 4 2 1 1 125 133 281 207
560 4 2 1 1 129 121 279 196
561 4 2 1 1 281 134 126 223
562 4 2 1 1 130 280 122 214
563 4 2 1 1 292 76 151 231
564 4 2 1 1 128 136 285 226
565 4 2 1 1 296 158 83 197
566 4 2 1 1 24 23 14 286
567 4 2 1 1 22 21 13 286
568 4 2 1 1 34 43 44 287
569 4 2 1 1 42 33 41 287
570 4 2 1 1 143 151 137 129
571 4 2 1 1 132 133 206 48
572 4 2 1 1 125 126 118 263
573 4 2 1 1 42 142 288 136
574 4 2 1 1 46 118 263 125
575 4 2 1 1 46 124 221 45
576 4 2 1 1 48 132 47 206
577 4 2 1 1 22 137 129 289
578 4 2 1 1 131 132 210 139
579 4 2 1 1 123 124 117 236
580 4 2 1 1 116 117 269 123
581 4 2 1 1 118 119 270 126
582 4 2 1 1 196 121 214 284
583 4 2 1 1 196 214 121 237
584 4 2 1 1 122 214 121 284
585 4 2 1 1 122 121 214 237
586 4 2 1 1 123 124 213 277
587 4 2 1 1 123 213 124 236
588 4 2 1 1 220 124 213 236
589 4 2 1 1 83 89 230 169
590 4 2 1 1 83 230 89 197
591 4 2 1 1 138 137 152 130
592 4 2 1 1 138 152 137 144
593 4 2 1 1 220 213 132 210
594 4 2 1 1 131 213 132 277
595 4 2 1 1 131 132 213 210
596 4 2 1 1 207 133 220 283
597 4 2 1 1 207 220 133 206
598 4 2 1 1 132 220 133 283
599 4 2 1 1 132 133 220 206
600 4 2 1 1 207 133 223 205
601 4 2 1 1 207 223 133 281
602 4 2 1 1 134 223 133 205
603 4 2 1 1 134 133 223 281
604 4 2 1 1 127 128 224 278
605 4 2 1 1 127 224 128 245
606 4 2 1 1 226 224 128 278
607 4 2 1 1 226 128 224 245
608 4 2 1 1 213 214 131 212
609 4 2 1 1 130 214 131 280
610 4 2 1 1 130 131 214 212
611 4 2 1 1 136 135 226 278
612 4 2 1 1 136 226 135 232
613 4 2 1 1 224 226 135 278
614 4 2 1 1 224 135 226 232
615 4 2 1 1 134 135 223 208
616 4 2 1 1 134 223 135 282
617 4 2 1 1 224 223 135 208
618 4 2 1 1 224 135 223 282
619 4 2 1 1 136 88 158 288
620 4 2 1 1 35 88 158 197
621 4 2 1 1 35 158 88 288
622 4 2 1 1 214 130 196 284
623 4 2 1 1 214 196 130 216
624 4 2 1 1 129 196 130 284
625 4 2 1 1 129 130 196 216
626 4 2 1 1 226 158 88 197
627 4 2 1 1 226 88 158 136
628 4 2 1 1 127 126 224 243
629 4 2 1 1 127 224 126 282
630 4 2 1 1 223 224 126 243
631 4 2 1 1 223 126 224 282
632 4 2 1 1 213 123 214 215
633 4 2 1 1 122 214 123 215
634 4 2 1 1 122 123 214 280
635 4 2 1 1 15 24 143 151
636 4 2 1 1 143 24 15 289
637 4 2 1 1 143 129 73 151
638 4 2 1 1 73 129 143 289
639 4 2 1 1 15 143 73 151
640 4 2 1 1 73 143 15 289
641 4 2 1 1 281 126 207 223
642 4 2 1 1 281 207 126 125
643 4 2 1 1 263 207 126 223
644 4 2 1 1 263 126 207 125
645 4 2 1 1 32 226 136 88
646 4 2 1 1 87 226 31 88
647 4 2 1 1 31 226 32 88
648 4 2 1 1 15 231 151 73
649 4 2 1 1 129 196 12 73
650 4 2 1 1 72 11 196 73
651 4 2 1 1 196 11 12 73
652 4 2 1 1 232 82 197 219
653 4 2 1 1 232 197 82 290
654 4 2 1 1 83 197 82 219
655 4 2 1 1 83 82 197 290
656 4 2 1 1 128 87 199 226
657 4 2 1 1 128 199 87 268
658 4 2 1 1 293 78 218 77
659 4 2 1 1 161 218 78 77
660 4 2 1 1 161 78 218 211
661 4 2 1 1 209 80 206 204
662 4 2 1 1 76 77 216 218
663 4 2 1 1 76 216 77 298
664 4 2 1 1 79 210 211 209
665 4 2 1 1 83 37 197 89
666 4 2 1 1 36 197 37 89
667 4 2 1 1 81 205 204 203
668 4 2 1 1 147 154 48 146
669 4 2 1 1 47 48 154 146
670 4 2 1 1 47 154 48 206
671 4 2 1 1 11 196 10 72
672 4 2 1 1 31 30 226 87
673 4 2 1 1 128 226 30 87
674 4 2 1 1 146 153 139 145
675 4 2 1 1 153 154 139 210
676 4 2 1 1 153 139 154 146
677 4 2 1 1 132 139 154 210
678 4 2 1 1 196 267 10 72
679 4 2 1 1 145 152 138 144
680 4 2 1 1 82 208 203 219
681 4 2 1 1 221 207 263 222
682 4 2 1 1 125 263 221 207
683 4 2 1 1 209 54 211 79
684 4 2 1 1 209 211 54 165
685 4 2 1 1 78 211 54 79
686 4 2 1 1 203 56 204 81
687 4 2 1 1 203 204 56 164
688 4 2 1 1 80 204 56 81
689 4 2 1 1 236 124 221 220
690 4 2 1 1 150 157 142 149
691 4 2 1 1 135 157 142 232
692 4 2 1 1 122 266 215 116
693 4 2 1 1 122 215 266 237
694 4 2 1 1 258 215 266 116
695 4 2 1 1 195 173 165 217
696 4 2 1 1 195 165 173 172
697 4 2 1 1 264 221 45 255
698 4 2 1 1 156 141 140 134
699 4 2 1 1 156 140 141 148
700 4 2 1 1 129 231 216 196
701 4 2 1 1 129 216 231 151
702 4 2 1 1 24 16 231 15
703 4 2 1 1 231 16 24 292
704 4 2 1 1 231 151 24 15
705 4 2 1 1 24 151 231 292
706 4 2 1 1 158 44 197 296
707 4 2 1 1 158 197 44 35
708 4 2 1 1 36 197 44 296
709 4 2 1 1 36 44 197 35
710 4 2 1 1 136 41 226 32
711 4 2 1 1 136 226 41 285
712 4 2 1 1 31 226 41 32
713 4 2 1 1 31 41 226 285
714 4 2 1 1 21 129 196 12
715 4 2 1 1 196 129 21 279
716 4 2 1 1 196 11 21 12
717 4 2 1 1 21 11 196 279
718 4 2 1 1 264 192 269 236
719 4 2 1 1 264 269 192 262
720 4 2 1 1 152 153 138 212
721 4 2 1 1 152 138 153 145
722 4 2 1 1 131 138 153 212
723 4 2 1 1 140 155 48 147
724 4 2 1 1 140 48 155 133
725 4 2 1 1 83 169 170 58
726 4 2 1 1 83 170 169 230
727 4 2 1 1 82 170 174 57
728 4 2 1 1 82 174 170 219
729 4 2 1 1 161 78 165 53
730 4 2 1 1 161 165 78 211
731 4 2 1 1 54 165 78 53
732 4 2 1 1 54 78 165 211
733 4 2 1 1 77 161 166 52
734 4 2 1 1 166 161 77 218
735 4 2 1 1 166 76 77 52
736 4 2 1 1 77 76 166 218
737 4 2 1 1 263 46 221 255
738 4 2 1 1 263 221 46 125
739 4 2 1 1 31 40 226 30
740 4 2 1 1 31 226 40 285
741 4 2 1 1 128 226 40 30
742 4 2 1 1 128 40 226 285
743 4 2 1 1 20 11 196 10
744 4 2 1 1 196 11 20 279
745 4 2 1 1 20 121 196 279
746 4 2 1 1 83 26 197 37
747 4 2 1 1 83 197 26 296
748 4 2 1 1 36 197 26 37
749 4 2 1 1 36 26 197 296
750 4 2 1 1 48 155 154 147
751 4 2 1 1 48 154 155 206
752 4 2 1 1 80 56 164 55
753 4 2 1 1 164 56 80 204
754 4 2 1 1 164 175 80 55
755 4 2 1 1 80 175 164 204
756 4 2 1 1 47 154 139 146
757 4 2 1 1 47 139 154 132
758 4 2 1 1 139 153 138 145
759 4 2 1 1 139 138 153 131
760 4 2 1 1 134 140 205 133
761 4 2 1 1 134 205 140 156
762 4 2 1 1 155 205 140 133
763 4 2 1 1 155 140 205 156
764 4 2 1 1 134 141 208 156
765 4 2 1 1 134 208 141 135
766 4 2 1 1 208 141 157 156
767 4 2 1 1 208 157 141 135
768 4 2 1 1 157 141 149 156
769 4 2 1 1 236 117 221 124
770 4 2 1 1 236 221 117 264
771 4 2 1 1 45 221 117 124
772 4 2 1 1 45 117 221 264
773 4 2 1 1 125 124 221 46
774 4 2 1 1 125 221 124 207
775 4 2 1 1 141 142 157 149
776 4 2 1 1 141 157 142 135
777 4 2 1 1 79 80 206 209
778 4 2 1 1 79 206 80 297
779 4 2 1 1 78 79 210 211
780 4 2 1 1 78 210 79 291
781 4 2 1 1 80 81 205 204
782 4 2 1 1 80 205 81 294
783 4 2 1 1 81 82 208 203
784 4 2 1 1 81 208 82 295
785 4 2 1 1 20 267 196 121
786 4 2 1 1 20 196 267 10
787 4 2 1 1 136 142 158 232
788 4 2 1 1 157 142 158 150
789 4 2 1 1 157 158 142 232
790 4 2 1 1 288 158 142 150
791 4 2 1 1 288 142 158 136
792 4 2 1 1 124 213 132 220
793 4 2 1 1 124 132 213 277
794 4 2 1 1 214 131 123 213
795 4 2 1 1 214 123 131 280
796 4 2 1 1 78 218 212 293
797 4 2 1 1 78 212 218 211
798 4 2 1 1 215 266 200 258
799 4 2 1 1 215 200 266 237
800 4 2 2 2 351 494 48 140
801 4 2 2 2 311 51 503 3
802 4 2 2 2 139 47 358 489
803 4 2 2 2 488 316 115 405
804 4 2 2 2 138 139 374 490
805 4 2 2 2 54 53 495 430
806 4 2 2 2 51 311 503 401
807 4 2 2 2 149 365 417 500
808 4 2 2 2 149 148 365 500
809 4 2 2 2 144 143 389 502
810 4 2 2 2 149 150 496 390
811 4 2 2 2 334 377 333 449
812 4 2 2 2 358 47 356 352
813 4 2 2 2 330 331 380 455
814 4 2 2 2 347 482 346 397
815 4 2 2 2 323 322 493 468
816 4 2 2 2 61 1 177 451
817 4 2 2 2 55 54 501 424
818 4 2 2 2 114 27 274 478
819 4 2 2 2 7 107 273 477
820 4 2 2 2 52 51 502 427
821 4 2 2 2 344 414 481 343
822 4 2 2 2 415 349 474 350
823 4 2 2 2 332 454 333 402
824 4 2 2 2 149 365 372 417
825 4 2 2 2 329 403 328 452
826 4 2 2 2 110 111 260 482
827 4 2 2 2 343 477 303 442
828 4 2 2 2 441 478 306 350
829 4 2 2 2 347 409 348 479
830 4 2 2 2 407 329 330 450
831 4 2 2 2 345 475 408 346
832 4 2 2 2 64 65 455 163
833 4 2 2 2 440 299 327 451
834 4 2 2 2 439 334 300 457
835 4 2 2 2 358 47 352 489
836 4 2 2 2 345 476 344 444
837 4 2 2 2 443 348 480 349
838 4 2 2 2 305 304 471 353
839 4 2 2 2 354 302 301 463
840 4 2 2 2 331 453 332 445
841 4 2 2 2 376 327 328 456
842 4 2 2 2 67 68 449 167
843 4 2 2 2 109 110 262 475
844 4 2 2 2 66 67 454 162
845 4 2 2 2 312 463 313 503
846 4 2 2 2 66 65 176 453
847 4 2 2 2 5 68 178 457
848 4 2 2 2 111 112 261 479
849 4 2 2 2 64 63 173 450
850 4 2 2 2 108 109 258 476
851 4 2 2 2 113 114 271 474
852 4 2 2 2 62 63 452 172
853 4 2 2 2 112 113 259 480
854 4 2 2 2 107 108 272 481
855 4 2 2 2 463 313 289 286
856 4 2 2 2 355 351 140 357
857 4 2 2 2 61 62 456 171
858 4 2 2 2 14 13 286 462
859 4 2 2 2 116 392 394 375
860 4 2 2 2 119 395 391 373
861 4 2 2 2 289 286 22 504
862 4 2 2 2 468 353 305 469
863 4 2 2 2 288 321 287 43
864 4 2 2 2 353 471 305 469
865 4 2 2 2 353 471 469 287
866 4 2 2 2 288 469 287 353
867 4 2 2 2 33 34 287 470
868 4 2 2 2 468 305 353 493
869 4 2 2 2 146 358 47 356
870 4 2 2 2 305 323 493 468
871 4 2 2 2 119 270 395 373
872 4 2 2 2 342 472 306 441
873 4 2 2 2 442 464 303 338
874 4 2 2 2 116 394 269 375
875 4 2 2 2 440 335 299 458
876 4 2 2 2 339 439 300 466
877 4 2 2 2 51 427 418 502
878 4 2 2 2 139 374 490 363
879 4 2 2 2 147 351 140 355
880 4 2 2 2 340 467 304 400
881 4 2 2 2 118 367 263 420
882 4 2 2 2 119 259 265 391
883 4 2 2 2 258 116 266 392
884 4 2 2 2 395 119 391 259
885 4 2 2 2 445 331 65 455
886 4 2 2 2 401 459 301 336
887 4 2 2 2 365 141 149 372
888 4 2 2 2 392 116 394 258
889 4 2 2 2 380 331 445 455
890 4 2 2 2 139 374 363 362
891 4 2 2 2 406 305 341 473
892 4 2 2 2 405 337 302 465
893 4 2 2 2 286 289 463 504
894 4 2 2 2 147 351 355 48
895 4 2 2 2 457 300 439 466
896 4 2 2 2 115 316 267 405
897 4 2 2 2 462 286 463 461
898 4 2 2 2 258 109 262 436
899 4 2 2 2 423 308 310 486
900 4 2 2 2 423 393 308 486
901 4 2 2 2 349 474 113 415
902 4 2 2 2 302 315 460 504
903 4 2 2 2 414 481 108 344
904 4 2 2 2 42 288 322 287
905 4 2 2 2 1 49 177 458
906 4 2 2 2 65 445 455 163
907 4 2 2 2 437 443 348 480
908 4 2 2 2 143 389 502 418
909 4 2 2 2 369 417 365 500
910 4 2 2 2 345 436 476 444
911 4 2 2 2 70 7 273 464
912 4 2 2 2 27 85 274 472
913 4 2 2 2 53 54 165 430
914 4 2 2 2 449 334 377 68
915 4 2 2 2 115 316 19 267
916 4 2 2 2 120 39 324 268
917 4 2 2 2 455 445 380 163
918 4 2 2 2 259 119 270 395
919 4 2 2 2 354 405 302 504
920 4 2 2 2 116 258 269 394
921 4 2 2 2 64 455 330 163
922 4 2 2 2 319 400 497 467
923 4 2 2 2 118 357 351 420
924 4 2 2 2 112 259 261 437
925 4 2 2 2 455 380 330 163
926 4 2 2 2 451 440 299 458
927 4 2 2 2 139 145 374 362
928 4 2 2 2 474 271 113 415
929 4 2 2 2 304 497 353 400
930 4 2 2 2 384 275 263 388
931 4 2 2 2 108 272 481 414
932 4 2 2 2 170 167 174 429
933 4 2 2 2 60 339 411 340
934 4 2 2 2 489 352 358 421
935 4 2 2 2 146 147 486 48
936 4 2 2 2 475 408 436 345
937 4 2 2 2 399 407 380 163
938 4 2 2 2 262 109 475 436
939 4 2 2 2 55 56 164 370
940 4 2 2 2 401 354 301 503
941 4 2 2 2 430 359 368 495
942 4 2 2 2 463 312 301 503
943 4 2 2 2 472 478 306 441
944 4 2 2 2 477 464 303 442
945 4 2 2 2 256 85 84 342
946 4 2 2 2 70 257 69 338
947 4 2 2 2 460 461 302 504
948 4 2 2 2 418 354 401 503
949 4 2 2 2 409 437 348 479
950 4 2 2 2 471 469 287 470
951 4 2 2 2 51 427 419 418
952 4 2 2 2 482 346 397 260
953 4 2 2 2 405 488 465 504
954 4 2 2 2 167 449 377 68
955 4 2 2 2 309 310 485 352
956 4 2 2 2 338 382 69 337
957 4 2 2 2 164 56 174 378
958 4 2 2 2 166 51 427 419
959 4 2 2 2 381 84 341 342
960 4 2 2 2 408 262 475 436
961 4 2 2 2 382 69 257 338
962 4 2 2 2 147 351 48 140
963 4 2 2 2 381 256 84 342
964 4 2 2 2 146 48 486 47
965 4 2 2 2 397 347 482 260
966 4 2 2 2 462 314 286 461
967 4 2 2 2 358 146 47 139
968 4 2 2 2 352 309 45 485
969 4 2 2 2 307 351 46 483
970 4 2 2 2 438 332 453 445
971 4 2 2 2 476 109 258 436
972 4 2 2 2 385 265 432 391
973 4 2 2 2 269 434 375 394
974 4 2 2 2 401 311 503 459
975 4 2 2 2 424 428 393 501
976 4 2 2 2 406 353 305 493
977 4 2 2 2 47 310 352 485
978 4 2 2 2 480 437 259 112
979 4 2 2 2 174 164 378 162
980 4 2 2 2 330 173 64 163
981 4 2 2 2 172 404 376 166
982 4 2 2 2 257 414 447 382
983 4 2 2 2 446 415 256 381
984 4 2 2 2 346 482 110 260
985 4 2 2 2 404 172 161 166
986 4 2 2 2 458 451 440 177
987 4 2 2 2 141 365 148 140
988 4 2 2 2 165 413 403 161
989 4 2 2 2 301 354 463 503
990 4 2 2 2 479 261 437 112
991 4 2 2 2 336 335 410 50
992 4 2 2 2 274 478 472 441
993 4 2 2 2 273 464 477 442
994 4 2 2 2 358 146 139 145
995 4 2 2 2 150 390 426 425
996 4 2 2 2 467 497 304 400
997 4 2 2 2 454 162 67 402
998 4 2 2 2 148 149 365 141
999 4 2 2 2 403 404 376 172
1000 4 2 2 2 46 118 367 263
1001 4 2 2 2 389 418 427 502
1002 4 2 2 2 286 463 461 504
1003 4 2 2 2 411 339 60 159
1004 4 2 2 2 118 435 491 366
1005 4 2 2 2 407 399 165 163
1006 4 2 2 2 392 272 258 414
1007 4 2 2 2 50 335 160 49
1008 4 2 2 2 391 259 271 415
1009 4 2 2 2 162 167 67 402
1010 4 2 2 2 111 482 347 260
1011 4 2 2 2 334 439 377 68
1012 4 2 2 2 396 175 398 163
1013 4 2 2 2 118 351 140 494
1014 4 2 2 2 59 5 178 466
1015 4 2 2 2 311 51 168 401
1016 4 2 2 2 377 333 449 167
1017 4 2 2 2 437 409 261 479
1018 4 2 2 2 52 51 427 166
1019 4 2 2 2 170 377 411 159
1020 4 2 2 2 23 289 313 286
1021 4 2 2 2 142 141 390 149
1022 4 2 2 2 378 379 369 56
1023 4 2 2 2 138 137 389 144
1024 4 2 2 2 373 270 395 435
1025 4 2 2 2 143 389 418 422
1026 4 2 2 2 378 162 164 438
1027 4 2 2 2 176 164 396 163
1028 4 2 2 2 382 447 266 433
1029 4 2 2 2 118 357 140 351
1030 4 2 2 2 405 382 267 433
1031 4 2 2 2 138 139 145 374
1032 4 2 2 2 430 360 359 495
1033 4 2 2 2 446 265 432 381
1034 4 2 2 2 403 407 413 165
1035 4 2 2 2 364 255 371 383
1036 4 2 2 2 268 406 432 381
1037 4 2 2 2 323 305 493 473
1038 4 2 2 2 322 323 493 42
1039 4 2 2 2 376 328 403 172
1040 4 2 2 2 164 175 398 396
1041 4 2 2 2 172 328 403 452
1042 4 2 2 2 176 396 445 163
1043 4 2 2 2 23 312 313 503
1044 4 2 2 2 358 145 362 359
1045 4 2 2 2 371 307 46 484
1046 4 2 2 2 371 45 309 484
1047 4 2 2 2 316 488 465 405
1048 4 2 2 2 437 348 479 112
1049 4 2 2 2 301 459 401 503
1050 4 2 2 2 160 410 335 50
1051 4 2 2 2 113 443 349 415
1052 4 2 2 2 258 476 436 444
1053 4 2 2 2 464 7 273 477
1054 4 2 2 2 478 27 274 472
1055 4 2 2 2 149 390 142 150
1056 4 2 2 2 414 258 392 444
1057 4 2 2 2 85 274 472 441
1058 4 2 2 2 108 414 344 444
1059 4 2 2 2 464 273 70 442
1060 4 2 2 2 109 475 436 345
1061 4 2 2 2 458 1 451 177
1062 4 2 2 2 144 145 374 138
1063 4 2 2 2 67 449 333 167
1064 4 2 2 2 397 346 408 260
1065 4 2 2 2 391 443 259 415
1066 4 2 2 2 164 175 396 163
1067 4 2 2 2 429 379 174 57
1068 4 2 2 2 392 272 266 258
1069 4 2 2 2 143 144 389 137
1070 4 2 2 2 309 307 371 484
1071 4 2 2 2 265 259 271 391
1072 4 2 2 2 311 51 3 168
1073 4 2 2 2 403 329 172 452
1074 4 2 2 2 341 406 268 381
1075 4 2 2 2 62 328 456 171
1076 4 2 2 2 337 382 267 405
1077 4 2 2 2 384 261 275 388
1078 4 2 2 2 142 390 426 150
1079 4 2 2 2 347 397 409 260
1080 4 2 2 2 354 418 143 503
1081 4 2 2 2 330 407 450 173
1082 4 2 2 2 51 418 401 503
1083 4 2 2 2 171 166 172 376
1084 4 2 2 2 173 407 172 165
1085 4 2 2 2 397 408 276 260
1086 4 2 2 2 67 333 454 402
1087 4 2 2 2 329 407 172 173
1088 4 2 2 2 443 437 259 480
1089 4 2 2 2 440 458 177 49
1090 4 2 2 2 167 377 439 68
1091 4 2 2 2 352 489 47 485
1092 4 2 2 2 489 352 45 485
1093 4 2 2 2 494 351 48 483
1094 4 2 2 2 59 60 339 159
1095 4 2 2 2 351 494 46 483
1096 4 2 2 2 443 113 271 415
1097 4 2 2 2 328 376 456 171
1098 4 2 2 2 276 383 408 397
1099 4 2 2 2 110 408 346 260
1100 4 2 2 2 274 85 256 441
1101 4 2 2 2 357 148 361 365
1102 4 2 2 2 273 257 70 442
1103 4 2 2 2 342 256 85 441
1104 4 2 2 2 257 70 442 338
1105 4 2 2 2 108 272 414 444
1106 4 2 2 2 403 172 165 161
1107 4 2 2 2 380 396 398 163
1108 4 2 2 2 497 150 353 400
1109 4 2 2 2 414 257 442 382
1110 4 2 2 2 342 85 472 441
1111 4 2 2 2 70 464 442 338
1112 4 2 2 2 170 411 377 412
1113 4 2 2 2 381 415 256 441
1114 4 2 2 2 377 333 167 402
1115 4 2 2 2 322 287 469 470
1116 4 2 2 2 400 170 411 169
1117 4 2 2 2 438 453 66 176
1118 4 2 2 2 178 167 439 68
1119 4 2 2 2 111 347 409 260
1120 4 2 2 2 53 52 431 161
1121 4 2 2 2 407 403 172 165
1122 4 2 2 2 165 173 407 163
1123 4 2 2 2 439 411 377 159
1124 4 2 2 2 333 67 167 402
1125 4 2 2 2 459 301 312 503
1126 4 2 2 2 320 497 304 467
1127 4 2 2 2 384 397 275 409
1128 4 2 2 2 407 403 329 172
1129 4 2 2 2 438 162 164 176
1130 4 2 2 2 165 399 175 163
1131 4 2 2 2 378 370 164 56
1132 4 2 2 2 332 453 66 438
1133 4 2 2 2 480 348 437 112
1134 4 2 2 2 170 377 429 412
1135 4 2 2 2 400 411 170 412
1136 4 2 2 2 261 263 275 388
1137 4 2 2 2 409 397 275 260
1138 4 2 2 2 436 476 109 345
1139 4 2 2 2 162 454 332 402
1140 4 2 2 2 351 48 483 308
1141 4 2 2 2 411 340 400 169
1142 4 2 2 2 415 256 271 446
1143 4 2 2 2 414 272 257 447
1144 4 2 2 2 166 168 51 419
1145 4 2 2 2 340 411 60 169
1146 4 2 2 2 270 420 388 435
1147 4 2 2 2 173 172 329 63
1148 4 2 2 2 370 378 369 56
1149 4 2 2 2 55 54 424 175
1150 4 2 2 2 458 440 335 49
1151 4 2 2 2 483 308 307 351
1152 4 2 2 2 475 110 262 408
1153 4 2 2 2 439 457 466 178
1154 4 2 2 2 452 329 172 63
1155 4 2 2 2 176 445 65 163
1156 4 2 2 2 466 339 439 59
1157 4 2 2 2 137 389 143 422
1158 4 2 2 2 380 175 398 399
1159 4 2 2 2 269 434 387 421
1160 4 2 2 2 178 439 167 159
1161 4 2 2 2 382 266 267 433
1162 4 2 2 2 427 404 431 52
1163 4 2 2 2 57 56 379 174
1164 4 2 2 2 324 323 493 473
1165 4 2 2 2 310 47 352 356
1166 4 2 2 2 161 53 165 413
1167 4 2 2 2 268 432 265 381
1168 4 2 2 2 258 262 269 436
1169 4 2 2 2 167 439 377 159
1170 4 2 2 2 165 54 175 399
1171 4 2 2 2 272 108 258 444
1172 4 2 2 2 387 264 269 421
1173 4 2 2 2 261 259 270 437
1174 4 2 2 2 476 258 108 444
1175 4 2 2 2 407 329 450 173
1176 4 2 2 2 52 161 166 404
1177 4 2 2 2 500 365 369 148
1178 4 2 2 2 427 431 416 52
1179 4 2 2 2 259 113 271 443
1180 4 2 2 2 406 142 353 493
1181 4 2 2 2 275 276 397 384
1182 4 2 2 2 408 110 262 260
1183 4 2 2 2 419 401 410 168
1184 4 2 2 2 257 266 267 382
1185 4 2 2 2 405 465 302 504
1186 4 2 2 2 55 164 175 398
1187 4 2 2 2 421 387 264 364
1188 4 2 2 2 268 265 256 381
1189 4 2 2 2 170 167 377 159
1190 4 2 2 2 430 399 54 165
1191 4 2 2 2 259 113 443 480
1192 4 2 2 2 276 275 255 384
1193 4 2 2 2 347 409 479 111
1194 4 2 2 2 255 371 383 384
1195 4 2 2 2 172 62 328 452
1196 4 2 2 2 53 413 430 165
1197 4 2 2 2 382 257 442 338
1198 4 2 2 2 342 381 256 441
1199 4 2 2 2 382 267 69 337
1200 4 2 2 2 167 429 377 402
1201 4 2 2 2 314 460 315 504
1202 4 2 2 2 438 164 378 396
1203 4 2 2 2 159 411 170 169
1204 4 2 2 2 268 84 341 381
1205 4 2 2 2 408 475 110 346
1206 4 2 2 2 396 380 445 163
1207 4 2 2 2 398 370 55 164
1208 4 2 2 2 267 69 257 382
1209 4 2 2 2 256 84 268 381
1210 4 2 2 2 111 409 261 260
1211 4 2 2 2 416 389 144 374
1212 4 2 2 2 425 150 353 426
1213 4 2 2 2 270 437 395 388
1214 4 2 2 2 149 372 390 417
1215 4 2 2 2 55 393 428 501
1216 4 2 2 2 264 255 364 383
1217 4 2 2 2 172 403 404 161
1218 4 2 2 2 400 150 353 425
1219 4 2 2 2 479 409 261 111
1220 4 2 2 2 255 371 384 367
1221 4 2 2 2 463 313 286 462
1222 4 2 2 2 402 429 378 174
1223 4 2 2 2 308 393 355 147
1224 4 2 2 2 456 376 327 171
1225 4 2 2 2 115 116 433 266
1226 4 2 2 2 265 385 119 391
1227 4 2 2 2 414 272 258 444
1228 4 2 2 2 410 440 376 160
1229 4 2 2 2 473 406 305 493
1230 4 2 2 2 419 418 401 51
1231 4 2 2 2 160 335 440 49
1232 4 2 2 2 150 497 58 400
1233 4 2 2 2 419 410 376 166
1234 4 2 2 2 453 438 445 176
1235 4 2 2 2 443 271 259 415
1236 4 2 2 2 360 430 54 495
1237 4 2 2 2 167 377 429 170
1238 4 2 2 2 418 51 143 503
1239 4 2 2 2 397 276 383 384
1240 4 2 2 2 408 262 276 260
1241 4 2 2 2 178 466 439 59
1242 4 2 2 2 312 311 459 503
1243 4 2 2 2 320 319 497 467
1244 4 2 2 2 431 413 368 53
1245 4 2 2 2 265 271 256 446
1246 4 2 2 2 59 339 439 159
1247 4 2 2 2 272 266 257 447
1248 4 2 2 2 502 427 389 144
1249 4 2 2 2 53 431 413 161
1250 4 2 2 2 440 177 160 49
1251 4 2 2 2 383 276 255 384
1252 4 2 2 2 403 413 431 161
1253 4 2 2 2 262 264 387 383
1254 4 2 2 2 159 60 411 169
1255 4 2 2 2 168 419 401 51
1256 4 2 2 2 415 271 256 441
1257 4 2 2 2 162 378 402 438
1258 4 2 2 2 358 117 489 421
1259 4 2 2 2 414 257 272 442
1260 4 2 2 2 398 370 428 55
1261 4 2 2 2 466 457 5 178
1262 4 2 2 2 436 387 269 394
1263 4 2 2 2 409 275 261 260
1264 4 2 2 2 173 450 330 64
1265 4 2 2 2 261 384 409 388
1266 4 2 2 2 264 262 276 383
1267 4 2 2 2 380 175 399 163
1268 4 2 2 2 339 411 439 159
1269 4 2 2 2 379 378 174 56
1270 4 2 2 2 160 376 410 166
1271 4 2 2 2 430 368 413 53
1272 4 2 2 2 52 404 431 161
1273 4 2 2 2 454 66 162 332
1274 4 2 2 2 393 423 424 501
1275 4 2 2 2 309 45 371 364
1276 4 2 2 2 371 46 307 367
1277 4 2 2 2 53 430 368 495
1278 4 2 2 2 405 137 354 422
1279 4 2 2 2 263 270 420 388
1280 4 2 2 2 160 177 440 171
1281 4 2 2 2 367 263 420 388
1282 4 2 2 2 264 117 269 421
1283 4 2 2 2 116 386 392 375
1284 4 2 2 2 364 387 264 383
1285 4 2 2 2 361 370 369 56
1286 4 2 2 2 274 256 271 441
1287 4 2 2 2 420 270 118 435
1288 4 2 2 2 286 461 314 504
1289 4 2 2 2 257 273 272 442
1290 4 2 2 2 385 373 119 391
1291 4 2 2 2 173 329 450 63
1292 4 2 2 2 434 269 117 421
1293 4 2 2 2 58 400 412 425
1294 4 2 2 2 402 332 162 438
1295 4 2 2 2 164 370 378 396
1296 4 2 2 2 371 45 255 364
1297 4 2 2 2 360 430 399 54
1298 4 2 2 2 400 58 170 169
1299 4 2 2 2 270 261 437 388
1300 4 2 2 2 405 267 115 433
1301 4 2 2 2 440 410 335 160
1302 4 2 2 2 120 406 432 268
1303 4 2 2 2 427 404 52 166
1304 4 2 2 2 384 275 261 409
1305 4 2 2 2 384 263 255 367
1306 4 2 2 2 309 352 45 364
1307 4 2 2 2 113 443 480 349
1308 4 2 2 2 383 387 262 408
1309 4 2 2 2 351 307 46 367
1310 4 2 2 2 266 257 447 382
1311 4 2 2 2 389 427 416 144
1312 4 2 2 2 344 476 108 444
1313 4 2 2 2 380 398 175 163
1314 4 2 2 2 272 273 107 442
1315 4 2 2 2 371 255 45 484
1316 4 2 2 2 351 355 48 308
1317 4 2 2 2 426 142 353 406
1318 4 2 2 2 401 336 410 168
1319 4 2 2 2 446 256 265 381
1320 4 2 2 2 177 327 440 171
1321 4 2 2 2 415 474 271 350
1322 4 2 2 2 272 481 414 343
1323 4 2 2 2 404 427 419 166
1324 4 2 2 2 400 58 150 425
1325 4 2 2 2 267 266 115 433
1326 4 2 2 2 501 423 424 54
1327 4 2 2 2 432 265 120 268
1328 4 2 2 2 371 46 255 484
1329 4 2 2 2 386 138 389 374
1330 4 2 2 2 274 478 441 350
1331 4 2 2 2 149 448 390 496
1332 4 2 2 2 360 399 424 54
1333 4 2 2 2 321 471 287 470
1334 4 2 2 2 264 276 255 383
1335 4 2 2 2 262 276 383 408
1336 4 2 2 2 439 178 59 159
1337 4 2 2 2 399 175 398 424
1338 4 2 2 2 384 263 367 388
1339 4 2 2 2 451 327 440 177
1340 4 2 2 2 376 440 327 171
1341 4 2 2 2 264 255 45 364
1342 4 2 2 2 160 440 376 171
1343 4 2 2 2 438 66 162 176
1344 4 2 2 2 261 409 437 388
1345 4 2 2 2 359 362 368 145
1346 4 2 2 2 400 170 58 412
1347 4 2 2 2 378 162 402 174
1348 4 2 2 2 398 370 164 396
1349 4 2 2 2 270 263 261 388
1350 4 2 2 2 168 336 410 50
1351 4 2 2 2 275 263 255 384
1352 4 2 2 2 340 60 319 169
1353 4 2 2 2 396 438 164 176
1354 4 2 2 2 361 369 365 148
1355 4 2 2 2 60 6 319 169
1356 4 2 2 2 372 141 390 385
1357 4 2 2 2 403 431 404 161
1358 4 2 2 2 424 55 428 501
1359 4 2 2 2 441 415 271 350
1360 4 2 2 2 343 414 272 442
1361 4 2 2 2 387 269 262 436
1362 4 2 2 2 408 387 262 436
1363 4 2 2 2 428 398 55 424
1364 4 2 2 2 399 175 424 54
1365 4 2 2 2 358 145 139 362
1366 4 2 2 2 357 148 365 140
1367 4 2 2 2 437 395 259 270
1368 4 2 2 2 270 118 263 420
1369 4 2 2 2 117 358 363 421
1370 4 2 2 2 357 140 365 366
1371 4 2 2 2 143 418 354 422
1372 4 2 2 2 357 118 366 420
1373 4 2 2 2 407 399 413 165
1374 4 2 2 2 166 160 376 171
1375 4 2 2 2 65 453 445 176
1376 4 2 2 2 332 66 162 438
1377 4 2 2 2 316 69 267 337
1378 4 2 2 2 363 139 362 358
1379 4 2 2 2 410 160 168 50
1380 4 2 2 2 460 314 461 504
1381 4 2 2 2 84 341 324 268
1382 4 2 2 2 177 61 327 171
1383 4 2 2 2 69 9 316 267
1384 4 2 2 2 84 324 29 268
1385 4 2 2 2 4 169 319 6
1386 4 2 2 2 448 417 379 57
1387 4 2 2 2 355 393 428 147
1388 4 2 2 2 394 392 258 444
1389 4 2 2 2 443 259 395 391
1390 4 2 2 2 360 424 423 54
1391 4 2 2 2 175 55 398 424
1392 4 2 2 2 46 255 263 367
1393 4 2 2 2 390 448 149 417
1394 4 2 2 2 343 272 107 442
1395 4 2 2 2 436 269 258 394
1396 4 2 2 2 371 255 46 367
1397 4 2 2 2 405 115 422 433
1398 4 2 2 2 478 274 114 350
1399 4 2 2 2 481 272 107 343
1400 4 2 2 2 388 395 270 435
1401 4 2 2 2 474 114 271 350
1402 4 2 2 2 331 65 453 445
1403 4 2 2 2 323 324 493 39
1404 4 2 2 2 387 434 269 394
1405 4 2 2 2 397 276 275 260
1406 4 2 2 2 429 379 378 174
1407 4 2 2 2 327 451 61 177
1408 4 2 2 2 138 144 389 374
1409 4 2 2 2 115 137 488 405
1410 4 2 2 2 406 432 426 120
1411 4 2 2 2 404 419 376 166
1412 4 2 2 2 493 406 142 120
1413 4 2 2 2 312 311 503 3
1414 4 2 2 2 502 52 427 144
1415 4 2 2 2 320 319 4 497
1416 4 2 2 2 501 55 393 147
1417 4 2 2 2 149 372 141 390
1418 4 2 2 2 269 262 264 387
1419 4 2 2 2 19 267 316 9
1420 4 2 2 2 268 39 324 29
1421 4 2 2 2 311 336 168 50
1422 4 2 2 2 148 499 361 56
1423 4 2 2 2 412 170 58 425
1424 4 2 2 2 438 396 445 176
1425 4 2 2 2 168 2 311 50
1426 4 2 2 2 326 493 39 323
1427 4 2 2 2 42 323 493 326
1428 4 2 2 2 356 360 423 146
1429 4 2 2 2 317 3 312 503
1430 4 2 2 2 317 312 23 503
1431 4 2 2 2 325 497 43 320
1432 4 2 2 2 4 497 325 320
1433 4 2 2 2 399 430 413 165
1434 4 2 2 2 54 501 423 146
1435 4 2 2 2 435 118 420 366
1436 4 2 2 2 363 434 117 421
1437 4 2 2 2 61 456 327 171
1438 4 2 2 2 405 115 137 422
1439 4 2 2 2 168 3 311 2
1440 4 2 2 2 52 416 427 144
1441 4 2 2 2 358 117 139 489
1442 4 2 2 2 406 426 142 120
1443 4 2 2 2 447 266 433 392
1444 4 2 2 2 265 432 391 446
1445 4 2 2 2 302 465 315 504
1446 4 2 2 2 361 369 148 56
1447 4 2 2 2 145 368 53 498
1448 4 2 2 2 478 306 27 472
1449 4 2 2 2 303 7 464 477
1450 4 2 2 2 299 1 451 458
1451 4 2 2 2 457 5 300 466
1452 4 2 2 2 116 386 375 374
1453 4 2 2 2 372 373 119 385
1454 4 2 2 2 55 428 393 147
1455 4 2 2 2 137 143 354 422
1456 4 2 2 2 500 417 149 57
1457 4 2 2 2 313 14 23 286
1458 4 2 2 2 55 428 147 499
1459 4 2 2 2 314 286 13 462
1460 4 2 2 2 148 369 500 56
1461 4 2 2 2 355 48 308 147
1462 4 2 2 2 258 436 394 444
1463 4 2 2 2 437 259 395 443
1464 4 2 2 2 498 416 52 144
1465 4 2 2 2 417 448 149 57
1466 4 2 2 2 54 423 360 146
1467 4 2 2 2 496 149 448 57
1468 4 2 2 2 360 54 146 495
1469 4 2 2 2 286 313 14 462
1470 4 2 2 2 142 353 150 426
1471 4 2 2 2 358 117 363 139
1472 4 2 2 2 118 357 366 140
1473 4 2 2 2 45 489 485 47
1474 4 2 2 2 46 494 48 483
1475 4 2 2 2 43 34 321 287
1476 4 2 2 2 287 42 33 322
1477 4 2 2 2 33 287 322 470
1478 4 2 2 2 139 490 117 363
1479 4 2 2 2 491 140 118 366
1480 4 2 2 2 137 115 487 422
1481 4 2 2 2 34 321 287 470
1482 4 2 2 2 150 353 142 288
1483 4 2 2 2 142 492 120 426
1484 4 2 2 2 418 51 502 143
1485 4 2 2 2 386 116 138 374
1486 4 2 2 2 372 119 491 141
1487 4 2 2 2 374 490 116 138
1488 4 2 2 2 119 141 372 385
1489 4 2 2 2 116 138 487 386
1490 4 2 2 2 46 45 255 484
1491 4 2 2 2 141 119 492 385
1492 4 2 2 2 315 22 314 504
1493 4 2 2 2 488 316 19 115
1494 4 2 2 2 42 142 322 288
1495 4 2 2 2 142 42 322 493
1496 4 2 2 2 143 23 313 503
1497 4 2 2 2 39 120 324 493
1498 4 2 2 2 289 23 313 143
1499 4 2 2 2 137 289 22 504
1500 4 2 2 2 22 488 137 504
1501 4 2 2 2 493 324 406 120
1502 4 2 2 2 493 406 324 473
1503 4 2 2 2 268 406 324 120
1504 4 2 2 2 469 322 288 287
1505 4 2 2 2 386 138 422 389
1506 4 2 2 2 386 422 138 487
1507 4 2 2 2 137 422 138 389
1508 4 2 2 2 137 138 422 487
1509 4 2 2 2 141 140 372 365
1510 4 2 2 2 141 372 140 491
1511 4 2 2 2 366 372 140 365
1512 4 2 2 2 366 140 372 491
1513 4 2 2 2 142 141 426 390
1514 4 2 2 2 142 426 141 492
1515 4 2 2 2 385 426 141 390
1516 4 2 2 2 385 141 426 492
1517 4 2 2 2 503 463 143 354
1518 4 2 2 2 503 143 463 313
1519 4 2 2 2 289 463 143 313
1520 4 2 2 2 45 352 421 364
1521 4 2 2 2 421 352 45 489
1522 4 2 2 2 45 117 421 489
1523 4 2 2 2 147 355 148 499
1524 4 2 2 2 361 355 148 357
1525 4 2 2 2 361 148 355 499
1526 4 2 2 2 359 145 356 358
1527 4 2 2 2 359 356 145 495
1528 4 2 2 2 146 356 145 358
1529 4 2 2 2 146 145 356 495
1530 4 2 2 2 351 118 46 494
1531 4 2 2 2 416 144 362 374
1532 4 2 2 2 416 362 144 498
1533 4 2 2 2 145 362 144 374
1534 4 2 2 2 145 144 362 498
1535 4 2 2 2 55 56 428 499
1536 4 2 2 2 55 428 56 370
1537 4 2 2 2 361 428 56 499
1538 4 2 2 2 361 56 428 370
1539 4 2 2 2 416 52 368 498
1540 4 2 2 2 416 368 52 431
1541 4 2 2 2 53 368 52 498
1542 4 2 2 2 53 52 368 431
1543 4 2 2 2 321 353 287 471
1544 4 2 2 2 321 287 353 288
1545 4 2 2 2 269 434 116 375
1546 4 2 2 2 269 116 434 117
1547 4 2 2 2 491 119 435 118
1548 4 2 2 2 270 435 119 118
1549 4 2 2 2 270 119 435 373
1550 4 2 2 2 417 57 369 379
1551 4 2 2 2 417 369 57 500
1552 4 2 2 2 56 369 57 379
1553 4 2 2 2 56 57 369 500
1554 4 2 2 2 422 115 386 433
1555 4 2 2 2 422 386 115 487
1556 4 2 2 2 116 386 115 433
1557 4 2 2 2 116 115 386 487
1558 4 2 2 2 119 385 120 492
1559 4 2 2 2 426 385 120 432
1560 4 2 2 2 426 120 385 492
1561 4 2 2 2 496 448 58 57
1562 4 2 2 2 58 448 170 57
1563 4 2 2 2 58 170 448 425
1564 4 2 2 2 170 412 448 425
1565 4 2 2 2 353 304 320 497
1566 4 2 2 2 320 304 353 471
1567 4 2 2 2 353 321 320 471
1568 4 2 2 2 486 147 308 48
1569 4 2 2 2 486 308 147 393
1570 4 2 2 2 504 463 302 354
1571 4 2 2 2 504 302 463 461
1572 4 2 2 2 504 137 405 488
1573 4 2 2 2 504 405 137 354
1574 4 2 2 2 356 146 310 47
1575 4 2 2 2 356 310 146 423
1576 4 2 2 2 486 310 146 47
1577 4 2 2 2 486 146 310 423
1578 4 2 2 2 140 355 148 147
1579 4 2 2 2 140 148 355 357
1580 4 2 2 2 400 319 340 467
1581 4 2 2 2 400 340 319 169
1582 4 2 2 2 328 171 172 376
1583 4 2 2 2 172 171 328 62
1584 4 2 2 2 150 353 43 497
1585 4 2 2 2 320 353 43 321
1586 4 2 2 2 320 43 353 497
1587 4 2 2 2 497 319 58 400
1588 4 2 2 2 497 58 319 4
1589 4 2 2 2 169 58 319 400
1590 4 2 2 2 169 319 58 4
1591 4 2 2 2 57 429 170 174
1592 4 2 2 2 495 356 360 359
1593 4 2 2 2 495 360 356 146
1594 4 2 2 2 355 499 428 361
1595 4 2 2 2 428 499 355 147
1596 4 2 2 2 163 407 330 173
1597 4 2 2 2 163 330 407 380
1598 4 2 2 2 174 402 167 162
1599 4 2 2 2 174 167 402 429
1600 4 2 2 2 410 166 168 160
1601 4 2 2 2 410 168 166 419
1602 4 2 2 2 362 498 368 145
1603 4 2 2 2 368 498 362 416
1604 4 2 2 2 350 274 271 441
1605 4 2 2 2 350 271 274 114
1606 4 2 2 2 368 495 145 53
1607 4 2 2 2 145 495 368 359
1608 4 2 2 2 107 442 477 343
1609 4 2 2 2 477 442 107 273
1610 4 2 2 2 116 433 392 386
1611 4 2 2 2 116 392 433 266
1612 4 2 2 2 385 265 120 432
1613 4 2 2 2 385 120 265 119
1614 4 2 2 2 401 311 336 168
1615 4 2 2 2 401 336 311 459
1616 4 2 2 2 316 405 337 267
1617 4 2 2 2 316 337 405 465
1618 4 2 2 2 314 286 22 13
1619 4 2 2 2 314 22 286 504
1620 4 2 2 2 272 447 392 266
1621 4 2 2 2 392 447 272 414
1622 4 2 2 2 446 271 391 265
1623 4 2 2 2 446 391 271 415
1624 4 2 2 2 68 439 457 334
1625 4 2 2 2 68 457 439 178
1626 4 2 2 2 19 315 488 318
1627 4 2 2 2 22 488 315 318
1628 4 2 2 2 22 315 488 504
1629 4 2 2 2 146 147 423 486
1630 4 2 2 2 146 423 147 501
1631 4 2 2 2 393 423 147 486
1632 4 2 2 2 393 147 423 501
1633 4 2 2 2 353 469 142 288
1634 4 2 2 2 322 142 469 288
1635 4 2 2 2 353 493 469 468
1636 4 2 2 2 353 469 493 142
1637 4 2 2 2 322 469 493 468
1638 4 2 2 2 322 493 469 142
1639 4 2 2 2 406 324 341 268
1640 4 2 2 2 406 341 324 473
1641 4 2 2 2 463 143 504 289
1642 4 2 2 2 463 504 143 354
1643 4 2 2 2 137 504 143 289
1644 4 2 2 2 137 143 504 354
1645 4 2 2 2 421 45 264 117
1646 4 2 2 2 264 45 421 364
1647 4 2 2 2 367 118 351 420
1648 4 2 2 2 367 351 118 46
1649 4 2 2 2 434 363 116 375
1650 4 2 2 2 374 363 116 490
1651 4 2 2 2 374 116 363 375
1652 4 2 2 2 116 117 363 434
1653 4 2 2 2 363 117 116 490
1654 4 2 2 2 372 119 366 491
1655 4 2 2 2 372 366 119 373
1656 4 2 2 2 435 366 119 491
1657 4 2 2 2 435 119 366 373
1658 4 2 2 2 390 448 150 496
1659 4 2 2 2 390 150 448 425
1660 4 2 2 2 58 150 448 496
1661 4 2 2 2 58 448 150 425
1662 4 2 2 2 170 429 379 412
1663 4 2 2 2 379 429 170 57
1664 4 2 2 2 379 448 170 412
1665 4 2 2 2 170 448 379 57
1666 4 2 2 2 43 288 353 150
1667 4 2 2 2 43 353 288 321
1668 4 2 2 2 315 488 316 19
1669 4 2 2 2 488 465 315 316
1670 4 2 2 2 488 315 465 504
$EndElements
