$MeshFormat
2.2 0 8
$EndMeshFormat
$PhysicalNames
2
3 1 "alumina_OPEM_RESERVED_1"
3 2 "air_OPEM_RESERVED_2"
$EndPhysicalNames
$Nodes
266
1 0 0 0
2 0 0 0.003
3 0.018 0 0
4 0.018 0 0.003
5 0.008999999999999999 0 0
6 0.008999999999999999 0 0.003
7 0.018 0.000635 0
8 0.018 0.000635 0.003
9 0.009699396418108413 0.000635 0
10 0.009500000000000001 0.000635 0
11 0.009500000000000001 0.000635 0.003
12 0.009699396418108413 0.000635 0.003
13 0.008999999999999999 0.000635 0
14 0.008500000000000001 0.000635 0
15 0.008500000000000001 0.000635 0.003
16 0.008999999999999999 0.000635 0.003
17 0.008328908762441172 0.000635 0
18 0 0.000635 0
19 0 0.000635 0.003
20 0.008328908762441172 0.000635 0.003
21 0.008328908762441172 0.0004756757825481557 0
22 0.008999999999999999 0.0004756757825481557 0
23 0.009699396418108413 0.0004756757825481557 0
24 0.008328908762441172 0.0004756757825481557 0.003
25 0.008999999999999999 0.0004756757825481557 0.003
26 0.009699396418108413 0.0004756757825481557 0.003
27 0.018 0.006635 0
28 0 0.006635 0
29 0.009699396418108413 0.001132114673183594 0
30 0.008328908762441172 0.001132114673183594 0
31 0.009500000000000001 0.0009350000000000001 0
32 0.008500000000000001 0.0009350000000000001 0
33 0.008500000000000001 0.0009350000000000001 0.003
34 0.018 0.006634999999999999 0.003
35 0 0.006635 0.003
36 0.009699396418108413 0.001132114673183594 0.003
37 0.008328908762441172 0.001132114673183594 0.003
38 0.009500000000000001 0.0009350000000000001 0.003
39 0 0 0.001500000000000003
40 0.018 0 0.001500000000000003
41 0.001800000000000006 0 0
42 0.003600000000000012 0 0
43 0.005400000000000008 0 0
44 0.007200000000000003 0 0
45 0.01080000000000001 0 0
46 0.01260000000000001 0 0
47 0.01440000000000001 0 0
48 0.0162 0 0
49 0.001800000000000006 0 0.003
50 0.003600000000000012 0 0.003
51 0.005400000000000008 0 0.003
52 0.007200000000000003 0 0.003
53 0.01080000000000001 0 0.003
54 0.01260000000000001 0 0.003
55 0.01440000000000001 0 0.003
56 0.0162 0 0.003
57 0.018 0.000635 0.001500000000000003
58 0.01633987928362168 0.000635 0
59 0.01467975856724336 0.000635 0
60 0.01301963785086504 0.000635 0
61 0.01135951713448673 0.000635 0
62 0.009500000000000001 0.000635 0.001500000000000003
63 0.01633987928362168 0.000635 0.003
64 0.01467975856724336 0.000635 0.003
65 0.01301963785086504 0.000635 0.003
66 0.01135951713448673 0.000635 0.003
67 0.008500000000000001 0.000635 0.001500000000000003
68 0.006663127009952937 0.000635 0
69 0.004997345257464708 0.000635 0
70 0.003331563504976471 0.000635 0
71 0.001665781752488233 0.000635 0
72 0 0.000635 0.001500000000000003
73 0.006663127009952937 0.000635 0.003
74 0.004997345257464708 0.000635 0.003
75 0.003331563504976471 0.000635 0.003
76 0.001665781752488233 0.000635 0.003
77 0.01619999999999999 0.006635 0
78 0.01439999999999999 0.006635 0
79 0.01259999999999998 0.006635 0
80 0.01079999999999998 0.006635 0
81 0.008999999999999977 0.006635 0
82 0.007199999999999982 0.006635 0
83 0.005399999999999986 0.006635 0
84 0.003599999999999992 0.006635 0
85 0.001799999999999996 0.006635 0
86 0.018 0.002135000000000001 0
87 0.018 0.003635000000000006 0
88 0.018 0.005135000000000007 0
89 0 0.005135 0
90 0 0.003634999999999995 0
91 0 0.002134999999999994 0
92 0.008500000000000001 0.0009350000000000001 0.001500000000000003
93 0.01619999999999999 0.006635 0.003
94 0.01439999999999999 0.006635 0.003
95 0.01259999999999998 0.006635 0.003
96 0.01079999999999998 0.006635 0.003
97 0.008999999999999977 0.006635 0.003
98 0.007199999999999982 0.006635 0.003
99 0.005399999999999986 0.006635 0.003
100 0.003599999999999992 0.006635 0.003
101 0.001799999999999996 0.006635 0.003
102 0.018 0.002135000000000001 0.003
103 0.018 0.003635000000000006 0.003
104 0.018 0.005135000000000007 0.003
105 0 0.005135 0.003
106 0 0.003634999999999995 0.003
107 0 0.002134999999999994 0.003
108 0 0.006635 0.001500000000000003
109 0.018 0.006635 0.001500000000000003
110 0.009500000000000001 0.0009350000000000001 0.001500000000000003
111 0.01350000000000001 0 0.0015
112 0.008100000000000003 0 0.0015
113 0.006300000000000007 0 0.0015
114 0.015225 0 0.001534999999999999
115 0.004500000000000009 0 0.0015
116 0.009900000000000004 0 0.0015
117 0.002775000000000007 0 0.001465000000000001
118 0.01170000000000001 0 0.0015
119 0.01665 0 0.001709999999999991
120 0.001350000000000004 0 0.001290000000000004
121 0.018 0.0003175 0.0007500000000000014
122 0.018 0.0003175 0.002250000000000002
123 0.01195241739033613 0.000635 0.00150818937836673
124 0.01568700714169619 0.000635 0.001441331788776827
125 0.01384255869880705 0.000635 0.001510369371869597
126 0.0105581378140338 0.000635 0.0009294703082515889
127 0.01055143641371309 0.000635 0.002090256174785003
128 0.0168965154397281 0.000635 0.001861726201893479
129 0.01710437044937479 0.000635 0.0008267534978622683
130 0.006068471515179287 0.000635 0.001507736974391938
131 0.002320529220085108 0.000635 0.001574927941216543
132 0.004174469710024459 0.000635 0.001513777485934747
133 0.007452797043624114 0.000635 0.0009444710149992138
134 0.007471716287915726 0.000635 0.002104946463055152
135 0.001106469008833925 0.000635 0.001141075961890131
136 0.0008963481781024442 0.000635 0.002174635852996114
137 0 0.0003175 0.0007500000000000014
138 0 0.0003175000000000001 0.002250000000000002
139 0.008837290362694429 0.001888376576791206 0
140 0.0138496982090542 0.002072706713732441 0
141 0.00411993131344887 0.00203502874587184 0
142 0.008225895028702241 0.005118705211878145 0
143 0.01164448599175187 0.005106597755262139 0
144 0.01536899606273393 0.005078608623325458 0
145 0.002640342356347311 0.005084998191130106 0
146 0.00119963686325939 0.002918130658088092 0
147 0.01670096189432334 0.002885000000000003 0
148 0.009914504342896853 0.004927715125184626 0
149 0.01103376626182404 0.003732079383263348 0
150 0.009022755991891717 0.003742533950031828 0
151 0.007545610951055654 0.003677909905210522 0
152 0.01265117976348772 0.003387252260452229 0
153 0.009850293610458234 0.002739016185223474 0
154 0.006572549790903937 0.005021879092734782 0
155 0.006098280119026645 0.003486406788291762 0
156 0.007087340912558468 0.002221403636622812 0
157 0.005007260287726802 0.004559063909365514 0
158 0.01346699654571048 0.005058597591554933 0
159 0.01160382196151902 0.002348964456744854 0
160 0.008248622321931709 0.002693484655535767 0
161 0.01057913676960717 0.001853962215893418 0
162 0.01676679309866056 0.004328456669374202 0
163 0.001192709825193501 0.004335043373689651 0
164 0.005609723315517652 0.002057527443398699 0
165 0.01440186825420801 0.003540996600510914 0
166 0.002420393435429326 0.002149264272030291 0
167 0.003503291892420666 0.003668339457112716 0
168 0.0154564871494401 0.002087333867635655 0
169 0.007997768708133526 0.001819637987805698 0
170 0.007681210831105455 0.001288631259522421 0
171 0.004817588212778456 0.003210145331893155 0
172 0.009054864875211255 0.002544444308909096 0
173 0.00973773847120281 0.001960082828064885 0
174 0.01573902129187319 0.003584079152169246 0
175 0.01688379976850761 0.001701684487635041 0
176 0.001057162410235389 0.001694478986023676 0
177 0.01069513465989113 0.002781084177067312 0
178 0.0168671578322789 0.005562413058539934 0
179 0.001126610436308162 0.005565008312963951 0
180 0.003952057955765276 0.005392508759927239 0
181 0.01267527601035681 0.001792288543804356 0
182 0.009978969878437726 0.003608289314077673 0
183 0.002180555892320734 0.003634999999999995 0
184 0.008837290362694429 0.001888376576791206 0.003
185 0.0138496982090542 0.002072706713732441 0.003
186 0.00411993131344887 0.00203502874587184 0.003
187 0.008225895028702241 0.005118705211878145 0.003
188 0.01164448599175187 0.005106597755262139 0.003
189 0.01536899606273393 0.005078608623325458 0.003
190 0.002640342356347311 0.005084998191130106 0.003
191 0.00119963686325939 0.002918130658088092 0.003
192 0.01670096189432334 0.002885000000000003 0.003
193 0.009914504342896853 0.004927715125184626 0.003
194 0.01103376626182404 0.003732079383263348 0.003
195 0.009022755991891717 0.003742533950031828 0.003
196 0.007545610951055654 0.003677909905210522 0.003
197 0.01265117976348772 0.003387252260452229 0.003
198 0.009850293610458234 0.002739016185223474 0.003
199 0.006572549790903937 0.005021879092734782 0.003
200 0.006098280119026645 0.003486406788291762 0.003
201 0.007087340912558468 0.002221403636622812 0.003
202 0.005007260287726802 0.004559063909365514 0.003
203 0.01346699654571048 0.005058597591554933 0.003
204 0.01160382196151902 0.002348964456744854 0.003
205 0.008248622321931709 0.002693484655535767 0.003
206 0.01057913676960717 0.001853962215893418 0.003
207 0.01676679309866056 0.004328456669374202 0.003
208 0.001192709825193501 0.004335043373689651 0.003
209 0.005609723315517652 0.002057527443398699 0.003
210 0.01440186825420801 0.003540996600510914 0.003
211 0.002420393435429326 0.002149264272030291 0.003
212 0.003503291892420666 0.003668339457112716 0.003
213 0.0154564871494401 0.002087333867635655 0.003
214 0.007997768708133526 0.001819637987805698 0.003
215 0.007681210831105455 0.001288631259522421 0.003
216 0.004817588212778456 0.003210145331893155 0.003
217 0.009054864875211255 0.002544444308909096 0.003
218 0.00973773847120281 0.001960082828064885 0.003
219 0.01573902129187319 0.003584079152169246 0.003
220 0.01688379976850761 0.001701684487635041 0.003
221 0.001057162410235389 0.001694478986023676 0.003
222 0.01069513465989113 0.002781084177067312 0.003
223 0.0168671578322789 0.005562413058539934 0.003
224 0.001126610436308162 0.005565008312963951 0.003
225 0.003952057955765276 0.005392508759927239 0.003
226 0.01267527601035681 0.001792288543804356 0.003
227 0.009978969878437726 0.003608289314077673 0.003
228 0.002180555892320734 0.003634999999999995 0.003
229 0 0.002884999999999994 0.001299038105676656
230 0 0.004384999999999997 0.00165347619449102
231 0 0.001621177499238534 0.001899476575255028
232 0 0.005651060862214708 0.001090183835054086
233 0 0.005745472337709385 0.002108186538457387
234 0 0.001504718200585413 0.0008669730972102815
235 0.006299999999999984 0.006635 0.0015
236 0.00809999999999998 0.006635 0.0015
237 0.009899999999999977 0.006635 0.0015
238 0.002774999999999994 0.006635 0.001465000000000001
239 0.004499999999999988 0.006635 0.0015
240 0.01169999999999998 0.006635 0.0015
241 0.01349999999999998 0.006635 0.0015
242 0.01522499999999999 0.006635 0.001534999999999999
243 0.01664999999999999 0.006635 0.001709999999999997
244 0.001349999999999994 0.006635 0.001290000000000004
245 0.0008005291545189405 0.006635 0.002230867346938777
246 0.01719947084548105 0.006635 0.0007691326530612254
247 0.018 0.004385000000000006 0.001299038105676656
248 0.018 0.002885000000000003 0.00165347619449102
249 0.018 0.005648822500761467 0.001899476575255028
250 0.018 0.001618939137785293 0.001090183835054086
251 0.018 0.001524527662290615 0.002108186538457387
252 0.018 0.005765281799414587 0.0008669730972102815
253 0.009000000000000001 0.0009350000000000001 0.0007500000000000014
254 0.009000000000000001 0.0009350000000000001 0.002250000000000002
255 0.007747540333699406 0.002364399988635309 0.0015
256 0.01025462526968681 0.003123324381600603 0.0015
257 0.005560612171757633 0.002872281714871263 0.0015
258 0.008272648329702651 0.003973886597784432 0.0015
259 0.001630012073342331 0.002247900163961208 0.0015
260 0.009358487516726289 0.00220807467195314 0.001228471220728147
261 0.0158900466660751 0.002780531727486679 0.0015
262 0.002036413015255045 0.004478603891808034 0.0015
263 0.01193252596173349 0.004034070065237788 0.001594491742763536
264 0.003373367343731255 0.002686229553007207 0.0015
265 0.01633498920435173 0.004984637564416776 0.0015
266 0.01117234362466638 0.001934069328737412 0.00138274101246987
$EndNodes
$Elements
777
1 4 2 1 1 57 8 128 122
2 4 2 1 1 72 18 135 137
3 4 2 1 1 119 40 3 121
4 4 2 1 1 129 119 3 121
5 4 2 1 1 7 57 129 121
6 4 2 1 1 19 72 136 138
7 4 2 1 1 120 137 1 39
8 4 2 1 1 119 4 40 122
9 4 2 1 1 45 23 5 116
10 4 2 1 1 6 26 53 116
11 4 2 1 1 21 5 112 44
12 4 2 1 1 6 24 112 52
13 4 2 1 1 62 22 10 23
14 4 2 1 1 62 25 26 11
15 4 2 1 1 49 120 2 136
16 4 2 1 1 3 119 129 48
17 4 2 1 1 21 67 22 14
18 4 2 1 1 67 25 15 24
19 4 2 1 1 22 62 5 23
20 4 2 1 1 25 62 26 6
21 4 2 1 1 67 21 22 5
22 4 2 1 1 25 67 6 24
23 4 2 1 1 112 133 44 113
24 4 2 1 1 126 45 118 116
25 4 2 1 1 53 127 118 116
26 4 2 1 1 134 113 112 52
27 4 2 1 1 22 62 67 5
28 4 2 1 1 25 62 6 67
29 4 2 1 1 137 1 18 135
30 4 2 1 1 128 8 4 122
31 4 2 1 1 67 13 62 22
32 4 2 1 1 25 62 67 16
33 4 2 1 1 62 112 6 67
34 4 2 1 1 67 112 5 62
35 4 2 1 1 135 137 1 120
36 4 2 1 1 119 128 4 122
37 4 2 1 1 13 62 22 10
38 4 2 1 1 134 112 24 52
39 4 2 1 1 22 14 67 13
40 4 2 1 1 62 25 11 16
41 4 2 1 1 16 67 25 15
42 4 2 1 1 127 53 26 116
43 4 2 1 1 112 62 6 116
44 4 2 1 1 62 112 5 116
45 4 2 1 1 133 21 112 44
46 4 2 1 1 23 45 126 116
47 4 2 1 1 61 46 118 45
48 4 2 1 1 66 54 53 118
49 4 2 1 1 44 68 43 113
50 4 2 1 1 51 52 113 73
51 4 2 1 1 70 117 132 131
52 4 2 1 1 64 114 125 124
53 4 2 1 1 114 47 59 48
54 4 2 1 1 50 75 117 49
55 4 2 1 1 111 123 125 60
56 4 2 1 1 115 69 132 130
57 4 2 1 1 65 54 111 55
58 4 2 1 1 46 60 111 47
59 4 2 1 1 51 115 50 74
60 4 2 1 1 123 65 111 125
61 4 2 1 1 43 42 115 69
62 4 2 1 1 130 132 115 74
63 4 2 1 1 124 114 125 59
64 4 2 1 1 117 75 132 131
65 4 2 1 1 71 41 70 131
66 4 2 1 1 115 43 130 113
67 4 2 1 1 123 111 118 46
68 4 2 1 1 111 118 54 123
69 4 2 1 1 113 130 115 51
70 4 2 1 1 63 56 64 124
71 4 2 1 1 117 70 41 131
72 4 2 1 1 62 5 23 116
73 4 2 1 1 26 6 62 116
74 4 2 1 1 114 56 64 55
75 4 2 1 1 124 114 59 48
76 4 2 1 1 64 56 114 124
77 4 2 1 1 49 75 117 131
78 4 2 1 1 41 42 70 117
79 4 2 1 1 69 115 43 130
80 4 2 1 1 51 130 115 74
81 4 2 1 1 112 5 21 67
82 4 2 1 1 24 6 112 67
83 4 2 1 1 111 123 60 46
84 4 2 1 1 128 4 63 56
85 4 2 1 1 54 65 111 123
86 4 2 1 1 125 114 111 47
87 4 2 1 1 115 117 50 132
88 4 2 1 1 123 60 46 61
89 4 2 1 1 69 43 68 130
90 4 2 1 1 66 65 54 123
91 4 2 1 1 71 18 1 135
92 4 2 1 1 128 4 8 63
93 4 2 1 1 111 114 125 55
94 4 2 1 1 112 133 113 134
95 4 2 1 1 74 51 130 73
96 4 2 1 1 126 118 127 116
97 4 2 1 1 115 42 117 132
98 4 2 1 1 58 124 59 48
99 4 2 1 1 47 60 125 59
100 4 2 1 1 49 76 75 131
101 4 2 1 1 47 125 114 59
102 4 2 1 1 50 117 75 132
103 4 2 1 1 75 50 132 74
104 4 2 1 1 4 128 119 56
105 4 2 1 1 70 42 69 132
106 4 2 1 1 69 42 115 132
107 4 2 1 1 23 126 62 116
108 4 2 1 1 112 21 133 67
109 4 2 1 1 60 125 111 47
110 4 2 1 1 132 50 115 74
111 4 2 1 1 62 127 26 116
112 4 2 1 1 65 125 64 55
113 4 2 1 1 125 65 111 55
114 4 2 1 1 9 23 126 62
115 4 2 1 1 133 21 17 67
116 4 2 1 1 67 112 24 134
117 4 2 1 1 127 26 12 62
118 4 2 1 1 42 70 117 132
119 4 2 1 1 130 43 68 113
120 4 2 1 1 46 118 123 61
121 4 2 1 1 64 125 114 55
122 4 2 1 1 113 130 51 73
123 4 2 1 1 67 24 20 134
124 4 2 1 1 118 66 54 123
125 4 2 1 1 124 119 114 48
126 4 2 1 1 117 120 49 131
127 4 2 1 1 68 44 133 113
128 4 2 1 1 118 61 45 126
129 4 2 1 1 127 66 53 118
130 4 2 1 1 52 134 113 73
131 4 2 1 1 58 129 124 48
132 4 2 1 1 62 10 9 23
133 4 2 1 1 11 62 12 26
134 4 2 1 1 76 49 136 131
135 4 2 1 1 68 17 133 44
136 4 2 1 1 45 61 9 126
137 4 2 1 1 67 14 21 17
138 4 2 1 1 15 67 24 20
139 4 2 1 1 53 12 66 127
140 4 2 1 1 20 73 134 52
141 4 2 1 1 135 72 137 39
142 4 2 1 1 40 57 128 122
143 4 2 1 1 58 3 129 48
144 4 2 1 1 2 76 49 136
145 4 2 1 1 118 123 61 126
146 4 2 1 1 119 124 129 48
147 4 2 1 1 40 128 119 122
148 4 2 1 1 130 68 133 113
149 4 2 1 1 76 2 19 136
150 4 2 1 1 120 135 137 39
151 4 2 1 1 7 3 129 58
152 4 2 1 1 118 127 66 123
153 4 2 1 1 136 49 120 131
154 4 2 1 1 130 113 134 73
155 4 2 1 1 133 130 113 134
156 4 2 1 1 123 118 127 126
157 4 2 1 1 133 17 21 44
158 4 2 1 1 117 41 120 131
159 4 2 1 1 119 114 56 124
160 4 2 1 1 9 23 45 126
161 4 2 1 1 71 135 120 131
162 4 2 1 1 53 26 12 127
163 4 2 1 1 134 24 20 52
164 4 2 1 1 41 71 120 131
165 4 2 1 1 3 7 129 121
166 4 2 1 1 138 19 2 136
167 4 2 1 1 124 128 119 129
168 4 2 1 1 120 135 136 131
169 4 2 1 1 62 126 127 116
170 4 2 1 1 67 133 112 134
171 4 2 1 1 121 57 128 40
172 4 2 1 1 128 57 121 129
173 4 2 1 1 128 119 121 40
174 4 2 1 1 121 119 128 129
175 4 2 1 1 56 128 124 63
176 4 2 1 1 56 124 128 119
177 4 2 1 1 71 120 1 41
178 4 2 1 1 1 120 71 135
179 4 2 1 1 2 138 120 39
180 4 2 1 1 120 138 2 136
181 4 2 1 1 138 135 120 39
182 4 2 1 1 120 135 138 136
183 4 2 1 1 138 72 135 39
184 4 2 1 1 135 72 138 136
185 4 2 2 2 210 203 189 165
186 4 2 2 2 210 165 189 265
187 4 2 2 2 158 144 203 165
188 4 2 2 2 144 189 203 165
189 4 2 2 2 165 185 152 140
190 4 2 2 2 200 257 199 258
191 4 2 2 2 155 154 257 258
192 4 2 2 2 185 165 152 210
193 4 2 2 2 144 189 165 265
194 4 2 2 2 185 140 165 261
195 4 2 2 2 185 181 226 263
196 4 2 2 2 185 165 210 261
197 4 2 2 2 210 261 165 265
198 4 2 2 2 225 167 212 262
199 4 2 2 2 193 256 148 263
200 4 2 2 2 180 167 225 262
201 4 2 2 2 144 203 242 158
202 4 2 2 2 242 189 203 144
203 4 2 2 2 241 242 203 158
204 4 2 2 2 202 257 216 264
205 4 2 2 2 171 257 157 264
206 4 2 2 2 199 257 154 258
207 4 2 2 2 174 165 261 265
208 4 2 2 2 219 261 210 265
209 4 2 2 2 226 263 181 266
210 4 2 2 2 148 256 193 258
211 4 2 2 2 202 225 167 212
212 4 2 2 2 202 212 167 264
213 4 2 2 2 240 241 203 263
214 4 2 2 2 240 158 241 263
215 4 2 2 2 206 218 256 260
216 4 2 2 2 225 167 180 202
217 4 2 2 2 167 212 262 264
218 4 2 2 2 185 125 226 181
219 4 2 2 2 254 184 218 260
220 4 2 2 2 185 125 140 261
221 4 2 2 2 125 185 140 181
222 4 2 2 2 212 202 216 264
223 4 2 2 2 167 171 157 264
224 4 2 2 2 217 195 256 260
225 4 2 2 2 197 185 226 263
226 4 2 2 2 241 158 203 263
227 4 2 2 2 150 182 148 256
228 4 2 2 2 227 195 193 256
229 4 2 2 2 157 257 202 264
230 4 2 2 2 155 151 154 258
231 4 2 2 2 196 200 199 258
232 4 2 2 2 242 189 144 265
233 4 2 2 2 157 154 199 257
234 4 2 2 2 167 157 180 202
235 4 2 2 2 148 256 149 263
236 4 2 2 2 193 194 256 263
237 4 2 2 2 167 157 202 264
238 4 2 2 2 236 237 187 258
239 4 2 2 2 142 237 236 258
240 4 2 2 2 236 199 154 258
241 4 2 2 2 143 158 240 263
242 4 2 2 2 240 203 188 263
243 4 2 2 2 92 253 169 139
244 4 2 2 2 184 92 254 214
245 4 2 2 2 157 199 202 257
246 4 2 2 2 206 110 218 260
247 4 2 2 2 174 144 165 265
248 4 2 2 2 219 210 189 265
249 4 2 2 2 210 197 203 263
250 4 2 2 2 237 148 193 258
251 4 2 2 2 157 154 235 199
252 4 2 2 2 217 205 258 260
253 4 2 2 2 237 142 148 258
254 4 2 2 2 193 187 237 258
255 4 2 2 2 180 225 238 262
256 4 2 2 2 184 254 92 260
257 4 2 2 2 154 236 235 199
258 4 2 2 2 226 181 123 266
259 4 2 2 2 168 140 125 261
260 4 2 2 2 235 239 157 202
261 4 2 2 2 185 213 125 261
262 4 2 2 2 198 256 218 260
263 4 2 2 2 199 235 157 202
264 4 2 2 2 236 187 199 258
265 4 2 2 2 154 142 236 258
266 4 2 2 2 199 200 202 257
267 4 2 2 2 154 157 155 257
268 4 2 2 2 206 218 198 256
269 4 2 2 2 195 193 256 258
270 4 2 2 2 150 256 148 258
271 4 2 2 2 180 239 225 202
272 4 2 2 2 251 250 128 261
273 4 2 2 2 255 258 205 260
274 4 2 2 2 130 255 156 257
275 4 2 2 2 130 201 255 257
276 4 2 2 2 217 258 195 260
277 4 2 2 2 195 258 256 260
278 4 2 2 2 149 148 182 256
279 4 2 2 2 193 194 227 256
280 4 2 2 2 168 125 124 261
281 4 2 2 2 254 218 110 260
282 4 2 2 2 213 124 125 261
283 4 2 2 2 195 198 217 256
284 4 2 2 2 220 251 128 261
285 4 2 2 2 218 184 217 260
286 4 2 2 2 125 123 226 181
287 4 2 2 2 217 256 198 260
288 4 2 2 2 239 180 157 202
289 4 2 2 2 191 259 229 262
290 4 2 2 2 92 253 139 260
291 4 2 2 2 239 238 180 225
292 4 2 2 2 162 147 247 261
293 4 2 2 2 160 172 258 260
294 4 2 2 2 201 200 255 257
295 4 2 2 2 155 156 255 257
296 4 2 2 2 190 238 225 262
297 4 2 2 2 207 248 192 261
298 4 2 2 2 145 180 238 262
299 4 2 2 2 139 169 92 255
300 4 2 2 2 214 184 92 255
301 4 2 2 2 217 198 218 260
302 4 2 2 2 247 261 207 265
303 4 2 2 2 208 191 230 262
304 4 2 2 2 147 175 250 261
305 4 2 2 2 146 229 259 262
306 4 2 2 2 206 260 256 266
307 4 2 2 2 133 156 130 255
308 4 2 2 2 196 201 200 255
309 4 2 2 2 151 155 156 255
310 4 2 2 2 150 256 258 260
311 4 2 2 2 247 248 207 261
312 4 2 2 2 180 145 167 262
313 4 2 2 2 225 212 190 262
314 4 2 2 2 146 163 229 262
315 4 2 2 2 248 250 251 261
316 4 2 2 2 230 191 229 262
317 4 2 2 2 206 198 222 256
318 4 2 2 2 153 161 177 256
319 4 2 2 2 173 126 161 260
320 4 2 2 2 232 244 233 262
321 4 2 2 2 134 130 201 255
322 4 2 2 2 139 160 169 255
323 4 2 2 2 214 205 184 255
324 4 2 2 2 247 162 261 265
325 4 2 2 2 184 92 255 260
326 4 2 2 2 256 263 222 266
327 4 2 2 2 254 37 184 214
328 4 2 2 2 169 253 30 139
329 4 2 2 2 247 147 248 261
330 4 2 2 2 204 263 226 266
331 4 2 2 2 203 95 241 240
332 4 2 2 2 241 240 79 158
333 4 2 2 2 160 258 255 260
334 4 2 2 2 148 149 143 263
335 4 2 2 2 193 188 194 263
336 4 2 2 2 141 132 257 264
337 4 2 2 2 78 242 241 158
338 4 2 2 2 183 146 259 262
339 4 2 2 2 228 259 191 262
340 4 2 2 2 186 257 132 264
341 4 2 2 2 220 248 251 261
342 4 2 2 2 153 256 150 260
343 4 2 2 2 244 224 233 262
344 4 2 2 2 217 205 195 258
345 4 2 2 2 150 160 172 258
346 4 2 2 2 150 258 172 260
347 4 2 2 2 159 181 263 266
348 4 2 2 2 132 164 141 257
349 4 2 2 2 206 110 260 266
350 4 2 2 2 186 209 132 257
351 4 2 2 2 242 203 94 241
352 4 2 2 2 78 144 242 158
353 4 2 2 2 245 233 244 224
354 4 2 2 2 130 156 164 257
355 4 2 2 2 147 250 248 261
356 4 2 2 2 124 129 175 261
357 4 2 2 2 233 230 232 262
358 4 2 2 2 195 227 198 256
359 4 2 2 2 150 153 182 256
360 4 2 2 2 130 209 201 257
361 4 2 2 2 177 263 256 266
362 4 2 2 2 168 165 140 261
363 4 2 2 2 213 185 210 261
364 4 2 2 2 124 128 129 261
365 4 2 2 2 30 92 253 169
366 4 2 2 2 37 254 92 214
367 4 2 2 2 153 173 161 260
368 4 2 2 2 143 79 240 158
369 4 2 2 2 95 203 188 240
370 4 2 2 2 164 132 130 257
371 4 2 2 2 203 94 189 242
372 4 2 2 2 132 209 130 257
373 4 2 2 2 222 206 256 266
374 4 2 2 2 232 163 179 262
375 4 2 2 2 190 224 238 262
376 4 2 2 2 92 139 255 260
377 4 2 2 2 259 262 228 264
378 4 2 2 2 183 262 259 264
379 4 2 2 2 134 133 130 255
380 4 2 2 2 153 161 256 260
381 4 2 2 2 172 153 150 260
382 4 2 2 2 238 224 244 262
383 4 2 2 2 174 261 162 265
384 4 2 2 2 219 207 261 265
385 4 2 2 2 233 224 230 262
386 4 2 2 2 174 147 162 261
387 4 2 2 2 207 192 219 261
388 4 2 2 2 188 96 240 237
389 4 2 2 2 240 237 80 143
390 4 2 2 2 97 187 236 237
391 4 2 2 2 237 142 236 81
392 4 2 2 2 244 232 179 262
393 4 2 2 2 192 248 220 261
394 4 2 2 2 183 163 146 262
395 4 2 2 2 228 191 208 262
396 4 2 2 2 177 256 161 266
397 4 2 2 2 239 157 83 235
398 4 2 2 2 99 239 235 202
399 4 2 2 2 139 160 255 260
400 4 2 2 2 128 124 220 261
401 4 2 2 2 229 163 230 262
402 4 2 2 2 253 173 139 260
403 4 2 2 2 140 168 125 59
404 4 2 2 2 125 168 124 59
405 4 2 2 2 206 127 110 266
406 4 2 2 2 96 188 193 237
407 4 2 2 2 237 80 143 148
408 4 2 2 2 141 257 171 264
409 4 2 2 2 216 257 186 264
410 4 2 2 2 97 193 187 237
411 4 2 2 2 81 237 142 148
412 4 2 2 2 232 230 163 262
413 4 2 2 2 177 149 256 263
414 4 2 2 2 194 222 256 263
415 4 2 2 2 98 235 236 199
416 4 2 2 2 82 154 236 235
417 4 2 2 2 224 190 238 101
418 4 2 2 2 125 64 213 185
419 4 2 2 2 213 64 125 124
420 4 2 2 2 169 156 170 255
421 4 2 2 2 215 201 214 255
422 4 2 2 2 161 256 260 266
423 4 2 2 2 170 156 133 255
424 4 2 2 2 224 238 244 101
425 4 2 2 2 220 124 213 261
426 4 2 2 2 134 201 215 255
427 4 2 2 2 36 254 218 110
428 4 2 2 2 187 98 236 199
429 4 2 2 2 154 142 82 236
430 4 2 2 2 204 222 263 266
431 4 2 2 2 92 30 170 169
432 4 2 2 2 92 215 37 214
433 4 2 2 2 247 162 87 147
434 4 2 2 2 139 172 160 260
435 4 2 2 2 191 221 231 259
436 4 2 2 2 161 260 126 266
437 4 2 2 2 226 204 197 263
438 4 2 2 2 159 181 152 263
439 4 2 2 2 168 124 175 261
440 4 2 2 2 145 244 179 262
441 4 2 2 2 199 99 235 202
442 4 2 2 2 157 154 83 235
443 4 2 2 2 132 131 75 264
444 4 2 2 2 132 75 186 264
445 4 2 2 2 75 131 211 264
446 4 2 2 2 230 224 208 262
447 4 2 2 2 29 161 173 126
448 4 2 2 2 132 70 131 264
449 4 2 2 2 166 131 70 264
450 4 2 2 2 183 167 262 264
451 4 2 2 2 212 228 262 264
452 4 2 2 2 75 211 186 264
453 4 2 2 2 68 133 156 130
454 4 2 2 2 177 159 263 266
455 4 2 2 2 141 70 132 264
456 4 2 2 2 230 208 106 191
457 4 2 2 2 69 164 132 130
458 4 2 2 2 74 130 132 209
459 4 2 2 2 248 192 103 207
460 4 2 2 2 69 164 141 132
461 4 2 2 2 73 134 130 201
462 4 2 2 2 238 244 145 262
463 4 2 2 2 87 248 247 147
464 4 2 2 2 141 166 70 264
465 4 2 2 2 132 186 74 209
466 4 2 2 2 160 151 255 258
467 4 2 2 2 205 255 196 258
468 4 2 2 2 191 231 229 259
469 4 2 2 2 126 260 110 266
470 4 2 2 2 142 154 151 258
471 4 2 2 2 187 196 199 258
472 4 2 2 2 148 142 150 258
473 4 2 2 2 187 193 195 258
474 4 2 2 2 90 229 146 163
475 4 2 2 2 29 173 253 260
476 4 2 2 2 202 200 216 257
477 4 2 2 2 157 171 155 257
478 4 2 2 2 249 207 223 265
479 4 2 2 2 106 229 230 191
480 4 2 2 2 166 259 131 264
481 4 2 2 2 211 259 228 264
482 4 2 2 2 183 259 166 264
483 4 2 2 2 164 68 156 130
484 4 2 2 2 246 178 252 265
485 4 2 2 2 222 198 227 256
486 4 2 2 2 153 177 182 256
487 4 2 2 2 175 86 147 250
488 4 2 2 2 201 130 73 209
489 4 2 2 2 186 216 209 257
490 4 2 2 2 164 171 141 257
491 4 2 2 2 221 76 136 259
492 4 2 2 2 222 227 194 256
493 4 2 2 2 182 177 149 256
494 4 2 2 2 220 128 63 124
495 4 2 2 2 176 135 71 259
496 4 2 2 2 85 179 145 244
497 4 2 2 2 249 247 207 265
498 4 2 2 2 201 196 205 255
499 4 2 2 2 156 160 151 255
500 4 2 2 2 221 107 191 231
501 4 2 2 2 244 245 224 101
502 4 2 2 2 131 259 211 264
503 4 2 2 2 207 103 248 247
504 4 2 2 2 177 159 149 263
505 4 2 2 2 194 204 222 263
506 4 2 2 2 248 147 86 250
507 4 2 2 2 201 209 200 257
508 4 2 2 2 155 164 156 257
509 4 2 2 2 220 251 248 102
510 4 2 2 2 210 219 213 261
511 4 2 2 2 174 165 168 261
512 4 2 2 2 68 133 170 156
513 4 2 2 2 213 220 63 124
514 4 2 2 2 105 230 233 224
515 4 2 2 2 248 220 102 192
516 4 2 2 2 223 104 207 249
517 4 2 2 2 197 188 203 263
518 4 2 2 2 143 152 158 263
519 4 2 2 2 229 176 146 259
520 4 2 2 2 163 90 229 230
521 4 2 2 2 134 73 215 201
522 4 2 2 2 157 83 180 239
523 4 2 2 2 99 225 239 202
524 4 2 2 2 66 127 206 266
525 4 2 2 2 176 229 234 259
526 4 2 2 2 229 191 107 231
527 4 2 2 2 244 145 85 238
528 4 2 2 2 176 71 166 259
529 4 2 2 2 76 221 211 259
530 4 2 2 2 229 176 91 146
531 4 2 2 2 144 77 242 265
532 4 2 2 2 66 206 204 266
533 4 2 2 2 88 247 252 178
534 4 2 2 2 234 229 176 91
535 4 2 2 2 204 226 123 266
536 4 2 2 2 160 156 169 255
537 4 2 2 2 201 205 214 255
538 4 2 2 2 249 104 207 247
539 4 2 2 2 204 123 66 266
540 4 2 2 2 183 146 166 259
541 4 2 2 2 228 211 191 259
542 4 2 2 2 189 242 93 265
543 4 2 2 2 163 179 89 232
544 4 2 2 2 135 131 71 259
545 4 2 2 2 234 231 135 259
546 4 2 2 2 93 223 189 265
547 4 2 2 2 145 183 167 262
548 4 2 2 2 212 228 190 262
549 4 2 2 2 243 93 242 265
550 4 2 2 2 221 136 231 259
551 4 2 2 2 252 178 247 265
552 4 2 2 2 178 77 144 265
553 4 2 2 2 176 234 135 259
554 4 2 2 2 134 92 133 255
555 4 2 2 2 232 89 163 230
556 4 2 2 2 181 125 123 60
557 4 2 2 2 239 238 225 100
558 4 2 2 2 220 213 192 261
559 4 2 2 2 147 168 175 261
560 4 2 2 2 224 105 230 208
561 4 2 2 2 168 175 124 58
562 4 2 2 2 129 124 175 58
563 4 2 2 2 159 61 181 266
564 4 2 2 2 226 65 123 125
565 4 2 2 2 178 88 247 162
566 4 2 2 2 222 204 206 266
567 4 2 2 2 110 29 253 260
568 4 2 2 2 76 131 136 259
569 4 2 2 2 93 243 223 265
570 4 2 2 2 242 77 243 265
571 4 2 2 2 135 231 136 259
572 4 2 2 2 238 180 84 239
573 4 2 2 2 123 181 61 266
574 4 2 2 2 71 131 166 259
575 4 2 2 2 204 226 66 123
576 4 2 2 2 195 205 196 258
577 4 2 2 2 160 150 151 258
578 4 2 2 2 254 110 92 260
579 4 2 2 2 178 162 247 265
580 4 2 2 2 134 92 215 37
581 4 2 2 2 133 92 30 170
582 4 2 2 2 139 253 29 173
583 4 2 2 2 218 184 254 36
584 4 2 2 2 174 162 144 265
585 4 2 2 2 219 189 207 265
586 4 2 2 2 212 216 186 264
587 4 2 2 2 167 141 171 264
588 4 2 2 2 238 190 225 100
589 4 2 2 2 127 126 110 266
590 4 2 2 2 76 211 131 259
591 4 2 2 2 36 37 254 38
592 4 2 2 2 190 238 101 100
593 4 2 2 2 252 249 109 246
594 4 2 2 2 145 179 163 262
595 4 2 2 2 190 208 224 262
596 4 2 2 2 30 29 253 31
597 4 2 2 2 84 145 180 238
598 4 2 2 2 167 183 166 264
599 4 2 2 2 212 211 228 264
600 4 2 2 2 97 96 193 237
601 4 2 2 2 81 80 237 148
602 4 2 2 2 79 78 241 158
603 4 2 2 2 203 95 94 241
604 4 2 2 2 77 144 242 78
605 4 2 2 2 229 231 234 259
606 4 2 2 2 243 249 223 265
607 4 2 2 2 252 247 249 265
608 4 2 2 2 147 87 248 86
609 4 2 2 2 181 140 125 60
610 4 2 2 2 84 85 145 238
611 4 2 2 2 172 139 173 260
612 4 2 2 2 127 66 123 266
613 4 2 2 2 226 65 125 185
614 4 2 2 2 166 71 70 131
615 4 2 2 2 94 93 189 242
616 4 2 2 2 32 92 253 30
617 4 2 2 2 92 33 254 37
618 4 2 2 2 254 38 37 33
619 4 2 2 2 61 159 161 266
620 4 2 2 2 61 161 126 266
621 4 2 2 2 191 106 229 107
622 4 2 2 2 63 64 213 124
623 4 2 2 2 30 31 253 32
624 4 2 2 2 236 98 187 97
625 4 2 2 2 142 82 236 81
626 4 2 2 2 172 173 153 260
627 4 2 2 2 195 196 187 258
628 4 2 2 2 151 150 142 258
629 4 2 2 2 136 131 135 259
630 4 2 2 2 200 209 216 257
631 4 2 2 2 155 171 164 257
632 4 2 2 2 166 141 167 264
633 4 2 2 2 212 186 211 264
634 4 2 2 2 103 207 104 247
635 4 2 2 2 164 69 68 130
636 4 2 2 2 154 82 83 235
637 4 2 2 2 98 99 235 199
638 4 2 2 2 130 74 73 209
639 4 2 2 2 188 96 95 240
640 4 2 2 2 80 79 240 143
641 4 2 2 2 76 211 75 131
642 4 2 2 2 59 168 124 58
643 4 2 2 2 192 213 219 261
644 4 2 2 2 174 168 147 261
645 4 2 2 2 60 140 125 59
646 4 2 2 2 249 223 34 243
647 4 2 2 2 90 163 89 230
648 4 2 2 2 143 149 152 263
649 4 2 2 2 197 194 188 263
650 4 2 2 2 249 243 109 246
651 4 2 2 2 232 179 28 244
652 4 2 2 2 176 166 146 259
653 4 2 2 2 211 221 191 259
654 4 2 2 2 208 190 228 262
655 4 2 2 2 163 183 145 262
656 4 2 2 2 92 110 253 260
657 4 2 2 2 132 186 75 74
658 4 2 2 2 64 125 65 185
659 4 2 2 2 141 70 69 132
660 4 2 2 2 60 123 181 61
661 4 2 2 2 189 223 207 265
662 4 2 2 2 178 144 162 265
663 4 2 2 2 123 61 126 266
664 4 2 2 2 251 128 8 220
665 4 2 2 2 65 66 226 123
666 4 2 2 2 243 34 249 109
667 4 2 2 2 28 232 244 108
668 4 2 2 2 177 161 159 266
669 4 2 2 2 192 102 248 103
670 4 2 2 2 149 159 152 263
671 4 2 2 2 194 197 204 263
672 4 2 2 2 18 234 135 176
673 4 2 2 2 38 110 254 36
674 4 2 2 2 110 31 253 29
675 4 2 2 2 83 84 180 239
676 4 2 2 2 100 225 239 99
677 4 2 2 2 246 27 178 77
678 4 2 2 2 101 245 224 35
679 4 2 2 2 250 175 7 129
680 4 2 2 2 146 91 229 90
681 4 2 2 2 57 128 251 250
682 4 2 2 2 223 93 34 243
683 4 2 2 2 231 221 19 136
684 4 2 2 2 179 85 28 244
685 4 2 2 2 234 72 135 231
686 4 2 2 2 162 88 247 87
687 4 2 2 2 123 126 127 266
688 4 2 2 2 135 71 18 176
689 4 2 2 2 68 17 170 133
690 4 2 2 2 63 8 128 220
691 4 2 2 2 208 105 230 106
692 4 2 2 2 20 73 215 134
693 4 2 2 2 57 128 250 129
694 4 2 2 2 231 72 135 136
695 4 2 2 2 224 245 233 35
696 4 2 2 2 8 57 128 251
697 4 2 2 2 61 161 29 126
698 4 2 2 2 246 27 252 178
699 4 2 2 2 7 86 175 250
700 4 2 2 2 66 36 206 127
701 4 2 2 2 18 72 135 234
702 4 2 2 2 220 8 251 102
703 4 2 2 2 29 30 253 139
704 4 2 2 2 37 36 254 184
705 4 2 2 2 19 107 221 231
706 4 2 2 2 176 18 234 91
707 4 2 2 2 88 252 27 178
708 4 2 2 2 92 30 17 133
709 4 2 2 2 19 221 76 136
710 4 2 2 2 129 175 7 58
711 4 2 2 2 233 105 224 35
712 4 2 2 2 89 179 28 232
713 4 2 2 2 223 34 104 249
714 4 2 2 2 92 20 37 134
715 4 2 2 2 32 92 30 17
716 4 2 2 2 20 92 37 33
717 4 2 2 2 61 29 9 126
718 4 2 2 2 57 7 129 250
719 4 2 2 2 72 19 136 231
720 4 2 2 2 66 12 36 127
721 4 2 2 2 108 233 245 35
722 4 2 2 2 17 92 133 67
723 4 2 2 2 252 109 27 246
724 4 2 2 2 110 127 12 62
725 4 2 2 2 20 92 67 134
726 4 2 2 2 127 12 36 110
727 4 2 2 2 110 38 11 12
728 4 2 2 2 14 92 32 17
729 4 2 2 2 20 92 33 15
730 4 2 2 2 38 110 36 12
731 4 2 2 2 31 62 10 9
732 4 2 2 2 110 11 62 12
733 4 2 2 2 92 14 67 17
734 4 2 2 2 92 20 67 15
735 4 2 2 2 30 17 133 170
736 4 2 2 2 215 20 134 37
737 4 2 2 2 127 110 126 62
738 4 2 2 2 92 133 67 134
739 4 2 2 2 152 185 181 140
740 4 2 2 2 152 181 185 263
741 4 2 2 2 210 152 203 165
742 4 2 2 2 210 203 152 263
743 4 2 2 2 158 203 152 165
744 4 2 2 2 158 152 203 263
745 4 2 2 2 263 185 210 197
746 4 2 2 2 263 210 185 152
747 4 2 2 2 258 155 255 257
748 4 2 2 2 258 255 155 151
749 4 2 2 2 258 200 255 196
750 4 2 2 2 258 255 200 257
751 4 2 2 2 260 205 184 217
752 4 2 2 2 260 184 205 255
753 4 2 2 2 129 261 250 175
754 4 2 2 2 250 261 129 128
755 4 2 2 2 206 110 36 218
756 4 2 2 2 36 110 206 127
757 4 2 2 2 170 255 92 169
758 4 2 2 2 92 255 170 133
759 4 2 2 2 215 255 92 134
760 4 2 2 2 92 255 215 214
761 4 2 2 2 260 29 126 110
762 4 2 2 2 260 126 29 173
763 4 2 2 2 265 246 77 243
764 4 2 2 2 265 77 246 178
765 4 2 2 2 249 246 265 243
766 4 2 2 2 265 246 249 252
767 4 2 2 2 244 233 108 232
768 4 2 2 2 108 233 244 245
769 4 2 2 2 29 31 126 110
770 4 2 2 2 29 126 31 9
771 4 2 2 2 62 126 31 110
772 4 2 2 2 62 31 126 9
773 4 2 2 2 193 263 237 188
774 4 2 2 2 240 237 263 188
775 4 2 2 2 240 263 237 143
776 4 2 2 2 263 237 148 193
777 4 2 2 2 263 148 237 143
$EndElements
