$MeshFormat
2.2 0 8
$EndMeshFormat
$PhysicalNames
1
3 1 "air_OPEM_RESERVED_1"
$EndPhysicalNames
$Nodes
186
1 0 0 0
2 0.01143 0 0
3 0.02286 0 0
4 0.02286 0 0.04000000000000001
5 0.02285 0 0.04000000000000001
6 0.02285 0 0.06
7 0.02286 0 0.06
8 0.02286 0 0.1
9 0 0 0.1
10 0.01143 0 0.1
11 0 0.01016 0
12 0.01143 0.01016 0
13 0.02286 0.01016 0
14 0.02286 0.01016 0.04000000000000001
15 0.02285 0.01016 0.04000000000000001
16 0.02285 0.01016 0.06
17 0.02286 0.01016 0.06
18 0.02286 0.01016 0.1
19 0 0.01016 0.1
20 0.01143 0.01016 0.1
21 0.005715000000000009 0 0
22 0.017145 0 0
23 0.02286 0 0.008
24 0.02286 0 0.01599999999999999
25 0.02286 0 0.02399999999999999
26 0.02286 0 0.03199999999999998
27 0.02285 0 0.04666666666666667
28 0.02285 0 0.05333333333333333
29 0.02286 0 0.068
30 0.02286 0 0.07600000000000003
31 0.02286 0 0.08400000000000003
32 0.02286 0 0.09200000000000003
33 0.005715000000000009 0 0.1
34 0.017145 0 0.1
35 0 0 0.009090909090909101
36 0 0 0.01818181818181821
37 0 0 0.02727272727272732
38 0 0 0.03636363636363642
39 0 0 0.04545454545454553
40 0 0 0.05454545454545463
41 0 0 0.06363636363636373
42 0 0 0.07272727272727281
43 0 0 0.08181818181818189
44 0 0 0.09090909090909094
45 0 0.005079999999999999 0
46 0.005715000000000001 0.01016 0
47 0.01143 0.005080000000000001 0
48 0.01714499999999999 0.01016 0
49 0.02286 0.005080000000000001 0
50 0.02286 0.01016 0.008
51 0.02286 0.01016 0.01599999999999999
52 0.02286 0.01016 0.02399999999999999
53 0.02286 0.01016 0.03199999999999998
54 0.02286 0.005079999999999999 0.04000000000000001
55 0.02285 0.005079999999999999 0.04000000000000001
56 0.02285 0.01016 0.05333333333333334
57 0.02285 0.01016 0.04666666666666668
58 0.02285 0.005080000000000001 0.06
59 0.02286 0.005080000000000001 0.06
60 0.02286 0.01016 0.068
61 0.02286 0.01016 0.07600000000000003
62 0.02286 0.01016 0.08400000000000003
63 0.02286 0.01016 0.09200000000000003
64 0.02286 0.005080000000000001 0.1
65 0 0.005079999999999999 0.1
66 0.005715000000000001 0.01016 0.1
67 0.01143 0.005080000000000001 0.1
68 0.01714499999999999 0.01016 0.1
69 0 0.01016 0.009090909090909101
70 0 0.01016 0.01818181818181821
71 0 0.01016 0.02727272727272732
72 0 0.01016 0.03636363636363642
73 0 0.01016 0.04545454545454553
74 0 0.01016 0.05454545454545463
75 0 0.01016 0.06363636363636373
76 0 0.01016 0.07272727272727281
77 0 0.01016 0.08181818181818189
78 0 0.01016 0.09090909090909094
79 0.01838145549974154 0 0.04356242311194861
80 0.01827725744263217 0 0.05652195789093575
81 0.01611090035115889 0 0.08839531105804606
82 0.01611090035115888 0 0.01160468894195397
83 0.01509167882926847 0 0.0724597517281558
84 0.01509167882926848 0 0.02754024827184424
85 0.006370227418730515 0 0.04996491644621974
86 0.01811064626468407 0 0.03831889869012153
87 0.01394073616991759 0 0.04083195807197398
88 0.01808980665326219 0 0.06169797751045535
89 0.01334764172770158 0 0.05893963643631091
90 0.008668419012467142 0 0.09490025704817168
91 0.008668419012467139 0 0.005099742951828352
92 0.01780957816172427 0 0.05038105103097039
93 0.007872958216222147 0 0.07727272727272737
94 0.007872958216222182 0 0.02272727272727276
95 0.007006388266468118 0 0.03161104064386559
96 0.007006388266468107 0 0.0683889593561345
97 0.007812292328796459 0 0.08696496933892543
98 0.007812292328796457 0 0.01303503066107467
99 0.01575061656485928 0 0.01969067302005257
100 0.0157506165648593 0 0.08030932697994746
101 0.01413113656060437 0 0.0949937939759168
102 0.01413113656060433 0 0.005006206024083252
103 0.01245915351669686 0 0.04648713815290581
104 0.007574234827808511 0 0.04079521477882413
105 0.007011767053128849 0 0.05911734662282025
106 0.0132431384228465 0 0.06514673168137818
107 0.0132431384228465 0 0.03485326831862189
108 0.01242236971959574 0 0.05327338934723118
109 0.01901600527310903 0 0.004658699280862461
110 0.01901600527310904 0 0.09534130071913759
111 0.003516931811928113 0 0.004935376664146751
112 0.003516931811928063 0 0.09506462333585333
113 0.01152135825920434 0 0.009097240436583762
114 0.01152135825920445 0 0.09090275956341634
115 0.003284001564263866 0.003211123240203153 0
116 0.007530741420162679 0.005038674830888417 0
117 0.003421731391168043 0.006709857031874729 0
118 0.01957599843573613 0.006948876759796847 0
119 0.01532925857983732 0.005121325169111584 0
120 0.01943826860883196 0.003450142968125271 0
121 0.02286 0.005079999999999999 0.012
122 0.02286 0.005079999999999999 0.02799999999999997
123 0.02286 0.005079999999999999 0.01999999999999999
124 0.02286 0.005079999999999999 0.03486987210884353
125 0.02286 0.005079999999999999 0.005130127891156461
126 0.02284999999999999 0.005079999999999997 0.05
127 0.02284999999999999 0.00543277340332458 0.055
128 0.02284999999999999 0.004727226596675412 0.04500000000000001
129 0.02286 0.005079999999999999 0.07200000000000004
130 0.02286 0.005079999999999994 0.08799999999999998
131 0.02286 0.005079999999999999 0.08000000000000003
132 0.02286 0.00508 0.09486987210884359
133 0.02286 0.005079999999999999 0.06513012789115645
134 0.003284001564263866 0.003211123240203153 0.1
135 0.007530741420162679 0.005038674830888417 0.1
136 0.003421731391168043 0.006709857031874729 0.1
137 0.01957599843573613 0.006948876759796847 0.1
138 0.01532925857983732 0.005121325169111584 0.1
139 0.01943826860883196 0.003450142968125271 0.1
140 0 0.005080000000000006 0.07727272727272734
141 0 0.00508 0.08636363636363638
142 0 0.005080000000000001 0.09469696969696972
143 0 0.00508 0.06818181818181826
144 0 0.00508 0.05909090909090918
145 0 0.005080000000000001 0.05000000000000008
146 0 0.00508 0.01363636363636365
147 0 0.00508 0.005303030303030309
148 0 0.005080000000000003 0.04090909090909098
149 0 0.005079999999999999 0.02272727272727276
150 0 0.005080000000000001 0.03181818181818187
151 0.01838145549974154 0.01016 0.04356242311194862
152 0.01827725744263218 0.01016 0.05652195789093577
153 0.01611090035115888 0.01016 0.08839531105804604
154 0.01611090035115888 0.01016 0.01160468894195397
155 0.01509167882926848 0.01016 0.07245975172815582
156 0.01509167882926848 0.01016 0.02754024827184424
157 0.006370227418730522 0.01016 0.04996491644621974
158 0.01811064626468407 0.01016 0.03831889869012154
159 0.01394073616991759 0.01016 0.040831958071974
160 0.0180898066532622 0.01016 0.06169797751045539
161 0.01334764172770159 0.01016 0.05893963643631095
162 0.008668419012467133 0.01016 0.09490025704817165
163 0.008668419012467137 0.01016 0.005099742951828355
164 0.01780957816172427 0.01016 0.0503810510309704
165 0.007872958216222147 0.01016 0.07727272727272737
166 0.007872958216222182 0.01016 0.02272727272727276
167 0.007006388266468121 0.01016 0.03161104064386559
168 0.007006388266468121 0.01016 0.06838895935613451
169 0.00781229232879644 0.01016 0.08696496933892539
170 0.007812292328796464 0.01016 0.01303503066107467
171 0.01575061656485928 0.01016 0.01969067302005257
172 0.01575061656485929 0.01016 0.08030932697994746
173 0.01413113656060433 0.01016 0.09499379397591674
174 0.01413113656060433 0.01016 0.005006206024083251
175 0.01245915351669687 0.01016 0.04648713815290582
176 0.007011767053128861 0.01016 0.05911734662282027
177 0.007574234827808517 0.01016 0.04079521477882414
178 0.01324313842284655 0.01016 0.06514673168137823
179 0.0132431384228465 0.01016 0.03485326831862189
180 0.01242236971959574 0.01016 0.05327338934723122
181 0.01901600527310903 0.01016 0.004658699280862461
182 0.01901600527310903 0.01016 0.09534130071913759
183 0.003516931811928123 0.01016 0.0950646233358533
184 0.003516931811928112 0.01016 0.004935376664146753
185 0.01152135825920434 0.01016 0.00909724043658376
186 0.0115213582592043 0.01016 0.09090275956341622
$EndNodes
$Elements
450
1 4 2 1 1 153 114 101 186
2 4 2 1 1 102 82 185 113
3 4 2 1 1 114 162 101 186
4 4 2 1 1 102 185 163 113
5 4 2 1 1 103 151 92 79
6 4 2 1 1 164 92 175 151
7 4 2 1 1 151 175 159 87
8 4 2 1 1 169 114 153 186
9 4 2 1 1 98 185 82 113
10 4 2 1 1 180 89 152 161
11 4 2 1 1 92 151 128 79
12 4 2 1 1 164 92 151 128
13 4 2 1 1 169 162 114 186
14 4 2 1 1 98 163 185 113
15 4 2 1 1 103 87 151 79
16 4 2 1 1 152 80 89 180
17 4 2 1 1 151 103 92 175
18 4 2 1 1 173 101 186 153
19 4 2 1 1 185 174 82 102
20 4 2 1 1 80 152 164 180
21 4 2 1 1 92 80 164 180
22 4 2 1 1 160 58 80 152
23 4 2 1 1 79 151 55 86
24 4 2 1 1 89 160 152 161
25 4 2 1 1 164 152 80 127
26 4 2 1 1 87 151 175 103
27 4 2 1 1 80 92 164 127
28 4 2 1 1 180 164 92 175
29 4 2 1 1 101 162 67 173
30 4 2 1 1 174 163 47 102
31 4 2 1 1 104 159 175 87
32 4 2 1 1 105 89 180 161
33 4 2 1 1 162 101 186 173
34 4 2 1 1 174 185 163 102
35 4 2 1 1 160 80 89 152
36 4 2 1 1 128 164 92 126
37 4 2 1 1 181 119 118 120
38 4 2 1 1 138 137 139 182
39 4 2 1 1 82 174 181 102
40 4 2 1 1 153 173 101 182
41 4 2 1 1 158 151 159 87
42 4 2 1 1 108 89 80 180
43 4 2 1 1 80 92 108 180
44 4 2 1 1 175 92 108 103
45 4 2 1 1 117 115 116 147
46 4 2 1 1 134 142 136 135
47 4 2 1 1 154 185 174 82
48 4 2 1 1 114 153 101 81
49 4 2 1 1 151 158 55 86
50 4 2 1 1 80 88 58 160
51 4 2 1 1 79 87 151 86
52 4 2 1 1 102 181 82 109
53 4 2 1 1 81 101 110 182
54 4 2 1 1 105 106 89 161
55 4 2 1 1 180 92 108 175
56 4 2 1 1 87 175 104 103
57 4 2 1 1 101 162 90 67
58 4 2 1 1 91 47 163 102
59 4 2 1 1 162 114 101 90
60 4 2 1 1 102 163 91 113
61 4 2 1 1 137 132 139 182
62 4 2 1 1 125 181 118 120
63 4 2 1 1 175 157 104 103
64 4 2 1 1 89 88 80 160
65 4 2 1 1 89 108 105 180
66 4 2 1 1 185 154 170 82
67 4 2 1 1 114 81 97 153
68 4 2 1 1 163 98 91 113
69 4 2 1 1 90 97 162 114
70 4 2 1 1 181 174 119 102
71 4 2 1 1 173 138 101 182
72 4 2 1 1 107 159 104 87
73 4 2 1 1 181 154 174 82
74 4 2 1 1 101 81 153 182
75 4 2 1 1 119 174 47 102
76 4 2 1 1 138 101 67 173
77 4 2 1 1 127 92 164 126
78 4 2 1 1 158 151 87 86
79 4 2 1 1 108 157 105 180
80 4 2 1 1 155 129 83 133
81 4 2 1 1 124 156 122 84
82 4 2 1 1 175 108 157 103
83 4 2 1 1 102 119 181 109
84 4 2 1 1 138 110 101 182
85 4 2 1 1 152 58 80 127
86 4 2 1 1 160 89 106 161
87 4 2 1 1 110 139 132 138
88 4 2 1 1 120 125 119 109
89 4 2 1 1 55 128 151 79
90 4 2 1 1 119 181 125 120
91 4 2 1 1 138 139 132 182
92 4 2 1 1 108 175 157 180
93 4 2 1 1 177 104 159 175
94 4 2 1 1 180 176 105 161
95 4 2 1 1 87 158 107 159
96 4 2 1 1 104 177 157 175
97 4 2 1 1 85 104 157 103
98 4 2 1 1 170 154 171 82
99 4 2 1 1 81 172 97 153
100 4 2 1 1 156 123 122 84
101 4 2 1 1 131 129 83 155
102 4 2 1 1 95 94 156 84
103 4 2 1 1 96 93 83 155
104 4 2 1 1 95 166 167 156
105 4 2 1 1 157 108 105 85
106 4 2 1 1 157 176 105 180
107 4 2 1 1 155 83 106 133
108 4 2 1 1 107 156 124 84
109 4 2 1 1 168 165 96 155
110 4 2 1 1 185 170 98 82
111 4 2 1 1 114 169 153 97
112 4 2 1 1 162 112 97 90
113 4 2 1 1 98 91 111 163
114 4 2 1 1 167 95 104 150
115 4 2 1 1 104 148 177 150
116 4 2 1 1 167 104 177 150
117 4 2 1 1 95 94 166 156
118 4 2 1 1 93 96 165 155
119 4 2 1 1 146 149 94 166
120 4 2 1 1 141 140 165 93
121 4 2 1 1 106 105 176 161
122 4 2 1 1 176 168 143 96
123 4 2 1 1 105 176 143 96
124 4 2 1 1 98 163 170 185
125 4 2 1 1 169 162 97 114
126 4 2 1 1 144 176 143 105
127 4 2 1 1 177 148 104 157
128 4 2 1 1 85 104 148 157
129 4 2 1 1 88 89 106 160
130 4 2 1 1 108 85 157 103
131 4 2 1 1 85 157 144 105
132 4 2 1 1 144 157 176 105
133 4 2 1 1 167 149 95 150
134 4 2 1 1 85 157 145 144
135 4 2 1 1 82 171 121 154
136 4 2 1 1 172 81 130 153
137 4 2 1 1 95 166 149 167
138 4 2 1 1 178 155 106 133
139 4 2 1 1 156 107 124 179
140 4 2 1 1 143 168 140 96
141 4 2 1 1 157 148 85 145
142 4 2 1 1 140 168 165 96
143 4 2 1 1 158 87 107 86
144 4 2 1 1 179 104 159 177
145 4 2 1 1 135 90 162 67
146 4 2 1 1 47 116 91 163
147 4 2 1 1 166 94 146 170
148 4 2 1 1 97 141 165 93
149 4 2 1 1 170 166 94 171
150 4 2 1 1 165 97 93 100
151 4 2 1 1 106 176 178 161
152 4 2 1 1 148 72 177 150
153 4 2 1 1 148 104 38 150
154 4 2 1 1 94 36 149 146
155 4 2 1 1 166 146 149 70
156 4 2 1 1 165 77 140 141
157 4 2 1 1 140 141 43 93
158 4 2 1 1 183 169 162 112
159 4 2 1 1 163 111 98 184
160 4 2 1 1 167 177 72 150
161 4 2 1 1 104 95 38 150
162 4 2 1 1 96 105 176 106
163 4 2 1 1 96 176 168 106
164 4 2 1 1 166 95 149 94
165 4 2 1 1 158 107 124 86
166 4 2 1 1 160 106 88 133
167 4 2 1 1 99 98 171 82
168 4 2 1 1 171 98 170 82
169 4 2 1 1 172 81 97 100
170 4 2 1 1 172 169 97 153
171 4 2 1 1 96 165 140 93
172 4 2 1 1 84 123 122 25
173 4 2 1 1 123 52 156 122
174 4 2 1 1 30 129 83 131
175 4 2 1 1 61 129 131 155
176 4 2 1 1 179 95 104 167
177 4 2 1 1 167 104 179 177
178 4 2 1 1 169 183 142 112
179 4 2 1 1 147 98 111 184
180 4 2 1 1 143 41 144 105
181 4 2 1 1 75 176 143 144
182 4 2 1 1 107 95 156 84
183 4 2 1 1 94 98 146 170
184 4 2 1 1 165 169 141 97
185 4 2 1 1 94 98 171 99
186 4 2 1 1 94 98 170 171
187 4 2 1 1 165 169 97 172
188 4 2 1 1 100 165 97 172
189 4 2 1 1 96 83 106 155
190 4 2 1 1 123 156 99 84
191 4 2 1 1 131 83 100 155
192 4 2 1 1 55 158 124 86
193 4 2 1 1 179 95 167 156
194 4 2 1 1 138 132 110 182
195 4 2 1 1 125 181 119 109
196 4 2 1 1 88 58 160 133
197 4 2 1 1 179 104 107 159
198 4 2 1 1 93 100 83 155
199 4 2 1 1 99 156 94 84
200 4 2 1 1 105 143 41 96
201 4 2 1 1 143 168 176 75
202 4 2 1 1 168 106 155 96
203 4 2 1 1 37 95 149 150
204 4 2 1 1 167 71 149 150
205 4 2 1 1 106 176 168 178
206 4 2 1 1 42 143 140 96
207 4 2 1 1 143 168 76 140
208 4 2 1 1 145 157 74 144
209 4 2 1 1 40 85 145 144
210 4 2 1 1 116 117 147 184
211 4 2 1 1 183 136 142 135
212 4 2 1 1 95 179 104 107
213 4 2 1 1 157 73 148 145
214 4 2 1 1 39 85 148 145
215 4 2 1 1 162 112 90 135
216 4 2 1 1 116 111 91 163
217 4 2 1 1 74 157 176 144
218 4 2 1 1 144 40 85 105
219 4 2 1 1 169 162 112 97
220 4 2 1 1 170 163 98 184
221 4 2 1 1 100 93 165 155
222 4 2 1 1 156 94 166 171
223 4 2 1 1 111 116 115 147
224 4 2 1 1 142 134 112 135
225 4 2 1 1 170 146 166 70
226 4 2 1 1 36 94 98 146
227 4 2 1 1 77 165 169 141
228 4 2 1 1 97 43 141 93
229 4 2 1 1 177 73 148 157
230 4 2 1 1 39 85 104 148
231 4 2 1 1 156 179 95 107
232 4 2 1 1 106 168 155 178
233 4 2 1 1 98 147 170 184
234 4 2 1 1 112 142 169 97
235 4 2 1 1 171 82 121 99
236 4 2 1 1 130 100 81 172
237 4 2 1 1 37 95 94 149
238 4 2 1 1 149 166 71 167
239 4 2 1 1 121 123 171 99
240 4 2 1 1 100 130 131 172
241 4 2 1 1 165 76 168 140
242 4 2 1 1 96 140 42 93
243 4 2 1 1 178 160 106 161
244 4 2 1 1 155 60 129 133
245 4 2 1 1 29 83 129 133
246 4 2 1 1 84 122 124 26
247 4 2 1 1 124 156 53 122
248 4 2 1 1 156 171 123 99
249 4 2 1 1 172 131 100 155
250 4 2 1 1 100 165 172 155
251 4 2 1 1 171 156 94 99
252 4 2 1 1 99 121 123 24
253 4 2 1 1 123 171 51 121
254 4 2 1 1 130 131 172 62
255 4 2 1 1 130 31 100 131
256 4 2 1 1 142 141 112 44
257 4 2 1 1 142 78 183 141
258 4 2 1 1 184 147 146 69
259 4 2 1 1 146 111 35 147
260 4 2 1 1 159 179 158 107
261 4 2 1 1 147 146 98 170
262 4 2 1 1 141 169 142 97
263 4 2 1 1 107 158 124 179
264 4 2 1 1 178 106 160 133
265 4 2 1 1 112 162 183 135
266 4 2 1 1 116 111 163 184
267 4 2 1 1 171 154 51 121
268 4 2 1 1 121 99 82 24
269 4 2 1 1 153 130 172 62
270 4 2 1 1 31 100 81 130
271 4 2 1 1 132 130 182 63
272 4 2 1 1 32 110 132 130
273 4 2 1 1 125 50 181 121
274 4 2 1 1 121 125 23 109
275 4 2 1 1 128 57 164 126
276 4 2 1 1 171 52 156 123
277 4 2 1 1 84 99 123 25
278 4 2 1 1 83 100 30 131
279 4 2 1 1 131 172 61 155
280 4 2 1 1 170 147 146 184
281 4 2 1 1 146 98 111 147
282 4 2 1 1 183 169 142 141
283 4 2 1 1 112 141 142 97
284 4 2 1 1 57 164 151 128
285 4 2 1 1 60 155 178 133
286 4 2 1 1 106 83 29 133
287 4 2 1 1 84 124 107 26
288 4 2 1 1 156 179 124 53
289 4 2 1 1 110 32 81 130
290 4 2 1 1 182 130 153 63
291 4 2 1 1 154 181 50 121
292 4 2 1 1 82 121 23 109
293 4 2 1 1 141 112 44 97
294 4 2 1 1 169 183 78 141
295 4 2 1 1 146 170 184 69
296 4 2 1 1 98 111 35 146
297 4 2 1 1 92 128 126 27
298 4 2 1 1 79 128 92 27
299 4 2 1 1 112 183 142 135
300 4 2 1 1 111 116 147 184
301 4 2 1 1 127 28 92 126
302 4 2 1 1 92 80 28 127
303 4 2 1 1 120 119 22 109
304 4 2 1 1 139 110 34 138
305 4 2 1 1 119 48 181 118
306 4 2 1 1 68 137 138 182
307 4 2 1 1 178 160 60 133
308 4 2 1 1 29 88 106 133
309 4 2 1 1 86 107 124 26
310 4 2 1 1 158 124 179 53
311 4 2 1 1 117 116 46 184
312 4 2 1 1 136 183 66 135
313 4 2 1 1 116 21 111 115
314 4 2 1 1 112 134 33 135
315 4 2 1 1 67 162 20 173
316 4 2 1 1 90 10 101 67
317 4 2 1 1 163 47 12 174
318 4 2 1 1 47 91 2 102
319 4 2 1 1 127 164 56 126
320 4 2 1 1 119 47 2 102
321 4 2 1 1 10 101 67 138
322 4 2 1 1 56 152 164 127
323 4 2 1 1 138 67 20 173
324 4 2 1 1 174 47 12 119
325 4 2 1 1 118 49 125 120
326 4 2 1 1 64 132 139 137
327 4 2 1 1 102 22 119 109
328 4 2 1 1 110 101 34 138
329 4 2 1 1 135 162 20 67
330 4 2 1 1 47 12 116 163
331 4 2 1 1 10 90 135 67
332 4 2 1 1 116 91 2 47
333 4 2 1 1 174 48 181 119
334 4 2 1 1 138 173 68 182
335 4 2 1 1 2 22 119 102
336 4 2 1 1 101 10 34 138
337 4 2 1 1 57 56 164 126
338 4 2 1 1 126 28 92 27
339 4 2 1 1 80 58 6 127
340 4 2 1 1 173 20 138 68
341 4 2 1 1 12 48 174 119
342 4 2 1 1 125 49 3 120
343 4 2 1 1 132 139 8 64
344 4 2 1 1 13 118 49 125
345 4 2 1 1 18 132 64 137
346 4 2 1 1 117 45 115 147
347 4 2 1 1 136 65 142 134
348 4 2 1 1 128 151 15 55
349 4 2 1 1 160 16 58 152
350 4 2 1 1 88 58 6 80
351 4 2 1 1 152 16 58 127
352 4 2 1 1 15 151 158 55
353 4 2 1 1 55 5 79 86
354 4 2 1 1 130 153 63 62
355 4 2 1 1 154 50 51 121
356 4 2 1 1 32 31 81 130
357 4 2 1 1 82 23 121 24
358 4 2 1 1 20 66 162 135
359 4 2 1 1 163 12 116 46
360 4 2 1 1 88 6 58 133
361 4 2 1 1 160 58 16 133
362 4 2 1 1 10 90 33 135
363 4 2 1 1 91 2 21 116
364 4 2 1 1 55 124 5 86
365 4 2 1 1 158 124 15 55
366 4 2 1 1 55 5 128 79
367 4 2 1 1 46 116 163 184
368 4 2 1 1 162 66 183 135
369 4 2 1 1 59 58 7 133
370 4 2 1 1 14 55 124 54
371 4 2 1 1 54 124 4 55
372 4 2 1 1 16 59 133 58
373 4 2 1 1 148 72 73 177
374 4 2 1 1 38 39 104 148
375 4 2 1 1 36 37 94 149
376 4 2 1 1 165 77 76 140
377 4 2 1 1 149 166 70 71
378 4 2 1 1 140 43 42 93
379 4 2 1 1 33 90 112 135
380 4 2 1 1 91 21 111 116
381 4 2 1 1 60 129 61 155
382 4 2 1 1 29 129 83 30
383 4 2 1 1 26 84 122 25
384 4 2 1 1 52 53 156 122
385 4 2 1 1 118 13 181 125
386 4 2 1 1 137 18 132 182
387 4 2 1 1 28 80 6 127
388 4 2 1 1 120 3 125 109
389 4 2 1 1 8 110 139 132
390 4 2 1 1 146 170 69 70
391 4 2 1 1 35 36 98 146
392 4 2 1 1 169 78 77 141
393 4 2 1 1 141 44 43 97
394 4 2 1 1 57 151 15 128
395 4 2 1 1 37 38 95 150
396 4 2 1 1 167 72 71 150
397 4 2 1 1 75 74 176 144
398 4 2 1 1 41 40 144 105
399 4 2 1 1 11 45 117 147
400 4 2 1 1 19 136 65 142
401 4 2 1 1 42 41 143 96
402 4 2 1 1 143 168 75 76
403 4 2 1 1 1 115 45 147
404 4 2 1 1 142 65 9 134
405 4 2 1 1 24 123 99 25
406 4 2 1 1 51 52 171 123
407 4 2 1 1 172 131 61 62
408 4 2 1 1 100 31 30 131
409 4 2 1 1 3 23 125 109
410 4 2 1 1 13 50 181 125
411 4 2 1 1 110 8 32 132
412 4 2 1 1 182 18 132 63
413 4 2 1 1 112 9 142 44
414 4 2 1 1 1 35 111 147
415 4 2 1 1 11 147 184 69
416 4 2 1 1 19 78 183 142
417 4 2 1 1 145 157 73 74
418 4 2 1 1 39 85 145 40
419 4 2 1 1 152 56 16 127
420 4 2 1 1 5 128 79 27
421 4 2 1 1 16 60 160 133
422 4 2 1 1 6 88 29 133
423 4 2 1 1 15 124 158 53
424 4 2 1 1 86 124 5 26
425 4 2 1 1 58 6 7 133
426 4 2 1 1 55 14 124 15
427 4 2 1 1 5 4 124 55
428 4 2 1 1 59 16 133 17
429 4 2 1 1 120 22 3 109
430 4 2 1 1 110 34 8 139
431 4 2 1 1 13 181 48 118
432 4 2 1 1 18 137 68 182
433 4 2 1 1 60 16 17 133
434 4 2 1 1 29 7 6 133
435 4 2 1 1 4 5 124 26
436 4 2 1 1 124 15 14 53
437 4 2 1 1 115 1 111 147
438 4 2 1 1 9 142 134 112
439 4 2 1 1 147 117 11 184
440 4 2 1 1 136 19 183 142
441 4 2 1 1 46 11 117 184
442 4 2 1 1 19 183 66 136
443 4 2 1 1 21 1 111 115
444 4 2 1 1 112 134 9 33
445 4 2 1 1 81 182 130 153
446 4 2 1 1 121 181 82 154
447 4 2 1 1 121 109 181 125
448 4 2 1 1 181 109 121 82
449 4 2 1 1 110 130 182 132
450 4 2 1 1 182 130 110 81
$EndElements
