$MeshFormat
2.2 0 8
$EndMeshFormat
$PhysicalNames
3
3 1 "teflon_OPEM_RESERVED_1"
3 2 "air_OPEM_RESERVED_2"
3 3 "air_OPEM_RESERVED_3"
$EndPhysicalNames
$Nodes
96
1 0.01043 0 0
2 0.01043 0 0.1
3 0.01243 0 0
4 0.01243 0 0.1
5 0.01143 0 0
6 0.01143 0 0.1
7 0.01243 0.01016 0
8 0.01243 0.01016 0.1
9 0.01043 0.01016 0
10 0.01043 0.01016 0.1
11 0.01143 0.01016 0
12 0.01143 0.01016 0.1
13 0.01043 0 0.01999999999999999
14 0.01043 0 0.03999999999999999
15 0.01043 0 0.06000000000000003
16 0.01043 0 0.08000000000000007
17 0.01243 0 0.01999999999999999
18 0.01243 0 0.03999999999999999
19 0.01243 0 0.06000000000000003
20 0.01243 0 0.08000000000000007
21 0.01243 0.01016 0.01999999999999999
22 0.01243 0.01016 0.03999999999999999
23 0.01243 0.01016 0.06000000000000003
24 0.01243 0.01016 0.08000000000000007
25 0.01043 0.01016 0.01999999999999999
26 0.01043 0.01016 0.03999999999999999
27 0.01043 0.01016 0.06000000000000003
28 0.01043 0.01016 0.08000000000000007
29 0.01243 0.005079999999999999 0.05000000000000001
30 0.01243 0.005079999999999999 0.07000000000000005
31 0.01243 0.00508 0.02999999999999999
32 0.01243 0.005079999999999999 0.009999999999999992
33 0.01243 0.005079999999999999 0.09000000000000004
34 0.01043 0.005080000000000001 0.05000000000000001
35 0.01043 0.005080000000000001 0.07000000000000005
36 0.01043 0.00508 0.02999999999999999
37 0.01043 0.005080000000000001 0.009999999999999992
38 0.01043 0.005080000000000001 0.09000000000000004
39 0 0 0
40 0 0 0.1
41 0 0.01016 0
42 0 0.01016 0.1
43 0 0 0.01999999999999999
44 0 0 0.03999999999999999
45 0 0 0.06000000000000003
46 0 0 0.08000000000000007
47 0 0.01016 0.01999999999999999
48 0 0.01016 0.03999999999999999
49 0 0.01016 0.06000000000000003
50 0 0.01016 0.08000000000000007
51 0.005215 0 0.05000000000000001
52 0.005215 0 0.07000000000000005
53 0.005215 0 0.02999999999999999
54 0.005215 0 0.009999999999999993
55 0.005215 0 0.09000000000000004
56 0.005214999999999999 0.00508 0
57 0.005214999999999999 0.00508 0.1
58 0 0.00508 0.05000000000000002
59 0 0.005080000000000001 0.07000000000000005
60 0 0.00508 0.02999999999999999
61 0 0.005080000000000001 0.009999999999999992
62 0 0.005080000000000001 0.09000000000000004
63 0.005214999999999997 0.01016 0.05000000000000001
64 0.005215000000000001 0.01016 0.07000000000000005
65 0.005215000000000004 0.01016 0.02999999999999999
66 0.005215000000000001 0.01016 0.009999999999999993
67 0.005215000000000001 0.01016 0.09000000000000004
68 0.02286 0 0
69 0.02286 0 0.1
70 0.02286 0.01016 0
71 0.02286 0.01016 0.1
72 0.02286 0 0.01999999999999999
73 0.02286 0 0.03999999999999999
74 0.02286 0 0.06000000000000003
75 0.02286 0 0.08000000000000007
76 0.02286 0.01016 0.01999999999999999
77 0.02286 0.01016 0.03999999999999999
78 0.02286 0.01016 0.06000000000000003
79 0.02286 0.01016 0.08000000000000007
80 0.017645 0 0.05000000000000001
81 0.017645 0 0.07000000000000005
82 0.017645 0 0.02999999999999999
83 0.017645 0 0.009999999999999993
84 0.017645 0 0.09000000000000004
85 0.017645 0.00508 0
86 0.02286 0.00508 0.05000000000000002
87 0.02286 0.005079999999999999 0.07000000000000005
88 0.02286 0.00508 0.02999999999999999
89 0.02286 0.005079999999999999 0.009999999999999992
90 0.02286 0.005079999999999999 0.09000000000000004
91 0.017645 0.00508 0.1
92 0.017645 0.01016 0.07000000000000005
93 0.017645 0.01016 0.05000000000000002
94 0.017645 0.01016 0.02999999999999999
95 0.017645 0.01016 0.009999999999999992
96 0.017645 0.01016 0.09000000000000004
$EndNodes
$Elements
260
1 4 2 1 1 35 23 28 30
2 4 2 1 1 17 36 14 31
3 4 2 1 1 12 24 33 38
4 4 2 1 1 5 32 37 17
5 4 2 1 1 6 20 38 33
6 4 2 1 1 34 23 26 27
7 4 2 1 1 23 35 28 27
8 4 2 1 1 17 18 31 14
9 4 2 1 1 37 11 9 25
10 4 2 1 1 13 1 37 5
11 4 2 1 1 8 24 33 12
12 4 2 1 1 6 38 16 2
13 4 2 1 1 24 23 30 28
14 4 2 1 1 35 20 16 15
15 4 2 1 1 36 17 14 13
16 4 2 1 1 26 21 36 25
17 4 2 1 1 5 32 17 3
18 4 2 1 1 32 11 21 7
19 4 2 1 1 28 10 38 12
20 4 2 1 1 20 33 6 4
21 4 2 1 1 14 19 34 15
22 4 2 1 1 13 5 37 17
23 4 2 1 1 12 38 28 24
24 4 2 1 1 38 6 16 20
25 4 2 1 1 20 38 33 24
26 4 2 1 1 20 35 28 30
27 4 2 1 1 19 34 23 29
28 4 2 1 1 36 21 31 17
29 4 2 1 1 12 6 38 33
30 4 2 1 1 11 37 5 32
31 4 2 1 1 22 14 31 18
32 4 2 1 1 17 25 13 36
33 4 2 1 1 25 37 17 13
34 4 2 1 1 27 35 15 23
35 4 2 1 1 15 34 27 23
36 4 2 1 1 20 30 28 24
37 4 2 1 1 17 25 36 21
38 4 2 1 1 35 20 28 16
39 4 2 1 1 28 38 16 20
40 4 2 1 1 28 38 20 24
41 4 2 1 1 34 19 23 15
42 4 2 1 1 6 10 38 2
43 4 2 1 1 4 12 8 33
44 4 2 1 1 1 5 9 37
45 4 2 1 1 3 11 32 7
46 4 2 1 1 4 12 33 6
47 4 2 1 1 10 6 38 12
48 4 2 1 1 37 11 5 9
49 4 2 1 1 11 3 32 5
50 4 2 1 1 22 29 14 18
51 4 2 1 1 19 14 29 18
52 4 2 1 1 19 29 14 34
53 4 2 1 1 14 29 26 34
54 4 2 1 1 14 26 29 22
55 4 2 1 1 23 26 29 34
56 4 2 1 1 23 29 26 22
57 4 2 1 1 14 31 26 22
58 4 2 1 1 14 26 31 36
59 4 2 1 1 21 26 31 22
60 4 2 1 1 21 31 26 36
61 4 2 1 1 20 30 15 35
62 4 2 1 1 20 15 30 19
63 4 2 1 1 23 15 30 35
64 4 2 1 1 23 30 15 19
65 4 2 1 1 17 32 25 21
66 4 2 1 1 17 25 32 37
67 4 2 1 1 11 25 32 21
68 4 2 1 1 11 32 25 37
69 4 2 2 2 58 63 48 49
70 4 2 2 2 44 51 58 45
71 4 2 2 2 46 52 45 59
72 4 2 2 2 49 64 50 59
73 4 2 2 2 43 44 53 60
74 4 2 2 2 61 66 41 47
75 4 2 2 2 47 65 48 60
76 4 2 2 2 43 54 39 61
77 4 2 2 2 67 42 50 62
78 4 2 2 2 62 55 40 46
79 4 2 2 2 25 9 37 66
80 4 2 2 2 1 13 37 54
81 4 2 2 2 16 2 38 55
82 4 2 2 2 28 27 35 64
83 4 2 2 2 27 26 34 63
84 4 2 2 2 10 28 38 67
85 4 2 2 2 16 15 52 35
86 4 2 2 2 26 25 36 65
87 4 2 2 2 13 14 36 53
88 4 2 2 2 14 15 34 51
89 4 2 2 2 37 56 54 66
90 4 2 2 2 67 38 57 55
91 4 2 2 2 56 61 54 66
92 4 2 2 2 62 67 57 55
93 4 2 2 2 65 47 53 60
94 4 2 2 2 55 62 67 46
95 4 2 2 2 66 61 54 47
96 4 2 2 2 51 63 58 49
97 4 2 2 2 65 53 44 60
98 4 2 2 2 63 48 51 58
99 4 2 2 2 64 49 52 59
100 4 2 2 2 52 50 64 59
101 4 2 2 2 55 67 38 16
102 4 2 2 2 37 54 13 66
103 4 2 2 2 53 25 65 36
104 4 2 2 2 14 53 65 36
105 4 2 2 2 34 63 51 15
106 4 2 2 2 26 63 51 34
107 4 2 2 2 35 52 64 15
108 4 2 2 2 64 28 52 35
109 4 2 2 2 46 67 55 16
110 4 2 2 2 66 54 13 47
111 4 2 2 2 53 25 47 65
112 4 2 2 2 14 53 44 65
113 4 2 2 2 63 51 48 26
114 4 2 2 2 49 64 52 15
115 4 2 2 2 51 63 49 15
116 4 2 2 2 28 50 64 52
117 4 2 2 2 47 43 53 60
118 4 2 2 2 43 54 61 47
119 4 2 2 2 49 58 51 45
120 4 2 2 2 45 52 49 59
121 4 2 2 2 48 65 44 60
122 4 2 2 2 62 50 67 46
123 4 2 2 2 44 51 48 58
124 4 2 2 2 52 46 50 59
125 4 2 2 2 25 53 13 36
126 4 2 2 2 25 37 13 66
127 4 2 2 2 34 27 63 15
128 4 2 2 2 35 64 27 15
129 4 2 2 2 67 28 38 16
130 4 2 2 2 35 28 52 16
131 4 2 2 2 51 14 26 34
132 4 2 2 2 26 14 65 36
133 4 2 2 2 42 67 57 62
134 4 2 2 2 57 62 55 40
135 4 2 2 2 38 10 67 57
136 4 2 2 2 9 56 37 66
137 4 2 2 2 61 54 39 56
138 4 2 2 2 66 56 61 41
139 4 2 2 2 56 54 1 37
140 4 2 2 2 57 38 2 55
141 4 2 2 2 52 50 46 16
142 4 2 2 2 43 53 13 47
143 4 2 2 2 54 43 13 47
144 4 2 2 2 46 50 67 16
145 4 2 2 2 25 13 53 47
146 4 2 2 2 13 25 66 47
147 4 2 2 2 51 49 45 15
148 4 2 2 2 49 52 45 15
149 4 2 2 2 49 63 27 15
150 4 2 2 2 14 48 65 44
151 4 2 2 2 44 51 14 48
152 4 2 2 2 64 49 27 15
153 4 2 2 2 28 50 52 16
154 4 2 2 2 28 67 50 16
155 4 2 2 2 48 14 65 26
156 4 2 2 2 51 14 48 26
157 4 2 2 2 10 42 67 57
158 4 2 2 2 55 2 57 40
159 4 2 2 2 1 39 54 56
160 4 2 2 2 66 9 56 41
161 4 2 2 2 2 10 38 57
162 4 2 2 2 62 57 42 40
163 4 2 2 2 56 1 9 37
164 4 2 2 2 39 61 56 41
165 4 2 3 3 93 78 86 77
166 4 2 3 3 81 74 87 75
167 4 2 3 3 78 87 79 92
168 4 2 3 3 86 74 80 73
169 4 2 3 3 94 77 88 76
170 4 2 3 3 73 82 88 72
171 4 2 3 3 95 70 76 89
172 4 2 3 3 89 72 83 68
173 4 2 3 3 84 69 75 90
174 4 2 3 3 90 96 71 79
175 4 2 3 3 8 24 96 33
176 4 2 3 3 19 18 29 80
177 4 2 3 3 23 22 93 29
178 4 2 3 3 22 21 94 31
179 4 2 3 3 18 17 31 82
180 4 2 3 3 3 32 17 83
181 4 2 3 3 32 7 21 95
182 4 2 3 3 4 20 33 84
183 4 2 3 3 24 23 92 30
184 4 2 3 3 20 19 30 81
185 4 2 3 3 89 95 85 83
186 4 2 3 3 91 84 33 96
187 4 2 3 3 84 91 90 96
188 4 2 3 3 95 32 85 83
189 4 2 3 3 89 76 95 83
190 4 2 3 3 96 90 84 79
191 4 2 3 3 88 94 76 82
192 4 2 3 3 31 94 22 82
193 4 2 3 3 22 93 29 80
194 4 2 3 3 94 88 77 82
195 4 2 3 3 86 93 77 80
196 4 2 3 3 93 86 74 80
197 4 2 3 3 87 74 81 92
198 4 2 3 3 87 81 79 92
199 4 2 3 3 24 33 84 96
200 4 2 3 3 81 24 92 30
201 4 2 3 3 95 21 32 83
202 4 2 3 3 31 21 94 82
203 4 2 3 3 29 93 23 80
204 4 2 3 3 81 92 23 30
205 4 2 3 3 77 93 22 80
206 4 2 3 3 94 77 22 82
207 4 2 3 3 79 81 24 92
208 4 2 3 3 96 84 24 79
209 4 2 3 3 21 95 76 83
210 4 2 3 3 21 76 94 82
211 4 2 3 3 74 81 92 23
212 4 2 3 3 74 23 93 80
213 4 2 3 3 76 89 72 83
214 4 2 3 3 76 88 82 72
215 4 2 3 3 18 31 22 82
216 4 2 3 3 75 84 90 79
217 4 2 3 3 74 87 78 92
218 4 2 3 3 18 22 29 80
219 4 2 3 3 88 77 82 73
220 4 2 3 3 87 81 75 79
221 4 2 3 3 86 74 78 93
222 4 2 3 3 80 77 86 73
223 4 2 3 3 24 81 20 30
224 4 2 3 3 20 33 84 24
225 4 2 3 3 17 32 21 83
226 4 2 3 3 21 31 17 82
227 4 2 3 3 19 81 23 30
228 4 2 3 3 29 23 19 80
229 4 2 3 3 84 33 4 91
230 4 2 3 3 85 32 3 83
231 4 2 3 3 85 89 83 68
232 4 2 3 3 70 95 85 89
233 4 2 3 3 7 95 32 85
234 4 2 3 3 91 33 8 96
235 4 2 3 3 69 84 91 90
236 4 2 3 3 91 90 96 71
237 4 2 3 3 80 22 77 73
238 4 2 3 3 80 18 22 73
239 4 2 3 3 82 77 22 73
240 4 2 3 3 22 18 82 73
241 4 2 3 3 82 17 76 72
242 4 2 3 3 76 17 83 72
243 4 2 3 3 23 78 74 93
244 4 2 3 3 75 81 20 79
245 4 2 3 3 92 78 74 23
246 4 2 3 3 84 75 20 79
247 4 2 3 3 24 20 81 79
248 4 2 3 3 24 84 20 79
249 4 2 3 3 17 76 83 21
250 4 2 3 3 76 21 17 82
251 4 2 3 3 23 74 19 80
252 4 2 3 3 81 74 19 23
253 4 2 3 3 4 69 84 91
254 4 2 3 3 96 8 91 71
255 4 2 3 3 7 70 95 85
256 4 2 3 3 83 3 85 68
257 4 2 3 3 90 91 69 71
258 4 2 3 3 33 8 4 91
259 4 2 3 3 32 3 7 85
260 4 2 3 3 89 85 70 68
$EndElements
