$MeshFormat
2.2 0 8
$EndMeshFormat
$PhysicalNames
3
3 1 "air_OPEM_RESERVED_1"
3 2 "teflon_OPEM_RESERVED_2"
3 3 "air_OPEM_RESERVED_3"
$EndPhysicalNames
$Nodes
96
1 0 0 0
2 0.01043 0 0
3 0.01043 0 0.1
4 0 0 0.1
5 0 0.01016 0
6 0.01043 0.01016 0
7 0.01043 0.01016 0.1
8 0 0.01016 0.1
9 0.01143 0 0
10 0.01243 0 0
11 0.01243 0 0.1
12 0.01143 0 0.1
13 0.01243 0.01016 0
14 0.01243 0.01016 0.1
15 0.01143 0.01016 0
16 0.01143 0.01016 0.1
17 0.02286 0 0
18 0.02286 0 0.1
19 0.02286 0.01016 0
20 0.02286 0.01016 0.1
21 0.01043 0 0.01999999999999999
22 0.01043 0 0.03999999999999999
23 0.01043 0 0.06000000000000003
24 0.01043 0 0.08000000000000007
25 0 0 0.01999999999999999
26 0 0 0.03999999999999999
27 0 0 0.06000000000000003
28 0 0 0.08000000000000007
29 0.01043 0.01016 0.01999999999999999
30 0.01043 0.01016 0.03999999999999999
31 0.01043 0.01016 0.06000000000000003
32 0.01043 0.01016 0.08000000000000007
33 0 0.01016 0.01999999999999999
34 0 0.01016 0.03999999999999999
35 0 0.01016 0.06000000000000003
36 0 0.01016 0.08000000000000007
37 0.01243 0 0.01999999999999999
38 0.01243 0 0.03999999999999999
39 0.01243 0 0.06000000000000003
40 0.01243 0 0.08000000000000007
41 0.01243 0.01016 0.01999999999999999
42 0.01243 0.01016 0.03999999999999999
43 0.01243 0.01016 0.06000000000000003
44 0.01243 0.01016 0.08000000000000007
45 0.02286 0 0.01999999999999999
46 0.02286 0 0.03999999999999999
47 0.02286 0 0.06000000000000003
48 0.02286 0 0.08000000000000007
49 0.02286 0.01016 0.01999999999999999
50 0.02286 0.01016 0.03999999999999999
51 0.02286 0.01016 0.06000000000000003
52 0.02286 0.01016 0.08000000000000007
53 0.005215 0 0.05000000000000001
54 0.005215 0 0.07000000000000005
55 0.005215 0 0.02999999999999999
56 0.005215 0 0.009999999999999995
57 0.005214999999999999 0 0.09000000000000004
58 0.005214999999999999 0.00508 0
59 0.01043 0.00508 0.07000000000000005
60 0.01043 0.00508 0.05000000000000002
61 0.01043 0.00508 0.02999999999999999
62 0.01043 0.005080000000000001 0.009999999999999992
63 0.01043 0.00508 0.09000000000000004
64 0.005214999999999999 0.00508 0.1
65 0 0.00508 0.05000000000000002
66 0 0.005080000000000001 0.07000000000000005
67 0 0.005080000000000001 0.02999999999999999
68 0 0.005080000000000001 0.009999999999999992
69 0 0.005080000000000001 0.09000000000000004
70 0.005214999999999997 0.01016 0.05000000000000001
71 0.005215000000000001 0.01016 0.07000000000000005
72 0.005215000000000004 0.01016 0.02999999999999999
73 0.005215000000000001 0.01016 0.009999999999999992
74 0.005215000000000001 0.01016 0.09000000000000004
75 0.01243 0.00508 0.05000000000000002
76 0.01243 0.005079999999999999 0.07000000000000005
77 0.01243 0.00508 0.02999999999999999
78 0.01243 0.005079999999999999 0.009999999999999992
79 0.01243 0.005079999999999999 0.09000000000000004
80 0.017645 0 0.05000000000000001
81 0.017645 0 0.07000000000000005
82 0.017645 0 0.02999999999999999
83 0.017645 0 0.009999999999999993
84 0.017645 0 0.09000000000000004
85 0.017645 0.00508 0
86 0.02286 0.00508 0.05000000000000002
87 0.02286 0.005079999999999999 0.07000000000000005
88 0.02286 0.00508 0.02999999999999999
89 0.02286 0.005079999999999999 0.009999999999999992
90 0.02286 0.005079999999999999 0.09000000000000004
91 0.017645 0.00508 0.1
92 0.017645 0.01016 0.05000000000000002
93 0.017645 0.01016 0.07000000000000005
94 0.017645 0.01016 0.02999999999999999
95 0.017645 0.01016 0.009999999999999992
96 0.017645 0.01016 0.09000000000000004
$EndNodes
$Elements
260
1 4 2 1 1 65 70 34 35
2 4 2 1 1 26 53 65 27
3 4 2 1 1 66 71 35 36
4 4 2 1 1 54 28 66 27
5 4 2 1 1 25 26 55 67
6 4 2 1 1 33 72 34 67
7 4 2 1 1 68 5 33 73
8 4 2 1 1 25 56 1 68
9 4 2 1 1 4 69 57 28
10 4 2 1 1 36 74 8 69
11 4 2 1 1 2 21 62 56
12 4 2 1 1 3 24 57 63
13 4 2 1 1 32 31 59 71
14 4 2 1 1 31 30 60 70
15 4 2 1 1 6 62 29 73
16 4 2 1 1 32 7 74 63
17 4 2 1 1 24 23 54 59
18 4 2 1 1 21 22 61 55
19 4 2 1 1 22 23 60 53
20 4 2 1 1 30 29 61 72
21 4 2 1 1 74 63 64 57
22 4 2 1 1 69 74 64 57
23 4 2 1 1 58 56 62 73
24 4 2 1 1 56 58 68 73
25 4 2 1 1 25 56 68 73
26 4 2 1 1 57 69 74 28
27 4 2 1 1 72 25 55 67
28 4 2 1 1 34 72 55 67
29 4 2 1 1 53 70 65 35
30 4 2 1 1 54 66 71 27
31 4 2 1 1 71 28 66 54
32 4 2 1 1 34 53 70 65
33 4 2 1 1 74 63 57 24
34 4 2 1 1 59 71 54 24
35 4 2 1 1 72 55 21 61
36 4 2 1 1 62 56 21 73
37 4 2 1 1 70 53 60 23
38 4 2 1 1 30 55 72 61
39 4 2 1 1 59 54 71 23
40 4 2 1 1 30 70 53 60
41 4 2 1 1 24 28 71 54
42 4 2 1 1 25 55 21 72
43 4 2 1 1 56 25 21 73
44 4 2 1 1 74 57 28 24
45 4 2 1 1 34 55 72 30
46 4 2 1 1 27 71 54 23
47 4 2 1 1 53 70 35 23
48 4 2 1 1 53 30 34 70
49 4 2 1 1 33 25 68 73
50 4 2 1 1 72 33 25 67
51 4 2 1 1 35 65 53 27
52 4 2 1 1 35 71 66 27
53 4 2 1 1 34 55 26 67
54 4 2 1 1 36 74 69 28
55 4 2 1 1 71 28 36 66
56 4 2 1 1 34 53 65 26
57 4 2 1 1 31 70 60 23
58 4 2 1 1 59 71 31 23
59 4 2 1 1 32 71 59 24
60 4 2 1 1 21 29 72 61
61 4 2 1 1 63 74 32 24
62 4 2 1 1 29 62 21 73
63 4 2 1 1 22 55 30 61
64 4 2 1 1 30 53 22 60
65 4 2 1 1 69 64 4 57
66 4 2 1 1 8 74 64 69
67 4 2 1 1 58 56 2 62
68 4 2 1 1 68 58 5 73
69 4 2 1 1 6 58 62 73
70 4 2 1 1 58 1 56 68
71 4 2 1 1 7 74 63 64
72 4 2 1 1 64 63 3 57
73 4 2 1 1 29 25 72 33
74 4 2 1 1 33 29 25 73
75 4 2 1 1 31 71 35 23
76 4 2 1 1 34 22 53 26
77 4 2 1 1 53 35 27 23
78 4 2 1 1 27 35 71 23
79 4 2 1 1 35 70 31 23
80 4 2 1 1 22 55 26 34
81 4 2 1 1 28 32 71 36
82 4 2 1 1 74 36 32 28
83 4 2 1 1 29 21 25 73
84 4 2 1 1 32 28 71 24
85 4 2 1 1 25 29 72 21
86 4 2 1 1 28 32 74 24
87 4 2 1 1 22 55 34 30
88 4 2 1 1 22 34 53 30
89 4 2 1 1 7 8 74 64
90 4 2 1 1 3 4 64 57
91 4 2 1 1 56 2 1 58
92 4 2 1 1 58 6 5 73
93 4 2 1 1 63 3 7 64
94 4 2 1 1 64 4 8 69
95 4 2 1 1 5 1 58 68
96 4 2 1 1 2 6 58 62
97 4 2 2 2 42 61 41 77
98 4 2 2 2 59 43 32 76
99 4 2 2 2 43 60 30 75
100 4 2 2 2 38 61 77 37
101 4 2 2 2 41 15 78 62
102 4 2 2 2 60 43 30 31
103 4 2 2 2 43 59 32 31
104 4 2 2 2 62 9 21 2
105 4 2 2 2 15 41 78 13
106 4 2 2 2 3 24 63 12
107 4 2 2 2 14 44 79 16
108 4 2 2 2 23 40 59 24
109 4 2 2 2 43 32 76 44
110 4 2 2 2 61 37 22 21
111 4 2 2 2 42 61 29 41
112 4 2 2 2 9 78 37 10
113 4 2 2 2 15 62 29 6
114 4 2 2 2 11 40 12 79
115 4 2 2 2 32 7 63 16
116 4 2 2 2 30 43 75 42
117 4 2 2 2 23 22 60 38
118 4 2 2 2 61 42 29 30
119 4 2 2 2 38 61 37 22
120 4 2 2 2 62 15 29 41
121 4 2 2 2 61 37 41 77
122 4 2 2 2 40 59 32 76
123 4 2 2 2 38 60 75 30
124 4 2 2 2 61 42 38 77
125 4 2 2 2 63 16 12 79
126 4 2 2 2 62 9 15 78
127 4 2 2 2 21 29 61 41
128 4 2 2 2 37 61 41 21
129 4 2 2 2 21 41 62 29
130 4 2 2 2 31 59 23 43
131 4 2 2 2 60 31 23 43
132 4 2 2 2 40 76 32 44
133 4 2 2 2 59 40 32 24
134 4 2 2 2 38 60 30 22
135 4 2 2 2 42 75 30 38
136 4 2 2 2 30 61 38 22
137 4 2 2 2 42 61 38 30
138 4 2 2 2 12 3 7 63
139 4 2 2 2 16 11 79 14
140 4 2 2 2 9 62 6 2
141 4 2 2 2 13 15 10 78
142 4 2 2 2 16 12 7 63
143 4 2 2 2 11 16 79 12
144 4 2 2 2 9 62 15 6
145 4 2 2 2 78 9 15 10
146 4 2 2 2 75 43 23 39
147 4 2 2 2 23 43 75 60
148 4 2 2 2 23 38 75 39
149 4 2 2 2 75 38 23 60
150 4 2 2 2 43 76 23 39
151 4 2 2 2 43 23 76 59
152 4 2 2 2 40 23 76 39
153 4 2 2 2 40 76 23 59
154 4 2 2 2 40 32 79 44
155 4 2 2 2 16 32 79 63
156 4 2 2 2 16 79 32 44
157 4 2 2 2 41 78 21 62
158 4 2 2 2 41 21 78 37
159 4 2 2 2 9 21 78 62
160 4 2 2 2 9 78 21 37
161 4 2 2 2 32 63 40 79
162 4 2 2 2 32 40 63 24
163 4 2 2 2 12 40 63 79
164 4 2 2 2 12 63 40 24
165 4 2 3 3 92 51 86 50
166 4 2 3 3 87 81 47 48
167 4 2 3 3 51 87 52 93
168 4 2 3 3 80 86 47 46
169 4 2 3 3 94 50 88 49
170 4 2 3 3 46 82 88 45
171 4 2 3 3 95 19 49 89
172 4 2 3 3 89 45 83 17
173 4 2 3 3 84 18 48 90
174 4 2 3 3 90 96 20 52
175 4 2 3 3 13 41 78 95
176 4 2 3 3 14 44 96 79
177 4 2 3 3 39 38 75 80
178 4 2 3 3 40 39 76 81
179 4 2 3 3 37 10 78 83
180 4 2 3 3 11 40 79 84
181 4 2 3 3 43 44 76 93
182 4 2 3 3 41 42 77 94
183 4 2 3 3 42 43 75 92
184 4 2 3 3 38 37 77 82
185 4 2 3 3 91 84 79 96
186 4 2 3 3 84 91 90 96
187 4 2 3 3 85 95 78 83
188 4 2 3 3 95 85 89 83
189 4 2 3 3 89 49 95 83
190 4 2 3 3 96 90 84 52
191 4 2 3 3 49 88 94 82
192 4 2 3 3 47 81 87 93
193 4 2 3 3 88 50 94 82
194 4 2 3 3 86 92 50 80
195 4 2 3 3 92 86 47 80
196 4 2 3 3 87 81 52 93
197 4 2 3 3 44 79 84 96
198 4 2 3 3 81 44 93 76
199 4 2 3 3 94 77 41 82
200 4 2 3 3 37 78 95 83
201 4 2 3 3 42 77 94 82
202 4 2 3 3 75 42 92 80
203 4 2 3 3 43 75 92 80
204 4 2 3 3 81 93 43 76
205 4 2 3 3 41 49 94 82
206 4 2 3 3 52 81 44 93
207 4 2 3 3 96 84 44 52
208 4 2 3 3 37 95 49 83
209 4 2 3 3 50 92 42 80
210 4 2 3 3 94 50 42 82
211 4 2 3 3 47 43 92 80
212 4 2 3 3 93 47 81 43
213 4 2 3 3 49 89 45 83
214 4 2 3 3 49 88 82 45
215 4 2 3 3 51 47 87 93
216 4 2 3 3 48 84 90 52
217 4 2 3 3 82 88 50 46
218 4 2 3 3 87 81 48 52
219 4 2 3 3 86 47 51 92
220 4 2 3 3 80 50 86 46
221 4 2 3 3 39 81 43 76
222 4 2 3 3 75 43 39 80
223 4 2 3 3 44 81 40 76
224 4 2 3 3 37 41 77 82
225 4 2 3 3 40 79 84 44
226 4 2 3 3 95 41 78 37
227 4 2 3 3 77 42 38 82
228 4 2 3 3 42 75 38 80
229 4 2 3 3 84 79 11 91
230 4 2 3 3 85 89 83 17
231 4 2 3 3 78 10 85 83
232 4 2 3 3 19 95 85 89
233 4 2 3 3 95 13 85 78
234 4 2 3 3 91 79 14 96
235 4 2 3 3 18 84 91 90
236 4 2 3 3 91 90 96 20
237 4 2 3 3 82 37 49 45
238 4 2 3 3 45 37 49 83
239 4 2 3 3 43 47 39 80
240 4 2 3 3 47 39 81 43
241 4 2 3 3 43 51 47 92
242 4 2 3 3 50 38 82 46
243 4 2 3 3 38 50 80 46
244 4 2 3 3 48 81 40 52
245 4 2 3 3 93 51 47 43
246 4 2 3 3 84 48 40 52
247 4 2 3 3 44 40 81 52
248 4 2 3 3 41 95 49 37
249 4 2 3 3 49 41 37 82
250 4 2 3 3 44 84 40 52
251 4 2 3 3 50 38 80 42
252 4 2 3 3 38 42 50 82
253 4 2 3 3 11 18 84 91
254 4 2 3 3 96 14 91 20
255 4 2 3 3 83 10 85 17
256 4 2 3 3 19 95 13 85
257 4 2 3 3 90 91 18 20
258 4 2 3 3 91 79 11 14
259 4 2 3 3 85 13 10 78
260 4 2 3 3 89 85 19 17
$EndElements
