$MeshFormat
2.2 0 8
$EndMeshFormat
$PhysicalNames
3
3 1 "air_OPEM_RESERVED_1"
3 2 "air_OPEM_RESERVED_2"
3 3 "air_OPEM_RESERVED_3"
$EndPhysicalNames
$Nodes
124
1 0 0 0
2 0 0 0.05
3 0.02286 0 0
4 0.02286 0 0.05
5 0.01143 0 0
6 0.02286 0.01016 0
7 0.02286 0.01016 0.05
8 0 0.01016 0
9 0 0.01016 0.05
10 0.01143 0.01016 0
11 0 0 0.01250000000000001
12 0 0 0.02500000000000002
13 0 0 0.03750000000000001
14 0.02286 0 0.01250000000000001
15 0.02286 0 0.02500000000000002
16 0.02286 0 0.03750000000000001
17 0.01143000000000002 0 0.05
18 0.02286 0.01016 0.01250000000000001
19 0.02286 0.01016 0.02500000000000002
20 0.02286 0.01016 0.03750000000000001
21 0 0.01016 0.01250000000000001
22 0 0.01016 0.02500000000000002
23 0 0.01016 0.03750000000000001
24 0.01142999999999998 0.01016 0.05
25 0.01101551041873842 0 0.0325777162076453
26 0.01187165999146628 0 0.01761195753630404
27 0.01405332619468189 0 0.0413536088573115
28 0.00864367200967235 0 0.008341907444839017
29 0.006523554756471468 0 0.04300319643519969
30 0.01632258489807537 0 0.006985088263381947
31 0.02286 0.005079999999999999 0.006250000000000003
32 0.02286 0.00508 0.01875000000000001
33 0.02286 0.00508 0.04375
34 0.02286 0.005080000000000001 0.03125000000000001
35 0.01184448958126158 0.01016 0.0325777162076453
36 0.01098834000853371 0.01016 0.01761195753630404
37 0.008806673805318112 0.01016 0.0413536088573115
38 0.01421632799032765 0.01016 0.008341907444839017
39 0.01633644524352853 0.01016 0.04300319643519969
40 0.00653741510192463 0.01016 0.006985088263381947
41 0 0.005080000000000001 0.006250000000000003
42 0 0.00508 0.01875000000000001
43 0 0.00508 0.04375
44 0 0.005079999999999999 0.03125000000000001
45 0.005714999999999999 0.00508 0
46 0.017145 0.00508 0
47 0.017145 0.00508 0.05
48 0.005715 0.00508 0.05
49 0 -0.001 0.05
50 0 -0.001 0.07500000000000001
51 0.02286 -0.001 0.05
52 0.02286 -0.001 0.07500000000000001
53 0.02286 0.01116 0.05
54 0.02286 0.01116 0.07500000000000001
55 0.02286 0 0.07500000000000001
56 0.02286 0.01016 0.07500000000000001
57 0 0.01116 0.05
58 0 0.01116 0.07500000000000001
59 0 0.01016 0.07500000000000001
60 0 0 0.07500000000000001
61 0 -0.001 0.06250000000000001
62 0.02286 -0.001 0.06250000000000001
63 0.01143000000000002 -0.001 0.05
64 0.01143000000000002 -0.001 0.07500000000000001
65 0.02286 0.01116 0.06250000000000001
66 0 0.01116 0.06250000000000001
67 0.01142999999999998 0.01116 0.05
68 0.01142999999999998 0.01116 0.07500000000000001
69 0.01143000000000002 0 0.07500000000000001
70 0.01142999999999998 0.01016 0.07500000000000001
71 0.006985453809844893 -0.001 0.05720686216372217
72 0.009412562335957999 -0.001 0.06536894900000001
73 0.01446036122409032 -0.001 0.0584605320336629
74 0.017145 -0.001 0.06877604216855999
75 0.02286 0.00508 0.05439940905122495
76 0.02286 0.00508 0.07060059094877506
77 0.01587454619015511 0.01116 0.05720686216372217
78 0.013447437664042 0.01116 0.06536894900000001
79 0.008399638775909681 0.01116 0.0584605320336629
80 0.005714999999999998 0.01116 0.06877604216855999
81 0 0.00508 0.05439940905122495
82 0 0.005080000000000001 0.07060059094877506
83 0.017145 0.00508 0.07500000000000001
84 0.005715 0.00508 0.07500000000000001
85 0 0 0.125
86 0.02286 0 0.125
87 0.01143 0 0.125
88 0.02286 0.01016 0.125
89 0 0.01016 0.125
90 0.01143 0.01016 0.125
91 0 0 0.08750000000000002
92 0 0 0.1
93 0 0 0.1125
94 0.02286 0 0.08750000000000002
95 0.02286 0 0.1
96 0.02286 0 0.1125
97 0.02286 0.01016 0.08750000000000002
98 0.02286 0.01016 0.1
99 0.02286 0.01016 0.1125
100 0 0.01016 0.08750000000000002
101 0 0.01016 0.1
102 0 0.01016 0.1125
103 0.01101551041873842 0 0.1075777162076453
104 0.01187165999146628 0 0.09261195753630405
105 0.008643672009672351 0 0.08334190744483902
106 0.01405332619468189 0 0.1163536088573115
107 0.01632258489807537 0 0.08198508826338195
108 0.00652355475647145 0 0.1180031964351997
109 0.02286 0.005079999999999999 0.08125000000000002
110 0.02286 0.00508 0.09375000000000003
111 0.02286 0.00508 0.11875
112 0.02286 0.00508 0.10625
113 0.01184448958126158 0.01016 0.1075777162076453
114 0.01098834000853371 0.01016 0.09261195753630405
115 0.01421632799032765 0.01016 0.08334190744483902
116 0.008806673805318112 0.01016 0.1163536088573115
117 0.006537415101924626 0.01016 0.08198508826338195
118 0.01633644524352855 0.01016 0.1180031964351997
119 0 0.005080000000000001 0.08125000000000002
120 0 0.005080000000000001 0.09375000000000003
121 0 0.00508 0.11875
122 0 0.00508 0.10625
123 0.005714999999999999 0.00508 0.125
124 0.017145 0.00508 0.125
$EndNodes
$Elements
307
1 4 2 1 1 22 12 25 44
2 4 2 1 1 35 19 34 15
3 4 2 1 1 36 42 12 22
4 4 2 1 1 32 19 26 15
5 4 2 1 1 25 22 44 35
6 4 2 1 1 34 25 35 15
7 4 2 1 1 42 28 11 21
8 4 2 1 1 32 38 18 14
9 4 2 1 1 12 42 36 26
10 4 2 1 1 32 19 36 26
11 4 2 1 1 13 23 37 44
12 4 2 1 1 36 28 42 21
13 4 2 1 1 26 38 32 14
14 4 2 1 1 37 25 13 44
15 4 2 1 1 12 25 36 22
16 4 2 1 1 26 19 35 15
17 4 2 1 1 19 35 36 26
18 4 2 1 1 25 12 36 26
19 4 2 1 1 22 25 36 35
20 4 2 1 1 26 35 25 15
21 4 2 1 1 42 11 28 26
22 4 2 1 1 38 18 36 32
23 4 2 1 1 24 39 47 27
24 4 2 1 1 48 29 37 17
25 4 2 1 1 27 47 24 17
26 4 2 1 1 24 48 37 17
27 4 2 1 1 10 5 28 45
28 4 2 1 1 5 10 38 46
29 4 2 1 1 45 28 10 40
30 4 2 1 1 46 38 5 30
31 4 2 1 1 36 42 28 26
32 4 2 1 1 36 38 32 26
33 4 2 1 1 39 33 27 16
34 4 2 1 1 25 34 27 16
35 4 2 1 1 23 37 44 35
36 4 2 1 1 33 39 20 16
37 4 2 1 1 44 22 23 35
38 4 2 1 1 16 25 34 15
39 4 2 1 1 36 18 19 32
40 4 2 1 1 12 11 42 26
41 4 2 1 1 44 37 25 35
42 4 2 1 1 34 35 25 27
43 4 2 1 1 37 9 43 48
44 4 2 1 1 47 33 4 27
45 4 2 1 1 28 36 40 21
46 4 2 1 1 38 26 30 14
47 4 2 1 1 1 28 45 41
48 4 2 1 1 6 38 46 31
49 4 2 1 1 13 29 25 37
50 4 2 1 1 25 36 35 26
51 4 2 1 1 37 43 29 48
52 4 2 1 1 39 33 47 27
53 4 2 1 1 19 20 35 34
54 4 2 1 1 12 13 25 44
55 4 2 1 1 9 23 37 43
56 4 2 1 1 4 16 27 33
57 4 2 1 1 36 42 22 21
58 4 2 1 1 14 32 26 15
59 4 2 1 1 28 45 41 40
60 4 2 1 1 38 46 31 30
61 4 2 1 1 38 6 18 31
62 4 2 1 1 28 1 11 41
63 4 2 1 1 24 9 37 48
64 4 2 1 1 17 4 27 47
65 4 2 1 1 5 10 28 38
66 4 2 1 1 28 5 1 45
67 4 2 1 1 38 10 6 46
68 4 2 1 1 27 24 37 17
69 4 2 1 1 38 28 5 30
70 4 2 1 1 40 28 10 38
71 4 2 1 1 39 24 37 27
72 4 2 1 1 27 37 29 17
73 4 2 1 1 13 2 29 43
74 4 2 1 1 7 20 33 39
75 4 2 1 1 30 3 31 14
76 4 2 1 1 40 8 41 21
77 4 2 1 1 40 36 28 38
78 4 2 1 1 26 28 38 30
79 4 2 1 1 37 35 39 27
80 4 2 1 1 29 25 37 27
81 4 2 1 1 7 24 39 47
82 4 2 1 1 2 17 29 48
83 4 2 1 1 45 10 8 40
84 4 2 1 1 46 5 3 30
85 4 2 1 1 38 36 28 26
86 4 2 1 1 33 7 39 47
87 4 2 1 1 43 2 29 48
88 4 2 1 1 41 45 8 40
89 4 2 1 1 31 46 3 30
90 4 2 1 1 33 4 7 47
91 4 2 1 1 8 1 45 41
92 4 2 1 1 9 2 43 48
93 4 2 1 1 3 6 46 31
94 4 2 1 1 35 37 25 27
95 4 2 1 1 21 28 41 40
96 4 2 1 1 21 41 28 11
97 4 2 1 1 14 38 31 30
98 4 2 1 1 14 31 38 18
99 4 2 1 1 13 37 43 29
100 4 2 1 1 43 37 13 23
101 4 2 1 1 16 39 34 27
102 4 2 1 1 16 34 39 20
103 4 2 1 1 35 34 39 27
104 4 2 1 1 35 39 34 20
105 4 2 2 2 72 69 74 83
106 4 2 2 2 84 80 70 78
107 4 2 2 2 78 70 69 83
108 4 2 2 2 70 84 72 69
109 4 2 2 2 73 75 77 62
110 4 2 2 2 80 82 66 61
111 4 2 2 2 65 76 74 62
112 4 2 2 2 75 65 77 62
113 4 2 2 2 80 84 72 78
114 4 2 2 2 78 72 74 83
115 4 2 2 2 61 71 79 72
116 4 2 2 2 61 80 82 72
117 4 2 2 2 74 78 76 65
118 4 2 2 2 69 72 78 83
119 4 2 2 2 72 84 70 78
120 4 2 2 2 79 24 77 73
121 4 2 2 2 17 79 71 73
122 4 2 2 2 66 79 80 72
123 4 2 2 2 78 74 73 62
124 4 2 2 2 84 82 80 72
125 4 2 2 2 83 74 78 76
126 4 2 2 2 74 78 65 62
127 4 2 2 2 61 66 80 72
128 4 2 2 2 24 79 17 73
129 4 2 2 2 79 66 61 72
130 4 2 2 2 71 79 72 73
131 4 2 2 2 77 78 79 73
132 4 2 2 2 69 72 70 78
133 4 2 2 2 79 80 72 78
134 4 2 2 2 78 74 72 73
135 4 2 2 2 78 72 79 73
136 4 2 2 2 24 7 77 47
137 4 2 2 2 17 2 71 48
138 4 2 2 2 76 78 54 65
139 4 2 2 2 61 82 50 72
140 4 2 2 2 79 66 57 81
141 4 2 2 2 73 51 75 62
142 4 2 2 2 81 49 71 61
143 4 2 2 2 65 77 53 75
144 4 2 2 2 54 70 68 78
145 4 2 2 2 52 74 76 62
146 4 2 2 2 66 82 80 58
147 4 2 2 2 55 69 83 74
148 4 2 2 2 70 59 80 84
149 4 2 2 2 48 2 71 81
150 4 2 2 2 75 77 7 47
151 4 2 2 2 24 57 79 67
152 4 2 2 2 7 53 77 75
153 4 2 2 2 71 2 49 81
154 4 2 2 2 67 7 77 24
155 4 2 2 2 17 49 63 71
156 4 2 2 2 2 17 71 49
157 4 2 2 2 7 67 77 53
158 4 2 2 2 52 74 55 76
159 4 2 2 2 59 80 82 58
160 4 2 2 2 55 69 74 64
161 4 2 2 2 68 59 80 70
162 4 2 2 2 59 68 80 58
163 4 2 2 2 55 64 74 52
164 4 2 2 2 9 2 48 81
165 4 2 2 2 75 7 4 47
166 4 2 2 2 83 56 55 76
167 4 2 2 2 82 59 60 84
168 4 2 2 2 82 80 59 84
169 4 2 2 2 55 74 83 76
170 4 2 2 2 69 64 72 74
171 4 2 2 2 70 80 68 78
172 4 2 2 2 24 67 79 77
173 4 2 2 2 63 17 71 73
174 4 2 2 2 61 79 81 66
175 4 2 2 2 61 81 79 71
176 4 2 2 2 77 62 78 73
177 4 2 2 2 78 62 77 65
178 4 2 2 2 82 69 84 60
179 4 2 2 2 82 84 69 72
180 4 2 2 2 50 64 82 60
181 4 2 2 2 50 82 64 72
182 4 2 2 2 64 69 82 60
183 4 2 2 2 64 82 69 72
184 4 2 2 2 83 76 70 56
185 4 2 2 2 83 70 76 78
186 4 2 2 2 54 70 76 56
187 4 2 2 2 54 76 70 78
188 4 2 2 2 48 81 24 9
189 4 2 2 2 57 24 81 9
190 4 2 2 2 57 81 24 79
191 4 2 2 2 75 51 63 4
192 4 2 2 2 75 63 51 73
193 4 2 2 2 17 75 63 4
194 4 2 2 2 17 63 75 73
195 4 2 2 2 47 75 17 4
196 4 2 2 2 81 24 71 48
197 4 2 2 2 81 71 24 79
198 4 2 2 2 17 71 24 48
199 4 2 2 2 17 24 71 79
200 4 2 2 2 75 17 77 47
201 4 2 2 2 75 77 17 73
202 4 2 2 2 24 77 17 47
203 4 2 2 2 24 17 77 73
204 4 2 3 3 113 112 95 98
205 4 2 3 3 101 122 92 103
206 4 2 3 3 92 101 114 120
207 4 2 3 3 95 110 104 98
208 4 2 3 3 112 95 103 113
209 4 2 3 3 103 101 122 113
210 4 2 3 3 120 91 100 105
211 4 2 3 3 97 94 110 115
212 4 2 3 3 120 114 92 104
213 4 2 3 3 114 104 110 98
214 4 2 3 3 106 96 112 99
215 4 2 3 3 120 100 114 105
216 4 2 3 3 104 110 94 115
217 4 2 3 3 113 106 112 99
218 4 2 3 3 113 95 104 98
219 4 2 3 3 92 114 101 103
220 4 2 3 3 92 114 103 104
221 4 2 3 3 104 114 113 98
222 4 2 3 3 95 104 103 113
223 4 2 3 3 103 114 101 113
224 4 2 3 3 97 110 114 115
225 4 2 3 3 105 120 91 104
226 4 2 3 3 124 106 90 118
227 4 2 3 3 87 123 116 108
228 4 2 3 3 123 116 90 87
229 4 2 3 3 90 87 106 124
230 4 2 3 3 105 84 70 69
231 4 2 3 3 115 69 70 83
232 4 2 3 3 107 69 115 83
233 4 2 3 3 70 117 84 105
234 4 2 3 3 114 120 105 104
235 4 2 3 3 110 104 114 115
236 4 2 3 3 102 116 121 108
237 4 2 3 3 103 106 96 112
238 4 2 3 3 102 116 122 113
239 4 2 3 3 93 102 121 108
240 4 2 3 3 96 95 103 112
241 4 2 3 3 122 101 102 113
242 4 2 3 3 110 114 98 97
243 4 2 3 3 92 91 120 104
244 4 2 3 3 103 106 112 113
245 4 2 3 3 103 122 116 113
246 4 2 3 3 106 86 111 124
247 4 2 3 3 123 89 116 121
248 4 2 3 3 100 117 114 105
249 4 2 3 3 94 107 104 115
250 4 2 3 3 84 119 60 105
251 4 2 3 3 115 56 109 83
252 4 2 3 3 113 118 106 99
253 4 2 3 3 104 114 103 113
254 4 2 3 3 121 116 123 108
255 4 2 3 3 124 111 106 118
256 4 2 3 3 122 93 92 103
257 4 2 3 3 99 112 113 98
258 4 2 3 3 89 102 116 121
259 4 2 3 3 106 86 96 111
260 4 2 3 3 101 100 114 120
261 4 2 3 3 94 110 104 95
262 4 2 3 3 115 109 107 83
263 4 2 3 3 84 117 119 105
264 4 2 3 3 97 56 109 115
265 4 2 3 3 60 91 105 119
266 4 2 3 3 116 90 89 123
267 4 2 3 3 86 106 87 124
268 4 2 3 3 69 70 105 115
269 4 2 3 3 69 60 105 84
270 4 2 3 3 70 56 115 83
271 4 2 3 3 87 116 90 106
272 4 2 3 3 105 107 69 115
273 4 2 3 3 108 116 87 106
274 4 2 3 3 106 116 90 118
275 4 2 3 3 105 70 117 115
276 4 2 3 3 85 93 121 108
277 4 2 3 3 99 118 111 88
278 4 2 3 3 100 59 117 119
279 4 2 3 3 94 55 107 109
280 4 2 3 3 105 117 114 115
281 4 2 3 3 104 107 105 115
282 4 2 3 3 103 116 108 106
283 4 2 3 3 118 106 116 113
284 4 2 3 3 87 85 123 108
285 4 2 3 3 118 90 124 88
286 4 2 3 3 55 69 107 83
287 4 2 3 3 59 70 117 84
288 4 2 3 3 104 105 114 115
289 4 2 3 3 121 123 85 108
290 4 2 3 3 118 124 111 88
291 4 2 3 3 55 107 109 83
292 4 2 3 3 119 59 117 84
293 4 2 3 3 119 60 59 84
294 4 2 3 3 86 111 124 88
295 4 2 3 3 121 123 89 85
296 4 2 3 3 56 55 109 83
297 4 2 3 3 106 103 116 113
298 4 2 3 3 94 115 109 107
299 4 2 3 3 109 115 94 97
300 4 2 3 3 100 105 119 117
301 4 2 3 3 119 105 100 91
302 4 2 3 3 106 99 111 96
303 4 2 3 3 111 99 106 118
304 4 2 3 3 108 103 122 116
305 4 2 3 3 122 103 108 93
306 4 2 3 3 122 102 108 116
307 4 2 3 3 108 102 122 93
$EndElements
