$MeshFormat
2.2 0 8
$EndMeshFormat
$PhysicalNames
1
3 1 "air_OPEM_RESERVED_1"
$EndPhysicalNames
$Nodes
125
1 0.05 0 0
2 0.05 0 0.1
3 0.07286000000000001 0 0
4 0.07286000000000001 0 0.1
5 0.06143000000000001 0 0
6 0.06143000000000001 0 0.1
7 0.07286000000000001 0.01016 0
8 0.07286000000000001 0.01016 0.1
9 0.05 0.01016 0
10 0.05 0.01016 0.1
11 0.06143000000000001 0.01016 0
12 0.06143000000000001 0.01016 0.1
13 0.05 0 0.009999999999999983
14 0.05 0 0.01999999999999997
15 0.05 0 0.02999999999999994
16 0.05 0 0.03999999999999994
17 0.05 0 0.04999999999999991
18 0.05 0 0.05999999999999988
19 0.05 0 0.06999999999999987
20 0.05 0 0.07999999999999986
21 0.05 0 0.08999999999999991
22 0.07286000000000001 0 0.009999999999999983
23 0.07286000000000001 0 0.01999999999999997
24 0.07286000000000001 0 0.02999999999999994
25 0.07286000000000001 0 0.03999999999999994
26 0.07286000000000001 0 0.04999999999999991
27 0.07286000000000001 0 0.05999999999999988
28 0.07286000000000001 0 0.06999999999999987
29 0.07286000000000001 0 0.07999999999999986
30 0.07286000000000001 0 0.08999999999999991
31 0.055715 0 0
32 0.067145 0 0
33 0.055715 0 0.1
34 0.067145 0 0.1
35 0.07286000000000001 0.01016 0.009999999999999983
36 0.07286000000000001 0.01016 0.01999999999999997
37 0.07286000000000001 0.01016 0.02999999999999994
38 0.07286000000000001 0.01016 0.03999999999999994
39 0.07286000000000001 0.01016 0.04999999999999991
40 0.07286000000000001 0.01016 0.05999999999999988
41 0.07286000000000001 0.01016 0.06999999999999987
42 0.07286000000000001 0.01016 0.07999999999999986
43 0.07286000000000001 0.01016 0.08999999999999991
44 0.05 0.01016 0.009999999999999983
45 0.05 0.01016 0.01999999999999997
46 0.05 0.01016 0.02999999999999994
47 0.05 0.01016 0.03999999999999994
48 0.05 0.01016 0.04999999999999991
49 0.05 0.01016 0.05999999999999988
50 0.05 0.01016 0.06999999999999987
51 0.05 0.01016 0.07999999999999986
52 0.05 0.01016 0.08999999999999991
53 0.06714500000000001 0.01016 0
54 0.05571500000000001 0.01016 0
55 0.06714500000000001 0.01016 0.1
56 0.05571500000000001 0.01016 0.1
57 0.05866025403784436 0 0.04499999999999993
58 0.06524000000000001 0 0.06666666666666653
59 0.06541051657491956 0 0.01621550028935053
60 0.06541051657491956 0 0.08378449971064934
61 0.05643123682568307 0 0.004548833622683889
62 0.05643123682568307 0 0.0954511663773161
63 0.06419974596215565 0 0.03499999999999994
64 0.05866025403784437 0 0.02499999999999996
65 0.05866343619995133 0 0.07522649415625648
66 0.06409997565432426 0 0.05523809523809513
67 0.064755953479243 0 0.006158285780787097
68 0.06475595347924301 0 0.09384171421921288
69 0.05725593941832768 0 0.01268469721656574
70 0.05729654008403079 0 0.08719264745188711
71 0.06664042445757455 0 0.04499999999999993
72 0.05579596104691881 0 0.05504761904761895
73 0.05621957554242545 0 0.03499999999999994
74 0.06679810331498391 0 0.02524310005787007
75 0.05677075918584736 0 0.0643349383595779
76 0.06700679055497419 0 0.07513553210671442
77 0.07286000000000001 0.005080000000000004 0.03499999999999994
78 0.07286000000000001 0.005079999999999999 0.06499999999999988
79 0.07286000000000001 0.005080000000000001 0.04499999999999993
80 0.07286000000000001 0.005079999999999999 0.01499999999999997
81 0.07286000000000001 0.005079999999999999 0.05499999999999988
82 0.07286000000000001 0.005080000000000001 0.02499999999999996
83 0.07286000000000001 0.005080000000000001 0.07499999999999986
84 0.07286000000000001 0.005080000000000001 0.004999999999999991
85 0.07286000000000001 0.005080000000000001 0.08499999999999988
86 0.07286000000000001 0.00508 0.09500000000000001
87 0.06419974596215565 0.01016 0.04499999999999993
88 0.05762 0.01016 0.06666666666666653
89 0.06419974596215565 0.01016 0.02499999999999996
90 0.05744948342508045 0.01016 0.08378449971064934
91 0.05784921336244624 0.01016 0.005640690899933781
92 0.06642876317431694 0.01016 0.0954511663773161
93 0.05866025403784437 0.01016 0.03499999999999994
94 0.06419656380004868 0.01016 0.07522649415625648
95 0.05841709809673421 0.01016 0.01613562118058188
96 0.05876002434567575 0.01016 0.05523809523809513
97 0.058104046520757 0.01016 0.09384171421921288
98 0.06384264475400266 0.01016 0.0107458709099681
99 0.06556345991596922 0.01016 0.08719264745188711
100 0.06579941231083283 0.01016 0.01738843176696392
101 0.05621957554242546 0.01016 0.04499999999999993
102 0.06706403895308119 0.01016 0.05504761904761895
103 0.05625541961934685 0.01016 0.02522712423611634
104 0.06664042445757457 0.01016 0.03499999999999994
105 0.06608924081415266 0.01016 0.0643349383595779
106 0.05585320944502582 0.01016 0.07513553210671442
107 0.06599780968607483 0.01016 0.004397760301650309
108 0.05 0.005079999999999999 0.03499999999999994
109 0.05 0.005079999999999999 0.04499999999999993
110 0.05 0.005080000000000001 0.01499999999999997
111 0.05 0.005080000000000001 0.05499999999999988
112 0.05 0.005080000000000003 0.06499999999999988
113 0.05 0.00508 0.07499999999999986
114 0.05 0.00508 0.02499999999999996
115 0.05 0.005079999999999999 0.004999999999999991
116 0.05 0.005079999999999999 0.08499999999999988
117 0.05 0.00508 0.09500000000000001
118 0.05741441212650335 0.00508 0
119 0.05376888242530067 0.00508 0
120 0.06884441212650334 0.00508 0
121 0.06519888242530067 0.00508 0
122 0.05741441212650335 0.00508 0.1
123 0.05376888242530067 0.00508 0.1
124 0.06884441212650334 0.00508 0.1
125 0.06519888242530067 0.00508 0.1
$EndNodes
$Elements
292
1 4 2 1 1 6 12 97 122
2 4 2 1 1 11 5 91 118
3 4 2 1 1 108 15 114 103
4 4 2 1 1 109 73 16 108
5 4 2 1 1 38 104 77 79
6 4 2 1 1 73 15 108 103
7 4 2 1 1 82 77 37 74
8 4 2 1 1 102 39 81 79
9 4 2 1 1 17 109 111 72
10 4 2 1 1 77 79 71 25
11 4 2 1 1 109 108 47 101
12 4 2 1 1 79 104 77 71
13 4 2 1 1 108 109 73 101
14 4 2 1 1 37 77 104 74
15 4 2 1 1 110 114 14 95
16 4 2 1 1 97 125 68 92
17 4 2 1 1 95 110 114 45
18 4 2 1 1 79 26 81 71
19 4 2 1 1 111 101 109 48
20 4 2 1 1 46 108 114 103
21 4 2 1 1 109 101 111 72
22 4 2 1 1 81 102 79 71
23 4 2 1 1 74 82 77 24
24 4 2 1 1 84 80 98 22
25 4 2 1 1 67 84 98 22
26 4 2 1 1 97 123 62 122
27 4 2 1 1 45 114 95 103
28 4 2 1 1 20 113 106 65
29 4 2 1 1 42 83 76 94
30 4 2 1 1 107 91 121 67
31 4 2 1 1 6 97 125 68
32 4 2 1 1 124 68 125 92
33 4 2 1 1 80 98 35 84
34 4 2 1 1 5 91 67 121
35 4 2 1 1 121 120 107 67
36 4 2 1 1 89 82 37 74
37 4 2 1 1 95 114 64 103
38 4 2 1 1 42 76 60 94
39 4 2 1 1 106 90 20 65
40 4 2 1 1 87 104 38 79
41 4 2 1 1 57 73 16 109
42 4 2 1 1 37 104 89 74
43 4 2 1 1 71 63 77 25
44 4 2 1 1 101 108 47 93
45 4 2 1 1 108 73 103 93
46 4 2 1 1 39 102 87 79
47 4 2 1 1 17 57 109 72
48 4 2 1 1 64 14 114 95
49 4 2 1 1 73 108 101 93
50 4 2 1 1 63 77 104 71
51 4 2 1 1 49 111 96 72
52 4 2 1 1 27 81 66 102
53 4 2 1 1 49 111 72 75
54 4 2 1 1 102 27 81 105
55 4 2 1 1 63 104 77 74
56 4 2 1 1 118 119 61 91
57 4 2 1 1 57 73 109 101
58 4 2 1 1 87 104 79 71
59 4 2 1 1 102 87 79 71
60 4 2 1 1 101 109 57 72
61 4 2 1 1 103 46 108 93
62 4 2 1 1 81 66 102 71
63 4 2 1 1 96 111 101 72
64 4 2 1 1 84 98 107 67
65 4 2 1 1 96 101 111 48
66 4 2 1 1 66 81 26 71
67 4 2 1 1 88 106 113 65
68 4 2 1 1 58 76 83 94
69 4 2 1 1 110 14 69 95
70 4 2 1 1 74 77 63 24
71 4 2 1 1 66 96 75 105
72 4 2 1 1 114 15 64 103
73 4 2 1 1 12 6 97 125
74 4 2 1 1 111 49 112 75
75 4 2 1 1 78 81 27 105
76 4 2 1 1 15 73 64 103
77 4 2 1 1 100 64 95 59
78 4 2 1 1 89 104 63 74
79 4 2 1 1 87 57 93 63
80 4 2 1 1 112 18 111 75
81 4 2 1 1 40 81 78 105
82 4 2 1 1 57 96 66 87
83 4 2 1 1 87 102 66 71
84 4 2 1 1 96 101 57 72
85 4 2 1 1 72 96 49 75
86 4 2 1 1 66 27 102 105
87 4 2 1 1 104 93 89 63
88 4 2 1 1 89 64 95 100
89 4 2 1 1 57 73 101 93
90 4 2 1 1 104 87 63 71
91 4 2 1 1 19 88 113 65
92 4 2 1 1 41 58 83 94
93 4 2 1 1 57 73 93 63
94 4 2 1 1 104 87 93 63
95 4 2 1 1 96 88 75 105
96 4 2 1 1 75 58 66 105
97 4 2 1 1 19 113 88 112
98 4 2 1 1 83 78 58 41
99 4 2 1 1 90 116 20 70
100 4 2 1 1 99 85 60 42
101 4 2 1 1 5 11 91 121
102 4 2 1 1 93 64 89 63
103 4 2 1 1 58 78 27 105
104 4 2 1 1 112 49 88 75
105 4 2 1 1 96 57 101 87
106 4 2 1 1 66 57 87 71
107 4 2 1 1 113 106 88 50
108 4 2 1 1 76 58 83 28
109 4 2 1 1 60 65 90 94
110 4 2 1 1 62 70 97 68
111 4 2 1 1 99 97 68 92
112 4 2 1 1 74 59 82 23
113 4 2 1 1 72 111 18 75
114 4 2 1 1 81 40 102 105
115 4 2 1 1 57 96 72 66
116 4 2 1 1 102 66 96 87
117 4 2 1 1 93 101 57 87
118 4 2 1 1 63 87 57 71
119 4 2 1 1 103 73 64 93
120 4 2 1 1 91 107 98 67
121 4 2 1 1 83 58 78 28
122 4 2 1 1 50 88 113 112
123 4 2 1 1 100 82 59 23
124 4 2 1 1 91 69 61 67
125 4 2 1 1 93 64 103 89
126 4 2 1 1 59 82 100 74
127 4 2 1 1 69 91 98 67
128 4 2 1 1 63 64 89 74
129 4 2 1 1 100 89 64 59
130 4 2 1 1 14 64 69 95
131 4 2 1 1 93 73 64 63
132 4 2 1 1 70 97 117 62
133 4 2 1 1 68 86 99 92
134 4 2 1 1 27 66 58 105
135 4 2 1 1 96 88 49 75
136 4 2 1 1 82 100 80 23
137 4 2 1 1 68 70 97 99
138 4 2 1 1 65 60 76 94
139 4 2 1 1 65 106 90 94
140 4 2 1 1 60 99 42 94
141 4 2 1 1 65 90 20 70
142 4 2 1 1 117 52 97 70
143 4 2 1 1 30 68 86 99
144 4 2 1 1 98 107 35 84
145 4 2 1 1 102 96 66 105
146 4 2 1 1 75 72 96 66
147 4 2 1 1 100 36 82 80
148 4 2 1 1 115 69 61 91
149 4 2 1 1 59 100 89 74
150 4 2 1 1 125 97 12 92
151 4 2 1 1 58 88 65 94
152 4 2 1 1 60 90 99 94
153 4 2 1 1 70 65 90 60
154 4 2 1 1 105 58 41 94
155 4 2 1 1 65 19 88 75
156 4 2 1 1 88 106 65 94
157 4 2 1 1 76 58 65 94
158 4 2 1 1 112 88 19 75
159 4 2 1 1 41 78 58 105
160 4 2 1 1 123 117 97 62
161 4 2 1 1 59 89 64 74
162 4 2 1 1 64 95 103 89
163 4 2 1 1 60 30 85 99
164 4 2 1 1 116 90 52 70
165 4 2 1 1 90 97 52 70
166 4 2 1 1 30 60 68 99
167 4 2 1 1 59 80 100 23
168 4 2 1 1 68 124 86 92
169 4 2 1 1 52 117 116 70
170 4 2 1 1 86 85 30 99
171 4 2 1 1 95 69 110 44
172 4 2 1 1 82 89 100 74
173 4 2 1 1 69 95 91 44
174 4 2 1 1 84 107 120 67
175 4 2 1 1 64 69 95 59
176 4 2 1 1 69 98 59 67
177 4 2 1 1 91 115 69 44
178 4 2 1 1 107 91 11 121
179 4 2 1 1 98 100 95 59
180 4 2 1 1 97 56 123 122
181 4 2 1 1 21 116 117 70
182 4 2 1 1 99 86 85 43
183 4 2 1 1 91 95 69 98
184 4 2 1 1 100 98 80 59
185 4 2 1 1 115 61 119 91
186 4 2 1 1 105 88 58 94
187 4 2 1 1 75 88 65 58
188 4 2 1 1 115 110 69 44
189 4 2 1 1 110 69 13 115
190 4 2 1 1 98 95 69 59
191 4 2 1 1 70 68 60 99
192 4 2 1 1 70 90 97 99
193 4 2 1 1 34 68 125 124
194 4 2 1 1 32 120 121 67
195 4 2 1 1 70 117 21 62
196 4 2 1 1 86 99 92 43
197 4 2 1 1 97 56 117 123
198 4 2 1 1 84 120 32 67
199 4 2 1 1 124 34 68 86
200 4 2 1 1 119 115 91 54
201 4 2 1 1 58 75 88 105
202 4 2 1 1 69 61 13 115
203 4 2 1 1 91 118 119 54
204 4 2 1 1 32 3 84 67
205 4 2 1 1 34 4 68 86
206 4 2 1 1 56 10 97 117
207 4 2 1 1 53 7 107 120
208 4 2 1 1 90 70 60 99
209 4 2 1 1 119 9 1 115
210 4 2 1 1 10 2 117 123
211 4 2 1 1 115 119 9 54
212 4 2 1 1 82 89 36 100
213 4 2 1 1 62 123 2 33
214 4 2 1 1 31 1 61 119
215 4 2 1 1 55 8 124 92
216 4 2 1 1 91 115 9 54
217 4 2 1 1 98 35 100 80
218 4 2 1 1 3 7 120 84
219 4 2 1 1 8 4 124 86
220 4 2 1 1 117 56 10 123
221 4 2 1 1 84 120 3 32
222 4 2 1 1 4 34 124 86
223 4 2 1 1 110 95 44 45
224 4 2 1 1 3 84 67 22
225 4 2 1 1 30 68 4 86
226 4 2 1 1 97 10 52 117
227 4 2 1 1 46 47 108 93
228 4 2 1 1 25 63 77 24
229 4 2 1 1 82 89 37 36
230 4 2 1 1 38 39 87 79
231 4 2 1 1 16 57 109 17
232 4 2 1 1 49 96 111 48
233 4 2 1 1 66 81 27 26
234 4 2 1 1 33 62 123 122
235 4 2 1 1 61 31 119 118
236 4 2 1 1 124 125 55 92
237 4 2 1 1 83 42 41 94
238 4 2 1 1 113 20 19 65
239 4 2 1 1 64 14 15 114
240 4 2 1 1 35 36 100 80
241 4 2 1 1 107 53 120 121
242 4 2 1 1 91 9 115 44
243 4 2 1 1 107 7 35 84
244 4 2 1 1 21 117 2 62
245 4 2 1 1 92 8 86 43
246 4 2 1 1 1 13 61 115
247 4 2 1 1 52 51 90 116
248 4 2 1 1 60 30 29 85
249 4 2 1 1 27 78 58 28
250 4 2 1 1 50 49 88 112
251 4 2 1 1 22 80 59 23
252 4 2 1 1 7 107 120 84
253 4 2 1 1 28 83 76 29
254 4 2 1 1 113 106 50 51
255 4 2 1 1 21 20 116 70
256 4 2 1 1 42 99 85 43
257 4 2 1 1 119 1 61 115
258 4 2 1 1 123 2 117 62
259 4 2 1 1 86 124 8 92
260 4 2 1 1 13 14 69 110
261 4 2 1 1 114 45 46 103
262 4 2 1 1 15 16 73 108
263 4 2 1 1 38 77 104 37
264 4 2 1 1 24 74 82 23
265 4 2 1 1 6 62 33 122
266 4 2 1 1 31 61 5 118
267 4 2 1 1 55 125 12 92
268 4 2 1 1 101 47 109 48
269 4 2 1 1 71 79 26 25
270 4 2 1 1 56 97 12 122
271 4 2 1 1 78 41 40 105
272 4 2 1 1 19 18 112 75
273 4 2 1 1 68 125 6 34
274 4 2 1 1 32 121 5 67
275 4 2 1 1 81 40 39 102
276 4 2 1 1 111 18 17 72
277 4 2 1 1 11 118 91 54
278 4 2 1 1 53 107 11 121
279 4 2 1 1 76 42 85 83
280 4 2 1 1 85 42 76 60
281 4 2 1 1 85 29 76 83
282 4 2 1 1 76 29 85 60
283 4 2 1 1 106 20 116 113
284 4 2 1 1 116 20 106 90
285 4 2 1 1 116 51 106 113
286 4 2 1 1 106 51 116 90
287 4 2 1 1 98 22 59 67
288 4 2 1 1 59 22 98 80
289 4 2 1 1 97 6 62 68
290 4 2 1 1 97 62 6 122
291 4 2 1 1 91 5 61 118
292 4 2 1 1 91 61 5 67
$EndElements
