$MeshFormat
2.2 0 8
$EndMeshFormat
$PhysicalNames
1
3 1 "air_OPEM_RESERVED_1"
$EndPhysicalNames
$Nodes
74
1 0 0 0
2 0 0 0.05
3 0.02286 0 0
4 0.02286 0 0.05
5 0.01143 0 0.05
6 0.02286 0.01016 0
7 0.02286 0.01016 0.05
8 0 0.01016 0
9 0 0.01016 0.05
10 0.01143 0.01016 0.05
11 0 0 0.009999999999999997
12 0 0 0.02
13 0 0 0.02999999999999996
14 0 0 0.03999999999999995
15 0.02286 0 0.009999999999999997
16 0.02286 0 0.02
17 0.02286 0 0.02999999999999996
18 0.02286 0 0.03999999999999995
19 0.007620000000000002 0 0
20 0.01524000000000001 0 0
21 0.005715 0 0.05
22 0.017145 0 0.05
23 0.02286 0.01016 0.009999999999999997
24 0.02286 0.01016 0.02
25 0.02286 0.01016 0.02999999999999996
26 0.02286 0.01016 0.03999999999999995
27 0 0.01016 0.009999999999999997
28 0 0.01016 0.02
29 0 0.01016 0.02999999999999996
30 0 0.01016 0.03999999999999995
31 0.01524 0.01016 0
32 0.007619999999999991 0.01016 0
33 0.017145 0.01016 0.05
34 0.005714999999999994 0.01016 0.05
35 0.01175341095692239 0 0.006757306727542684
36 0.007723559838399355 0 0.02720002896863011
37 0.006431236825683065 0 0.0454511663773161
38 0.01525440087501205 0 0.0341511712054211
39 0.008054513333980435 0 0.01556533367088182
40 0.01473365123639907 0 0.04389409586132312
41 0.007357141462582257 0 0.03678274373544839
42 0.01686972479141289 0 0.01372044006640408
43 0.01560369980646745 0 0.02343949565188951
44 0.01791662714966706 0 0.006095549358789352
45 0.005485584858180565 0 0.006464528079684902
46 0.02286 0.005079999999999999 0.01499999999999999
47 0.02286 0.005079999999999999 0.02499999999999997
48 0.02286 0.00508 0.03499999999999997
49 0.02286 0.005080000000000001 0.04499999999999999
50 0.02286 0.005080000000000001 0.004999999999999999
51 0.01110658904307761 0.01016 0.006757306727542684
52 0.01444766776824344 0.01016 0.02535381996209443
53 0.007849213362446233 0.01016 0.04435930910006619
54 0.008452515497603889 0.01016 0.03391492452828871
55 0.01470709060982568 0.01016 0.01530158952709101
56 0.01384972823417659 0.01016 0.039264238231806
57 0.005973875865888125 0.01016 0.01367648270910561
58 0.01579941231083283 0.01016 0.03261156823303606
59 0.006965253695640744 0.01016 0.02360081151506901
60 0.0159989902661038 0.01016 0.04560392455531202
61 0.00494009298179315 0.01016 0.006086757887329658
62 0.01735473593058066 0.01016 0.006411779250926739
63 0 0.00508 0.01499999999999999
64 0 0.005080000000000002 0.02499999999999997
65 0 0.005080000000000001 0.03499999999999997
66 0 0.005080000000000002 0.04499999999999999
67 0 0.005079999999999999 0.004999999999999999
68 0.01796142857142857 0.005079999999999999 0
69 0.004898571428571427 0.005079999999999999 0
70 0.01143 0.005079999999999999 0
71 0.004015787037037036 0.00508 0.05
72 0.007661157407407406 0.00508 0.05
73 0.01884441212650334 0.00508 0.05
74 0.01519888242530067 0.00508 0.05
$EndNodes
$Elements
167
1 4 2 1 1 62 70 68 44
2 4 2 1 1 5 10 53 72
3 4 2 1 1 61 45 69 70
4 4 2 1 1 61 69 32 70
5 4 2 1 1 20 68 70 44
6 4 2 1 1 61 51 45 70
7 4 2 1 1 70 62 35 44
8 4 2 1 1 42 35 62 44
9 4 2 1 1 35 62 51 42
10 4 2 1 1 61 45 51 57
11 4 2 1 1 57 45 51 35
12 4 2 1 1 42 62 46 44
13 4 2 1 1 48 18 49 56
14 4 2 1 1 49 18 40 56
15 4 2 1 1 53 74 40 60
16 4 2 1 1 62 50 46 44
17 4 2 1 1 40 41 53 56
18 4 2 1 1 37 41 53 40
19 4 2 1 1 61 45 57 63
20 4 2 1 1 61 67 45 63
21 4 2 1 1 70 62 51 35
22 4 2 1 1 56 49 48 26
23 4 2 1 1 62 55 51 42
24 4 2 1 1 70 51 45 35
25 4 2 1 1 5 53 74 40
26 4 2 1 1 73 40 74 60
27 4 2 1 1 41 53 66 37
28 4 2 1 1 15 42 46 44
29 4 2 1 1 67 61 27 63
30 4 2 1 1 15 46 50 44
31 4 2 1 1 57 27 61 63
32 4 2 1 1 55 52 59 43
33 4 2 1 1 32 51 61 70
34 4 2 1 1 47 38 58 43
35 4 2 1 1 70 31 62 68
36 4 2 1 1 47 58 52 43
37 4 2 1 1 40 49 56 60
38 4 2 1 1 45 19 69 70
39 4 2 1 1 58 17 38 47
40 4 2 1 1 39 45 57 35
41 4 2 1 1 35 20 70 44
42 4 2 1 1 30 53 66 41
43 4 2 1 1 65 54 30 41
44 4 2 1 1 53 30 54 41
45 4 2 1 1 71 53 72 37
46 4 2 1 1 46 24 55 43
47 4 2 1 1 46 47 24 43
48 4 2 1 1 54 53 41 56
49 4 2 1 1 66 65 30 41
50 4 2 1 1 14 65 66 41
51 4 2 1 1 47 17 38 43
52 4 2 1 1 47 52 24 43
53 4 2 1 1 52 54 36 58
54 4 2 1 1 38 41 40 56
55 4 2 1 1 38 36 54 58
56 4 2 1 1 10 5 53 74
57 4 2 1 1 24 52 55 43
58 4 2 1 1 43 46 47 16
59 4 2 1 1 66 14 41 37
60 4 2 1 1 42 46 55 43
61 4 2 1 1 29 54 65 36
62 4 2 1 1 56 53 40 60
63 4 2 1 1 23 62 50 46
64 4 2 1 1 63 59 28 64
65 4 2 1 1 58 48 17 47
66 4 2 1 1 64 12 59 36
67 4 2 1 1 65 64 29 36
68 4 2 1 1 12 59 63 64
69 4 2 1 1 54 41 38 56
70 4 2 1 1 11 45 67 63
71 4 2 1 1 55 62 46 42
72 4 2 1 1 49 56 60 26
73 4 2 1 1 39 12 59 63
74 4 2 1 1 13 64 65 36
75 4 2 1 1 58 25 48 47
76 4 2 1 1 39 59 36 43
77 4 2 1 1 64 59 29 36
78 4 2 1 1 57 39 59 63
79 4 2 1 1 38 48 17 58
80 4 2 1 1 29 59 54 36
81 4 2 1 1 65 54 41 36
82 4 2 1 1 43 42 46 16
83 4 2 1 1 57 45 39 63
84 4 2 1 1 12 39 59 36
85 4 2 1 1 54 41 36 38
86 4 2 1 1 73 49 40 60
87 4 2 1 1 31 62 51 70
88 4 2 1 1 53 10 74 60
89 4 2 1 1 57 59 28 63
90 4 2 1 1 56 38 54 58
91 4 2 1 1 56 48 38 58
92 4 2 1 1 59 54 36 52
93 4 2 1 1 45 19 70 35
94 4 2 1 1 62 23 55 46
95 4 2 1 1 71 66 53 37
96 4 2 1 1 22 40 74 73
97 4 2 1 1 68 50 62 44
98 4 2 1 1 67 45 69 61
99 4 2 1 1 40 22 49 73
100 4 2 1 1 52 36 59 43
101 4 2 1 1 45 11 39 63
102 4 2 1 1 41 13 65 36
103 4 2 1 1 53 34 66 71
104 4 2 1 1 22 4 40 49
105 4 2 1 1 33 7 73 60
106 4 2 1 1 31 51 32 70
107 4 2 1 1 58 52 25 47
108 4 2 1 1 34 53 72 71
109 4 2 1 1 20 70 19 35
110 4 2 1 1 66 34 9 71
111 4 2 1 1 53 34 9 66
112 4 2 1 1 48 56 26 58
113 4 2 1 1 66 9 2 71
114 4 2 1 1 4 7 49 73
115 4 2 1 1 2 71 21 37
116 4 2 1 1 47 52 25 24
117 4 2 1 1 49 22 4 73
118 4 2 1 1 65 54 29 30
119 4 2 1 1 18 40 4 49
120 4 2 1 1 20 3 68 44
121 4 2 1 1 32 8 69 61
122 4 2 1 1 8 1 69 67
123 4 2 1 1 6 3 50 68
124 4 2 1 1 23 24 55 46
125 4 2 1 1 13 65 14 41
126 4 2 1 1 21 71 72 37
127 4 2 1 1 25 48 26 58
128 4 2 1 1 9 30 53 66
129 4 2 1 1 33 73 74 60
130 4 2 1 1 17 48 38 18
131 4 2 1 1 31 6 62 68
132 4 2 1 1 60 7 49 26
133 4 2 1 1 19 1 45 69
134 4 2 1 1 13 12 64 36
135 4 2 1 1 14 66 2 37
136 4 2 1 1 11 12 39 63
137 4 2 1 1 47 17 43 16
138 4 2 1 1 8 67 61 27
139 4 2 1 1 15 50 3 44
140 4 2 1 1 7 49 73 60
141 4 2 1 1 3 50 68 44
142 4 2 1 1 67 69 8 61
143 4 2 1 1 64 59 28 29
144 4 2 1 1 50 62 6 68
145 4 2 1 1 69 1 45 67
146 4 2 1 1 16 42 46 15
147 4 2 1 1 6 23 62 50
148 4 2 1 1 71 2 66 37
149 4 2 1 1 57 28 27 63
150 4 2 1 1 11 45 1 67
151 4 2 1 1 21 72 5 37
152 4 2 1 1 40 74 5 22
153 4 2 1 1 34 53 10 72
154 4 2 1 1 74 10 33 60
155 4 2 1 1 56 18 38 48
156 4 2 1 1 56 38 18 40
157 4 2 1 1 35 57 42 51
158 4 2 1 1 35 42 57 39
159 4 2 1 1 55 42 57 51
160 4 2 1 1 43 58 36 38
161 4 2 1 1 43 36 58 52
162 4 2 1 1 53 5 37 40
163 4 2 1 1 53 37 5 72
164 4 2 1 1 42 57 43 55
165 4 2 1 1 42 43 57 39
166 4 2 1 1 59 43 57 55
167 4 2 1 1 59 57 43 39
$EndElements
