$MeshFormat
2.2 0 8
$EndMeshFormat
$PhysicalNames
2
3 1 "er3p3_OPEM_RESERVED_1"
3 2 "er3p15_OPEM_RESERVED_2"
$EndPhysicalNames
$Nodes
466
1 0 0 0
2 0 0 0.002
3 0.0013 0 0
4 0.0013 0 0.002
5 0.00055 0 0
6 0.00075 0 0
7 0.00055 0 0.002
8 0.00075 0 0.002
9 0.0013 0.0001 0
10 0.0013 0.0001 0.002
11 0.00081 0.0001 0
12 0.0008 0.0001 0
13 0.0008 0.0001 0.002
14 0.00081 0.0001 0.002
15 0.00075 0.0001 0
16 0.0007 0.0001 0
17 0.0007 0.0001 0.002
18 0.00075 0.0001 0.002
19 0.00069 0.0001 0
20 0.00061 0.0001 0
21 0.0005999999999999999 0.0001 0
22 0.0005999999999999999 0.0001 0.002
23 0.00061 0.0001 0.002
24 0.00069 0.0001 0.002
25 0.00055 0.0001 0
26 0.0005 0.0001 0
27 0.0005 0.0001 0.002
28 0.00055 0.0001 0.002
29 0.00049 0.0001 0
30 0 0.0001 0
31 0 0.0001 0.002
32 0.00049 0.0001 0.002
33 0.00049 9.000000000000001e-05 0
34 0.00055 9.000000000000001e-05 0
35 0.00061 9.000000000000001e-05 0
36 0.00069 9.000000000000001e-05 0
37 0.00075 9.000000000000001e-05 0
38 0.00081 9.000000000000001e-05 0
39 0.00049 9.000000000000001e-05 0.002
40 0.00055 9.000000000000001e-05 0.002
41 0.00061 9.000000000000001e-05 0.002
42 0.00069 9.000000000000001e-05 0.002
43 0.00075 9.000000000000001e-05 0.002
44 0.00081 9.000000000000001e-05 0.002
45 0 0 0.0002222222222222219
46 0 0 0.000444444444444444
47 0 0 0.0006666666666666656
48 0 0 0.000888888888888887
49 0 0 0.001111111111111109
50 0 0 0.001333333333333332
51 0 0 0.001555555555555555
52 0 0 0.001777777777777778
53 0.0013 0 0.0002222222222222219
54 0.0013 0 0.000444444444444444
55 0.0013 0 0.0006666666666666656
56 0.0013 0 0.000888888888888887
57 0.0013 0 0.001111111111111109
58 0.0013 0 0.001333333333333332
59 0.0013 0 0.001555555555555555
60 0.0013 0 0.001777777777777778
61 0.0001833333333333332 0 0
62 0.0003666666666666668 0 0
63 0.0009333333333333332 0 0
64 0.001116666666666667 0 0
65 0.0001833333333333332 0 0.002
66 0.0003666666666666668 0 0.002
67 0.0009333333333333332 0 0.002
68 0.001116666666666667 0 0.002
69 0.0013 0.0001 0.0002222222222222219
70 0.0013 0.0001 0.000444444444444444
71 0.0013 0.0001 0.0006666666666666656
72 0.0013 0.0001 0.000888888888888887
73 0.0013 0.0001 0.001111111111111109
74 0.0013 0.0001 0.001333333333333332
75 0.0013 0.0001 0.001555555555555555
76 0.0013 0.0001 0.001777777777777778
77 0.001136666666666667 0.0001 0
78 0.0009733333333333333 0.0001 0
79 0.0008 0.0001 0.0002222222222222219
80 0.0008 0.0001 0.000444444444444444
81 0.0008 0.0001 0.0006666666666666656
82 0.0008 0.0001 0.000888888888888887
83 0.0008 0.0001 0.001111111111111109
84 0.0008 0.0001 0.001333333333333332
85 0.0008 0.0001 0.001555555555555555
86 0.0008 0.0001 0.001777777777777778
87 0.001136666666666667 0.0001 0.002
88 0.0009733333333333333 0.0001 0.002
89 0.0007 0.0001 0.0002222222222222219
90 0.0007 0.0001 0.000444444444444444
91 0.0007 0.0001 0.0006666666666666656
92 0.0007 0.0001 0.000888888888888887
93 0.0007 0.0001 0.001111111111111109
94 0.0007 0.0001 0.001333333333333332
95 0.0007 0.0001 0.001555555555555555
96 0.0007 0.0001 0.001777777777777778
97 0.0005999999999999999 0.0001 0.0002222222222222219
98 0.0005999999999999999 0.0001 0.000444444444444444
99 0.0005999999999999999 0.0001 0.0006666666666666656
100 0.0005999999999999999 0.0001 0.000888888888888887
101 0.0005999999999999999 0.0001 0.001111111111111109
102 0.0005999999999999999 0.0001 0.001333333333333332
103 0.0005999999999999999 0.0001 0.001555555555555555
104 0.0005999999999999999 0.0001 0.001777777777777778
105 0.0005 0.0001 0.0002222222222222219
106 0.0005 0.0001 0.000444444444444444
107 0.0005 0.0001 0.0006666666666666656
108 0.0005 0.0001 0.000888888888888887
109 0.0005 0.0001 0.001111111111111109
110 0.0005 0.0001 0.001333333333333332
111 0.0005 0.0001 0.001555555555555555
112 0.0005 0.0001 0.001777777777777778
113 0.0003266666666666666 0.0001 0
114 0.0001633333333333333 0.0001 0
115 0 0.0001 0.0002222222222222219
116 0 0.0001 0.000444444444444444
117 0 0.0001 0.0006666666666666656
118 0 0.0001 0.000888888888888887
119 0 0.0001 0.001111111111111109
120 0 0.0001 0.001333333333333332
121 0 0.0001 0.001555555555555555
122 0 0.0001 0.001777777777777778
123 0.0003266666666666666 0.0001 0.002
124 0.0001633333333333333 0.0001 0.002
125 0.000647039103997509 0 0.0001616605576511665
126 0.0006665685682328374 0 0.001814186314581861
127 0.0001833887543723724 0 0.0009889125159113499
128 0.00112637870746944 0 0.0007822415664744984
129 0.001124859879264241 0 0.00120858176324768
130 0.0001806045694691954 0 0.0005578127266153035
131 0.0001780169068676398 0 0.001459628466170128
132 0.001116121772233215 0 0.0003317472209300884
133 0.001111989198786782 0 0.001659615176914252
134 0.0002808862588342746 0 0.000155272094734636
135 0.0002777568075553814 0 0.001835740906586231
136 0.0008358469135753761 0 0.0001643382233198257
137 0.0007356236770465161 0 0.0003311690669944945
138 0.0005351076587429785 0 0.0003138283957633285
139 0.0006198797836953305 0 0.0004928349259716578
140 0.0008189176642583091 0 0.0004993663063840749
141 0.0007211001776006007 0 0.000682321018421315
142 0.0005167122239073438 0 0.0006754046969218976
143 0.0006138230640635628 0 0.0008658285000087584
144 0.0008173580282082949 0 0.0008771287648788749
145 0.0007121757202492885 0 0.001059854389767609
146 0.0005062985086971542 0 0.001056382534695015
147 0.0005977503976473466 0 0.001244763737535268
148 0.0008038514526387886 0 0.001257443464993705
149 0.0006998675540470682 0 0.001435387596754254
150 0.0004964822131497048 0 0.001419249336628575
151 0.0009220449836692647 0 0.001485836483883901
152 0.0007786829830968033 0 0.001642268363230421
153 0.0005803804724352781 0 0.001624811978743983
154 0.000378181516085255 0 0.001603768463660805
155 0.0008502199650582561 0 0.001832113821649255
156 0.0004078679141429185 0 0.001234111867676922
157 0.001125305363413191 0 0.000563748869080946
158 0.0001924500897298749 0 0.0007777777777777763
159 0.0009351405652315545 0 0.00108517928749593
160 0.0003834493344886831 0 0.0008726465039932419
161 0.001016383648344331 0 0.0001610623713535984
162 0.0001892576392932756 0 0.0003214503726204434
163 0.0003859738072387254 0 0.0004652175258780763
164 0.0004699256718292364 0 0.00181308461059548
165 0.000159934642002193 0 0.00168222027431631
166 0.0004577396659346385 0 0.0001529389247916106
167 0.001120995104421553 0 0.001422780644363446
168 0.001022461980142528 0 0.001840270709058559
169 0.0002059814858009075 0 0.001227021524169042
170 0.0009406668864471118 0 0.0006821090647981483
171 0.001126674531664393 0 0.0009999999999999981
172 0.0009174190266418079 0 0.0003263591734986201
173 0.0003318380049667645 0 0.0006697718462372591
174 0.0009370798221507271 0 0.001692020910947277
175 0.0003697930060087785 0 0.000281741462757619
176 0.0009939877797868466 0 0.0008994850763376903
177 0.001170223569119196 0 0.001855532732750118
178 0.001169834417448842 0 0.0001430063629011818
179 0.0001306954462921767 0 0.0001397889379154603
180 0.0001256526215048818 0 0.001860850476147361
181 0.0003373971995004072 0 0.001075814989289114
182 0.000336786442979038 0 0.001384500539009225
183 0.0009813783970450804 0 0.001291964328796932
184 0.0009826743916408695 0 0.0004756730126875659
185 0.0013 5e-05 0.001222222222222221
186 0.0013 4.999999999999999e-05 0.0001111111111111109
187 0.0013 5.000000000000002e-05 0.0003333333333333329
188 0.0013 5e-05 0.0009999999999999983
189 0.0013 5e-05 0.001444444444444444
190 0.0013 5e-05 0.0005555555555555548
191 0.0013 5e-05 0.001666666666666667
192 0.0013 5e-05 0.0007777777777777763
193 0.0013 5e-05 0.001888888888888889
194 0.00106165373744997 0.0001 0.000148912303152539
195 0.00106165373744997 0.0001 0.001851087696847461
196 0.001107549910270125 0.0001 0.0007777777777777765
197 0.001107549910270124 0.0001 0.001222222222222221
198 0.0009657421432508527 0.0001 0.0005941939141215689
199 0.000992450089729875 0.0001 0.0009999999999999983
200 0.0009657421432508527 0.0001 0.001405806085878429
201 0.0009783397263986968 0.0001 0.001656464302172391
202 0.0009783397263986966 0.0001 0.0003435356978276079
203 0.0008916666666666667 0.0001 0.001893911888036406
204 0.0008916666666666667 0.0001 0.0001060881119635937
205 0.001170770476523426 0.0001 0.0003042968890522464
206 0.001170770476523426 0.0001 0.001695703110947753
207 0.0009331484286501707 0.0001 0.0007855054494909793
208 0.001145418191088528 0.0001 0.0005314581813361478
209 0.001166296061958557 0.0001 0.0009999999999999983
210 0.0009331484286501704 0.0001 0.001214494550509018
211 0.001145418191088528 0.0001 0.001468541818663851
212 0.001193818176128012 0.0001 0.0001350862828854015
213 0.001193818176128013 0.0001 0.001864913717114598
214 0.00075 0.0001 0.001222222222222221
215 0.00075 0.0001 0.0003333333333333329
216 0.00075 0.0001 0.0001124737486151576
217 0.00075 0.0001 0.0009999999999999983
218 0.00075 0.0001 0.0005555555555555548
219 0.0007500000000000001 0.0001 0.001666666666666667
220 0.00075 0.0001 0.001887526251384843
221 0.00075 0.0001 0.0007777777777777763
222 0.0007500000000000001 0.0001 0.001444444444444444
223 0.00065 0.0001 3.464101615137754e-05
224 0.00065 0.0001 0.001965358983848622
225 0.00065 0.0001 9.581709211916425e-05
226 0.00065 0.0001 0.001904182907880836
227 0.00065 0.0001 0.001222222222222221
228 0.00065 0.0001 0.0003333333333333329
229 0.00065 0.0001 0.0009999999999999983
230 0.00065 0.0001 0.0005555555555555548
231 0.00065 0.0001 0.001666666666666667
232 0.00065 0.0001 0.0007777777777777762
233 0.00065 0.0001 0.001444444444444444
234 0.00055 0.0001 0.001222222222222221
235 0.0005499999999999999 0.0001 0.0003333333333333329
236 0.0005499999999999999 0.0001 0.0001124737486151576
237 0.0005499999999999999 0.0001 0.0009999999999999983
238 0.0005499999999999999 0.0001 0.001444444444444444
239 0.0005499999999999999 0.0001 0.0005555555555555548
240 0.0005499999999999999 0.0001 0.001666666666666667
241 0.0005499999999999999 0.0001 0.001887526251384843
242 0.00055 0.0001 0.0007777777777777763
243 0.0002383462625500303 0.0001 0.000148912303152539
244 0.0002519756175533897 0.0001 0.001853050540376077
245 0.0003342578567491475 0.0001 0.0005941939141215688
246 0.0003333333333333333 0.0001 0.0009629629629629613
247 0.0001656055341286867 0.0001 0.00140556947193806
248 0.0001858993040177034 0.0001 0.0007780065379962018
249 0.0003046632579290663 0.0001 0.001211377649430303
250 0.0003216602736013036 0.0001 0.0003435356978276079
251 0.0001754365390362542 0.0001 0.001655993335092495
252 0.0004083333333333332 0.0001 0.001893911888036406
253 0.0004083333333333334 0.0001 0.0001060881119635937
254 0.0003670069253135892 0.0001 0.001696788923547126
255 0.000129229523476574 0.0001 0.0003042968890522464
256 0.0003694403740024711 0.0001 0.0007780392180274054
257 0.0001538019534695467 0.0001 0.0005314854146954841
258 0.0001595999722202577 0.0001 0.00102909489543528
259 0.0001259737528556022 0.0001 0.001218097292249617
260 0.0003550555301714011 0.0001 0.00145610331241275
261 0.0001061818238719877 0.0001 0.0001350862828854015
262 0.0001077255461794727 0.0001 0.001866371347289161
263 0 5e-05 0.001222222222222221
264 0 5.000000000000002e-05 0.0001111111111111109
265 0 5.000000000000001e-05 0.0003333333333333329
266 0 5e-05 0.001444444444444444
267 0 5e-05 0.0005555555555555548
268 0 5.000000000000001e-05 0.001666666666666667
269 0 5.000000000000001e-05 0.0009999999999999983
270 0 5.000000000000001e-05 0.0007777777777777762
271 0 5e-05 0.001888888888888889
272 8.666666666666653e-05 5e-05 0
273 0.0005200000000000001 5.102885682970024e-05 0
274 0.0007199999999999999 5.102885682970024e-05 0
275 0.0006869429518273786 5.177575558394404e-05 0
276 0.00065 8.0100561265696e-05 0
277 0.0006276699581775891 4.293522947347947e-05 0
278 0.001213333333333333 5e-05 0
279 0.0007957312925170068 4.5e-05 0
280 8.666666666666653e-05 5e-05 0.002
281 0.0005200000000000001 5.102885682970024e-05 0.002
282 0.0007199999999999999 5.102885682970024e-05 0.002
283 0.0006869429518273786 5.177575558394404e-05 0.002
284 0.00065 8.0100561265696e-05 0.002
285 0.0006276699581775891 4.293522947347947e-05 0.002
286 0.001213333333333333 5e-05 0.002
287 0.0007957312925170068 4.5e-05 0.002
288 0.0005862374367421333 5.011240753627077e-05 0.001883389787275436
289 0.0006978667765738122 4.922881723177813e-05 0.001893543971884612
290 0.0007196100024197649 4.773902199260502e-05 9.391520558151988e-05
291 0.0013 0.0002 0
292 0.00081 0.00013 0
293 0.00075 0.00013 0
294 0.00069 0.00013 0
295 0.00061 0.00013 0
296 0.00055 0.00013 0
297 0.00049 0.00013 0
298 0 0.0002 0
299 0.0007945401685505001 0.000115 0
300 0.0007054598314495001 0.000115 0
301 0.0005945401685505 0.000115 0
302 0.0005054598314494999 0.000115 0
303 0.0005054598314494999 0.000115 0.002
304 0.0013 0.0002 0.002
305 0.00081 0.00013 0.002
306 0.00075 0.00013 0.002
307 0.00069 0.00013 0.002
308 0.00061 0.00013 0.002
309 0.00055 0.00013 0.002
310 0.00049 0.00013 0.002
311 0 0.0002 0.002
312 0.0007945401685505001 0.000115 0.002
313 0.0007054598314495001 0.000115 0.002
314 0.0005945401685505 0.000115 0.002
315 0.001083333333333333 0.0002 0
316 0.0008666666666666658 0.0002 0
317 0.0006499999999999985 0.0002 0
318 0.0004333333333333311 0.0002 0
319 0.0002166666666666651 0.0002 0
320 0.0005054598314494999 0.000115 0.0002222222222222219
321 0.0005054598314494999 0.000115 0.000444444444444444
322 0.0005054598314494999 0.000115 0.0006666666666666656
323 0.0005054598314494999 0.000115 0.000888888888888887
324 0.0005054598314494999 0.000115 0.001111111111111109
325 0.0005054598314494999 0.000115 0.001333333333333332
326 0.0005054598314494999 0.000115 0.001555555555555555
327 0.0005054598314494999 0.000115 0.001777777777777778
328 0.001083333333333333 0.0002 0.002
329 0.0008666666666666658 0.0002 0.002
330 0.0006499999999999985 0.0002 0.002
331 0.0004333333333333311 0.0002 0.002
332 0.0002166666666666651 0.0002 0.002
333 0 0.0002 0.0002222222222222219
334 0 0.0002 0.000444444444444444
335 0 0.0002 0.0006666666666666656
336 0 0.0002 0.000888888888888887
337 0 0.0002 0.001111111111111109
338 0 0.0002 0.001333333333333332
339 0 0.0002 0.001555555555555555
340 0 0.0002 0.001777777777777778
341 0.0013 0.0002 0.0002222222222222219
342 0.0013 0.0002 0.000444444444444444
343 0.0013 0.0002 0.0006666666666666656
344 0.0013 0.0002 0.000888888888888887
345 0.0013 0.0002 0.001111111111111109
346 0.0013 0.0002 0.001333333333333332
347 0.0013 0.0002 0.001555555555555555
348 0.0013 0.0002 0.001777777777777778
349 0.0007945401685505 0.000115 0.0002222222222222219
350 0.0007945401685505 0.000115 0.000444444444444444
351 0.0007945401685505 0.000115 0.0006666666666666656
352 0.0007945401685505 0.000115 0.000888888888888887
353 0.0007945401685505 0.000115 0.001111111111111109
354 0.0007945401685505 0.000115 0.001333333333333332
355 0.0007945401685505 0.000115 0.001555555555555555
356 0.0007945401685505 0.000115 0.001777777777777778
357 0.0007054598314495 0.000115 0.0002222222222222219
358 0.0007054598314495 0.000115 0.000444444444444444
359 0.0007054598314495 0.000115 0.0006666666666666656
360 0.0007054598314495 0.000115 0.000888888888888887
361 0.0007054598314495 0.000115 0.001111111111111109
362 0.0007054598314495 0.000115 0.001333333333333332
363 0.0007054598314495 0.000115 0.001555555555555555
364 0.0007054598314495 0.000115 0.001777777777777778
365 0.0005945401685505 0.000115 0.0002222222222222219
366 0.0005945401685505 0.000115 0.000444444444444444
367 0.0005945401685505 0.000115 0.0006666666666666656
368 0.0005945401685505 0.000115 0.000888888888888887
369 0.0005945401685505 0.000115 0.001111111111111109
370 0.0005945401685505 0.000115 0.001333333333333332
371 0.0005945401685505 0.000115 0.001555555555555555
372 0.0005945401685505 0.000115 0.001777777777777778
373 9.49999999999996e-05 0.00015 0
374 0.001205 0.00015 0
375 9.49999999999996e-05 0.00015 0.002
376 0.001205 0.00015 0.002
377 0 0.00015 0.001222222222222221
378 0 0.00015 0.0001111111111111109
379 0 0.00015 0.0003333333333333329
380 0 0.00015 0.001444444444444444
381 0 0.00015 0.0005555555555555548
382 0 0.00015 0.001666666666666667
383 0 0.00015 0.0009999999999999983
384 0 0.00015 0.0007777777777777763
385 0 0.00015 0.001888888888888889
386 0.0001956659780276062 0.0002 0.0007713666698629431
387 0.001107503130402486 0.0002 0.001222381210384307
388 0.001107732060281333 0.0002 0.0005583978008596409
389 0.0001769071299058084 0.0002 0.001461090071824779
390 0.0007741164502996004 0.0002 0.001802987035839393
391 0.0005413170440530384 0.0002 0.0002155623721533891
392 0.0003280342270479085 0.0002 0.001833165146091962
393 0.0009519339419866463 0.0002 0.0002010281988846882
394 0.001117212860956645 0.0002 0.001665240458856385
395 0.00019314857708099 0.0002 0.0003588913301586282
396 0.001109422783455147 0.0002 0.001444326732031905
397 0.000915847647393478 0.0002 0.001333802525722649
398 0.0009149073113394424 0.0002 0.001111932877231421
399 0.0007231093266044643 0.0002 0.001223514768526812
400 0.0007224937585059068 0.0002 0.001001638464819979
401 0.0005307560274765437 0.0002 0.001113040891044883
402 0.0007205217566697186 0.0002 0.001439368838702506
403 0.0009139548182702109 0.0002 0.0008901438249712685
404 0.0007218704094189624 0.0002 0.0007800937538616481
405 0.000913941499855882 0.0002 0.0006688211858604113
406 0.0007216038489376432 0.0002 0.0005590647027164703
407 0.0005370531962294627 0.0002 0.0006701065521863542
408 0.0005371248154797306 0.0002 0.0004546588739839438
409 0.0003392311590288802 0.0002 0.0005604800056194653
410 0.0007373846389165001 0.0002 0.0003385840007186536
411 0.001106461502852534 0.0002 0.0007787169737849952
412 0.0009245036561772402 0.0002 0.0004451898112486715
413 0.000901036054260132 0.0002 0.001590818625265583
414 0.0005384022124239423 0.0002 0.0008912975966187611
415 0.0003330320468478454 0.0002 0.0009769716833459099
416 0.0003483415048723684 0.0002 0.001207698969321689
417 0.0005378413521495572 0.0002 0.00132143407658512
418 0.0005326380714784055 0.0002 0.001556062733289936
419 0.001107137793810779 0.0002 0.001000529147728665
420 0.0005508554181228884 0.0002 0.001787925690693942
421 0.001121089724845387 0.0002 0.0003384098525682251
422 0.0002057984255737098 0.0002 0.001673450219815577
423 0.0009728718811939154 0.0002 0.001816823732230023
424 0.0003344016303213074 0.0002 0.0001822108036897993
425 0.0007519955654699305 0.0002 0.0001520018706914986
426 0.0007045325113676445 0.0002 0.001632215589396046
427 0.0003440716772174193 0.0002 0.001554114122759088
428 0.0001456091428274952 0.0002 0.0005603698233504293
429 0.0001875235902038005 0.0002 0.001113220717918489
430 0.0003886769185115473 0.0002 0.0007740445015266867
431 0.0003890446451927892 0.0002 0.0003543606771210452
432 0.0001632386520251858 0.0002 0.0001636647996830337
433 0.001136761347974812 0.0002 0.001836335200316965
434 0.001142368690627104 0.0002 0.000159176637749684
435 0.0001556708123104102 0.0002 0.001845002679848908
436 0.0001482419564326743 0.0002 0.0009645283400211418
437 0.0003716814257958423 0.0002 0.001388918258624892
438 0.0001650327349880583 0.0002 0.001276667989193338
439 0.0004183720470923454 0.0002 0.001687366477576203
440 0.0013 0.00015 0.001222222222222221
441 0.0013 0.00015 0.0003333333333333329
442 0.0013 0.00015 0.0001111111111111109
443 0.0013 0.00015 0.0005555555555555548
444 0.0013 0.00015 0.001444444444444444
445 0.0013 0.00015 0.001666666666666667
446 0.0013 0.00015 0.0009999999999999983
447 0.0013 0.00015 0.0007777777777777762
448 0.0013 0.00015 0.001888888888888889
449 0.00075 0.000115 0.0003333333333333329
450 0.00075 0.000115 0.0009999999999999983
451 0.00075 0.000115 0.000111111111111111
452 0.00075 0.000115 0.0005555555555555548
453 0.00075 0.000115 0.001666666666666667
454 0.00075 0.000115 0.001888888888888889
455 0.00075 0.000115 0.0007777777777777763
456 0.00075 0.000115 0.001222222222222221
457 0.00075 0.000115 0.001444444444444444
458 0.0005499999999999999 0.000115 0.001222222222222221
459 0.00055 0.000115 0.0009999999999999983
460 0.0005499999999999999 0.000115 0.0003333333333333329
461 0.0005499999999999999 0.000115 0.0005555555555555548
462 0.0005499999999999999 0.000115 0.001666666666666667
463 0.00055 0.000115 0.0001111111111111109
464 0.0005499999999999999 0.000115 0.0007777777777777763
465 0.0005499999999999999 0.000115 0.001444444444444444
466 0.0005499999999999999 0.000115 0.001888888888888889
$EndNodes
$Elements
1569
1 4 2 1 1 112 39 281 241
2 4 2 1 1 94 145 214 148
3 4 2 1 1 112 27 39 241
4 4 2 1 1 79 12 38 216
5 4 2 1 1 95 96 152 219
6 4 2 1 1 98 97 138 235
7 4 2 1 1 47 48 158 270
8 4 2 1 1 110 109 234 156
9 4 2 1 1 91 92 141 221
10 4 2 1 1 98 97 228 138
11 4 2 1 1 102 103 150 233
12 4 2 1 1 115 30 261 264
13 4 2 1 1 69 9 186 212
14 4 2 1 1 10 76 193 213
15 4 2 1 1 96 95 152 231
16 4 2 1 1 171 188 57 56
17 4 2 1 1 90 89 137 228
18 4 2 1 1 56 128 192 55
19 4 2 1 1 187 54 132 53
20 4 2 1 1 169 49 50 263
21 4 2 1 1 185 129 57 58
22 4 2 1 1 125 6 5 277
23 4 2 1 1 2 271 180 52
24 4 2 1 1 74 73 185 197
25 4 2 1 1 71 72 196 192
26 4 2 1 1 46 162 45 265
27 4 2 1 1 45 179 1 264
28 4 2 1 1 167 58 189 59
29 4 2 1 1 55 157 190 54
30 4 2 1 1 89 90 137 215
31 4 2 1 1 46 47 130 267
32 4 2 1 1 53 186 3 178
33 4 2 1 1 120 119 259 263
34 4 2 1 1 118 117 248 270
35 4 2 1 1 60 59 133 191
36 4 2 1 1 60 177 4 193
37 4 2 1 1 48 127 269 49
38 4 2 1 1 22 241 104 288
39 4 2 1 1 51 268 52 165
40 4 2 1 1 51 131 50 266
41 4 2 1 1 121 120 247 266
42 4 2 1 1 35 34 277 236
43 4 2 1 1 223 35 277 225
44 4 2 1 1 102 101 227 147
45 4 2 1 1 92 91 141 232
46 4 2 1 1 102 101 147 234
47 4 2 1 1 103 104 153 231
48 4 2 1 1 81 80 140 218
49 4 2 1 1 119 118 258 269
50 4 2 1 1 104 103 153 240
51 4 2 1 1 92 93 145 217
52 4 2 1 1 108 109 146 237
53 4 2 1 1 31 122 262 271
54 4 2 1 1 98 99 139 230
55 4 2 1 1 116 115 255 265
56 4 2 1 1 75 76 206 191
57 4 2 1 1 69 70 205 187
58 4 2 1 1 122 121 251 268
59 4 2 1 1 72 73 209 188
60 4 2 1 1 74 75 211 189
61 4 2 1 1 70 71 208 190
62 4 2 1 1 93 92 145 229
63 4 2 1 1 117 116 257 267
64 4 2 1 1 94 95 149 222
65 4 2 1 1 95 94 149 233
66 4 2 1 1 110 111 150 238
67 4 2 1 1 99 98 139 239
68 4 2 1 1 20 19 223 276
69 4 2 1 1 24 23 224 284
70 4 2 1 1 104 226 22 288
71 4 2 1 1 84 83 148 214
72 4 2 1 1 92 141 221 144
73 4 2 1 1 81 82 170 207
74 4 2 1 1 283 285 224 289
75 4 2 1 1 1 179 61 272
76 4 2 1 1 43 282 42 289
77 4 2 1 1 65 2 280 180
78 4 2 1 1 3 278 64 178
79 4 2 1 1 68 4 177 286
80 4 2 1 1 285 40 41 288
81 4 2 1 1 94 145 148 147
82 4 2 1 1 225 223 16 290
83 4 2 1 1 125 136 6 290
84 4 2 1 1 6 279 136 63
85 4 2 1 1 8 287 67 155
86 4 2 1 1 282 283 42 289
87 4 2 1 1 232 141 92 143
88 4 2 1 1 42 283 224 289
89 4 2 1 1 283 282 8 289
90 4 2 1 1 284 285 224 283
91 4 2 1 1 277 276 223 275
92 4 2 1 1 44 155 287 220
93 4 2 1 1 277 223 225 290
94 4 2 1 1 228 138 125 137
95 4 2 1 1 8 155 126 289
96 4 2 1 1 112 39 252 281
97 4 2 1 1 6 37 274 290
98 4 2 1 1 30 114 261 272
99 4 2 1 1 77 9 212 278
100 4 2 1 1 10 87 213 286
101 4 2 1 1 259 49 169 263
102 4 2 1 1 285 226 224 289
103 4 2 1 1 126 153 231 152
104 4 2 1 1 278 3 186 178
105 4 2 1 1 156 109 234 147
106 4 2 1 1 179 1 264 272
107 4 2 1 1 139 138 228 137
108 4 2 1 1 125 277 225 290
109 4 2 1 1 169 50 259 263
110 4 2 1 1 193 177 4 286
111 4 2 1 1 128 71 192 55
112 4 2 1 1 246 109 249 181
113 4 2 1 1 8 220 155 289
114 4 2 1 1 97 138 125 228
115 4 2 1 1 150 233 103 149
116 4 2 1 1 284 224 42 283
117 4 2 1 1 223 276 36 275
118 4 2 1 1 8 287 155 220
119 4 2 1 1 204 172 136 161
120 4 2 1 1 274 275 6 290
121 4 2 1 1 277 34 5 236
122 4 2 1 1 2 271 280 180
123 4 2 1 1 40 22 41 288
124 4 2 1 1 128 157 71 55
125 4 2 1 1 248 47 158 270
126 4 2 1 1 270 248 47 117
127 4 2 1 1 248 158 48 270
128 4 2 1 1 118 248 48 270
129 4 2 1 1 62 61 134 113
130 4 2 1 1 109 110 249 156
131 4 2 1 1 267 47 130 117
132 4 2 1 1 192 72 128 56
133 4 2 1 1 27 112 39 252
134 4 2 1 1 125 89 228 137
135 4 2 1 1 198 202 208 184
136 4 2 1 1 67 68 168 88
137 4 2 1 1 161 63 78 64
138 4 2 1 1 160 143 108 146
139 4 2 1 1 192 196 71 128
140 4 2 1 1 277 275 223 290
141 4 2 1 1 62 166 5 273
142 4 2 1 1 48 127 118 269
143 4 2 1 1 248 130 47 117
144 4 2 1 1 205 187 70 54
145 4 2 1 1 47 158 130 248
146 4 2 1 1 206 191 59 75
147 4 2 1 1 157 71 196 128
148 4 2 1 1 79 204 172 136
149 4 2 1 1 198 80 202 184
150 4 2 1 1 7 164 66 281
151 4 2 1 1 46 255 265 116
152 4 2 1 1 272 264 179 261
153 4 2 1 1 92 217 145 144
154 4 2 1 1 278 186 212 178
155 4 2 1 1 199 129 159 171
156 4 2 1 1 202 204 161 172
157 4 2 1 1 128 72 209 56
158 4 2 1 1 205 187 54 132
159 4 2 1 1 171 128 209 56
160 4 2 1 1 225 21 223 35
161 4 2 1 1 169 49 259 258
162 4 2 1 1 72 196 192 128
163 4 2 1 1 153 95 152 149
164 4 2 1 1 162 130 163 250
165 4 2 1 1 190 71 157 55
166 4 2 1 1 162 46 255 265
167 4 2 1 1 148 149 151 84
168 4 2 1 1 57 129 185 73
169 4 2 1 1 199 197 129 171
170 4 2 1 1 48 127 248 118
171 4 2 1 1 286 193 177 213
172 4 2 1 1 106 105 175 250
173 4 2 1 1 164 66 281 252
174 4 2 1 1 112 281 252 164
175 4 2 1 1 48 127 158 248
176 4 2 1 1 130 267 117 257
177 4 2 1 1 83 82 199 159
178 4 2 1 1 145 143 229 92
179 4 2 1 1 106 245 250 163
180 4 2 1 1 124 31 262 280
181 4 2 1 1 153 150 103 149
182 4 2 1 1 130 162 257 250
183 4 2 1 1 140 81 141 170
184 4 2 1 1 113 61 134 243
185 4 2 1 1 173 160 142 256
186 4 2 1 1 108 142 143 160
187 4 2 1 1 201 168 203 174
188 4 2 1 1 61 113 114 243
189 4 2 1 1 147 146 101 145
190 4 2 1 1 89 97 125 228
191 4 2 1 1 167 74 58 197
192 4 2 1 1 194 202 204 161
193 4 2 1 1 161 78 194 64
194 4 2 1 1 195 68 87 88
195 4 2 1 1 253 250 175 105
196 4 2 1 1 163 139 138 106
197 4 2 1 1 197 185 129 73
198 4 2 1 1 168 201 203 195
199 4 2 1 1 257 163 130 250
200 4 2 1 1 269 127 118 258
201 4 2 1 1 157 196 170 128
202 4 2 1 1 151 152 85 149
203 4 2 1 1 71 196 208 157
204 4 2 1 1 58 189 74 167
205 4 2 1 1 167 211 151 133
206 4 2 1 1 167 58 129 197
207 4 2 1 1 195 168 68 88
208 4 2 1 1 78 77 194 64
209 4 2 1 1 117 248 130 257
210 4 2 1 1 164 154 135 254
211 4 2 1 1 199 209 197 171
212 4 2 1 1 169 127 49 258
213 4 2 1 1 131 51 121 266
214 4 2 1 1 131 121 247 266
215 4 2 1 1 34 35 21 236
216 4 2 1 1 79 80 172 202
217 4 2 1 1 212 77 278 178
218 4 2 1 1 57 209 129 73
219 4 2 1 1 202 79 204 172
220 4 2 1 1 258 248 127 118
221 4 2 1 1 197 129 159 199
222 4 2 1 1 196 72 209 128
223 4 2 1 1 199 207 196 176
224 4 2 1 1 57 129 209 171
225 4 2 1 1 133 211 151 201
226 4 2 1 1 246 249 258 181
227 4 2 1 1 191 59 133 206
228 4 2 1 1 186 212 9 278
229 4 2 1 1 30 264 272 261
230 4 2 1 1 10 193 286 213
231 4 2 1 1 154 150 111 153
232 4 2 1 1 141 218 81 140
233 4 2 1 1 159 145 148 83
234 4 2 1 1 177 286 213 87
235 4 2 1 1 179 272 261 114
236 4 2 1 1 168 174 155 203
237 4 2 1 1 255 46 257 116
238 4 2 1 1 167 211 74 197
239 4 2 1 1 124 244 123 65
240 4 2 1 1 152 231 126 96
241 4 2 1 1 86 85 201 174
242 4 2 1 1 190 71 208 157
243 4 2 1 1 50 259 247 169
244 4 2 1 1 202 205 208 132
245 4 2 1 1 156 110 249 182
246 4 2 1 1 85 200 201 151
247 4 2 1 1 139 138 98 228
248 4 2 1 1 257 245 163 250
249 4 2 1 1 162 46 130 257
250 4 2 1 1 89 125 136 137
251 4 2 1 1 130 173 245 248
252 4 2 1 1 160 158 127 246
253 4 2 1 1 247 131 50 169
254 4 2 1 1 12 79 38 204
255 4 2 1 1 84 151 148 183
256 4 2 1 1 238 103 111 150
257 4 2 1 1 173 130 158 248
258 4 2 1 1 251 247 260 131
259 4 2 1 1 208 202 132 184
260 4 2 1 1 199 159 82 144
261 4 2 1 1 251 165 131 154
262 4 2 1 1 174 86 155 203
263 4 2 1 1 176 196 209 171
264 4 2 1 1 150 147 102 149
265 4 2 1 1 54 157 208 132
266 4 2 1 1 162 46 257 255
267 4 2 1 1 256 158 160 248
268 4 2 1 1 154 165 135 254
269 4 2 1 1 180 262 244 165
270 4 2 1 1 70 205 54 132
271 4 2 1 1 199 196 209 176
272 4 2 1 1 249 110 260 182
273 4 2 1 1 54 208 70 132
274 4 2 1 1 170 198 196 157
275 4 2 1 1 249 260 247 182
276 4 2 1 1 203 201 174 86
277 4 2 1 1 255 250 257 162
278 4 2 1 1 211 200 151 201
279 4 2 1 1 189 211 74 167
280 4 2 1 1 160 173 158 256
281 4 2 1 1 121 251 268 51
282 4 2 1 1 260 251 131 154
283 4 2 1 1 164 153 104 126
284 4 2 1 1 272 179 61 114
285 4 2 1 1 273 5 34 236
286 4 2 1 1 196 176 128 171
287 4 2 1 1 197 129 209 73
288 4 2 1 1 160 246 256 248
289 4 2 1 1 254 251 260 154
290 4 2 1 1 286 177 68 87
291 4 2 1 1 106 107 245 163
292 4 2 1 1 64 278 77 178
293 4 2 1 1 92 141 144 143
294 4 2 1 1 102 150 149 233
295 4 2 1 1 43 8 220 287
296 4 2 1 1 133 167 211 59
297 4 2 1 1 189 211 167 59
298 4 2 1 1 133 60 191 206
299 4 2 1 1 205 70 208 132
300 4 2 1 1 159 210 197 199
301 4 2 1 1 246 158 127 248
302 4 2 1 1 128 209 196 171
303 4 2 1 1 163 138 175 106
304 4 2 1 1 109 156 146 147
305 4 2 1 1 132 205 187 53
306 4 2 1 1 251 268 51 165
307 4 2 1 1 206 201 211 133
308 4 2 1 1 65 280 124 180
309 4 2 1 1 139 142 99 239
310 4 2 1 1 112 154 254 111
311 4 2 1 1 245 163 130 257
312 4 2 1 1 208 196 198 157
313 4 2 1 1 209 129 197 171
314 4 2 1 1 248 245 130 257
315 4 2 1 1 145 143 92 144
316 4 2 1 1 139 228 90 137
317 4 2 1 1 104 153 231 126
318 4 2 1 1 173 142 163 245
319 4 2 1 1 209 188 171 56
320 4 2 1 1 188 57 209 171
321 4 2 1 1 108 109 246 146
322 4 2 1 1 163 175 162 250
323 4 2 1 1 248 246 258 127
324 4 2 1 1 176 170 207 128
325 4 2 1 1 251 121 247 131
326 4 2 1 1 129 210 159 183
327 4 2 1 1 173 256 245 248
328 4 2 1 1 80 81 140 198
329 4 2 1 1 147 149 148 94
330 4 2 1 1 151 174 133 201
331 4 2 1 1 255 45 162 265
332 4 2 1 1 167 200 211 197
333 4 2 1 1 194 132 161 178
334 4 2 1 1 281 66 39 252
335 4 2 1 1 52 268 122 165
336 4 2 1 1 214 148 145 83
337 4 2 1 1 285 224 41 284
338 4 2 1 1 276 35 277 223
339 4 2 1 1 151 84 200 183
340 4 2 1 1 126 86 155 152
341 4 2 1 1 110 156 147 150
342 4 2 1 1 245 142 163 107
343 4 2 1 1 65 135 123 66
344 4 2 1 1 258 169 127 181
345 4 2 1 1 145 214 83 93
346 4 2 1 1 246 160 158 248
347 4 2 1 1 136 172 79 137
348 4 2 1 1 101 234 109 147
349 4 2 1 1 183 200 167 197
350 4 2 1 1 138 125 166 97
351 4 2 1 1 65 124 244 180
352 4 2 1 1 249 169 258 181
353 4 2 1 1 135 123 244 65
354 4 2 1 1 156 234 110 147
355 4 2 1 1 280 271 262 180
356 4 2 1 1 36 274 37 290
357 4 2 1 1 142 139 99 141
358 4 2 1 1 121 251 51 131
359 4 2 1 1 132 202 194 161
360 4 2 1 1 263 50 259 120
361 4 2 1 1 144 199 159 176
362 4 2 1 1 199 82 207 176
363 4 2 1 1 49 127 269 258
364 4 2 1 1 132 157 208 184
365 4 2 1 1 281 40 7 241
366 4 2 1 1 168 177 133 195
367 4 2 1 1 137 172 80 140
368 4 2 1 1 246 127 160 181
369 4 2 1 1 211 133 59 75
370 4 2 1 1 83 199 210 159
371 4 2 1 1 231 153 95 152
372 4 2 1 1 249 247 169 182
373 4 2 1 1 50 131 247 266
374 4 2 1 1 132 172 202 161
375 4 2 1 1 112 154 164 254
376 4 2 1 1 140 172 80 184
377 4 2 1 1 208 190 157 54
378 4 2 1 1 134 162 175 250
379 4 2 1 1 249 247 259 169
380 4 2 1 1 268 251 122 165
381 4 2 1 1 247 259 50 120
382 4 2 1 1 169 259 249 258
383 4 2 1 1 249 109 156 181
384 4 2 1 1 267 130 46 257
385 4 2 1 1 133 211 206 75
386 4 2 1 1 206 59 133 75
387 4 2 1 1 159 210 129 197
388 4 2 1 1 165 51 251 131
389 4 2 1 1 261 255 179 243
390 4 2 1 1 140 80 198 184
391 4 2 1 1 273 33 62 253
392 4 2 1 1 90 139 137 140
393 4 2 1 1 66 164 135 252
394 4 2 1 1 114 179 61 243
395 4 2 1 1 181 160 246 146
396 4 2 1 1 44 43 220 287
397 4 2 1 1 134 162 250 243
398 4 2 1 1 223 275 36 290
399 4 2 1 1 182 260 131 154
400 4 2 1 1 175 166 134 253
401 4 2 1 1 174 152 85 151
402 4 2 1 1 130 173 163 245
403 4 2 1 1 162 134 179 243
404 4 2 1 1 77 212 194 178
405 4 2 1 1 172 202 80 184
406 4 2 1 1 89 125 225 290
407 4 2 1 1 85 84 200 151
408 4 2 1 1 114 261 179 243
409 4 2 1 1 148 159 210 183
410 4 2 1 1 194 205 132 178
411 4 2 1 1 168 133 201 195
412 4 2 1 1 175 163 106 250
413 4 2 1 1 170 140 198 184
414 4 2 1 1 210 200 183 197
415 4 2 1 1 49 119 259 258
416 4 2 1 1 181 246 109 146
417 4 2 1 1 205 194 212 178
418 4 2 1 1 64 77 194 178
419 4 2 1 1 87 213 177 195
420 4 2 1 1 262 31 271 280
421 4 2 1 1 262 124 280 180
422 4 2 1 1 209 199 176 171
423 4 2 1 1 204 136 63 161
424 4 2 1 1 188 209 72 56
425 4 2 1 1 73 57 209 188
426 4 2 1 1 87 177 68 195
427 4 2 1 1 246 160 108 146
428 4 2 1 1 179 45 255 261
429 4 2 1 1 205 202 194 132
430 4 2 1 1 105 138 166 97
431 4 2 1 1 82 199 144 176
432 4 2 1 1 157 170 198 184
433 4 2 1 1 206 133 177 195
434 4 2 1 1 179 134 61 243
435 4 2 1 1 169 247 131 182
436 4 2 1 1 53 132 205 178
437 4 2 1 1 181 109 156 146
438 4 2 1 1 17 224 226 289
439 4 2 1 1 136 79 89 137
440 4 2 1 1 49 259 119 263
441 4 2 1 1 213 206 177 195
442 4 2 1 1 180 244 135 165
443 4 2 1 1 273 62 166 253
444 4 2 1 1 198 81 140 170
445 4 2 1 1 251 244 262 165
446 4 2 1 1 86 219 152 96
447 4 2 1 1 134 166 62 253
448 4 2 1 1 183 167 129 197
449 4 2 1 1 205 212 53 178
450 4 2 1 1 60 133 177 206
451 4 2 1 1 194 161 64 178
452 4 2 1 1 150 103 111 153
453 4 2 1 1 95 153 103 149
454 4 2 1 1 260 254 154 111
455 4 2 1 1 120 50 247 266
456 4 2 1 1 228 98 139 90
457 4 2 1 1 253 175 166 105
458 4 2 1 1 7 241 40 288
459 4 2 1 1 179 45 162 255
460 4 2 1 1 85 174 151 201
461 4 2 1 1 196 207 198 170
462 4 2 1 1 211 151 200 167
463 4 2 1 1 124 262 244 180
464 4 2 1 1 190 208 70 54
465 4 2 1 1 189 211 59 75
466 4 2 1 1 95 85 152 149
467 4 2 1 1 245 173 142 107
468 4 2 1 1 201 133 206 195
469 4 2 1 1 7 40 285 288
470 4 2 1 1 255 162 179 243
471 4 2 1 1 40 241 22 288
472 4 2 1 1 168 133 174 201
473 4 2 1 1 168 155 67 203
474 4 2 1 1 86 155 152 174
475 4 2 1 1 135 251 244 254
476 4 2 1 1 88 168 67 203
477 4 2 1 1 250 162 255 243
478 4 2 1 1 113 134 62 253
479 4 2 1 1 156 169 249 181
480 4 2 1 1 46 267 257 116
481 4 2 1 1 196 207 170 128
482 4 2 1 1 262 122 251 165
483 4 2 1 1 269 119 49 258
484 4 2 1 1 182 150 260 154
485 4 2 1 1 168 68 177 195
486 4 2 1 1 63 78 204 161
487 4 2 1 1 256 173 158 248
488 4 2 1 1 256 142 173 107
489 4 2 1 1 89 216 79 136
490 4 2 1 1 111 110 150 260
491 4 2 1 1 84 83 210 148
492 4 2 1 1 45 179 264 261
493 4 2 1 1 252 164 135 254
494 4 2 1 1 152 126 86 96
495 4 2 1 1 156 249 169 182
496 4 2 1 1 251 135 165 254
497 4 2 1 1 154 251 165 254
498 4 2 1 1 252 135 244 254
499 4 2 1 1 167 151 200 183
500 4 2 1 1 115 255 45 261
501 4 2 1 1 205 212 69 53
502 4 2 1 1 135 123 66 252
503 4 2 1 1 207 196 176 128
504 4 2 1 1 149 147 102 94
505 4 2 1 1 110 156 150 182
506 4 2 1 1 138 166 175 105
507 4 2 1 1 183 129 210 197
508 4 2 1 1 132 202 172 184
509 4 2 1 1 33 34 236 273
510 4 2 1 1 40 39 241 281
511 4 2 1 1 53 212 186 178
512 4 2 1 1 210 200 84 183
513 4 2 1 1 95 85 149 222
514 4 2 1 1 103 95 149 233
515 4 2 1 1 245 256 173 107
516 4 2 1 1 135 244 123 252
517 4 2 1 1 138 235 106 98
518 4 2 1 1 32 39 123 252
519 4 2 1 1 176 199 159 171
520 4 2 1 1 244 251 135 165
521 4 2 1 1 146 101 109 147
522 4 2 1 1 244 135 65 180
523 4 2 1 1 253 113 134 243
524 4 2 1 1 78 194 204 161
525 4 2 1 1 193 60 177 213
526 4 2 1 1 88 195 168 203
527 4 2 1 1 274 36 275 290
528 4 2 1 1 210 159 148 83
529 4 2 1 1 27 252 39 32
530 4 2 1 1 111 260 150 154
531 4 2 1 1 254 252 164 112
532 4 2 1 1 106 139 138 98
533 4 2 1 1 210 84 148 183
534 4 2 1 1 92 82 217 144
535 4 2 1 1 246 108 160 256
536 4 2 1 1 123 39 66 252
537 4 2 1 1 42 17 43 289
538 4 2 1 1 126 231 104 96
539 4 2 1 1 81 198 207 170
540 4 2 1 1 265 255 45 115
541 4 2 1 1 69 187 205 53
542 4 2 1 1 206 60 191 76
543 4 2 1 1 137 80 90 140
544 4 2 1 1 115 45 264 261
545 4 2 1 1 69 212 186 53
546 4 2 1 1 60 193 76 213
547 4 2 1 1 226 288 104 289
548 4 2 1 1 180 271 262 52
549 4 2 1 1 43 44 220 13
550 4 2 1 1 34 33 236 26
551 4 2 1 1 40 39 27 241
552 4 2 1 1 96 226 104 289
553 4 2 1 1 285 288 226 289
554 4 2 1 1 102 110 147 150
555 4 2 1 1 127 246 258 181
556 4 2 1 1 126 104 164 288
557 4 2 1 1 113 62 33 253
558 4 2 1 1 17 42 224 289
559 4 2 1 1 13 43 18 220
560 4 2 1 1 157 198 208 184
561 4 2 1 1 26 34 25 236
562 4 2 1 1 34 21 25 236
563 4 2 1 1 40 28 22 241
564 4 2 1 1 40 27 28 241
565 4 2 1 1 67 44 88 203
566 4 2 1 1 113 33 29 253
567 4 2 1 1 88 44 14 203
568 4 2 1 1 78 11 38 204
569 4 2 1 1 204 38 78 63
570 4 2 1 1 232 99 91 141
571 4 2 1 1 84 148 149 94
572 4 2 1 1 26 253 29 33
573 4 2 1 1 215 80 90 137
574 4 2 1 1 222 84 149 94
575 4 2 1 1 204 12 11 38
576 4 2 1 1 41 22 23 224
577 4 2 1 1 149 102 233 94
578 4 2 1 1 229 143 100 92
579 4 2 1 1 276 36 19 223
580 4 2 1 1 224 23 41 284
581 4 2 1 1 231 153 103 95
582 4 2 1 1 150 260 110 182
583 4 2 1 1 122 262 271 52
584 4 2 1 1 35 20 21 223
585 4 2 1 1 24 17 42 224
586 4 2 1 1 6 279 37 290
587 4 2 1 1 79 215 89 137
588 4 2 1 1 271 31 2 280
589 4 2 1 1 186 9 3 278
590 4 2 1 1 264 1 30 272
591 4 2 1 1 4 10 193 286
592 4 2 1 1 92 221 82 144
593 4 2 1 1 218 90 80 140
594 4 2 1 1 42 24 224 284
595 4 2 1 1 20 35 276 223
596 4 2 1 1 260 131 247 182
597 4 2 1 1 227 102 147 94
598 4 2 1 1 218 81 91 141
599 4 2 1 1 98 106 139 239
600 4 2 1 1 110 102 238 150
601 4 2 1 1 102 110 234 147
602 4 2 1 1 145 229 101 93
603 4 2 1 1 104 288 126 289
604 4 2 1 1 239 142 99 107
605 4 2 1 1 97 105 138 235
606 4 2 1 1 89 125 97 225
607 4 2 1 1 148 84 214 94
608 4 2 1 1 95 85 219 152
609 4 2 1 1 96 104 126 289
610 4 2 1 1 101 109 237 146
611 4 2 1 1 81 221 91 141
612 4 2 1 1 240 111 103 153
613 4 2 1 1 143 232 100 92
614 4 2 1 1 83 217 145 93
615 4 2 1 1 99 142 242 107
616 4 2 1 1 230 139 98 90
617 4 2 1 1 37 16 36 290
618 4 2 1 1 97 35 225 277
619 4 2 1 1 97 35 277 236
620 4 2 1 1 97 277 225 125
621 4 2 1 1 103 102 150 238
622 4 2 1 1 97 21 35 236
623 4 2 1 1 21 97 35 225
624 4 2 1 1 93 94 145 214
625 4 2 1 1 126 164 7 288
626 4 2 1 1 96 220 17 289
627 4 2 1 1 17 226 96 289
628 4 2 1 1 89 225 16 290
629 4 2 1 1 16 216 89 290
630 4 2 1 1 142 107 108 242
631 4 2 1 1 38 216 136 79
632 4 2 1 1 136 216 38 279
633 4 2 1 1 136 204 38 79
634 4 2 1 1 79 80 137 172
635 4 2 1 1 79 137 80 215
636 4 2 1 1 105 106 138 235
637 4 2 1 1 105 138 106 175
638 4 2 1 1 82 170 176 144
639 4 2 1 1 82 176 170 207
640 4 2 1 1 290 277 6 125
641 4 2 1 1 290 6 277 275
642 4 2 1 1 85 86 152 174
643 4 2 1 1 85 152 86 219
644 4 2 1 1 145 101 143 146
645 4 2 1 1 145 143 101 229
646 4 2 1 1 100 101 143 229
647 4 2 1 1 91 141 90 218
648 4 2 1 1 140 141 90 139
649 4 2 1 1 140 90 141 218
650 4 2 1 1 84 85 149 151
651 4 2 1 1 84 149 85 222
652 4 2 1 1 111 153 164 154
653 4 2 1 1 164 112 111 154
654 4 2 1 1 141 81 144 170
655 4 2 1 1 141 144 81 221
656 4 2 1 1 82 144 81 170
657 4 2 1 1 82 81 144 221
658 4 2 1 1 82 83 144 159
659 4 2 1 1 82 144 83 217
660 4 2 1 1 145 144 83 159
661 4 2 1 1 145 83 144 217
662 4 2 1 1 107 106 142 163
663 4 2 1 1 107 142 106 239
664 4 2 1 1 139 142 106 163
665 4 2 1 1 139 106 142 239
666 4 2 1 1 100 143 99 232
667 4 2 1 1 141 143 99 142
668 4 2 1 1 141 99 143 232
669 4 2 1 1 44 203 13 14
670 4 2 1 1 256 142 108 160
671 4 2 1 1 256 108 142 107
672 4 2 1 1 289 43 8 220
673 4 2 1 1 289 8 43 282
674 4 2 1 1 155 44 67 203
675 4 2 1 1 155 67 44 287
676 4 2 1 1 290 279 136 6
677 4 2 1 1 290 136 279 216
678 4 2 1 1 197 58 185 74
679 4 2 1 1 197 185 58 129
680 4 2 1 1 290 89 136 216
681 4 2 1 1 290 136 89 125
682 4 2 1 1 250 134 253 175
683 4 2 1 1 250 253 134 243
684 4 2 1 1 236 33 105 26
685 4 2 1 1 253 105 33 26
686 4 2 1 1 43 220 17 18
687 4 2 1 1 43 17 220 289
688 4 2 1 1 289 285 8 283
689 4 2 1 1 155 289 86 126
690 4 2 1 1 155 86 289 220
691 4 2 1 1 96 86 289 126
692 4 2 1 1 96 289 86 220
693 4 2 1 1 36 223 16 19
694 4 2 1 1 36 16 223 290
695 4 2 1 1 236 273 105 33
696 4 2 1 1 253 105 273 33
697 4 2 1 1 253 273 105 166
698 4 2 1 1 213 60 206 76
699 4 2 1 1 213 206 60 177
700 4 2 1 1 52 262 165 122
701 4 2 1 1 52 165 262 180
702 4 2 1 1 12 37 216 15
703 4 2 1 1 16 216 37 15
704 4 2 1 1 16 37 216 290
705 4 2 1 1 242 108 143 100
706 4 2 1 1 143 108 242 142
707 4 2 1 1 143 99 242 100
708 4 2 1 1 242 99 143 142
709 4 2 1 1 220 44 86 13
710 4 2 1 1 220 86 44 155
711 4 2 1 1 203 86 44 13
712 4 2 1 1 203 44 86 155
713 4 2 1 1 281 112 7 164
714 4 2 1 1 281 7 112 241
715 4 2 1 1 7 112 288 164
716 4 2 1 1 7 288 112 241
717 4 2 1 1 288 112 104 164
718 4 2 1 1 288 104 112 241
719 4 2 1 1 277 97 5 125
720 4 2 1 1 277 5 97 236
721 4 2 1 1 166 5 97 125
722 4 2 1 1 108 237 143 100
723 4 2 1 1 108 143 237 146
724 4 2 1 1 101 143 237 100
725 4 2 1 1 101 237 143 146
726 4 2 1 1 7 126 285 8
727 4 2 1 1 7 285 126 288
728 4 2 1 1 289 285 126 8
729 4 2 1 1 289 126 285 288
730 4 2 1 1 230 99 141 91
731 4 2 1 1 141 99 230 139
732 4 2 1 1 141 90 230 91
733 4 2 1 1 230 90 141 139
734 4 2 1 1 285 224 288 41
735 4 2 1 1 285 288 224 226
736 4 2 1 1 22 288 224 41
737 4 2 1 1 22 224 288 226
738 4 2 1 1 227 101 145 147
739 4 2 1 1 145 101 227 93
740 4 2 1 1 145 94 227 147
741 4 2 1 1 227 94 145 93
742 4 2 1 1 38 136 63 204
743 4 2 1 1 63 136 38 279
744 4 2 1 1 104 240 164 112
745 4 2 1 1 104 164 240 153
746 4 2 1 1 111 164 240 112
747 4 2 1 1 111 240 164 153
748 4 2 1 1 37 216 38 12
749 4 2 1 1 216 279 37 38
750 4 2 1 1 216 37 279 290
751 4 2 1 1 273 105 5 236
752 4 2 1 1 273 5 105 166
753 4 2 1 1 97 5 105 236
754 4 2 1 1 97 105 5 166
755 4 2 2 2 314 420 372 466
756 4 2 2 2 417 369 458 401
757 4 2 2 2 420 314 309 466
758 4 2 2 2 330 364 307 226
759 4 2 2 2 357 294 225 317
760 4 2 2 2 313 364 226 307
761 4 2 2 2 225 300 294 357
762 4 2 2 2 349 350 410 449
763 4 2 2 2 371 372 231 426
764 4 2 2 2 363 364 453 426
765 4 2 2 2 387 345 346 440
766 4 2 2 2 446 419 345 344
767 4 2 2 2 344 447 411 343
768 4 2 2 2 359 360 455 404
769 4 2 2 2 360 361 450 400
770 4 2 2 2 361 362 456 399
771 4 2 2 2 388 343 443 342
772 4 2 2 2 358 359 452 406
773 4 2 2 2 69 9 212 442
774 4 2 2 2 30 115 261 378
775 4 2 2 2 10 76 213 448
776 4 2 2 2 362 363 457 402
777 4 2 2 2 445 348 347 394
778 4 2 2 2 341 342 421 441
779 4 2 2 2 340 339 422 382
780 4 2 2 2 74 73 197 440
781 4 2 2 2 72 71 196 447
782 4 2 2 2 389 338 380 339
783 4 2 2 2 357 358 449 410
784 4 2 2 2 119 120 259 377
785 4 2 2 2 291 341 434 442
786 4 2 2 2 386 336 335 384
787 4 2 2 2 347 396 346 444
788 4 2 2 2 379 333 334 395
789 4 2 2 2 118 117 384 248
790 4 2 2 2 304 448 433 348
791 4 2 2 2 311 340 435 385
792 4 2 2 2 357 358 410 228
793 4 2 2 2 377 337 338 438
794 4 2 2 2 334 428 335 381
795 4 2 2 2 436 336 383 337
796 4 2 2 2 432 298 378 333
797 4 2 2 2 121 120 380 247
798 4 2 2 2 96 363 95 231
799 4 2 2 2 104 371 372 231
800 4 2 2 2 364 363 96 231
801 4 2 2 2 371 104 103 231
802 4 2 2 2 369 102 101 227
803 4 2 2 2 370 103 102 233
804 4 2 2 2 368 101 100 229
805 4 2 2 2 102 369 370 227
806 4 2 2 2 358 89 90 228
807 4 2 2 2 89 358 357 228
808 4 2 2 2 98 365 366 228
809 4 2 2 2 365 98 97 228
810 4 2 2 2 101 368 369 229
811 4 2 2 2 99 366 367 230
812 4 2 2 2 366 99 98 230
813 4 2 2 2 367 100 99 232
814 4 2 2 2 100 367 368 232
815 4 2 2 2 118 119 258 383
816 4 2 2 2 122 31 262 385
817 4 2 2 2 115 116 255 379
818 4 2 2 2 76 75 206 445
819 4 2 2 2 70 69 205 441
820 4 2 2 2 121 122 251 382
821 4 2 2 2 311 435 332 375
822 4 2 2 2 73 72 209 446
823 4 2 2 2 75 74 211 444
824 4 2 2 2 71 70 208 443
825 4 2 2 2 116 117 257 381
826 4 2 2 2 376 433 328 304
827 4 2 2 2 432 373 298 319
828 4 2 2 2 17 226 313 364
829 4 2 2 2 300 225 16 357
830 4 2 2 2 104 314 22 226
831 4 2 2 2 21 225 301 97
832 4 2 2 2 104 314 226 372
833 4 2 2 2 89 16 225 357
834 4 2 2 2 364 17 226 96
835 4 2 2 2 291 434 315 374
836 4 2 2 2 363 364 426 231
837 4 2 2 2 364 330 420 226
838 4 2 2 2 420 314 226 308
839 4 2 2 2 420 308 226 330
840 4 2 2 2 309 308 420 330
841 4 2 2 2 420 314 308 309
842 4 2 2 2 433 376 448 304
843 4 2 2 2 373 298 378 432
844 4 2 2 2 296 391 317 318
845 4 2 2 2 309 420 331 330
846 4 2 2 2 434 291 442 374
847 4 2 2 2 314 420 226 372
848 4 2 2 2 306 390 330 329
849 4 2 2 2 435 311 385 375
850 4 2 2 2 297 391 296 318
851 4 2 2 2 331 327 310 252
852 4 2 2 2 353 354 210 398
853 4 2 2 2 377 259 429 438
854 4 2 2 2 329 356 203 305
855 4 2 2 2 399 400 398 353
856 4 2 2 2 352 405 403 207
857 4 2 2 2 349 316 204 292
858 4 2 2 2 400 352 404 403
859 4 2 2 2 351 352 207 405
860 4 2 2 2 387 346 74 440
861 4 2 2 2 411 72 447 344
862 4 2 2 2 429 259 377 337
863 4 2 2 2 376 448 213 433
864 4 2 2 2 373 378 261 432
865 4 2 2 2 406 404 351 405
866 4 2 2 2 317 293 316 425
867 4 2 2 2 354 398 397 210
868 4 2 2 2 316 349 204 393
869 4 2 2 2 374 442 434 212
870 4 2 2 2 440 197 345 73
871 4 2 2 2 345 387 197 440
872 4 2 2 2 72 411 447 196
873 4 2 2 2 197 387 74 440
874 4 2 2 2 307 226 224 330
875 4 2 2 2 337 377 429 438
876 4 2 2 2 447 196 343 71
877 4 2 2 2 411 447 196 343
878 4 2 2 2 74 396 346 387
879 4 2 2 2 388 343 196 71
880 4 2 2 2 308 224 226 330
881 4 2 2 2 196 411 343 388
882 4 2 2 2 399 401 400 361
883 4 2 2 2 223 317 295 225
884 4 2 2 2 360 414 400 404
885 4 2 2 2 398 419 387 199
886 4 2 2 2 411 209 72 344
887 4 2 2 2 315 393 316 78
888 4 2 2 2 387 345 209 419
889 4 2 2 2 335 117 248 384
890 4 2 2 2 410 412 406 350
891 4 2 2 2 251 254 260 427
892 4 2 2 2 30 114 373 261
893 4 2 2 2 9 77 212 374
894 4 2 2 2 10 87 376 213
895 4 2 2 2 223 294 317 225
896 4 2 2 2 419 403 411 199
897 4 2 2 2 397 402 399 354
898 4 2 2 2 88 423 329 328
899 4 2 2 2 419 209 411 344
900 4 2 2 2 207 405 403 411
901 4 2 2 2 336 248 118 384
902 4 2 2 2 404 359 407 406
903 4 2 2 2 251 389 427 260
904 4 2 2 2 387 74 396 197
905 4 2 2 2 424 318 113 319
906 4 2 2 2 419 398 403 199
907 4 2 2 2 388 196 208 71
908 4 2 2 2 255 379 116 334
909 4 2 2 2 206 445 75 347
910 4 2 2 2 109 246 249 416
911 4 2 2 2 441 70 342 205
912 4 2 2 2 412 421 388 202
913 4 2 2 2 387 209 345 197
914 4 2 2 2 209 345 197 73
915 4 2 2 2 197 398 387 199
916 4 2 2 2 396 200 413 397
917 4 2 2 2 441 342 421 205
918 4 2 2 2 380 247 389 121
919 4 2 2 2 196 209 72 411
920 4 2 2 2 410 406 408 358
921 4 2 2 2 258 248 118 436
922 4 2 2 2 347 206 445 394
923 4 2 2 2 379 255 333 395
924 4 2 2 2 197 387 419 199
925 4 2 2 2 421 208 388 202
926 4 2 2 2 428 117 248 335
927 4 2 2 2 411 403 196 199
928 4 2 2 2 393 410 425 349
929 4 2 2 2 122 382 340 251
930 4 2 2 2 316 349 393 425
931 4 2 2 2 411 196 419 199
932 4 2 2 2 388 411 405 198
933 4 2 2 2 412 393 421 202
934 4 2 2 2 386 335 248 384
935 4 2 2 2 399 402 417 362
936 4 2 2 2 303 252 310 327
937 4 2 2 2 364 330 390 420
938 4 2 2 2 349 393 410 202
939 4 2 2 2 446 209 419 344
940 4 2 2 2 248 336 386 384
941 4 2 2 2 210 387 398 397
942 4 2 2 2 419 345 209 446
943 4 2 2 2 315 393 78 194
944 4 2 2 2 382 422 340 251
945 4 2 2 2 355 426 413 402
946 4 2 2 2 247 251 260 389
947 4 2 2 2 339 380 389 121
948 4 2 2 2 256 245 386 430
949 4 2 2 2 354 355 200 397
950 4 2 2 2 74 211 396 197
951 4 2 2 2 415 324 401 416
952 4 2 2 2 403 207 196 199
953 4 2 2 2 257 117 248 428
954 4 2 2 2 325 324 109 416
955 4 2 2 2 197 210 398 199
956 4 2 2 2 334 255 379 395
957 4 2 2 2 201 413 394 396
958 4 2 2 2 293 292 316 425
959 4 2 2 2 110 109 249 416
960 4 2 2 2 294 293 317 425
961 4 2 2 2 257 248 245 428
962 4 2 2 2 205 202 208 421
963 4 2 2 2 249 246 258 429
964 4 2 2 2 376 213 87 433
965 4 2 2 2 114 373 261 432
966 4 2 2 2 243 250 253 424
967 4 2 2 2 382 339 422 251
968 4 2 2 2 375 385 435 262
969 4 2 2 2 20 294 223 19
970 4 2 2 2 24 23 308 224
971 4 2 2 2 397 355 200 413
972 4 2 2 2 393 412 410 202
973 4 2 2 2 392 331 332 123
974 4 2 2 2 393 316 78 204
975 4 2 2 2 349 80 79 202
976 4 2 2 2 325 109 110 416
977 4 2 2 2 80 349 350 202
978 4 2 2 2 413 390 356 423
979 4 2 2 2 294 20 223 295
980 4 2 2 2 24 308 307 224
981 4 2 2 2 428 248 245 386
982 4 2 2 2 425 410 391 357
983 4 2 2 2 201 211 200 396
984 4 2 2 2 409 106 250 431
985 4 2 2 2 246 248 258 436
986 4 2 2 2 201 206 211 394
987 4 2 2 2 412 388 405 198
988 4 2 2 2 335 248 428 386
989 4 2 2 2 413 201 200 396
990 4 2 2 2 364 231 372 426
991 4 2 2 2 349 350 202 410
992 4 2 2 2 121 247 389 251
993 4 2 2 2 423 201 413 394
994 4 2 2 2 113 243 424 319
995 4 2 2 2 443 208 388 342
996 4 2 2 2 209 419 196 199
997 4 2 2 2 388 196 411 198
998 4 2 2 2 197 419 209 199
999 4 2 2 2 324 323 246 415
1000 4 2 2 2 394 211 201 396
1001 4 2 2 2 246 256 248 386
1002 4 2 2 2 250 255 257 395
1003 4 2 2 2 386 436 246 415
1004 4 2 2 2 403 196 207 411
1005 4 2 2 2 374 434 77 212
1006 4 2 2 2 195 201 203 423
1007 4 2 2 2 421 388 208 342
1008 4 2 2 2 431 105 106 250
1009 4 2 2 2 338 380 247 389
1010 4 2 2 2 437 249 247 438
1011 4 2 2 2 257 250 395 409
1012 4 2 2 2 436 246 248 386
1013 4 2 2 2 324 323 108 246
1014 4 2 2 2 324 108 109 246
1015 4 2 2 2 245 428 386 409
1016 4 2 2 2 226 372 420 364
1017 4 2 2 2 354 85 84 200
1018 4 2 2 2 85 354 355 200
1019 4 2 2 2 250 257 245 409
1020 4 2 2 2 419 209 387 197
1021 4 2 2 2 31 124 262 375
1022 4 2 2 2 387 210 398 197
1023 4 2 2 2 200 85 201 413
1024 4 2 2 2 202 194 204 393
1025 4 2 2 2 106 409 250 245
1026 4 2 2 2 401 369 400 361
1027 4 2 2 2 211 75 347 394
1028 4 2 2 2 419 209 196 411
1029 4 2 2 2 436 248 118 336
1030 4 2 2 2 369 401 399 361
1031 4 2 2 2 388 208 196 198
1032 4 2 2 2 445 206 348 394
1033 4 2 2 2 318 253 391 424
1034 4 2 2 2 390 364 420 426
1035 4 2 2 2 430 245 386 409
1036 4 2 2 2 429 249 259 258
1037 4 2 2 2 441 421 341 205
1038 4 2 2 2 423 88 195 328
1039 4 2 2 2 391 297 253 318
1040 4 2 2 2 110 249 260 437
1041 4 2 2 2 250 431 395 409
1042 4 2 2 2 418 427 437 326
1043 4 2 2 2 350 202 410 412
1044 4 2 2 2 75 211 206 394
1045 4 2 2 2 427 422 389 251
1046 4 2 2 2 383 118 436 258
1047 4 2 2 2 196 405 411 198
1048 4 2 2 2 208 421 342 70
1049 4 2 2 2 257 395 428 409
1050 4 2 2 2 347 75 206 394
1051 4 2 2 2 253 250 105 424
1052 4 2 2 2 378 261 30 373
1053 4 2 2 2 374 9 442 212
1054 4 2 2 2 448 213 10 376
1055 4 2 2 2 249 260 437 247
1056 4 2 2 2 387 396 200 197
1057 4 2 2 2 405 207 196 411
1058 4 2 2 2 260 254 111 427
1059 4 2 2 2 337 383 436 258
1060 4 2 2 2 313 226 224 307
1061 4 2 2 2 243 424 432 395
1062 4 2 2 2 82 199 207 403
1063 4 2 2 2 199 83 210 398
1064 4 2 2 2 295 301 223 225
1065 4 2 2 2 256 245 248 386
1066 4 2 2 2 382 121 339 251
1067 4 2 2 2 377 259 338 120
1068 4 2 2 2 106 321 431 409
1069 4 2 2 2 323 107 108 256
1070 4 2 2 2 321 105 431 320
1071 4 2 2 2 387 200 396 397
1072 4 2 2 2 208 421 70 205
1073 4 2 2 2 437 247 389 438
1074 4 2 2 2 299 204 292 349
1075 4 2 2 2 312 356 305 203
1076 4 2 2 2 389 422 339 251
1077 4 2 2 2 121 389 339 251
1078 4 2 2 2 335 428 117 381
1079 4 2 2 2 415 430 414 323
1080 4 2 2 2 321 105 106 431
1081 4 2 2 2 394 347 211 396
1082 4 2 2 2 430 409 407 322
1083 4 2 2 2 246 256 430 323
1084 4 2 2 2 357 410 365 228
1085 4 2 2 2 300 225 294 223
1086 4 2 2 2 203 201 86 423
1087 4 2 2 2 355 86 413 356
1088 4 2 2 2 428 257 117 381
1089 4 2 2 2 224 314 308 226
1090 4 2 2 2 196 207 405 198
1091 4 2 2 2 355 86 85 413
1092 4 2 2 2 424 243 250 395
1093 4 2 2 2 433 87 376 328
1094 4 2 2 2 79 202 204 393
1095 4 2 2 2 432 114 373 319
1096 4 2 2 2 360 400 352 404
1097 4 2 2 2 400 399 361 353
1098 4 2 2 2 247 249 259 438
1099 4 2 2 2 393 315 434 194
1100 4 2 2 2 396 347 211 444
1101 4 2 2 2 396 211 200 197
1102 4 2 2 2 194 393 78 204
1103 4 2 2 2 259 377 338 438
1104 4 2 2 2 413 86 85 201
1105 4 2 2 2 336 436 248 386
1106 4 2 2 2 340 435 122 251
1107 4 2 2 2 252 303 27 327
1108 4 2 2 2 327 27 252 112
1109 4 2 2 2 249 437 416 438
1110 4 2 2 2 426 371 418 402
1111 4 2 2 2 435 262 122 251
1112 4 2 2 2 202 194 421 205
1113 4 2 2 2 70 421 342 205
1114 4 2 2 2 203 88 423 329
1115 4 2 2 2 256 246 108 323
1116 4 2 2 2 407 367 359 404
1117 4 2 2 2 321 408 431 409
1118 4 2 2 2 393 434 421 194
1119 4 2 2 2 404 351 359 406
1120 4 2 2 2 397 387 200 197
1121 4 2 2 2 243 255 250 395
1122 4 2 2 2 255 243 432 395
1123 4 2 2 2 360 368 414 404
1124 4 2 2 2 332 392 123 244
1125 4 2 2 2 87 195 88 328
1126 4 2 2 2 105 424 431 320
1127 4 2 2 2 243 113 114 319
1128 4 2 2 2 400 368 414 360
1129 4 2 2 2 333 255 432 395
1130 4 2 2 2 210 387 397 197
1131 4 2 2 2 359 367 407 406
1132 4 2 2 2 84 83 354 210
1133 4 2 2 2 82 351 352 207
1134 4 2 2 2 351 82 81 207
1135 4 2 2 2 354 83 353 210
1136 4 2 2 2 257 116 334 395
1137 4 2 2 2 194 421 393 202
1138 4 2 2 2 424 105 431 250
1139 4 2 2 2 435 340 422 251
1140 4 2 2 2 431 391 320 424
1141 4 2 2 2 111 439 327 326
1142 4 2 2 2 206 201 195 394
1143 4 2 2 2 416 437 249 110
1144 4 2 2 2 256 245 430 107
1145 4 2 2 2 410 408 366 358
1146 4 2 2 2 375 435 332 124
1147 4 2 2 2 116 257 255 395
1148 4 2 2 2 423 195 201 394
1149 4 2 2 2 209 345 73 446
1150 4 2 2 2 446 72 209 344
1151 4 2 2 2 402 370 417 362
1152 4 2 2 2 244 123 332 124
1153 4 2 2 2 119 259 429 337
1154 4 2 2 2 395 334 257 428
1155 4 2 2 2 338 247 380 120
1156 4 2 2 2 334 116 255 395
1157 4 2 2 2 318 113 253 424
1158 4 2 2 2 397 200 210 197
1159 4 2 2 2 259 119 377 337
1160 4 2 2 2 392 439 420 327
1161 4 2 2 2 228 410 366 358
1162 4 2 2 2 244 422 392 254
1163 4 2 2 2 77 315 434 374
1164 4 2 2 2 433 448 213 348
1165 4 2 2 2 428 334 257 381
1166 4 2 2 2 430 415 246 323
1167 4 2 2 2 392 331 123 252
1168 4 2 2 2 372 420 364 426
1169 4 2 2 2 399 417 370 362
1170 4 2 2 2 435 244 262 251
1171 4 2 2 2 365 391 410 357
1172 4 2 2 2 250 431 424 395
1173 4 2 2 2 362 399 402 354
1174 4 2 2 2 259 119 429 258
1175 4 2 2 2 194 434 421 205
1176 4 2 2 2 432 424 243 319
1177 4 2 2 2 416 325 437 110
1178 4 2 2 2 355 85 200 413
1179 4 2 2 2 315 78 77 194
1180 4 2 2 2 435 375 262 124
1181 4 2 2 2 406 366 408 358
1182 4 2 2 2 336 118 436 383
1183 4 2 2 2 195 423 433 394
1184 4 2 2 2 243 114 261 432
1185 4 2 2 2 195 87 213 433
1186 4 2 2 2 347 75 211 444
1187 4 2 2 2 300 299 293 451
1188 4 2 2 2 437 417 325 416
1189 4 2 2 2 434 77 212 194
1190 4 2 2 2 313 312 454 306
1191 4 2 2 2 303 314 466 309
1192 4 2 2 2 443 208 342 70
1193 4 2 2 2 429 415 246 258
1194 4 2 2 2 301 302 463 296
1195 4 2 2 2 439 392 422 254
1196 4 2 2 2 442 341 434 212
1197 4 2 2 2 399 227 369 361
1198 4 2 2 2 334 116 257 381
1199 4 2 2 2 427 439 422 254
1200 4 2 2 2 400 229 368 360
1201 4 2 2 2 359 367 232 404
1202 4 2 2 2 337 119 383 258
1203 4 2 2 2 31 385 375 262
1204 4 2 2 2 251 427 422 254
1205 4 2 2 2 111 439 427 254
1206 4 2 2 2 432 378 261 333
1207 4 2 2 2 439 111 427 326
1208 4 2 2 2 244 392 252 254
1209 4 2 2 2 434 341 421 205
1210 4 2 2 2 26 302 253 105
1211 4 2 2 2 204 299 12 349
1212 4 2 2 2 349 12 204 79
1213 4 2 2 2 302 105 320 253
1214 4 2 2 2 203 13 312 86
1215 4 2 2 2 312 86 356 203
1216 4 2 2 2 370 227 399 362
1217 4 2 2 2 230 366 406 358
1218 4 2 2 2 247 338 389 438
1219 4 2 2 2 392 435 422 244
1220 4 2 2 2 436 429 337 258
1221 4 2 2 2 358 410 406 350
1222 4 2 2 2 422 244 251 254
1223 4 2 2 2 341 434 212 205
1224 4 2 2 2 369 229 400 361
1225 4 2 2 2 69 341 212 205
1226 4 2 2 2 213 76 206 348
1227 4 2 2 2 433 423 195 328
1228 4 2 2 2 243 253 113 424
1229 4 2 2 2 123 310 32 252
1230 4 2 2 2 433 206 195 394
1231 4 2 2 2 433 213 206 348
1232 4 2 2 2 427 389 437 260
1233 4 2 2 2 360 232 368 404
1234 4 2 2 2 202 349 393 79
1235 4 2 2 2 348 206 433 394
1236 4 2 2 2 244 332 435 124
1237 4 2 2 2 244 392 123 252
1238 4 2 2 2 244 435 422 251
1239 4 2 2 2 392 332 435 244
1240 4 2 2 2 203 88 195 423
1241 4 2 2 2 195 87 433 328
1242 4 2 2 2 432 243 114 319
1243 4 2 2 2 261 115 255 333
1244 4 2 2 2 432 261 255 333
1245 4 2 2 2 438 259 247 120
1246 4 2 2 2 436 415 429 258
1247 4 2 2 2 359 230 367 406
1248 4 2 2 2 194 212 434 205
1249 4 2 2 2 389 247 437 260
1250 4 2 2 2 429 259 249 438
1251 4 2 2 2 337 429 119 258
1252 4 2 2 2 439 427 418 326
1253 4 2 2 2 262 244 435 124
1254 4 2 2 2 253 320 391 424
1255 4 2 2 2 402 233 370 362
1256 4 2 2 2 243 261 255 432
1257 4 2 2 2 213 206 195 433
1258 4 2 2 2 224 308 307 330
1259 4 2 2 2 392 439 327 254
1260 4 2 2 2 249 416 429 438
1261 4 2 2 2 77 434 315 194
1262 4 2 2 2 438 338 259 120
1263 4 2 2 2 198 81 207 405
1264 4 2 2 2 453 364 390 426
1265 4 2 2 2 247 338 438 120
1266 4 2 2 2 355 363 426 402
1267 4 2 2 2 317 295 294 223
1268 4 2 2 2 69 441 341 205
1269 4 2 2 2 445 206 76 348
1270 4 2 2 2 212 442 341 69
1271 4 2 2 2 76 213 448 348
1272 4 2 2 2 303 252 32 310
1273 4 2 2 2 29 297 113 253
1274 4 2 2 2 292 11 78 204
1275 4 2 2 2 14 88 203 305
1276 4 2 2 2 379 255 115 333
1277 4 2 2 2 115 261 378 333
1278 4 2 2 2 428 245 257 409
1279 4 2 2 2 415 436 246 258
1280 4 2 2 2 303 252 27 32
1281 4 2 2 2 123 331 310 252
1282 4 2 2 2 356 203 86 423
1283 4 2 2 2 320 253 105 424
1284 4 2 2 2 385 311 31 375
1285 4 2 2 2 442 291 9 374
1286 4 2 2 2 207 351 405 81
1287 4 2 2 2 299 204 11 292
1288 4 2 2 2 253 302 29 297
1289 4 2 2 2 203 312 14 305
1290 4 2 2 2 88 203 305 329
1291 4 2 2 2 378 30 298 373
1292 4 2 2 2 376 10 448 304
1293 4 2 2 2 78 316 292 204
1294 4 2 2 2 203 13 14 312
1295 4 2 2 2 299 204 12 11
1296 4 2 2 2 302 26 253 29
1297 4 2 2 2 297 113 253 318
1298 4 2 2 2 355 363 402 457
1299 4 2 2 2 351 359 455 404
1300 4 2 2 2 226 314 22 224
1301 4 2 2 2 226 17 313 224
1302 4 2 2 2 300 225 223 16
1303 4 2 2 2 225 21 301 223
1304 4 2 2 2 352 82 207 403
1305 4 2 2 2 353 398 210 83
1306 4 2 2 2 352 450 400 360
1307 4 2 2 2 406 452 358 350
1308 4 2 2 2 357 425 410 349
1309 4 2 2 2 399 361 353 456
1310 4 2 2 2 364 356 453 390
1311 4 2 2 2 362 456 399 354
1312 4 2 2 2 353 361 400 450
1313 4 2 2 2 360 352 455 404
1314 4 2 2 2 79 349 393 204
1315 4 2 2 2 351 452 359 406
1316 4 2 2 2 410 357 349 449
1317 4 2 2 2 457 362 402 354
1318 4 2 2 2 19 300 294 223
1319 4 2 2 2 308 23 314 224
1320 4 2 2 2 313 224 24 307
1321 4 2 2 2 295 301 20 223
1322 4 2 2 2 96 372 226 364
1323 4 2 2 2 372 96 226 104
1324 4 2 2 2 97 357 89 225
1325 4 2 2 2 325 465 370 417
1326 4 2 2 2 453 355 363 426
1327 4 2 2 2 460 321 366 408
1328 4 2 2 2 350 358 410 449
1329 4 2 2 2 420 372 327 462
1330 4 2 2 2 365 320 460 391
1331 4 2 2 2 96 231 372 364
1332 4 2 2 2 103 95 233 363
1333 4 2 2 2 103 231 95 363
1334 4 2 2 2 372 104 231 96
1335 4 2 2 2 89 357 97 228
1336 4 2 2 2 366 228 358 90
1337 4 2 2 2 230 366 358 90
1338 4 2 2 2 228 366 98 90
1339 4 2 2 2 370 94 227 362
1340 4 2 2 2 357 365 97 228
1341 4 2 2 2 361 227 369 93
1342 4 2 2 2 366 230 98 90
1343 4 2 2 2 94 370 227 102
1344 4 2 2 2 94 370 233 362
1345 4 2 2 2 229 369 101 93
1346 4 2 2 2 227 101 369 93
1347 4 2 2 2 102 370 233 94
1348 4 2 2 2 369 229 361 93
1349 4 2 2 2 371 418 465 326
1350 4 2 2 2 323 368 414 459
1351 4 2 2 2 326 371 418 462
1352 4 2 2 2 367 464 407 322
1353 4 2 2 2 369 324 458 401
1354 4 2 2 2 365 463 320 391
1355 4 2 2 2 325 370 458 417
1356 4 2 2 2 321 366 408 461
1357 4 2 2 2 357 349 451 425
1358 4 2 2 2 420 372 466 327
1359 4 2 2 2 364 454 356 390
1360 4 2 2 2 19 16 300 223
1361 4 2 2 2 314 23 22 224
1362 4 2 2 2 301 21 20 223
1363 4 2 2 2 224 24 17 313
1364 4 2 2 2 366 367 408 461
1365 4 2 2 2 367 368 407 464
1366 4 2 2 2 368 369 414 459
1367 4 2 2 2 369 417 458 370
1368 4 2 2 2 365 366 391 460
1369 4 2 2 2 366 391 460 408
1370 4 2 2 2 415 324 414 401
1371 4 2 2 2 369 324 414 459
1372 4 2 2 2 369 414 324 401
1373 4 2 2 2 391 320 408 431
1374 4 2 2 2 391 408 320 460
1375 4 2 2 2 321 408 320 431
1376 4 2 2 2 321 320 408 460
1377 4 2 2 2 322 323 407 430
1378 4 2 2 2 322 407 323 464
1379 4 2 2 2 414 407 323 430
1380 4 2 2 2 326 327 418 439
1381 4 2 2 2 326 418 327 462
1382 4 2 2 2 420 418 327 439
1383 4 2 2 2 420 327 418 462
1384 4 2 2 2 372 371 420 426
1385 4 2 2 2 372 420 371 462
1386 4 2 2 2 418 420 371 426
1387 4 2 2 2 418 371 420 462
1388 4 2 2 2 409 322 408 407
1389 4 2 2 2 367 322 408 461
1390 4 2 2 2 367 408 322 407
1391 4 2 2 2 418 371 417 402
1392 4 2 2 2 418 417 371 465
1393 4 2 2 2 370 417 371 402
1394 4 2 2 2 370 371 417 465
1395 4 2 2 2 324 325 401 416
1396 4 2 2 2 324 401 325 458
1397 4 2 2 2 417 401 325 416
1398 4 2 2 2 417 325 401 458
1399 4 2 2 2 320 302 391 463
1400 4 2 2 2 296 302 391 297
1401 4 2 2 2 296 391 302 463
1402 4 2 2 2 356 329 423 390
1403 4 2 2 2 356 423 329 203
1404 4 2 2 2 417 325 418 437
1405 4 2 2 2 417 418 325 465
1406 4 2 2 2 326 418 325 437
1407 4 2 2 2 326 325 418 465
1408 4 2 2 2 321 322 408 409
1409 4 2 2 2 321 408 322 461
1410 4 2 2 2 323 324 414 415
1411 4 2 2 2 323 414 324 459
1412 4 2 2 2 295 301 97 365
1413 4 2 2 2 295 97 301 225
1414 4 2 2 2 357 317 97 365
1415 4 2 2 2 357 97 317 225
1416 4 2 2 2 317 295 97 365
1417 4 2 2 2 317 97 295 225
1418 4 2 2 2 306 390 307 330
1419 4 2 2 2 364 307 390 330
1420 4 2 2 2 365 295 391 317
1421 4 2 2 2 296 391 295 317
1422 4 2 2 2 327 331 392 252
1423 4 2 2 2 327 392 331 420
1424 4 2 2 2 294 357 425 317
1425 4 2 2 2 356 355 390 413
1426 4 2 2 2 356 390 355 453
1427 4 2 2 2 426 390 355 413
1428 4 2 2 2 426 355 390 453
1429 4 2 2 2 353 403 400 398
1430 4 2 2 2 352 405 404 403
1431 4 2 2 2 306 305 390 329
1432 4 2 2 2 356 390 305 329
1433 4 2 2 2 349 292 425 316
1434 4 2 2 2 412 406 351 405
1435 4 2 2 2 93 362 227 94
1436 4 2 2 2 354 398 399 397
1437 4 2 2 2 92 361 229 93
1438 4 2 2 2 327 310 420 331
1439 4 2 2 2 309 420 310 331
1440 4 2 2 2 370 103 402 371
1441 4 2 2 2 370 402 103 233
1442 4 2 2 2 363 103 402 233
1443 4 2 2 2 91 360 232 92
1444 4 2 2 2 90 359 230 91
1445 4 2 2 2 359 358 230 406
1446 4 2 2 2 359 230 358 90
1447 4 2 2 2 363 233 94 95
1448 4 2 2 2 363 362 233 402
1449 4 2 2 2 363 233 362 94
1450 4 2 2 2 359 232 360 404
1451 4 2 2 2 359 360 232 91
1452 4 2 2 2 360 229 361 400
1453 4 2 2 2 360 361 229 92
1454 4 2 2 2 361 227 362 399
1455 4 2 2 2 361 362 227 93
1456 4 2 2 2 414 369 400 401
1457 4 2 2 2 407 368 404 414
1458 4 2 2 2 391 366 410 408
1459 4 2 2 2 355 397 402 413
1460 4 2 2 2 417 399 369 401
1461 4 2 2 2 408 367 406 407
1462 4 2 2 2 353 403 82 352
1463 4 2 2 2 82 83 403 353
1464 4 2 2 2 82 403 83 199
1465 4 2 2 2 398 403 83 353
1466 4 2 2 2 398 83 403 199
1467 4 2 2 2 416 324 246 415
1468 4 2 2 2 416 246 324 109
1469 4 2 2 2 388 202 198 412
1470 4 2 2 2 198 202 388 208
1471 4 2 2 2 246 416 429 249
1472 4 2 2 2 429 416 246 415
1473 4 2 2 2 350 81 412 351
1474 4 2 2 2 405 412 81 351
1475 4 2 2 2 405 81 412 198
1476 4 2 2 2 322 106 409 321
1477 4 2 2 2 71 388 443 208
1478 4 2 2 2 71 443 388 343
1479 4 2 2 2 323 107 430 322
1480 4 2 2 2 430 107 323 256
1481 4 2 2 2 253 302 391 320
1482 4 2 2 2 253 391 302 297
1483 4 2 2 2 396 74 444 211
1484 4 2 2 2 444 74 396 346
1485 4 2 2 2 430 246 386 256
1486 4 2 2 2 430 386 246 415
1487 4 2 2 2 86 423 413 356
1488 4 2 2 2 413 423 86 201
1489 4 2 2 2 327 111 254 439
1490 4 2 2 2 327 254 111 112
1491 4 2 2 2 326 110 437 325
1492 4 2 2 2 427 111 437 326
1493 4 2 2 2 427 437 111 260
1494 4 2 2 2 110 437 111 326
1495 4 2 2 2 110 111 437 260
1496 4 2 2 2 107 106 409 322
1497 4 2 2 2 409 106 107 245
1498 4 2 2 2 409 430 107 322
1499 4 2 2 2 107 430 409 245
1500 4 2 2 2 357 391 317 365
1501 4 2 2 2 357 317 391 425
1502 4 2 2 2 313 306 390 307
1503 4 2 2 2 390 306 313 454
1504 4 2 2 2 390 364 313 307
1505 4 2 2 2 313 364 390 454
1506 4 2 2 2 301 296 391 295
1507 4 2 2 2 391 296 301 463
1508 4 2 2 2 391 365 301 295
1509 4 2 2 2 301 365 391 463
1510 4 2 2 2 300 357 425 294
1511 4 2 2 2 425 357 300 451
1512 4 2 2 2 425 293 300 294
1513 4 2 2 2 300 293 425 451
1514 4 2 2 2 435 122 385 340
1515 4 2 2 2 385 122 435 262
1516 4 2 2 2 202 350 198 412
1517 4 2 2 2 202 198 350 80
1518 4 2 2 2 81 198 350 412
1519 4 2 2 2 81 350 198 80
1520 4 2 2 2 252 327 254 392
1521 4 2 2 2 254 327 252 112
1522 4 2 2 2 354 200 210 397
1523 4 2 2 2 354 210 200 84
1524 4 2 2 2 349 299 425 292
1525 4 2 2 2 349 425 299 451
1526 4 2 2 2 293 425 299 292
1527 4 2 2 2 293 299 425 451
1528 4 2 2 2 327 303 420 310
1529 4 2 2 2 327 420 303 466
1530 4 2 2 2 309 420 303 310
1531 4 2 2 2 309 303 420 466
1532 4 2 2 2 306 312 390 305
1533 4 2 2 2 306 390 312 454
1534 4 2 2 2 356 390 312 305
1535 4 2 2 2 356 312 390 454
1536 4 2 2 2 92 232 368 360
1537 4 2 2 2 368 232 92 100
1538 4 2 2 2 368 229 92 360
1539 4 2 2 2 92 229 368 100
1540 4 2 2 2 232 91 367 359
1541 4 2 2 2 232 367 91 99
1542 4 2 2 2 230 367 91 359
1543 4 2 2 2 230 91 367 99
1544 4 2 2 2 402 103 426 371
1545 4 2 2 2 402 426 103 363
1546 4 2 2 2 231 426 103 371
1547 4 2 2 2 231 103 426 363
1548 4 2 2 2 407 368 323 464
1549 4 2 2 2 407 323 368 414
1550 4 2 2 2 353 352 400 403
1551 4 2 2 2 353 400 352 450
1552 4 2 2 2 352 351 404 405
1553 4 2 2 2 352 404 351 455
1554 4 2 2 2 354 353 399 398
1555 4 2 2 2 354 399 353 456
1556 4 2 2 2 351 350 406 412
1557 4 2 2 2 406 350 351 452
1558 4 2 2 2 355 354 402 397
1559 4 2 2 2 355 402 354 457
1560 4 2 2 2 369 370 399 417
1561 4 2 2 2 399 370 369 227
1562 4 2 2 2 369 368 400 229
1563 4 2 2 2 369 400 368 414
1564 4 2 2 2 368 367 404 232
1565 4 2 2 2 368 404 367 407
1566 4 2 2 2 367 366 406 230
1567 4 2 2 2 367 406 366 408
1568 4 2 2 2 366 365 410 228
1569 4 2 2 2 366 410 365 391
$EndElements
