$MeshFormat
2.2 0 8
$EndMeshFormat
$PhysicalNames
3
3 1 "air_OPEM_RESERVED_1"
3 2 "air_OPEM_RESERVED_2"
3 3 "air_OPEM_RESERVED_3"
$EndPhysicalNames
$Nodes
169
1 0 0 0
2 0 0 0.1
3 0.003 0 0
4 0.003 0 0.1
5 0.003 0.003 0
6 0.003 0.003 0.1
7 0 0.003 0
8 0 0.003 0.1
9 0.01016 0.003 0
10 0.01016 0.003 0.1
11 0.01016 0.006000000000000001 0
12 0.01016 0.006000000000000001 0.1
13 0 0.006000000000000001 0
14 0 0.006000000000000001 0.1
15 0.01016 -0.00543 0
16 0.01016 -0.01686 0
17 0.01016 -0.01686 0.1
18 0.01016 -0.00543 0.1
19 0 -0.00543 0
20 0 -0.01686 0
21 0 -0.01686 0.1
22 0 -0.00543 0.1
23 0 0 0.009999999999999995
24 0 0 0.01999999999999999
25 0 0 0.02999999999999999
26 0 0 0.03999999999999999
27 0 0 0.05000000000000001
28 0 0 0.06000000000000003
29 0 0 0.07000000000000006
30 0 0 0.08000000000000007
31 0 0 0.09000000000000005
32 0.003 0 0.009999999999999995
33 0.003 0 0.01999999999999999
34 0.003 0 0.02999999999999999
35 0.003 0 0.03999999999999999
36 0.003 0 0.05000000000000001
37 0.003 0 0.06000000000000003
38 0.003 0 0.07000000000000006
39 0.003 0 0.08000000000000007
40 0.003 0 0.09000000000000005
41 0.003 0.003 0.009999999999999995
42 0.003 0.003 0.01999999999999999
43 0.003 0.003 0.02999999999999999
44 0.003 0.003 0.03999999999999999
45 0.003 0.003 0.05000000000000001
46 0.003 0.003 0.06000000000000003
47 0.003 0.003 0.07000000000000006
48 0.003 0.003 0.08000000000000007
49 0.003 0.003 0.09000000000000005
50 0 0.003 0.009999999999999995
51 0 0.003 0.01999999999999999
52 0 0.003 0.02999999999999999
53 0 0.003 0.03999999999999999
54 0 0.003 0.05000000000000001
55 0 0.003 0.06000000000000003
56 0 0.003 0.07000000000000006
57 0 0.003 0.08000000000000007
58 0 0.003 0.09000000000000005
59 0.01016 0.003 0.009999999999999995
60 0.01016 0.003 0.01999999999999999
61 0.01016 0.003 0.02999999999999999
62 0.01016 0.003 0.03999999999999999
63 0.01016 0.003 0.05000000000000001
64 0.01016 0.003 0.06000000000000003
65 0.01016 0.003 0.07000000000000006
66 0.01016 0.003 0.08000000000000007
67 0.01016 0.003 0.09000000000000005
68 0.01016 0.006 0.009999999999999995
69 0.01016 0.006 0.01999999999999999
70 0.01016 0.006 0.02999999999999999
71 0.01016 0.006 0.03999999999999999
72 0.01016 0.006 0.05000000000000001
73 0.01016 0.006 0.06000000000000003
74 0.01016 0.006 0.07000000000000006
75 0.01016 0.006 0.08000000000000007
76 0.01016 0.006 0.09000000000000005
77 0 0.006 0.009999999999999995
78 0 0.006 0.01999999999999999
79 0 0.006 0.02999999999999999
80 0 0.006 0.03999999999999999
81 0 0.006 0.05000000000000001
82 0 0.006 0.06000000000000003
83 0 0.006 0.07000000000000006
84 0 0.006 0.08000000000000007
85 0 0.006 0.09000000000000005
86 0.01016 -0.01114499999999999 0
87 0.01016 -0.01686 0.009999999999999995
88 0.01016 -0.01686 0.01999999999999999
89 0.01016 -0.01686 0.02999999999999999
90 0.01016 -0.01686 0.03999999999999999
91 0.01016 -0.01686 0.05000000000000001
92 0.01016 -0.01686 0.06000000000000003
93 0.01016 -0.01686 0.07000000000000006
94 0.01016 -0.01686 0.08000000000000007
95 0.01016 -0.01686 0.09000000000000005
96 0.01016 -0.01114499999999999 0.1
97 0 -0.011145 0
98 0 -0.01686 0.009999999999999995
99 0 -0.01686 0.01999999999999999
100 0 -0.01686 0.02999999999999999
101 0 -0.01686 0.03999999999999999
102 0 -0.01686 0.05000000000000001
103 0 -0.01686 0.06000000000000003
104 0 -0.01686 0.07000000000000006
105 0 -0.01686 0.08000000000000007
106 0 -0.01686 0.09000000000000005
107 0 -0.011145 0.1
108 0.0015 0.0015 0
109 0.0015 0.0015 0.1
110 0.00658 0.003 0.06500000000000004
111 0.006580000000000002 0.003 0.05500000000000002
112 0.006580000000000001 0.003 0.045
113 0.006580000000000001 0.003 0.02499999999999999
114 0.006580000000000001 0.003 0.03499999999999999
115 0.006580000000000001 0.003 0.07500000000000007
116 0.00658 0.003 0.004999999999999998
117 0.006579999999999999 0.003 0.01499999999999999
118 0.006580000000000001 0.003 0.08500000000000006
119 0.006580000000000001 0.003 0.09500000000000003
120 0.005080000000000001 0.006 0.09500000000000003
121 0.005079999999999996 0.006 0.08500000000000006
122 0.005080000000000001 0.006 0.07500000000000007
123 0.005079999999999998 0.006 0.02499999999999999
124 0.00508 0.006 0.004999999999999998
125 0.005079999999999999 0.006 0.01499999999999999
126 0.005080000000000001 0.006 0.03499999999999999
127 0.00508 0.006 0.06500000000000004
128 0.00508 0.006 0.04500000000000001
129 0.00508 0.006 0.05500000000000002
130 0.01016 -0.01000505088930092 0.09491464489713097
131 0.01016 -0.01000505088930093 0.005085355102869051
132 0.01016 -0.006503478814039407 0.07499118784835583
133 0.01016 -0.006478996741360781 0.02500881215164423
134 0.01016 -0.006920166443564128 0.04502202666679726
135 0.01016 -0.006568750190500452 0.01364323813834161
136 0.01016 -0.006572247629454528 0.08635676186165843
137 0.01016 -0.00742714093792393 0.06501048876268195
138 0.01016 -0.007155663270811527 0.03500367128790969
139 0.01016 -0.006690630461776139 0.05504163088468569
140 0.01016 -0.002794029783640616 0.005649370381280968
141 0.01016 -0.002794529417776888 0.0943506296187191
142 0.00508 -0.009445787037037034 0
143 0.00508 -0.01309115740740741 0
144 0.005080000000000005 -0.01686 0.08500000000000006
145 0.005079999999999999 -0.01686 0.09500000000000003
146 0.00508 -0.01686 0.07500000000000007
147 0.00508 -0.01686 0.02499999999999999
148 0.00508 -0.01686 0.004999999999999998
149 0.00508 -0.01686 0.01499999999999999
150 0.00508 -0.01686 0.06500000000000004
151 0.00508 -0.01686 0.04500000000000001
152 0.005079999999999999 -0.01686 0.03499999999999999
153 0.00508 -0.01686 0.05500000000000002
154 0.00508 -0.009445787037037034 0.1
155 0.00508 -0.01309115740740741 0.1
156 0 -0.008287500000000017 0.09517407343741122
157 0 -0.008287500000000005 0.004825926562588783
158 0 -0.008406250000000004 0.08502901223956857
159 0 -0.008426041666666668 0.07500483537326148
160 0 -0.00843 0.02499999999999999
161 0 -0.008406250000000001 0.01497098776043146
162 0 -0.00843 0.03499999999999999
163 0 -0.00843 0.045
164 0 -0.008429340277777779 0.06500080589554361
165 0 -0.008429890046296297 0.05500013431592394
166 0.001647894682663339 0.001192424756812782 0.02894822961414919
167 0.0015 0.0015 0.07500000000000007
168 0.0015 0.0015 0.08500000000000006
169 0.001647894682643242 0.001807575243281579 0.06105177038599684
$EndNodes
$Elements
532
1 4 2 1 1 30 57 31 168
2 4 2 1 1 39 29 30 167
3 4 2 1 1 46 47 56 169
4 4 2 1 1 46 56 55 169
5 4 2 1 1 34 24 25 166
6 4 2 1 1 33 24 34 166
7 4 2 1 1 47 46 37 169
8 4 2 1 1 43 33 34 166
9 4 2 1 1 55 56 28 169
10 4 2 1 1 52 25 24 166
11 4 2 1 1 23 7 108 1
12 4 2 1 1 23 3 1 108
13 4 2 1 1 50 41 23 108
14 4 2 1 1 109 58 49 31
15 4 2 1 1 40 109 49 31
16 4 2 1 1 3 41 5 108
17 4 2 1 1 7 23 108 50
18 4 2 1 1 5 50 7 108
19 4 2 1 1 31 8 2 109
20 4 2 1 1 41 5 108 50
21 4 2 1 1 49 4 6 109
22 4 2 1 1 109 4 2 40
23 4 2 1 1 6 58 49 109
24 4 2 1 1 49 4 109 40
25 4 2 1 1 40 2 109 31
26 4 2 1 1 31 8 109 58
27 4 2 1 1 58 6 8 109
28 4 2 1 1 54 44 26 53
29 4 2 1 1 45 26 44 35
30 4 2 1 1 35 43 34 25
31 4 2 1 1 45 26 35 27
32 4 2 1 1 45 35 36 27
33 4 2 1 1 24 42 51 52
34 4 2 1 1 23 51 41 50
35 4 2 1 1 44 52 25 53
36 4 2 1 1 27 45 55 36
37 4 2 1 1 45 27 55 54
38 4 2 1 1 44 26 25 35
39 4 2 1 1 26 44 25 53
40 4 2 1 1 51 23 41 24
41 4 2 1 1 27 37 55 28
42 4 2 1 1 36 55 37 46
43 4 2 1 1 55 36 45 46
44 4 2 1 1 37 27 55 36
45 4 2 1 1 23 41 24 32
46 4 2 1 1 42 32 24 41
47 4 2 1 1 44 54 26 45
48 4 2 1 1 32 42 24 33
49 4 2 1 1 42 41 24 51
50 4 2 1 1 52 44 25 43
51 4 2 1 1 26 45 54 27
52 4 2 1 1 25 44 35 43
53 4 2 1 1 39 57 48 167
54 4 2 1 1 57 39 30 167
55 4 2 1 1 57 39 48 168
56 4 2 1 1 39 57 30 168
57 4 2 1 1 49 40 31 168
58 4 2 1 1 47 56 29 167
59 4 2 1 1 43 34 25 166
60 4 2 1 1 25 52 43 166
61 4 2 1 1 55 37 46 169
62 4 2 1 1 37 55 28 169
63 4 2 1 1 57 30 56 167
64 4 2 1 1 47 57 56 167
65 4 2 1 1 47 48 57 167
66 4 2 1 1 30 40 39 168
67 4 2 1 1 39 49 48 168
68 4 2 1 1 49 39 40 168
69 4 2 1 1 56 30 29 167
70 4 2 1 1 40 30 31 168
71 4 2 1 1 56 169 29 28
72 4 2 1 1 29 169 56 47
73 4 2 1 1 169 38 29 28
74 4 2 1 1 29 38 169 47
75 4 2 1 1 169 37 38 28
76 4 2 1 1 38 37 169 47
77 4 2 1 1 166 43 42 52
78 4 2 1 1 42 43 166 33
79 4 2 1 1 42 24 166 52
80 4 2 1 1 166 24 42 33
81 4 2 1 1 3 23 41 108
82 4 2 1 1 3 41 23 32
83 4 2 1 1 49 168 58 48
84 4 2 1 1 49 58 168 31
85 4 2 1 1 57 58 168 48
86 4 2 1 1 57 168 58 31
87 4 2 1 1 39 167 38 29
88 4 2 1 1 39 38 167 48
89 4 2 1 1 47 38 167 29
90 4 2 1 1 47 167 38 48
91 4 2 2 2 68 11 59 116
92 4 2 2 2 59 11 9 116
93 4 2 2 2 69 59 117 68
94 4 2 2 2 12 10 119 67
95 4 2 2 2 76 12 119 67
96 4 2 2 2 66 75 74 115
97 4 2 2 2 66 118 76 75
98 4 2 2 2 47 46 127 110
99 4 2 2 2 46 45 129 111
100 4 2 2 2 43 42 123 113
101 4 2 2 2 45 44 128 112
102 4 2 2 2 44 43 126 114
103 4 2 2 2 48 47 122 115
104 4 2 2 2 41 5 124 116
105 4 2 2 2 42 41 125 117
106 4 2 2 2 49 48 121 118
107 4 2 2 2 6 49 120 119
108 4 2 2 2 71 72 112 63
109 4 2 2 2 73 64 74 110
110 4 2 2 2 64 72 111 73
111 4 2 2 2 62 70 114 71
112 4 2 2 2 69 61 70 113
113 4 2 2 2 59 69 117 60
114 4 2 2 2 118 76 67 66
115 4 2 2 2 62 71 112 63
116 4 2 2 2 70 62 114 61
117 4 2 2 2 72 64 111 63
118 4 2 2 2 69 61 113 60
119 4 2 2 2 66 74 65 115
120 4 2 2 2 64 65 74 110
121 4 2 2 2 127 73 74 110
122 4 2 2 2 124 11 68 116
123 4 2 2 2 111 129 73 72
124 4 2 2 2 74 75 122 115
125 4 2 2 2 118 121 76 75
126 4 2 2 2 69 125 68 117
127 4 2 2 2 113 123 70 69
128 4 2 2 2 112 128 72 71
129 4 2 2 2 120 12 119 76
130 4 2 2 2 114 126 71 70
131 4 2 2 2 12 6 14 120
132 4 2 2 2 13 5 11 124
133 4 2 2 2 123 79 43 126
134 4 2 2 2 73 129 46 127
135 4 2 2 2 41 124 125 68
136 4 2 2 2 121 48 122 75
137 4 2 2 2 44 80 128 126
138 4 2 2 2 82 46 129 127
139 4 2 2 2 83 122 47 127
140 4 2 2 2 125 124 41 77
141 4 2 2 2 42 125 78 123
142 4 2 2 2 128 45 129 81
143 4 2 2 2 122 84 48 121
144 4 2 2 2 120 49 85 121
145 4 2 2 2 74 47 122 127
146 4 2 2 2 126 128 44 71
147 4 2 2 2 45 128 129 72
148 4 2 2 2 126 43 123 70
149 4 2 2 2 42 125 123 69
150 4 2 2 2 121 120 49 76
151 4 2 2 2 56 46 55 127
152 4 2 2 2 52 42 51 123
153 4 2 2 2 45 55 129 54
154 4 2 2 2 45 46 129 55
155 4 2 2 2 46 47 127 56
156 4 2 2 2 5 41 124 50
157 4 2 2 2 44 43 52 126
158 4 2 2 2 42 43 123 52
159 4 2 2 2 5 50 124 7
160 4 2 2 2 44 52 53 126
161 4 2 2 2 44 54 128 53
162 4 2 2 2 41 51 125 50
163 4 2 2 2 44 45 128 54
164 4 2 2 2 47 48 122 57
165 4 2 2 2 48 49 121 58
166 4 2 2 2 41 42 125 51
167 4 2 2 2 47 57 122 56
168 4 2 2 2 48 58 121 57
169 4 2 2 2 58 6 49 120
170 4 2 2 2 58 6 120 8
171 4 2 2 2 80 52 79 126
172 4 2 2 2 78 79 52 123
173 4 2 2 2 7 77 124 13
174 4 2 2 2 85 8 120 14
175 4 2 2 2 8 85 120 58
176 4 2 2 2 83 55 82 127
177 4 2 2 2 83 56 55 127
178 4 2 2 2 81 53 128 54
179 4 2 2 2 77 7 124 50
180 4 2 2 2 128 80 53 81
181 4 2 2 2 129 82 81 54
182 4 2 2 2 51 78 52 123
183 4 2 2 2 80 52 126 53
184 4 2 2 2 129 82 54 55
185 4 2 2 2 78 50 125 51
186 4 2 2 2 78 50 77 125
187 4 2 2 2 84 56 122 57
188 4 2 2 2 85 58 57 121
189 4 2 2 2 56 84 122 83
190 4 2 2 2 85 57 84 121
191 4 2 2 2 41 124 68 116
192 4 2 2 2 68 125 41 117
193 4 2 2 2 75 48 122 115
194 4 2 2 2 121 118 48 75
195 4 2 2 2 46 73 127 110
196 4 2 2 2 73 46 129 111
197 4 2 2 2 6 12 119 120
198 4 2 2 2 119 49 120 76
199 4 2 2 2 124 5 11 116
200 4 2 2 2 42 125 69 117
201 4 2 2 2 121 49 118 76
202 4 2 2 2 123 43 113 70
203 4 2 2 2 111 45 129 72
204 4 2 2 2 123 113 42 69
205 4 2 2 2 114 43 126 70
206 4 2 2 2 112 44 128 71
207 4 2 2 2 128 45 112 72
208 4 2 2 2 74 47 127 110
209 4 2 2 2 126 44 114 71
210 4 2 2 2 74 122 47 115
211 4 2 2 2 12 10 6 119
212 4 2 2 2 41 59 68 117
213 4 2 2 2 5 9 11 116
214 4 2 2 2 68 59 41 116
215 4 2 2 2 76 119 49 67
216 4 2 2 2 76 49 118 67
217 4 2 2 2 75 66 48 115
218 4 2 2 2 66 48 118 75
219 4 2 2 2 72 111 45 63
220 4 2 2 2 45 112 72 63
221 4 2 2 2 73 64 46 111
222 4 2 2 2 73 46 64 110
223 4 2 2 2 44 114 71 62
224 4 2 2 2 71 112 44 62
225 4 2 2 2 61 113 43 70
226 4 2 2 2 43 114 61 70
227 4 2 2 2 69 113 42 60
228 4 2 2 2 60 42 69 117
229 4 2 2 2 47 74 65 110
230 4 2 2 2 65 74 47 115
231 4 2 2 2 43 52 79 123
232 4 2 2 2 43 79 52 126
233 4 2 2 2 8 14 6 120
234 4 2 2 2 5 13 7 124
235 4 2 2 2 49 85 58 120
236 4 2 2 2 58 85 49 121
237 4 2 2 2 77 124 41 50
238 4 2 2 2 42 125 51 78
239 4 2 2 2 77 41 125 50
240 4 2 2 2 81 45 129 54
241 4 2 2 2 48 84 57 121
242 4 2 2 2 122 84 57 48
243 4 2 2 2 78 51 42 123
244 4 2 2 2 128 45 81 54
245 4 2 2 2 82 129 46 55
246 4 2 2 2 53 80 44 126
247 4 2 2 2 53 80 128 44
248 4 2 2 2 55 46 82 127
249 4 2 2 2 122 47 56 83
250 4 2 2 2 47 56 83 127
251 4 2 3 3 152 147 100 162
252 4 2 3 3 153 102 163 151
253 4 2 3 3 163 152 101 162
254 4 2 3 3 101 152 163 151
255 4 2 3 3 165 103 153 150
256 4 2 3 3 165 102 163 153
257 4 2 3 3 164 104 150 146
258 4 2 3 3 103 165 164 150
259 4 2 3 3 160 100 147 162
260 4 2 3 3 99 147 149 160
261 4 2 3 3 146 159 105 144
262 4 2 3 3 104 164 159 146
263 4 2 3 3 160 149 99 161
264 4 2 3 3 158 105 159 144
265 4 2 3 3 158 106 144 130
266 4 2 3 3 149 98 161 131
267 4 2 3 3 106 158 156 130
268 4 2 3 3 157 161 98 131
269 4 2 3 3 162 163 152 90
270 4 2 3 3 151 152 163 90
271 4 2 3 3 145 144 106 130
272 4 2 3 3 131 149 98 148
273 4 2 3 3 150 153 165 92
274 4 2 3 3 165 164 150 92
275 4 2 3 3 91 153 163 151
276 4 2 3 3 153 163 165 91
277 4 2 3 3 145 106 156 130
278 4 2 3 3 98 157 131 148
279 4 2 3 3 146 150 164 93
280 4 2 3 3 164 159 146 93
281 4 2 3 3 162 152 147 89
282 4 2 3 3 162 147 160 89
283 4 2 3 3 91 163 165 134
284 4 2 3 3 163 162 138 90
285 4 2 3 3 144 146 159 94
286 4 2 3 3 147 149 160 88
287 4 2 3 3 144 159 158 94
288 4 2 3 3 161 160 149 88
289 4 2 3 3 138 162 160 89
290 4 2 3 3 151 163 134 90
291 4 2 3 3 144 145 95 130
292 4 2 3 3 148 131 149 87
293 4 2 3 3 138 162 152 90
294 4 2 3 3 159 164 137 93
295 4 2 3 3 134 91 163 151
296 4 2 3 3 132 158 159 94
297 4 2 3 3 160 161 133 88
298 4 2 3 3 139 165 153 92
299 4 2 3 3 130 144 158 136
300 4 2 3 3 161 149 131 135
301 4 2 3 3 139 153 165 91
302 4 2 3 3 137 150 164 92
303 4 2 3 3 152 162 138 89
304 4 2 3 3 163 138 134 90
305 4 2 3 3 137 164 150 93
306 4 2 3 3 165 139 91 134
307 4 2 3 3 132 146 159 93
308 4 2 3 3 133 160 147 89
309 4 2 3 3 132 159 146 94
310 4 2 3 3 156 154 155 130
311 4 2 3 3 143 142 157 131
312 4 2 3 3 133 147 160 88
313 4 2 3 3 160 133 138 89
314 4 2 3 3 163 36 165 134
315 4 2 3 3 163 162 35 138
316 4 2 3 3 34 162 160 138
317 4 2 3 3 158 144 94 136
318 4 2 3 3 135 161 149 88
319 4 2 3 3 164 165 37 139
320 4 2 3 3 137 132 159 93
321 4 2 3 3 130 158 156 136
322 4 2 3 3 157 161 131 135
323 4 2 3 3 159 39 158 132
324 4 2 3 3 160 161 33 133
325 4 2 3 3 94 132 158 136
326 4 2 3 3 161 135 133 88
327 4 2 3 3 157 142 19 140
328 4 2 3 3 154 156 22 141
329 4 2 3 3 136 156 130 141
330 4 2 3 3 131 140 157 135
331 4 2 3 3 130 95 144 136
332 4 2 3 3 149 131 135 87
333 4 2 3 3 140 157 142 131
334 4 2 3 3 156 154 130 141
335 4 2 3 3 35 163 138 134
336 4 2 3 3 139 165 36 134
337 4 2 3 3 19 15 140 142
338 4 2 3 3 22 18 154 141
339 4 2 3 3 133 34 160 138
340 4 2 3 3 137 164 37 139
341 4 2 3 3 37 38 137 110
342 4 2 3 3 40 156 136 141
343 4 2 3 3 140 32 157 135
344 4 2 3 3 35 34 114 138
345 4 2 3 3 132 39 158 136
346 4 2 3 3 135 33 161 133
347 4 2 3 3 112 36 35 134
348 4 2 3 3 61 62 114 138
349 4 2 3 3 112 62 63 134
350 4 2 3 3 64 137 65 110
351 4 2 3 3 139 36 37 111
352 4 2 3 3 40 156 158 136
353 4 2 3 3 161 157 32 135
354 4 2 3 3 132 38 39 115
355 4 2 3 3 113 34 33 133
356 4 2 3 3 39 40 136 118
357 4 2 3 3 33 32 117 135
358 4 2 3 3 116 32 3 140
359 4 2 3 3 141 40 4 119
360 4 2 3 3 136 118 67 66
361 4 2 3 3 117 59 60 135
362 4 2 3 3 156 107 21 145
363 4 2 3 3 20 97 157 148
364 4 2 3 3 111 64 139 63
365 4 2 3 3 145 156 155 130
366 4 2 3 3 131 157 143 148
367 4 2 3 3 107 156 155 145
368 4 2 3 3 157 97 143 148
369 4 2 3 3 32 157 3 140
370 4 2 3 3 156 40 4 141
371 4 2 3 3 60 61 113 133
372 4 2 3 3 132 66 65 115
373 4 2 3 3 37 137 64 110
374 4 2 3 3 37 38 164 137
375 4 2 3 3 65 137 38 110
376 4 2 3 3 34 35 162 138
377 4 2 3 3 163 35 36 134
378 4 2 3 3 19 3 157 140
379 4 2 3 3 4 22 156 141
380 4 2 3 3 61 114 34 138
381 4 2 3 3 35 114 62 138
382 4 2 3 3 107 156 154 155
383 4 2 3 3 143 142 97 157
384 4 2 3 3 118 136 39 66
385 4 2 3 3 117 60 33 135
386 4 2 3 3 36 112 63 134
387 4 2 3 3 62 112 35 134
388 4 2 3 3 165 36 37 139
389 4 2 3 3 15 19 140 3
390 4 2 3 3 22 18 141 4
391 4 2 3 3 159 38 39 132
392 4 2 3 3 160 33 34 133
393 4 2 3 3 140 142 15 131
394 4 2 3 3 130 154 18 141
395 4 2 3 3 116 9 59 140
396 4 2 3 3 119 10 141 67
397 4 2 3 3 111 139 36 63
398 4 2 3 3 155 145 130 96
399 4 2 3 3 86 131 143 148
400 4 2 3 3 39 40 158 136
401 4 2 3 3 32 33 161 135
402 4 2 3 3 64 139 37 111
403 4 2 3 3 34 113 61 133
404 4 2 3 3 37 47 38 110
405 4 2 3 3 46 36 45 111
406 4 2 3 3 46 47 37 110
407 4 2 3 3 36 46 37 111
408 4 2 3 3 33 43 113 42
409 4 2 3 3 43 33 113 34
410 4 2 3 3 43 35 34 114
411 4 2 3 3 45 35 44 112
412 4 2 3 3 38 48 39 115
413 4 2 3 3 3 41 32 116
414 4 2 3 3 35 45 36 112
415 4 2 3 3 41 3 5 116
416 4 2 3 3 48 38 47 115
417 4 2 3 3 42 41 117 32
418 4 2 3 3 42 32 117 33
419 4 2 3 3 43 44 35 114
420 4 2 3 3 39 49 40 118
421 4 2 3 3 49 39 48 118
422 4 2 3 3 4 49 6 119
423 4 2 3 3 49 4 40 119
424 4 2 3 3 66 132 39 115
425 4 2 3 3 138 62 35 134
426 4 2 3 3 60 113 33 133
427 4 2 3 3 38 132 65 115
428 4 2 3 3 136 132 39 66
429 4 2 3 3 135 60 33 133
430 4 2 3 3 86 143 16 148
431 4 2 3 3 145 155 17 96
432 4 2 3 3 155 21 107 145
433 4 2 3 3 97 20 143 148
434 4 2 3 3 63 139 36 134
435 4 2 3 3 155 17 21 145
436 4 2 3 3 143 20 16 148
437 4 2 3 3 162 163 35 26
438 4 2 3 3 163 36 27 165
439 4 2 3 3 37 28 165 164
440 4 2 3 3 37 137 139 64
441 4 2 3 3 164 38 29 159
442 4 2 3 3 34 160 162 25
443 4 2 3 3 160 161 24 33
444 4 2 3 3 158 30 39 159
445 4 2 3 3 161 157 23 32
446 4 2 3 3 156 31 40 158
447 4 2 3 3 91 139 153 92
448 4 2 3 3 133 61 34 138
449 4 2 3 3 118 40 136 67
450 4 2 3 3 32 59 117 135
451 4 2 3 3 38 132 137 65
452 4 2 3 3 151 134 91 90
453 4 2 3 3 162 35 34 25
454 4 2 3 3 162 35 25 26
455 4 2 3 3 27 35 163 26
456 4 2 3 3 35 27 163 36
457 4 2 3 3 37 27 36 165
458 4 2 3 3 37 28 27 165
459 4 2 3 3 38 28 164 29
460 4 2 3 3 28 38 164 37
461 4 2 3 3 23 3 157 1
462 4 2 3 3 156 21 106 145
463 4 2 3 3 98 20 157 148
464 4 2 3 3 34 24 160 25
465 4 2 3 3 33 24 160 34
466 4 2 3 3 29 39 30 159
467 4 2 3 3 29 38 39 159
468 4 2 3 3 100 101 152 162
469 4 2 3 3 102 101 163 151
470 4 2 3 3 103 102 165 153
471 4 2 3 3 104 103 164 150
472 4 2 3 3 105 104 159 146
473 4 2 3 3 99 100 147 160
474 4 2 3 3 88 149 135 87
475 4 2 3 3 94 144 95 136
476 4 2 3 3 158 106 105 144
477 4 2 3 3 149 98 99 161
478 4 2 3 3 154 155 130 96
479 4 2 3 3 143 142 131 86
480 4 2 3 3 40 30 158 31
481 4 2 3 3 40 30 39 158
482 4 2 3 3 161 23 24 32
483 4 2 3 3 33 161 24 32
484 4 2 3 3 89 147 133 88
485 4 2 3 3 3 1 19 157
486 4 2 3 3 93 132 146 94
487 4 2 3 3 40 4 2 156
488 4 2 3 3 31 40 2 156
489 4 2 3 3 3 23 157 32
490 4 2 3 3 116 3 9 140
491 4 2 3 3 4 10 141 119
492 4 2 3 3 22 2 4 156
493 4 2 3 3 89 138 152 90
494 4 2 3 3 92 137 150 93
495 4 2 3 3 141 136 40 67
496 4 2 3 3 59 32 140 135
497 4 2 3 3 130 145 17 96
498 4 2 3 3 16 131 86 148
499 4 2 3 3 95 145 17 130
500 4 2 3 3 148 16 131 87
501 4 2 3 3 116 59 32 140
502 4 2 3 3 119 141 40 67
503 4 2 3 3 15 9 3 140
504 4 2 3 3 10 18 4 141
505 4 2 3 3 130 18 154 96
506 4 2 3 3 131 142 15 86
507 4 2 3 3 107 156 22 154
508 4 2 3 3 142 19 97 157
509 4 2 3 3 10 4 6 119
510 4 2 3 3 5 3 9 116
511 4 2 3 3 40 49 119 67
512 4 2 3 3 49 40 118 67
513 4 2 3 3 41 32 59 117
514 4 2 3 3 59 32 41 116
515 4 2 3 3 112 45 36 63
516 4 2 3 3 111 36 45 63
517 4 2 3 3 114 44 35 62
518 4 2 3 3 112 35 44 62
519 4 2 3 3 113 43 34 61
520 4 2 3 3 114 34 43 61
521 4 2 3 3 113 33 42 60
522 4 2 3 3 60 33 42 117
523 4 2 3 3 118 39 48 66
524 4 2 3 3 66 39 48 115
525 4 2 3 3 65 38 47 110
526 4 2 3 3 65 47 38 115
527 4 2 3 3 64 37 46 111
528 4 2 3 3 64 46 37 110
529 4 2 3 3 137 159 38 164
530 4 2 3 3 137 38 159 132
531 4 2 3 3 164 139 92 165
532 4 2 3 3 92 139 164 137
$EndElements
