$MeshFormat
2.2 0 8
$EndMeshFormat
$PhysicalNames
2
3 1 "air_OPEM_RESERVED_1"
3 2 "air_OPEM_RESERVED_2"
$EndPhysicalNames
$Nodes
299
1 0 0 0
2 0 0 0.06
3 0.01905 0 0
4 0.01905 0 0.06
5 0.009525 0 0
6 0.009525 0 0.06
7 0.01905 0.004759999999999999 0
8 0.01905 0.00476 0.02524
9 0.01905 0.00476 0.03476
10 0.01905 0.004759999999999999 0.06
11 0.009525 0.004759999999999999 0
12 0 0.004759999999999999 0
13 0 0.00476 0.02524
14 0 0.00476 0.03476
15 0 0.004759999999999999 0.06
16 0.009525 0.004759999999999999 0.06
17 0 0.03476 0.03476
18 0 0.03476 0.02524
19 0.01905 0.03476 0.02524
20 0.009525 0.03476 0.02524
21 0.01905 0.03476 0.03476
22 0.009525 0.03476 0.03476
23 0 0 0.004999999999999994
24 0 0 0.009999999999999992
25 0 0 0.01499999999999998
26 0 0 0.01999999999999997
27 0 0 0.02499999999999998
28 0 0 0.02999999999999998
29 0 0 0.03499999999999997
30 0 0 0.03999999999999995
31 0 0 0.04499999999999996
32 0 0 0.04999999999999998
33 0 0 0.05499999999999999
34 0.01905 0 0.004999999999999994
35 0.01905 0 0.009999999999999992
36 0.01905 0 0.01499999999999998
37 0.01905 0 0.01999999999999997
38 0.01905 0 0.02499999999999998
39 0.01905 0 0.02999999999999998
40 0.01905 0 0.03499999999999997
41 0.01905 0 0.03999999999999995
42 0.01905 0 0.04499999999999996
43 0.01905 0 0.04999999999999998
44 0.01905 0 0.05499999999999999
45 0.004762499999999998 0 0
46 0.0142875 0 0
47 0.004762499999999998 0 0.06
48 0.0142875 0 0.06
49 0.01905 0.004759999999999999 0.00504799999999999
50 0.01905 0.004759999999999999 0.01009599999999998
51 0.01905 0.004759999999999999 0.01514399999999999
52 0.01905 0.004759999999999999 0.02019199999999998
53 0.01905 0.00476 0.03
54 0.01905 0.004759999999999999 0.03980799999999999
55 0.01905 0.004759999999999999 0.04485599999999999
56 0.01905 0.004759999999999999 0.049904
57 0.01905 0.004759999999999999 0.054952
58 0.0142875 0.004759999999999999 0
59 0.004762500000000005 0.004759999999999999 0
60 0 0.004759999999999999 0.00504799999999999
61 0 0.004759999999999999 0.01009599999999998
62 0 0.004759999999999999 0.01514399999999999
63 0 0.004759999999999999 0.02019199999999998
64 0.004762499999999992 0.00476 0.02524
65 0.009524999999999995 0.00476 0.02524
66 0.0142875 0.00476 0.02524
67 0 0.00476 0.03
68 0.01428750000000001 0.00476 0.03476
69 0.009525000000000006 0.00476 0.03476
70 0.004762500000000005 0.00476 0.03476
71 0 0.004759999999999999 0.03980799999999999
72 0 0.004759999999999999 0.04485599999999999
73 0 0.004759999999999999 0.049904
74 0 0.004759999999999999 0.054952
75 0.004762500000000005 0.004759999999999999 0.06
76 0.0142875 0.004759999999999999 0.06
77 0 0.02976 0.03476
78 0 0.02476000000000001 0.03476
79 0 0.01976000000000001 0.03476
80 0 0.01476000000000002 0.03476
81 0 0.009760000000000012 0.03476
82 0 0.02976 0.02524
83 0 0.02476000000000001 0.02524
84 0 0.01976000000000001 0.02524
85 0 0.01476000000000002 0.02524
86 0 0.009760000000000012 0.02524
87 0 0.03476 0.03
88 0.01905 0.02976 0.02524
89 0.01905 0.02476000000000001 0.02524
90 0.01905 0.01976000000000001 0.02524
91 0.01905 0.01476000000000002 0.02524
92 0.01905 0.009760000000000012 0.02524
93 0.004762499999999998 0.03476 0.02524
94 0.0142875 0.03476 0.02524
95 0.01905 0.02976 0.03476
96 0.01905 0.02476000000000001 0.03476
97 0.01905 0.01976000000000001 0.03476
98 0.01905 0.01476000000000002 0.03476
99 0.01905 0.009760000000000012 0.03476
100 0.01905 0.03476 0.03
101 0.0142875 0.03476 0.03476
102 0.004762500000000005 0.03476 0.03476
103 0.009525 0.03476 0.03
104 0.004328949312286478 0 0.03749796015227051
105 0.01503202622792941 0 0.01172893600602449
106 0.01471987298107781 0 0.02749999999999998
107 0.0147198729810778 0 0.04749999999999997
108 0.004591338761402632 0 0.01822700453146603
109 0.003915716572837665 0 0.007478115429403701
110 0.003916838870133216 0 0.05252188134030079
111 0.01574282009516815 0 0.03749999999999997
112 0.004305402842130701 0 0.02678571428571426
113 0.01212643231526427 0 0.05619241471712375
114 0.01212605836992249 0 0.003807889531866239
115 0.004245278617242982 0 0.04750644216304101
116 0.007732325368975435 0 0.05017019206527418
117 0.0083472003490625 0 0.0450314777261565
118 0.00432954506862991 0 0.01263648214380004
119 0.00778954835045362 0 0.009869555310325472
120 0.004023138947837411 0 0.03238061240633078
121 0.008591506178521386 0 0.0342683675083716
122 0.007987345497526973 0 0.0398871298018407
123 0.01471987298107781 0 0.02249999999999997
124 0.009632641023799128 0 0.02561224489795916
125 0.009942718331192623 0 0.02017298621527805
126 0.006197240286873165 0 0.02265958998608349
127 0.01075537322622147 0 0.02998294462947581
128 0.008758687390488632 0 0.01514057413242279
129 0.01415484671352485 0 0.03310733030540675
130 0.0139617722544091 0 0.01671141613534177
131 0.01514934157373824 0 0.04167286875177036
132 0.004235510532634427 0 0.04248745856341656
133 0.0153623466516481 0 0.00694999386230441
134 0.01531075738007158 0 0.05292185042918798
135 0.00743418656096374 0 0.004410244276673319
136 0.00742872910516882 0 0.05559402856906485
137 0.0156069166832115 0 0.003511396234241038
138 0.01560691668321152 0 0.05648860376575898
139 0.003424626375405663 0 0.003493815997573893
140 0.003424626375405648 0 0.05650618400242613
141 0.01135544799046885 0 0.00779463269571686
142 0.01141332623350007 0 0.05164866731034505
143 0.0108136296122856 0 0.04741636939646247
144 0.0113652907545627 0 0.04316797427937165
145 0.01132224055915714 0 0.01230284963816654
146 0.01167988374250583 0 0.03789146859241165
147 0.002645476960180745 0 0.02250897067905369
148 0.007159219815650215 0 0.02990100854365833
149 0.01905 0.00238 0.057488
150 0.01905 0.00238 0.002511999999999996
151 0.01905 0.002379999999999999 0.05246399999999998
152 0.01905 0.00238 0.007535999999999989
153 0.01905 0.002379999999999999 0.04743999999999998
154 0.01905 0.00238 0.01255999999999999
155 0.01905 0.002379999999999999 0.04241599999999997
156 0.01905 0.00238 0.01758399999999998
157 0.01905 0.00238 0.03739199999999997
158 0.01905 0.00238 0.02260799999999998
159 0.01905 0.00238 0.03243999999999999
160 0.01905 0.00238 0.02755999999999999
161 0.005591502988818126 0.004759999999999999 0.01262461832672316
162 0.01511989969170333 0.004759999999999999 0.01769838234625125
163 0.01511989959246297 0.004759999999999999 0.007556532893694968
164 0.006934106632593183 0.004759999999999999 0.02141538974653375
165 0.006935639573233052 0.004759999999999999 0.003825815629175534
166 0.01485134959488412 0.004759999999999999 0.01262743826657929
167 0.01093949503237165 0.004759999999999999 0.009920994333394977
168 0.01103051970695207 0.004759999999999999 0.01529757283049344
169 0.003955642726686985 0.004759999999999999 0.01811535677089198
170 0.003957431157433494 0.004759999999999999 0.007127588943009907
171 0.01159618222007754 0.004759999999999999 0.02080840999008681
172 0.01146068450963116 0.004759999999999999 0.004636906155049001
173 0.003131114146133311 0.004759999999999999 0.003200280914437087
174 0.003130449871856032 0.004759999999999999 0.02204054930348515
175 0.01563343879157612 0.004759999999999999 0.02173924294173557
176 0.01563343879157612 0.004759999999999999 0.003500757058264406
177 0.007774620933935179 0.004759999999999999 0.01759298908344265
178 0.007776950652297495 0.004759999999999999 0.007627184677470516
179 0.007143749999999994 0.004760000000000007 0.02936444598552338
180 0.01190625000000001 0.004760000000000007 0.03048582744173409
181 0.003130726300130973 0.004760000000000007 0.03126763927198804
182 0.01592631851681641 0.004760000000000007 0.02869977343837425
183 0.01622648102131579 0.004760000000000007 0.03193045005885222
184 0.002760501553432639 0.004760000000000007 0.02799068358772079
185 0.005588448561802196 0.004759999999999999 0.04737935158432871
186 0.01511989959246296 0.004759999999999999 0.052443467106305
187 0.01511562914743245 0.004759999999999999 0.04230675519764582
188 0.0069343046075095 0.004759999999999999 0.03858476592430498
189 0.006935639573233048 0.004759999999999999 0.05617418437082446
190 0.01484636729323476 0.004759999999999999 0.04737855553463397
191 0.01093388503332322 0.004759999999999999 0.05008580382921296
192 0.01102773146987094 0.004759999999999999 0.04470623274347364
193 0.003955364626253359 0.004759999999999999 0.04188548649692853
194 0.003956922086264174 0.004759999999999999 0.05287307270883206
195 0.01145988308119567 0.004759999999999999 0.05536406501103783
196 0.01159560334692062 0.004759999999999999 0.03919261376641678
197 0.003130433846752576 0.004759999999999999 0.0379596504842467
198 0.003131012331899448 0.004759999999999999 0.0567998514159313
199 0.0156334387915761 0.004759999999999999 0.0564992429417356
200 0.01563343879157611 0.004759999999999999 0.03826075705826441
201 0.007775808783432994 0.004759999999999999 0.04240794494158981
202 0.007774955667163663 0.004759999999999999 0.0523752955008472
203 0 0.00238 0.057488
204 0 0.00238 0.002511999999999996
205 0 0.00238 0.052464
206 0 0.00238 0.007535999999999989
207 0 0.00238 0.04743999999999998
208 0 0.002379999999999999 0.01255999999999999
209 0 0.002379999999999999 0.04241599999999997
210 0 0.00238 0.01758399999999998
211 0 0.00238 0.03739199999999997
212 0 0.00238 0.02260799999999998
213 0 0.00238 0.03243999999999999
214 0 0.00238 0.02755999999999999
215 0.002381250000000001 0.00238 0
216 0.00714375 0.002379999999999999 0
217 0.01666875 0.00238 0
218 0.01190625 0.00238 0
219 0.002381250000000001 0.00238 0.06
220 0.00714375 0.002379999999999999 0.06
221 0.01666875 0.00238 0.06
222 0.01190625 0.00238 0.06
223 0 0.02226000000000001 0.02985650217079309
224 0 0.01188441858292877 0.02977963337623512
225 0 0.02763686230026952 0.03022789680888713
226 0 0.01719740309715481 0.0299393559245047
227 0 0.008346477665566256 0.03109563311313453
228 0 0.03118287411547874 0.02889500566838694
229 0 0.03180281948796404 0.03191470035389629
230 0 0.007718699464070718 0.02808503806990995
231 0.005038991762113556 0.02290318050548645 0.02524
232 0.01426028014519241 0.01661436973440844 0.02524
233 0.003915716572837668 0.01223811542940371 0.02524
234 0.01513428342716233 0.0272818845705963 0.02524
235 0.01212605836992249 0.008567889531866248 0.02524
236 0.006923941630077505 0.03095211046813376 0.02524
237 0.004362543238384248 0.01735740637007721 0.02524
238 0.00861011609528543 0.01475993812301997 0.02524
239 0.01501981930469038 0.02215932728311598 0.02524
240 0.01080502417375469 0.02425939444604165 0.02524
241 0.008200228724122174 0.01981191339226727 0.02524
242 0.01523372230452527 0.01173089948370175 0.02524
243 0.003857823013359057 0.02778869222294741 0.02524
244 0.007667585148896633 0.009393071497651225 0.02524
245 0.01156934124762894 0.03028536284132333 0.02524
246 0.003108852928687312 0.03160416053821623 0.02524
247 0.01594945613488955 0.007915757803113599 0.02524
248 0.01562537362459434 0.0312661840024261 0.02524
249 0.003424626375405662 0.008253815997573889 0.02524
250 0.01157955241276445 0.01221323367412952 0.02524
251 0.007639024365386749 0.02723774809678652 0.02524
252 0.01189096446533536 0.01968538406155785 0.02524
253 0.01905 0.02225463867495098 0.03000928608738082
254 0.01905 0.0118811361390212 0.03022605198338579
255 0.01905 0.02763503434308665 0.03026517877360759
256 0.01905 0.01719596246899538 0.03003922301179443
257 0.01905 0.03117349385286437 0.02890669988092224
258 0.01905 0.008346306776149993 0.02890466287601691
259 0.01905 0.03180121831370729 0.03192169695064712
260 0.01905 0.007718206130738741 0.0319158164084861
261 0.01401101275014587 0.02290317263730429 0.03476
262 0.004789731584560581 0.0166143715574765 0.03476
263 0.01513429132004307 0.01223811540668573 0.03476
264 0.003915716572837668 0.0272818845705963 0.03476
265 0.006923944261067011 0.008567891672488972 0.03476
266 0.0121260583699225 0.03095211046813376 0.03476
267 0.004030185811110054 0.02215932759596866 0.03476
268 0.008244984423234663 0.02425938550624784 0.03476
269 0.01468747198632251 0.01735739585266335 0.03476
270 0.01043993126199896 0.01475993798671204 0.03476
271 0.01084979020713573 0.01981190791073732 0.03476
272 0.003816282719921309 0.0117309022849396 0.03476
273 0.01519217773868418 0.02778869091158372 0.03476
274 0.0113824253749736 0.009393073615555955 0.03476
275 0.007480659629614871 0.03028536192909947 0.03476
276 0.01594114722172134 0.0316041602759435 0.03476
277 0.003100545396197661 0.007915758791485712 0.03476
278 0.003424626375405665 0.0312661840024261 0.03476
279 0.01562537362459435 0.008253815997573886 0.03476
280 0.007470463040504294 0.01221323542343461 0.03476
281 0.01141097858232042 0.02723774429047382 0.03476
282 0.007159054274192151 0.01968538319053652 0.03476
283 0.002797640674222291 0.03476000000000001 0.03196289050189419
284 0.005952500164041996 0.03476000000000001 0.03118812450761554
285 0.003393447863403993 0.03476000000000001 0.02859114566231551
286 0.00684804634215967 0.03476000000000001 0.02791585896438331
287 0.01625235932577771 0.03476000000000001 0.02803710949810581
288 0.013097499835958 0.03476000000000001 0.02881187549238445
289 0.01565655213659601 0.03476000000000001 0.03140885433768449
290 0.01220195365784033 0.03476000000000001 0.03208414103561669
291 0.01409460572335044 0.009443166792368098 0.0299535985669704
292 0.004955109359656131 0.009457769800601316 0.03004602473881312
293 0.01424893976110925 0.03001821681089764 0.03023658055586989
294 0.005033077469686732 0.02971720092527858 0.02999401757583499
295 0.009528816479472728 0.01191662734860911 0.03000164401519602
296 0.009940229067524059 0.017410471168998 0.02988443665675043
297 0.009719730667183049 0.027612646665622 0.02992284577994215
298 0.01416872820877778 0.02474090251062653 0.02978645033252373
299 0.00507319982837131 0.01471623254868342 0.02974293330042588
$EndNodes
$Elements
821
1 4 2 1 1 11 216 135 165
2 4 2 1 1 187 42 155 55
3 4 2 1 1 114 5 135 218
4 4 2 1 1 190 42 55 153
5 4 2 1 1 136 220 16 189
6 4 2 1 1 136 6 113 222
7 4 2 1 1 186 56 151 43
8 4 2 1 1 135 5 11 218
9 4 2 1 1 216 5 11 135
10 4 2 1 1 36 51 154 166
11 4 2 1 1 16 6 136 222
12 4 2 1 1 16 6 220 136
13 4 2 1 1 135 172 114 218
14 4 2 1 1 153 56 107 43
15 4 2 1 1 115 31 207 72
16 4 2 1 1 107 190 56 153
17 4 2 1 1 113 195 136 222
18 4 2 1 1 43 151 186 134
19 4 2 1 1 172 135 11 218
20 4 2 1 1 36 154 105 166
21 4 2 1 1 195 16 136 222
22 4 2 1 1 131 42 155 187
23 4 2 1 1 207 32 115 73
24 4 2 1 1 107 42 190 153
25 4 2 1 1 132 31 72 209
26 4 2 1 1 110 32 205 73
27 4 2 1 1 169 210 118 108
28 4 2 1 1 118 61 24 208
29 4 2 1 1 140 198 220 189
30 4 2 1 1 173 139 216 165
31 4 2 1 1 210 25 118 108
32 4 2 1 1 24 61 109 206
33 4 2 1 1 163 105 152 50
34 4 2 1 1 55 187 42 190
35 4 2 1 1 210 118 62 169
36 4 2 1 1 26 210 63 174
37 4 2 1 1 197 71 30 209
38 4 2 1 1 152 105 163 133
39 4 2 1 1 210 118 25 62
40 4 2 1 1 147 212 27 64
41 4 2 1 1 210 26 169 174
42 4 2 1 1 30 193 197 209
43 4 2 1 1 37 162 175 156
44 4 2 1 1 105 35 152 50
45 4 2 1 1 140 74 198 205
46 4 2 1 1 60 139 173 206
47 4 2 1 1 147 26 212 174
48 4 2 1 1 111 68 157 40
49 4 2 1 1 220 198 140 75
50 4 2 1 1 216 139 173 59
51 4 2 1 1 219 140 198 75
52 4 2 1 1 139 215 173 59
53 4 2 1 1 214 27 13 64
54 4 2 1 1 72 207 115 185
55 4 2 1 1 212 13 27 64
56 4 2 1 1 133 176 152 137
57 4 2 1 1 72 193 132 209
58 4 2 1 1 176 114 218 137
59 4 2 1 1 113 222 138 199
60 4 2 1 1 110 205 194 73
61 4 2 1 1 190 187 42 107
62 4 2 1 1 72 115 31 132
63 4 2 1 1 56 186 107 43
64 4 2 1 1 211 197 30 104
65 4 2 1 1 208 25 118 62
66 4 2 1 1 26 63 212 174
67 4 2 1 1 197 30 71 211
68 4 2 1 1 105 152 35 133
69 4 2 1 1 154 35 105 50
70 4 2 1 1 109 61 170 206
71 4 2 1 1 198 194 140 205
72 4 2 1 1 170 173 139 206
73 4 2 1 1 159 9 68 40
74 4 2 1 1 56 186 190 107
75 4 2 1 1 132 193 30 209
76 4 2 1 1 165 135 11 172
77 4 2 1 1 157 68 9 40
78 4 2 1 1 73 115 207 185
79 4 2 1 1 166 154 105 50
80 4 2 1 1 200 155 41 54
81 4 2 1 1 115 32 110 73
82 4 2 1 1 148 184 112 181
83 4 2 1 1 138 44 151 199
84 4 2 1 1 176 34 152 137
85 4 2 1 1 8 66 38 160
86 4 2 1 1 198 220 189 75
87 4 2 1 1 173 216 59 165
88 4 2 1 1 140 198 74 203
89 4 2 1 1 204 139 173 60
90 4 2 1 1 41 157 111 200
91 4 2 1 1 16 136 189 195
92 4 2 1 1 212 147 174 64
93 4 2 1 1 8 66 158 38
94 4 2 1 1 104 29 211 70
95 4 2 1 1 37 130 162 156
96 4 2 1 1 130 162 51 166
97 4 2 1 1 152 163 176 133
98 4 2 1 1 140 33 74 205
99 4 2 1 1 23 139 60 206
100 4 2 1 1 208 118 61 161
101 4 2 1 1 213 14 29 70
102 4 2 1 1 199 44 151 57
103 4 2 1 1 49 34 152 176
104 4 2 1 1 180 127 124 106
105 4 2 1 1 27 214 112 64
106 4 2 1 1 211 29 14 70
107 4 2 1 1 39 183 129 159
108 4 2 1 1 169 63 210 174
109 4 2 1 1 197 193 71 209
110 4 2 1 1 218 172 114 176
111 4 2 1 1 222 113 195 199
112 4 2 1 1 135 216 139 165
113 4 2 1 1 148 179 121 127
114 4 2 1 1 47 220 140 75
115 4 2 1 1 47 140 219 75
116 4 2 1 1 134 138 151 199
117 4 2 1 1 45 139 216 59
118 4 2 1 1 38 66 106 160
119 4 2 1 1 215 139 45 59
120 4 2 1 1 133 114 176 137
121 4 2 1 1 133 152 34 137
122 4 2 1 1 51 36 130 166
123 4 2 1 1 125 164 126 65
124 4 2 1 1 118 208 62 161
125 4 2 1 1 147 26 174 108
126 4 2 1 1 186 107 43 134
127 4 2 1 1 136 140 220 189
128 4 2 1 1 68 129 159 40
129 4 2 1 1 174 108 164 126
130 4 2 1 1 184 148 179 181
131 4 2 1 1 41 157 200 54
132 4 2 1 1 120 213 29 70
133 4 2 1 1 109 61 24 118
134 4 2 1 1 182 39 183 106
135 4 2 1 1 149 44 138 199
136 4 2 1 1 176 34 137 150
137 4 2 1 1 176 172 114 133
138 4 2 1 1 187 131 42 107
139 4 2 1 1 159 39 183 182
140 4 2 1 1 117 185 143 192
141 4 2 1 1 104 211 197 70
142 4 2 1 1 66 123 158 38
143 4 2 1 1 140 74 33 203
144 4 2 1 1 139 204 23 60
145 4 2 1 1 131 155 41 200
146 4 2 1 1 26 210 169 108
147 4 2 1 1 149 44 199 57
148 4 2 1 1 176 49 34 150
149 4 2 1 1 194 198 74 205
150 4 2 1 1 128 119 161 145
151 4 2 1 1 173 170 60 206
152 4 2 1 1 183 159 182 53
153 4 2 1 1 116 117 185 143
154 4 2 1 1 222 76 48 138
155 4 2 1 1 218 46 58 137
156 4 2 1 1 76 48 138 221
157 4 2 1 1 217 58 46 137
158 4 2 1 1 194 140 205 110
159 4 2 1 1 163 105 141 133
160 4 2 1 1 151 186 134 199
161 4 2 1 1 68 111 157 200
162 4 2 1 1 190 192 187 107
163 4 2 1 1 188 122 121 146
164 4 2 1 1 108 174 147 126
165 4 2 1 1 138 222 76 199
166 4 2 1 1 176 218 58 137
167 4 2 1 1 185 110 115 116
168 4 2 1 1 66 180 65 106
169 4 2 1 1 221 138 76 199
170 4 2 1 1 217 176 58 137
171 4 2 1 1 145 161 128 168
172 4 2 1 1 183 68 129 159
173 4 2 1 1 52 175 162 156
174 4 2 1 1 200 187 155 54
175 4 2 1 1 214 13 184 64
176 4 2 1 1 185 116 143 191
177 4 2 1 1 109 170 139 206
178 4 2 1 1 163 166 105 50
179 4 2 1 1 132 117 201 185
180 4 2 1 1 113 138 134 199
181 4 2 1 1 108 177 128 161
182 4 2 1 1 181 184 214 67
183 4 2 1 1 176 163 172 133
184 4 2 1 1 120 148 70 121
185 4 2 1 1 117 132 115 185
186 4 2 1 1 124 65 180 106
187 4 2 1 1 148 179 70 121
188 4 2 1 1 167 161 119 145
189 4 2 1 1 120 148 112 181
190 4 2 1 1 146 121 188 69
191 4 2 1 1 174 13 212 64
192 4 2 1 1 155 131 187 200
193 4 2 1 1 184 112 214 64
194 4 2 1 1 183 9 68 159
195 4 2 1 1 65 124 66 106
196 4 2 1 1 205 140 33 110
197 4 2 1 1 122 104 132 188
198 4 2 1 1 190 186 191 107
199 4 2 1 1 69 121 179 127
200 4 2 1 1 191 143 185 192
201 4 2 1 1 192 144 187 107
202 4 2 1 1 104 193 132 188
203 4 2 1 1 134 195 113 199
204 4 2 1 1 175 52 37 156
205 4 2 1 1 128 118 108 161
206 4 2 1 1 162 175 171 123
207 4 2 1 1 105 130 36 166
208 4 2 1 1 144 131 187 107
209 4 2 1 1 181 214 28 67
210 4 2 1 1 114 46 218 137
211 4 2 1 1 48 113 222 138
212 4 2 1 1 123 162 175 37
213 4 2 1 1 199 151 186 57
214 4 2 1 1 140 194 198 189
215 4 2 1 1 152 163 49 176
216 4 2 1 1 139 173 170 165
217 4 2 1 1 171 65 124 66
218 4 2 1 1 69 129 121 127
219 4 2 1 1 139 23 109 206
220 4 2 1 1 108 164 126 125
221 4 2 1 1 180 69 179 127
222 4 2 1 1 138 151 44 134
223 4 2 1 1 129 69 180 127
224 4 2 1 1 145 167 161 168
225 4 2 1 1 104 197 193 188
226 4 2 1 1 107 186 142 134
227 4 2 1 1 141 114 172 133
228 4 2 1 1 194 110 185 116
229 4 2 1 1 177 108 169 161
230 4 2 1 1 28 213 181 67
231 4 2 1 1 66 124 171 123
232 4 2 1 1 105 141 167 163
233 4 2 1 1 174 26 169 108
234 4 2 1 1 39 129 183 106
235 4 2 1 1 112 147 27 64
236 4 2 1 1 131 111 146 200
237 4 2 1 1 142 191 186 107
238 4 2 1 1 186 195 134 199
239 4 2 1 1 119 170 109 161
240 4 2 1 1 122 121 104 188
241 4 2 1 1 136 195 113 142
242 4 2 1 1 121 70 104 188
243 4 2 1 1 109 118 119 161
244 4 2 1 1 164 125 171 65
245 4 2 1 1 163 141 172 133
246 4 2 1 1 182 159 39 53
247 4 2 1 1 135 139 170 165
248 4 2 1 1 148 112 184 179
249 4 2 1 1 188 196 146 69
250 4 2 1 1 193 132 201 185
251 4 2 1 1 166 105 167 163
252 4 2 1 1 65 126 125 124
253 4 2 1 1 14 197 211 70
254 4 2 1 1 129 68 111 40
255 4 2 1 1 118 62 169 161
256 4 2 1 1 52 158 175 37
257 4 2 1 1 111 68 146 200
258 4 2 1 1 28 213 120 181
259 4 2 1 1 108 118 169 161
260 4 2 1 1 198 140 219 203
261 4 2 1 1 204 139 215 173
262 4 2 1 1 164 108 177 125
263 4 2 1 1 194 140 136 189
264 4 2 1 1 195 136 202 142
265 4 2 1 1 162 171 130 123
266 4 2 1 1 106 182 39 160
267 4 2 1 1 160 182 39 53
268 4 2 1 1 125 171 124 123
269 4 2 1 1 169 174 108 164
270 4 2 1 1 164 64 126 65
271 4 2 1 1 66 182 106 160
272 4 2 1 1 149 138 221 199
273 4 2 1 1 137 217 176 150
274 4 2 1 1 68 129 146 69
275 4 2 1 1 122 188 196 146
276 4 2 1 1 123 175 66 158
277 4 2 1 1 126 64 112 124
278 4 2 1 1 172 178 135 141
279 4 2 1 1 195 113 142 134
280 4 2 1 1 114 172 135 141
281 4 2 1 1 179 112 64 124
282 4 2 1 1 121 179 70 69
283 4 2 1 1 179 148 112 124
284 4 2 1 1 123 130 162 37
285 4 2 1 1 64 147 174 126
286 4 2 1 1 157 9 68 200
287 4 2 1 1 104 120 29 70
288 4 2 1 1 121 146 129 69
289 4 2 1 1 131 41 111 200
290 4 2 1 1 213 120 181 70
291 4 2 1 1 148 179 127 124
292 4 2 1 1 186 195 142 134
293 4 2 1 1 131 146 196 200
294 4 2 1 1 161 119 170 178
295 4 2 1 1 64 126 65 124
296 4 2 1 1 144 192 143 107
297 4 2 1 1 194 140 110 136
298 4 2 1 1 139 170 109 135
299 4 2 1 1 190 191 143 107
300 4 2 1 1 145 130 105 166
301 4 2 1 1 158 123 175 37
302 4 2 1 1 185 202 194 116
303 4 2 1 1 65 179 64 124
304 4 2 1 1 180 129 127 106
305 4 2 1 1 135 165 178 172
306 4 2 1 1 190 143 192 107
307 4 2 1 1 222 195 76 199
308 4 2 1 1 58 172 218 176
309 4 2 1 1 168 171 125 130
310 4 2 1 1 139 216 135 45
311 4 2 1 1 119 109 170 178
312 4 2 1 1 189 136 202 195
313 4 2 1 1 196 201 122 144
314 4 2 1 1 174 164 64 126
315 4 2 1 1 110 194 202 116
316 4 2 1 1 180 66 182 106
317 4 2 1 1 191 142 143 107
318 4 2 1 1 130 168 171 162
319 4 2 1 1 192 191 143 190
320 4 2 1 1 8 66 175 158
321 4 2 1 1 125 171 65 124
322 4 2 1 1 130 145 168 166
323 4 2 1 1 131 196 144 187
324 4 2 1 1 136 220 140 47
325 4 2 1 1 207 32 31 115
326 4 2 1 1 171 125 130 123
327 4 2 1 1 141 167 145 105
328 4 2 1 1 187 131 196 200
329 4 2 1 1 188 121 70 69
330 4 2 1 1 30 31 132 209
331 4 2 1 1 196 146 68 200
332 4 2 1 1 123 66 106 38
333 4 2 1 1 128 177 125 168
334 4 2 1 1 146 129 68 111
335 4 2 1 1 165 170 135 178
336 4 2 1 1 171 125 177 168
337 4 2 1 1 72 73 207 185
338 4 2 1 1 62 208 61 161
339 4 2 1 1 55 56 190 153
340 4 2 1 1 166 51 154 50
341 4 2 1 1 109 119 135 178
342 4 2 1 1 116 202 110 136
343 4 2 1 1 168 125 128 130
344 4 2 1 1 182 66 8 160
345 4 2 1 1 136 202 194 189
346 4 2 1 1 159 129 39 40
347 4 2 1 1 30 29 211 104
348 4 2 1 1 58 172 11 218
349 4 2 1 1 76 16 195 222
350 4 2 1 1 128 177 108 125
351 4 2 1 1 69 68 129 180
352 4 2 1 1 132 117 122 201
353 4 2 1 1 196 192 144 187
354 4 2 1 1 36 130 37 156
355 4 2 1 1 136 116 202 142
356 4 2 1 1 124 66 106 123
357 4 2 1 1 137 3 217 150
358 4 2 1 1 4 149 138 221
359 4 2 1 1 185 115 117 116
360 4 2 1 1 105 167 145 166
361 4 2 1 1 26 25 210 108
362 4 2 1 1 119 135 178 141
363 4 2 1 1 144 146 196 131
364 4 2 1 1 202 194 110 136
365 4 2 1 1 1 204 139 215
366 4 2 1 1 219 140 2 203
367 4 2 1 1 181 14 213 70
368 4 2 1 1 135 170 109 178
369 4 2 1 1 135 216 5 45
370 4 2 1 1 217 7 176 150
371 4 2 1 1 10 149 221 199
372 4 2 1 1 68 146 196 69
373 4 2 1 1 64 112 147 126
374 4 2 1 1 146 196 122 144
375 4 2 1 1 195 142 191 186
376 4 2 1 1 141 172 167 163
377 4 2 1 1 6 220 136 47
378 4 2 1 1 119 118 128 161
379 4 2 1 1 122 188 201 196
380 4 2 1 1 28 27 214 112
381 4 2 1 1 189 220 16 75
382 4 2 1 1 59 216 11 165
383 4 2 1 1 46 5 114 218
384 4 2 1 1 6 48 113 222
385 4 2 1 1 201 196 192 144
386 4 2 1 1 162 130 168 166
387 4 2 1 1 185 117 201 192
388 4 2 1 1 33 32 205 110
389 4 2 1 1 56 186 151 57
390 4 2 1 1 152 163 50 49
391 4 2 1 1 55 155 187 54
392 4 2 1 1 51 52 162 156
393 4 2 1 1 70 104 120 121
394 4 2 1 1 177 128 161 168
395 4 2 1 1 153 107 42 43
396 4 2 1 1 34 35 152 133
397 4 2 1 1 125 177 164 171
398 4 2 1 1 116 185 202 191
399 4 2 1 1 178 161 119 167
400 4 2 1 1 164 108 169 177
401 4 2 1 1 197 104 70 188
402 4 2 1 1 109 23 24 206
403 4 2 1 1 168 145 167 166
404 4 2 1 1 154 35 36 105
405 4 2 1 1 117 122 201 144
406 4 2 1 1 142 202 195 191
407 4 2 1 1 64 184 112 179
408 4 2 1 1 24 25 118 208
409 4 2 1 1 175 66 171 123
410 4 2 1 1 34 3 137 150
411 4 2 1 1 4 149 44 138
412 4 2 1 1 215 12 204 173
413 4 2 1 1 15 198 219 203
414 4 2 1 1 10 149 199 57
415 4 2 1 1 7 49 176 150
416 4 2 1 1 204 23 1 139
417 4 2 1 1 140 33 2 203
418 4 2 1 1 217 46 3 137
419 4 2 1 1 138 48 4 221
420 4 2 1 1 172 167 178 141
421 4 2 1 1 200 157 9 54
422 4 2 1 1 38 106 39 160
423 4 2 1 1 158 175 8 52
424 4 2 1 1 12 204 173 60
425 4 2 1 1 198 15 74 203
426 4 2 1 1 180 68 129 183
427 4 2 1 1 212 63 13 174
428 4 2 1 1 151 43 44 134
429 4 2 1 1 29 28 213 120
430 4 2 1 1 42 155 41 131
431 4 2 1 1 168 128 145 130
432 4 2 1 1 197 71 14 211
433 4 2 1 1 142 143 116 191
434 4 2 1 1 173 215 12 59
435 4 2 1 1 219 198 15 75
436 4 2 1 1 2 140 219 47
437 4 2 1 1 215 139 1 45
438 4 2 1 1 204 1 12 215
439 4 2 1 1 3 7 217 150
440 4 2 1 1 219 2 15 203
441 4 2 1 1 4 10 149 221
442 4 2 1 1 40 157 111 41
443 4 2 1 1 123 158 38 37
444 4 2 1 1 181 213 14 67
445 4 2 1 1 167 119 178 141
446 4 2 1 1 160 8 182 53
447 4 2 1 1 221 76 10 199
448 4 2 1 1 176 58 7 217
449 4 2 1 1 143 117 192 144
450 4 2 1 1 192 117 201 144
451 4 2 1 1 145 119 167 141
452 4 2 1 1 142 116 202 191
453 4 2 1 1 212 27 26 147
454 4 2 1 1 205 74 194 73
455 4 2 1 1 61 60 170 206
456 4 2 1 1 62 63 210 169
457 4 2 1 1 193 72 71 209
458 4 2 1 1 159 183 9 53
459 4 2 1 1 13 214 184 67
460 4 2 1 1 120 181 214 28
461 4 2 1 1 214 112 120 28
462 4 2 1 1 185 132 72 193
463 4 2 1 1 185 72 132 115
464 4 2 1 1 51 130 156 162
465 4 2 1 1 51 156 130 36
466 4 2 1 1 124 180 179 127
467 4 2 1 1 124 179 180 65
468 4 2 1 1 183 106 180 182
469 4 2 1 1 180 106 183 129
470 4 2 1 1 112 181 214 120
471 4 2 1 1 214 181 112 184
472 4 2 1 1 110 185 73 194
473 4 2 1 1 73 185 110 115
474 4 2 1 1 104 193 30 132
475 4 2 1 1 104 30 193 197
476 4 2 1 1 109 161 61 118
477 4 2 1 1 61 161 109 170
478 4 2 1 1 132 188 201 122
479 4 2 1 1 201 188 132 193
480 4 2 1 1 181 148 70 120
481 4 2 1 1 181 70 148 179
482 4 2 2 2 263 256 291 296
483 4 2 2 2 231 294 267 297
484 4 2 2 2 232 291 256 296
485 4 2 2 2 267 223 231 299
486 4 2 2 2 241 296 240 297
487 4 2 2 2 263 256 254 291
488 4 2 2 2 223 237 231 299
489 4 2 2 2 237 241 231 296
490 4 2 2 2 263 269 256 296
491 4 2 2 2 291 295 263 296
492 4 2 2 2 237 296 231 299
493 4 2 2 2 267 231 282 299
494 4 2 2 2 223 264 267 294
495 4 2 2 2 231 223 267 294
496 4 2 2 2 231 296 282 299
497 4 2 2 2 231 267 268 297
498 4 2 2 2 256 296 269 298
499 4 2 2 2 256 232 254 291
500 4 2 2 2 226 223 267 299
501 4 2 2 2 253 256 269 298
502 4 2 2 2 296 297 268 298
503 4 2 2 2 240 297 296 298
504 4 2 2 2 256 253 239 298
505 4 2 2 2 223 226 237 299
506 4 2 2 2 232 295 291 296
507 4 2 2 2 241 240 231 297
508 4 2 2 2 223 225 264 294
509 4 2 2 2 242 254 232 291
510 4 2 2 2 231 267 282 268
511 4 2 2 2 271 296 268 298
512 4 2 2 2 232 250 291 295
513 4 2 2 2 232 250 242 291
514 4 2 2 2 252 232 256 296
515 4 2 2 2 223 231 225 294
516 4 2 2 2 252 239 256 232
517 4 2 2 2 267 262 226 299
518 4 2 2 2 225 231 243 294
519 4 2 2 2 251 294 231 297
520 4 2 2 2 263 295 270 296
521 4 2 2 2 253 269 261 298
522 4 2 2 2 282 262 267 299
523 4 2 2 2 266 103 290 293
524 4 2 2 2 103 286 236 294
525 4 2 2 2 269 263 270 296
526 4 2 2 2 231 251 243 294
527 4 2 2 2 232 250 295 296
528 4 2 2 2 268 271 282 296
529 4 2 2 2 180 265 274 295
530 4 2 2 2 103 293 266 297
531 4 2 2 2 103 294 236 297
532 4 2 2 2 179 235 244 295
533 4 2 2 2 240 296 252 298
534 4 2 2 2 179 292 265 295
535 4 2 2 2 180 291 235 295
536 4 2 2 2 180 179 265 295
537 4 2 2 2 179 180 235 295
538 4 2 2 2 241 252 240 296
539 4 2 2 2 22 103 290 266
540 4 2 2 2 20 286 236 103
541 4 2 2 2 231 240 251 297
542 4 2 2 2 275 103 266 297
543 4 2 2 2 103 236 245 297
544 4 2 2 2 254 91 242 232
545 4 2 2 2 223 78 267 264
546 4 2 2 2 263 269 98 256
547 4 2 2 2 78 223 225 264
548 4 2 2 2 268 261 271 298
549 4 2 2 2 91 254 256 232
550 4 2 2 2 103 245 293 297
551 4 2 2 2 256 253 90 239
552 4 2 2 2 256 98 263 254
553 4 2 2 2 253 269 256 97
554 4 2 2 2 103 275 294 297
555 4 2 2 2 226 223 79 267
556 4 2 2 2 253 261 269 97
557 4 2 2 2 267 79 226 262
558 4 2 2 2 239 90 256 232
559 4 2 2 2 223 237 226 84
560 4 2 2 2 274 291 180 295
561 4 2 2 2 231 237 223 84
562 4 2 2 2 265 69 180 274
563 4 2 2 2 103 288 290 293
564 4 2 2 2 103 245 288 293
565 4 2 2 2 179 244 292 295
566 4 2 2 2 103 284 286 294
567 4 2 2 2 244 179 65 235
568 4 2 2 2 268 297 281 298
569 4 2 2 2 246 236 286 294
570 4 2 2 2 179 265 69 180
571 4 2 2 2 65 179 180 235
572 4 2 2 2 285 246 286 294
573 4 2 2 2 275 284 103 294
574 4 2 2 2 235 182 247 291
575 4 2 2 2 277 265 181 292
576 4 2 2 2 244 233 292 295
577 4 2 2 2 274 263 291 295
578 4 2 2 2 292 295 233 299
579 4 2 2 2 236 20 103 245
580 4 2 2 2 103 22 275 266
581 4 2 2 2 264 294 275 297
582 4 2 2 2 259 273 276 293
583 4 2 2 2 259 273 95 276
584 4 2 2 2 276 266 290 293
585 4 2 2 2 293 297 234 298
586 4 2 2 2 179 181 265 292
587 4 2 2 2 235 180 182 291
588 4 2 2 2 289 276 290 293
589 4 2 2 2 224 230 249 292
590 4 2 2 2 254 260 279 291
591 4 2 2 2 268 281 261 298
592 4 2 2 2 283 229 228 294
593 4 2 2 2 86 230 249 224
594 4 2 2 2 260 99 254 279
595 4 2 2 2 77 229 278 225
596 4 2 2 2 278 229 283 294
597 4 2 2 2 280 270 295 299
598 4 2 2 2 229 278 225 294
599 4 2 2 2 283 228 285 294
600 4 2 2 2 268 264 275 297
601 4 2 2 2 257 248 234 293
602 4 2 2 2 244 238 233 295
603 4 2 2 2 224 80 272 299
604 4 2 2 2 233 295 238 299
605 4 2 2 2 274 270 263 295
606 4 2 2 2 234 293 245 297
607 4 2 2 2 242 247 258 291
608 4 2 2 2 272 277 227 292
609 4 2 2 2 66 235 182 247
610 4 2 2 2 279 183 180 291
611 4 2 2 2 270 296 295 299
612 4 2 2 2 70 181 277 265
613 4 2 2 2 183 260 182 291
614 4 2 2 2 246 228 243 294
615 4 2 2 2 272 292 224 299
616 4 2 2 2 250 235 291 295
617 4 2 2 2 280 265 292 295
618 4 2 2 2 249 233 224 292
619 4 2 2 2 255 96 273 298
620 4 2 2 2 263 254 279 291
621 4 2 2 2 234 297 240 298
622 4 2 2 2 184 230 181 292
623 4 2 2 2 238 295 250 296
624 4 2 2 2 282 296 262 299
625 4 2 2 2 281 297 293 298
626 4 2 2 2 262 296 270 299
627 4 2 2 2 180 274 279 291
628 4 2 2 2 259 255 273 293
629 4 2 2 2 95 255 273 259
630 4 2 2 2 281 266 293 297
631 4 2 2 2 280 262 270 299
632 4 2 2 2 180 66 235 182
633 4 2 2 2 251 236 294 297
634 4 2 2 2 179 249 184 292
635 4 2 2 2 276 290 266 101
636 4 2 2 2 246 286 236 93
637 4 2 2 2 281 293 273 298
638 4 2 2 2 278 77 225 264
639 4 2 2 2 257 234 255 293
640 4 2 2 2 280 295 292 299
641 4 2 2 2 70 179 181 265
642 4 2 2 2 280 292 272 299
643 4 2 2 2 249 233 86 224
644 4 2 2 2 80 224 226 299
645 4 2 2 2 290 276 289 101
646 4 2 2 2 286 246 285 93
647 4 2 2 2 278 264 225 294
648 4 2 2 2 263 254 99 279
649 4 2 2 2 253 261 96 298
650 4 2 2 2 284 278 283 294
651 4 2 2 2 232 238 250 296
652 4 2 2 2 245 20 103 288
653 4 2 2 2 103 275 22 284
654 4 2 2 2 248 257 287 293
655 4 2 2 2 248 287 288 293
656 4 2 2 2 237 238 241 296
657 4 2 2 2 180 68 183 279
658 4 2 2 2 242 258 254 291
659 4 2 2 2 227 224 272 292
660 4 2 2 2 249 179 244 292
661 4 2 2 2 273 96 261 298
662 4 2 2 2 80 262 272 299
663 4 2 2 2 253 96 255 298
664 4 2 2 2 88 257 248 234
665 4 2 2 2 260 183 279 291
666 4 2 2 2 230 184 249 292
667 4 2 2 2 289 287 257 293
668 4 2 2 2 240 234 245 297
669 4 2 2 2 226 85 237 299
670 4 2 2 2 260 258 182 291
671 4 2 2 2 80 226 262 299
672 4 2 2 2 237 238 296 299
673 4 2 2 2 246 285 228 294
674 4 2 2 2 230 227 181 292
675 4 2 2 2 226 224 85 299
676 4 2 2 2 250 244 235 295
677 4 2 2 2 280 274 265 295
678 4 2 2 2 228 225 243 294
679 4 2 2 2 255 293 234 298
680 4 2 2 2 233 85 224 299
681 4 2 2 2 68 180 274 279
682 4 2 2 2 273 293 255 298
683 4 2 2 2 182 258 247 291
684 4 2 2 2 277 181 227 292
685 4 2 2 2 64 249 184 179
686 4 2 2 2 243 82 228 246
687 4 2 2 2 281 275 266 297
688 4 2 2 2 276 289 259 293
689 4 2 2 2 233 224 292 299
690 4 2 2 2 277 227 81 272
691 4 2 2 2 92 242 247 258
692 4 2 2 2 89 255 234 298
693 4 2 2 2 261 253 96 97
694 4 2 2 2 89 253 255 298
695 4 2 2 2 251 245 236 297
696 4 2 2 2 286 284 285 294
697 4 2 2 2 255 257 88 234
698 4 2 2 2 179 64 249 244
699 4 2 2 2 240 252 239 298
700 4 2 2 2 285 284 283 294
701 4 2 2 2 237 85 233 299
702 4 2 2 2 282 270 262 296
703 4 2 2 2 253 89 239 298
704 4 2 2 2 275 281 268 297
705 4 2 2 2 289 257 259 293
706 4 2 2 2 245 248 288 293
707 4 2 2 2 242 235 247 291
708 4 2 2 2 272 265 277 292
709 4 2 2 2 271 269 270 296
710 4 2 2 2 250 235 242 291
711 4 2 2 2 280 265 272 292
712 4 2 2 2 228 82 243 225
713 4 2 2 2 81 227 224 272
714 4 2 2 2 242 92 254 258
715 4 2 2 2 80 226 79 262
716 4 2 2 2 91 256 90 232
717 4 2 2 2 229 283 228 87
718 4 2 2 2 275 278 284 294
719 4 2 2 2 66 65 180 235
720 4 2 2 2 223 83 231 84
721 4 2 2 2 281 266 273 293
722 4 2 2 2 265 70 179 69
723 4 2 2 2 246 243 236 294
724 4 2 2 2 295 296 238 299
725 4 2 2 2 251 236 243 294
726 4 2 2 2 19 287 248 257
727 4 2 2 2 261 281 273 298
728 4 2 2 2 290 288 289 293
729 4 2 2 2 251 240 245 297
730 4 2 2 2 283 285 228 87
731 4 2 2 2 89 234 239 298
732 4 2 2 2 289 288 287 293
733 4 2 2 2 262 280 272 299
734 4 2 2 2 83 243 82 225
735 4 2 2 2 80 81 224 272
736 4 2 2 2 91 92 254 242
737 4 2 2 2 285 228 18 246
738 4 2 2 2 14 277 181 227
739 4 2 2 2 247 182 8 258
740 4 2 2 2 287 100 289 257
741 4 2 2 2 269 98 256 97
742 4 2 2 2 279 274 263 291
743 4 2 2 2 233 249 244 292
744 4 2 2 2 89 255 88 234
745 4 2 2 2 266 276 273 293
746 4 2 2 2 85 226 237 84
747 4 2 2 2 270 282 271 296
748 4 2 2 2 224 227 230 292
749 4 2 2 2 254 258 260 291
750 4 2 2 2 183 182 180 291
751 4 2 2 2 273 255 95 96
752 4 2 2 2 179 184 181 292
753 4 2 2 2 229 225 228 294
754 4 2 2 2 182 260 183 53
755 4 2 2 2 244 250 238 295
756 4 2 2 2 78 79 223 267
757 4 2 2 2 270 274 280 295
758 4 2 2 2 252 238 232 296
759 4 2 2 2 233 85 86 224
760 4 2 2 2 254 98 263 99
761 4 2 2 2 181 230 184 67
762 4 2 2 2 245 234 248 293
763 4 2 2 2 225 77 78 264
764 4 2 2 2 288 94 287 248
765 4 2 2 2 283 284 102 278
766 4 2 2 2 17 283 278 229
767 4 2 2 2 289 259 21 276
768 4 2 2 2 89 90 253 239
769 4 2 2 2 94 288 245 248
770 4 2 2 2 275 102 284 278
771 4 2 2 2 266 290 22 101
772 4 2 2 2 236 286 20 93
773 4 2 2 2 180 69 68 274
774 4 2 2 2 100 259 289 257
775 4 2 2 2 288 245 20 94
776 4 2 2 2 102 22 275 284
777 4 2 2 2 237 233 238 299
778 4 2 2 2 238 252 241 296
779 4 2 2 2 258 260 182 53
780 4 2 2 2 259 257 255 293
781 4 2 2 2 18 228 285 87
782 4 2 2 2 227 230 181 67
783 4 2 2 2 244 179 64 65
784 4 2 2 2 239 234 240 298
785 4 2 2 2 287 19 100 257
786 4 2 2 2 227 181 14 67
787 4 2 2 2 258 182 8 53
788 4 2 2 2 9 260 183 279
789 4 2 2 2 276 21 289 101
790 4 2 2 2 278 275 264 294
791 4 2 2 2 257 248 19 88
792 4 2 2 2 246 18 285 93
793 4 2 2 2 13 230 184 249
794 4 2 2 2 227 14 277 81
795 4 2 2 2 228 82 18 246
796 4 2 2 2 8 92 247 258
797 4 2 2 2 229 278 17 77
798 4 2 2 2 283 102 17 278
799 4 2 2 2 259 21 100 289
800 4 2 2 2 9 99 260 279
801 4 2 2 2 13 230 249 86
802 4 2 2 2 287 94 19 248
803 4 2 2 2 259 95 21 276
804 4 2 2 2 17 283 229 87
805 4 2 2 2 182 8 66 247
806 4 2 2 2 181 277 14 70
807 4 2 2 2 183 68 9 279
808 4 2 2 2 249 184 13 64
809 4 2 2 2 183 260 9 53
810 4 2 2 2 184 230 13 67
811 4 2 2 2 296 268 231 282
812 4 2 2 2 252 298 256 239
813 4 2 2 2 256 298 252 296
814 4 2 2 2 298 271 269 261
815 4 2 2 2 298 269 271 296
816 4 2 2 2 231 225 83 223
817 4 2 2 2 83 225 231 243
818 4 2 2 2 297 264 267 268
819 4 2 2 2 297 267 264 294
820 4 2 2 2 231 296 297 268
821 4 2 2 2 297 296 231 241
$EndElements
