$MeshFormat
2.2 0 8
$EndMeshFormat
$PhysicalNames
2
3 1 "air_OPEM_RESERVED_1"
3 2 "air_OPEM_RESERVED_2"
$EndPhysicalNames
$Nodes
180
1 0 0 0
2 0 0 0.04
3 0.02286 0 0
4 0.02286 0 0.04
5 0.01143 0 0
6 0.02286 0.01016 0
7 0.02286 0.01016 0.04
8 0 0.01016 0
9 0 0.01016 0.04
10 0.01143 0.01016 0
11 -0.03857000000000001 0 0.06286
12 0.06143 0 0.06286000000000001
13 -0.03857000000000001 0 0.04
14 0.06143 0 0.04000000000000001
15 -0.03857000000000001 0 0.05143
16 0.06143 0 0.05143000000000002
17 -0.03857000000000001 0.01016 0.04
18 0.06143 0.01016 0.04000000000000001
19 -0.03857000000000001 0.01016 0.06286
20 0.06143 0.01016 0.06286000000000001
21 -0.03857000000000001 0.01016 0.05143
22 0.06143 0.01016 0.05143000000000002
23 0 0 0.01
24 0 0 0.02
25 0 0 0.03
26 0.02286 0 0.01
27 0.02286 0 0.02
28 0.02286 0 0.03
29 0.005714999999999999 0 0
30 0.017145 0 0
31 0.00762 0 0.04
32 0.01524 0 0.04
33 0.02286 0.01016 0.01
34 0.02286 0.01016 0.02
35 0.02286 0.01016 0.03
36 0 0.01016 0.01
37 0 0.01016 0.02
38 0 0.01016 0.03
39 0.017145 0.01016 0
40 0.005714999999999998 0.01016 0
41 0.01524 0.01016 0.04
42 0.007619999999999995 0.01016 0.04
43 -0.02745888888888889 0 0.06286
44 -0.01634777777777777 0 0.06286
45 -0.005236666666666653 0 0.06286
46 0.005874444444444467 0 0.06286
47 0.01698555555555556 0 0.06286
48 0.02809666666666666 0 0.06286000000000001
49 0.03920777777777773 0 0.06286000000000001
50 0.05031888888888882 0 0.06286000000000001
51 -0.0289275 0 0.04
52 -0.019285 0 0.04
53 -0.009642499999999998 0 0.04
54 0.0325025 0 0.04000000000000001
55 0.042145 0 0.04000000000000001
56 0.0517875 0 0.04000000000000001
57 -0.03857000000000001 0 0.057145
58 -0.03857000000000001 0 0.045715
59 0.06143 0 0.05714500000000002
60 0.06143 0 0.04571500000000001
61 -0.0289275 0.01016 0.04
62 -0.019285 0.01016 0.04
63 -0.009642499999999998 0.01016 0.04
64 0.0325025 0.01016 0.04000000000000001
65 0.042145 0.01016 0.04000000000000001
66 0.0517875 0.01016 0.04000000000000001
67 -0.02745888888888889 0.01016 0.06286
68 -0.01634777777777777 0.01016 0.06286
69 -0.005236666666666653 0.01016 0.06286
70 0.005874444444444467 0.01016 0.06286
71 0.01698555555555556 0.01016 0.06286
72 0.02809666666666666 0.01016 0.06286000000000001
73 0.03920777777777773 0.01016 0.06286000000000001
74 0.05031888888888882 0.01016 0.06286000000000001
75 -0.03857000000000001 0.01016 0.045715
76 -0.03857000000000001 0.01016 0.057145
77 0.06143 0.01016 0.04571500000000001
78 0.06143 0.01016 0.05714500000000002
79 0.01175341095692239 0 0.0332426932724573
80 0.008179674131239326 0 0.01612486022847454
81 0.01642876317431693 0 0.004548833622683892
82 0.006699547195521415 0 0.02656125891682197
83 0.008208359478779697 0 0.006145337200661957
84 0.01645419808496677 0 0.02500000000000001
85 0.01583183247821712 0 0.0136365051753034
86 0.01783352180837783 0 0.03364853865449146
87 0.005214591630488761 0 0.03396079043785586
88 0.02286 0.00508 0.035
89 0.02286 0.00508 0.015
90 0.02286 0.00508 0.025
91 0.02286 0.00508 0.005000000000000001
92 0.01175341095692239 0.01016 0.03324269327245731
93 0.00817967413123933 0.01016 0.01612486022847454
94 0.01642876317431693 0.01016 0.004548833622683894
95 0.006699547195521415 0.01016 0.02656125891682197
96 0.0082083594787797 0.01016 0.00614533720066196
97 0.01645419808496677 0.01016 0.02500000000000001
98 0.01583183247821712 0.01016 0.0136365051753034
99 0.01783352180837783 0.01016 0.03364853865449147
100 0.005214591630488759 0.01016 0.03396079043785586
101 0 0.00508 0.035
102 0 0.00508 0.015
103 0 0.00508 0.025
104 0 0.00508 0.005000000000000001
105 0.00401558787349666 0.00508 0
106 0.00766111757469933 0.00508 0
107 0.01884441212650334 0.00508 0
108 0.01519888242530067 0.00508 0
109 0.004898571428571427 0.005079999999999999 0.04
110 0.01796142857142857 0.00508 0.04
111 0.01143 0.005079999999999999 0.04
112 0.01143 0 0.04629891298542382
113 0.0282151357064816 0 0.04698471386667354
114 -0.00535513570648162 0 0.04698471386667352
115 0.0548209053142763 0 0.04813109485932942
116 -0.03196090531427631 0 0.0481310948593294
117 0.04327290973519206 0 0.05390891680412266
118 -0.02041290973519211 0 0.05390891680412262
119 0.0331135049081346 0 0.05465217808518906
120 -0.01025350490813463 0 0.05465217808518904
121 0.004236679121804796 0 0.04731532557047657
122 0.01862332087819518 0 0.04731532557047657
123 0.000115969380827724 0 0.05505846768977614
124 0.02274403061917225 0 0.05505846768977615
125 -0.03385013521190852 0 0.0556426824765549
126 0.05671013521190849 0 0.05564268247655492
127 0.01142999999999999 0 0.05382378564370418
128 0.03770255005830137 0 0.04691164631866028
129 -0.01484255005830139 0 0.04691164631866026
130 0.04686101038912036 0 0.0463353993469844
131 -0.02400101038912038 0 0.04633539934698436
132 0.05060946239460799 0 0.05242266260071343
133 -0.02774946239460801 0 0.0524226626007134
134 -0.03324674562682216 0.005080000000000001 0.04
135 -0.005323254373177842 0.00508 0.04000000000000001
136 -0.01446374999999999 0.00508 0.04
137 -0.02410625 0.00508 0.04
138 0.02818325437317783 0.00508 0.04000000000000001
139 0.0561067456268222 0.00507999999999999 0.04000000000000001
140 0.03732375 0.00508 0.04000000000000001
141 0.04696624999999996 0.00508 0.04000000000000001
142 0.01143000000000001 0.01016 0.04577536315399851
143 0.0282151357064816 0.01016 0.04698471386667354
144 -0.005355135706481613 0.01016 0.04698471386667351
145 -0.0319609053142763 0.01016 0.04813109485932939
146 0.05482090531427629 0.01016 0.04813109485932941
147 0.04327290973519206 0.01016 0.05390891680412264
148 -0.02041290973519211 0.01016 0.05390891680412262
149 0.0331135049081346 0.01016 0.05465217808518905
150 -0.01025350490813462 0.01016 0.05465217808518903
151 0.0186233208781952 0.01016 0.04722806726523902
152 0.004236679121804802 0.01016 0.04722806726523901
153 0.000115969380827724 0.01016 0.05504392463890321
154 0.02274403061917225 0.01016 0.05504392463890322
155 0.05671013521190849 0.01016 0.05564268247655491
156 -0.03385013521190851 0.01016 0.0556426824765549
157 0.01143 0.01016 0.05371990670889756
158 0.03770255005830137 0.01016 0.04691164631866027
159 -0.01484255005830139 0.01016 0.04691164631866025
160 0.04686101038912036 0.01016 0.04633539934698439
161 -0.02400101038912038 0.01016 0.04633539934698436
162 0.05060946239460798 0.01016 0.05242266260071339
163 -0.02774946239460801 0.01016 0.05242266260071339
164 0.05587444444444441 0.005080000000000001 0.06286000000000001
165 -0.03301444444444445 0.00508 0.06286
166 0.0003188888888889102 0.00508 0.06286
167 -0.01079222222222221 0.00508 0.06286
168 -0.02190333333333333 0.00508 0.06286
169 0.02254111111111111 0.005080000000000004 0.06286
170 0.01143000000000001 0.005080000000000001 0.06286
171 0.04476333333333327 0.00508 0.06286000000000001
172 0.03365222222222219 0.005080000000000001 0.06286000000000001
173 -0.03857000000000001 0.00508 0.05884441212650334
174 -0.03857000000000001 0.00508 0.05519888242530067
175 -0.03857000000000001 0.00508 0.04401558787349666
176 -0.03857000000000001 0.00508 0.04766111757469933
177 0.06143 0.00508 0.05884441212650336
178 0.06143 0.00508 0.05519888242530069
179 0.06143 0.00508 0.04401558787349667
180 0.06143 0.00508 0.04766111757469935
$EndNodes
$Elements
447
1 4 2 1 1 87 100 109 111
2 4 2 1 1 100 87 92 111
3 4 2 1 1 96 5 106 10
4 4 2 1 1 108 94 96 81
5 4 2 1 1 5 96 106 83
6 4 2 1 1 100 82 92 87
7 4 2 1 1 94 98 96 81
8 4 2 1 1 87 79 92 111
9 4 2 1 1 100 101 103 87
10 4 2 1 1 108 96 83 81
11 4 2 1 1 92 99 86 97
12 4 2 1 1 100 103 82 87
13 4 2 1 1 82 80 95 84
14 4 2 1 1 96 83 81 85
15 4 2 1 1 79 82 87 92
16 4 2 1 1 99 86 110 92
17 4 2 1 1 92 82 84 79
18 4 2 1 1 86 79 92 84
19 4 2 1 1 81 98 96 85
20 4 2 1 1 86 32 110 111
21 4 2 1 1 100 42 109 111
22 4 2 1 1 91 98 94 81
23 4 2 1 1 31 87 109 111
24 4 2 1 1 82 100 92 95
25 4 2 1 1 97 80 95 93
26 4 2 1 1 80 97 95 84
27 4 2 1 1 82 92 84 95
28 4 2 1 1 104 102 96 36
29 4 2 1 1 23 83 104 102
30 4 2 1 1 83 104 102 96
31 4 2 1 1 85 98 80 84
32 4 2 1 1 82 80 103 95
33 4 2 1 1 101 103 38 100
34 4 2 1 1 25 103 101 87
35 4 2 1 1 90 97 34 89
36 4 2 1 1 27 90 89 84
37 4 2 1 1 85 89 98 84
38 4 2 1 1 90 86 99 97
39 4 2 1 1 80 83 102 96
40 4 2 1 1 86 99 88 90
41 4 2 1 1 80 93 97 98
42 4 2 1 1 98 97 80 84
43 4 2 1 1 80 83 96 85
44 4 2 1 1 102 103 93 37
45 4 2 1 1 24 80 102 103
46 4 2 1 1 95 103 82 100
47 4 2 1 1 103 25 82 87
48 4 2 1 1 103 95 38 100
49 4 2 1 1 97 98 89 84
50 4 2 1 1 97 92 95 84
51 4 2 1 1 98 80 96 85
52 4 2 1 1 106 105 83 96
53 4 2 1 1 97 86 92 84
54 4 2 1 1 81 91 98 85
55 4 2 1 1 93 103 80 95
56 4 2 1 1 98 34 97 89
57 4 2 1 1 89 85 27 84
58 4 2 1 1 94 108 107 81
59 4 2 1 1 5 96 108 10
60 4 2 1 1 102 80 96 93
61 4 2 1 1 93 80 96 98
62 4 2 1 1 90 97 89 84
63 4 2 1 1 99 88 90 35
64 4 2 1 1 90 88 86 28
65 4 2 1 1 5 96 83 108
66 4 2 1 1 32 86 79 111
67 4 2 1 1 89 91 26 85
68 4 2 1 1 89 98 33 91
69 4 2 1 1 42 100 92 111
70 4 2 1 1 87 31 79 111
71 4 2 1 1 103 93 37 95
72 4 2 1 1 80 24 82 103
73 4 2 1 1 80 102 103 93
74 4 2 1 1 94 33 98 91
75 4 2 1 1 91 81 26 85
76 4 2 1 1 36 102 96 93
77 4 2 1 1 83 23 80 102
78 4 2 1 1 91 89 98 85
79 4 2 1 1 97 90 86 84
80 4 2 1 1 101 100 109 87
81 4 2 1 1 108 83 5 81
82 4 2 1 1 94 96 10 108
83 4 2 1 1 91 94 107 81
84 4 2 1 1 96 106 105 40
85 4 2 1 1 83 29 105 106
86 4 2 1 1 105 104 83 96
87 4 2 1 1 99 110 86 88
88 4 2 1 1 35 90 99 97
89 4 2 1 1 90 86 84 28
90 4 2 1 1 96 105 104 40
91 4 2 1 1 83 29 104 105
92 4 2 1 1 96 104 8 40
93 4 2 1 1 1 83 29 104
94 4 2 1 1 92 41 42 111
95 4 2 1 1 31 32 79 111
96 4 2 1 1 3 6 107 91
97 4 2 1 1 104 1 8 105
98 4 2 1 1 39 6 94 107
99 4 2 1 1 81 107 3 30
100 4 2 1 1 104 29 1 105
101 4 2 1 1 105 8 104 40
102 4 2 1 1 96 8 104 36
103 4 2 1 1 1 23 83 104
104 4 2 1 1 101 9 2 109
105 4 2 1 1 7 4 110 88
106 4 2 1 1 42 9 100 109
107 4 2 1 1 87 109 2 31
108 4 2 1 1 41 7 110 99
109 4 2 1 1 93 36 102 37
110 4 2 1 1 24 80 23 102
111 4 2 1 1 86 32 4 110
112 4 2 1 1 108 107 81 30
113 4 2 1 1 108 39 94 107
114 4 2 1 1 94 6 33 91
115 4 2 1 1 3 91 81 26
116 4 2 1 1 101 38 9 100
117 4 2 1 1 101 2 25 87
118 4 2 1 1 24 25 82 103
119 4 2 1 1 95 37 103 38
120 4 2 1 1 2 101 109 87
121 4 2 1 1 9 101 100 109
122 4 2 1 1 85 26 89 27
123 4 2 1 1 34 98 33 89
124 4 2 1 1 88 99 7 35
125 4 2 1 1 4 86 88 28
126 4 2 1 1 110 4 86 88
127 4 2 1 1 99 7 110 88
128 4 2 1 1 6 94 107 91
129 4 2 1 1 91 107 3 81
130 4 2 1 1 39 94 10 108
131 4 2 1 1 81 5 108 30
132 4 2 1 1 10 106 96 40
133 4 2 1 1 29 83 5 106
134 4 2 1 1 97 35 90 34
135 4 2 1 1 84 27 90 28
136 4 2 1 1 110 92 41 99
137 4 2 1 1 110 41 92 111
138 4 2 1 1 111 86 92 110
139 4 2 1 1 111 92 86 79
140 4 2 2 2 15 145 116 176
141 4 2 2 2 16 146 180 115
142 4 2 2 2 112 109 142 111
143 4 2 2 2 110 112 142 111
144 4 2 2 2 15 21 145 176
145 4 2 2 2 146 16 180 22
146 4 2 2 2 110 122 4 151
147 4 2 2 2 109 152 2 121
148 4 2 2 2 148 150 167 120
149 4 2 2 2 119 172 117 149
150 4 2 2 2 178 115 126 146
151 4 2 2 2 174 145 156 116
152 4 2 2 2 110 4 7 151
153 4 2 2 2 152 2 9 109
154 4 2 2 2 170 47 127 71
155 4 2 2 2 127 70 46 170
156 4 2 2 2 157 112 142 151
157 4 2 2 2 112 142 152 157
158 4 2 2 2 116 176 145 175
159 4 2 2 2 146 180 115 179
160 4 2 2 2 127 170 71 157
161 4 2 2 2 170 127 70 157
162 4 2 2 2 146 141 115 160
163 4 2 2 2 131 116 145 137
164 4 2 2 2 122 143 138 151
165 4 2 2 2 135 152 114 121
166 4 2 2 2 143 122 138 113
167 4 2 2 2 146 115 141 139
168 4 2 2 2 134 145 116 137
169 4 2 2 2 129 150 144 159
170 4 2 2 2 149 128 113 158
171 4 2 2 2 135 152 144 114
172 4 2 2 2 149 172 117 147
173 4 2 2 2 118 148 167 120
174 4 2 2 2 150 69 167 120
175 4 2 2 2 149 119 172 72
176 4 2 2 2 156 165 125 133
177 4 2 2 2 126 164 155 162
178 4 2 2 2 128 130 141 160
179 4 2 2 2 131 161 129 137
180 4 2 2 2 113 149 158 143
181 4 2 2 2 144 129 114 120
182 4 2 2 2 125 174 156 116
183 4 2 2 2 155 178 126 146
184 4 2 2 2 141 130 115 160
185 4 2 2 2 131 145 161 137
186 4 2 2 2 70 166 123 46
187 4 2 2 2 124 47 169 71
188 4 2 2 2 15 145 174 116
189 4 2 2 2 146 16 178 115
190 4 2 2 2 158 128 141 160
191 4 2 2 2 129 161 159 137
192 4 2 2 2 150 68 148 167
193 4 2 2 2 172 149 73 147
194 4 2 2 2 167 44 118 120
195 4 2 2 2 117 172 119 49
196 4 2 2 2 129 159 144 136
197 4 2 2 2 158 128 113 140
198 4 2 2 2 152 135 2 121
199 4 2 2 2 122 4 151 138
200 4 2 2 2 153 70 166 123
201 4 2 2 2 71 169 124 154
202 4 2 2 2 48 172 119 72
203 4 2 2 2 69 167 120 45
204 4 2 2 2 49 117 172 73
205 4 2 2 2 167 68 148 44
206 4 2 2 2 149 113 154 143
207 4 2 2 2 114 153 144 120
208 4 2 2 2 150 129 144 120
209 4 2 2 2 32 112 110 111
210 4 2 2 2 112 31 109 111
211 4 2 2 2 128 113 119 149
212 4 2 2 2 130 128 117 160
213 4 2 2 2 129 148 161 131
214 4 2 2 2 112 152 121 157
215 4 2 2 2 122 112 157 151
216 4 2 2 2 50 132 171 162
217 4 2 2 2 163 168 43 133
218 4 2 2 2 165 156 163 133
219 4 2 2 2 164 126 132 162
220 4 2 2 2 157 154 122 151
221 4 2 2 2 121 152 153 157
222 4 2 2 2 114 152 153 121
223 4 2 2 2 143 158 113 140
224 4 2 2 2 136 144 129 114
225 4 2 2 2 152 114 153 144
226 4 2 2 2 122 154 143 151
227 4 2 2 2 138 143 113 140
228 4 2 2 2 135 144 136 114
229 4 2 2 2 132 50 164 162
230 4 2 2 2 43 165 163 133
231 4 2 2 2 154 113 122 143
232 4 2 2 2 73 117 172 147
233 4 2 2 2 44 148 167 118
234 4 2 2 2 149 117 128 158
235 4 2 2 2 150 148 159 129
236 4 2 2 2 158 141 128 140
237 4 2 2 2 159 129 137 136
238 4 2 2 2 114 2 135 121
239 4 2 2 2 4 122 113 138
240 4 2 2 2 152 9 135 144
241 4 2 2 2 7 143 151 138
242 4 2 2 2 158 117 128 160
243 4 2 2 2 161 159 148 129
244 4 2 2 2 135 2 9 152
245 4 2 2 2 151 4 7 138
246 4 2 2 2 153 150 144 120
247 4 2 2 2 154 119 113 149
248 4 2 2 2 169 48 124 72
249 4 2 2 2 166 69 123 45
250 4 2 2 2 55 130 141 128
251 4 2 2 2 65 158 141 160
252 4 2 2 2 129 52 131 137
253 4 2 2 2 161 62 159 137
254 4 2 2 2 154 169 124 72
255 4 2 2 2 166 69 153 123
256 4 2 2 2 74 50 171 162
257 4 2 2 2 168 67 163 43
258 4 2 2 2 117 128 119 149
259 4 2 2 2 150 148 129 120
260 4 2 2 2 74 164 50 162
261 4 2 2 2 165 163 67 43
262 4 2 2 2 141 55 128 140
263 4 2 2 2 65 141 158 140
264 4 2 2 2 137 62 159 136
265 4 2 2 2 129 52 137 136
266 4 2 2 2 116 163 131 145
267 4 2 2 2 115 162 146 160
268 4 2 2 2 171 132 117 162
269 4 2 2 2 148 133 168 163
270 4 2 2 2 21 15 145 174
271 4 2 2 2 146 16 22 178
272 4 2 2 2 138 64 143 140
273 4 2 2 2 135 144 63 136
274 4 2 2 2 113 54 138 140
275 4 2 2 2 135 136 53 114
276 4 2 2 2 47 124 127 71
277 4 2 2 2 46 123 70 127
278 4 2 2 2 42 142 109 111
279 4 2 2 2 41 110 142 111
280 4 2 2 2 124 119 113 154
281 4 2 2 2 120 114 153 123
282 4 2 2 2 154 127 122 124
283 4 2 2 2 127 153 121 123
284 4 2 2 2 117 49 171 73
285 4 2 2 2 168 148 68 44
286 4 2 2 2 153 127 121 157
287 4 2 2 2 127 154 122 157
288 4 2 2 2 119 154 72 149
289 4 2 2 2 153 120 69 150
290 4 2 2 2 124 127 71 154
291 4 2 2 2 153 70 123 127
292 4 2 2 2 163 145 161 131
293 4 2 2 2 162 115 130 160
294 4 2 2 2 113 122 124 154
295 4 2 2 2 123 114 153 121
296 4 2 2 2 127 71 154 157
297 4 2 2 2 153 70 127 157
298 4 2 2 2 121 127 112 157
299 4 2 2 2 127 122 112 157
300 4 2 2 2 73 171 117 147
301 4 2 2 2 44 168 148 118
302 4 2 2 2 158 143 64 140
303 4 2 2 2 159 63 144 136
304 4 2 2 2 54 113 128 140
305 4 2 2 2 53 136 129 114
306 4 2 2 2 117 149 147 158
307 4 2 2 2 129 148 118 120
308 4 2 2 2 162 117 171 147
309 4 2 2 2 133 148 168 118
310 4 2 2 2 134 116 145 175
311 4 2 2 2 139 146 115 179
312 4 2 2 2 158 147 117 160
313 4 2 2 2 129 118 148 131
314 4 2 2 2 145 163 156 116
315 4 2 2 2 162 126 115 146
316 4 2 2 2 119 124 48 72
317 4 2 2 2 123 69 120 45
318 4 2 2 2 154 119 72 124
319 4 2 2 2 120 153 69 123
320 4 2 2 2 67 156 163 165
321 4 2 2 2 164 74 155 162
322 4 2 2 2 165 43 125 133
323 4 2 2 2 50 126 132 164
324 4 2 2 2 115 56 141 139
325 4 2 2 2 66 146 141 139
326 4 2 2 2 134 61 145 137
327 4 2 2 2 134 116 51 137
328 4 2 2 2 163 116 131 133
329 4 2 2 2 132 115 130 162
330 4 2 2 2 130 56 141 115
331 4 2 2 2 160 146 141 66
332 4 2 2 2 116 131 51 137
333 4 2 2 2 61 161 145 137
334 4 2 2 2 156 125 116 133
335 4 2 2 2 162 155 126 146
336 4 2 2 2 162 130 117 160
337 4 2 2 2 161 148 163 131
338 4 2 2 2 122 32 112 110
339 4 2 2 2 121 31 109 112
340 4 2 2 2 116 163 156 133
341 4 2 2 2 115 132 126 162
342 4 2 2 2 173 174 156 125
343 4 2 2 2 178 126 177 155
344 4 2 2 2 164 177 155 78
345 4 2 2 2 76 156 165 173
346 4 2 2 2 164 59 126 177
347 4 2 2 2 57 173 165 125
348 4 2 2 2 156 21 145 174
349 4 2 2 2 155 22 178 146
350 4 2 2 2 125 15 174 116
351 4 2 2 2 16 115 126 178
352 4 2 2 2 133 163 148 131
353 4 2 2 2 130 162 117 132
354 4 2 2 2 42 142 152 109
355 4 2 2 2 151 110 142 41
356 4 2 2 2 156 165 173 125
357 4 2 2 2 177 126 164 155
358 4 2 2 2 50 132 117 171
359 4 2 2 2 162 171 74 147
360 4 2 2 2 67 163 148 168
361 4 2 2 2 133 168 43 118
362 4 2 2 2 147 162 117 160
363 4 2 2 2 118 133 148 131
364 4 2 2 2 173 165 11 57
365 4 2 2 2 165 19 76 173
366 4 2 2 2 177 164 20 78
367 4 2 2 2 12 59 164 177
368 4 2 2 2 71 170 70 157
369 4 2 2 2 46 47 127 170
370 4 2 2 2 68 67 148 168
371 4 2 2 2 168 44 43 118
372 4 2 2 2 171 73 74 147
373 4 2 2 2 49 50 117 171
374 4 2 2 2 150 69 68 167
375 4 2 2 2 172 149 72 73
376 4 2 2 2 167 44 120 45
377 4 2 2 2 172 48 119 49
378 4 2 2 2 112 32 31 111
379 4 2 2 2 74 20 164 155
380 4 2 2 2 12 126 50 164
381 4 2 2 2 19 156 67 165
382 4 2 2 2 43 11 165 125
383 4 2 2 2 17 13 134 175
384 4 2 2 2 139 14 18 179
385 4 2 2 2 165 11 19 173
386 4 2 2 2 164 20 12 177
387 4 2 2 2 134 58 116 175
388 4 2 2 2 145 75 134 175
389 4 2 2 2 139 77 146 179
390 4 2 2 2 115 60 139 179
391 4 2 2 2 154 71 169 72
392 4 2 2 2 69 153 70 166
393 4 2 2 2 166 123 46 45
394 4 2 2 2 124 47 48 169
395 4 2 2 2 180 146 77 179
396 4 2 2 2 75 145 176 175
397 4 2 2 2 176 116 58 175
398 4 2 2 2 60 115 180 179
399 4 2 2 2 76 156 19 165
400 4 2 2 2 57 165 11 125
401 4 2 2 2 155 20 164 78
402 4 2 2 2 12 59 126 164
403 4 2 2 2 142 42 41 111
404 4 2 2 2 58 51 134 116
405 4 2 2 2 61 75 134 145
406 4 2 2 2 77 66 139 146
407 4 2 2 2 56 60 139 115
408 4 2 2 2 31 109 2 121
409 4 2 2 2 32 122 4 110
410 4 2 2 2 7 110 151 41
411 4 2 2 2 9 42 152 109
412 4 2 2 2 155 177 178 78
413 4 2 2 2 156 76 174 173
414 4 2 2 2 178 126 59 177
415 4 2 2 2 57 174 173 125
416 4 2 2 2 51 58 134 13
417 4 2 2 2 61 75 17 134
418 4 2 2 2 66 77 139 18
419 4 2 2 2 56 60 14 139
420 4 2 2 2 128 55 54 140
421 4 2 2 2 64 65 158 140
422 4 2 2 2 129 52 136 53
423 4 2 2 2 159 62 63 136
424 4 2 2 2 64 143 7 138
425 4 2 2 2 144 9 135 63
426 4 2 2 2 113 54 4 138
427 4 2 2 2 53 2 135 114
428 4 2 2 2 134 75 17 175
429 4 2 2 2 13 58 134 175
430 4 2 2 2 18 77 139 179
431 4 2 2 2 139 60 14 179
432 4 2 2 2 141 56 130 55
433 4 2 2 2 141 65 160 66
434 4 2 2 2 62 161 61 137
435 4 2 2 2 51 131 52 137
436 4 2 2 2 22 180 146 77
437 4 2 2 2 21 75 145 176
438 4 2 2 2 115 16 60 180
439 4 2 2 2 15 176 116 58
440 4 2 2 2 126 59 16 178
441 4 2 2 2 155 178 22 78
442 4 2 2 2 76 21 156 174
443 4 2 2 2 15 174 57 125
444 4 2 2 2 112 152 109 121
445 4 2 2 2 112 109 152 142
446 4 2 2 2 151 112 110 122
447 4 2 2 2 151 110 112 142
$EndElements
