$MeshFormat
2.2 0 8
$EndMeshFormat
$PhysicalNames
2
3 1 "teflon_OPEM_RESERVED_1"
3 2 "air_OPEM_RESERVED_2"
$EndPhysicalNames
$Nodes
157
1 0 0 0
2 0 0 0.1
3 0.02 0 0
4 0.02 0 0.1
5 0.01 0 0
6 0.01 0 0.1
7 0.02 0.0045 0
8 0.02 0.0045 0.1
9 0 0.0045 0
10 0 0.0045 0.1
11 0.01 0.0045 0
12 0.01 0.0045 0.1
13 0.02 0.008999999999999999 0
14 0.02 0.008999999999999999 0.1
15 0 0.008999999999999999 0
16 0 0.008999999999999999 0.1
17 0.01 0.008999999999999999 0
18 0.01 0.008999999999999999 0.1
19 0 0 0.009999999999999992
20 0 0 0.01999999999999997
21 0 0 0.02999999999999996
22 0 0 0.03999999999999995
23 0 0 0.04999999999999995
24 0 0 0.05999999999999996
25 0 0 0.06999999999999998
26 0 0 0.07999999999999997
27 0 0 0.09
28 0.02 0 0.009999999999999992
29 0.02 0 0.01999999999999997
30 0.02 0 0.02999999999999996
31 0.02 0 0.03999999999999995
32 0.02 0 0.04999999999999995
33 0.02 0 0.05999999999999996
34 0.02 0 0.06999999999999998
35 0.02 0 0.07999999999999997
36 0.02 0 0.09
37 0.02 0.0045 0.009999999999999992
38 0.02 0.0045 0.01999999999999997
39 0.02 0.0045 0.02999999999999996
40 0.02 0.0045 0.03999999999999995
41 0.02 0.0045 0.04999999999999995
42 0.02 0.0045 0.05999999999999996
43 0.02 0.0045 0.06999999999999998
44 0.02 0.0045 0.07999999999999997
45 0.02 0.0045 0.09
46 0 0.0045 0.009999999999999992
47 0 0.0045 0.01999999999999997
48 0 0.0045 0.02999999999999996
49 0 0.0045 0.03999999999999995
50 0 0.0045 0.04999999999999995
51 0 0.0045 0.05999999999999996
52 0 0.0045 0.06999999999999998
53 0 0.0045 0.07999999999999997
54 0 0.0045 0.09
55 0.02 0.008999999999999999 0.009999999999999992
56 0.02 0.008999999999999999 0.01999999999999997
57 0.02 0.008999999999999999 0.02999999999999996
58 0.02 0.008999999999999999 0.03999999999999995
59 0.02 0.008999999999999999 0.04999999999999995
60 0.02 0.008999999999999999 0.05999999999999996
61 0.02 0.008999999999999999 0.06999999999999998
62 0.02 0.008999999999999999 0.07999999999999997
63 0.02 0.008999999999999999 0.09
64 0 0.008999999999999999 0.009999999999999992
65 0 0.008999999999999999 0.01999999999999997
66 0 0.008999999999999999 0.02999999999999996
67 0 0.008999999999999999 0.03999999999999995
68 0 0.008999999999999999 0.04999999999999995
69 0 0.008999999999999999 0.05999999999999996
70 0 0.008999999999999999 0.06999999999999998
71 0 0.008999999999999999 0.07999999999999997
72 0 0.008999999999999999 0.09
73 0.009550188819175923 0 0.02498761177815052
74 0.01035274471909375 0 0.04498265648941073
75 0.009544726517863894 0 0.07499999999999997
76 0.01102317462994015 0 0.08500000000000001
77 0.01133974596215563 0 0.01499999999999998
78 0.009487717171703491 0 0.05499852521168455
79 0.01026759928556439 0 0.06499982442996241
80 0.009983822256378278 0 0.03499504471126018
81 0.007336822831633151 0 0.006574516661590242
82 0.007267892233693909 0 0.09344040574809809
83 0.01405457692304927 0 0.09406981558472929
84 0.01422017935193147 0 0.005798121337236099
85 0.02 0.00225 0.095
86 0.02 0.002249999999999999 0.08499999999999998
87 0.02 0.00225 0.004999999999999996
88 0.02 0.00225 0.06499999999999997
89 0.02 0.00225 0.02499999999999997
90 0.02 0.00225 0.04499999999999995
91 0.02 0.002249999999999999 0.05499999999999996
92 0.02 0.002249999999999999 0.01499999999999998
93 0.02 0.00225 0.07499999999999998
94 0.02 0.00225 0.03499999999999995
95 0.01044981118082408 0.0045 0.02498761177815052
96 0.009647255280906247 0.0045 0.04498265648941073
97 0.01045527348213611 0.0045 0.07499999999999997
98 0.008976825370059852 0.0045 0.08500000000000001
99 0.008660254037844369 0.0045 0.01499999999999998
100 0.01051228282829651 0.0045 0.05499852521168455
101 0.009732400714435614 0.0045 0.06499982442996241
102 0.01001617774362172 0.0045 0.03499504471126018
103 0.01266317716836685 0.0045 0.006574516661590242
104 0.01273210776630609 0.0045 0.09344040574809809
105 0.005945423076950734 0.0045 0.09406981558472929
106 0.005779820648068534 0.0045 0.005798121337236099
107 0 0.002249999999999999 0.08499999999999999
108 0 0.002249999999999999 0.02499999999999997
109 0 0.002249999999999999 0.004999999999999996
110 0 0.00225 0.04499999999999995
111 0 0.00225 0.05499999999999995
112 0 0.00225 0.01499999999999998
113 0 0.00225 0.06499999999999997
114 0 0.00225 0.095
115 0 0.002249999999999999 0.07499999999999997
116 0 0.00225 0.03499999999999995
117 0.005000000000000001 0.00225 0
118 0.015 0.00225 0
119 0.005000000000000001 0.00225 0.1
120 0.015 0.00225 0.1
121 0.02 0.006749999999999999 0.09500000000000001
122 0.02 0.006749999999999999 0.08499999999999998
123 0.02 0.00675 0.004999999999999996
124 0.02 0.006749999999999999 0.06499999999999997
125 0.02 0.006749999999999999 0.02499999999999997
126 0.02 0.00675 0.04499999999999995
127 0.02 0.006749999999999999 0.05499999999999996
128 0.02 0.006749999999999999 0.01499999999999998
129 0.02 0.006749999999999999 0.07499999999999998
130 0.02 0.006749999999999999 0.03499999999999995
131 0.01044981118082408 0.008999999999999999 0.02498761177815052
132 0.009647255280906247 0.008999999999999999 0.04498265648941073
133 0.01045527348213611 0.008999999999999999 0.07499999999999997
134 0.008976825370059852 0.008999999999999999 0.08500000000000001
135 0.008660254037844369 0.008999999999999999 0.01499999999999998
136 0.01051228282829651 0.008999999999999999 0.05499852521168455
137 0.009732400714435614 0.008999999999999999 0.06499982442996241
138 0.01001617774362172 0.008999999999999999 0.03499504471126018
139 0.01266317716836685 0.008999999999999999 0.006574516661590242
140 0.01273210776630609 0.008999999999999999 0.09344040574809809
141 0.005945423076950734 0.008999999999999999 0.09406981558472929
142 0.005779820648068534 0.008999999999999999 0.005798121337236099
143 0 0.006749999999999999 0.08499999999999999
144 0 0.006749999999999999 0.004999999999999996
145 0 0.00675 0.06499999999999997
146 0 0.006749999999999999 0.02499999999999997
147 0 0.006749999999999999 0.04499999999999995
148 0 0.00675 0.05499999999999996
149 0 0.006749999999999999 0.095
150 0 0.006750000000000001 0.01499999999999998
151 0 0.006749999999999999 0.07499999999999998
152 0 0.006749999999999999 0.03499999999999995
153 0.015 0.006749999999999999 0
154 0.005000000000000001 0.006749999999999999 0
155 0.015 0.006749999999999999 0.1
156 0.005000000000000001 0.006749999999999999 0.1
157 0.009548739441498599 0.006771944892461908 0.09573018136233037
$EndNodes
$Elements
431
1 4 2 1 1 2 6 82 119
2 4 2 1 1 8 12 104 120
3 4 2 1 1 81 5 1 117
4 4 2 1 1 11 7 103 118
5 4 2 1 1 42 43 101 88
6 4 2 1 1 25 24 113 79
7 4 2 1 1 21 22 80 116
8 4 2 1 1 39 40 102 94
9 4 2 1 1 23 22 110 74
10 4 2 1 1 41 40 90 96
11 4 2 1 1 94 80 30 31
12 4 2 1 1 49 48 102 116
13 4 2 1 1 48 47 95 108
14 4 2 1 1 30 73 89 29
15 4 2 1 1 34 93 75 35
16 4 2 1 1 53 52 97 115
17 4 2 1 1 78 91 33 32
18 4 2 1 1 51 50 100 111
19 4 2 1 1 120 4 6 83
20 4 2 1 1 12 10 105 119
21 4 2 1 1 9 11 106 117
22 4 2 1 1 118 5 3 84
23 4 2 1 1 46 9 106 109
24 4 2 1 1 84 3 87 28
25 4 2 1 1 107 27 26 76
26 4 2 1 1 45 44 86 98
27 4 2 1 1 36 83 4 85
28 4 2 1 1 10 54 105 114
29 4 2 1 1 50 49 96 110
30 4 2 1 1 74 90 32 31
31 4 2 1 1 92 99 38 37
32 4 2 1 1 20 19 112 77
33 4 2 1 1 33 88 79 34
34 4 2 1 1 52 51 101 113
35 4 2 1 1 42 41 91 100
36 4 2 1 1 111 24 23 78
37 4 2 1 1 85 104 8 45
38 4 2 1 1 27 114 2 82
39 4 2 1 1 36 35 76 86
40 4 2 1 1 54 53 98 107
41 4 2 1 1 37 7 87 103
42 4 2 1 1 1 19 81 109
43 4 2 1 1 43 44 97 93
44 4 2 1 1 26 25 115 75
45 4 2 1 1 39 38 89 95
46 4 2 1 1 20 21 73 108
47 4 2 1 1 29 77 92 28
48 4 2 1 1 47 46 99 112
49 4 2 1 1 117 1 81 109
50 4 2 1 1 7 87 103 118
51 4 2 1 1 82 114 2 119
52 4 2 1 1 104 85 8 120
53 4 2 1 1 94 102 80 31
54 4 2 1 1 116 49 80 102
55 4 2 1 1 49 80 22 116
56 4 2 1 1 102 94 40 31
57 4 2 1 1 116 80 21 48
58 4 2 1 1 102 39 94 30
59 4 2 1 1 94 80 102 30
60 4 2 1 1 48 116 80 102
61 4 2 1 1 113 101 25 79
62 4 2 1 1 88 101 79 43
63 4 2 1 1 88 79 101 42
64 4 2 1 1 113 24 101 79
65 4 2 1 1 43 79 88 34
66 4 2 1 1 52 101 25 113
67 4 2 1 1 74 40 90 31
68 4 2 1 1 110 22 49 96
69 4 2 1 1 110 96 23 74
70 4 2 1 1 90 41 96 74
71 4 2 1 1 79 88 33 42
72 4 2 1 1 24 101 51 113
73 4 2 1 1 40 90 96 74
74 4 2 1 1 96 110 22 74
75 4 2 1 1 73 108 48 95
76 4 2 1 1 73 89 95 30
77 4 2 1 1 75 115 53 97
78 4 2 1 1 35 93 75 97
79 4 2 1 1 34 75 93 97
80 4 2 1 1 75 52 115 97
81 4 2 1 1 108 73 47 95
82 4 2 1 1 95 89 73 29
83 4 2 1 1 108 21 73 48
84 4 2 1 1 95 89 39 30
85 4 2 1 1 90 32 41 74
86 4 2 1 1 110 96 50 23
87 4 2 1 1 92 99 77 38
88 4 2 1 1 99 112 19 77
89 4 2 1 1 92 99 37 77
90 4 2 1 1 99 20 112 77
91 4 2 1 1 33 91 78 100
92 4 2 1 1 78 111 51 100
93 4 2 1 1 32 78 91 100
94 4 2 1 1 50 111 78 100
95 4 2 1 1 115 25 52 75
96 4 2 1 1 93 43 34 97
97 4 2 1 1 96 80 49 102
98 4 2 1 1 74 80 102 31
99 4 2 1 1 33 91 100 42
100 4 2 1 1 51 24 111 78
101 4 2 1 1 86 76 98 44
102 4 2 1 1 98 107 26 76
103 4 2 1 1 27 107 98 76
104 4 2 1 1 86 98 76 45
105 4 2 1 1 111 23 50 78
106 4 2 1 1 32 91 41 100
107 4 2 1 1 22 80 49 96
108 4 2 1 1 102 40 74 31
109 4 2 1 1 95 39 102 30
110 4 2 1 1 80 73 21 48
111 4 2 1 1 102 80 95 30
112 4 2 1 1 93 35 44 97
113 4 2 1 1 53 26 115 75
114 4 2 1 1 22 80 96 74
115 4 2 1 1 96 102 40 74
116 4 2 1 1 38 89 95 29
117 4 2 1 1 108 73 20 47
118 4 2 1 1 95 80 73 30
119 4 2 1 1 81 117 109 106
120 4 2 1 1 103 118 87 84
121 4 2 1 1 25 101 52 75
122 4 2 1 1 34 43 79 97
123 4 2 1 1 25 101 75 79
124 4 2 1 1 101 79 43 97
125 4 2 1 1 104 120 83 85
126 4 2 1 1 119 82 114 105
127 4 2 1 1 24 51 101 78
128 4 2 1 1 79 33 100 42
129 4 2 1 1 27 107 54 98
130 4 2 1 1 76 36 86 45
131 4 2 1 1 78 101 24 79
132 4 2 1 1 100 101 79 42
133 4 2 1 1 96 50 23 78
134 4 2 1 1 41 32 100 74
135 4 2 1 1 34 79 75 97
136 4 2 1 1 101 52 75 97
137 4 2 1 1 78 23 96 74
138 4 2 1 1 100 96 41 74
139 4 2 1 1 78 79 33 100
140 4 2 1 1 78 51 101 100
141 4 2 1 1 100 32 78 74
142 4 2 1 1 96 50 78 100
143 4 2 1 1 119 114 10 105
144 4 2 1 1 83 120 4 85
145 4 2 1 1 46 112 19 99
146 4 2 1 1 77 37 92 28
147 4 2 1 1 53 107 26 98
148 4 2 1 1 86 35 76 44
149 4 2 1 1 98 75 53 97
150 4 2 1 1 35 75 76 97
151 4 2 1 1 44 35 76 97
152 4 2 1 1 53 26 75 98
153 4 2 1 1 44 76 98 97
154 4 2 1 1 98 26 75 76
155 4 2 1 1 99 47 73 95
156 4 2 1 1 77 95 73 29
157 4 2 1 1 3 87 118 84
158 4 2 1 1 109 117 9 106
159 4 2 1 1 77 84 103 28
160 4 2 1 1 99 38 95 77
161 4 2 1 1 73 20 99 77
162 4 2 1 1 47 73 20 99
163 4 2 1 1 38 95 77 29
164 4 2 1 1 99 19 81 77
165 4 2 1 1 37 99 103 77
166 4 2 1 1 20 112 47 99
167 4 2 1 1 77 92 38 29
168 4 2 1 1 98 82 27 76
169 4 2 1 1 98 104 76 45
170 4 2 1 1 103 37 77 28
171 4 2 1 1 98 105 82 104
172 4 2 1 1 83 82 104 76
173 4 2 1 1 84 103 81 77
174 4 2 1 1 81 106 99 103
175 4 2 1 1 120 12 104 83
176 4 2 1 1 11 118 103 84
177 4 2 1 1 6 12 120 83
178 4 2 1 1 102 96 80 74
179 4 2 1 1 118 11 5 84
180 4 2 1 1 79 101 75 97
181 4 2 1 1 82 98 104 76
182 4 2 1 1 79 78 101 100
183 4 2 1 1 100 78 96 74
184 4 2 1 1 103 99 81 77
185 4 2 1 1 83 104 85 45
186 4 2 1 1 82 27 114 105
187 4 2 1 1 75 98 76 97
188 4 2 1 1 8 4 120 85
189 4 2 1 1 117 9 1 109
190 4 2 1 1 7 3 87 118
191 4 2 1 1 10 2 114 119
192 4 2 1 1 109 19 81 106
193 4 2 1 1 95 73 99 77
194 4 2 1 1 85 36 83 45
195 4 2 1 1 54 114 27 105
196 4 2 1 1 19 109 46 106
197 4 2 1 1 105 27 98 82
198 4 2 1 1 105 98 27 54
199 4 2 1 1 83 45 76 104
200 4 2 1 1 76 45 83 36
201 4 2 1 1 106 19 99 46
202 4 2 1 1 106 99 19 81
203 4 2 1 1 103 28 87 37
204 4 2 1 1 87 28 103 84
205 4 2 1 1 80 95 48 102
206 4 2 1 1 48 95 80 73
207 4 2 1 1 83 12 82 6
208 4 2 1 1 83 82 12 104
209 4 2 1 1 105 12 82 104
210 4 2 1 1 84 11 81 103
211 4 2 1 1 84 81 11 5
212 4 2 1 1 106 81 11 103
213 4 2 1 1 12 82 119 105
214 4 2 1 1 12 119 82 6
215 4 2 1 1 81 11 117 106
216 4 2 1 1 81 117 11 5
217 4 2 2 2 155 18 14 140
218 4 2 2 2 12 8 104 155
219 4 2 2 2 7 11 103 153
220 4 2 2 2 139 17 13 153
221 4 2 2 2 137 60 61 124
222 4 2 2 2 43 42 101 124
223 4 2 2 2 58 130 138 57
224 4 2 2 2 40 39 102 130
225 4 2 2 2 59 126 132 58
226 4 2 2 2 41 40 96 126
227 4 2 2 2 49 48 152 102
228 4 2 2 2 66 67 152 138
229 4 2 2 2 65 66 146 131
230 4 2 2 2 48 47 146 95
231 4 2 2 2 52 53 97 151
232 4 2 2 2 71 151 70 133
233 4 2 2 2 68 69 148 136
234 4 2 2 2 50 51 100 148
235 4 2 2 2 12 10 156 105
236 4 2 2 2 18 16 141 156
237 4 2 2 2 11 9 106 154
238 4 2 2 2 154 17 15 142
239 4 2 2 2 46 9 144 106
240 4 2 2 2 142 15 144 64
241 4 2 2 2 62 134 122 63
242 4 2 2 2 45 44 98 122
243 4 2 2 2 10 54 149 105
244 4 2 2 2 16 72 141 149
245 4 2 2 2 50 49 147 96
246 4 2 2 2 147 132 67 68
247 4 2 2 2 38 37 99 128
248 4 2 2 2 55 56 135 128
249 4 2 2 2 69 145 137 70
250 4 2 2 2 51 52 101 145
251 4 2 2 2 42 41 100 127
252 4 2 2 2 127 136 60 59
253 4 2 2 2 8 45 104 121
254 4 2 2 2 14 121 140 63
255 4 2 2 2 53 54 98 143
256 4 2 2 2 134 72 71 143
257 4 2 2 2 13 55 139 123
258 4 2 2 2 37 7 103 123
259 4 2 2 2 133 61 62 129
260 4 2 2 2 44 43 97 129
261 4 2 2 2 39 38 95 125
262 4 2 2 2 125 131 57 56
263 4 2 2 2 150 135 64 65
264 4 2 2 2 46 47 99 150
265 4 2 2 2 153 13 139 123
266 4 2 2 2 7 103 123 153
267 4 2 2 2 104 8 121 155
268 4 2 2 2 14 121 155 140
269 4 2 2 2 141 12 105 157
270 4 2 2 2 18 12 141 157
271 4 2 2 2 104 18 140 157
272 4 2 2 2 141 105 140 157
273 4 2 2 2 152 67 49 102
274 4 2 2 2 102 152 67 138
275 4 2 2 2 126 132 96 59
276 4 2 2 2 96 41 126 59
277 4 2 2 2 146 66 48 131
278 4 2 2 2 48 146 131 95
279 4 2 2 2 61 101 137 124
280 4 2 2 2 61 43 101 124
281 4 2 2 2 137 60 124 42
282 4 2 2 2 124 101 137 42
283 4 2 2 2 99 135 56 128
284 4 2 2 2 128 56 99 38
285 4 2 2 2 133 71 151 97
286 4 2 2 2 53 151 71 97
287 4 2 2 2 70 151 52 97
288 4 2 2 2 151 70 133 97
289 4 2 2 2 51 148 69 136
290 4 2 2 2 51 148 136 100
291 4 2 2 2 122 44 134 62
292 4 2 2 2 44 134 98 122
293 4 2 2 2 68 148 50 100
294 4 2 2 2 18 104 12 157
295 4 2 2 2 148 68 136 100
296 4 2 2 2 146 47 65 95
297 4 2 2 2 126 96 58 40
298 4 2 2 2 131 146 65 95
299 4 2 2 2 130 138 57 39
300 4 2 2 2 126 96 132 58
301 4 2 2 2 138 130 102 39
302 4 2 2 2 105 104 140 157
303 4 2 2 2 138 102 130 58
304 4 2 2 2 102 48 152 138
305 4 2 2 2 58 102 130 40
306 4 2 2 2 48 66 152 138
307 4 2 2 2 132 67 49 147
308 4 2 2 2 57 131 125 39
309 4 2 2 2 145 101 137 70
310 4 2 2 2 96 132 49 147
311 4 2 2 2 101 51 145 137
312 4 2 2 2 101 145 52 70
313 4 2 2 2 137 51 145 69
314 4 2 2 2 143 134 72 54
315 4 2 2 2 131 48 102 138
316 4 2 2 2 132 102 138 58
317 4 2 2 2 39 131 125 95
318 4 2 2 2 147 96 132 68
319 4 2 2 2 43 61 97 129
320 4 2 2 2 96 147 50 68
321 4 2 2 2 58 96 102 40
322 4 2 2 2 102 132 96 58
323 4 2 2 2 131 102 48 95
324 4 2 2 2 66 48 131 138
325 4 2 2 2 61 133 97 129
326 4 2 2 2 127 60 136 42
327 4 2 2 2 102 67 132 138
328 4 2 2 2 132 49 67 102
329 4 2 2 2 41 136 127 59
330 4 2 2 2 99 46 150 64
331 4 2 2 2 57 138 131 39
332 4 2 2 2 102 131 138 39
333 4 2 2 2 136 100 127 42
334 4 2 2 2 101 137 70 97
335 4 2 2 2 101 136 51 137
336 4 2 2 2 100 41 136 127
337 4 2 2 2 49 132 96 102
338 4 2 2 2 52 101 70 97
339 4 2 2 2 133 70 137 97
340 4 2 2 2 136 101 51 100
341 4 2 2 2 69 137 51 136
342 4 2 2 2 68 96 132 136
343 4 2 2 2 137 101 61 97
344 4 2 2 2 101 43 61 97
345 4 2 2 2 102 131 39 95
346 4 2 2 2 50 96 68 100
347 4 2 2 2 136 68 96 100
348 4 2 2 2 136 60 137 42
349 4 2 2 2 136 137 101 42
350 4 2 2 2 44 133 129 97
351 4 2 2 2 133 137 61 97
352 4 2 2 2 136 41 96 59
353 4 2 2 2 136 96 132 59
354 4 2 2 2 100 136 101 42
355 4 2 2 2 133 44 98 97
356 4 2 2 2 41 136 96 100
357 4 2 2 2 131 99 56 95
358 4 2 2 2 125 131 56 95
359 4 2 2 2 139 153 123 103
360 4 2 2 2 155 121 104 140
361 4 2 2 2 141 140 18 157
362 4 2 2 2 133 44 129 62
363 4 2 2 2 62 44 134 133
364 4 2 2 2 44 98 134 133
365 4 2 2 2 54 143 134 98
366 4 2 2 2 38 56 99 95
367 4 2 2 2 99 131 56 135
368 4 2 2 2 105 12 104 157
369 4 2 2 2 98 53 71 97
370 4 2 2 2 133 98 71 97
371 4 2 2 2 38 125 56 95
372 4 2 2 2 54 134 141 105
373 4 2 2 2 98 133 71 134
374 4 2 2 2 47 99 65 95
375 4 2 2 2 131 65 99 95
376 4 2 2 2 53 71 143 98
377 4 2 2 2 99 106 46 142
378 4 2 2 2 16 141 156 149
379 4 2 2 2 149 156 10 105
380 4 2 2 2 134 141 72 54
381 4 2 2 2 135 99 150 64
382 4 2 2 2 99 135 65 131
383 4 2 2 2 71 134 143 98
384 4 2 2 2 142 46 99 64
385 4 2 2 2 105 134 141 140
386 4 2 2 2 150 47 99 65
387 4 2 2 2 139 106 99 142
388 4 2 2 2 9 144 106 154
389 4 2 2 2 15 144 154 142
390 4 2 2 2 104 98 105 140
391 4 2 2 2 106 139 99 103
392 4 2 2 2 135 150 99 65
393 4 2 2 2 54 134 105 98
394 4 2 2 2 141 156 149 105
395 4 2 2 2 99 135 142 64
396 4 2 2 2 144 106 154 142
397 4 2 2 2 134 105 98 140
398 4 2 2 2 142 99 139 135
399 4 2 2 2 140 45 121 104
400 4 2 2 2 123 55 139 103
401 4 2 2 2 156 141 12 105
402 4 2 2 2 154 106 17 142
403 4 2 2 2 141 149 54 105
404 4 2 2 2 144 46 106 142
405 4 2 2 2 104 18 155 140
406 4 2 2 2 153 139 11 103
407 4 2 2 2 12 18 141 156
408 4 2 2 2 104 18 12 155
409 4 2 2 2 17 11 106 154
410 4 2 2 2 139 11 17 153
411 4 2 2 2 144 46 142 64
412 4 2 2 2 149 72 141 54
413 4 2 2 2 142 106 17 139
414 4 2 2 2 139 106 11 103
415 4 2 2 2 106 11 17 139
416 4 2 2 2 45 140 121 63
417 4 2 2 2 144 9 15 154
418 4 2 2 2 156 10 16 149
419 4 2 2 2 153 7 13 123
420 4 2 2 2 8 14 121 155
421 4 2 2 2 55 123 37 103
422 4 2 2 2 98 45 140 104
423 4 2 2 2 135 55 99 139
424 4 2 2 2 135 99 55 128
425 4 2 2 2 103 99 55 139
426 4 2 2 2 63 134 45 140
427 4 2 2 2 63 45 134 122
428 4 2 2 2 98 45 134 140
429 4 2 2 2 98 134 45 122
430 4 2 2 2 99 37 55 128
431 4 2 2 2 99 55 37 103
$EndElements
