$MeshFormat
2.2 0 8
$EndMeshFormat
$PhysicalNames
1
3 1 "air_OPEM_RESERVED_1"
$EndPhysicalNames
$Nodes
40
1 0 0 0
2 0 0 0.05
3 0.02286 0 0
4 0.02286 0 0.05
5 0.02286 0.01043 0
6 0.02286 0.01043 0.05
7 0 0.01043 0
8 0 0.01043 0.05
9 0 0 0.01666666666666666
10 0 0 0.03333333333333325
11 0.02286 0 0.01666666666666666
12 0.02286 0 0.03333333333333325
13 0.01143000000000002 0 0
14 0.01143000000000002 0 0.05
15 0.02286 0.01043 0.01666666666666666
16 0.02286 0.01043 0.03333333333333325
17 0 0.01043 0.01666666666666666
18 0 0.01043 0.03333333333333325
19 0.01142999999999998 0.01043 0
20 0.01142999999999998 0.01043 0.05
21 0.01143 0 0.02499999999999996
22 0.01631190962099126 0 0.04105928085519919
23 0.006266692504216544 0 0.04120119815642086
24 0.006548090379008754 0 0.00894071914480077
25 0.01659330749578346 0 0.008798801843579097
26 0.02286 0.005215000000000002 0.04166666666666663
27 0.02286 0.005214999999999999 0.008333333333333328
28 0.02286 0.005215 0.02499999999999995
29 0.01143 0.01043 0.02499999999999996
30 0.01631190962099124 0.01043 0.04105928085519919
31 0.006266692504216527 0.01043 0.04120119815642087
32 0.01631190962099124 0.01043 0.00894071914480077
33 0.006266692504216534 0.01043 0.008798801843579097
34 0 0.005214999999999998 0.04166666666666663
35 0 0.005215000000000001 0.008333333333333328
36 0 0.005215 0.02499999999999995
37 0.005714999999999999 0.005215000000000001 0
38 0.017145 0.005215 0
39 0.005714999999999999 0.005215000000000001 0.05
40 0.017145 0.005215 0.05
$EndNodes
$Elements
84
1 4 2 1 1 39 23 20 14
2 4 2 1 1 20 40 14 22
3 4 2 1 1 38 32 19 13
4 4 2 1 1 24 37 19 13
5 4 2 1 1 10 9 36 21
6 4 2 1 1 12 21 28 11
7 4 2 1 1 29 16 28 15
8 4 2 1 1 18 36 17 29
9 4 2 1 1 31 8 18 34
10 4 2 1 1 34 2 10 23
11 4 2 1 1 35 33 7 17
12 4 2 1 1 11 25 27 3
13 4 2 1 1 26 30 6 16
14 4 2 1 1 4 12 22 26
15 4 2 1 1 1 9 24 35
16 4 2 1 1 32 5 15 27
17 4 2 1 1 21 23 22 30
18 4 2 1 1 23 21 31 30
19 4 2 1 1 30 21 31 29
20 4 2 1 1 29 21 24 32
21 4 2 1 1 32 21 24 25
22 4 2 1 1 24 33 29 32
23 4 2 1 1 28 29 15 11
24 4 2 1 1 36 9 17 29
25 4 2 1 1 10 36 18 21
26 4 2 1 1 16 21 28 12
27 4 2 1 1 29 28 21 11
28 4 2 1 1 9 36 21 29
29 4 2 1 1 36 18 21 29
30 4 2 1 1 21 16 28 29
31 4 2 1 1 21 18 10 23
32 4 2 1 1 32 15 29 11
33 4 2 1 1 9 24 17 29
34 4 2 1 1 30 12 21 16
35 4 2 1 1 31 18 21 23
36 4 2 1 1 18 31 21 29
37 4 2 1 1 21 22 12 30
38 4 2 1 1 29 21 32 11
39 4 2 1 1 21 30 16 29
40 4 2 1 1 24 9 21 29
41 4 2 1 1 25 32 21 11
42 4 2 1 1 24 33 17 29
43 4 2 1 1 23 20 31 39
44 4 2 1 1 20 40 22 30
45 4 2 1 1 13 38 32 25
46 4 2 1 1 24 37 33 19
47 4 2 1 1 14 23 20 22
48 4 2 1 1 24 19 32 13
49 4 2 1 1 22 23 20 30
50 4 2 1 1 10 18 34 23
51 4 2 1 1 23 31 20 30
52 4 2 1 1 9 24 35 17
53 4 2 1 1 15 32 27 11
54 4 2 1 1 30 26 12 16
55 4 2 1 1 26 12 22 30
56 4 2 1 1 19 33 24 32
57 4 2 1 1 13 32 24 25
58 4 2 1 1 18 31 34 23
59 4 2 1 1 33 35 24 17
60 4 2 1 1 25 27 32 11
61 4 2 1 1 32 19 5 38
62 4 2 1 1 37 24 1 13
63 4 2 1 1 30 20 40 6
64 4 2 1 1 40 14 22 4
65 4 2 1 1 2 23 39 14
66 4 2 1 1 7 33 37 19
67 4 2 1 1 25 13 38 3
68 4 2 1 1 31 20 8 39
69 4 2 1 1 26 22 40 30
70 4 2 1 1 24 37 35 33
71 4 2 1 1 38 27 32 25
72 4 2 1 1 37 1 24 35
73 4 2 1 1 27 32 5 38
74 4 2 1 1 40 26 30 6
75 4 2 1 1 22 40 4 26
76 4 2 1 1 31 34 23 39
77 4 2 1 1 37 35 33 7
78 4 2 1 1 25 38 27 3
79 4 2 1 1 34 2 23 39
80 4 2 1 1 34 31 8 39
81 4 2 1 1 35 37 1 7
82 4 2 1 1 38 5 27 3
83 4 2 1 1 2 34 8 39
84 4 2 1 1 26 40 4 6
$EndElements
