$MeshFormat
2.2 0 8
$EndMeshFormat
$PhysicalNames
5
3 1 "GaAs_OPEM_RESERVED_1"
3 2 "GaAs_OPEM_RESERVED_2"
3 3 "air_OPEM_RESERVED_3"
3 4 "air_OPEM_RESERVED_4"
3 5 "bridge_OPEM_RESERVED_5"
$EndPhysicalNames
$Nodes
562
1 0 0 0
2 0.00025 0 0
3 0.00025 0 8.126585845387e-05
4 0.000184530925520087 0 8.126585845387e-05
5 0.000184530925520087 0 0.0001
6 0 0 0.0001
7 0.0005 0 0
8 0.0005 0 0.0001
9 0.000320465202485817 0 0.0001
10 0.000320465202485817 0 8.126585845387e-05
11 0.00025 0 0.0001
12 0.0002 0 0.0001
13 0.0003 0 0.0001
14 0.0005 0.001 0
15 0.0005 0.001 0.0001
16 0 0.001 0
17 0 0.001 0.0001
18 0.0003 0.001 0.0001
19 0.0002 0.001 0.0001
20 0.0001250000000000002 0 0
21 9.226546276004366e-05 0 0.0001
22 0.0003750000000000002 0 0
23 0.0004102326012429086 0 0.0001
24 0.0005 0.0001428571428571429 0
25 0.0005 0.0002857142857142858 0
26 0.0005 0.0004285714285714292 0
27 0.0005 0.0005714285714285727 0
28 0.0005 0.0007142857142857154 0
29 0.0005 0.0008571428571428576 0
30 0.0005 0.0001428571428571429 0.0001
31 0.0005 0.0002857142857142858 0.0001
32 0.0005 0.0004285714285714292 0.0001
33 0.0005 0.0005714285714285727 0.0001
34 0.0005 0.0007142857142857154 0.0001
35 0.0005 0.0008571428571428576 0.0001
36 0.0003749999999999999 0.001 0
37 0.0002499999999999996 0.001 0
38 0.0001249999999999995 0.001 0
39 0.0004 0.001 0.0001
40 0.0001 0.001 0.0001
41 0 0.0008571428571428571 0
42 0 0.0007142857142857142 0
43 0 0.0005714285714285708 0
44 0 0.0004285714285714274 0
45 0 0.0002857142857142847 0
46 0 0.0001428571428571424 0
47 0 0.0008571428571428571 0.0001
48 0 0.0007142857142857142 0.0001
49 0 0.0005714285714285708 0.0001
50 0 0.0004285714285714274 0.0001
51 0 0.0002857142857142847 0.0001
52 0 0.0001428571428571424 0.0001
53 0.0002 0.0008571428571428571 0.0001
54 0.0002 0.0007142857142857142 0.0001
55 0.0002 0.0005714285714285708 0.0001
56 0.0002 0.0004285714285714272 0.0001
57 0.0002 0.0002857142857142845 0.0001
58 0.0002 0.0001428571428571425 0.0001
59 0.0003 0.0001428571428571429 0.0001
60 0.0003 0.0002857142857142858 0.0001
61 0.0003 0.0004285714285714292 0.0001
62 0.0003 0.0005714285714285727 0.0001
63 0.0003 0.0007142857142857154 0.0001
64 0.0003 0.0008571428571428576 0.0001
65 0.0002137926332334828 0 4.977607741115848e-05
66 0.0001712847023974132 0 3.908086908948446e-05
67 5.431636569001097e-05 0 5e-05
68 0.0002884742564548131 0 4.9240704718366e-05
69 0.0003317563818987679 0 3.868409419193504e-05
70 0.0004463081503107272 0 5e-05
71 0.0005 0.0005000000000000009 5e-05
72 0.0005 0.0003571428571428575 5e-05
73 0.0005 7.142857142857147e-05 5e-05
74 0.0005 0.0002142857142857144 5e-05
75 0.0005 0.000642857142857144 5e-05
76 0.0005 0.0009285714285714288 5.000000000000001e-05
77 0.0005 0.0007857142857142865 5e-05
78 5.624999999999988e-05 0.001 5e-05
79 0.00044375 0.001 5e-05
80 0 0.000499999999999999 5.000000000000001e-05
81 0 0.0006428571428571425 5e-05
82 0 0.0007857142857142856 4.999999999999999e-05
83 0 0.0009285714285714286 5e-05
84 0 0.000357142857142856 5e-05
85 0 7.142857142857124e-05 5.000000000000001e-05
86 0 0.0002142857142857135 5e-05
87 0.0003757150206211332 0.0006411863046271196 0
88 0.0001263645357133006 0.0003584302134214873 0
89 0.0003723958900298253 0.0002083411436989728 0
90 0.0001272886332786722 0.0007919294593798521 0
91 0.0001907300412187273 0.0001017039193731405 0
92 0.000309269932969356 0.0008982916761120141 0
93 0.0003761797851041819 0.0003556242792093101 0
94 0.0002496178083296304 0.0002930014207841358 0
95 0.0002520007799369545 0.0004297029478201529 0
96 0.000127140912888367 0.0005007584941402818 0
97 0.0001226165182080267 0.0006447648177593606 0
98 0.0002517099232826481 0.0007066993278216996 0
99 0.0003762600290616027 0.000499657311872923 0
100 0.000250907197333122 0.0005704615340069229 0
101 0.0001292892355051566 0.0002087434583245078 0
102 0.0003711974941038857 0.0007911546038255671 0
103 0.0003084657674385707 9.824731058093259e-05 0
104 0.0001914816229989427 0.0009017926513315518 0
105 8.900385534477685e-05 9.066090411095809e-05 0
106 0.0004110934854146483 0.0009093178274160878 0
107 0.0004111723314936793 8.988911942740965e-05 0
108 8.875405125552285e-05 0.0009101729935708522 0
109 0.0002501895213267009 0.000817973543694137 0
110 0.0002500997485043821 0.0001820074505523379 0
111 0.00025 0.0009285714285714287 0.0001
112 0.00025 0.0007857142857142861 0.0001
113 0.00025 0.0005 0.0001
114 0.00025 0.0006428571428571433 0.0001
115 0.0002499999999999997 0.0002142857142857136 0.0001
116 0.0002500000000000002 7.178363182007501e-05 0.0001
117 0.0002499999999999997 0.0003571428571428564 0.0001
118 0.0001383981941400653 5.992817598159345e-05 0.0001
119 9.89814007030056e-05 0.0001930040279519539 0.0001
120 9.983023345050098e-05 0.0003535959094205628 0.0001
121 9.997170557508352e-05 0.0004994088420462836 0.0001
122 0.0001 0.0008061224489795916 0.0001
123 9.999999999999999e-05 0.0006428571428571425 0.0001
124 6.428571428571431e-05 0.0009212827988338192 0.0001
125 0.0001412536443148688 0.0009226215267448087 0.0001
126 5.745406620049913e-05 7.742435432436356e-05 0.0001
127 0.0003645525759122177 6.334877691310554e-05 0.0001
128 0.0004 0.0008061224489795925 0.0001
129 0.0004 0.000644592530889908 0.0001
130 0.0004 0.0005000752892906074 0.0001
131 0.0004018339246990789 0.0001933365319956894 0.0001
132 0.0004003056541165131 0.0003536638749762879 0.0001
133 0.0004357142857142857 0.0009212827988338195 0.0001
134 0.0003587463556851312 0.000922621526744809 0.0001
135 0.0004435614725606007 7.724720127763108e-05 0.0001
136 0 0.001317 0
137 0 0.001317 0.0001
138 0.0005 0.001317 0
139 0.0005 0.001317 0.0001
140 0.0002 0.001317 0.0001
141 0.0003 0.001317 0.0001
142 0.0005 0.002317 0
143 0.0005 0.002317 0.0001
144 0.00025 0.002317 0
145 0.00025 0.002317 8.126585845387e-05
146 0.000320465202485817 0.002317 8.126585845387e-05
147 0.000320465202485817 0.002317 0.0001
148 0 0.002317 0
149 0 0.002317 0.0001
150 0.000184530925520087 0.002317 0.0001
151 0.000184530925520087 0.002317 8.126585845387e-05
152 0.00025 0.002317 0.0001
153 0.0003 0.002317 0.0001
154 0.0002 0.002317 0.0001
155 0.0001250000000000001 0.001317 0
156 0.0002500000000000004 0.001317 0
157 0.0003750000000000005 0.001317 0
158 0.0001 0.001317 0.0001
159 0.0004 0.001317 0.0001
160 0.0005 0.001459857142857143 0
161 0.0005 0.001602714285714286 0
162 0.0005 0.001745571428571429 0
163 0.0005 0.001888428571428573 0
164 0.0005 0.002031285714285716 0
165 0.0005 0.002174142857142858 0
166 0.0005 0.001459857142857143 0.0001
167 0.0005 0.001602714285714286 0.0001
168 0.0005 0.001745571428571429 0.0001
169 0.0005 0.001888428571428573 0.0001
170 0.0005 0.002031285714285716 0.0001
171 0.0005 0.002174142857142858 0.0001
172 0.0003749999999999998 0.002317 0
173 0.0004102326012429085 0.002317 0.0001
174 0.0001249999999999998 0.002317 0
175 9.226546276004346e-05 0.002317 0.0001
176 0 0.002174142857142857 0
177 0 0.002031285714285714 0
178 0 0.001888428571428571 0
179 0 0.001745571428571427 0
180 0 0.001602714285714285 0
181 0 0.001459857142857143 0
182 0 0.002174142857142857 0.0001
183 0 0.002031285714285714 0.0001
184 0 0.001888428571428571 0.0001
185 0 0.001745571428571427 0.0001
186 0 0.001602714285714285 0.0001
187 0 0.001459857142857143 0.0001
188 0.0002 0.002174142857142857 0.0001
189 0.0002 0.002031285714285714 0.0001
190 0.0002 0.001888428571428571 0.0001
191 0.0002 0.001745571428571427 0.0001
192 0.0002 0.001602714285714285 0.0001
193 0.0002 0.001459857142857143 0.0001
194 0.0003 0.001459857142857143 0.0001
195 0.0003 0.001602714285714286 0.0001
196 0.0003 0.001745571428571429 0.0001
197 0.0003 0.001888428571428573 0.0001
198 0.0003 0.002031285714285716 0.0001
199 0.0003 0.002174142857142858 0.0001
200 0.0004437500000000001 0.001317 5e-05
201 5.625000000000003e-05 0.001317 5e-05
202 0.0005 0.001388428571428571 5.000000000000001e-05
203 0.0005 0.001959857142857144 5e-05
204 0.0005 0.001674142857142858 5e-05
205 0.0005 0.001817000000000001 5.000000000000002e-05
206 0.0005 0.001531285714285714 5e-05
207 0.0005 0.002102714285714287 5.000000000000001e-05
208 0.0005 0.002245571428571429 5.000000000000001e-05
209 0.0002884742564548132 0.002317 4.924070471836599e-05
210 0.0003317563818987679 0.002317 3.868409419193505e-05
211 0.0004463081503107271 0.002317 5e-05
212 0.0002137926332334828 0.002317 4.97760774111585e-05
213 0.0001712847023974131 0.002317 3.908086908948451e-05
214 5.431636569001077e-05 0.002317 5e-05
215 0 0.002245571428571428 5e-05
216 0 0.001959857142857143 5e-05
217 0 0.002102714285714286 5e-05
218 0 0.001816999999999999 5.000000000000002e-05
219 0 0.001674142857142856 5e-05
220 0 0.001388428571428571 5.000000000000001e-05
221 0 0.001531285714285714 5e-05
222 0.0003736354642866994 0.001958569786578513 0
223 0.0001242849793788668 0.00167581369537288 0
224 0.0001276041099701747 0.002108658856301027 0
225 0.0003727113667213279 0.001525070540620148 0
226 0.0001907300670306441 0.001418708323887986 0
227 0.0003092699587812727 0.00221529608062686 0
228 0.0001238202148958181 0.00196137572079069 0
229 0.0002503821916703696 0.002023998579215864 0
230 0.0002479992200630455 0.001887297052179847 0
231 0.000372859087111633 0.001816241505859718 0
232 0.0003773834817919733 0.001672235182240639 0
233 0.0002482900767173519 0.0016103006721783 0
234 0.0001237399709383972 0.001817342688127077 0
235 0.000249092802666878 0.001746538465993077 0
236 0.0003707107644948434 0.002108256541675492 0
237 0.0001288025058961143 0.001525845396174433 0
238 0.0003085183770010574 0.001415207348668448 0
239 0.0001915342325614293 0.002218752689419067 0
240 8.890651458535171e-05 0.001407682172583912 0
241 0.0004109961446552232 0.002226339095889042 0
242 0.0004112459487444772 0.001406827006429148 0
243 8.882766850632076e-05 0.002227110880572591 0
244 0.0002498104786732991 0.001499026456305863 0
245 0.000249900251495618 0.002134992549447662 0
246 0.0001383981941400652 0.002257071824018407 0.0001
247 0.0001 0.001674142857142856 0.0001
248 9.999999999999999e-05 0.001510877551020408 0.0001
249 9.898140070300555e-05 0.002123995972048045 0.0001
250 0.0001 0.001816999999999999 0.0001
251 9.983023345050093e-05 0.001963404090579436 0.0001
252 6.428571428571431e-05 0.001395717201166181 0.0001
253 0.0001412536443148688 0.001394378473255191 0.0001
254 5.745406620049891e-05 0.002239575645675636 0.0001
255 0.00025 0.001388428571428571 0.0001
256 0.00025 0.002102714285714286 0.0001
257 0.0002499999999999997 0.002245216368179925 0.0001
258 0.00025 0.001817 0.0001
259 0.00025 0.001674142857142857 0.0001
260 0.00025 0.001531285714285714 0.0001
261 0.00025 0.001959857142857143 0.0001
262 0.0003645525759122176 0.002253651223086895 0.0001
263 0.0004018339246990789 0.002123663468004312 0.0001
264 0.0004003056541165131 0.001963348673238815 0.0001
265 0.0004000509423527522 0.001817581921730279 0.0001
266 0.0004 0.001510877551020408 0.0001
267 0.0004 0.001674142857142858 0.0001
268 0.0004357142857142857 0.001395717201166181 0.0001
269 0.0003587463556851312 0.001394378473255191 0.0001
270 0.0004435614725606005 0.002239752798722369 0.0001
271 0.000184530925520087 0 0.000140238405222266
272 0.000320465202485817 0 0.000140238405222266
273 0.0005 0 0.00032
274 0 0 0.00032
275 0.0002 0 0.00012
276 0.0003 0 0.00012
277 0.0002 0.001 0.00012
278 0.0003 0.001 0.00012
279 0.0005 0.001 0.00032
280 0 0.001 0.00032
281 0.0005 0 0.00021
282 0.0001250000000000001 0 0.00032
283 0.0002500000000000004 0 0.00032
284 0.0003750000000000005 0 0.00032
285 0 0 0.00021
286 0.0002 0.0008571428571428571 0.00012
287 0.0002 0.0007142857142857142 0.00012
288 0.0002 0.0005714285714285708 0.00012
289 0.0002 0.0004285714285714272 0.00012
290 0.0002 0.0002857142857142845 0.00012
291 0.0002 0.0001428571428571425 0.00012
292 0.0003 0.0001428571428571429 0.00012
293 0.0003 0.0002857142857142858 0.00012
294 0.0003 0.0004285714285714292 0.00012
295 0.0003 0.0005714285714285727 0.00012
296 0.0003 0.0007142857142857154 0.00012
297 0.0003 0.0008571428571428576 0.00012
298 0.0005 0.001 0.00021
299 0.0005 0.0001428571428571429 0.00032
300 0.0005 0.0002857142857142858 0.00032
301 0.0005 0.0004285714285714292 0.00032
302 0.0005 0.0005714285714285727 0.00032
303 0.0005 0.0007142857142857154 0.00032
304 0.0005 0.0008571428571428576 0.00032
305 0.0003749999999999999 0.001 0.00032
306 0.0002499999999999996 0.001 0.00032
307 0.0001249999999999995 0.001 0.00032
308 0 0.0008571428571428571 0.00032
309 0 0.0007142857142857142 0.00032
310 0 0.0005714285714285708 0.00032
311 0 0.0004285714285714274 0.00032
312 0 0.0002857142857142847 0.00032
313 0 0.0001428571428571424 0.00032
314 0 0.001 0.00021
315 0.0002521079040691299 0 0.0002055566968821029
316 0.0001875000000000003 0 0.0002582326430694428
317 0.0001122632146002662 0 0.0002025004254096411
318 0.0003138961898669999 0 0.0002549437311906994
319 0.000394570660365674 0 0.0002057475015411111
320 5.931173461827982e-05 0 0.0002588827793320305
321 0.0004423926650914186 0 0.0002639368753852778
322 0.0004531186040809907 0 0.0001544575894822846
323 4.613273138002182e-05 0 0.000155
324 0.00025 7.142857142857146e-05 0.00012
325 0.00025 0.0009285714285714288 0.00012
326 0.00025 0.0007857142857142861 0.00012
327 0.00025 0.0005 0.00012
328 0.00025 0.0006428571428571433 0.00012
329 0.00025 0.0002142857142857139 0.00012
330 0.00025 0.0003571428571428567 0.00012
331 0.0005 0.0006428571428571439 0.00021
332 0.0005 0.0007814625850340142 0.0002110259298524605
333 0.0005 0.0005000000000000009 0.00021
334 0.0005 0.0002185374149659865 0.0002089740701475395
335 0.0005 0.0003571428571428575 0.00021
336 0.0005 0.0001071428571428572 0.0002013821892393321
337 0.0005 0.000892857142857143 0.0002186178107606686
338 0.0003757150206211332 0.0006411863046271196 0.00032
339 0.0001263645357133006 0.0003584302134214873 0.00032
340 0.0003723958900298255 0.0002083411436989727 0.00032
341 0.0001272886332786722 0.0007919294593798521 0.00032
342 0.0001907300412187275 0.0001017039193731405 0.00032
343 0.000309269932969356 0.0008982916761120141 0.00032
344 0.0003761797851041819 0.00035562427920931 0.00032
345 0.0002496178083296305 0.0002930014207841358 0.00032
346 0.0002520007799369545 0.0004297029478201529 0.00032
347 0.000127140912888367 0.0005007584941402818 0.00032
348 0.0001226165182080267 0.0006447648177593606 0.00032
349 0.0002517099232826481 0.0007066993278216996 0.00032
350 0.0003762600290616027 0.000499657311872923 0.00032
351 0.000250907197333122 0.000570461534006923 0.00032
352 0.0001292892355051567 0.0002087434583245079 0.00032
353 0.0003711974941038857 0.0007911546038255671 0.00032
354 0.000308465767438571 9.82473105809327e-05 0.00032
355 0.0001914816229989427 0.0009017926513315518 0.00032
356 8.900385534477685e-05 9.066090411095819e-05 0.00032
357 0.0004110934854146483 0.0009093178274160878 0.00032
358 8.875405125552285e-05 0.0009101729935708522 0.00032
359 0.0004111723314936794 8.98891194274097e-05 0.00032
360 0.0002501895213267009 0.000817973543694137 0.00032
361 0.0002500997485043822 0.0001820074505523379 0.00032
362 0 0.0002185374149659856 0.0002110259298524605
363 0 0.000357142857142856 0.00021
364 0 0.0004999999999999991 0.00021
365 0 0.0007814625850340136 0.0002089740701475395
366 0 0.0006428571428571425 0.00021
367 0 0.0008928571428571428 0.0002013821892393321
368 0 0.0001071428571428569 0.0002186178107606685
369 0.00025 0.001 0.0001633012701892219
370 0.0001773061762952632 0.001 0.0002402443901626052
371 0.0003226091777728524 0.001 0.0002409248810274601
372 0.0004167008463409899 0.001 0.0002369980009969167
373 0.000352595900273087 0.001 0.0001760631249540403
374 8.328504600369586e-05 0.001 0.0002368845858527741
375 0.0001474040997269121 0.001 0.0001760631249540398
376 0.0002030866428796835 0.001 0.0001803277995332541
377 0.000296756157532532 0.001 0.0001815915682822704
378 0.0002499999999999996 0.001 0.0002274043614727795
379 6.152702081865829e-05 0.001 0.000161849672972402
380 0.000438470963802011 0.001 0.000161865875135851
381 0.0002850252734208042 0.0009001052280134737 0.0002163849953367916
382 0.0001181580867876013 0.0008931964715431929 0.0002094399112604861
383 0.0002 0.001317 0.00012
384 0.0003 0.001317 0.00012
385 0.0005 0.001317 0.00032
386 0 0.001317 0.00032
387 0.0002 0.002317 0.00012
388 0.0003 0.002317 0.00012
389 0.0005 0.002317 0.00032
390 0 0.002317 0.00032
391 0.000320465202485817 0.002317 0.000140238405222266
392 0.000184530925520087 0.002317 0.000140238405222266
393 0.0005 0.001317 0.00021
394 0.0001250000000000001 0.001317 0.00032
395 0.0002500000000000004 0.001317 0.00032
396 0.0003750000000000005 0.001317 0.00032
397 0 0.001317 0.00021
398 0.0002 0.002174142857142857 0.00012
399 0.0002 0.002031285714285714 0.00012
400 0.0002 0.001888428571428571 0.00012
401 0.0002 0.001745571428571427 0.00012
402 0.0002 0.001602714285714285 0.00012
403 0.0002 0.001459857142857143 0.00012
404 0.0003 0.001459857142857143 0.00012
405 0.0003 0.001602714285714286 0.00012
406 0.0003 0.001745571428571429 0.00012
407 0.0003 0.001888428571428573 0.00012
408 0.0003 0.002031285714285716 0.00012
409 0.0003 0.002174142857142858 0.00012
410 0.0005 0.002317 0.00021
411 0.0005 0.001459857142857143 0.00032
412 0.0005 0.001602714285714286 0.00032
413 0.0005 0.001745571428571429 0.00032
414 0.0005 0.001888428571428573 0.00032
415 0.0005 0.002031285714285716 0.00032
416 0.0005 0.002174142857142858 0.00032
417 0.0003749999999999999 0.002317 0.00032
418 0.0002499999999999996 0.002317 0.00032
419 0.0001249999999999995 0.002317 0.00032
420 0 0.002174142857142857 0.00032
421 0 0.002031285714285714 0.00032
422 0 0.001888428571428571 0.00032
423 0 0.001745571428571427 0.00032
424 0 0.001602714285714285 0.00032
425 0 0.001459857142857143 0.00032
426 0 0.002317 0.00021
427 0.00025 0.001317 0.0001633012701892219
428 0.0003226938237047368 0.001317 0.0002402443901626052
429 0.0001773908222271476 0.001317 0.0002409248810274601
430 8.329915365901011e-05 0.001317 0.0002369980009969167
431 0.000147404099726913 0.001317 0.0001760631249540403
432 0.0004167149539963041 0.001317 0.0002368845858527741
433 0.0003525959002730879 0.001317 0.0001760631249540398
434 0.0002969133571203165 0.001317 0.0001803277995332541
435 0.000203243842467468 0.001317 0.0001815915682822704
436 0.0002500000000000004 0.001317 0.0002274043614727795
437 6.152903619798902e-05 0.001317 0.000161865875135851
438 0.0004384729791813417 0.001317 0.000161849672972402
439 0.00025 0.001388428571428571 0.00012
440 0.0002500000000000001 0.002245571428571429 0.00012
441 0.00025 0.002102714285714286 0.00012
442 0.00025 0.001817 0.00012
443 0.00025 0.001531285714285714 0.00012
444 0.0002499999999999998 0.001674142857142857 0.00012
445 0.00025 0.001959857142857143 0.00012
446 0.0005 0.001959857142857144 0.00021
447 0.0005 0.002098462585034014 0.0002110259298524605
448 0.0005 0.001817000000000001 0.00021
449 0.0005 0.001535537414965986 0.0002089740701475395
450 0.0005 0.001674142857142858 0.00021
451 0.0005 0.002209857142857143 0.0002186178107606686
452 0.0005 0.001424142857142857 0.0002013821892393321
453 0.0001242849793788668 0.00167581369537288 0.00032
454 0.0003736354642866995 0.001958569786578513 0.00032
455 0.0003727113667213279 0.001525070540620148 0.00032
456 0.0001276041099701745 0.002108658856301027 0.00032
457 0.0001907300670306441 0.001418708323887986 0.00032
458 0.0003092699587812725 0.00221529608062686 0.00032
459 0.0001238202148958181 0.00196137572079069 0.00032
460 0.0002503821916703695 0.002023998579215864 0.00032
461 0.0002479992200630455 0.001887297052179847 0.00032
462 0.000372859087111633 0.001816241505859718 0.00032
463 0.0003773834817919733 0.001672235182240639 0.00032
464 0.0002482900767173519 0.0016103006721783 0.00032
465 0.0001237399709383973 0.001817342688127077 0.00032
466 0.000249092802666878 0.001746538465993077 0.00032
467 0.0001288025058961143 0.001525845396174433 0.00032
468 0.0003707107644948433 0.002108256541675492 0.00032
469 0.0003085183770010574 0.001415207348668448 0.00032
470 0.000191534232561429 0.002218752689419067 0.00032
471 0.0004109961446552232 0.002226339095889042 0.00032
472 8.890651458535171e-05 0.001407682172583912 0.00032
473 8.882766850632059e-05 0.002227110880572591 0.00032
474 0.0004112459487444772 0.001406827006429148 0.00032
475 0.0002498104786732991 0.001499026456305863 0.00032
476 0.0002499002514956178 0.002134992549447662 0.00032
477 0 0.001535537414965986 0.0002110259298524606
478 0 0.001674142857142856 0.00021
479 0 0.002098462585034014 0.0002110259298524605
480 0 0.001816999999999999 0.00021
481 0 0.001959857142857143 0.00021
482 0 0.001424142857142857 0.0002186178107606687
483 0 0.002209857142857143 0.0002186178107606679
484 0.0002521079040691298 0.002317 0.0002055566968821029
485 0.0001874999999999995 0.002317 0.0002582326430694423
486 0.000112263214600266 0.002317 0.0002025004254096405
487 0.0003138961898669993 0.002317 0.0002549437311906998
488 0.0003945706603656739 0.002317 0.0002057475015411116
489 5.93117346182801e-05 0.002317 0.0002588827793320304
490 0.0004423926650914185 0.002317 0.0002639368753852779
491 0.0004531186040809907 0.002317 0.0001544575894822846
492 4.613273138002181e-05 0.002317 0.000155
493 0.0002149747265791958 0.001416894771986526 0.0002163849953367916
494 0.0003818419132123987 0.001423803528456807 0.0002094399112604861
495 0 0.001211333333333333 0
496 0 0.001105666666666667 0
497 0 0.001211333333333333 0.00032
498 0 0.001105666666666667 0.00032
499 0.0005 0.001105666666666667 0
500 0.0005 0.001211333333333333 0
501 0.0005 0.001105666666666667 0.00032
502 0.0005 0.001211333333333333 0.00032
503 0.0002 0.001211333333333333 0.0001
504 0.0002 0.001105666666666666 0.0001
505 0.0003 0.001105666666666667 0.0001
506 0.0003 0.001211333333333334 0.0001
507 0.0002 0.001211333333333333 0.00012
508 0.0002 0.001105666666666666 0.00012
509 0.0003 0.001105666666666667 0.00012
510 0.0003 0.001211333333333334 0.00012
511 0 0.0011585 9.328055876034247e-05
512 0 0.0011585 0.0002232598393172374
513 0 0.001238680067774551 0.0001572637222950212
514 0 0.001078319932225449 0.0001572637222950213
515 0 0.001240427359536011 0.0002421958776957035
516 0 0.001076572640463989 0.0002421958776957037
517 0 0.001072342038036521 7.242911831022606e-05
518 0 0.001244657961963479 7.242911831022603e-05
519 9.039720401992518e-05 0.001159818041593068 0
520 0.0003939605107470179 0.00116178844468196 0
521 0.0001908409429307198 0.001222910685254502 0
522 0.0001915247763195889 0.001099931186323183 0
523 0.0002802652459994653 0.001162778292189709 0
524 0.0003124999999999997 0.001074307222346181 0
525 0.0004202627626475489 0.001073224386983709 0
526 7.973723735245101e-05 0.001073224386983709 0
527 0.000420262762647549 0.001243775613016291 0
528 7.973723735245109e-05 0.001243775613016291 0
529 0.0003146458614142831 0.001248608532467 0
530 0.0003939605107470179 0.00116178844468196 0.00032
531 9.039720401992518e-05 0.001159818041593068 0.00032
532 0.0001908409429307198 0.001222910685254502 0.00032
533 0.0001915247763195889 0.001099931186323183 0.00032
534 0.0002802652459994653 0.001162778292189709 0.00032
535 0.0003124999999999997 0.001074307222346181 0.00032
536 0.0004202627626475489 0.001073224386983709 0.00032
537 7.973723735245101e-05 0.001073224386983709 0.00032
538 0.000420262762647549 0.001243775613016291 0.00032
539 7.973723735245109e-05 0.001243775613016291 0.00032
540 0.0003146458614142831 0.001248608532467 0.00032
541 0.0005 0.0011585 9.328055876034247e-05
542 0.0005 0.0011585 0.0002232598393172374
543 0.0005 0.001078319932225449 0.0001572637222950212
544 0.0005 0.001238680067774551 0.0001572637222950213
545 0.0005 0.001076572640463989 0.0002421958776957035
546 0.0005 0.001240427359536011 0.0002421958776957037
547 0.0005 0.001244657961963479 7.242911831022606e-05
548 0.0005 0.001072342038036521 7.242911831022603e-05
549 0.00025 0.001052833333333333 0.0001
550 0.00025 0.001264166666666667 0.0001
551 0.00025 0.0011585 0.0001
552 0.00025 0.001264166666666667 0.00012
553 0.00025 0.001052833333333333 0.00012
554 0.00025 0.0011585 0.00012
555 0.0002542417231846956 0.001112438276410332 0.0002226791658318306
556 0.0003731915190110583 0.001111181920294239 0.000214012387126527
557 0.0002509850470296895 0.001215022915170053 0.0002108711439412815
558 0.000144542620004587 0.001159867363060774 0.0002130186535317693
559 0.0003953437912745948 0.001219308041919788 0.0001678045090331368
560 9.324494848717922e-05 0.001106036969242468 0.0001126827145108426
561 0.0001007174577413478 0.001223837554076734 0.0001433405664431187
562 0.0004060979446003638 0.001105922870810018 0.00011
$EndNodes
$Elements
1932
1 4 2 1 1 68 59 116 10
2 4 2 1 1 68 59 103 116
3 4 2 1 1 116 65 4 91
4 4 2 1 1 4 91 65 66
5 4 2 1 1 3 2 65 116
6 4 2 1 1 3 2 116 68
7 4 2 1 1 65 116 2 91
8 4 2 1 1 103 69 10 68
9 4 2 1 1 103 116 2 68
10 4 2 1 1 122 48 82 42
11 4 2 1 1 4 116 91 58
12 4 2 1 1 82 90 122 42
13 4 2 1 1 71 27 26 99
14 4 2 1 1 44 43 80 96
15 4 2 1 1 89 24 25 74
16 4 2 1 1 29 28 77 102
17 4 2 1 1 86 46 45 101
18 4 2 1 1 42 82 90 41
19 4 2 1 1 113 95 100 99
20 4 2 1 1 25 26 93 72
21 4 2 1 1 84 45 44 88
22 4 2 1 1 75 28 27 87
23 4 2 1 1 13 59 10 116
24 4 2 1 1 115 89 110 60
25 4 2 1 1 95 96 113 100
26 4 2 1 1 112 54 90 109
27 4 2 1 1 42 81 43 97
28 4 2 1 1 93 95 94 117
29 4 2 1 1 111 104 92 109
30 4 2 1 1 103 91 116 110
31 4 2 1 1 4 116 58 12
32 4 2 1 1 114 97 98 100
33 4 2 1 1 102 63 112 109
34 4 2 1 1 57 115 101 110
35 4 2 1 1 64 18 92 111
36 4 2 1 1 26 93 130 99
37 4 2 1 1 97 114 55 100
38 4 2 1 1 61 95 113 99
39 4 2 1 1 88 94 95 117
40 4 2 1 1 95 93 61 117
41 4 2 1 1 19 53 104 111
42 4 2 1 1 62 113 100 99
43 4 2 1 1 61 62 99 113
44 4 2 1 1 3 10 68 116
45 4 2 1 1 55 54 114 97
46 4 2 1 1 60 61 93 117
47 4 2 1 1 98 87 114 100
48 4 2 1 1 113 56 96 95
49 4 2 1 1 129 34 28 102
50 4 2 1 1 91 20 2 66
51 4 2 1 1 95 56 88 117
52 4 2 1 1 130 87 27 99
53 4 2 1 1 132 89 25 31
54 4 2 1 1 62 63 87 114
55 4 2 1 1 71 130 27 99
56 4 2 1 1 120 51 45 101
57 4 2 1 1 26 130 71 99
58 4 2 1 1 55 56 96 113
59 4 2 1 1 100 87 114 62
60 4 2 1 1 121 80 43 96
61 4 2 1 1 33 130 27 71
62 4 2 1 1 97 54 114 98
63 4 2 1 1 49 80 43 121
64 4 2 1 1 88 44 121 96
65 4 2 1 1 32 26 130 71
66 4 2 1 1 56 57 88 117
67 4 2 1 1 134 39 79 36
68 4 2 1 1 60 93 94 117
69 4 2 1 1 115 57 94 110
70 4 2 1 1 59 89 115 60
71 4 2 1 1 55 113 96 100
72 4 2 1 1 110 94 115 60
73 4 2 1 1 121 44 80 96
74 4 2 1 1 89 115 110 59
75 4 2 1 1 53 54 90 112
76 4 2 1 1 111 104 37 92
77 4 2 1 1 91 116 2 103
78 4 2 1 1 64 63 112 102
79 4 2 1 1 112 90 53 109
80 4 2 1 1 98 112 63 109
81 4 2 1 1 125 104 90 108
82 4 2 1 1 50 44 80 121
83 4 2 1 1 57 115 58 101
84 4 2 1 1 38 40 78 108
85 4 2 1 1 54 112 98 109
86 4 2 1 1 132 26 93 130
87 4 2 1 1 90 123 42 97
88 4 2 1 1 32 132 26 72
89 4 2 1 1 16 83 41 108
90 4 2 1 1 73 24 7 107
91 4 2 1 1 102 112 64 109
92 4 2 1 1 114 63 87 98
93 4 2 1 1 101 115 58 110
94 4 2 1 1 92 64 111 109
95 4 2 1 1 58 116 91 110
96 4 2 1 1 29 14 106 76
97 4 2 1 1 25 93 89 132
98 4 2 1 1 34 129 128 102
99 4 2 1 1 50 84 44 120
100 4 2 1 1 132 131 89 31
101 4 2 1 1 105 46 1 85
102 4 2 1 1 94 88 57 117
103 4 2 1 1 51 120 119 101
104 4 2 1 1 96 43 121 123
105 4 2 1 1 135 30 8 73
106 4 2 1 1 132 93 26 72
107 4 2 1 1 28 129 102 87
108 4 2 1 1 69 22 2 103
109 4 2 1 1 133 39 79 134
110 4 2 1 1 129 27 75 33
111 4 2 1 1 104 111 53 109
112 4 2 1 1 3 4 116 65
113 4 2 1 1 123 96 43 97
114 4 2 1 1 120 44 121 88
115 4 2 1 1 116 103 110 59
116 4 2 1 1 106 128 134 92
117 4 2 1 1 45 120 101 88
118 4 2 1 1 130 132 26 32
119 4 2 1 1 27 129 87 130
120 4 2 1 1 4 58 91 118
121 4 2 1 1 80 49 50 121
122 4 2 1 1 120 84 44 88
123 4 2 1 1 130 33 32 71
124 4 2 1 1 93 61 130 99
125 4 2 1 1 121 50 44 120
126 4 2 1 1 18 111 37 92
127 4 2 1 1 27 129 130 33
128 4 2 1 1 17 124 47 83
129 4 2 1 1 129 75 27 87
130 4 2 1 1 43 49 123 81
131 4 2 1 1 2 65 91 66
132 4 2 1 1 59 103 89 107
133 4 2 1 1 43 49 121 123
134 4 2 1 1 81 123 43 97
135 4 2 1 1 53 104 90 125
136 4 2 1 1 81 48 123 42
137 4 2 1 1 126 85 6 52
138 4 2 1 1 130 62 87 99
139 4 2 1 1 103 59 127 107
140 4 2 1 1 88 121 56 96
141 4 2 1 1 90 54 123 97
142 4 2 1 1 77 34 35 128
143 4 2 1 1 111 104 19 37
144 4 2 1 1 51 52 86 119
145 4 2 1 1 28 75 34 129
146 4 2 1 1 131 31 30 74
147 4 2 1 1 123 81 42 97
148 4 2 1 1 122 48 47 82
149 4 2 1 1 58 118 105 91
150 4 2 1 1 60 89 93 132
151 4 2 1 1 28 75 129 87
152 4 2 1 1 32 31 132 72
153 4 2 1 1 134 79 106 36
154 4 2 1 1 84 50 51 120
155 4 2 1 1 129 63 102 87
156 4 2 1 1 15 76 35 133
157 4 2 1 1 132 25 93 72
158 4 2 1 1 93 61 132 130
159 4 2 1 1 4 91 66 118
160 4 2 1 1 75 34 129 33
161 4 2 1 1 31 25 132 72
162 4 2 1 1 45 84 120 88
163 4 2 1 1 2 69 103 68
164 4 2 1 1 13 59 127 10
165 4 2 1 1 64 134 128 92
166 4 2 1 1 45 84 51 120
167 4 2 1 1 58 105 119 91
168 4 2 1 1 101 120 57 88
169 4 2 1 1 48 123 49 81
170 4 2 1 1 64 53 111 109
171 4 2 1 1 58 116 110 59
172 4 2 1 1 133 79 106 134
173 4 2 1 1 10 69 103 127
174 4 2 1 1 92 37 18 36
175 4 2 1 1 90 54 122 123
176 4 2 1 1 89 60 131 132
177 4 2 1 1 121 55 96 123
178 4 2 1 1 61 93 95 99
179 4 2 1 1 63 128 129 102
180 4 2 1 1 55 96 123 97
181 4 2 1 1 18 64 92 134
182 4 2 1 1 57 119 120 101
183 4 2 1 1 91 105 119 101
184 4 2 1 1 89 93 94 60
185 4 2 1 1 106 128 92 102
186 4 2 1 1 56 120 121 88
187 4 2 1 1 106 29 76 133
188 4 2 1 1 97 90 54 98
189 4 2 1 1 92 18 134 36
190 4 2 1 1 55 96 97 100
191 4 2 1 1 62 87 129 130
192 4 2 1 1 125 90 122 108
193 4 2 1 1 110 89 94 60
194 4 2 1 1 88 57 101 94
195 4 2 1 1 19 53 125 104
196 4 2 1 1 63 102 87 98
197 4 2 1 1 96 56 88 95
198 4 2 1 1 98 90 54 109
199 4 2 1 1 104 38 19 37
200 4 2 1 1 128 29 77 102
201 4 2 1 1 62 100 87 99
202 4 2 1 1 4 58 118 12
203 4 2 1 1 119 46 86 101
204 4 2 1 1 24 89 131 74
205 4 2 1 1 79 14 106 36
206 4 2 1 1 131 127 59 107
207 4 2 1 1 94 57 101 110
208 4 2 1 1 79 106 14 76
209 4 2 1 1 78 16 38 108
210 4 2 1 1 104 19 38 125
211 4 2 1 1 78 83 16 108
212 4 2 1 1 105 1 20 67
213 4 2 1 1 63 102 98 109
214 4 2 1 1 82 122 90 41
215 4 2 1 1 67 105 1 85
216 4 2 1 1 3 10 116 13
217 4 2 1 1 70 7 22 107
218 4 2 1 1 76 79 106 133
219 4 2 1 1 40 38 125 108
220 4 2 1 1 78 124 83 108
221 4 2 1 1 70 73 7 107
222 4 2 1 1 131 59 89 107
223 4 2 1 1 62 61 99 130
224 4 2 1 1 105 119 118 58
225 4 2 1 1 85 67 105 126
226 4 2 1 1 124 122 47 108
227 4 2 1 1 91 119 58 101
228 4 2 1 1 92 128 64 102
229 4 2 1 1 135 73 70 107
230 4 2 1 1 55 56 121 96
231 4 2 1 1 125 90 53 122
232 4 2 1 1 105 20 91 66
233 4 2 1 1 35 76 29 133
234 4 2 1 1 131 30 135 107
235 4 2 1 1 52 126 105 119
236 4 2 1 1 92 134 106 36
237 4 2 1 1 119 126 105 118
238 4 2 1 1 127 23 22 70
239 4 2 1 1 35 29 77 128
240 4 2 1 1 82 47 122 41
241 4 2 1 1 91 118 105 66
242 4 2 1 1 67 21 20 118
243 4 2 1 1 127 131 135 107
244 4 2 1 1 122 124 125 108
245 4 2 1 1 24 131 30 74
246 4 2 1 1 106 128 133 134
247 4 2 1 1 70 22 127 107
248 4 2 1 1 52 46 86 119
249 4 2 1 1 60 61 132 93
250 4 2 1 1 69 103 127 107
251 4 2 1 1 20 105 67 118
252 4 2 1 1 38 104 125 108
253 4 2 1 1 55 54 97 123
254 4 2 1 1 103 69 22 107
255 4 2 1 1 63 62 87 129
256 4 2 1 1 60 59 89 131
257 4 2 1 1 125 19 38 40
258 4 2 1 1 56 57 120 88
259 4 2 1 1 110 103 89 59
260 4 2 1 1 131 89 24 107
261 4 2 1 1 41 47 122 108
262 4 2 1 1 18 39 134 36
263 4 2 1 1 30 131 24 107
264 4 2 1 1 106 29 128 102
265 4 2 1 1 90 104 53 109
266 4 2 1 1 126 67 105 118
267 4 2 1 1 105 46 119 101
268 4 2 1 1 41 122 90 108
269 4 2 1 1 64 92 102 109
270 4 2 1 1 127 135 70 107
271 4 2 1 1 119 57 58 101
272 4 2 1 1 58 91 101 110
273 4 2 1 1 128 63 64 102
274 4 2 1 1 90 54 53 122
275 4 2 1 1 105 46 52 119
276 4 2 1 1 20 105 118 66
277 4 2 1 1 126 21 67 118
278 4 2 1 1 127 22 69 107
279 4 2 1 1 23 127 135 70
280 4 2 1 1 4 3 116 12
281 4 2 1 1 69 23 22 127
282 4 2 1 1 110 115 58 59
283 4 2 1 1 64 112 53 109
284 4 2 1 1 111 19 18 37
285 4 2 1 1 21 20 118 66
286 4 2 1 1 57 115 94 60
287 4 2 1 1 54 112 63 98
288 4 2 1 1 61 56 95 117
289 4 2 1 1 95 113 56 61
290 4 2 1 1 100 114 55 62
291 4 2 1 1 83 17 124 78
292 4 2 1 1 55 113 100 62
293 4 2 1 1 60 94 57 117
294 4 2 1 1 63 114 54 98
295 4 2 1 1 69 10 23 127
296 4 2 1 1 40 124 17 78
297 4 2 1 1 13 9 10 127
298 4 2 1 1 76 15 79 133
299 4 2 1 1 118 4 21 66
300 4 2 1 1 39 79 15 133
301 4 2 1 1 73 8 135 70
302 4 2 1 1 12 4 5 118
303 4 2 1 1 11 3 12 116
304 4 2 1 1 3 11 13 116
305 4 2 1 1 6 67 85 126
306 4 2 1 1 83 16 17 78
307 4 2 1 1 73 7 8 70
308 4 2 1 1 23 10 9 127
309 4 2 1 1 5 4 21 118
310 4 2 1 1 79 14 15 76
311 4 2 1 1 8 23 135 70
312 4 2 1 1 1 6 67 85
313 4 2 1 1 67 6 21 126
314 4 2 1 1 10 59 103 68
315 4 2 1 1 10 103 59 127
316 4 2 1 1 40 108 124 78
317 4 2 1 1 124 108 40 125
318 4 2 1 1 102 34 77 128
319 4 2 1 1 102 77 34 28
320 4 2 1 1 101 51 86 119
321 4 2 1 1 101 86 51 45
322 4 2 1 1 31 89 74 131
323 4 2 1 1 31 74 89 25
324 4 2 1 1 122 42 123 48
325 4 2 1 1 123 42 122 90
326 4 2 1 1 108 47 83 41
327 4 2 1 1 108 83 47 124
328 4 2 1 1 30 107 73 135
329 4 2 1 1 73 107 30 24
330 4 2 1 1 133 29 128 106
331 4 2 1 1 133 128 29 35
332 4 2 1 1 52 105 85 46
333 4 2 1 1 52 85 105 126
334 4 2 2 2 212 188 257 151
335 4 2 2 2 212 188 239 257
336 4 2 2 2 257 209 146 227
337 4 2 2 2 146 227 209 210
338 4 2 2 2 145 144 257 212
339 4 2 2 2 145 144 209 257
340 4 2 2 2 209 257 144 227
341 4 2 2 2 212 239 151 213
342 4 2 2 2 212 239 144 257
343 4 2 2 2 146 257 227 199
344 4 2 2 2 206 266 167 161
345 4 2 2 2 206 225 266 161
346 4 2 2 2 234 178 179 218
347 4 2 2 2 205 163 162 231
348 4 2 2 2 224 176 177 217
349 4 2 2 2 221 181 180 237
350 4 2 2 2 165 164 207 236
351 4 2 2 2 160 225 206 161
352 4 2 2 2 234 235 230 258
353 4 2 2 2 228 177 178 216
354 4 2 2 2 146 257 199 153
355 4 2 2 2 164 163 203 222
356 4 2 2 2 180 219 223 179
357 4 2 2 2 258 235 230 231
358 4 2 2 2 257 151 188 154
359 4 2 2 2 232 162 204 161
360 4 2 2 2 189 245 224 256
361 4 2 2 2 230 228 261 229
362 4 2 2 2 255 226 244 238
363 4 2 2 2 257 245 239 227
364 4 2 2 2 260 244 195 225
365 4 2 2 2 140 193 255 226
366 4 2 2 2 233 235 259 232
367 4 2 2 2 192 237 244 260
368 4 2 2 2 256 198 245 236
369 4 2 2 2 196 259 235 232
370 4 2 2 2 228 178 234 250
371 4 2 2 2 190 234 230 258
372 4 2 2 2 229 261 230 222
373 4 2 2 2 230 228 190 261
374 4 2 2 2 235 234 191 258
375 4 2 2 2 191 190 258 234
376 4 2 2 2 141 194 238 255
377 4 2 2 2 145 146 257 209
378 4 2 2 2 235 223 233 259
379 4 2 2 2 195 196 232 259
380 4 2 2 2 247 180 237 186
381 4 2 2 2 190 189 261 228
382 4 2 2 2 230 197 258 231
383 4 2 2 2 234 179 223 250
384 4 2 2 2 197 230 261 222
385 4 2 2 2 183 177 224 251
386 4 2 2 2 223 235 191 259
387 4 2 2 2 179 234 218 250
388 4 2 2 2 191 192 223 259
389 4 2 2 2 164 264 170 236
390 4 2 2 2 144 172 210 227
391 4 2 2 2 234 178 218 250
392 4 2 2 2 196 197 231 258
393 4 2 2 2 185 179 218 250
394 4 2 2 2 162 265 205 231
395 4 2 2 2 222 163 265 231
396 4 2 2 2 205 168 265 162
397 4 2 2 2 184 218 178 250
398 4 2 2 2 253 201 155 158
399 4 2 2 2 195 233 259 232
400 4 2 2 2 258 196 235 231
401 4 2 2 2 163 205 265 231
402 4 2 2 2 188 224 245 256
403 4 2 2 2 197 198 222 261
404 4 2 2 2 261 228 189 229
405 4 2 2 2 256 245 198 229
406 4 2 2 2 224 188 189 256
407 4 2 2 2 146 199 227 262
408 4 2 2 2 156 226 255 238
409 4 2 2 2 239 144 257 227
410 4 2 2 2 237 192 193 260
411 4 2 2 2 189 245 256 229
412 4 2 2 2 244 260 194 225
413 4 2 2 2 194 260 195 225
414 4 2 2 2 238 225 269 242
415 4 2 2 2 205 265 169 163
416 4 2 2 2 198 256 199 236
417 4 2 2 2 193 244 237 260
418 4 2 2 2 228 178 250 251
419 4 2 2 2 192 244 233 260
420 4 2 2 2 232 267 225 161
421 4 2 2 2 184 178 216 251
422 4 2 2 2 199 256 245 236
423 4 2 2 2 202 138 242 160
424 4 2 2 2 226 244 193 255
425 4 2 2 2 260 244 233 195
426 4 2 2 2 245 257 199 227
427 4 2 2 2 176 243 148 215
428 4 2 2 2 263 170 264 236
429 4 2 2 2 136 181 220 240
430 4 2 2 2 203 169 264 163
431 4 2 2 2 237 223 180 247
432 4 2 2 2 192 233 223 259
433 4 2 2 2 228 224 177 251
434 4 2 2 2 165 208 142 241
435 4 2 2 2 144 239 213 174
436 4 2 2 2 162 267 265 231
437 4 2 2 2 237 248 247 186
438 4 2 2 2 183 224 249 251
439 4 2 2 2 178 228 216 251
440 4 2 2 2 229 198 261 222
441 4 2 2 2 268 159 269 200
442 4 2 2 2 158 253 201 252
443 4 2 2 2 194 255 244 238
444 4 2 2 2 151 145 257 212
445 4 2 2 2 231 162 267 232
446 4 2 2 2 265 264 163 222
447 4 2 2 2 188 245 239 257
448 4 2 2 2 236 164 264 222
449 4 2 2 2 250 178 184 251
450 4 2 2 2 144 210 209 227
451 4 2 2 2 265 169 168 205
452 4 2 2 2 264 203 163 222
453 4 2 2 2 226 240 253 248
454 4 2 2 2 250 179 223 247
455 4 2 2 2 218 184 185 250
456 4 2 2 2 250 234 228 190
457 4 2 2 2 265 264 169 163
458 4 2 2 2 156 226 140 255
459 4 2 2 2 268 166 139 202
460 4 2 2 2 219 179 185 247
461 4 2 2 2 162 168 267 204
462 4 2 2 2 199 262 241 227
463 4 2 2 2 250 185 179 247
464 4 2 2 2 243 224 239 188
465 4 2 2 2 267 265 168 162
466 4 2 2 2 146 227 210 262
467 4 2 2 2 179 219 223 247
468 4 2 2 2 232 162 267 204
469 4 2 2 2 270 143 171 208
470 4 2 2 2 269 194 225 238
471 4 2 2 2 250 223 234 191
472 4 2 2 2 167 267 204 161
473 4 2 2 2 215 149 182 254
474 4 2 2 2 247 219 180 186
475 4 2 2 2 222 265 197 231
476 4 2 2 2 217 249 182 183
477 4 2 2 2 225 195 267 232
478 4 2 2 2 263 171 170 207
479 4 2 2 2 204 267 232 161
480 4 2 2 2 255 141 156 238
481 4 2 2 2 167 166 266 206
482 4 2 2 2 248 221 187 186
483 4 2 2 2 223 219 180 247
484 4 2 2 2 241 263 199 227
485 4 2 2 2 223 237 192 247
486 4 2 2 2 146 199 262 153
487 4 2 2 2 170 169 264 203
488 4 2 2 2 155 240 201 253
489 4 2 2 2 216 183 184 251
490 4 2 2 2 252 220 137 187
491 4 2 2 2 228 224 251 189
492 4 2 2 2 216 228 177 251
493 4 2 2 2 203 264 164 222
494 4 2 2 2 251 250 228 190
495 4 2 2 2 183 216 177 251
496 4 2 2 2 255 244 193 194
497 4 2 2 2 243 239 246 188
498 4 2 2 2 253 193 226 248
499 4 2 2 2 203 264 170 164
500 4 2 2 2 257 188 245 199
501 4 2 2 2 167 267 168 204
502 4 2 2 2 247 185 219 186
503 4 2 2 2 236 264 198 222
504 4 2 2 2 253 240 201 252
505 4 2 2 2 242 268 269 200
506 4 2 2 2 226 140 155 156
507 4 2 2 2 267 196 265 231
508 4 2 2 2 234 230 228 190
509 4 2 2 2 202 242 268 160
510 4 2 2 2 263 241 236 227
511 4 2 2 2 140 193 226 253
512 4 2 2 2 267 266 195 225
513 4 2 2 2 248 192 237 247
514 4 2 2 2 267 196 231 232
515 4 2 2 2 144 239 212 213
516 4 2 2 2 224 249 251 189
517 4 2 2 2 263 264 198 236
518 4 2 2 2 264 265 197 222
519 4 2 2 2 226 155 140 253
520 4 2 2 2 228 224 189 229
521 4 2 2 2 240 226 237 248
522 4 2 2 2 231 196 235 232
523 4 2 2 2 233 195 225 232
524 4 2 2 2 191 250 223 247
525 4 2 2 2 266 269 225 242
526 4 2 2 2 176 243 215 254
527 4 2 2 2 189 224 245 229
528 4 2 2 2 222 197 230 231
529 4 2 2 2 213 239 151 246
530 4 2 2 2 188 151 246 154
531 4 2 2 2 223 235 234 191
532 4 2 2 2 229 236 198 222
533 4 2 2 2 237 233 223 192
534 4 2 2 2 194 141 238 269
535 4 2 2 2 195 244 233 225
536 4 2 2 2 165 270 208 241
537 4 2 2 2 217 224 176 249
538 4 2 2 2 238 141 156 157
539 4 2 2 2 240 201 136 155
540 4 2 2 2 207 263 165 236
541 4 2 2 2 201 136 220 240
542 4 2 2 2 221 181 237 248
543 4 2 2 2 199 262 263 241
544 4 2 2 2 242 157 138 200
545 4 2 2 2 236 198 245 229
546 4 2 2 2 138 242 200 202
547 4 2 2 2 206 266 225 160
548 4 2 2 2 241 211 142 172
549 4 2 2 2 208 211 142 241
550 4 2 2 2 146 145 257 153
551 4 2 2 2 243 174 148 214
552 4 2 2 2 237 244 233 192
553 4 2 2 2 238 269 141 157
554 4 2 2 2 220 201 240 252
555 4 2 2 2 215 243 148 214
556 4 2 2 2 191 190 234 250
557 4 2 2 2 200 242 268 202
558 4 2 2 2 246 249 243 188
559 4 2 2 2 236 199 263 227
560 4 2 2 2 224 243 249 188
561 4 2 2 2 214 215 243 254
562 4 2 2 2 268 166 202 160
563 4 2 2 2 270 211 208 241
564 4 2 2 2 193 237 226 248
565 4 2 2 2 197 196 231 265
566 4 2 2 2 266 269 194 225
567 4 2 2 2 252 248 240 187
568 4 2 2 2 254 249 243 246
569 4 2 2 2 210 241 262 227
570 4 2 2 2 240 155 226 253
571 4 2 2 2 262 173 211 172
572 4 2 2 2 263 270 171 241
573 4 2 2 2 206 166 266 160
574 4 2 2 2 182 176 215 254
575 4 2 2 2 249 176 217 182
576 4 2 2 2 221 181 248 187
577 4 2 2 2 175 214 174 246
578 4 2 2 2 239 213 174 243
579 4 2 2 2 210 172 241 227
580 4 2 2 2 269 266 268 242
581 4 2 2 2 262 211 241 172
582 4 2 2 2 262 270 263 241
583 4 2 2 2 208 171 270 165
584 4 2 2 2 263 171 207 165
585 4 2 2 2 240 253 248 252
586 4 2 2 2 157 238 269 242
587 4 2 2 2 190 189 228 251
588 4 2 2 2 214 243 174 246
589 4 2 2 2 239 213 243 246
590 4 2 2 2 195 196 267 232
591 4 2 2 2 192 191 223 247
592 4 2 2 2 224 243 176 249
593 4 2 2 2 224 245 239 188
594 4 2 2 2 197 198 264 222
595 4 2 2 2 249 224 188 189
596 4 2 2 2 269 159 141 157
597 4 2 2 2 253 155 140 158
598 4 2 2 2 226 244 237 193
599 4 2 2 2 225 194 244 238
600 4 2 2 2 236 245 199 227
601 4 2 2 2 198 199 263 236
602 4 2 2 2 211 270 262 241
603 4 2 2 2 241 165 263 236
604 4 2 2 2 242 225 266 160
605 4 2 2 2 254 243 214 246
606 4 2 2 2 237 181 240 248
607 4 2 2 2 181 240 248 187
608 4 2 2 2 165 171 270 241
609 4 2 2 2 165 263 171 241
610 4 2 2 2 193 192 237 248
611 4 2 2 2 194 195 266 225
612 4 2 2 2 213 174 243 246
613 4 2 2 2 214 175 254 246
614 4 2 2 2 172 241 262 210
615 4 2 2 2 173 270 262 211
616 4 2 2 2 145 151 257 154
617 4 2 2 2 262 173 172 210
618 4 2 2 2 256 245 188 199
619 4 2 2 2 260 193 244 194
620 4 2 2 2 156 140 141 255
621 4 2 2 2 174 213 175 246
622 4 2 2 2 256 198 189 229
623 4 2 2 2 233 192 260 195
624 4 2 2 2 197 230 190 261
625 4 2 2 2 197 190 230 258
626 4 2 2 2 259 235 191 196
627 4 2 2 2 196 235 191 258
628 4 2 2 2 200 268 139 202
629 4 2 2 2 189 198 261 229
630 4 2 2 2 173 262 146 210
631 4 2 2 2 192 233 259 195
632 4 2 2 2 159 268 139 200
633 4 2 2 2 146 147 153 262
634 4 2 2 2 201 220 137 252
635 4 2 2 2 175 213 151 246
636 4 2 2 2 158 201 137 252
637 4 2 2 2 154 150 151 246
638 4 2 2 2 145 152 154 257
639 4 2 2 2 152 145 153 257
640 4 2 2 2 149 215 214 254
641 4 2 2 2 200 139 138 202
642 4 2 2 2 211 143 270 208
643 4 2 2 2 146 147 262 173
644 4 2 2 2 175 151 150 246
645 4 2 2 2 220 137 136 201
646 4 2 2 2 215 148 149 214
647 4 2 2 2 142 143 211 208
648 4 2 2 2 175 149 214 254
649 4 2 2 2 173 143 270 211
650 4 2 2 2 151 188 239 212
651 4 2 2 2 151 239 188 246
652 4 2 2 2 269 200 157 242
653 4 2 2 2 157 200 269 159
654 4 2 2 2 236 170 207 263
655 4 2 2 2 236 207 170 164
656 4 2 2 2 237 186 221 248
657 4 2 2 2 221 186 237 180
658 4 2 2 2 183 224 217 249
659 4 2 2 2 183 217 224 177
660 4 2 2 2 161 266 267 225
661 4 2 2 2 161 267 266 167
662 4 2 2 2 268 160 266 166
663 4 2 2 2 266 160 268 242
664 4 2 2 2 176 254 249 243
665 4 2 2 2 249 254 176 182
666 4 2 2 2 187 240 220 181
667 4 2 2 2 187 220 240 252
668 4 2 3 3 353 326 360 381
669 4 2 3 3 373 134 372 381
670 4 2 3 3 361 342 291 324
671 4 2 3 3 297 326 353 381
672 4 2 3 3 293 340 361 329
673 4 2 3 3 287 341 360 326
674 4 2 3 3 296 360 353 326
675 4 2 3 3 361 352 290 329
676 4 2 3 3 329 340 361 292
677 4 2 3 3 360 341 286 326
678 4 2 3 3 361 290 345 329
679 4 2 3 3 293 361 345 329
680 4 2 3 3 291 352 361 329
681 4 2 3 3 294 346 350 327
682 4 2 3 3 296 349 360 326
683 4 2 3 3 349 287 360 326
684 4 2 3 3 344 330 346 294
685 4 2 3 3 350 295 294 327
686 4 2 3 3 346 351 350 327
687 4 2 3 3 291 356 317 342
688 4 2 3 3 295 350 351 327
689 4 2 3 3 359 319 354 292
690 4 2 3 3 288 328 348 351
691 4 2 3 3 289 347 346 327
692 4 2 3 3 328 287 288 348
693 4 2 3 3 293 330 344 294
694 4 2 3 3 360 326 286 381
695 4 2 3 3 324 291 361 292
696 4 2 3 3 347 289 288 327
697 4 2 3 3 351 346 347 327
698 4 2 3 3 346 345 330 344
699 4 2 3 3 339 330 289 346
700 4 2 3 3 351 347 288 327
701 4 2 3 3 350 333 335 294
702 4 2 3 3 296 338 328 295
703 4 2 3 3 344 345 330 293
704 4 2 3 3 328 338 351 295
705 4 2 3 3 366 364 288 347
706 4 2 3 3 348 328 287 349
707 4 2 3 3 289 290 330 339
708 4 2 3 3 341 287 286 326
709 4 2 3 3 329 293 340 292
710 4 2 3 3 349 348 328 351
711 4 2 3 3 330 339 345 346
712 4 2 3 3 362 290 363 339
713 4 2 3 3 350 335 344 294
714 4 2 3 3 335 334 344 293
715 4 2 3 3 297 296 353 326
716 4 2 3 3 338 332 331 296
717 4 2 3 3 352 291 290 329
718 4 2 3 3 287 348 365 366
719 4 2 3 3 339 290 330 345
720 4 2 3 3 349 338 328 296
721 4 2 3 3 363 289 364 339
722 4 2 3 3 366 288 348 347
723 4 2 3 3 349 328 338 351
724 4 2 3 3 338 331 333 295
725 4 2 3 3 338 333 350 295
726 4 2 3 3 319 318 354 292
727 4 2 3 3 334 340 344 293
728 4 2 3 3 347 364 289 339
729 4 2 3 3 332 338 353 296
730 4 2 3 3 290 362 352 339
731 4 2 3 3 365 348 287 341
732 4 2 3 3 364 121 289 363
733 4 2 3 3 294 333 335 130
734 4 2 3 3 295 331 333 130
735 4 2 3 3 336 319 359 292
736 4 2 3 3 350 333 294 130
737 4 2 3 3 342 291 356 352
738 4 2 3 3 333 350 295 130
739 4 2 3 3 364 289 121 347
740 4 2 3 3 364 121 288 347
741 4 2 3 3 317 356 291 368
742 4 2 3 3 293 335 334 132
743 4 2 3 3 359 354 340 292
744 4 2 3 3 363 120 290 362
745 4 2 3 3 316 291 317 342
746 4 2 3 3 129 331 332 296
747 4 2 3 3 365 123 287 366
748 4 2 3 3 293 344 335 132
749 4 2 3 3 361 291 329 292
750 4 2 3 3 336 319 292 127
751 4 2 3 3 364 288 123 366
752 4 2 3 3 363 290 120 339
753 4 2 3 3 271 316 315 324
754 4 2 3 3 292 340 359 131
755 4 2 3 3 121 288 123 364
756 4 2 3 3 129 338 331 296
757 4 2 3 3 348 123 288 366
758 4 2 3 3 295 129 331 130
759 4 2 3 3 291 119 356 352
760 4 2 3 3 132 294 335 130
761 4 2 3 3 294 335 344 132
762 4 2 3 3 357 337 353 381
763 4 2 3 3 348 287 123 366
764 4 2 3 3 121 120 289 363
765 4 2 3 3 331 338 129 295
766 4 2 3 3 354 318 315 292
767 4 2 3 3 317 291 118 368
768 4 2 3 3 372 134 337 381
769 4 2 3 3 363 120 289 339
770 4 2 3 3 376 325 369 381
771 4 2 3 3 292 359 336 131
772 4 2 3 3 376 378 370 381
773 4 2 3 3 341 360 286 382
774 4 2 3 3 345 340 361 293
775 4 2 3 3 119 291 356 368
776 4 2 3 3 345 352 290 361
777 4 2 3 3 352 342 291 361
778 4 2 3 3 360 341 287 349
779 4 2 3 3 340 354 361 292
780 4 2 3 3 330 289 346 294
781 4 2 3 3 349 360 353 296
782 4 2 3 3 293 334 340 131
783 4 2 3 3 289 346 294 327
784 4 2 3 3 316 271 291 324
785 4 2 3 3 372 337 357 381
786 4 2 3 3 362 119 290 352
787 4 2 3 3 360 381 286 382
788 4 2 3 3 332 353 128 296
789 4 2 3 3 356 119 368 352
790 4 2 3 3 293 345 290 329
791 4 2 3 3 294 295 350 130
792 4 2 3 3 287 341 286 382
793 4 2 3 3 288 328 351 295
794 4 2 3 3 350 344 346 294
795 4 2 3 3 287 122 365 341
796 4 2 3 3 372 371 373 381
797 4 2 3 3 295 351 288 327
798 4 2 3 3 296 287 349 326
799 4 2 3 3 289 288 121 347
800 4 2 3 3 337 128 353 381
801 4 2 3 3 370 376 381 382
802 4 2 3 3 345 290 330 293
803 4 2 3 3 347 288 348 351
804 4 2 3 3 349 328 287 296
805 4 2 3 3 118 126 317 368
806 4 2 3 3 289 347 339 346
807 4 2 3 3 272 318 319 292
808 4 2 3 3 133 337 372 134
809 4 2 3 3 134 128 337 381
810 4 2 3 3 345 344 340 293
811 4 2 3 3 350 351 338 295
812 4 2 3 3 337 372 380 133
813 4 2 3 3 341 348 287 349
814 4 2 3 3 128 297 353 381
815 4 2 3 3 339 352 290 345
816 4 2 3 3 353 338 349 296
817 4 2 3 3 376 369 378 381
818 4 2 3 3 344 293 294 132
819 4 2 3 3 354 318 319 359
820 4 2 3 3 288 287 123 348
821 4 2 3 3 292 293 340 131
822 4 2 3 3 317 271 291 316
823 4 2 3 3 360 355 381 382
824 4 2 3 3 122 341 287 382
825 4 2 3 3 290 289 120 339
826 4 2 3 3 296 129 338 295
827 4 2 3 3 119 291 290 352
828 4 2 3 3 353 128 296 297
829 4 2 3 3 134 297 128 381
830 4 2 3 3 350 335 333 301
831 4 2 3 3 310 364 366 347
832 4 2 3 3 278 377 325 381
833 4 2 3 3 120 119 290 362
834 4 2 3 3 118 119 126 368
835 4 2 3 3 131 293 334 132
836 4 2 3 3 128 129 332 296
837 4 2 3 3 350 344 335 301
838 4 2 3 3 366 348 310 347
839 4 2 3 3 363 364 311 339
840 4 2 3 3 333 331 338 302
841 4 2 3 3 122 287 286 382
842 4 2 3 3 287 122 123 365
843 4 2 3 3 350 333 338 302
844 4 2 3 3 372 357 371 381
845 4 2 3 3 316 317 356 342
846 4 2 3 3 133 128 337 134
847 4 2 3 3 347 311 364 339
848 4 2 3 3 292 319 272 127
849 4 2 3 3 362 363 312 339
850 4 2 3 3 368 119 362 352
851 4 2 3 3 337 332 353 128
852 4 2 3 3 331 332 338 303
853 4 2 3 3 335 344 334 300
854 4 2 3 3 119 118 291 368
855 4 2 3 3 348 309 365 366
856 4 2 3 3 352 362 312 339
857 4 2 3 3 336 319 127 135
858 4 2 3 3 353 338 332 303
859 4 2 3 3 122 365 341 382
860 4 2 3 3 127 292 336 131
861 4 2 3 3 344 340 334 300
862 4 2 3 3 365 309 348 341
863 4 2 3 3 130 333 335 32
864 4 2 3 3 130 331 333 33
865 4 2 3 3 364 50 121 363
866 4 2 3 3 125 376 375 382
867 4 2 3 3 353 343 357 381
868 4 2 3 3 336 127 131 135
869 4 2 3 3 373 377 134 381
870 4 2 3 3 277 286 325 376
871 4 2 3 3 291 118 271 317
872 4 2 3 3 369 325 377 381
873 4 2 3 3 123 49 364 366
874 4 2 3 3 130 335 132 32
875 4 2 3 3 378 355 370 381
876 4 2 3 3 120 121 50 363
877 4 2 3 3 130 129 331 33
878 4 2 3 3 123 49 121 364
879 4 2 3 3 370 381 355 382
880 4 2 3 3 48 123 365 366
881 4 2 3 3 371 357 343 381
882 4 2 3 3 336 319 321 359
883 4 2 3 3 34 331 332 129
884 4 2 3 3 355 360 341 382
885 4 2 3 3 316 342 283 315
886 4 2 3 3 299 340 334 359
887 4 2 3 3 283 342 354 315
888 4 2 3 3 363 51 120 362
889 4 2 3 3 370 375 376 382
890 4 2 3 3 132 335 334 31
891 4 2 3 3 332 34 129 128
892 4 2 3 3 48 123 122 365
893 4 2 3 3 119 120 51 362
894 4 2 3 3 299 334 336 359
895 4 2 3 3 132 334 131 31
896 4 2 3 3 317 320 356 368
897 4 2 3 3 318 283 354 315
898 4 2 3 3 378 369 377 381
899 4 2 3 3 319 336 322 135
900 4 2 3 3 286 376 125 382
901 4 2 3 3 343 353 360 381
902 4 2 3 3 317 126 323 368
903 4 2 3 3 378 306 355 381
904 4 2 3 3 377 373 371 381
905 4 2 3 3 272 271 324 276
906 4 2 3 3 278 134 377 381
907 4 2 3 3 297 278 325 381
908 4 2 3 3 304 337 353 357
909 4 2 3 3 368 313 356 352
910 4 2 3 3 365 308 341 382
911 4 2 3 3 321 319 284 359
912 4 2 3 3 379 125 375 382
913 4 2 3 3 353 332 337 304
914 4 2 3 3 368 362 313 352
915 4 2 3 3 319 318 284 359
916 4 2 3 3 125 40 379 375
917 4 2 3 3 380 373 39 134
918 4 2 3 3 316 356 317 282
919 4 2 3 3 358 341 308 382
920 4 2 3 3 297 286 326 381
921 4 2 3 3 322 127 319 135
922 4 2 3 3 356 320 317 282
923 4 2 3 3 277 286 376 125
924 4 2 3 3 336 321 299 359
925 4 2 3 3 378 370 355 306
926 4 2 3 3 336 281 319 322
927 4 2 3 3 299 321 273 359
928 4 2 3 3 372 305 371 357
929 4 2 3 3 323 320 317 368
930 4 2 3 3 370 374 358 307
931 4 2 3 3 343 355 306 381
932 4 2 3 3 377 278 373 134
933 4 2 3 3 319 281 336 321
934 4 2 3 3 343 371 305 357
935 4 2 3 3 307 358 370 355
936 4 2 3 3 308 365 367 382
937 4 2 3 3 374 370 358 382
938 4 2 3 3 375 125 277 376
939 4 2 3 3 358 370 355 382
940 4 2 3 3 285 320 323 368
941 4 2 3 3 15 380 337 298
942 4 2 3 3 367 314 280 374
943 4 2 3 3 281 273 336 321
944 4 2 3 3 299 334 340 300
945 4 2 3 3 379 375 374 382
946 4 2 3 3 356 316 342 282
947 4 2 3 3 318 354 284 359
948 4 2 3 3 337 35 128 133
949 4 2 3 3 308 309 365 341
950 4 2 3 3 379 124 125 382
951 4 2 3 3 333 350 301 302
952 4 2 3 3 310 311 364 347
953 4 2 3 3 332 353 303 304
954 4 2 3 3 127 319 23 322
955 4 2 3 3 362 312 313 352
956 4 2 3 3 119 52 126 368
957 4 2 3 3 273 336 321 299
958 4 2 3 3 337 380 15 133
959 4 2 3 3 371 378 377 381
960 4 2 3 3 355 343 360 381
961 4 2 3 3 367 280 358 374
962 4 2 3 3 300 335 344 301
963 4 2 3 3 311 312 363 339
964 4 2 3 3 380 372 337 298
965 4 2 3 3 133 380 39 134
966 4 2 3 3 40 124 125 379
967 4 2 3 3 302 331 338 303
968 4 2 3 3 285 323 6 368
969 4 2 3 3 47 124 367 382
970 4 2 3 3 281 336 8 322
971 4 2 3 3 374 367 314 379
972 4 2 3 3 310 309 348 366
973 4 2 3 3 47 122 124 382
974 4 2 3 3 276 292 324 272
975 4 2 3 3 332 337 35 128
976 4 2 3 3 276 271 324 275
977 4 2 3 3 118 126 323 317
978 4 2 3 3 291 275 324 271
979 4 2 3 3 371 306 343 305
980 4 2 3 3 52 119 362 368
981 4 2 3 3 374 367 379 382
982 4 2 3 3 358 367 374 382
983 4 2 3 3 358 308 367 382
984 4 2 3 3 124 379 367 382
985 4 2 3 3 377 369 278 325
986 4 2 3 3 122 367 365 382
987 4 2 3 3 126 6 323 368
988 4 2 3 3 337 372 279 298
989 4 2 3 3 341 358 355 382
990 4 2 3 3 320 274 356 368
991 4 2 3 3 23 127 322 135
992 4 2 3 3 279 372 337 357
993 4 2 3 3 17 314 367 379
994 4 2 3 3 375 370 374 382
995 4 2 3 3 355 370 307 306
996 4 2 3 3 277 369 376 325
997 4 2 3 3 336 8 322 135
998 4 2 3 3 297 134 278 381
999 4 2 3 3 367 124 17 379
1000 4 2 3 3 118 323 21 317
1001 4 2 3 3 6 126 52 368
1002 4 2 3 3 308 280 358 367
1003 4 2 3 3 30 336 131 135
1004 4 2 3 3 271 272 324 315
1005 4 2 3 3 35 337 15 133
1006 4 2 3 3 49 50 121 364
1007 4 2 3 3 316 342 282 283
1008 4 2 3 3 333 130 33 32
1009 4 2 3 3 367 47 122 365
1010 4 2 3 3 285 274 320 368
1011 4 2 3 3 323 21 126 118
1012 4 2 3 3 131 334 336 30
1013 4 2 3 3 35 34 332 128
1014 4 2 3 3 119 51 52 362
1015 4 2 3 3 47 367 122 382
1016 4 2 3 3 283 354 284 318
1017 4 2 3 3 334 131 31 30
1018 4 2 3 3 325 286 297 381
1019 4 2 3 3 47 48 122 365
1020 4 2 3 3 8 336 30 135
1021 4 2 3 3 31 132 335 32
1022 4 2 3 3 50 51 120 363
1023 4 2 3 3 129 34 331 33
1024 4 2 3 3 125 124 122 382
1025 4 2 3 3 304 279 337 357
1026 4 2 3 3 49 123 48 366
1027 4 2 3 3 313 356 274 368
1028 4 2 3 3 372 279 305 357
1029 4 2 3 3 47 124 17 367
1030 4 2 3 3 321 284 273 359
1031 4 2 3 3 54 287 122 123
1032 4 2 3 3 60 293 131 132
1033 4 2 3 3 290 119 120 57
1034 4 2 3 3 296 128 129 63
1035 4 2 3 3 320 356 274 282
1036 4 2 3 3 280 358 374 307
1037 4 2 3 3 122 286 125 382
1038 4 2 3 3 277 19 53 125
1039 4 2 3 3 277 53 286 125
1040 4 2 3 3 297 18 278 134
1041 4 2 3 3 276 292 272 127
1042 4 2 3 3 55 289 288 121
1043 4 2 3 3 64 18 297 134
1044 4 2 3 3 61 295 294 130
1045 4 2 3 3 289 55 56 121
1046 4 2 3 3 61 62 295 130
1047 4 2 3 3 59 60 293 131
1048 4 2 3 3 291 275 271 118
1049 4 2 3 3 61 294 132 130
1050 4 2 3 3 59 293 292 131
1051 4 2 3 3 57 290 119 58
1052 4 2 3 3 290 291 119 58
1053 4 2 3 3 289 120 121 56
1054 4 2 3 3 296 128 63 64
1055 4 2 3 3 128 296 297 64
1056 4 2 3 3 23 272 319 127
1057 4 2 3 3 287 286 53 122
1058 4 2 3 3 287 53 54 122
1059 4 2 3 3 293 61 132 60
1060 4 2 3 3 61 293 132 294
1061 4 2 3 3 290 56 57 120
1062 4 2 3 3 295 62 129 130
1063 4 2 3 3 62 296 129 63
1064 4 2 3 3 290 289 56 120
1065 4 2 3 3 296 295 62 129
1066 4 2 3 3 121 288 55 123
1067 4 2 3 3 287 55 123 54
1068 4 2 3 3 287 55 288 123
1069 4 2 3 3 276 13 292 127
1070 4 2 3 3 291 12 275 118
1071 4 2 3 3 13 59 292 127
1072 4 2 3 3 58 12 291 118
1073 4 2 3 3 39 373 278 134
1074 4 2 3 3 40 125 277 375
1075 4 2 3 3 40 17 124 379
1076 4 2 3 3 21 271 118 317
1077 4 2 3 3 369 277 278 325
1078 4 2 3 3 15 380 39 133
1079 4 2 3 3 291 118 119 58
1080 4 2 3 3 59 292 127 131
1081 4 2 3 3 322 8 23 135
1082 4 2 3 3 297 134 128 64
1083 4 2 3 3 53 286 125 122
1084 4 2 3 3 23 9 272 127
1085 4 2 3 3 5 21 271 118
1086 4 2 3 3 13 276 9 127
1087 4 2 3 3 39 278 18 134
1088 4 2 3 3 125 277 19 40
1089 4 2 3 3 126 6 21 323
1090 4 2 3 3 12 5 275 118
1091 4 2 3 3 276 272 9 127
1092 4 2 3 3 275 5 271 118
1093 4 2 3 3 324 342 316 315
1094 4 2 3 3 324 316 342 291
1095 4 2 3 3 372 134 380 133
1096 4 2 3 3 380 134 372 373
1097 4 2 3 3 292 315 361 324
1098 4 2 3 3 292 361 315 354
1099 4 2 3 3 342 361 315 324
1100 4 2 3 3 342 315 361 354
1101 4 2 3 3 315 292 272 324
1102 4 2 3 3 272 292 315 318
1103 4 2 3 3 286 376 381 325
1104 4 2 3 3 381 376 286 382
1105 4 2 3 3 359 334 131 340
1106 4 2 3 3 359 131 334 336
1107 4 2 3 3 306 381 371 343
1108 4 2 3 3 371 381 306 378
1109 4 2 4 4 475 467 443 493
1110 4 2 4 4 403 443 467 493
1111 4 2 4 4 456 399 441 476
1112 4 2 4 4 475 467 402 443
1113 4 2 4 4 475 455 443 405
1114 4 2 4 4 468 476 441 408
1115 4 2 4 4 456 441 398 476
1116 4 2 4 4 443 455 475 404
1117 4 2 4 4 460 441 476 408
1118 4 2 4 4 476 399 441 460
1119 4 2 4 4 468 441 476 409
1120 4 2 4 4 402 464 475 443
1121 4 2 4 4 465 442 400 461
1122 4 2 4 4 488 471 458 409
1123 4 2 4 4 443 464 475 405
1124 4 2 4 4 461 465 442 466
1125 4 2 4 4 461 445 400 459
1126 4 2 4 4 442 400 401 465
1127 4 2 4 4 465 401 442 466
1128 4 2 4 4 398 440 476 409
1129 4 2 4 4 442 461 462 407
1130 4 2 4 4 398 486 473 470
1131 4 2 4 4 444 466 463 406
1132 4 2 4 4 444 463 405 406
1133 4 2 4 4 445 399 400 459
1134 4 2 4 4 475 443 404 493
1135 4 2 4 4 442 461 466 462
1136 4 2 4 4 459 461 445 460
1137 4 2 4 4 454 461 445 407
1138 4 2 4 4 406 442 462 407
1139 4 2 4 4 453 402 401 444
1140 4 2 4 4 462 466 442 406
1141 4 2 4 4 445 399 459 460
1142 4 2 4 4 399 441 398 456
1143 4 2 4 4 480 400 481 465
1144 4 2 4 4 401 466 453 444
1145 4 2 4 4 464 463 405 444
1146 4 2 4 4 407 445 454 408
1147 4 2 4 4 463 464 466 444
1148 4 2 4 4 403 402 467 443
1149 4 2 4 4 454 445 461 460
1150 4 2 4 4 462 448 450 406
1151 4 2 4 4 478 477 402 453
1152 4 2 4 4 404 443 455 405
1153 4 2 4 4 454 447 446 408
1154 4 2 4 4 479 481 399 459
1155 4 2 4 4 402 453 464 444
1156 4 2 4 4 408 441 468 409
1157 4 2 4 4 458 487 488 409
1158 4 2 4 4 400 481 465 459
1159 4 2 4 4 463 450 449 405
1160 4 2 4 4 460 454 445 408
1161 4 2 4 4 446 448 454 407
1162 4 2 4 4 464 453 466 444
1163 4 2 4 4 480 478 401 453
1164 4 2 4 4 463 462 450 406
1165 4 2 4 4 465 480 401 453
1166 4 2 4 4 467 402 477 453
1167 4 2 4 4 456 479 399 459
1168 4 2 4 4 462 454 448 407
1169 4 2 4 4 454 468 447 408
1170 4 2 4 4 449 455 463 405
1171 4 2 4 4 446 448 407 265
1172 4 2 4 4 481 250 400 480
1173 4 2 4 4 250 478 401 480
1174 4 2 4 4 486 483 398 473
1175 4 2 4 4 471 488 451 409
1176 4 2 4 4 471 468 458 409
1177 4 2 4 4 401 250 480 465
1178 4 2 4 4 480 250 400 465
1179 4 2 4 4 448 462 407 265
1180 4 2 4 4 456 398 473 470
1181 4 2 4 4 408 447 446 264
1182 4 2 4 4 481 399 251 479
1183 4 2 4 4 462 448 406 265
1184 4 2 4 4 486 398 485 470
1185 4 2 4 4 402 247 477 478
1186 4 2 4 4 476 441 398 409
1187 4 2 4 4 267 449 450 405
1188 4 2 4 4 481 251 399 459
1189 4 2 4 4 488 451 409 262
1190 4 2 4 4 446 454 408 264
1191 4 2 4 4 267 450 448 406
1192 4 2 4 4 473 249 398 456
1193 4 2 4 4 478 250 401 247
1194 4 2 4 4 406 448 267 265
1195 4 2 4 4 484 487 458 409
1196 4 2 4 4 471 468 409 263
1197 4 2 4 4 267 463 450 406
1198 4 2 4 4 467 472 482 493
1199 4 2 4 4 450 463 267 405
1200 4 2 4 4 402 247 478 453
1201 4 2 4 4 265 407 446 264
1202 4 2 4 4 400 251 250 481
1203 4 2 4 4 481 400 251 459
1204 4 2 4 4 483 398 246 486
1205 4 2 4 4 478 247 401 453
1206 4 2 4 4 470 398 485 484
1207 4 2 4 4 454 446 407 264
1208 4 2 4 4 434 439 427 493
1209 4 2 4 4 483 249 398 473
1210 4 2 4 4 436 428 434 493
1211 4 2 4 4 409 451 471 263
1212 4 2 4 4 476 456 399 460
1213 4 2 4 4 455 475 404 494
1214 4 2 4 4 398 456 476 470
1215 4 2 4 4 468 460 476 408
1216 4 2 4 4 476 458 468 409
1217 4 2 4 4 464 467 402 475
1218 4 2 4 4 455 475 464 405
1219 4 2 4 4 473 483 249 456
1220 4 2 4 4 479 399 249 456
1221 4 2 4 4 482 472 430 493
1222 4 2 4 4 400 445 461 407
1223 4 2 4 4 468 447 408 263
1224 4 2 4 4 468 471 451 263
1225 4 2 4 4 461 442 400 407
1226 4 2 4 4 477 248 402 467
1227 4 2 4 4 460 399 441 408
1228 4 2 4 4 402 464 443 405
1229 4 2 4 4 475 493 404 494
1230 4 2 4 4 266 455 449 405
1231 4 2 4 4 250 401 400 465
1232 4 2 4 4 429 431 430 493
1233 4 2 4 4 401 466 444 406
1234 4 2 4 4 404 405 455 494
1235 4 2 4 4 461 400 465 459
1236 4 2 4 4 466 401 442 406
1237 4 2 4 4 407 462 406 265
1238 4 2 4 4 428 434 493 494
1239 4 2 4 4 445 399 460 408
1240 4 2 4 4 402 464 405 444
1241 4 2 4 4 467 482 248 493
1242 4 2 4 4 483 246 254 486
1243 4 2 4 4 462 463 466 406
1244 4 2 4 4 454 462 461 407
1245 4 2 4 4 488 487 391 409
1246 4 2 4 4 459 399 456 460
1247 4 2 4 4 466 465 401 453
1248 4 2 4 4 248 482 253 493
1249 4 2 4 4 458 487 471 488
1250 4 2 4 4 453 467 402 464
1251 4 2 4 4 455 464 463 405
1252 4 2 4 4 454 460 468 408
1253 4 2 4 4 467 248 403 493
1254 4 2 4 4 436 434 427 493
1255 4 2 4 4 400 399 251 459
1256 4 2 4 4 486 398 392 485
1257 4 2 4 4 399 398 249 456
1258 4 2 4 4 463 267 405 406
1259 4 2 4 4 408 454 407 264
1260 4 2 4 4 409 468 408 263
1261 4 2 4 4 475 469 493 494
1262 4 2 4 4 455 405 266 494
1263 4 2 4 4 247 402 401 453
1264 4 2 4 4 403 402 248 467
1265 4 2 4 4 481 480 465 422
1266 4 2 4 4 448 413 462 450
1267 4 2 4 4 488 451 262 270
1268 4 2 4 4 383 435 439 493
1269 4 2 4 4 248 253 403 493
1270 4 2 4 4 264 408 447 263
1271 4 2 4 4 399 249 251 479
1272 4 2 4 4 254 249 246 483
1273 4 2 4 4 422 465 481 459
1274 4 2 4 4 247 248 402 477
1275 4 2 4 4 463 462 413 450
1276 4 2 4 4 448 454 414 446
1277 4 2 4 4 423 478 480 453
1278 4 2 4 4 449 267 266 405
1279 4 2 4 4 480 465 423 453
1280 4 2 4 4 429 430 472 493
1281 4 2 4 4 404 266 405 494
1282 4 2 4 4 462 454 414 448
1283 4 2 4 4 262 451 409 263
1284 4 2 4 4 468 451 447 263
1285 4 2 4 4 253 248 252 482
1286 4 2 4 4 391 488 409 262
1287 4 2 4 4 415 454 447 446
1288 4 2 4 4 483 479 249 456
1289 4 2 4 4 478 477 453 424
1290 4 2 4 4 248 477 482 467
1291 4 2 4 4 485 473 486 470
1292 4 2 4 4 451 262 270 263
1293 4 2 4 4 398 246 249 483
1294 4 2 4 4 481 479 421 459
1295 4 2 4 4 450 412 463 449
1296 4 2 4 4 454 468 415 447
1297 4 2 4 4 477 467 453 424
1298 4 2 4 4 449 455 266 494
1299 4 2 4 4 456 421 479 459
1300 4 2 4 4 455 463 412 449
1301 4 2 4 4 184 250 481 480
1302 4 2 4 4 478 250 185 480
1303 4 2 4 4 446 448 265 169
1304 4 2 4 4 269 434 433 494
1305 4 2 4 4 457 472 467 493
1306 4 2 4 4 431 435 253 493
1307 4 2 4 4 384 404 439 434
1308 4 2 4 4 398 392 246 486
1309 4 2 4 4 427 439 435 493
1310 4 2 4 4 267 448 450 168
1311 4 2 4 4 436 469 428 493
1312 4 2 4 4 184 250 251 481
1313 4 2 4 4 264 446 265 169
1314 4 2 4 4 265 448 267 168
1315 4 2 4 4 250 185 247 478
1316 4 2 4 4 247 186 477 478
1317 4 2 4 4 428 493 469 494
1318 4 2 4 4 167 449 450 267
1319 4 2 4 4 429 472 457 493
1320 4 2 4 4 455 469 475 494
1321 4 2 4 4 418 458 470 484
1322 4 2 4 4 458 418 487 484
1323 4 2 4 4 451 488 491 270
1324 4 2 4 4 447 446 264 170
1325 4 2 4 4 481 251 183 479
1326 4 2 4 4 434 428 433 494
1327 4 2 4 4 248 247 186 477
1328 4 2 4 4 267 167 449 266
1329 4 2 4 4 170 264 447 263
1330 4 2 4 4 249 183 251 479
1331 4 2 4 4 488 490 471 451
1332 4 2 4 4 483 486 489 473
1333 4 2 4 4 470 485 418 484
1334 4 2 4 4 436 427 435 493
1335 4 2 4 4 269 404 434 494
1336 4 2 4 4 475 457 467 493
1337 4 2 4 4 483 254 492 486
1338 4 2 4 4 469 436 395 493
1339 4 2 4 4 435 431 429 493
1340 4 2 4 4 392 391 440 388
1341 4 2 4 4 383 253 435 493
1342 4 2 4 4 403 383 439 493
1343 4 2 4 4 472 467 482 425
1344 4 2 4 4 468 471 416 451
1345 4 2 4 4 473 420 483 456
1346 4 2 4 4 411 455 449 494
1347 4 2 4 4 490 471 417 488
1348 4 2 4 4 477 482 467 425
1349 4 2 4 4 416 468 451 447
1350 4 2 4 4 471 487 417 488
1351 4 2 4 4 438 269 433 494
1352 4 2 4 4 479 483 420 456
1353 4 2 4 4 159 433 438 269
1354 4 2 4 4 419 473 486 485
1355 4 2 4 4 411 474 455 494
1356 4 2 4 4 410 451 488 491
1357 4 2 4 4 491 488 262 270
1358 4 2 4 4 403 404 443 493
1359 4 2 4 4 486 489 473 419
1360 4 2 4 4 384 404 434 269
1361 4 2 4 4 469 395 436 428
1362 4 2 4 4 394 429 430 472
1363 4 2 4 4 486 492 483 489
1364 4 2 4 4 474 396 428 432
1365 4 2 4 4 457 469 395 493
1366 4 2 4 4 431 383 253 435
1367 4 2 4 4 457 429 394 472
1368 4 2 4 4 451 488 490 410
1369 4 2 4 4 143 451 410 491
1370 4 2 4 4 384 434 433 269
1371 4 2 4 4 474 396 469 428
1372 4 2 4 4 411 449 452 494
1373 4 2 4 4 474 432 428 494
1374 4 2 4 4 426 483 492 489
1375 4 2 4 4 428 469 474 494
1376 4 2 4 4 417 458 487 471
1377 4 2 4 4 137 482 397 437
1378 4 2 4 4 491 143 451 270
1379 4 2 4 4 393 432 385 452
1380 4 2 4 4 432 438 433 494
1381 4 2 4 4 412 411 455 449
1382 4 2 4 4 187 252 248 482
1383 4 2 4 4 420 421 479 456
1384 4 2 4 4 423 465 480 422
1385 4 2 4 4 414 413 462 448
1386 4 2 4 4 467 477 425 424
1387 4 2 4 4 268 269 438 494
1388 4 2 4 4 491 262 488 173
1389 4 2 4 4 468 416 415 447
1390 4 2 4 4 254 182 249 483
1391 4 2 4 4 485 419 473 470
1392 4 2 4 4 270 171 451 263
1393 4 2 4 4 482 137 252 437
1394 4 2 4 4 429 436 435 493
1395 4 2 4 4 490 389 471 451
1396 4 2 4 4 469 457 475 493
1397 4 2 4 4 432 474 385 452
1398 4 2 4 4 421 422 481 459
1399 4 2 4 4 454 415 414 446
1400 4 2 4 4 430 397 482 437
1401 4 2 4 4 438 268 159 269
1402 4 2 4 4 453 423 478 424
1403 4 2 4 4 483 492 149 426
1404 4 2 4 4 268 452 166 494
1405 4 2 4 4 438 432 393 452
1406 4 2 4 4 412 463 413 450
1407 4 2 4 4 268 166 266 494
1408 4 2 4 4 409 388 440 391
1409 4 2 4 4 246 492 254 486
1410 4 2 4 4 387 398 440 392
1411 4 2 4 4 394 429 457 395
1412 4 2 4 4 477 187 248 482
1413 4 2 4 4 388 392 387 440
1414 4 2 4 4 479 249 182 483
1415 4 2 4 4 447 451 171 263
1416 4 2 4 4 438 432 452 494
1417 4 2 4 4 452 432 474 494
1418 4 2 4 4 474 411 452 494
1419 4 2 4 4 438 452 268 494
1420 4 2 4 4 427 383 435 439
1421 4 2 4 4 149 254 492 483
1422 4 2 4 4 449 266 452 494
1423 4 2 4 4 397 482 386 430
1424 4 2 4 4 474 469 455 494
1425 4 2 4 4 262 491 270 173
1426 4 2 4 4 489 390 483 473
1427 4 2 4 4 430 482 386 472
1428 4 2 4 4 393 139 438 452
1429 4 2 4 4 451 490 389 410
1430 4 2 4 4 434 384 427 439
1431 4 2 4 4 433 428 432 494
1432 4 2 4 4 395 469 396 428
1433 4 2 4 4 403 253 383 493
1434 4 2 4 4 139 438 452 268
1435 4 2 4 4 171 451 143 270
1436 4 2 4 4 246 175 492 486
1437 4 2 4 4 254 149 182 483
1438 4 2 4 4 474 411 385 452
1439 4 2 4 4 392 391 484 440
1440 4 2 4 4 137 252 187 482
1441 4 2 4 4 487 418 458 417
1442 4 2 4 4 448 265 169 168
1443 4 2 4 4 184 185 250 480
1444 4 2 4 4 452 449 166 266
1445 4 2 4 4 390 483 426 489
1446 4 2 4 4 492 254 175 246
1447 4 2 4 4 249 182 183 479
1448 4 2 4 4 171 170 447 263
1449 4 2 4 4 186 187 248 477
1450 4 2 4 4 471 417 389 490
1451 4 2 4 4 452 266 166 494
1452 4 2 4 4 449 167 166 266
1453 4 2 4 4 403 439 404 493
1454 4 2 4 4 470 485 419 418
1455 4 2 4 4 169 264 446 170
1456 4 2 4 4 183 184 251 481
1457 4 2 4 4 420 483 390 473
1458 4 2 4 4 266 269 268 494
1459 4 2 4 4 472 482 386 425
1460 4 2 4 4 186 247 185 478
1461 4 2 4 4 450 167 267 168
1462 4 2 4 4 416 471 389 451
1463 4 2 4 4 394 430 386 472
1464 4 2 4 4 166 139 452 268
1465 4 2 4 4 248 402 192 247
1466 4 2 4 4 267 266 405 195
1467 4 2 4 4 198 408 264 263
1468 4 2 4 4 399 251 249 189
1469 4 2 4 4 473 489 390 419
1470 4 2 4 4 396 474 385 432
1471 4 2 4 4 266 404 269 494
1472 4 2 4 4 403 140 253 193
1473 4 2 4 4 404 384 141 269
1474 4 2 4 4 140 403 253 383
1475 4 2 4 4 409 388 391 262
1476 4 2 4 4 141 194 404 269
1477 4 2 4 4 401 190 191 250
1478 4 2 4 4 196 265 407 406
1479 4 2 4 4 265 196 407 197
1480 4 2 4 4 401 400 190 250
1481 4 2 4 4 198 409 263 199
1482 4 2 4 4 387 398 392 246
1483 4 2 4 4 409 198 263 408
1484 4 2 4 4 398 249 188 399
1485 4 2 4 4 399 249 188 189
1486 4 2 4 4 250 251 400 190
1487 4 2 4 4 197 407 265 264
1488 4 2 4 4 391 488 262 173
1489 4 2 4 4 192 193 403 248
1490 4 2 4 4 192 403 402 248
1491 4 2 4 4 194 405 404 266
1492 4 2 4 4 194 405 266 195
1493 4 2 4 4 197 408 407 264
1494 4 2 4 4 408 197 198 264
1495 4 2 4 4 399 189 400 251
1496 4 2 4 4 400 189 190 251
1497 4 2 4 4 402 401 192 247
1498 4 2 4 4 192 191 247 401
1499 4 2 4 4 153 409 199 262
1500 4 2 4 4 409 153 388 262
1501 4 2 4 4 267 196 406 265
1502 4 2 4 4 406 195 267 405
1503 4 2 4 4 195 406 267 196
1504 4 2 4 4 191 401 250 247
1505 4 2 4 4 387 188 398 246
1506 4 2 4 4 387 188 246 154
1507 4 2 4 4 159 384 433 269
1508 4 2 4 4 383 253 158 431
1509 4 2 4 4 268 139 438 159
1510 4 2 4 4 392 175 246 486
1511 4 2 4 4 427 384 383 439
1512 4 2 4 4 188 246 249 398
1513 4 2 4 4 137 158 252 437
1514 4 2 4 4 409 199 262 263
1515 4 2 4 4 270 491 143 173
1516 4 2 4 4 253 403 193 248
1517 4 2 4 4 266 269 404 194
1518 4 2 4 4 262 147 391 173
1519 4 2 4 4 150 392 175 246
1520 4 2 4 4 388 153 147 262
1521 4 2 4 4 159 141 384 269
1522 4 2 4 4 253 140 383 158
1523 4 2 4 4 254 175 149 492
1524 4 2 4 4 150 154 387 246
1525 4 2 4 4 388 147 391 262
1526 4 2 4 4 392 150 387 246
1527 4 2 4 4 409 484 476 458
1528 4 2 4 4 409 476 484 440
1529 4 2 4 4 470 476 484 458
1530 4 2 4 4 431 493 482 430
1531 4 2 4 4 482 493 431 253
1532 4 2 4 4 431 252 482 253
1533 4 2 4 4 398 484 476 440
1534 4 2 4 4 476 484 398 470
1535 4 2 4 4 484 398 392 440
1536 4 2 4 4 484 392 398 485
1537 4 2 4 4 409 484 391 440
1538 4 2 4 4 409 391 484 487
1539 4 2 4 4 431 252 158 437
1540 4 2 4 4 431 158 252 253
1541 4 2 4 4 404 434 493 439
1542 4 2 4 4 404 493 434 494
1543 4 2 4 4 395 493 429 457
1544 4 2 4 4 429 493 395 436
1545 4 2 4 4 482 431 437 252
1546 4 2 4 4 437 431 482 430
1547 4 2 5 5 435 429 431 557
1548 4 2 5 5 435 431 507 557
1549 4 2 5 5 375 376 508 558
1550 4 2 5 5 370 376 375 558
1551 4 2 5 5 376 555 508 558
1552 4 2 5 5 370 555 376 558
1553 4 2 5 5 369 553 376 555
1554 4 2 5 5 377 553 369 555
1555 4 2 5 5 433 428 434 559
1556 4 2 5 5 428 557 434 559
1557 4 2 5 5 540 556 557 559
1558 4 2 5 5 554 555 510 557
1559 4 2 5 5 434 557 510 559
1560 4 2 5 5 374 375 379 560
1561 4 2 5 5 431 557 429 558
1562 4 2 5 5 534 540 556 557
1563 4 2 5 5 374 558 375 560
1564 4 2 5 5 507 557 431 558
1565 4 2 5 5 376 553 508 555
1566 4 2 5 5 159 506 527 559
1567 4 2 5 5 510 554 509 555
1568 4 2 5 5 433 434 510 559
1569 4 2 5 5 540 557 428 559
1570 4 2 5 5 516 558 374 560
1571 4 2 5 5 435 552 427 557
1572 4 2 5 5 506 520 527 559
1573 4 2 5 5 534 556 555 557
1574 4 2 5 5 555 556 510 557
1575 4 2 5 5 375 374 370 558
1576 4 2 5 5 378 369 376 555
1577 4 2 5 5 547 527 541 559
1578 4 2 5 5 159 527 547 559
1579 4 2 5 5 509 553 377 555
1580 4 2 5 5 427 552 434 557
1581 4 2 5 5 530 556 540 559
1582 4 2 5 5 431 558 430 561
1583 4 2 5 5 430 431 429 558
1584 4 2 5 5 377 369 378 555
1585 4 2 5 5 539 558 515 561
1586 4 2 5 5 510 557 556 559
1587 4 2 5 5 506 520 559 562
1588 4 2 5 5 430 539 515 561
1589 4 2 5 5 375 558 508 560
1590 4 2 5 5 507 558 431 561
1591 4 2 5 5 538 428 432 559
1592 4 2 5 5 430 558 539 561
1593 4 2 5 5 537 374 516 558
1594 4 2 5 5 520 541 527 559
1595 4 2 5 5 509 555 377 556
1596 4 2 5 5 537 370 374 558
1597 4 2 5 5 555 557 554 558
1598 4 2 5 5 538 540 428 559
1599 4 2 5 5 430 429 539 558
1600 4 2 5 5 507 552 435 557
1601 4 2 5 5 434 552 510 557
1602 4 2 5 5 510 555 509 556
1603 4 2 5 5 530 538 546 559
1604 4 2 5 5 538 530 540 559
1605 4 2 5 5 534 540 530 556
1606 4 2 5 5 541 559 520 562
1607 4 2 5 5 503 158 528 561
1608 4 2 5 5 371 377 555 556
1609 4 2 5 5 370 537 533 558
1610 4 2 5 5 373 509 377 556
1611 4 2 5 5 503 519 560 561
1612 4 2 5 5 378 376 370 555
1613 4 2 5 5 370 533 555 558
1614 4 2 5 5 429 532 539 558
1615 4 2 5 5 532 557 555 558
1616 4 2 5 5 159 527 200 547
1617 4 2 5 5 503 528 519 561
1618 4 2 5 5 519 504 503 560
1619 4 2 5 5 532 429 557 558
1620 4 2 5 5 537 516 531 558
1621 4 2 5 5 531 515 539 558
1622 4 2 5 5 508 555 554 558
1623 4 2 5 5 518 519 528 561
1624 4 2 5 5 159 506 529 527
1625 4 2 5 5 534 555 532 557
1626 4 2 5 5 554 557 507 558
1627 4 2 5 5 530 546 542 559
1628 4 2 5 5 503 521 528 158
1629 4 2 5 5 377 378 371 555
1630 4 2 5 5 159 544 438 559
1631 4 2 5 5 435 427 436 557
1632 4 2 5 5 380 545 543 556
1633 4 2 5 5 436 427 434 557
1634 4 2 5 5 506 503 550 523
1635 4 2 5 5 371 373 377 556
1636 4 2 5 5 438 544 159 547
1637 4 2 5 5 515 558 512 561
1638 4 2 5 5 437 515 513 561
1639 4 2 5 5 516 512 531 558
1640 4 2 5 5 519 504 522 503
1641 4 2 5 5 40 375 508 560
1642 4 2 5 5 510 559 509 562
1643 4 2 5 5 159 547 544 559
1644 4 2 5 5 506 505 520 562
1645 4 2 5 5 373 556 380 562
1646 4 2 5 5 510 556 509 559
1647 4 2 5 5 506 559 510 562
1648 4 2 5 5 504 551 522 503
1649 4 2 5 5 558 560 512 561
1650 4 2 5 5 530 542 556 559
1651 4 2 5 5 531 512 515 558
1652 4 2 5 5 518 511 519 561
1653 4 2 5 5 429 435 436 557
1654 4 2 5 5 39 509 373 562
1655 4 2 5 5 39 524 505 562
1656 4 2 5 5 380 556 543 562
1657 4 2 5 5 538 432 546 559
1658 4 2 5 5 506 551 503 523
1659 4 2 5 5 370 533 378 555
1660 4 2 5 5 522 551 504 505
1661 4 2 5 5 509 559 556 562
1662 4 2 5 5 437 430 515 561
1663 4 2 5 5 525 524 39 562
1664 4 2 5 5 505 504 522 549
1665 4 2 5 5 380 372 545 556
1666 4 2 5 5 532 555 533 558
1667 4 2 5 5 428 436 434 557
1668 4 2 5 5 521 155 528 158
1669 4 2 5 5 551 522 523 505
1670 4 2 5 5 521 528 519 503
1671 4 2 5 5 556 559 542 562
1672 4 2 5 5 507 560 558 561
1673 4 2 5 5 508 558 507 560
1674 4 2 5 5 429 436 532 557
1675 4 2 5 5 503 521 550 523
1676 4 2 5 5 39 373 380 562
1677 4 2 5 5 433 432 428 559
1678 4 2 5 5 507 503 560 561
1679 4 2 5 5 158 437 518 561
1680 4 2 5 5 550 506 523 529
1681 4 2 5 5 511 560 519 561
1682 4 2 5 5 379 375 40 560
1683 4 2 5 5 532 534 533 555
1684 4 2 5 5 508 554 507 558
1685 4 2 5 5 506 523 520 505
1686 4 2 5 5 509 556 373 562
1687 4 2 5 5 513 518 437 561
1688 4 2 5 5 549 522 505 524
1689 4 2 5 5 521 519 522 503
1690 4 2 5 5 438 544 546 559
1691 4 2 5 5 520 529 506 527
1692 4 2 5 5 395 532 436 557
1693 4 2 5 5 533 306 378 555
1694 4 2 5 5 507 504 508 560
1695 4 2 5 5 503 504 507 560
1696 4 2 5 5 395 436 540 557
1697 4 2 5 5 504 38 19 40
1698 4 2 5 5 40 517 379 560
1699 4 2 5 5 506 510 509 562
1700 4 2 5 5 542 559 541 562
1701 4 2 5 5 548 39 380 562
1702 4 2 5 5 512 560 511 561
1703 4 2 5 5 536 542 545 556
1704 4 2 5 5 509 505 506 562
1705 4 2 5 5 543 556 542 562
1706 4 2 5 5 514 379 517 560
1707 4 2 5 5 140 521 503 158
1708 4 2 5 5 40 508 504 560
1709 4 2 5 5 543 548 380 562
1710 4 2 5 5 547 541 544 559
1711 4 2 5 5 504 519 522 560
1712 4 2 5 5 524 525 39 36
1713 4 2 5 5 428 540 436 557
1714 4 2 5 5 378 535 371 555
1715 4 2 5 5 535 378 306 555
1716 4 2 5 5 509 39 505 562
1717 4 2 5 5 432 438 546 559
1718 4 2 5 5 534 535 555 556
1719 4 2 5 5 372 380 373 556
1720 4 2 5 5 523 521 550 529
1721 4 2 5 5 371 555 535 556
1722 4 2 5 5 536 530 542 556
1723 4 2 5 5 372 371 536 556
1724 4 2 5 5 513 515 512 561
1725 4 2 5 5 40 277 508 375
1726 4 2 5 5 536 371 535 556
1727 4 2 5 5 278 373 39 509
1728 4 2 5 5 513 512 511 561
1729 4 2 5 5 544 541 542 559
1730 4 2 5 5 529 157 159 527
1731 4 2 5 5 520 505 524 562
1732 4 2 5 5 517 526 496 519
1733 4 2 5 5 509 508 553 555
1734 4 2 5 5 437 431 430 561
1735 4 2 5 5 543 542 541 562
1736 4 2 5 5 517 526 519 560
1737 4 2 5 5 499 525 548 562
1738 4 2 5 5 508 509 554 555
1739 4 2 5 5 531 533 537 558
1740 4 2 5 5 500 547 527 541
1741 4 2 5 5 525 499 520 562
1742 4 2 5 5 505 39 18 524
1743 4 2 5 5 519 495 518 528
1744 4 2 5 5 542 536 545 501
1745 4 2 5 5 521 140 155 158
1746 4 2 5 5 514 511 512 560
1747 4 2 5 5 428 396 538 432
1748 4 2 5 5 78 517 40 560
1749 4 2 5 5 307 370 537 533
1750 4 2 5 5 371 305 372 536
1751 4 2 5 5 531 539 532 558
1752 4 2 5 5 520 524 525 562
1753 4 2 5 5 525 39 79 562
1754 4 2 5 5 522 38 19 504
1755 4 2 5 5 526 522 519 560
1756 4 2 5 5 533 370 378 306
1757 4 2 5 5 79 39 548 562
1758 4 2 5 5 525 79 548 562
1759 4 2 5 5 78 40 526 560
1760 4 2 5 5 395 540 532 557
1761 4 2 5 5 305 371 535 536
1762 4 2 5 5 141 159 506 529
1763 4 2 5 5 394 429 532 539
1764 4 2 5 5 78 526 517 560
1765 4 2 5 5 542 536 501 530
1766 4 2 5 5 394 430 429 539
1767 4 2 5 5 542 543 545 556
1768 4 2 5 5 370 537 374 307
1769 4 2 5 5 536 545 372 556
1770 4 2 5 5 531 498 516 537
1771 4 2 5 5 519 496 517 511
1772 4 2 5 5 523 506 551 505
1773 4 2 5 5 538 540 396 428
1774 4 2 5 5 517 519 511 560
1775 4 2 5 5 535 306 533 555
1776 4 2 5 5 505 523 520 524
1777 4 2 5 5 531 539 515 497
1778 4 2 5 5 527 520 500 541
1779 4 2 5 5 438 433 159 559
1780 4 2 5 5 433 434 384 510
1781 4 2 5 5 534 530 535 556
1782 4 2 5 5 377 373 278 509
1783 4 2 5 5 507 383 431 435
1784 4 2 5 5 519 518 495 511
1785 4 2 5 5 37 522 549 524
1786 4 2 5 5 532 540 534 557
1787 4 2 5 5 375 277 508 376
1788 4 2 5 5 499 548 541 562
1789 4 2 5 5 522 523 505 524
1790 4 2 5 5 395 532 429 436
1791 4 2 5 5 499 541 520 562
1792 4 2 5 5 508 504 277 40
1793 4 2 5 5 546 438 393 544
1794 4 2 5 5 514 516 314 379
1795 4 2 5 5 509 39 278 505
1796 4 2 5 5 397 513 437 515
1797 4 2 5 5 545 298 380 543
1798 4 2 5 5 506 523 529 520
1799 4 2 5 5 521 156 550 529
1800 4 2 5 5 516 498 531 512
1801 4 2 5 5 140 158 503 561
1802 4 2 5 5 19 522 504 549
1803 4 2 5 5 532 533 531 558
1804 4 2 5 5 158 383 431 561
1805 4 2 5 5 509 278 377 553
1806 4 2 5 5 507 383 435 552
1807 4 2 5 5 433 438 432 559
1808 4 2 5 5 497 515 531 512
1809 4 2 5 5 552 384 434 510
1810 4 2 5 5 554 510 507 557
1811 4 2 5 5 552 507 510 557
1812 4 2 5 5 376 277 508 553
1813 4 2 5 5 503 507 383 561
1814 4 2 5 5 19 522 549 37
1815 4 2 5 5 159 139 438 547
1816 4 2 5 5 517 17 40 379
1817 4 2 5 5 507 431 383 561
1818 4 2 5 5 437 430 397 515
1819 4 2 5 5 298 380 372 545
1820 4 2 5 5 374 314 516 379
1821 4 2 5 5 546 438 432 393
1822 4 2 5 5 546 544 542 559
1823 4 2 5 5 372 373 371 556
1824 4 2 5 5 524 39 18 36
1825 4 2 5 5 525 79 39 36
1826 4 2 5 5 527 157 159 200
1827 4 2 5 5 518 513 511 561
1828 4 2 5 5 158 431 437 561
1829 4 2 5 5 533 534 535 555
1830 4 2 5 5 544 438 139 547
1831 4 2 5 5 517 514 17 379
1832 4 2 5 5 155 201 528 158
1833 4 2 5 5 140 521 550 503
1834 4 2 5 5 536 535 530 556
1835 4 2 5 5 78 40 38 526
1836 4 2 5 5 502 542 501 530
1837 4 2 5 5 158 137 518 437
1838 4 2 5 5 15 380 548 39
1839 4 2 5 5 140 521 156 550
1840 4 2 5 5 159 141 157 529
1841 4 2 5 5 499 500 520 541
1842 4 2 5 5 306 378 535 371
1843 4 2 5 5 513 518 137 437
1844 4 2 5 5 548 380 15 543
1845 4 2 5 5 533 307 370 306
1846 4 2 5 5 498 497 531 512
1847 4 2 5 5 517 40 17 78
1848 4 2 5 5 200 139 159 547
1849 4 2 5 5 519 495 496 511
1850 4 2 5 5 522 19 38 37
1851 4 2 5 5 18 278 39 505
1852 4 2 5 5 19 277 504 40
1853 4 2 5 5 159 384 141 506
1854 4 2 5 5 383 158 140 561
1855 4 2 5 5 549 505 18 524
1856 4 2 5 5 436 395 540 428
1857 4 2 5 5 383 140 503 561
1858 4 2 5 5 506 550 141 529
1859 4 2 5 5 137 518 201 158
1860 4 2 5 5 548 79 15 39
1861 4 2 5 5 532 429 394 395
1862 4 2 5 5 521 155 140 156
1863 4 2 5 5 37 549 18 524
1864 4 2 5 5 279 372 536 545
1865 4 2 5 5 525 14 79 36
1866 4 2 5 5 527 138 157 200
1867 4 2 5 5 550 156 141 529
1868 4 2 5 5 539 386 430 515
1869 4 2 5 5 79 14 525 548
1870 4 2 5 5 200 527 138 547
1871 4 2 5 5 528 136 201 155
1872 4 2 5 5 543 541 548 562
1873 4 2 5 5 517 511 514 560
1874 4 2 5 5 78 38 16 526
1875 4 2 5 5 278 369 377 553
1876 4 2 5 5 427 435 383 552
1877 4 2 5 5 538 385 546 432
1878 4 2 5 5 201 518 136 528
1879 4 2 5 5 16 517 78 526
1880 4 2 5 5 434 427 384 552
1881 4 2 5 5 280 516 537 374
1882 4 2 5 5 524 18 37 36
1883 4 2 5 5 376 369 277 553
1884 4 2 5 5 371 535 306 305
1885 4 2 5 5 372 279 298 545
1886 4 2 5 5 386 397 430 515
1887 4 2 5 5 157 141 156 529
1888 4 2 5 5 372 305 279 536
1889 4 2 5 5 395 396 540 428
1890 4 2 5 5 394 386 430 539
1891 4 2 5 5 518 495 136 528
1892 4 2 5 5 515 539 386 497
1893 4 2 5 5 516 280 314 374
1894 4 2 5 5 432 385 546 393
1895 4 2 5 5 16 517 526 496
1896 4 2 5 5 393 438 139 544
1897 4 2 5 5 314 17 514 379
1898 4 2 5 5 385 538 396 432
1899 4 2 5 5 547 527 138 500
1900 4 2 5 5 545 536 279 501
1901 4 2 5 5 14 499 525 548
1902 4 2 5 5 374 537 280 307
1903 4 2 5 5 549 18 19 37
1904 4 2 5 5 156 141 140 550
1905 4 2 5 5 516 498 280 537
1906 4 2 5 5 546 502 385 538
1907 4 2 5 5 397 513 137 437
1908 4 2 5 5 298 15 380 543
1909 4 2 5 5 427 383 384 552
1910 4 2 5 5 278 277 369 553
1911 4 2 5 5 17 16 517 78
1912 4 2 5 5 200 138 139 547
1913 4 2 5 5 79 15 14 548
1914 4 2 5 5 518 136 137 201
1915 4 2 5 5 560 516 512 514
1916 4 2 5 5 560 512 516 558
1917 4 2 5 5 379 516 560 514
1918 4 2 5 5 379 560 516 374
1919 4 2 5 5 518 158 528 201
1920 4 2 5 5 518 528 158 561
1921 4 2 5 5 40 560 38 526
1922 4 2 5 5 40 38 560 504
1923 4 2 5 5 522 38 560 526
1924 4 2 5 5 522 560 38 504
1925 4 2 5 5 559 433 384 510
1926 4 2 5 5 384 433 559 159
1927 4 2 5 5 384 506 559 510
1928 4 2 5 5 559 506 384 159
1929 4 2 5 5 546 530 502 538
1930 4 2 5 5 502 530 546 542
1931 4 2 5 5 523 503 522 551
1932 4 2 5 5 523 522 503 521
$EndElements
