$MeshFormat
2.2 0 8
$EndMeshFormat
$PhysicalNames
1
3 1 "air_OPEM_RESERVED_1"
$EndPhysicalNames
$Nodes
128
1 0 0 0
2 0 0.1 0
3 0.02286 0 0
4 0.02286 0.1 0
5 0.01143 0 0
6 0.01143 0.1 0
7 0.02286 0 -0.01016
8 0.02286 0.1 -0.01016
9 0 0 -0.01016
10 0 0.1 -0.01016
11 0.01143 0 -0.01016
12 0.01143 0.1 -0.01016
13 0 0.01000000000000003 0
14 0 0.02000000000000004 0
15 0 0.03000000000000006 0
16 0 0.04000000000000006 0
17 0 0.05000000000000008 0
18 0 0.0600000000000001 0
19 0 0.0700000000000001 0
20 0 0.08000000000000011 0
21 0 0.09000000000000007 0
22 0.02286 0.01000000000000003 0
23 0.02286 0.02000000000000004 0
24 0.02286 0.03000000000000006 0
25 0.02286 0.04000000000000006 0
26 0.02286 0.05000000000000008 0
27 0.02286 0.0600000000000001 0
28 0.02286 0.0700000000000001 0
29 0.02286 0.08000000000000011 0
30 0.02286 0.09000000000000007 0
31 0.005714999999999997 0 0
32 0.01714499999999999 0 0
33 0.005714999999999997 0.1 0
34 0.01714499999999999 0.1 0
35 0.02286 0.01000000000000003 -0.01016
36 0.02286 0.02000000000000004 -0.01016
37 0.02286 0.03000000000000006 -0.01016
38 0.02286 0.04000000000000006 -0.01016
39 0.02286 0.05000000000000008 -0.01016
40 0.02286 0.0600000000000001 -0.01016
41 0.02286 0.0700000000000001 -0.01016
42 0.02286 0.08000000000000011 -0.01016
43 0.02286 0.09000000000000007 -0.01016
44 0 0.01000000000000003 -0.01016
45 0 0.02000000000000004 -0.01016
46 0 0.03000000000000006 -0.01016
47 0 0.04000000000000006 -0.01016
48 0 0.05000000000000008 -0.01016
49 0 0.0600000000000001 -0.01016
50 0 0.0700000000000001 -0.01016
51 0 0.08000000000000011 -0.01016
52 0 0.09000000000000007 -0.01016
53 0.017145 0 -0.01016
54 0.005715000000000008 0 -0.01016
55 0.017145 0.1 -0.01016
56 0.005715000000000008 0.1 -0.01016
57 0.00744948342508045 0.0837844997106495 0
58 0.00852502942388411 0.05391058798810407 0
59 0.008525029423884112 0.03608941201189609 0
60 0.01458482857048302 0.01528347410427792 0
61 0.01642876317431693 0.09545116637731613 0
62 0.006431236825683061 0.004548833622683894 0
63 0.01419974596215563 0.07500000000000009 0
64 0.0141997459621556 0.04500000000000007 0
65 0.008505711621889791 0.0659337817244824 0
66 0.008694344196175553 0.02372723836948247 0
67 0.008104046520756998 0.09384171421921292 0
68 0.01463799805003778 0.006025139182919586 0
69 0.01560406058167231 0.08731530278343427 0
70 0.007154920954098377 0.01234366655347527 0
71 0.006030988201825174 0.07494365628702644 0
72 0.0148798295802698 0.06000000000000014 0
73 0.01487982958026982 0.03000000000000006 0
74 0.006219575542425426 0.04500000000000007 0
75 0.01639098412190033 0.06659793569871821 0
76 0.01639374380789952 0.03662016859692012 0
77 0.01677580046938568 0.02380214249475211 0
78 0.01639374380789951 0.05337983140308003 0
79 0.02286 0.07500000000000009 -0.005080000000000001
80 0.02286 0.08500000000000009 -0.00508
81 0.02286 0.09500000000000008 -0.005080000000000001
82 0.02286 0.05500000000000009 -0.005079999999999998
83 0.02286 0.02500000000000005 -0.00508
84 0.02286 0.03500000000000006 -0.00508
85 0.02286 0.04500000000000007 -0.005079999999999999
86 0.02286 0.0650000000000001 -0.005079999999999999
87 0.02286 0.005000000000000013 -0.00508
88 0.02286 0.01500000000000003 -0.00508
89 0.01541051657491955 0.0837844997106495 -0.01016
90 0.01433497057611589 0.05391058798810407 -0.01016
91 0.01433497057611589 0.03608941201189609 -0.01016
92 0.008275171429516975 0.01528347410427792 -0.01016
93 0.00643123682568307 0.09545116637731613 -0.01016
94 0.01642876317431694 0.004548833622683894 -0.01016
95 0.008660254037844367 0.07500000000000009 -0.01016
96 0.008660254037844395 0.04500000000000007 -0.01016
97 0.01435428837811021 0.0659337817244824 -0.01016
98 0.01416565580382445 0.02372723836948247 -0.01016
99 0.014755953479243 0.09384171421921292 -0.01016
100 0.00822200194996222 0.006025139182919588 -0.01016
101 0.007255939418327684 0.08731530278343427 -0.01016
102 0.01570507904590162 0.01234366655347527 -0.01016
103 0.01682901179817482 0.07494365628702644 -0.01016
104 0.007980170419730202 0.06000000000000014 -0.01016
105 0.007980170419730181 0.03000000000000006 -0.01016
106 0.01664042445757457 0.04500000000000007 -0.01016
107 0.006469015878099667 0.06659793569871821 -0.01016
108 0.006466256192100481 0.03662016859692012 -0.01016
109 0.006084199530614322 0.02380214249475211 -0.01016
110 0.006466256192100485 0.05337983140308003 -0.01016
111 0 0.07500000000000009 -0.005079999999999999
112 0 0.08500000000000008 -0.00508
113 0 0.09500000000000008 -0.005079999999999999
114 0 0.05500000000000009 -0.00508
115 0 0.0650000000000001 -0.005080000000000002
116 0 0.04500000000000007 -0.00508
117 0 0.02500000000000005 -0.00508
118 0 0.03500000000000006 -0.00508
119 0 0.005000000000000013 -0.00508
120 0 0.01500000000000003 -0.00508
121 0.007414412126503342 0 -0.00508
122 0.003768882425300669 0 -0.00508
123 0.01544578703703703 0 -0.00508
124 0.0190911574074074 0 -0.00508
125 0.007414412126503342 0.1 -0.00508
126 0.003768882425300669 0.1 -0.00508
127 0.01544578703703703 0.1 -0.00508
128 0.0190911574074074 0.1 -0.00508
$EndNodes
$Elements
297
1 4 2 1 1 12 6 99 127
2 4 2 1 1 11 68 5 123
3 4 2 1 1 116 16 108 74
4 4 2 1 1 76 85 38 106
5 4 2 1 1 116 110 17 74
6 4 2 1 1 85 78 39 106
7 4 2 1 1 93 125 67 99
8 4 2 1 1 71 111 107 19
9 4 2 1 1 103 79 75 41
10 4 2 1 1 94 68 123 124
11 4 2 1 1 100 122 121 62
12 4 2 1 1 127 128 61 99
13 4 2 1 1 125 126 93 67
14 4 2 1 1 62 121 100 68
15 4 2 1 1 6 99 67 125
16 4 2 1 1 92 109 120 66
17 4 2 1 1 98 77 60 88
18 4 2 1 1 78 85 64 106
19 4 2 1 1 110 116 96 74
20 4 2 1 1 108 96 116 74
21 4 2 1 1 85 76 64 106
22 4 2 1 1 68 11 121 100
23 4 2 1 1 109 14 120 66
24 4 2 1 1 88 98 77 36
25 4 2 1 1 88 77 83 36
26 4 2 1 1 109 120 14 117
27 4 2 1 1 83 23 77 88
28 4 2 1 1 45 120 109 117
29 4 2 1 1 89 79 63 103
30 4 2 1 1 57 111 95 71
31 4 2 1 1 39 78 90 106
32 4 2 1 1 17 110 58 74
33 4 2 1 1 6 12 99 125
34 4 2 1 1 51 112 111 57
35 4 2 1 1 80 79 29 89
36 4 2 1 1 79 86 75 41
37 4 2 1 1 111 115 107 19
38 4 2 1 1 85 84 76 38
39 4 2 1 1 116 108 16 118
40 4 2 1 1 85 78 82 39
41 4 2 1 1 116 110 114 17
42 4 2 1 1 57 20 111 71
43 4 2 1 1 89 42 79 103
44 4 2 1 1 20 111 112 57
45 4 2 1 1 79 80 42 89
46 4 2 1 1 65 71 107 19
47 4 2 1 1 97 103 75 41
48 4 2 1 1 90 72 82 40
49 4 2 1 1 58 104 114 18
50 4 2 1 1 74 16 108 59
51 4 2 1 1 91 76 38 106
52 4 2 1 1 11 68 121 5
53 4 2 1 1 65 115 104 18
54 4 2 1 1 97 86 72 40
55 4 2 1 1 64 96 90 106
56 4 2 1 1 74 96 58 64
57 4 2 1 1 117 105 15 66
58 4 2 1 1 73 37 83 98
59 4 2 1 1 58 110 96 74
60 4 2 1 1 90 78 64 106
61 4 2 1 1 115 107 50 111
62 4 2 1 1 86 75 28 79
63 4 2 1 1 104 65 58 72
64 4 2 1 1 97 72 104 90
65 4 2 1 1 48 116 110 114
66 4 2 1 1 76 84 85 25
67 4 2 1 1 26 85 78 82
68 4 2 1 1 108 116 47 118
69 4 2 1 1 72 27 82 86
70 4 2 1 1 104 49 114 115
71 4 2 1 1 24 73 84 83
72 4 2 1 1 118 46 105 117
73 4 2 1 1 111 95 51 57
74 4 2 1 1 79 63 29 89
75 4 2 1 1 58 65 104 18
76 4 2 1 1 90 97 72 40
77 4 2 1 1 59 66 105 73
78 4 2 1 1 91 73 105 98
79 4 2 1 1 115 114 104 18
80 4 2 1 1 86 82 72 40
81 4 2 1 1 96 74 59 64
82 4 2 1 1 91 96 64 106
83 4 2 1 1 118 15 105 59
84 4 2 1 1 73 84 37 91
85 4 2 1 1 91 64 76 106
86 4 2 1 1 108 96 74 59
87 4 2 1 1 68 100 70 102
88 4 2 1 1 118 105 15 117
89 4 2 1 1 37 84 73 83
90 4 2 1 1 68 100 102 94
91 4 2 1 1 70 62 100 68
92 4 2 1 1 23 60 77 88
93 4 2 1 1 109 120 45 92
94 4 2 1 1 91 37 73 98
95 4 2 1 1 66 105 15 59
96 4 2 1 1 107 95 111 71
97 4 2 1 1 79 75 63 103
98 4 2 1 1 70 92 120 66
99 4 2 1 1 102 98 60 88
100 4 2 1 1 112 51 101 57
101 4 2 1 1 80 29 69 89
102 4 2 1 1 96 58 64 90
103 4 2 1 1 58 96 110 90
104 4 2 1 1 78 64 58 90
105 4 2 1 1 72 58 104 90
106 4 2 1 1 101 93 67 99
107 4 2 1 1 61 69 67 99
108 4 2 1 1 102 87 68 94
109 4 2 1 1 100 119 62 70
110 4 2 1 1 63 95 57 89
111 4 2 1 1 104 65 72 97
112 4 2 1 1 83 77 73 98
113 4 2 1 1 109 105 117 66
114 4 2 1 1 125 93 12 99
115 4 2 1 1 119 100 44 70
116 4 2 1 1 22 87 68 102
117 4 2 1 1 65 107 115 19
118 4 2 1 1 97 75 86 41
119 4 2 1 1 14 109 117 66
120 4 2 1 1 98 83 77 36
121 4 2 1 1 64 59 96 91
122 4 2 1 1 60 92 66 98
123 4 2 1 1 90 82 78 39
124 4 2 1 1 58 114 110 17
125 4 2 1 1 92 44 100 70
126 4 2 1 1 68 60 22 102
127 4 2 1 1 108 96 59 91
128 4 2 1 1 59 64 76 91
129 4 2 1 1 73 66 105 98
130 4 2 1 1 100 92 70 102
131 4 2 1 1 70 60 68 102
132 4 2 1 1 69 61 81 99
133 4 2 1 1 101 93 113 67
134 4 2 1 1 73 105 59 91
135 4 2 1 1 103 75 63 97
136 4 2 1 1 71 107 95 65
137 4 2 1 1 62 5 121 68
138 4 2 1 1 38 84 76 91
139 4 2 1 1 118 108 16 59
140 4 2 1 1 95 101 51 57
141 4 2 1 1 63 69 29 89
142 4 2 1 1 120 44 92 70
143 4 2 1 1 102 60 22 88
144 4 2 1 1 94 87 68 124
145 4 2 1 1 122 100 119 62
146 4 2 1 1 78 72 82 90
147 4 2 1 1 110 104 114 58
148 4 2 1 1 69 101 67 99
149 4 2 1 1 43 69 81 99
150 4 2 1 1 21 101 113 67
151 4 2 1 1 81 61 128 99
152 4 2 1 1 113 93 126 67
153 4 2 1 1 115 104 107 65
154 4 2 1 1 72 75 86 97
155 4 2 1 1 98 60 92 102
156 4 2 1 1 66 70 92 60
157 4 2 1 1 92 109 66 98
158 4 2 1 1 66 77 60 98
159 4 2 1 1 95 57 71 63
160 4 2 1 1 89 63 95 103
161 4 2 1 1 120 14 70 66
162 4 2 1 1 88 102 98 36
163 4 2 1 1 65 107 95 97
164 4 2 1 1 65 63 75 97
165 4 2 1 1 105 108 118 59
166 4 2 1 1 84 73 76 91
167 4 2 1 1 64 76 85 25
168 4 2 1 1 48 116 96 110
169 4 2 1 1 116 96 108 47
170 4 2 1 1 26 85 64 78
171 4 2 1 1 69 63 57 89
172 4 2 1 1 95 101 57 89
173 4 2 1 1 123 68 32 124
174 4 2 1 1 54 100 122 121
175 4 2 1 1 119 44 120 70
176 4 2 1 1 22 87 102 88
177 4 2 1 1 55 128 127 99
178 4 2 1 1 33 126 125 67
179 4 2 1 1 99 43 69 89
180 4 2 1 1 67 21 101 57
181 4 2 1 1 43 80 69 89
182 4 2 1 1 112 101 21 57
183 4 2 1 1 69 81 80 43
184 4 2 1 1 113 112 101 21
185 4 2 1 1 119 120 13 70
186 4 2 1 1 88 87 102 35
187 4 2 1 1 65 95 71 63
188 4 2 1 1 103 63 95 97
189 4 2 1 1 112 101 52 113
190 4 2 1 1 30 69 81 80
191 4 2 1 1 87 32 68 124
192 4 2 1 1 122 100 54 119
193 4 2 1 1 60 70 92 102
194 4 2 1 1 55 81 128 99
195 4 2 1 1 33 113 126 67
196 4 2 1 1 110 104 58 90
197 4 2 1 1 72 78 58 90
198 4 2 1 1 63 65 95 97
199 4 2 1 1 75 72 65 97
200 4 2 1 1 65 104 107 97
201 4 2 1 1 66 109 105 98
202 4 2 1 1 66 73 77 98
203 4 2 1 1 99 69 101 89
204 4 2 1 1 101 67 57 69
205 4 2 1 1 54 100 9 119
206 4 2 1 1 68 3 32 87
207 4 2 1 1 75 63 28 79
208 4 2 1 1 107 95 50 111
209 4 2 1 1 69 61 30 81
210 4 2 1 1 101 93 52 113
211 4 2 1 1 59 105 108 91
212 4 2 1 1 59 76 73 91
213 4 2 1 1 55 8 81 99
214 4 2 1 1 33 2 113 67
215 4 2 1 1 62 119 13 70
216 4 2 1 1 94 102 87 35
217 4 2 1 1 128 8 4 81
218 4 2 1 1 126 2 10 113
219 4 2 1 1 7 3 87 124
220 4 2 1 1 122 9 1 119
221 4 2 1 1 69 57 101 89
222 4 2 1 1 94 53 7 124
223 4 2 1 1 62 1 122 31
224 4 2 1 1 61 34 4 128
225 4 2 1 1 93 56 10 126
226 4 2 1 1 109 105 46 117
227 4 2 1 1 77 73 24 83
228 4 2 1 1 47 116 96 48
229 4 2 1 1 26 64 85 25
230 4 2 1 1 87 3 32 124
231 4 2 1 1 54 9 122 119
232 4 2 1 1 81 128 8 55
233 4 2 1 1 113 126 2 33
234 4 2 1 1 49 104 107 115
235 4 2 1 1 27 72 75 86
236 4 2 1 1 27 78 72 82
237 4 2 1 1 49 110 104 114
238 4 2 1 1 105 108 46 118
239 4 2 1 1 84 76 73 24
240 4 2 1 1 120 44 45 92
241 4 2 1 1 23 22 60 88
242 4 2 1 1 100 44 9 119
243 4 2 1 1 87 68 3 22
244 4 2 1 1 43 81 8 99
245 4 2 1 1 21 113 2 67
246 4 2 1 1 122 121 62 31
247 4 2 1 1 123 53 94 124
248 4 2 1 1 126 93 56 125
249 4 2 1 1 128 61 34 127
250 4 2 1 1 40 82 90 39
251 4 2 1 1 17 58 114 18
252 4 2 1 1 41 86 97 40
253 4 2 1 1 115 65 19 18
254 4 2 1 1 28 63 29 79
255 4 2 1 1 50 95 51 111
256 4 2 1 1 37 83 98 36
257 4 2 1 1 117 15 14 66
258 4 2 1 1 119 13 1 62
259 4 2 1 1 94 87 7 35
260 4 2 1 1 16 15 118 59
261 4 2 1 1 84 38 37 91
262 4 2 1 1 30 61 4 81
263 4 2 1 1 52 93 10 113
264 4 2 1 1 50 49 107 115
265 4 2 1 1 28 27 75 86
266 4 2 1 1 47 46 108 118
267 4 2 1 1 110 49 48 114
268 4 2 1 1 78 27 26 82
269 4 2 1 1 84 76 24 25
270 4 2 1 1 43 42 80 89
271 4 2 1 1 21 20 112 57
272 4 2 1 1 24 23 77 83
273 4 2 1 1 45 109 46 117
274 4 2 1 1 120 14 13 70
275 4 2 1 1 36 88 102 35
276 4 2 1 1 39 38 85 106
277 4 2 1 1 17 16 116 74
278 4 2 1 1 103 42 79 41
279 4 2 1 1 71 20 111 19
280 4 2 1 1 94 7 87 124
281 4 2 1 1 1 122 119 62
282 4 2 1 1 128 4 61 81
283 4 2 1 1 126 10 93 113
284 4 2 1 1 101 52 51 112
285 4 2 1 1 69 30 29 80
286 4 2 1 1 53 11 123 94
287 4 2 1 1 62 121 5 31
288 4 2 1 1 6 34 61 127
289 4 2 1 1 12 56 93 125
290 4 2 1 1 55 127 12 99
291 4 2 1 1 125 6 33 67
292 4 2 1 1 68 32 5 123
293 4 2 1 1 11 100 54 121
294 4 2 1 1 99 6 61 127
295 4 2 1 1 99 61 6 67
296 4 2 1 1 68 11 94 123
297 4 2 1 1 68 94 11 100
$EndElements
