$MeshFormat
2.2 0 8
$EndMeshFormat
$PhysicalNames
1
3 1 "air_OPEM_RESERVED_1"
$EndPhysicalNames
$Nodes
126
1 0 0 0
2 0.1 0 0
3 0 0.01016 0
4 0.1 0.01016 0
5 0 0.01016 0.02286
6 0.1 0.01016 0.02286
7 0 0.01016 0.01143
8 0.1 0.01016 0.01143
9 0 0 0.02286
10 0.1 0 0.02286
11 0 0 0.01143
12 0.1 0 0.01143
13 0.01000000000000003 0 0
14 0.02000000000000004 0 0
15 0.03000000000000006 0 0
16 0.04000000000000006 0 0
17 0.05000000000000008 0 0
18 0.0600000000000001 0 0
19 0.0700000000000001 0 0
20 0.08000000000000011 0 0
21 0.09000000000000007 0 0
22 0.01000000000000003 0.01016 0
23 0.02000000000000004 0.01016 0
24 0.03000000000000006 0.01016 0
25 0.04000000000000006 0.01016 0
26 0.05000000000000008 0.01016 0
27 0.0600000000000001 0.01016 0
28 0.0700000000000001 0.01016 0
29 0.08000000000000011 0.01016 0
30 0.09000000000000007 0.01016 0
31 0.01000000000000003 0.01016 0.02286
32 0.02000000000000004 0.01016 0.02286
33 0.03000000000000006 0.01016 0.02286
34 0.04000000000000006 0.01016 0.02286
35 0.05000000000000008 0.01016 0.02286
36 0.0600000000000001 0.01016 0.02286
37 0.0700000000000001 0.01016 0.02286
38 0.08000000000000011 0.01016 0.02286
39 0.09000000000000007 0.01016 0.02286
40 0 0.01016 0.005714999999999997
41 0 0.01016 0.01714499999999999
42 0.1 0.01016 0.005714999999999997
43 0.1 0.01016 0.01714499999999999
44 0.01000000000000003 0 0.02286
45 0.02000000000000004 0 0.02286
46 0.03000000000000006 0 0.02286
47 0.04000000000000006 0 0.02286
48 0.05000000000000008 0 0.02286
49 0.0600000000000001 0 0.02286
50 0.0700000000000001 0 0.02286
51 0.08000000000000011 0 0.02286
52 0.09000000000000007 0 0.02286
53 0 0 0.017145
54 0 0 0.005715000000000008
55 0.1 0 0.017145
56 0.1 0 0.005715000000000008
57 0.07500000000000009 0.005080000000000001 0
58 0.08500000000000009 0.00508 0
59 0.09500000000000008 0.005080000000000001 0
60 0.05500000000000009 0.005079999999999998 0
61 0.02500000000000005 0.00508 0
62 0.03500000000000006 0.00508 0
63 0.04500000000000007 0.005079999999999999 0
64 0.0650000000000001 0.005079999999999999 0
65 0.005000000000000013 0.00508 0
66 0.01500000000000003 0.00508 0
67 0.0837844997106495 0.01016 0.00744948342508045
68 0.05391058798810407 0.01016 0.00852502942388411
69 0.03608941201189609 0.01016 0.008525029423884112
70 0.01528347410427792 0.01016 0.01458482857048302
71 0.09545116637731613 0.01016 0.01642876317431693
72 0.004548833622683894 0.01016 0.006431236825683061
73 0.07500000000000009 0.01016 0.01419974596215563
74 0.04500000000000007 0.01016 0.0141997459621556
75 0.0659337817244824 0.01016 0.008505711621889791
76 0.02372723836948247 0.01016 0.008694344196175553
77 0.09384171421921292 0.01016 0.008104046520756998
78 0.006025139182919586 0.01016 0.01463799805003778
79 0.08731530278343427 0.01016 0.01560406058167231
80 0.01234366655347527 0.01016 0.007154920954098377
81 0.07494365628702644 0.01016 0.006030988201825174
82 0.06000000000000014 0.01016 0.0148798295802698
83 0.03000000000000006 0.01016 0.01487982958026982
84 0.04500000000000007 0.01016 0.006219575542425426
85 0.06659793569871821 0.01016 0.01639098412190033
86 0.03662016859692012 0.01016 0.01639374380789952
87 0.02380214249475211 0.01016 0.01677580046938568
88 0.05337983140308003 0.01016 0.01639374380789951
89 0.07500000000000009 0.005079999999999999 0.02286
90 0.08500000000000009 0.00508 0.02286
91 0.09500000000000008 0.005079999999999999 0.02286
92 0.05500000000000009 0.005080000000000003 0.02286
93 0.02500000000000005 0.00508 0.02286
94 0.03500000000000006 0.00508 0.02286
95 0.04500000000000007 0.005080000000000001 0.02286
96 0.0650000000000001 0.005080000000000002 0.02286
97 0.005000000000000013 0.00508 0.02286
98 0.01500000000000003 0.00508 0.02286
99 0.0837844997106495 0 0.01541051657491955
100 0.05500000000000008 0 0.008660254037844393
101 0.03500000000000007 0 0.00866025403784439
102 0.01621550028935058 0 0.007449483425080443
103 0.09545116637731613 0 0.00643123682568307
104 0.004548833622683894 0 0.01642876317431694
105 0.07500000000000009 0 0.008660254037844367
106 0.06500000000000011 0 0.01419974596215561
107 0.04500000000000007 0 0.0141997459621556
108 0.02500000000000004 0 0.0141997459621556
109 0.09384171421921292 0 0.014755953479243
110 0.006158285780787111 0 0.008104046520757002
111 0.08731530278343427 0 0.007255939418327684
112 0.01268469721656574 0 0.01560406058167232
113 0.07475689994212999 0 0.01679810331498391
114 0.0650000000000001 0 0.006219575542425419
115 0.03500000000000007 0 0.01664042445757457
116 0.02524310005787016 0 0.00606189668501609
117 0.05500000000000008 0 0.01664042445757458
118 0.04500000000000007 0 0.006219575542425429
119 0 0.00508 0.007414212962962964
120 0 0.00508 0.003768842592592594
121 0 0.00508 0.01544558787349666
122 0 0.00508 0.01909111757469933
123 0.1 0.00508 0.007414212962962964
124 0.1 0.00508 0.003768842592592594
125 0.1 0.00508 0.01544558787349666
126 0.1 0.00508 0.01909111757469933
$EndNodes
$Elements
291
1 4 2 1 1 98 70 87 45
2 4 2 1 1 12 77 8 123
3 4 2 1 1 62 63 25 84
4 4 2 1 1 26 84 63 60
5 4 2 1 1 63 62 118 84
6 4 2 1 1 84 118 63 60
7 4 2 1 1 60 27 100 114
8 4 2 1 1 81 64 57 114
9 4 2 1 1 64 28 81 57
10 4 2 1 1 45 70 87 108
11 4 2 1 1 27 60 64 114
12 4 2 1 1 118 17 63 60
13 4 2 1 1 62 118 16 63
14 4 2 1 1 18 64 60 114
15 4 2 1 1 19 57 64 114
16 4 2 1 1 74 118 84 68
17 4 2 1 1 24 116 62 69
18 4 2 1 1 100 82 106 114
19 4 2 1 1 125 109 71 77
20 4 2 1 1 84 69 118 74
21 4 2 1 1 72 119 110 78
22 4 2 1 1 104 122 78 121
23 4 2 1 1 120 119 110 72
24 4 2 1 1 15 116 62 61
25 4 2 1 1 100 27 68 114
26 4 2 1 1 123 77 124 103
27 4 2 1 1 125 109 126 71
28 4 2 1 1 116 101 62 69
29 4 2 1 1 60 27 68 100
30 4 2 1 1 45 98 70 112
31 4 2 1 1 61 116 62 24
32 4 2 1 1 118 84 68 60
33 4 2 1 1 107 86 101 115
34 4 2 1 1 88 117 107 100
35 4 2 1 1 26 68 84 60
36 4 2 1 1 47 107 86 95
37 4 2 1 1 107 95 48 88
38 4 2 1 1 77 12 125 109
39 4 2 1 1 116 101 83 108
40 4 2 1 1 27 75 68 114
41 4 2 1 1 69 118 62 84
42 4 2 1 1 69 62 25 84
43 4 2 1 1 64 81 75 114
44 4 2 1 1 115 107 86 47
45 4 2 1 1 117 107 48 88
46 4 2 1 1 28 81 75 64
47 4 2 1 1 101 118 16 62
48 4 2 1 1 118 17 60 100
49 4 2 1 1 100 18 60 114
50 4 2 1 1 88 107 74 68
51 4 2 1 1 50 89 113 85
52 4 2 1 1 105 81 57 114
53 4 2 1 1 64 75 27 114
54 4 2 1 1 75 106 82 114
55 4 2 1 1 87 98 45 93
56 4 2 1 1 69 74 86 107
57 4 2 1 1 68 88 107 100
58 4 2 1 1 98 87 32 93
59 4 2 1 1 76 116 24 69
60 4 2 1 1 118 74 107 68
61 4 2 1 1 57 67 81 105
62 4 2 1 1 88 82 117 100
63 4 2 1 1 101 86 83 115
64 4 2 1 1 15 116 101 62
65 4 2 1 1 86 101 69 107
66 4 2 1 1 107 74 86 95
67 4 2 1 1 95 107 74 88
68 4 2 1 1 12 77 125 8
69 4 2 1 1 57 58 67 20
70 4 2 1 1 90 99 89 38
71 4 2 1 1 92 49 117 82
72 4 2 1 1 94 83 115 46
73 4 2 1 1 57 19 105 114
74 4 2 1 1 89 50 96 85
75 4 2 1 1 47 86 94 95
76 4 2 1 1 92 48 95 88
77 4 2 1 1 74 69 118 107
78 4 2 1 1 96 106 49 82
79 4 2 1 1 29 67 81 57
80 4 2 1 1 102 14 66 61
81 4 2 1 1 99 89 51 90
82 4 2 1 1 67 29 58 57
83 4 2 1 1 24 61 116 76
84 4 2 1 1 106 117 49 82
85 4 2 1 1 92 96 49 82
86 4 2 1 1 46 94 83 93
87 4 2 1 1 106 50 113 85
88 4 2 1 1 115 86 94 47
89 4 2 1 1 92 117 48 88
90 4 2 1 1 106 113 73 85
91 4 2 1 1 70 45 112 108
92 4 2 1 1 89 96 37 85
93 4 2 1 1 35 92 95 88
94 4 2 1 1 86 34 94 95
95 4 2 1 1 82 106 117 100
96 4 2 1 1 96 92 36 82
97 4 2 1 1 94 33 83 93
98 4 2 1 1 38 99 89 73
99 4 2 1 1 105 57 67 20
100 4 2 1 1 99 113 89 73
101 4 2 1 1 76 87 70 108
102 4 2 1 1 68 107 118 100
103 4 2 1 1 85 73 106 75
104 4 2 1 1 83 76 116 108
105 4 2 1 1 50 106 96 85
106 4 2 1 1 60 68 118 100
107 4 2 1 1 101 118 69 107
108 4 2 1 1 110 80 72 78
109 4 2 1 1 32 70 87 98
110 4 2 1 1 14 102 116 61
111 4 2 1 1 99 89 113 51
112 4 2 1 1 83 108 46 93
113 4 2 1 1 101 118 62 69
114 4 2 1 1 115 83 108 46
115 4 2 1 1 87 45 108 93
116 4 2 1 1 38 90 99 79
117 4 2 1 1 111 67 58 20
118 4 2 1 1 105 75 81 114
119 4 2 1 1 70 102 76 108
120 4 2 1 1 112 78 110 104
121 4 2 1 1 111 77 109 103
122 4 2 1 1 109 79 71 77
123 4 2 1 1 108 101 83 115
124 4 2 1 1 82 88 68 100
125 4 2 1 1 78 110 80 112
126 4 2 1 1 67 99 73 105
127 4 2 1 1 71 8 125 77
128 4 2 1 1 80 65 110 72
129 4 2 1 1 112 102 70 108
130 4 2 1 1 97 78 112 104
131 4 2 1 1 86 69 101 83
132 4 2 1 1 102 116 61 76
133 4 2 1 1 65 110 13 80
134 4 2 1 1 111 59 77 103
135 4 2 1 1 79 91 109 71
136 4 2 1 1 73 113 106 105
137 4 2 1 1 73 113 89 85
138 4 2 1 1 7 119 72 78
139 4 2 1 1 97 78 31 112
140 4 2 1 1 99 38 79 73
141 4 2 1 1 111 105 67 20
142 4 2 1 1 77 109 79 111
143 4 2 1 1 78 97 122 104
144 4 2 1 1 65 120 110 72
145 4 2 1 1 91 109 52 79
146 4 2 1 1 59 77 30 111
147 4 2 1 1 59 124 77 103
148 4 2 1 1 91 126 109 71
149 4 2 1 1 78 70 31 112
150 4 2 1 1 13 110 102 80
151 4 2 1 1 73 81 67 105
152 4 2 1 1 85 106 96 82
153 4 2 1 1 66 23 80 76
154 4 2 1 1 66 13 102 80
155 4 2 1 1 80 102 66 76
156 4 2 1 1 70 78 80 112
157 4 2 1 1 34 86 74 95
158 4 2 1 1 35 95 74 88
159 4 2 1 1 98 31 70 112
160 4 2 1 1 75 73 106 105
161 4 2 1 1 73 79 99 67
162 4 2 1 1 105 67 99 111
163 4 2 1 1 41 78 122 121
164 4 2 1 1 82 117 92 88
165 4 2 1 1 94 83 86 115
166 4 2 1 1 13 66 65 80
167 4 2 1 1 108 83 87 93
168 4 2 1 1 110 54 119 120
169 4 2 1 1 123 77 42 124
170 4 2 1 1 109 55 125 126
171 4 2 1 1 106 75 105 114
172 4 2 1 1 109 99 52 79
173 4 2 1 1 77 67 30 111
174 4 2 1 1 90 52 99 79
175 4 2 1 1 58 30 67 111
176 4 2 1 1 90 91 52 79
177 4 2 1 1 58 59 30 111
178 4 2 1 1 98 97 31 112
179 4 2 1 1 73 99 113 105
180 4 2 1 1 22 65 66 80
181 4 2 1 1 76 80 102 70
182 4 2 1 1 73 75 81 105
183 4 2 1 1 111 58 59 21
184 4 2 1 1 91 90 39 79
185 4 2 1 1 97 98 44 112
186 4 2 1 1 110 102 80 112
187 4 2 1 1 41 78 97 122
188 4 2 1 1 110 54 120 65
189 4 2 1 1 77 42 124 59
190 4 2 1 1 126 109 55 91
191 4 2 1 1 82 85 106 75
192 4 2 1 1 109 99 79 111
193 4 2 1 1 67 77 79 111
194 4 2 1 1 78 5 41 97
195 4 2 1 1 89 37 73 85
196 4 2 1 1 76 102 116 108
197 4 2 1 1 103 111 59 21
198 4 2 1 1 79 39 91 71
199 4 2 1 1 112 44 97 104
200 4 2 1 1 109 10 55 91
201 4 2 1 1 42 77 4 59
202 4 2 1 1 54 110 1 65
203 4 2 1 1 80 22 65 72
204 4 2 1 1 70 80 102 112
205 4 2 1 1 76 83 87 108
206 4 2 1 1 124 4 2 59
207 4 2 1 1 1 3 120 65
208 4 2 1 1 126 10 6 91
209 4 2 1 1 9 5 97 122
210 4 2 1 1 67 79 99 111
211 4 2 1 1 120 3 40 72
212 4 2 1 1 56 124 2 103
213 4 2 1 1 104 9 122 53
214 4 2 1 1 6 126 71 43
215 4 2 1 1 33 87 83 93
216 4 2 1 1 74 34 95 35
217 4 2 1 1 97 5 41 122
218 4 2 1 1 120 54 1 65
219 4 2 1 1 124 42 4 59
220 4 2 1 1 126 55 10 91
221 4 2 1 1 96 36 85 82
222 4 2 1 1 82 92 36 88
223 4 2 1 1 33 83 86 94
224 4 2 1 1 70 32 31 98
225 4 2 1 1 5 78 31 97
226 4 2 1 1 110 13 1 65
227 4 2 1 1 52 10 109 91
228 4 2 1 1 30 4 77 59
229 4 2 1 1 95 47 107 48
230 4 2 1 1 18 60 17 100
231 4 2 1 1 106 49 50 96
232 4 2 1 1 15 101 16 62
233 4 2 1 1 40 119 120 72
234 4 2 1 1 122 104 53 121
235 4 2 1 1 71 126 125 43
236 4 2 1 1 56 123 124 103
237 4 2 1 1 26 27 68 60
238 4 2 1 1 27 28 75 64
239 4 2 1 1 89 37 38 73
240 4 2 1 1 105 19 57 20
241 4 2 1 1 46 108 45 93
242 4 2 1 1 61 24 23 76
243 4 2 1 1 22 3 65 72
244 4 2 1 1 24 62 25 69
245 4 2 1 1 44 9 97 104
246 4 2 1 1 59 2 103 21
247 4 2 1 1 39 6 91 71
248 4 2 1 1 96 36 37 85
249 4 2 1 1 92 35 36 88
250 4 2 1 1 34 33 86 94
251 4 2 1 1 51 52 99 90
252 4 2 1 1 67 29 30 58
253 4 2 1 1 102 14 13 66
254 4 2 1 1 33 32 87 93
255 4 2 1 1 66 23 22 80
256 4 2 1 1 63 25 84 26
257 4 2 1 1 28 29 81 57
258 4 2 1 1 3 120 65 72
259 4 2 1 1 59 2 124 103
260 4 2 1 1 122 97 9 104
261 4 2 1 1 6 126 91 71
262 4 2 1 1 21 111 58 20
263 4 2 1 1 90 38 39 79
264 4 2 1 1 45 44 98 112
265 4 2 1 1 118 17 16 63
266 4 2 1 1 117 48 49 92
267 4 2 1 1 46 115 94 47
268 4 2 1 1 18 19 64 114
269 4 2 1 1 89 50 113 51
270 4 2 1 1 116 15 14 61
271 4 2 1 1 40 7 119 72
272 4 2 1 1 56 12 123 103
273 4 2 1 1 53 104 11 121
274 4 2 1 1 71 125 8 43
275 4 2 1 1 11 110 54 119
276 4 2 1 1 8 123 77 42
277 4 2 1 1 55 125 12 109
278 4 2 1 1 78 41 7 121
279 4 2 1 1 68 114 82 100
280 4 2 1 1 82 114 68 75
281 4 2 1 1 116 69 83 101
282 4 2 1 1 83 69 116 76
283 4 2 1 1 66 76 61 23
284 4 2 1 1 61 76 66 102
285 4 2 1 1 121 78 11 7
286 4 2 1 1 119 11 78 7
287 4 2 1 1 119 78 11 110
288 4 2 1 1 77 12 103 123
289 4 2 1 1 77 103 12 109
290 4 2 1 1 78 11 104 121
291 4 2 1 1 78 104 11 110
$EndElements
