$MeshFormat
2.2 0 8
$EndMeshFormat
$PhysicalNames
2
3 49 "er3p3"
3 50 "er3p15"
$EndPhysicalNames
$Nodes
628
1 -0.0006500000000000003 -0.1 4.995
2 -0.0006500000000000003 -0.1 4.997
3 0.0006499999999999996 -0.1 4.995
4 0.0006499999999999996 -0.1 4.997
5 0.0006499999999999996 -0.0999 4.995
6 0.0006499999999999996 -0.0999 4.997
7 0.0001499999999999997 -0.0999 4.995
8 0.0001499999999999997 -0.0999 4.997
9 4.999999999999968e-05 -0.0999 4.995
10 4.999999999999968e-05 -0.0999 4.997
11 -5.000000000000033e-05 -0.0999 4.995
12 -5.000000000000033e-05 -0.0999 4.997
13 -0.0001500000000000003 -0.0999 4.995
14 -0.0001500000000000003 -0.0999 4.997
15 -0.0006500000000000003 -0.0999 4.995
16 -0.0006500000000000003 -0.0999 4.997
17 0.0006499999999999996 -0.0998 4.995
18 -0.0006500000000000003 -0.0998 4.995
19 0.0001445401685504857 -0.099885 4.995
20 5.545955351399268e-05 -0.099885 4.995
21 -5.545983144951433e-05 -0.099885 4.995
22 -0.0001445404464860073 -0.099885 4.995
23 -0.0001445404464860073 -0.099885 4.997
24 0.0006499999999999996 -0.0998 4.997
25 -0.0006500000000000003 -0.0998 4.997
26 0.0001445401685504857 -0.099885 4.997
27 5.545955351399268e-05 -0.099885 4.997
28 -5.545983144951433e-05 -0.099885 4.997
29 -0.0006500000000000006 -0.1 4.995166666666667
30 -0.0006500000000000006 -0.1 4.995333333333334
31 -0.0006500000000000006 -0.1 4.9955
32 -0.0006500000000000006 -0.1 4.995666666666667
33 -0.0006500000000000006 -0.1 4.995833333333334
34 -0.0006500000000000006 -0.1 4.996
35 -0.0006500000000000006 -0.1 4.996166666666666
36 -0.0006500000000000006 -0.1 4.996333333333333
37 -0.0006500000000000006 -0.1 4.9965
38 -0.0006500000000000006 -0.1 4.996666666666667
39 -0.0006500000000000006 -0.1 4.996833333333333
40 0.00065 -0.1 4.995166666666667
41 0.00065 -0.1 4.995333333333334
42 0.00065 -0.1 4.9955
43 0.00065 -0.1 4.995666666666667
44 0.00065 -0.1 4.995833333333334
45 0.00065 -0.1 4.996
46 0.00065 -0.1 4.996166666666666
47 0.00065 -0.1 4.996333333333333
48 0.00065 -0.1 4.9965
49 0.00065 -0.1 4.996666666666667
50 0.00065 -0.1 4.996833333333333
51 -0.0004875000000000396 -0.1 4.995
52 -0.0003250000000000397 -0.1 4.995
53 -0.0001625000000000399 -0.1 4.995
54 -3.968179951296946e-17 -0.1 4.995
55 0.0001624999999999602 -0.1 4.995
56 0.0003249999999999601 -0.1 4.995
57 0.0004874999999999604 -0.1 4.995
58 -0.0004875000000000396 -0.1 4.997
59 -0.0003250000000000397 -0.1 4.997
60 -0.0001625000000000399 -0.1 4.997
61 -3.968179951296946e-17 -0.1 4.997
62 0.0001624999999999602 -0.1 4.997
63 0.0003249999999999601 -0.1 4.997
64 0.0004874999999999604 -0.1 4.997
65 0.00065 -0.0999 4.995166666666667
66 0.00065 -0.0999 4.995333333333334
67 0.00065 -0.0999 4.9955
68 0.00065 -0.0999 4.995666666666667
69 0.00065 -0.0999 4.995833333333334
70 0.00065 -0.0999 4.996
71 0.00065 -0.0999 4.996166666666666
72 0.00065 -0.0999 4.996333333333333
73 0.00065 -0.0999 4.9965
74 0.00065 -0.0999 4.996666666666667
75 0.00065 -0.0999 4.996833333333333
76 0.0004833333333332622 -0.09990000000000002 4.995
77 0.0003166666666665954 -0.09990000000000002 4.995
78 0.0001499999999999998 -0.0999 4.995166666666667
79 0.0001499999999999998 -0.0999 4.995333333333334
80 0.0001499999999999998 -0.0999 4.9955
81 0.0001499999999999998 -0.0999 4.995666666666667
82 0.0001499999999999998 -0.0999 4.995833333333334
83 0.0001499999999999998 -0.0999 4.996
84 0.0001499999999999998 -0.0999 4.996166666666666
85 0.0001499999999999998 -0.0999 4.996333333333333
86 0.0001499999999999998 -0.0999 4.9965
87 0.0001499999999999998 -0.0999 4.996666666666667
88 0.0001499999999999998 -0.0999 4.996833333333333
89 0.0004833333333332622 -0.09990000000000002 4.997
90 0.0003166666666665954 -0.09990000000000002 4.997
91 4.99999999999997e-05 -0.0999 4.995166666666667
92 4.99999999999997e-05 -0.0999 4.995333333333334
93 4.99999999999997e-05 -0.0999 4.9955
94 4.99999999999997e-05 -0.0999 4.995666666666667
95 4.99999999999997e-05 -0.0999 4.995833333333334
96 4.99999999999997e-05 -0.0999 4.996
97 4.99999999999997e-05 -0.0999 4.996166666666666
98 4.99999999999997e-05 -0.0999 4.996333333333333
99 4.99999999999997e-05 -0.0999 4.9965
100 4.99999999999997e-05 -0.0999 4.996666666666667
101 4.99999999999997e-05 -0.0999 4.996833333333333
102 -5.000000000000033e-05 -0.0999 4.995166666666667
103 -5.000000000000033e-05 -0.0999 4.995333333333334
104 -5.000000000000033e-05 -0.0999 4.9955
105 -5.000000000000033e-05 -0.0999 4.995666666666667
106 -5.000000000000033e-05 -0.0999 4.995833333333334
107 -5.000000000000033e-05 -0.0999 4.996
108 -5.000000000000033e-05 -0.0999 4.996166666666666
109 -5.000000000000033e-05 -0.0999 4.996333333333333
110 -5.000000000000033e-05 -0.0999 4.9965
111 -5.000000000000033e-05 -0.0999 4.996666666666667
112 -5.000000000000033e-05 -0.0999 4.996833333333333
113 -0.0001500000000000004 -0.0999 4.995166666666667
114 -0.0001500000000000004 -0.0999 4.995333333333334
115 -0.0001500000000000004 -0.0999 4.9955
116 -0.0001500000000000004 -0.0999 4.995666666666667
117 -0.0001500000000000004 -0.0999 4.995833333333334
118 -0.0001500000000000004 -0.0999 4.996
119 -0.0001500000000000004 -0.0999 4.996166666666666
120 -0.0001500000000000004 -0.0999 4.996333333333333
121 -0.0001500000000000004 -0.0999 4.9965
122 -0.0001500000000000004 -0.0999 4.996666666666667
123 -0.0001500000000000004 -0.0999 4.996833333333333
124 -0.0003166666666667377 -0.09990000000000002 4.995
125 -0.0004833333333334046 -0.09990000000000002 4.995
126 -0.0006500000000000006 -0.0999 4.995166666666667
127 -0.0006500000000000006 -0.0999 4.995333333333334
128 -0.0006500000000000006 -0.0999 4.9955
129 -0.0006500000000000006 -0.0999 4.995666666666667
130 -0.0006500000000000006 -0.0999 4.995833333333334
131 -0.0006500000000000006 -0.0999 4.996
132 -0.0006500000000000006 -0.0999 4.996166666666666
133 -0.0006500000000000006 -0.0999 4.996333333333333
134 -0.0006500000000000006 -0.0999 4.9965
135 -0.0006500000000000006 -0.0999 4.996666666666667
136 -0.0006500000000000006 -0.0999 4.996833333333333
137 -0.0003166666666667377 -0.09990000000000002 4.997
138 -0.0004833333333334046 -0.09990000000000002 4.997
139 0.0004874999999999285 -0.0998 4.995
140 0.0003249999999999286 -0.0998 4.995
141 0.0001624999999999289 -0.0998 4.995
142 -7.134050294954619e-17 -0.0998 4.995
143 -0.0001625000000000712 -0.0998 4.995
144 -0.0003250000000000711 -0.0998 4.995
145 -0.0004875000000000714 -0.0998 4.995
146 -0.0001445404464860074 -0.099885 4.995166666666667
147 -0.0001445404464860074 -0.099885 4.995333333333334
148 -0.0001445404464860074 -0.099885 4.9955
149 -0.0001445404464860074 -0.099885 4.995666666666667
150 -0.0001445404464860074 -0.099885 4.995833333333334
151 -0.0001445404464860074 -0.099885 4.996
152 -0.0001445404464860074 -0.099885 4.996166666666666
153 -0.0001445404464860074 -0.099885 4.996333333333333
154 -0.0001445404464860074 -0.099885 4.9965
155 -0.0001445404464860074 -0.099885 4.996666666666667
156 -0.0001445404464860074 -0.099885 4.996833333333333
157 0.0004874999999999285 -0.0998 4.997
158 0.0003249999999999286 -0.0998 4.997
159 0.0001624999999999289 -0.0998 4.997
160 -7.134050294954619e-17 -0.0998 4.997
161 -0.0001625000000000712 -0.0998 4.997
162 -0.0003250000000000711 -0.0998 4.997
163 -0.0004875000000000714 -0.0998 4.997
164 -0.0006500000000000006 -0.0998 4.995166666666667
165 -0.0006500000000000006 -0.0998 4.995333333333334
166 -0.0006500000000000006 -0.0998 4.9955
167 -0.0006500000000000006 -0.0998 4.995666666666667
168 -0.0006500000000000006 -0.0998 4.995833333333334
169 -0.0006500000000000006 -0.0998 4.996
170 -0.0006500000000000006 -0.0998 4.996166666666666
171 -0.0006500000000000006 -0.0998 4.996333333333333
172 -0.0006500000000000006 -0.0998 4.9965
173 -0.0006500000000000006 -0.0998 4.996666666666667
174 -0.0006500000000000006 -0.0998 4.996833333333333
175 0.00065 -0.0998 4.995166666666667
176 0.00065 -0.0998 4.995333333333334
177 0.00065 -0.0998 4.9955
178 0.00065 -0.0998 4.995666666666667
179 0.00065 -0.0998 4.995833333333334
180 0.00065 -0.0998 4.996
181 0.00065 -0.0998 4.996166666666666
182 0.00065 -0.0998 4.996333333333333
183 0.00065 -0.0998 4.9965
184 0.00065 -0.0998 4.996666666666667
185 0.00065 -0.0998 4.996833333333333
186 0.0001445401685504858 -0.099885 4.995166666666667
187 0.0001445401685504858 -0.099885 4.995333333333334
188 0.0001445401685504858 -0.099885 4.9955
189 0.0001445401685504858 -0.099885 4.995666666666667
190 0.0001445401685504858 -0.099885 4.995833333333334
191 0.0001445401685504858 -0.099885 4.996
192 0.0001445401685504858 -0.099885 4.996166666666666
193 0.0001445401685504858 -0.099885 4.996333333333333
194 0.0001445401685504858 -0.099885 4.9965
195 0.0001445401685504858 -0.099885 4.996666666666667
196 0.0001445401685504858 -0.099885 4.996833333333333
197 5.54595535139927e-05 -0.099885 4.995166666666667
198 5.54595535139927e-05 -0.099885 4.995333333333334
199 5.54595535139927e-05 -0.099885 4.9955
200 5.54595535139927e-05 -0.099885 4.995666666666667
201 5.54595535139927e-05 -0.099885 4.995833333333334
202 5.54595535139927e-05 -0.099885 4.996
203 5.54595535139927e-05 -0.099885 4.996166666666666
204 5.54595535139927e-05 -0.099885 4.996333333333333
205 5.54595535139927e-05 -0.099885 4.9965
206 5.54595535139927e-05 -0.099885 4.996666666666667
207 5.54595535139927e-05 -0.099885 4.996833333333333
208 -5.545983144951435e-05 -0.099885 4.995166666666667
209 -5.545983144951435e-05 -0.099885 4.995333333333334
210 -5.545983144951435e-05 -0.099885 4.9955
211 -5.545983144951435e-05 -0.099885 4.995666666666667
212 -5.545983144951435e-05 -0.099885 4.995833333333334
213 -5.545983144951435e-05 -0.099885 4.996
214 -5.545983144951435e-05 -0.099885 4.996166666666666
215 -5.545983144951435e-05 -0.099885 4.996333333333333
216 -5.545983144951435e-05 -0.099885 4.9965
217 -5.545983144951435e-05 -0.099885 4.996666666666667
218 -5.545983144951435e-05 -0.099885 4.996833333333333
219 0.0005054975942698433 -0.1 4.996083691799885
220 -0.0005056624327024178 -0.1 4.99575
221 -0.0005056624327028024 -0.1 4.99625
222 0.0005055961378008444 -0.1 4.995582676519488
223 7.882687867747458e-05 -0.1 4.996852553948067
224 -9.123204513943105e-05 -0.1 4.995132054360173
225 0.0005058152712128915 -0.1 4.996416878150124
226 -0.0005056624327028024 -0.1 4.996583333333334
227 0.0002553828170004161 -0.1 4.995148124035739
228 -0.000505662432703187 -0.1 4.995416666666666
229 -0.000232141419721577 -0.1 4.996846053592948
230 0.0005097757619117948 -0.1 4.996744067478519
231 -0.0004039743297141024 -0.1 4.995124100412372
232 0.0005129292135820412 -0.1 4.99525106750933
233 0.0005057896313090582 -0.1 4.996583113018884
234 0.0003617785064989698 -0.1 4.99650067867367
235 0.000361783868385697 -0.1 4.996334174836969
236 0.0002182660871953858 -0.1 4.996417465321811
237 0.0002179676844581181 -0.1 4.996251361997763
238 7.438167656458083e-05 -0.1 4.996334717763391
239 7.403910687194437e-05 -0.1 4.9961685175452
240 -6.967989579350221e-05 -0.1 4.996251901791374
241 -7.006523201132943e-05 -0.1 4.996085659819335
242 7.36986063669332e-05 -0.1 4.996002144679889
243 -7.03609554434932e-05 -0.1 4.995919296485739
244 7.338120142011883e-05 -0.1 4.995835827339166
245 -7.058727491736144e-05 -0.1 4.995753037640341
246 7.292798587678773e-05 -0.1 4.995669703825893
247 -6.926917464563156e-05 -0.1 4.996417982680542
248 -7.077921593921072e-05 -0.1 4.995587152640852
249 -0.0002142436048846058 -0.1 4.99600262949145
250 7.237799529216963e-05 -0.1 4.99550402885076
251 0.0002170084984751783 -0.1 4.995751377326762
252 0.0002186088094955274 -0.1 4.996582983670374
253 -0.0002116955168620765 -0.1 4.996335258276456
254 -0.0002109190509221744 -0.1 4.996501083436495
255 -6.915259078314967e-05 -0.1 4.996583730147533
256 -0.000212735535894104 -0.1 4.995670250844168
257 -0.0002104952039529092 -0.1 4.99551076128475
258 -0.0003566476111564152 -0.1 4.996418598003981
259 -0.00035579001055796 -0.1 4.995611483430628
260 -0.0002160400034263887 -0.1 4.996667315197342
261 -7.194496600499063e-05 -0.1 4.996749612678805
262 -0.0003690982126695129 -0.1 4.996734427694809
263 7.503402759132037e-05 -0.1 4.996671100798022
264 0.0002230112085779404 -0.1 4.996750119107406
265 0.0003638596877146834 -0.1 4.996665878750349
266 7.464480590300558e-05 -0.1 4.996501330063612
267 -6.800021751804451e-05 -0.1 4.995426739371807
268 -0.0002140577359517481 -0.1 4.995339139083931
269 7.425547607000835e-05 -0.1 4.995341818491627
270 0.0002148744051971937 -0.1 4.995423668799007
271 0.000507218628100445 -0.1 4.995416554358993
272 0.0003505826387029199 -0.1 4.995307573347676
273 0.000360131943538515 -0.1 4.995497452701073
274 0.0003611326352644371 -0.1 4.995664838490444
275 0.0005055679971831919 -0.1 4.995749616422336
276 0.0005057561136097969 -0.1 4.996250480994528
277 0.0005056200571436386 -0.1 4.995916791699392
278 0.000361532768372125 -0.1 4.996000971996596
279 -0.0002124101222553502 -0.1 4.995836320682504
280 -0.0003583389104097629 -0.1 4.995919561877842
281 -0.0003584150190675051 -0.1 4.996086013688688
282 -0.0002119824495566862 -0.1 4.996169038778008
283 0.0002176581329574375 -0.1 4.99608488770404
284 0.0003826640982555443 -0.1 4.996846781534792
285 0.0002158083739486716 -0.1 4.995585892250027
286 7.797214042124499e-05 -0.1 4.995168639649798
287 -0.0002449975252446973 -0.1 4.995124985115187
288 0.0003616993603421696 -0.1 4.996167594888297
289 0.0002173714674512058 -0.1 4.995918179413827
290 0.0003615301104559008 -0.1 4.995833813230439
291 -0.0004911603217673907 -0.1 4.995245577687847
292 -0.0003745170781156236 -0.1 4.995337169663389
293 -0.0003388668083801636 -0.1 4.996582605964575
294 -0.0005335944953124042 -0.1 4.996417052934129
295 0.0004046216528298143 -0.1 4.995137471442555
296 -0.0003288806058690971 -0.1 4.996251781749427
297 -0.0005080739160781145 -0.1 4.995575146514328
298 -0.000328987402363919 -0.1 4.995757523367029
299 -0.0005262441826276139 -0.1 4.995916962096379
300 -0.0005140225925072059 -0.1 4.996076357261279
301 -0.0005207083921404967 -0.1 4.996753446715729
302 -0.0004087901675735098 -0.1 4.996874503709211
303 0.000196729116385263 -0.1 4.995277981877642
304 -5.711943363472666e-05 -0.1 4.995280456251221
305 -7.755190140983461e-05 -0.1 4.996889644043964
306 0.0002411173125630404 -0.1 4.996890094891505
307 -0.0003367049001557429 -0.1 4.995458906244535
308 0.0005275710109811384 -0.1 4.995122748599762
309 0.0005283847170214316 -0.1 4.996877310515763
310 -0.0005330130892755258 -0.1 4.995116229228381
311 -0.000532924346132579 -0.1 4.996881736654146
312 -0.0001864813479941305 -0.1 4.995220438688896
313 -0.0003250000000000489 -0.1 4.995225558633964
314 0.00065 -0.09995000000000001 4.995083333333334
315 0.00065 -0.09995000000000001 4.996916666666666
316 0.00065 -0.09995000000000001 4.99525
317 0.00065 -0.09995000000000001 4.995416666666666
318 0.00065 -0.09995000000000001 4.995583333333333
319 0.00065 -0.09995000000000001 4.995916666666667
320 0.00065 -0.09995000000000001 4.996083333333334
321 0.00065 -0.09995000000000001 4.99625
322 0.00065 -0.09995000000000001 4.996416666666667
323 0.00065 -0.09995000000000001 4.996583333333334
324 0.00065 -0.09995000000000001 4.99675
325 0.00065 -0.09995000000000001 4.99575
326 0.0005056624327031864 -0.0999 4.996083333333334
327 0.0002860054725985212 -0.0999 4.995415028173824
328 0.000294337567297198 -0.0999 4.996583333333334
329 0.000512179882581557 -0.0999 4.99575
330 0.000399999999999965 -0.0999 4.995156366682069
331 0.0003999999999999647 -0.0999 4.996843633317931
332 0.000294337567297198 -0.0999 4.99625
333 0.0002902912176974014 -0.0999 4.99591789498141
334 0.0005056624327024171 -0.0999 4.996416666666667
335 0.0005056624327031864 -0.0999 4.995416666666666
336 0.0005132661242281034 -0.0999 4.995583333333333
337 0.0003614369519790412 -0.0999 4.995666666666667
338 0.0005056624327029638 -0.0999 4.99625
339 0.000294337567297212 -0.0999 4.996083333333334
340 0.0005056624327028018 -0.0999 4.996583333333334
341 0.0005093196451380075 -0.0999 4.995916666666667
342 0.0002943375672973729 -0.0999 4.996416666666667
343 0.0005222756607958286 -0.0999 4.995254874270011
344 0.0002763356567544322 -0.0999 4.995254601187871
345 0.0005222756607957641 -0.0999 4.996745125729989
346 0.0002777243392042111 -0.0999 4.996745125729989
347 0.0002695743978512439 -0.0999 4.995549672301432
348 0.0002704315468709922 -0.0999 4.995783578996282
349 0.0004000000000000662 -0.0999 4.996
350 0.0004000000000000339 -0.0999 4.996333333333333
351 0.0003999999999999196 -0.0999 4.9965
352 0.0004000000000001101 -0.0999 4.996166666666666
353 0.0003963824310105426 -0.0999 4.995497908828069
354 0.0003954195184366782 -0.0999 4.995836293138693
355 0.0003994213198434038 -0.0999 4.995333779630667
356 0.0003999999999999832 -0.0999 4.996666483609096
357 0.0002720084679281046 -0.0999 4.996877991532072
358 0.0005279915320718184 -0.0999 4.995122008467928
359 0.0005279915320718186 -0.0999 4.996877991532072
360 0.0002720084679281048 -0.0999 4.995122008467928
361 9.999999999999983e-05 -0.0999 4.996916666666666
362 9.999999999998194e-05 -0.0999 4.995083333333334
363 9.999999999999972e-05 -0.0999 4.995416666666666
364 9.999999999999972e-05 -0.0999 4.996083333333334
365 9.999999999999972e-05 -0.0999 4.99625
366 9.999999999999972e-05 -0.0999 4.996583333333334
367 9.999999999999972e-05 -0.0999 4.99675
368 9.999999999999972e-05 -0.0999 4.99525
369 9.999999999999983e-05 -0.0999 4.995583333333333
370 9.999999999999972e-05 -0.0999 4.99575
371 9.999999999999972e-05 -0.0999 4.995916666666667
372 9.999999999999972e-05 -0.0999 4.996416666666667
373 -1.810617628050792e-17 -0.0999 4.995083333333334
374 -3.252606517456513e-19 -0.0999 4.996916666666666
375 -3.252606517456513e-19 -0.0999 4.996583333333334
376 -3.252606517456513e-19 -0.0999 4.99525
377 -3.252606517456513e-19 -0.0999 4.995416666666666
378 -3.252606517456513e-19 -0.0999 4.995583333333333
379 -4.336808689942018e-19 -0.0999 4.99575
380 -3.252606517456513e-19 -0.0999 4.995916666666667
381 -3.252606517456513e-19 -0.0999 4.996083333333334
382 -3.252606517456513e-19 -0.0999 4.99625
383 -4.336808689942018e-19 -0.0999 4.996416666666667
384 -2.168404344971009e-19 -0.0999 4.99675
385 -0.0001000000000000183 -0.0999 4.995083333333334
386 -0.0001000000000000003 -0.0999 4.996916666666666
387 -0.0001000000000000004 -0.0999 4.99525
388 -0.0001000000000000004 -0.0999 4.995416666666666
389 -0.0001000000000000004 -0.0999 4.995583333333333
390 -0.0001000000000000004 -0.0999 4.99575
391 -0.0001000000000000004 -0.0999 4.995916666666667
392 -0.0001000000000000004 -0.0999 4.996083333333334
393 -0.0001000000000000004 -0.0999 4.99625
394 -0.0001000000000000004 -0.0999 4.996416666666667
395 -0.0001000000000000004 -0.0999 4.996583333333334
396 -0.0001000000000000004 -0.0999 4.99675
397 -0.000294337567296814 -0.0999 4.996083333333334
398 -0.0005139945274014791 -0.0999 4.995415028173824
399 -0.000277582907453868 -0.0999 4.996749233318682
400 -0.0002878201174184435 -0.0999 4.99575
401 -0.0002943375672975832 -0.0999 4.996416666666667
402 -0.0004000000000000351 -0.0999 4.995156366682069
403 -0.0005097087823026044 -0.0999 4.99591789498141
404 -0.0005056624327028024 -0.0999 4.996583333333334
405 -0.0005056624327028024 -0.0999 4.99625
406 -0.000294337567296814 -0.0999 4.995416666666666
407 -0.0002867338757718969 -0.0999 4.995583333333333
408 -0.0004385630480209591 -0.0999 4.995666666666667
409 -0.0005224170925462034 -0.0999 4.996749233318682
410 -0.0002902548531054718 -0.0999 4.996583300071094
411 -0.0005056624327026541 -0.0999 4.996416666666667
412 -0.0002943375672970368 -0.0999 4.99625
413 -0.0002906803548619957 -0.0999 4.995916666666667
414 -0.0005056624327028493 -0.0999 4.996083333333333
415 -0.0002777243392041717 -0.0999 4.995254874270011
416 -0.0005236643432455681 -0.0999 4.995254601187871
417 -0.0004000000000000683 -0.0999 4.996856129397576
418 -0.0005304256021487562 -0.0999 4.995549672301432
419 -0.0005295684531290094 -0.0999 4.995783578996282
420 -0.0004000000000001728 -0.0999 4.996166666666666
421 -0.0004000000000000004 -0.0999 4.996
422 -0.0004000000000000544 -0.0999 4.996333333333333
423 -0.0004000000000000767 -0.0999 4.9965
424 -0.0004000000000001658 -0.0999 4.996666666666666
425 -0.0004036175689894575 -0.0999 4.995497908828069
426 -0.0004045804815633288 -0.0999 4.995836293138693
427 -0.000400578680156597 -0.0999 4.995333779630667
428 -0.0002720084679281818 -0.0999 4.995122008467928
429 -0.000527991532071895 -0.0999 4.995122008467928
430 -0.0002711598774258985 -0.0999 4.996878840122574
431 -0.0005288401225741811 -0.0999 4.996878840122574
432 -0.0006500000000000006 -0.09995 4.995083333333334
433 -0.0006500000000000006 -0.09995 4.99525
434 -0.0006500000000000006 -0.09995 4.995416666666666
435 -0.0006500000000000006 -0.09995 4.995583333333333
436 -0.0006500000000000006 -0.09995 4.99575
437 -0.0006500000000000006 -0.09995 4.995916666666667
438 -0.0006500000000000006 -0.09995 4.996083333333334
439 -0.0006500000000000006 -0.09995 4.99625
440 -0.0006500000000000006 -0.09995 4.996416666666667
441 -0.0006500000000000006 -0.09995 4.996583333333334
442 -0.0006500000000000006 -0.09995 4.99675
443 -0.0006500000000000006 -0.09995 4.996916666666666
444 0.0005677083333332779 -0.09995000000000002 4.995
445 -0.0005677083333333888 -0.09995000000000002 4.995
446 -0.0004031250000000553 -0.09995000000000002 4.995
447 0.0004031249999999445 -0.09995000000000001 4.995
448 -0.0002385416666667222 -0.09995000000000002 4.995
449 0.000238541666666611 -0.09995000000000002 4.995
450 -9.062500000005572e-05 -0.09995000000000001 4.995
451 9.062499999994435e-05 -0.09995000000000001 4.995
452 0.0005677083333332779 -0.09995000000000002 4.997
453 -0.0005677083333333888 -0.09995000000000002 4.997
454 -0.0004031250000000553 -0.09995000000000002 4.997
455 0.0004031249999999445 -0.09995000000000002 4.997
456 -0.0002385416666667222 -0.09995000000000002 4.997
457 0.000238541666666611 -0.09995000000000001 4.997
458 -9.062500000005572e-05 -0.09995000000000001 4.997
459 9.062499999994435e-05 -0.09995000000000002 4.997
460 -2.855698288909141e-06 -0.09987611590567026 4.995
461 0.0002302582997287977 -0.09985532954769424 4.995
462 9.629741601209626e-05 -0.09984463459002557 4.995
463 -0.0001000001389678262 -0.09984642696219684 4.995
464 -0.000209954546617869 -0.09986625387144339 4.995
465 0.0005677083333332619 -0.09985000000000001 4.995
466 -0.0005677083333334048 -0.09985000000000001 4.995
467 -0.0004031250000000712 -0.09985000000000001 4.995
468 0.0004031249999999287 -0.09985000000000001 4.995
469 -2.685628668456049e-05 -0.09985049081611486 4.995
470 2.440899691052063e-05 -0.09985124826236214 4.995
471 0.0001640464608062268 -0.09985459334374146 4.995
472 -0.0002535303033211873 -0.09984156346786086 4.995
473 -2.855698288909142e-06 -0.09987611590567026 4.997
474 0.0002302582997287977 -0.09985532954769424 4.997
475 9.629741601209626e-05 -0.09984463459002557 4.997
476 -0.0001000001389678007 -0.09984642696219684 4.997
477 -0.0002099545466178545 -0.09986625387144339 4.997
478 0.0005677083333332619 -0.09985000000000001 4.997
479 -0.0005677083333334048 -0.09985000000000001 4.997
480 -0.0004031250000000712 -0.09985000000000001 4.997
481 0.0004031249999999287 -0.09985000000000001 4.997
482 -2.685628668455538e-05 -0.09985049081611486 4.997
483 2.440899691052166e-05 -0.09985124826236214 4.997
484 0.0001640464608062268 -0.09985459334374146 4.997
485 -0.0002535303033211836 -0.09984156346786086 4.997
486 -0.0006500000000000006 -0.09984999999999999 4.995083333333334
487 -0.0006500000000000006 -0.09984999999999999 4.996916666666666
488 -0.0006500000000000006 -0.09984999999999999 4.99525
489 -0.0006500000000000006 -0.09984999999999999 4.995416666666666
490 -0.0006500000000000006 -0.09984999999999999 4.995583333333333
491 -0.0006500000000000006 -0.09984999999999999 4.99575
492 -0.0006500000000000006 -0.09984999999999999 4.995916666666667
493 -0.0006500000000000006 -0.09984999999999999 4.99625
494 -0.0006500000000000006 -0.09984999999999999 4.996083333333334
495 -0.0006500000000000006 -0.09984999999999999 4.996416666666667
496 -0.0006500000000000006 -0.09984999999999999 4.996583333333334
497 -0.0006500000000000006 -0.09984999999999999 4.99675
498 -0.0005054975942698444 -0.0998 4.996083691799885
499 0.0005056624327024171 -0.0998 4.99575
500 0.0005056624327028018 -0.0998 4.99625
501 -0.0005055961378008453 -0.0998 4.995582676519488
502 -7.882687867754874e-05 -0.0998 4.996852553948067
503 9.12320451393493e-05 -0.0998 4.995132054360173
504 -0.0005058152712128926 -0.0998 4.996416878150124
505 0.0005056624327028018 -0.0998 4.996583333333334
506 -0.0002553828170004872 -0.0998 4.995148124035739
507 0.0005056624327031864 -0.0998 4.995416666666666
508 0.0002321414197215082 -0.0998 4.996846053592948
509 -0.000509775761911805 -0.0998 4.996744067478519
510 0.0004039743297140132 -0.0998 4.995124100412372
511 -0.0005129292135820605 -0.0998 4.99525106750933
512 -0.0005057896313090588 -0.0998 4.996583113018884
513 -0.0003617785064989787 -0.0998 4.99650067867367
514 -0.0003617838683856996 -0.0998 4.996334174836969
515 -0.0002182660871953882 -0.0998 4.996417465321811
516 -0.0002179676844581204 -0.0998 4.996251361997763
517 -7.438167656458267e-05 -0.0998 4.996334717763391
518 -7.403910687194687e-05 -0.0998 4.9961685175452
519 6.967989579350069e-05 -0.0998 4.996251901791374
520 7.006523201132683e-05 -0.0998 4.996085659819335
521 -7.369860636693678e-05 -0.0998 4.996002144679889
522 7.036095544348908e-05 -0.0998 4.995919296485739
523 -7.338120142012339e-05 -0.0998 4.995835827339166
524 7.058727491735623e-05 -0.0998 4.995753037640341
525 -7.292798587679348e-05 -0.0998 4.995669703825893
526 6.926917464563091e-05 -0.0998 4.996417982680542
527 7.077921593920443e-05 -0.0998 4.995587152640852
528 0.0002142436048846025 -0.0998 4.99600262949145
529 -7.237799529217657e-05 -0.0998 4.99550402885076
530 -0.0002170084984751821 -0.0998 4.995751377326762
531 -0.000218608809495528 -0.0998 4.996582983670374
532 0.0002116955168620757 -0.0998 4.996335258276456
533 0.0002109190509221876 -0.0998 4.996501083436495
534 6.915259078315119e-05 -0.0998 4.996583730147533
535 0.0002127355358940985 -0.0998 4.995670250844168
536 0.0002104952039529024 -0.0998 4.99551076128475
537 0.0003566476111564145 -0.0998 4.996418598003981
538 0.0003557900105579548 -0.0998 4.995611483430628
539 0.0002160400034263866 -0.0998 4.996667315197342
540 7.194496600497111e-05 -0.0998 4.996749612678805
541 0.0003690982126694768 -0.0998 4.996734427694809
542 -7.503402759134455e-05 -0.0998 4.996671100798022
543 -0.0002230112085779706 -0.0998 4.996750119107406
544 -0.0003638596877146918 -0.0998 4.996665878750349
545 -7.464480590301014e-05 -0.0998 4.996501330063612
546 6.800021751803638e-05 -0.0998 4.995426739371807
547 0.0002140577359517404 -0.0998 4.995339139083931
548 -7.425547607003557e-05 -0.0998 4.995341818491627
549 -0.0002148744051972035 -0.0998 4.995423668799007
550 -0.0005072186281004489 -0.0998 4.995416554358993
551 -0.0003505826387029481 -0.0998 4.995307573347676
552 -0.0003601319435385213 -0.0998 4.995497452701073
553 -0.0003611326352644375 -0.0998 4.995664838490444
554 -0.0005055679971831927 -0.0998 4.995749616422336
555 -0.0005057561136097982 -0.0998 4.996250480994528
556 -0.0005056200571436397 -0.0998 4.995916791699392
557 -0.0003615327683721271 -0.0998 4.996000971996596
558 0.000212410122255346 -0.0998 4.995836320682504
559 0.0003583389104097586 -0.0998 4.995919561877842
560 0.0003584150190675019 -0.0998 4.996086013688688
561 0.0002119824495566842 -0.0998 4.996169038778008
562 -0.0002176581329574399 -0.0998 4.99608488770404
563 -0.0003826640982555892 -0.0998 4.996846781534792
564 -0.0002158083739486783 -0.0998 4.995585892250027
565 -7.797214042130668e-05 -0.0998 4.995168639649798
566 0.0002449975252446005 -0.0998 4.995124985115187
567 -0.0003616993603421715 -0.0998 4.996167594888297
568 -0.0002173714674512089 -0.0998 4.995918179413827
569 -0.0003615301104559032 -0.0998 4.995833813230439
570 0.0004911603217673508 -0.0998 4.995245577687847
571 0.000374517078115588 -0.0998 4.995337169663389
572 0.0003388668083801994 -0.0998 4.996582605964575
573 0.0005335944953124036 -0.0998 4.996417052934129
574 -0.0004046216528298873 -0.0998 4.995137471442555
575 0.0003288806058690957 -0.0998 4.996251781749427
576 0.0005080739160781113 -0.0998 4.995575146514328
577 0.000328987402363915 -0.0998 4.995757523367029
578 0.0005262441826276117 -0.0998 4.995916962096379
579 0.0005140225925072038 -0.0998 4.996076357261279
580 0.0005207083921404725 -0.0998 4.996753446715729
581 0.0004087901675734197 -0.0998 4.996874503709211
582 -0.0001967291163852957 -0.0998 4.995277981877642
583 5.711943363471321e-05 -0.0998 4.995280456251221
584 7.755190140975763e-05 -0.0998 4.996889644043964
585 -0.0002411173125630741 -0.0998 4.996890094891505
586 0.0003367049001557344 -0.0998 4.995458906244535
587 -0.0005275710109812191 -0.0998 4.995122748599762
588 -0.000528384717021442 -0.0998 4.996877310515763
589 0.0005330130892754631 -0.0998 4.995116229228381
590 0.000532924346132515 -0.0998 4.996881736654146
591 0.0001864813479940663 -0.0998 4.995220438688896
592 0.0003249999999999284 -0.0998 4.995225558633964
593 0.00065 -0.09985000000000001 4.995083333333334
594 0.00065 -0.09985000000000001 4.99525
595 0.00065 -0.09985000000000001 4.995416666666666
596 0.00065 -0.09985000000000001 4.995583333333333
597 0.00065 -0.09985000000000001 4.99575
598 0.00065 -0.09985000000000001 4.995916666666667
599 0.00065 -0.09985000000000001 4.99625
600 0.00065 -0.09985000000000001 4.996083333333334
601 0.00065 -0.09985000000000001 4.996416666666667
602 0.00065 -0.09985000000000001 4.996583333333334
603 0.00065 -0.09985000000000001 4.99675
604 0.00065 -0.09984999999999999 4.996916666666666
605 9.999986103223923e-05 -0.099885 4.996916666666666
606 9.999986103223886e-05 -0.099885 4.995083333333334
607 9.999986103223923e-05 -0.099885 4.99525
608 9.999986103223923e-05 -0.099885 4.995416666666666
609 9.999986103223923e-05 -0.099885 4.995583333333333
610 9.999986103223923e-05 -0.099885 4.99575
611 9.999986103223923e-05 -0.099885 4.995916666666667
612 9.999986103223923e-05 -0.099885 4.99625
613 9.999986103223923e-05 -0.099885 4.996416666666667
614 9.999986103223923e-05 -0.099885 4.996583333333334
615 9.999986103223923e-05 -0.099885 4.99675
616 9.999986103223923e-05 -0.099885 4.996083333333334
617 -0.000100000138967764 -0.099885 4.995083333333334
618 -0.0001000001389677625 -0.099885 4.996916666666666
619 -0.0001000001389677609 -0.099885 4.99525
620 -0.0001000001389677609 -0.099885 4.995583333333333
621 -0.0001000001389677609 -0.099885 4.99575
622 -0.0001000001389677609 -0.099885 4.996083333333334
623 -0.0001000001389677609 -0.099885 4.995916666666667
624 -0.0001000001389677609 -0.099885 4.996416666666667
625 -0.0001000001389677609 -0.099885 4.996583333333334
626 -0.0001000001389677609 -0.099885 4.99675
627 -0.0001000001389677609 -0.099885 4.995416666666666
628 -0.0001000001389677609 -0.099885 4.99625
$EndNodes
$Elements
2183
1 4 2 49 1 101 459 223 361
2 4 2 49 1 101 10 459 361
3 4 2 49 1 98 99 238 372
4 4 2 49 1 97 98 239 365
5 4 2 49 1 99 100 266 366
6 4 2 49 1 96 97 242 364
7 4 2 49 1 95 96 244 371
8 4 2 49 1 246 95 370 94
9 4 2 49 1 99 238 372 266
10 4 2 49 1 98 239 365 238
11 4 2 49 1 250 94 369 93
12 4 2 49 1 97 242 364 239
13 4 2 49 1 96 244 371 242
14 4 2 49 1 91 92 286 368
15 4 2 49 1 95 246 370 244
16 4 2 49 1 100 101 263 367
17 4 2 49 1 94 250 369 246
18 4 2 49 1 92 93 269 363
19 4 2 49 1 100 266 366 263
20 4 2 49 1 92 286 368 269
21 4 2 49 1 72 73 334 322
22 4 2 49 1 134 133 411 440
23 4 2 49 1 133 132 405 439
24 4 2 49 1 74 73 323 340
25 4 2 49 1 71 72 338 321
26 4 2 49 1 132 131 414 438
27 4 2 49 1 70 71 326 320
28 4 2 49 1 135 134 404 441
29 4 2 49 1 66 67 335 317
30 4 2 49 1 233 49 48 323
31 4 2 49 1 322 47 48 225
32 4 2 49 1 321 46 47 276
33 4 2 49 1 45 46 320 219
34 4 2 49 1 319 44 45 277
35 4 2 49 1 43 44 325 275
36 4 2 49 1 318 42 43 222
37 4 2 49 1 10 101 459 374
38 4 2 49 1 93 269 363 250
39 4 2 49 1 131 130 403 437
40 4 2 49 1 50 49 230 324
41 4 2 49 1 70 69 319 341
42 4 2 49 1 128 127 398 434
43 4 2 49 1 89 90 331 455
44 4 2 49 1 77 76 330 447
45 4 2 49 1 125 124 402 446
46 4 2 49 1 291 29 30 433
47 4 2 49 1 68 69 329 325
48 4 2 49 1 40 41 316 232
49 4 2 49 1 99 98 238 383
50 4 2 49 1 67 68 336 318
51 4 2 49 1 98 97 239 382
52 4 2 49 1 97 96 242 381
53 4 2 49 1 96 95 244 380
54 4 2 49 1 395 121 254 122
55 4 2 49 1 246 95 94 379
56 4 2 49 1 392 119 118 249
57 4 2 49 1 100 99 266 375
58 4 2 49 1 120 394 121 253
59 4 2 49 1 250 94 93 378
60 4 2 49 1 228 30 31 434
61 4 2 49 1 65 66 343 316
62 4 2 49 1 74 75 345 324
63 4 2 49 1 127 126 416 433
64 4 2 49 1 116 117 256 390
65 4 2 49 1 119 393 120 282
66 4 2 49 1 279 391 117 118
67 4 2 49 1 98 239 238 382
68 4 2 49 1 254 121 394 253
69 4 2 49 1 99 238 266 383
70 4 2 49 1 137 138 417 454
71 4 2 49 1 97 242 239 381
72 4 2 49 1 41 42 317 271
73 4 2 49 1 119 392 282 249
74 4 2 49 1 136 135 409 442
75 4 2 49 1 282 393 120 253
76 4 2 49 1 96 244 242 380
77 4 2 49 1 442 39 38 301
78 4 2 49 1 101 263 367 223
79 4 2 49 1 118 279 391 249
80 4 2 49 1 63 64 284 455
81 4 2 49 1 246 95 379 244
82 4 2 49 1 256 279 390 117
83 4 2 49 1 388 114 268 115
84 4 2 49 1 2 39 443 311
85 4 2 49 1 250 94 378 246
86 4 2 49 1 443 16 431 136
87 4 2 49 1 447 56 57 295
88 4 2 49 1 126 15 429 432
89 4 2 49 1 5 358 314 65
90 4 2 49 1 315 359 6 75
91 4 2 49 1 33 34 299 437
92 4 2 49 1 138 16 431 453
93 4 2 49 1 314 3 40 308
94 4 2 49 1 229 59 60 456
95 4 2 49 1 309 4 50 315
96 4 2 49 1 62 61 459 223
97 4 2 49 1 52 51 231 446
98 4 2 49 1 54 55 451 286
99 4 2 49 1 260 395 254 122
100 4 2 49 1 53 52 287 448
101 4 2 49 1 93 92 269 377
102 4 2 49 1 14 137 430 456
103 4 2 49 1 101 100 263 384
104 4 2 49 1 279 243 391 249
105 4 2 49 1 373 54 451 286
106 4 2 49 1 392 282 249 241
107 4 2 49 1 113 114 312 387
108 4 2 49 1 256 279 245 390
109 4 2 49 1 47 322 334 225
110 4 2 49 1 322 72 47 334
111 4 2 49 1 133 405 36 439
112 4 2 49 1 439 405 35 132
113 4 2 49 1 323 49 74 340
114 4 2 49 1 1 29 310 432
115 4 2 49 1 323 233 49 340
116 4 2 49 1 441 404 37 134
117 4 2 49 1 453 58 2 311
118 4 2 49 1 46 71 338 321
119 4 2 49 1 320 70 45 326
120 4 2 49 1 321 338 46 276
121 4 2 49 1 101 459 374 223
122 4 2 49 1 92 91 286 376
123 4 2 49 1 48 73 233 323
124 4 2 49 1 322 48 73 225
125 4 2 49 1 219 71 320 326
126 4 2 49 1 73 233 323 340
127 4 2 49 1 219 320 45 326
128 4 2 49 1 334 322 73 225
129 4 2 49 1 46 71 320 219
130 4 2 49 1 321 47 72 276
131 4 2 49 1 261 123 396 229
132 4 2 49 1 393 282 240 253
133 4 2 49 1 72 338 321 276
134 4 2 49 1 310 51 1 445
135 4 2 49 1 254 394 247 253
136 4 2 49 1 297 31 32 435
137 4 2 49 1 57 3 444 308
138 4 2 49 1 76 5 358 444
139 4 2 49 1 6 89 359 452
140 4 2 49 1 15 125 429 445
141 4 2 49 1 100 266 263 375
142 4 2 49 1 105 104 248 389
143 4 2 49 1 55 78 362 286
144 4 2 49 1 115 116 257 389
145 4 2 49 1 451 55 362 286
146 4 2 49 1 106 105 245 390
147 4 2 49 1 107 106 243 391
148 4 2 49 1 55 56 449 227
149 4 2 49 1 108 107 241 392
150 4 2 49 1 110 109 247 394
151 4 2 49 1 388 268 257 115
152 4 2 49 1 109 108 240 393
153 4 2 49 1 124 13 428 448
154 4 2 49 1 90 8 357 457
155 4 2 49 1 7 77 360 449
156 4 2 49 1 257 267 268 388
157 4 2 49 1 44 69 341 319
158 4 2 49 1 111 110 255 395
159 4 2 49 1 70 45 341 319
160 4 2 49 1 398 434 31 128
161 4 2 49 1 319 341 44 277
162 4 2 49 1 396 260 261 229
163 4 2 49 1 45 341 319 277
164 4 2 49 1 132 405 35 414
165 4 2 49 1 104 103 267 388
166 4 2 49 1 233 334 73 225
167 4 2 49 1 334 233 73 340
168 4 2 49 1 71 46 338 219
169 4 2 49 1 48 73 225 233
170 4 2 49 1 219 338 71 326
171 4 2 49 1 334 72 47 276
172 4 2 49 1 441 38 37 226
173 4 2 49 1 47 334 276 225
174 4 2 49 1 294 36 37 440
175 4 2 49 1 219 46 338 276
176 4 2 49 1 72 334 338 276
177 4 2 49 1 260 254 395 255
178 4 2 49 1 326 70 45 341
179 4 2 49 1 221 35 36 439
180 4 2 49 1 242 381 241 239
181 4 2 49 1 240 238 239 382
182 4 2 49 1 380 242 243 244
183 4 2 49 1 379 245 246 244
184 4 2 49 1 246 248 378 250
185 4 2 49 1 32 33 220 436
186 4 2 49 1 14 123 456 430
187 4 2 49 1 242 239 283 364
188 4 2 49 1 449 360 78 227
189 4 2 49 1 237 239 238 365
190 4 2 49 1 244 371 242 289
191 4 2 49 1 244 246 370 251
192 4 2 49 1 434 31 228 398
193 4 2 49 1 314 444 3 308
194 4 2 49 1 247 266 238 383
195 4 2 49 1 116 256 257 389
196 4 2 49 1 93 269 250 377
197 4 2 49 1 238 266 236 372
198 4 2 49 1 103 102 304 387
199 4 2 49 1 315 309 4 452
200 4 2 49 1 358 5 314 444
201 4 2 49 1 359 315 6 452
202 4 2 49 1 432 15 429 445
203 4 2 49 1 7 78 449 360
204 4 2 49 1 79 78 303 368
205 4 2 49 1 250 369 246 285
206 4 2 49 1 248 257 256 389
207 4 2 49 1 329 69 44 325
208 4 2 49 1 8 88 306 361
209 4 2 49 1 329 43 68 325
210 4 2 49 1 230 50 324 345
211 4 2 49 1 16 443 431 453
212 4 2 49 1 324 50 75 345
213 4 2 49 1 343 40 65 316
214 4 2 49 1 325 44 329 275
215 4 2 49 1 224 54 53 450
216 4 2 49 1 325 329 43 275
217 4 2 49 1 459 61 374 223
218 4 2 49 1 359 309 455 331
219 4 2 49 1 92 286 269 376
220 4 2 49 1 329 44 69 341
221 4 2 49 1 34 35 300 438
222 4 2 49 1 78 55 449 227
223 4 2 49 1 336 42 67 318
224 4 2 49 1 336 68 43 318
225 4 2 49 1 112 111 261 396
226 4 2 49 1 104 105 248 378
227 4 2 49 1 110 109 383 247
228 4 2 49 1 309 64 4 452
229 4 2 49 1 345 74 49 340
230 4 2 49 1 123 456 430 229
231 4 2 49 1 109 108 382 240
232 4 2 49 1 106 105 379 245
233 4 2 49 1 107 108 241 381
234 4 2 49 1 106 107 243 380
235 4 2 49 1 86 85 236 372
236 4 2 49 1 85 237 365 84
237 4 2 49 1 318 336 42 222
238 4 2 49 1 364 84 283 83
239 4 2 49 1 287 224 53 385
240 4 2 49 1 43 336 318 222
241 4 2 49 1 371 82 83 289
242 4 2 49 1 102 103 304 376
243 4 2 49 1 316 343 40 232
244 4 2 49 1 366 87 252 86
245 4 2 49 1 42 67 317 271
246 4 2 49 1 111 110 375 255
247 4 2 49 1 223 261 384 263
248 4 2 49 1 66 41 317 271
249 4 2 49 1 335 317 67 271
250 4 2 49 1 275 336 43 222
251 4 2 49 1 59 58 454 302
252 4 2 49 1 335 66 317 271
253 4 2 49 1 103 104 267 377
254 4 2 49 1 443 453 2 311
255 4 2 49 1 255 263 266 375
256 4 2 49 1 263 252 266 366
257 4 2 49 1 336 43 329 275
258 4 2 49 1 342 328 236 234
259 4 2 49 1 236 328 342 86
260 4 2 49 1 130 129 419 436
261 4 2 49 1 447 77 56 295
262 4 2 49 1 333 278 339 289
263 4 2 49 1 398 30 434 127
264 4 2 49 1 236 237 342 235
265 4 2 49 1 129 128 418 435
266 4 2 49 1 283 237 288 332
267 4 2 49 1 235 237 342 332
268 4 2 49 1 236 237 85 342
269 4 2 49 1 342 237 85 332
270 4 2 49 1 288 339 283 332
271 4 2 49 1 283 339 278 289
272 4 2 49 1 84 283 339 332
273 4 2 49 1 237 283 84 332
274 4 2 49 1 328 252 236 234
275 4 2 49 1 236 252 328 86
276 4 2 49 1 305 60 61 458
277 4 2 49 1 63 62 457 306
278 4 2 49 1 329 68 43 336
279 4 2 49 1 432 310 1 445
280 4 2 49 1 229 60 305 386
281 4 2 49 1 264 263 223 367
282 4 2 49 1 433 416 29 126
283 4 2 49 1 459 361 62 223
284 4 2 49 1 101 263 223 384
285 4 2 49 1 373 224 54 286
286 4 2 49 1 36 405 133 294
287 4 2 49 1 309 284 455 331
288 4 2 49 1 269 377 267 250
289 4 2 49 1 37 404 294 134
290 4 2 49 1 80 79 270 363
291 4 2 49 1 225 350 235 351
292 4 2 49 1 235 234 225 351
293 4 2 49 1 455 284 63 90
294 4 2 49 1 350 288 276 235
295 4 2 49 1 288 352 350 276
296 4 2 49 1 434 228 30 398
297 4 2 49 1 409 135 38 442
298 4 2 49 1 288 278 352 219
299 4 2 49 1 219 278 352 349
300 4 2 49 1 446 231 52 124
301 4 2 49 1 119 397 118 249
302 4 2 49 1 401 120 121 253
303 4 2 49 1 254 401 121 253
304 4 2 49 1 294 405 133 411
305 4 2 49 1 29 291 416 433
306 4 2 49 1 397 119 282 249
307 4 2 49 1 57 76 447 295
308 4 2 49 1 49 230 324 345
309 4 2 49 1 119 120 412 282
310 4 2 49 1 416 30 398 127
311 4 2 49 1 282 120 412 253
312 4 2 49 1 416 30 228 398
313 4 2 49 1 404 294 134 411
314 4 2 49 1 254 121 410 122
315 4 2 49 1 299 403 130 437
316 4 2 49 1 343 66 41 316
317 4 2 49 1 324 74 49 345
318 4 2 49 1 38 409 442 301
319 4 2 49 1 231 446 402 124
320 4 2 49 1 67 42 336 271
321 4 2 49 1 223 384 112 101
322 4 2 49 1 88 87 264 367
323 4 2 49 1 269 270 363 250
324 4 2 49 1 336 335 67 271
325 4 2 49 1 388 257 267 115
326 4 2 49 1 442 136 39 301
327 4 2 49 1 299 403 437 131
328 4 2 49 1 442 409 136 301
329 4 2 49 1 354 349 278 277
330 4 2 49 1 118 413 279 249
331 4 2 49 1 130 33 299 437
332 4 2 49 1 413 279 117 118
333 4 2 49 1 111 112 261 384
334 4 2 49 1 385 287 224 113
335 4 2 49 1 62 361 306 223
336 4 2 49 1 118 391 243 249
337 4 2 49 1 116 248 256 389
338 4 2 49 1 437 34 299 131
339 4 2 49 1 290 354 278 277
340 4 2 49 1 316 41 343 232
341 4 2 49 1 222 336 42 271
342 4 2 49 1 41 66 343 271
343 4 2 49 1 335 343 66 271
344 4 2 49 1 406 268 114 115
345 4 2 49 1 306 8 457 357
346 4 2 49 1 450 224 54 373
347 4 2 49 1 416 291 30 433
348 4 2 49 1 376 304 102 286
349 4 2 49 1 231 446 125 402
350 4 2 49 1 286 376 304 269
351 4 2 49 1 229 305 123 386
352 4 2 49 1 446 51 231 125
353 4 2 49 1 302 454 59 137
354 4 2 49 1 455 89 359 331
355 4 2 49 1 390 279 245 117
356 4 2 49 1 117 116 256 400
357 4 2 49 1 328 346 87 252
358 4 2 49 1 275 274 337 222
359 4 2 49 1 337 336 275 222
360 4 2 49 1 135 38 441 226
361 4 2 49 1 279 256 400 117
362 4 2 49 1 234 265 233 351
363 4 2 49 1 37 404 441 226
364 4 2 49 1 441 404 135 226
365 4 2 49 1 260 254 410 122
366 4 2 49 1 337 251 285 274
367 4 2 49 1 401 410 293 254
368 4 2 49 1 252 328 346 265
369 4 2 49 1 282 392 119 241
370 4 2 49 1 240 120 393 253
371 4 2 49 1 36 405 221 439
372 4 2 49 1 221 405 35 439
373 4 2 49 1 337 336 329 275
374 4 2 49 1 271 343 41 232
375 4 2 49 1 361 8 62 306
376 4 2 49 1 433 30 416 127
377 4 2 49 1 406 257 268 115
378 4 2 49 1 118 392 249 241
379 4 2 49 1 228 291 30 416
380 4 2 49 1 79 344 327 303
381 4 2 49 1 221 35 405 414
382 4 2 49 1 247 121 394 254
383 4 2 49 1 248 104 378 250
384 4 2 49 1 417 454 302 137
385 4 2 49 1 239 108 240 382
386 4 2 49 1 107 381 241 242
387 4 2 49 1 243 106 380 244
388 4 2 49 1 109 247 238 383
389 4 2 49 1 245 105 379 246
390 4 2 49 1 255 395 260 122
391 4 2 49 1 384 112 261 223
392 4 2 49 1 356 346 265 331
393 4 2 49 1 411 133 294 440
394 4 2 49 1 361 306 223 88
395 4 2 49 1 423 401 410 293
396 4 2 49 1 64 309 284 455
397 4 2 49 1 238 240 109 382
398 4 2 49 1 374 61 305 223
399 4 2 49 1 241 381 108 239
400 4 2 49 1 286 303 368 269
401 4 2 49 1 356 233 265 351
402 4 2 49 1 225 334 350 351
403 4 2 49 1 242 243 107 380
404 4 2 49 1 277 354 341 275
405 4 2 49 1 294 134 411 440
406 4 2 49 1 338 350 352 276
407 4 2 49 1 53 224 450 385
408 4 2 49 1 379 106 245 244
409 4 2 49 1 233 334 225 351
410 4 2 49 1 340 334 233 351
411 4 2 49 1 378 105 248 246
412 4 2 49 1 266 247 110 383
413 4 2 49 1 349 352 219 326
414 4 2 49 1 219 349 326 277
415 4 2 49 1 276 334 350 225
416 4 2 49 1 338 352 219 276
417 4 2 49 1 341 326 349 277
418 4 2 49 1 394 120 247 253
419 4 2 49 1 338 334 350 276
420 4 2 49 1 352 338 219 326
421 4 2 49 1 116 256 245 390
422 4 2 49 1 330 343 355 232
423 4 2 49 1 356 230 345 331
424 4 2 49 1 282 119 393 240
425 4 2 49 1 84 283 239 364
426 4 2 49 1 83 242 371 289
427 4 2 49 1 235 342 234 351
428 4 2 49 1 350 342 235 351
429 4 2 49 1 243 279 391 117
430 4 2 49 1 238 237 365 85
431 4 2 49 1 350 288 235 332
432 4 2 49 1 288 350 352 332
433 4 2 49 1 228 416 398 427
434 4 2 49 1 278 352 339 288
435 4 2 49 1 85 238 236 372
436 4 2 49 1 339 352 278 349
437 4 2 49 1 237 239 365 84
438 4 2 49 1 344 327 303 272
439 4 2 49 1 110 255 266 375
440 4 2 49 1 244 370 82 251
441 4 2 49 1 267 103 377 269
442 4 2 49 1 114 268 267 388
443 4 2 49 1 387 312 304 114
444 4 2 49 1 364 283 242 83
445 4 2 49 1 329 341 354 275
446 4 2 49 1 121 395 254 255
447 4 2 49 1 454 58 138 302
448 4 2 49 1 223 264 367 88
449 4 2 49 1 397 412 296 282
450 4 2 49 1 86 236 266 372
451 4 2 49 1 82 371 244 289
452 4 2 49 1 284 265 346 331
453 4 2 49 1 219 352 288 276
454 4 2 49 1 350 276 225 235
455 4 2 49 1 297 435 129 418
456 4 2 49 1 225 234 233 351
457 4 2 49 1 349 219 278 277
458 4 2 49 1 294 133 36 440
459 4 2 49 1 435 32 297 129
460 4 2 49 1 82 81 251 370
461 4 2 49 1 81 80 285 369
462 4 2 49 1 296 420 412 397
463 4 2 49 1 409 38 135 226
464 4 2 49 1 135 404 409 226
465 4 2 49 1 251 81 337 285
466 4 2 49 1 398 31 418 128
467 4 2 49 1 458 61 305 374
468 4 2 49 1 250 80 369 285
469 4 2 49 1 134 294 37 440
470 4 2 49 1 264 252 346 265
471 4 2 49 1 458 305 60 386
472 4 2 49 1 356 340 233 351
473 4 2 49 1 252 346 87 264
474 4 2 49 1 457 62 8 306
475 4 2 49 1 366 252 266 86
476 4 2 49 1 277 290 354 275
477 4 2 49 1 348 251 274 290
478 4 2 49 1 373 102 224 286
479 4 2 49 1 263 255 111 375
480 4 2 49 1 358 444 314 308
481 4 2 49 1 232 355 330 272
482 4 2 49 1 452 315 309 359
483 4 2 49 1 418 228 31 398
484 4 2 49 1 401 296 412 253
485 4 2 49 1 445 432 310 429
486 4 2 49 1 425 292 228 427
487 4 2 49 1 431 453 443 311
488 4 2 49 1 252 263 87 366
489 4 2 49 1 116 115 257 407
490 4 2 49 1 354 278 349 333
491 4 2 49 1 289 251 348 290
492 4 2 49 1 301 38 409 226
493 4 2 49 1 354 341 349 277
494 4 2 49 1 304 224 312 387
495 4 2 49 1 116 257 256 407
496 4 2 49 1 333 354 278 290
497 4 2 49 1 267 377 104 250
498 4 2 49 1 344 330 272 295
499 4 2 49 1 272 227 344 295
500 4 2 49 1 422 401 296 412
501 4 2 49 1 337 348 81 251
502 4 2 49 1 412 120 401 253
503 4 2 49 1 227 78 55 286
504 4 2 49 1 382 109 238 98
505 4 2 49 1 329 354 337 275
506 4 2 49 1 249 243 118 241
507 4 2 49 1 230 345 340 356
508 4 2 49 1 239 381 108 97
509 4 2 49 1 383 110 266 99
510 4 2 49 1 265 234 328 351
511 4 2 49 1 412 397 119 282
512 4 2 49 1 241 243 107 242
513 4 2 49 1 108 240 241 239
514 4 2 49 1 96 242 107 380
515 4 2 49 1 330 232 272 295
516 4 2 49 1 243 245 106 244
517 4 2 49 1 422 258 221 296
518 4 2 49 1 247 240 109 238
519 4 2 49 1 330 344 227 295
520 4 2 49 1 235 288 237 332
521 4 2 49 1 289 333 278 290
522 4 2 49 1 342 85 236 86
523 4 2 49 1 245 248 105 246
524 4 2 49 1 270 303 327 272
525 4 2 49 1 233 230 340 356
526 4 2 49 1 85 237 84 332
527 4 2 49 1 339 283 278 288
528 4 2 49 1 93 104 377 250
529 4 2 49 1 84 339 283 83
530 4 2 49 1 234 236 342 235
531 4 2 49 1 270 80 363 250
532 4 2 49 1 106 379 95 244
533 4 2 49 1 239 237 283 84
534 4 2 49 1 83 283 242 289
535 4 2 49 1 105 378 94 246
536 4 2 49 1 303 327 79 270
537 4 2 49 1 237 238 236 85
538 4 2 49 1 87 328 252 86
539 4 2 49 1 265 346 264 284
540 4 2 49 1 347 337 81 285
541 4 2 49 1 397 413 118 249
542 4 2 49 1 299 403 131 300
543 4 2 49 1 337 353 336 222
544 4 2 49 1 438 300 131 414
545 4 2 49 1 300 403 131 414
546 4 2 49 1 292 268 415 406
547 4 2 49 1 114 113 312 415
548 4 2 49 1 256 245 248 116
549 4 2 49 1 82 244 251 289
550 4 2 49 1 410 401 121 254
551 4 2 49 1 261 260 396 122
552 4 2 49 1 456 229 59 430
553 4 2 49 1 98 109 238 383
554 4 2 49 1 416 228 291 427
555 4 2 49 1 226 37 404 294
556 4 2 49 1 120 240 247 253
557 4 2 49 1 305 112 374 223
558 4 2 49 1 375 266 110 99
559 4 2 49 1 300 131 34 438
560 4 2 49 1 422 258 294 221
561 4 2 49 1 293 226 423 258
562 4 2 49 1 240 282 119 241
563 4 2 49 1 36 405 294 221
564 4 2 49 1 279 243 245 117
565 4 2 49 1 382 239 108 97
566 4 2 49 1 102 373 91 286
567 4 2 49 1 271 273 355 272
568 4 2 49 1 220 299 280 426
569 4 2 49 1 255 247 110 266
570 4 2 49 1 138 417 454 302
571 4 2 49 1 107 381 242 96
572 4 2 49 1 40 358 343 65
573 4 2 49 1 111 263 375 100
574 4 2 49 1 273 270 327 272
575 4 2 49 1 254 247 121 255
576 4 2 49 1 296 281 221 420
577 4 2 49 1 252 236 266 86
578 4 2 49 1 280 298 220 426
579 4 2 49 1 309 75 50 345
580 4 2 49 1 258 226 423 294
581 4 2 49 1 82 333 83 289
582 4 2 49 1 380 106 95 244
583 4 2 49 1 287 52 231 428
584 4 2 49 1 356 265 328 351
585 4 2 49 1 313 291 427 402
586 4 2 49 1 260 410 262 399
587 4 2 49 1 280 413 397 249
588 4 2 49 1 50 230 309 345
589 4 2 49 1 280 299 300 421
590 4 2 49 1 262 293 410 260
591 4 2 49 1 379 105 94 246
592 4 2 49 1 91 376 102 286
593 4 2 49 1 400 298 279 413
594 4 2 49 1 131 34 299 300
595 4 2 49 1 52 287 448 428
596 4 2 49 1 355 353 273 271
597 4 2 49 1 93 378 104 250
598 4 2 49 1 419 403 299 426
599 4 2 49 1 248 257 389 115
600 4 2 49 1 358 40 343 308
601 4 2 49 1 289 348 333 290
602 4 2 49 1 363 79 270 269
603 4 2 49 1 368 78 303 286
604 4 2 49 1 264 87 263 367
605 4 2 49 1 261 111 384 263
606 4 2 49 1 309 75 345 359
607 4 2 49 1 343 40 232 308
608 4 2 49 1 274 285 347 273
609 4 2 49 1 387 224 312 113
610 4 2 49 1 436 419 220 129
611 4 2 49 1 424 404 423 293
612 4 2 49 1 327 355 273 272
613 4 2 49 1 117 400 279 413
614 4 2 49 1 360 56 77 295
615 4 2 49 1 419 33 299 130
616 4 2 49 1 104 248 267 250
617 4 2 49 1 421 280 413 397
618 4 2 49 1 428 52 231 124
619 4 2 49 1 232 271 355 272
620 4 2 49 1 223 112 374 101
621 4 2 49 1 398 425 228 427
622 4 2 49 1 436 220 32 129
623 4 2 49 1 353 355 335 271
624 4 2 49 1 299 403 419 130
625 4 2 49 1 413 400 298 426
626 4 2 49 1 234 328 252 265
627 4 2 49 1 230 233 265 356
628 4 2 49 1 88 8 306 357
629 4 2 49 1 327 355 353 273
630 4 2 49 1 92 377 103 269
631 4 2 49 1 313 291 292 427
632 4 2 49 1 449 56 360 227
633 4 2 49 1 263 111 384 100
634 4 2 49 1 291 310 29 416
635 4 2 49 1 406 407 257 115
636 4 2 49 1 307 228 297 425
637 4 2 49 1 430 229 262 399
638 4 2 49 1 51 310 231 125
639 4 2 49 1 78 79 303 344
640 4 2 49 1 307 292 228 425
641 4 2 49 1 79 80 270 327
642 4 2 49 1 114 415 268 406
643 4 2 49 1 418 129 297 408
644 4 2 49 1 250 270 80 285
645 4 2 49 1 229 262 302 430
646 4 2 49 1 400 116 256 407
647 4 2 49 1 427 415 313 402
648 4 2 49 1 357 63 284 90
649 4 2 49 1 401 293 258 254
650 4 2 49 1 229 302 59 430
651 4 2 49 1 430 262 417 399
652 4 2 49 1 427 291 416 402
653 4 2 49 1 292 291 228 427
654 4 2 49 1 410 424 262 399
655 4 2 49 1 267 103 114 388
656 4 2 49 1 304 224 102 286
657 4 2 49 1 221 300 35 414
658 4 2 49 1 431 136 409 301
659 4 2 49 1 417 302 262 430
660 4 2 49 1 311 431 302 301
661 4 2 49 1 257 248 267 115
662 4 2 49 1 251 348 82 289
663 4 2 49 1 402 428 231 124
664 4 2 49 1 344 330 355 272
665 4 2 49 1 410 424 293 262
666 4 2 49 1 306 457 63 357
667 4 2 49 1 268 267 304 114
668 4 2 49 1 87 263 252 264
669 4 2 49 1 450 13 53 385
670 4 2 49 1 57 76 295 308
671 4 2 49 1 59 302 137 430
672 4 2 49 1 374 10 61 459
673 4 2 49 1 12 61 458 374
674 4 2 49 1 260 261 255 122
675 4 2 49 1 307 292 425 427
676 4 2 49 1 399 260 410 122
677 4 2 49 1 397 296 281 282
678 4 2 49 1 123 261 305 229
679 4 2 49 1 130 419 33 436
680 4 2 49 1 337 348 274 290
681 4 2 49 1 300 299 403 421
682 4 2 49 1 222 273 353 271
683 4 2 49 1 111 261 255 263
684 4 2 49 1 427 292 415 406
685 4 2 49 1 293 423 401 258
686 4 2 49 1 112 305 261 223
687 4 2 49 1 240 109 120 247
688 4 2 49 1 369 81 246 285
689 4 2 49 1 246 81 370 251
690 4 2 49 1 240 119 108 241
691 4 2 49 1 118 243 107 241
692 4 2 49 1 229 260 262 399
693 4 2 49 1 344 303 227 272
694 4 2 49 1 31 435 418 128
695 4 2 49 1 221 405 422 420
696 4 2 49 1 414 405 221 420
697 4 2 49 1 117 243 245 106
698 4 2 49 1 337 348 251 274
699 4 2 49 1 268 313 292 415
700 4 2 49 1 105 248 245 116
701 4 2 49 1 285 270 347 273
702 4 2 49 1 247 110 121 255
703 4 2 49 1 458 60 14 386
704 4 2 49 1 417 431 409 301
705 4 2 49 1 420 296 281 397
706 4 2 49 1 296 221 422 420
707 4 2 49 1 348 337 354 290
708 4 2 49 1 361 62 8 459
709 4 2 49 1 65 40 358 314
710 4 2 49 1 56 360 227 295
711 4 2 49 1 344 360 330 227
712 4 2 49 1 418 425 228 398
713 4 2 49 1 348 333 82 289
714 4 2 49 1 453 431 58 311
715 4 2 49 1 347 337 285 274
716 4 2 49 1 431 58 138 453
717 4 2 49 1 220 297 32 129
718 4 2 49 1 409 417 301 262
719 4 2 49 1 309 50 75 315
720 4 2 49 1 428 448 52 124
721 4 2 49 1 137 302 417 430
722 4 2 49 1 224 304 102 387
723 4 2 49 1 360 77 56 449
724 4 2 49 1 357 457 63 90
725 4 2 49 1 414 300 403 421
726 4 2 49 1 256 259 400 407
727 4 2 49 1 296 401 258 253
728 4 2 49 1 424 409 404 226
729 4 2 49 1 410 293 254 260
730 4 2 49 1 443 39 136 311
731 4 2 49 1 431 138 58 302
732 4 2 49 1 297 228 31 418
733 4 2 49 1 409 424 301 226
734 4 2 49 1 88 87 346 264
735 4 2 49 1 58 431 302 311
736 4 2 49 1 431 417 302 301
737 4 2 49 1 282 412 296 253
738 4 2 49 1 284 306 63 357
739 4 2 49 1 429 432 310 126
740 4 2 49 1 227 303 78 286
741 4 2 49 1 226 423 404 293
742 4 2 49 1 40 358 314 308
743 4 2 49 1 264 223 306 88
744 4 2 49 1 435 297 31 418
745 4 2 49 1 268 304 312 114
746 4 2 49 1 312 287 415 428
747 4 2 49 1 129 419 220 408
748 4 2 49 1 428 415 312 113
749 4 2 49 1 75 309 315 359
750 4 2 49 1 303 79 368 269
751 4 2 49 1 299 220 419 426
752 4 2 49 1 443 136 431 311
753 4 2 49 1 294 258 422 411
754 4 2 49 1 281 397 282 249
755 4 2 49 1 415 268 312 114
756 4 2 49 1 137 456 59 430
757 4 2 49 1 347 337 274 273
758 4 2 49 1 291 231 310 402
759 4 2 49 1 389 104 248 115
760 4 2 49 1 258 422 401 296
761 4 2 49 1 284 309 230 331
762 4 2 49 1 251 246 81 285
763 4 2 49 1 313 287 231 428
764 4 2 49 1 417 409 424 262
765 4 2 49 1 312 287 313 415
766 4 2 49 1 310 51 445 125
767 4 2 49 1 104 267 248 115
768 4 2 49 1 342 350 235 332
769 4 2 49 1 349 278 339 333
770 4 2 49 1 234 342 328 351
771 4 2 49 1 288 352 339 332
772 4 2 49 1 294 423 258 411
773 4 2 49 1 432 29 310 126
774 4 2 49 1 376 92 304 269
775 4 2 49 1 231 291 313 402
776 4 2 49 1 419 220 33 436
777 4 2 49 1 337 347 353 273
778 4 2 49 1 303 78 344 227
779 4 2 49 1 245 105 116 390
780 4 2 49 1 254 258 401 253
781 4 2 49 1 226 424 301 262
782 4 2 49 1 373 54 9 451
783 4 2 49 1 450 54 11 373
784 4 2 49 1 413 280 279 249
785 4 2 49 1 280 300 281 421
786 4 2 49 1 300 221 281 420
787 4 2 49 1 117 391 243 106
788 4 2 49 1 270 327 347 273
789 4 2 49 1 270 347 80 285
790 4 2 49 1 392 118 107 241
791 4 2 49 1 330 232 295 308
792 4 2 49 1 298 280 279 413
793 4 2 49 1 424 226 293 262
794 4 2 49 1 108 393 119 240
795 4 2 49 1 279 256 298 400
796 4 2 49 1 426 400 298 408
797 4 2 49 1 397 281 280 249
798 4 2 49 1 256 259 298 400
799 4 2 49 1 109 394 120 247
800 4 2 49 1 103 267 304 269
801 4 2 49 1 422 296 420 412
802 4 2 49 1 259 256 257 407
803 4 2 49 1 220 297 129 408
804 4 2 49 1 255 261 111 122
805 4 2 49 1 125 445 310 429
806 4 2 49 1 307 297 259 425
807 4 2 49 1 347 80 327 270
808 4 2 49 1 259 400 407 408
809 4 2 49 1 417 302 301 262
810 4 2 49 1 362 7 55 451
811 4 2 49 1 395 121 110 255
812 4 2 49 1 299 220 33 419
813 4 2 49 1 307 257 268 406
814 4 2 49 1 429 291 310 402
815 4 2 49 1 312 313 268 415
816 4 2 49 1 299 280 403 421
817 4 2 49 1 262 424 417 399
818 4 2 49 1 421 281 280 397
819 4 2 49 1 110 121 394 247
820 4 2 49 1 298 280 413 426
821 4 2 49 1 255 111 395 122
822 4 2 49 1 228 297 425 418
823 4 2 49 1 404 424 226 293
824 4 2 49 1 346 284 331 357
825 4 2 49 1 265 328 346 356
826 4 2 49 1 109 120 393 240
827 4 2 49 1 312 287 428 113
828 4 2 49 1 392 108 119 241
829 4 2 49 1 417 138 431 302
830 4 2 49 1 268 292 307 406
831 4 2 49 1 309 64 452 359
832 4 2 49 1 327 344 355 272
833 4 2 49 1 118 243 391 107
834 4 2 49 1 270 79 303 269
835 4 2 49 1 428 231 313 402
836 4 2 49 1 117 245 390 106
837 4 2 49 1 403 280 299 426
838 4 2 49 1 429 416 291 402
839 4 2 49 1 103 304 267 114
840 4 2 49 1 221 300 414 420
841 4 2 49 1 116 105 248 389
842 4 2 49 1 89 452 64 359
843 4 2 49 1 423 410 424 293
844 4 2 49 1 92 304 103 376
845 4 2 49 1 387 102 224 113
846 4 2 49 1 82 81 348 251
847 4 2 49 1 346 264 357 88
848 4 2 49 1 426 298 220 408
849 4 2 49 1 407 257 307 406
850 4 2 49 1 81 80 347 285
851 4 2 49 1 220 298 259 408
852 4 2 49 1 287 312 224 113
853 4 2 49 1 357 264 306 88
854 4 2 49 1 400 259 298 408
855 4 2 49 1 415 313 292 427
856 4 2 49 1 281 414 420 421
857 4 2 49 1 423 422 258 411
858 4 2 49 1 301 424 409 262
859 4 2 49 1 261 396 123 112
860 4 2 49 1 287 313 415 428
861 4 2 49 1 416 291 310 429
862 4 2 49 1 403 280 426 421
863 4 2 49 1 261 396 111 122
864 4 2 49 1 313 415 428 402
865 4 2 49 1 78 360 344 227
866 4 2 49 1 425 259 407 408
867 4 2 49 1 427 425 307 406
868 4 2 49 1 104 388 267 115
869 4 2 49 1 425 407 307 406
870 4 2 49 1 297 425 418 408
871 4 2 49 1 297 220 259 408
872 4 2 49 1 227 360 330 295
873 4 2 49 1 354 333 348 290
874 4 2 49 1 307 259 257 407
875 4 2 49 1 425 297 259 408
876 4 2 49 1 427 307 292 406
877 4 2 49 1 353 347 327 273
878 4 2 49 1 305 261 123 112
879 4 2 49 1 426 220 419 408
880 4 2 49 1 123 229 430 399
881 4 2 49 1 92 103 304 269
882 4 2 49 1 421 420 281 397
883 4 2 49 1 387 304 103 114
884 4 2 49 1 423 422 401 258
885 4 2 49 1 223 367 101 88
886 4 2 49 1 426 280 413 421
887 4 2 49 1 407 307 259 425
888 4 2 49 1 414 300 281 420
889 4 2 49 1 80 93 363 250
890 4 2 49 1 414 281 300 421
891 4 2 49 1 386 305 123 112
892 4 2 49 1 92 368 79 269
893 4 2 49 1 370 82 95 244
894 4 2 49 1 371 96 242 83
895 4 2 49 1 239 84 364 97
896 4 2 49 1 365 238 85 98
897 4 2 49 1 2 16 453 443
898 4 2 49 1 1 15 432 445
899 4 2 49 1 93 80 369 250
900 4 2 49 1 266 99 86 372
901 4 2 49 1 96 364 242 83
902 4 2 49 1 84 239 365 97
903 4 2 49 1 238 85 98 372
904 4 2 49 1 95 82 371 244
905 4 2 49 1 99 366 266 86
906 4 2 49 1 4 6 315 452
907 4 2 49 1 444 3 5 314
908 4 2 49 1 366 263 87 100
909 4 2 49 1 79 363 92 269
910 4 2 49 1 10 12 374 61
911 4 2 49 1 87 263 367 100
912 4 2 49 1 91 362 78 286
913 4 2 49 1 78 368 91 286
914 4 2 49 1 11 9 373 54
915 4 2 49 1 385 224 102 113
916 4 2 49 1 81 94 369 246
917 4 2 49 1 101 361 223 88
918 4 2 49 1 81 370 94 246
919 4 2 49 1 12 14 386 458
920 4 2 49 1 8 10 361 459
921 4 2 49 1 9 7 362 451
922 4 2 49 1 13 11 385 450
923 4 2 49 1 385 450 102 224
924 4 2 49 1 385 102 450 11
925 4 2 49 1 373 102 450 224
926 4 2 49 1 373 450 102 11
927 4 2 49 1 60 14 229 456
928 4 2 49 1 60 229 14 386
929 4 2 49 1 123 229 14 456
930 4 2 49 1 123 14 229 386
931 4 2 49 1 7 78 55 449
932 4 2 49 1 7 55 78 362
933 4 2 49 1 113 287 13 385
934 4 2 49 1 53 287 13 448
935 4 2 49 1 53 13 287 385
936 4 2 49 1 229 399 122 260
937 4 2 49 1 122 399 229 123
938 4 2 49 1 122 396 229 260
939 4 2 49 1 229 396 122 123
940 4 2 49 1 289 339 83 283
941 4 2 49 1 289 83 339 333
942 4 2 49 1 295 77 330 447
943 4 2 49 1 295 330 77 360
944 4 2 49 1 90 284 331 455
945 4 2 49 1 90 331 284 357
946 4 2 49 1 76 295 330 447
947 4 2 49 1 277 326 45 341
948 4 2 49 1 277 45 326 219
949 4 2 49 1 230 340 49 233
950 4 2 49 1 49 340 230 345
951 4 2 49 1 275 341 44 329
952 4 2 49 1 275 44 341 277
953 4 2 49 1 271 343 355 335
954 4 2 49 1 355 343 271 232
955 4 2 49 1 331 265 230 284
956 4 2 49 1 331 230 265 356
957 4 2 49 1 357 264 284 306
958 4 2 49 1 357 284 264 346
959 4 2 49 1 290 337 275 274
960 4 2 49 1 290 275 337 354
961 4 2 49 1 336 271 353 335
962 4 2 49 1 353 271 336 222
963 4 2 49 1 414 35 438 300
964 4 2 49 1 414 438 35 132
965 4 2 49 1 311 136 301 39
966 4 2 49 1 311 301 136 431
967 4 2 49 1 310 402 125 429
968 4 2 49 1 125 402 310 231
969 4 2 49 1 404 294 423 226
970 4 2 49 1 423 294 404 411
971 4 2 49 1 294 405 422 221
972 4 2 49 1 294 422 405 411
973 4 2 49 1 337 273 222 274
974 4 2 49 1 222 273 337 353
975 4 2 49 1 359 64 455 309
976 4 2 49 1 359 455 64 89
977 4 2 49 1 345 309 331 230
978 4 2 49 1 331 309 345 359
979 4 2 49 1 308 76 444 57
980 4 2 49 1 308 444 76 358
981 4 2 49 1 310 126 416 429
982 4 2 49 1 416 126 310 29
983 4 2 49 1 308 343 330 232
984 4 2 49 1 308 330 343 358
985 4 2 49 1 308 330 76 295
986 4 2 49 1 308 76 330 358
987 4 2 49 1 386 458 112 12
988 4 2 49 1 386 112 458 305
989 4 2 49 1 374 112 458 12
990 4 2 49 1 374 458 112 305
991 4 2 49 1 362 451 91 9
992 4 2 49 1 362 91 451 286
993 4 2 49 1 373 91 451 9
994 4 2 49 1 373 451 91 286
995 4 2 49 1 287 13 428 113
996 4 2 49 1 287 428 13 448
997 4 2 50 2 196 26 484 605
998 4 2 50 2 19 186 471 606
999 4 2 50 2 137 14 430 477
1000 4 2 50 2 374 482 473 483
1001 4 2 50 2 373 460 469 470
1002 4 2 50 2 215 216 517 624
1003 4 2 50 2 214 215 518 628
1004 4 2 50 2 216 217 545 625
1005 4 2 50 2 213 214 521 622
1006 4 2 50 2 212 213 523 623
1007 4 2 50 2 211 212 525 621
1008 4 2 50 2 13 124 428 464
1009 4 2 50 2 518 215 517 628
1010 4 2 50 2 517 216 545 624
1011 4 2 50 2 210 211 529 620
1012 4 2 50 2 521 214 518 622
1013 4 2 50 2 208 209 565 619
1014 4 2 50 2 523 213 521 623
1015 4 2 50 2 525 212 523 621
1016 4 2 50 2 217 218 542 626
1017 4 2 50 2 209 210 548 627
1018 4 2 50 2 529 211 525 620
1019 4 2 50 2 545 217 542 625
1020 4 2 50 2 565 209 548 619
1021 4 2 50 2 218 28 502 618
1022 4 2 50 2 471 461 566 360
1023 4 2 50 2 73 72 334 601
1024 4 2 50 2 134 133 495 411
1025 4 2 50 2 74 73 340 602
1026 4 2 50 2 132 133 405 493
1027 4 2 50 2 72 71 338 599
1028 4 2 50 2 131 132 414 494
1029 4 2 50 2 71 70 326 600
1030 4 2 50 2 134 135 404 496
1031 4 2 50 2 67 66 335 595
1032 4 2 50 2 172 512 173 496
1033 4 2 50 2 171 172 495 504
1034 4 2 50 2 548 210 529 627
1035 4 2 50 2 170 493 555 171
1036 4 2 50 2 170 498 494 169
1037 4 2 50 2 492 556 168 169
1038 4 2 50 2 554 168 167 491
1039 4 2 50 2 501 167 166 490
1040 4 2 50 2 186 187 591 607
1041 4 2 50 2 506 143 472 144
1042 4 2 50 2 130 131 403 492
1043 4 2 50 2 174 173 509 497
1044 4 2 50 2 70 69 341 598
1045 4 2 50 2 128 127 489 398
1046 4 2 50 2 207 27 605 584
1047 4 2 50 2 89 90 481 331
1048 4 2 50 2 76 77 330 468
1049 4 2 50 2 125 124 467 402
1050 4 2 50 2 175 176 570 594
1051 4 2 50 2 160 482 374 483
1052 4 2 50 2 194 195 533 614
1053 4 2 50 2 193 194 532 613
1054 4 2 50 2 69 68 329 597
1055 4 2 50 2 191 192 528 616
1056 4 2 50 2 488 164 165 511
1057 4 2 50 2 142 469 373 565
1058 4 2 50 2 189 190 535 610
1059 4 2 50 2 28 502 618 476
1060 4 2 50 2 192 193 561 612
1061 4 2 50 2 190 191 558 611
1062 4 2 50 2 68 67 336 596
1063 4 2 50 2 177 507 176 595
1064 4 2 50 2 147 146 582 619
1065 4 2 50 2 162 585 161 485
1066 4 2 50 2 66 65 343 594
1067 4 2 50 2 75 74 345 603
1068 4 2 50 2 127 126 488 416
1069 4 2 50 2 471 7 461 360
1070 4 2 50 2 153 152 516 628
1071 4 2 50 2 187 188 547 608
1072 4 2 50 2 152 151 562 622
1073 4 2 50 2 154 153 515 624
1074 4 2 50 2 138 137 417 480
1075 4 2 50 2 151 150 568 623
1076 4 2 50 2 550 165 489 166
1077 4 2 50 2 199 200 609 527
1078 4 2 50 2 200 201 610 524
1079 4 2 50 2 90 8 474 357
1080 4 2 50 2 77 7 360 461
1081 4 2 50 2 201 202 611 522
1082 4 2 50 2 150 149 530 621
1083 4 2 50 2 136 135 497 409
1084 4 2 50 2 202 203 616 520
1085 4 2 50 2 203 204 612 519
1086 4 2 50 2 204 205 613 526
1087 4 2 50 2 155 154 531 625
1088 4 2 50 2 149 148 564 620
1089 4 2 50 2 603 185 184 580
1090 4 2 50 2 542 218 502 626
1091 4 2 50 2 162 163 563 480
1092 4 2 50 2 205 206 614 534
1093 4 2 50 2 198 199 608 546
1094 4 2 50 2 590 24 604 185
1095 4 2 50 2 502 160 161 476
1096 4 2 50 2 136 16 431 487
1097 4 2 50 2 574 144 467 145
1098 4 2 50 2 142 143 463 565
1099 4 2 50 2 65 5 358 593
1100 4 2 50 2 6 75 359 604
1101 4 2 50 2 126 15 486 429
1102 4 2 50 2 180 598 578 179
1103 4 2 50 2 16 138 431 479
1104 4 2 50 2 587 18 486 164
1105 4 2 50 2 25 174 588 487
1106 4 2 50 2 139 510 140 468
1107 4 2 50 2 188 189 536 609
1108 4 2 50 2 148 147 549 627
1109 4 2 50 2 502 160 482 374
1110 4 2 50 2 197 198 607 583
1111 4 2 50 2 159 474 484 508
1112 4 2 50 2 142 373 469 470
1113 4 2 50 2 28 374 502 482
1114 4 2 50 2 143 617 463 565
1115 4 2 50 2 495 171 504 411
1116 4 2 50 2 171 495 133 411
1117 4 2 50 2 72 338 182 599
1118 4 2 50 2 602 340 74 184
1119 4 2 50 2 175 589 17 593
1120 4 2 50 2 404 135 173 496
1121 4 2 50 2 404 173 512 496
1122 4 2 50 2 157 24 478 590
1123 4 2 50 2 170 405 493 132
1124 4 2 50 2 494 131 169 414
1125 4 2 50 2 555 405 493 170
1126 4 2 50 2 132 494 498 414
1127 4 2 50 2 172 512 496 134
1128 4 2 50 2 504 172 495 134
1129 4 2 50 2 169 498 494 414
1130 4 2 50 2 495 504 134 411
1131 4 2 50 2 494 498 170 132
1132 4 2 50 2 496 512 404 134
1133 4 2 50 2 141 503 142 462
1134 4 2 50 2 555 493 133 171
1135 4 2 50 2 133 405 493 555
1136 4 2 50 2 139 17 589 465
1137 4 2 50 2 178 177 596 576
1138 4 2 50 2 145 18 466 587
1139 4 2 50 2 89 6 359 478
1140 4 2 50 2 76 5 465 358
1141 4 2 50 2 15 125 466 429
1142 4 2 50 2 186 471 566 360
1143 4 2 50 2 206 207 615 540
1144 4 2 50 2 156 155 543 626
1145 4 2 50 2 130 403 168 492
1146 4 2 50 2 141 462 471 606
1147 4 2 50 2 556 168 403 492
1148 4 2 50 2 507 177 67 595
1149 4 2 50 2 595 67 507 335
1150 4 2 50 2 502 160 476 482
1151 4 2 50 2 584 160 475 159
1152 4 2 50 2 489 398 166 128
1153 4 2 50 2 404 512 504 134
1154 4 2 50 2 134 504 404 411
1155 4 2 50 2 131 403 492 169
1156 4 2 50 2 170 498 405 132
1157 4 2 50 2 172 504 512 134
1158 4 2 50 2 132 498 405 414
1159 4 2 50 2 133 555 171 411
1160 4 2 50 2 505 184 602 183
1161 4 2 50 2 504 171 555 411
1162 4 2 50 2 573 182 183 601
1163 4 2 50 2 555 498 405 170
1164 4 2 50 2 555 133 405 411
1165 4 2 50 2 622 518 521 562
1166 4 2 50 2 403 556 492 169
1167 4 2 50 2 517 518 628 516
1168 4 2 50 2 28 502 476 482
1169 4 2 50 2 523 568 623 521
1170 4 2 50 2 373 142 503 470
1171 4 2 50 2 530 525 523 621
1172 4 2 50 2 500 181 182 599
1173 4 2 50 2 169 131 403 414
1174 4 2 50 2 381 521 518 520
1175 4 2 50 2 545 517 624 515
1176 4 2 50 2 382 518 517 519
1177 4 2 50 2 522 521 523 380
1178 4 2 50 2 475 484 605 159
1179 4 2 50 2 525 523 379 524
1180 4 2 50 2 595 176 66 335
1181 4 2 50 2 529 525 378 527
1182 4 2 50 2 179 597 499 178
1183 4 2 50 2 564 529 525 620
1184 4 2 50 2 489 398 127 165
1185 4 2 50 2 18 486 466 587
1186 4 2 50 2 383 517 545 526
1187 4 2 50 2 546 547 536 608
1188 4 2 50 2 479 25 588 487
1189 4 2 50 2 540 196 615 508
1190 4 2 50 2 358 5 465 593
1191 4 2 50 2 6 359 478 604
1192 4 2 50 2 15 429 466 486
1193 4 2 50 2 547 188 536 608
1194 4 2 50 2 508 159 474 158
1195 4 2 50 2 329 69 597 179
1196 4 2 50 2 431 16 479 487
1197 4 2 50 2 566 141 461 471
1198 4 2 50 2 68 329 597 178
1199 4 2 50 2 507 176 595 335
1200 4 2 50 2 416 126 488 164
1201 4 2 50 2 404 512 173 409
1202 4 2 50 2 512 509 173 409
1203 4 2 50 2 173 135 404 409
1204 4 2 50 2 180 181 579 600
1205 4 2 50 2 543 542 502 626
1206 4 2 50 2 542 531 545 625
1207 4 2 50 2 25 588 163 479
1208 4 2 50 2 340 345 74 184
1209 4 2 50 2 178 596 68 336
1210 4 2 50 2 208 11 373 102
1211 4 2 50 2 11 208 373 21
1212 4 2 50 2 216 109 383 110
1213 4 2 50 2 208 103 376 209
1214 4 2 50 2 28 12 218 374
1215 4 2 50 2 210 105 104 378
1216 4 2 50 2 216 111 110 375
1217 4 2 50 2 109 216 383 215
1218 4 2 50 2 103 208 376 102
1219 4 2 50 2 109 214 215 382
1220 4 2 50 2 104 103 210 377
1221 4 2 50 2 210 103 209 377
1222 4 2 50 2 27 207 10 374
1223 4 2 50 2 205 98 99 383
1224 4 2 50 2 100 99 375 205
1225 4 2 50 2 197 9 373 20
1226 4 2 50 2 140 566 141 461
1227 4 2 50 2 214 109 108 382
1228 4 2 50 2 12 218 374 112
1229 4 2 50 2 111 216 217 375
1230 4 2 50 2 107 212 213 380
1231 4 2 50 2 211 106 105 379
1232 4 2 50 2 212 107 106 380
1233 4 2 50 2 106 211 212 379
1234 4 2 50 2 105 210 211 378
1235 4 2 50 2 108 213 381 107
1236 4 2 50 2 217 112 111 384
1237 4 2 50 2 112 217 218 384
1238 4 2 50 2 213 108 381 214
1239 4 2 50 2 204 203 97 382
1240 4 2 50 2 206 205 100 375
1241 4 2 50 2 200 93 378 199
1242 4 2 50 2 202 95 96 380
1243 4 2 50 2 198 91 92 376
1244 4 2 50 2 207 10 374 101
1245 4 2 50 2 198 197 91 376
1246 4 2 50 2 204 97 98 382
1247 4 2 50 2 202 201 95 380
1248 4 2 50 2 205 204 98 383
1249 4 2 50 2 201 200 94 379
1250 4 2 50 2 201 94 95 379
1251 4 2 50 2 93 200 378 94
1252 4 2 50 2 9 197 373 91
1253 4 2 50 2 206 101 207 384
1254 4 2 50 2 203 202 96 381
1255 4 2 50 2 203 96 97 381
1256 4 2 50 2 101 100 384 206
1257 4 2 50 2 199 198 92 377
1258 4 2 50 2 199 92 93 377
1259 4 2 50 2 542 502 384 540
1260 4 2 50 2 215 216 383 517
1261 4 2 50 2 581 158 481 157
1262 4 2 50 2 214 215 382 518
1263 4 2 50 2 164 488 416 511
1264 4 2 50 2 604 478 24 590
1265 4 2 50 2 127 398 416 165
1266 4 2 50 2 545 542 375 534
1267 4 2 50 2 213 214 381 521
1268 4 2 50 2 129 130 419 491
1269 4 2 50 2 467 124 144 574
1270 4 2 50 2 212 213 380 523
1271 4 2 50 2 516 401 515 514
1272 4 2 50 2 518 215 382 517
1273 4 2 50 2 129 128 490 418
1274 4 2 50 2 562 516 567 412
1275 4 2 50 2 514 516 401 412
1276 4 2 50 2 211 212 379 525
1277 4 2 50 2 120 401 515 516
1278 4 2 50 2 516 120 401 412
1279 4 2 50 2 216 217 375 545
1280 4 2 50 2 567 562 412 397
1281 4 2 50 2 343 65 175 594
1282 4 2 50 2 568 562 557 397
1283 4 2 50 2 562 412 397 119
1284 4 2 50 2 562 516 412 119
1285 4 2 50 2 557 413 568 397
1286 4 2 50 2 118 568 413 397
1287 4 2 50 2 568 118 562 397
1288 4 2 50 2 465 17 589 593
1289 4 2 50 2 210 211 378 529
1290 4 2 50 2 516 562 152 119
1291 4 2 50 2 513 401 515 410
1292 4 2 50 2 521 214 381 518
1293 4 2 50 2 151 568 118 562
1294 4 2 50 2 497 509 174 409
1295 4 2 50 2 517 216 383 545
1296 4 2 50 2 489 398 550 166
1297 4 2 50 2 480 417 162 137
1298 4 2 50 2 68 329 178 336
1299 4 2 50 2 374 160 483 584
1300 4 2 50 2 531 513 515 410
1301 4 2 50 2 523 213 380 521
1302 4 2 50 2 515 153 120 516
1303 4 2 50 2 410 401 515 121
1304 4 2 50 2 136 497 174 409
1305 4 2 50 2 373 142 565 503
1306 4 2 50 2 72 338 573 182
1307 4 2 50 2 69 329 578 179
1308 4 2 50 2 377 548 529 546
1309 4 2 50 2 569 530 568 413
1310 4 2 50 2 525 212 379 523
1311 4 2 50 2 515 531 410 121
1312 4 2 50 2 150 568 530 413
1313 4 2 50 2 504 423 422 514
1314 4 2 50 2 514 504 423 513
1315 4 2 50 2 422 567 555 514
1316 4 2 50 2 555 567 422 420
1317 4 2 50 2 66 176 343 335
1318 4 2 50 2 531 515 154 121
1319 4 2 50 2 569 554 553 426
1320 4 2 50 2 497 135 173 409
1321 4 2 50 2 497 173 509 409
1322 4 2 50 2 529 211 378 525
1323 4 2 50 2 498 557 567 420
1324 4 2 50 2 498 557 420 421
1325 4 2 50 2 69 329 341 578
1326 4 2 50 2 140 510 77 468
1327 4 2 50 2 489 398 165 550
1328 4 2 50 2 530 569 400 413
1329 4 2 50 2 603 345 75 580
1330 4 2 50 2 338 334 72 573
1331 4 2 50 2 343 175 570 594
1332 4 2 50 2 574 467 125 145
1333 4 2 50 2 340 73 334 573
1334 4 2 50 2 627 548 549 529
1335 4 2 50 2 19 186 7 471
1336 4 2 50 2 196 8 484 26
1337 4 2 50 2 603 74 345 184
1338 4 2 50 2 501 418 129 490
1339 4 2 50 2 468 510 77 330
1340 4 2 50 2 127 416 488 165
1341 4 2 50 2 167 501 129 490
1342 4 2 50 2 554 129 419 491
1343 4 2 50 2 598 69 341 578
1344 4 2 50 2 185 603 75 580
1345 4 2 50 2 480 588 417 431
1346 4 2 50 2 343 176 507 335
1347 4 2 50 2 554 167 129 491
1348 4 2 50 2 165 398 416 550
1349 4 2 50 2 598 341 70 578
1350 4 2 50 2 530 400 553 564
1351 4 2 50 2 578 598 69 179
1352 4 2 50 2 542 218 384 502
1353 4 2 50 2 598 70 180 578
1354 4 2 50 2 184 345 603 580
1355 4 2 50 2 556 426 557 421
1356 4 2 50 2 561 532 193 332
1357 4 2 50 2 209 210 377 548
1358 4 2 50 2 416 488 165 511
1359 4 2 50 2 476 161 502 618
1360 4 2 50 2 569 556 426 557
1361 4 2 50 2 399 410 531 122
1362 4 2 50 2 564 530 400 149
1363 4 2 50 2 217 218 384 542
1364 4 2 50 2 545 217 375 542
1365 4 2 50 2 76 510 468 330
1366 4 2 50 2 417 138 480 431
1367 4 2 50 2 343 570 176 594
1368 4 2 50 2 400 407 553 564
1369 4 2 50 2 583 548 565 376
1370 4 2 50 2 208 209 376 565
1371 4 2 50 2 531 544 410 399
1372 4 2 50 2 129 501 167 554
1373 4 2 50 2 510 139 76 468
1374 4 2 50 2 462 503 142 470
1375 4 2 50 2 143 472 464 506
1376 4 2 50 2 114 415 406 582
1377 4 2 50 2 417 162 563 480
1378 4 2 50 2 207 27 584 374
1379 4 2 50 2 184 602 340 505
1380 4 2 50 2 73 340 602 505
1381 4 2 50 2 505 602 73 183
1382 4 2 50 2 544 513 423 512
1383 4 2 50 2 90 481 331 581
1384 4 2 50 2 342 328 572 533
1385 4 2 50 2 500 71 181 599
1386 4 2 50 2 338 71 500 599
1387 4 2 50 2 500 182 338 599
1388 4 2 50 2 511 165 416 550
1389 4 2 50 2 199 200 527 378
1390 4 2 50 2 585 502 161 618
1391 4 2 50 2 200 201 524 379
1392 4 2 50 2 201 202 522 380
1393 4 2 50 2 203 204 519 382
1394 4 2 50 2 202 203 520 381
1395 4 2 50 2 204 205 526 383
1396 4 2 50 2 563 588 417 480
1397 4 2 50 2 176 66 343 594
1398 4 2 50 2 565 209 376 548
1399 4 2 50 2 548 210 377 529
1400 4 2 50 2 177 67 596 576
1401 4 2 50 2 472 428 464 506
1402 4 2 50 2 71 338 500 326
1403 4 2 50 2 500 181 71 326
1404 4 2 50 2 205 206 534 375
1405 4 2 50 2 548 565 619 582
1406 4 2 50 2 176 507 570 343
1407 4 2 50 2 158 481 90 581
1408 4 2 50 2 573 334 72 601
1409 4 2 50 2 572 328 342 351
1410 4 2 50 2 588 563 163 480
1411 4 2 50 2 546 536 188 608
1412 4 2 50 2 502 160 374 584
1413 4 2 50 2 198 199 546 377
1414 4 2 50 2 569 553 400 426
1415 4 2 50 2 504 422 423 411
1416 4 2 50 2 403 556 414 421
1417 4 2 50 2 573 73 334 601
1418 4 2 50 2 422 405 555 420
1419 4 2 50 2 404 504 423 411
1420 4 2 50 2 504 404 423 512
1421 4 2 50 2 420 414 498 421
1422 4 2 50 2 407 406 549 115
1423 4 2 50 2 556 498 414 421
1424 4 2 50 2 539 346 328 572
1425 4 2 50 2 504 555 422 411
1426 4 2 50 2 555 405 498 420
1427 4 2 50 2 596 178 576 336
1428 4 2 50 2 414 498 405 420
1429 4 2 50 2 405 422 555 411
1430 4 2 50 2 576 177 67 507
1431 4 2 50 2 67 576 507 335
1432 4 2 50 2 402 416 427 511
1433 4 2 50 2 509 417 409 424
1434 4 2 50 2 425 553 552 501
1435 4 2 50 2 415 406 582 551
1436 4 2 50 2 514 423 401 513
1437 4 2 50 2 401 422 423 514
1438 4 2 50 2 67 596 576 336
1439 4 2 50 2 422 567 514 412
1440 4 2 50 2 384 502 218 540
1441 4 2 50 2 420 567 422 412
1442 4 2 50 2 420 557 567 397
1443 4 2 50 2 557 420 421 397
1444 4 2 50 2 547 536 188 327
1445 4 2 50 2 67 576 335 336
1446 4 2 50 2 585 477 430 156
1447 4 2 50 2 374 27 584 483
1448 4 2 50 2 544 531 543 399
1449 4 2 50 2 339 575 561 332
1450 4 2 50 2 197 583 565 376
1451 4 2 50 2 554 129 501 408
1452 4 2 50 2 555 498 567 420
1453 4 2 50 2 403 419 168 556
1454 4 2 50 2 422 555 504 514
1455 4 2 50 2 513 504 423 512
1456 4 2 50 2 498 556 557 421
1457 4 2 50 2 182 573 72 601
1458 4 2 50 2 113 464 13 428
1459 4 2 50 2 403 419 130 168
1460 4 2 50 2 339 352 575 332
1461 4 2 50 2 113 22 464 146
1462 4 2 50 2 218 28 374 502
1463 4 2 50 2 557 426 413 421
1464 4 2 50 2 166 398 418 128
1465 4 2 50 2 197 198 583 376
1466 4 2 50 2 554 168 419 556
1467 4 2 50 2 183 73 573 601
1468 4 2 50 2 331 481 89 581
1469 4 2 50 2 206 375 217 534
1470 4 2 50 2 519 382 518 203
1471 4 2 50 2 518 381 520 203
1472 4 2 50 2 520 381 521 202
1473 4 2 50 2 517 382 519 204
1474 4 2 50 2 526 383 517 204
1475 4 2 50 2 184 340 345 505
1476 4 2 50 2 426 413 569 557
1477 4 2 50 2 522 202 521 380
1478 4 2 50 2 563 509 544 424
1479 4 2 50 2 509 563 417 424
1480 4 2 50 2 512 423 544 424
1481 4 2 50 2 523 201 522 380
1482 4 2 50 2 507 355 343 335
1483 4 2 50 2 379 200 525 524
1484 4 2 50 2 554 419 168 491
1485 4 2 50 2 379 523 201 524
1486 4 2 50 2 200 378 525 527
1487 4 2 50 2 503 565 373 197
1488 4 2 50 2 199 529 378 527
1489 4 2 50 2 466 486 429 587
1490 4 2 50 2 23 156 14 477
1491 4 2 50 2 511 427 402 551
1492 4 2 50 2 487 588 479 431
1493 4 2 50 2 426 554 553 408
1494 4 2 50 2 532 575 342 332
1495 4 2 50 2 589 465 593 358
1496 4 2 50 2 359 478 604 590
1497 4 2 50 2 382 517 215 204
1498 4 2 50 2 188 79 327 80
1499 4 2 50 2 545 383 526 205
1500 4 2 50 2 166 418 501 490
1501 4 2 50 2 499 329 597 179
1502 4 2 50 2 22 113 464 13
1503 4 2 50 2 381 518 214 203
1504 4 2 50 2 344 571 547 327
1505 4 2 50 2 213 521 202 380
1506 4 2 50 2 424 544 563 399
1507 4 2 50 2 528 520 191 616
1508 4 2 50 2 206 207 540 384
1509 4 2 50 2 499 597 329 178
1510 4 2 50 2 379 523 212 201
1511 4 2 50 2 383 545 216 205
1512 4 2 50 2 581 481 89 157
1513 4 2 50 2 378 525 211 200
1514 4 2 50 2 156 543 502 626
1515 4 2 50 2 207 384 218 540
1516 4 2 50 2 534 375 545 205
1517 4 2 50 2 575 350 342 332
1518 4 2 50 2 406 549 582 551
1519 4 2 50 2 329 499 178 336
1520 4 2 50 2 533 342 328 86
1521 4 2 50 2 544 423 513 410
1522 4 2 50 2 569 556 554 426
1523 4 2 50 2 618 585 502 156
1524 4 2 50 2 565 208 373 197
1525 4 2 50 2 129 418 501 408
1526 4 2 50 2 549 406 407 552
1527 4 2 50 2 152 518 562 516
1528 4 2 50 2 554 419 129 408
1529 4 2 50 2 339 561 84 332
1530 4 2 50 2 520 528 191 522
1531 4 2 50 2 383 215 517 204
1532 4 2 50 2 521 568 151 562
1533 4 2 50 2 402 574 511 551
1534 4 2 50 2 500 350 537 575
1535 4 2 50 2 514 567 516 412
1536 4 2 50 2 401 120 515 121
1537 4 2 50 2 412 516 120 119
1538 4 2 50 2 562 567 557 397
1539 4 2 50 2 546 377 548 198
1540 4 2 50 2 397 118 562 119
1541 4 2 50 2 401 515 514 513
1542 4 2 50 2 521 520 202 522
1543 4 2 50 2 515 517 153 516
1544 4 2 50 2 415 506 574 551
1545 4 2 50 2 580 184 345 505
1546 4 2 50 2 579 70 326 341
1547 4 2 50 2 518 520 519 203
1548 4 2 50 2 552 407 549 564
1549 4 2 50 2 522 201 523 524
1550 4 2 50 2 523 568 530 150
1551 4 2 50 2 341 579 70 578
1552 4 2 50 2 426 556 403 421
1553 4 2 50 2 574 402 415 551
1554 4 2 50 2 518 622 152 562
1555 4 2 50 2 413 568 569 557
1556 4 2 50 2 524 200 525 527
1557 4 2 50 2 519 526 517 204
1558 4 2 50 2 425 553 501 408
1559 4 2 50 2 424 563 417 399
1560 4 2 50 2 423 512 404 424
1561 4 2 50 2 623 568 151 521
1562 4 2 50 2 613 526 532 193
1563 4 2 50 2 600 579 70 326
1564 4 2 50 2 375 216 545 205
1565 4 2 50 2 546 547 608 187
1566 4 2 50 2 517 628 153 516
1567 4 2 50 2 524 610 189 535
1568 4 2 50 2 382 214 518 203
1569 4 2 50 2 73 340 505 573
1570 4 2 50 2 573 505 73 183
1571 4 2 50 2 340 356 572 351
1572 4 2 50 2 523 530 621 150
1573 4 2 50 2 152 628 518 516
1574 4 2 50 2 333 339 528 83
1575 4 2 50 2 579 70 180 600
1576 4 2 50 2 350 537 573 500
1577 4 2 50 2 505 572 537 351
1578 4 2 50 2 192 561 519 612
1579 4 2 50 2 517 153 624 515
1580 4 2 50 2 338 573 182 500
1581 4 2 50 2 506 402 415 574
1582 4 2 50 2 522 611 190 558
1583 4 2 50 2 375 542 217 534
1584 4 2 50 2 570 507 355 343
1585 4 2 50 2 527 524 189 535
1586 4 2 50 2 521 151 622 562
1587 4 2 50 2 614 534 533 194
1588 4 2 50 2 213 521 381 202
1589 4 2 50 2 624 154 545 515
1590 4 2 50 2 532 526 519 193
1591 4 2 50 2 543 563 544 399
1592 4 2 50 2 400 553 569 530
1593 4 2 50 2 551 550 427 552
1594 4 2 50 2 568 523 623 150
1595 4 2 50 2 499 578 329 179
1596 4 2 50 2 519 520 561 192
1597 4 2 50 2 524 522 190 558
1598 4 2 50 2 530 564 525 149
1599 4 2 50 2 499 578 559 354
1600 4 2 50 2 355 507 353 335
1601 4 2 50 2 620 525 564 149
1602 4 2 50 2 154 545 515 531
1603 4 2 50 2 500 352 575 560
1604 4 2 50 2 462 141 503 606
1605 4 2 50 2 201 523 212 380
1606 4 2 50 2 530 525 621 149
1607 4 2 50 2 565 208 197 376
1608 4 2 50 2 505 537 573 351
1609 4 2 50 2 526 534 545 205
1610 4 2 50 2 126 416 587 164
1611 4 2 50 2 508 474 357 158
1612 4 2 50 2 559 339 528 333
1613 4 2 50 2 499 559 577 354
1614 4 2 50 2 607 591 583 187
1615 4 2 50 2 566 140 510 360
1616 4 2 50 2 508 357 331 581
1617 4 2 50 2 526 533 534 194
1618 4 2 50 2 355 592 570 330
1619 4 2 50 2 550 398 418 166
1620 4 2 50 2 559 579 349 578
1621 4 2 50 2 525 211 200 379
1622 4 2 50 2 531 410 121 122
1623 4 2 50 2 531 154 545 625
1624 4 2 50 2 148 529 564 620
1625 4 2 50 2 579 180 70 578
1626 4 2 50 2 556 419 554 426
1627 4 2 50 2 549 406 114 115
1628 4 2 50 2 407 425 553 552
1629 4 2 50 2 210 377 529 546
1630 4 2 50 2 591 583 503 607
1631 4 2 50 2 406 549 551 552
1632 4 2 50 2 625 542 531 155
1633 4 2 50 2 10 12 473 374
1634 4 2 50 2 9 11 373 460
1635 4 2 50 2 550 425 427 552
1636 4 2 50 2 589 175 343 358
1637 4 2 50 2 378 210 529 199
1638 4 2 50 2 426 553 400 408
1639 4 2 50 2 126 416 429 587
1640 4 2 50 2 27 584 483 475
1641 4 2 50 2 430 563 585 399
1642 4 2 50 2 346 539 541 572
1643 4 2 50 2 559 349 339 333
1644 4 2 50 2 416 587 164 511
1645 4 2 50 2 501 550 418 166
1646 4 2 50 2 144 124 428 574
1647 4 2 50 2 207 502 374 584
1648 4 2 50 2 337 535 347 81
1649 4 2 50 2 140 77 510 360
1650 4 2 50 2 343 175 65 358
1651 4 2 50 2 137 417 162 430
1652 4 2 50 2 427 511 550 551
1653 4 2 50 2 357 331 346 541
1654 4 2 50 2 348 535 337 81
1655 4 2 50 2 531 544 513 410
1656 4 2 50 2 140 566 461 360
1657 4 2 50 2 592 570 571 355
1658 4 2 50 2 136 174 588 409
1659 4 2 50 2 377 210 199 546
1660 4 2 50 2 384 217 542 206
1661 4 2 50 2 475 483 160 584
1662 4 2 50 2 410 544 423 424
1663 4 2 50 2 506 472 428 144
1664 4 2 50 2 175 570 589 343
1665 4 2 50 2 527 199 529 546
1666 4 2 50 2 377 209 548 198
1667 4 2 50 2 529 549 627 148
1668 4 2 50 2 586 576 353 507
1669 4 2 50 2 582 113 114 415
1670 4 2 50 2 588 174 509 409
1671 4 2 50 2 76 589 139 510
1672 4 2 50 2 330 355 592 344
1673 4 2 50 2 336 329 499 337
1674 4 2 50 2 344 355 571 327
1675 4 2 50 2 427 406 551 552
1676 4 2 50 2 162 585 485 430
1677 4 2 50 2 553 425 407 408
1678 4 2 50 2 374 218 502 207
1679 4 2 50 2 571 570 507 355
1680 4 2 50 2 529 564 549 148
1681 4 2 50 2 543 585 563 399
1682 4 2 50 2 508 357 346 541
1683 4 2 50 2 537 342 572 533
1684 4 2 50 2 115 564 407 116
1685 4 2 50 2 359 75 345 580
1686 4 2 50 2 136 588 431 409
1687 4 2 50 2 357 508 158 581
1688 4 2 50 2 137 162 485 430
1689 4 2 50 2 181 500 579 326
1690 4 2 50 2 406 427 425 552
1691 4 2 50 2 343 355 570 330
1692 4 2 50 2 75 359 185 580
1693 4 2 50 2 359 590 185 580
1694 4 2 50 2 584 475 605 159
1695 4 2 50 2 206 542 384 540
1696 4 2 50 2 330 510 77 360
1697 4 2 50 2 331 357 508 541
1698 4 2 50 2 542 543 531 155
1699 4 2 50 2 427 398 425 550
1700 4 2 50 2 552 553 407 564
1701 4 2 50 2 509 512 544 424
1702 4 2 50 2 87 346 328 539
1703 4 2 50 2 125 574 145 587
1704 4 2 50 2 427 415 402 551
1705 4 2 50 2 534 540 195 539
1706 4 2 50 2 540 584 196 508
1707 4 2 50 2 576 178 499 336
1708 4 2 50 2 508 346 539 541
1709 4 2 50 2 503 583 565 197
1710 4 2 50 2 536 188 527 546
1711 4 2 50 2 550 418 425 501
1712 4 2 50 2 339 575 560 561
1713 4 2 50 2 547 592 571 344
1714 4 2 50 2 345 356 580 505
1715 4 2 50 2 331 508 581 541
1716 4 2 50 2 547 546 583 187
1717 4 2 50 2 168 419 130 491
1718 4 2 50 2 537 572 342 351
1719 4 2 50 2 341 349 579 578
1720 4 2 50 2 540 206 542 534
1721 4 2 50 2 542 543 155 626
1722 4 2 50 2 27 584 475 605
1723 4 2 50 2 128 418 166 490
1724 4 2 50 2 137 477 430 485
1725 4 2 50 2 352 350 338 500
1726 4 2 50 2 500 338 352 326
1727 4 2 50 2 417 563 162 430
1728 4 2 50 2 359 345 331 580
1729 4 2 50 2 356 345 340 505
1730 4 2 50 2 147 627 548 549
1731 4 2 50 2 575 352 339 560
1732 4 2 50 2 609 188 527 536
1733 4 2 50 2 506 415 582 551
1734 4 2 50 2 565 146 619 582
1735 4 2 50 2 472 124 428 144
1736 4 2 50 2 352 350 500 575
1737 4 2 50 2 331 357 90 581
1738 4 2 50 2 552 550 425 501
1739 4 2 50 2 126 587 486 164
1740 4 2 50 2 144 428 506 574
1741 4 2 50 2 553 407 400 408
1742 4 2 50 2 403 419 556 426
1743 4 2 50 2 584 207 502 540
1744 4 2 50 2 328 539 572 533
1745 4 2 50 2 186 591 503 607
1746 4 2 50 2 326 349 579 341
1747 4 2 50 2 158 90 357 581
1748 4 2 50 2 583 209 548 376
1749 4 2 50 2 415 428 402 506
1750 4 2 50 2 505 356 580 541
1751 4 2 50 2 575 342 537 532
1752 4 2 50 2 345 331 580 541
1753 4 2 50 2 507 576 353 335
1754 4 2 50 2 585 162 563 430
1755 4 2 50 2 336 499 576 337
1756 4 2 50 2 541 505 356 572
1757 4 2 50 2 532 561 575 332
1758 4 2 50 2 153 152 119 516
1759 4 2 50 2 154 120 515 153
1760 4 2 50 2 120 154 515 121
1761 4 2 50 2 335 576 353 336
1762 4 2 50 2 119 151 562 152
1763 4 2 50 2 587 126 486 429
1764 4 2 50 2 153 119 120 516
1765 4 2 50 2 331 345 356 541
1766 4 2 50 2 461 77 140 360
1767 4 2 50 2 157 478 89 590
1768 4 2 50 2 554 501 553 408
1769 4 2 50 2 572 505 340 351
1770 4 2 50 2 464 124 428 472
1771 4 2 50 2 151 119 562 118
1772 4 2 50 2 566 591 360 344
1773 4 2 50 2 151 150 118 568
1774 4 2 50 2 121 155 531 122
1775 4 2 50 2 155 121 531 154
1776 4 2 50 2 147 113 114 582
1777 4 2 50 2 147 113 582 146
1778 4 2 50 2 585 543 502 156
1779 4 2 50 2 477 585 430 485
1780 4 2 50 2 536 535 347 538
1781 4 2 50 2 513 423 401 410
1782 4 2 50 2 334 350 537 573
1783 4 2 50 2 561 560 339 528
1784 4 2 50 2 354 499 329 337
1785 4 2 50 2 510 589 570 330
1786 4 2 50 2 413 557 421 397
1787 4 2 50 2 537 350 342 575
1788 4 2 50 2 582 565 146 506
1789 4 2 50 2 333 558 559 348
1790 4 2 50 2 473 28 482 374
1791 4 2 50 2 460 21 373 469
1792 4 2 50 2 563 588 509 417
1793 4 2 50 2 592 566 510 360
1794 4 2 50 2 591 566 592 344
1795 4 2 50 2 139 589 76 465
1796 4 2 50 2 148 116 564 115
1797 4 2 50 2 116 148 564 149
1798 4 2 50 2 401 422 514 412
1799 4 2 50 2 412 420 567 397
1800 4 2 50 2 573 537 334 351
1801 4 2 50 2 592 510 570 330
1802 4 2 50 2 354 577 499 337
1803 4 2 50 2 559 528 558 333
1804 4 2 50 2 342 537 532 533
1805 4 2 50 2 560 579 349 559
1806 4 2 50 2 352 500 579 560
1807 4 2 50 2 204 519 526 193
1808 4 2 50 2 187 591 547 344
1809 4 2 50 2 520 519 203 192
1810 4 2 50 2 418 425 398 550
1811 4 2 50 2 191 202 520 522
1812 4 2 50 2 402 574 587 511
1813 4 2 50 2 577 558 535 348
1814 4 2 50 2 340 356 505 572
1815 4 2 50 2 522 190 201 524
1816 4 2 50 2 413 569 400 426
1817 4 2 50 2 205 526 534 194
1818 4 2 50 2 528 560 339 559
1819 4 2 50 2 524 189 200 527
1820 4 2 50 2 478 359 89 590
1821 4 2 50 2 352 350 575 332
1822 4 2 50 2 558 577 559 348
1823 4 2 50 2 331 89 359 581
1824 4 2 50 2 115 147 114 549
1825 4 2 50 2 156 155 122 543
1826 4 2 50 2 547 586 536 327
1827 4 2 50 2 148 147 115 549
1828 4 2 50 2 207 218 502 540
1829 4 2 50 2 538 576 353 586
1830 4 2 50 2 465 589 76 358
1831 4 2 50 2 337 577 535 348
1832 4 2 50 2 374 473 27 483
1833 4 2 50 2 460 373 20 470
1834 4 2 50 2 591 592 547 344
1835 4 2 50 2 358 570 589 330
1836 4 2 50 2 156 123 430 399
1837 4 2 50 2 484 605 26 475
1838 4 2 50 2 471 462 19 606
1839 4 2 50 2 591 547 583 187
1840 4 2 50 2 474 90 357 158
1841 4 2 50 2 349 339 560 559
1842 4 2 50 2 349 341 559 578
1843 4 2 50 2 547 571 586 327
1844 4 2 50 2 559 354 333 348
1845 4 2 50 2 163 138 479 431
1846 4 2 50 2 426 419 554 408
1847 4 2 50 2 341 559 578 354
1848 4 2 50 2 188 81 80 347
1849 4 2 50 2 501 418 425 408
1850 4 2 50 2 572 356 328 351
1851 4 2 50 2 356 346 331 541
1852 4 2 50 2 331 581 580 541
1853 4 2 50 2 538 576 499 337
1854 4 2 50 2 583 546 548 198
1855 4 2 50 2 186 566 591 360
1856 4 2 50 2 197 503 583 607
1857 4 2 50 2 336 538 353 337
1858 4 2 50 2 424 410 544 399
1859 4 2 50 2 479 588 163 431
1860 4 2 50 2 330 592 510 360
1861 4 2 50 2 580 356 345 541
1862 4 2 50 2 538 499 577 337
1863 4 2 50 2 354 559 577 348
1864 4 2 50 2 333 82 558 348
1865 4 2 50 2 188 199 527 546
1866 4 2 50 2 579 500 352 326
1867 4 2 50 2 206 217 542 534
1868 4 2 50 2 608 198 546 187
1869 4 2 50 2 358 343 570 330
1870 4 2 50 2 548 619 147 582
1871 4 2 50 2 535 347 538 337
1872 4 2 50 2 476 23 161 618
1873 4 2 50 2 585 161 485 477
1874 4 2 50 2 425 407 406 552
1875 4 2 50 2 540 195 206 534
1876 4 2 50 2 353 576 538 336
1877 4 2 50 2 406 415 427 551
1878 4 2 50 2 549 548 147 582
1879 4 2 50 2 355 571 592 344
1880 4 2 50 2 349 560 352 326
1881 4 2 50 2 430 417 563 399
1882 4 2 50 2 360 592 566 344
1883 4 2 50 2 350 334 537 351
1884 4 2 50 2 199 210 529 546
1885 4 2 50 2 343 570 589 358
1886 4 2 50 2 360 330 592 344
1887 4 2 50 2 559 341 349 354
1888 4 2 50 2 576 538 336 337
1889 4 2 50 2 355 353 586 327
1890 4 2 50 2 113 428 415 506
1891 4 2 50 2 209 583 198 376
1892 4 2 50 2 337 354 577 348
1893 4 2 50 2 503 566 591 186
1894 4 2 50 2 463 22 617 143
1895 4 2 50 2 428 402 506 574
1896 4 2 50 2 198 583 546 187
1897 4 2 50 2 609 188 199 527
1898 4 2 50 2 355 586 571 327
1899 4 2 50 2 88 357 346 508
1900 4 2 50 2 189 200 610 524
1901 4 2 50 2 347 536 538 586
1902 4 2 50 2 201 611 190 522
1903 4 2 50 2 191 520 202 616
1904 4 2 50 2 503 197 186 607
1905 4 2 50 2 519 203 192 612
1906 4 2 50 2 538 577 535 337
1907 4 2 50 2 613 204 526 193
1908 4 2 50 2 352 339 560 349
1909 4 2 50 2 534 614 205 194
1910 4 2 50 2 538 347 353 337
1911 4 2 50 2 537 342 350 351
1912 4 2 50 2 194 205 526 613
1913 4 2 50 2 195 614 206 534
1914 4 2 50 2 204 612 519 193
1915 4 2 50 2 520 203 616 192
1916 4 2 50 2 538 353 347 586
1917 4 2 50 2 347 536 586 327
1918 4 2 50 2 560 579 352 326
1919 4 2 50 2 202 191 611 522
1920 4 2 50 2 349 559 354 333
1921 4 2 50 2 190 610 201 524
1922 4 2 50 2 579 560 349 326
1923 4 2 50 2 189 609 200 527
1924 4 2 50 2 583 548 209 198
1925 4 2 50 2 353 347 586 327
1926 4 2 50 2 478 24 6 604
1927 4 2 50 2 5 17 465 593
1928 4 2 50 2 207 196 615 540
1929 4 2 50 2 479 16 25 487
1930 4 2 50 2 206 615 195 540
1931 4 2 50 2 486 15 18 466
1932 4 2 50 2 188 199 546 608
1933 4 2 50 2 196 207 584 540
1934 4 2 50 2 502 218 156 626
1935 4 2 50 2 583 198 607 187
1936 4 2 50 2 209 619 147 548
1937 4 2 50 2 210 529 627 148
1938 4 2 50 2 620 211 525 149
1939 4 2 50 2 212 523 621 150
1940 4 2 50 2 213 623 151 521
1941 4 2 50 2 214 622 152 518
1942 4 2 50 2 153 215 628 517
1943 4 2 50 2 624 154 216 545
1944 4 2 50 2 153 624 215 517
1945 4 2 50 2 152 628 214 518
1946 4 2 50 2 211 621 525 149
1947 4 2 50 2 151 622 213 521
1948 4 2 50 2 148 210 529 620
1949 4 2 50 2 523 212 623 150
1950 4 2 50 2 207 605 196 584
1951 4 2 50 2 154 216 545 625
1952 4 2 50 2 625 217 542 155
1953 4 2 50 2 27 10 473 374
1954 4 2 50 2 373 20 9 460
1955 4 2 50 2 12 28 473 374
1956 4 2 50 2 11 21 373 460
1957 4 2 50 2 205 375 110 99
1958 4 2 50 2 110 383 205 99
1959 4 2 50 2 378 104 210 199
1960 4 2 50 2 382 215 109 204
1961 4 2 50 2 375 110 216 205
1962 4 2 50 2 383 216 110 205
1963 4 2 50 2 104 377 210 199
1964 4 2 50 2 109 215 383 204
1965 4 2 50 2 198 103 209 376
1966 4 2 50 2 197 208 102 376
1967 4 2 50 2 208 102 373 197
1968 4 2 50 2 209 377 103 198
1969 4 2 50 2 199 378 104 93
1970 4 2 50 2 199 104 377 93
1971 4 2 50 2 102 197 376 91
1972 4 2 50 2 102 373 197 91
1973 4 2 50 2 381 107 213 202
1974 4 2 50 2 374 112 218 207
1975 4 2 50 2 384 218 112 207
1976 4 2 50 2 108 214 382 203
1977 4 2 50 2 111 217 384 206
1978 4 2 50 2 217 111 375 206
1979 4 2 50 2 378 211 105 200
1980 4 2 50 2 379 212 106 201
1981 4 2 50 2 202 107 213 380
1982 4 2 50 2 201 212 106 380
1983 4 2 50 2 200 211 105 379
1984 4 2 50 2 214 108 381 203
1985 4 2 50 2 203 382 108 97
1986 4 2 50 2 112 374 101 207
1987 4 2 50 2 206 111 375 100
1988 4 2 50 2 206 384 111 100
1989 4 2 50 2 198 92 103 376
1990 4 2 50 2 107 202 96 380
1991 4 2 50 2 105 378 200 94
1992 4 2 50 2 98 382 109 204
1993 4 2 50 2 94 200 105 379
1994 4 2 50 2 95 201 106 380
1995 4 2 50 2 106 379 201 95
1996 4 2 50 2 381 107 202 96
1997 4 2 50 2 383 98 109 204
1998 4 2 50 2 203 108 381 97
1999 4 2 50 2 101 384 112 207
2000 4 2 50 2 92 103 377 198
2001 4 2 50 2 209 147 627 548
2002 4 2 50 2 617 146 208 565
2003 4 2 50 2 155 217 542 626
2004 4 2 50 2 208 146 619 565
2005 4 2 50 2 27 26 605 475
2006 4 2 50 2 462 20 19 606
2007 4 2 50 2 476 28 23 618
2008 4 2 50 2 21 22 617 463
2009 4 2 50 2 502 218 618 156
2010 4 2 50 2 606 503 197 186
2011 4 2 50 2 143 22 506 464
2012 4 2 50 2 146 506 22 464
2013 4 2 50 2 156 23 585 477
2014 4 2 50 2 156 585 23 618
2015 4 2 50 2 161 585 23 477
2016 4 2 50 2 161 23 585 618
2017 4 2 50 2 197 20 503 606
2018 4 2 50 2 462 503 20 606
2019 4 2 50 2 462 20 503 470
2020 4 2 50 2 186 503 141 606
2021 4 2 50 2 141 503 186 566
2022 4 2 50 2 141 471 186 606
2023 4 2 50 2 186 471 141 566
2024 4 2 50 2 196 484 159 605
2025 4 2 50 2 159 484 196 508
2026 4 2 50 2 159 584 196 605
2027 4 2 50 2 196 584 159 508
2028 4 2 50 2 463 565 469 142
2029 4 2 50 2 194 532 526 533
2030 4 2 50 2 194 526 532 613
2031 4 2 50 2 528 192 520 616
2032 4 2 50 2 520 192 528 561
2033 4 2 50 2 193 561 519 532
2034 4 2 50 2 193 519 561 612
2035 4 2 50 2 191 558 522 528
2036 4 2 50 2 522 558 191 611
2037 4 2 50 2 190 535 524 558
2038 4 2 50 2 190 524 535 610
2039 4 2 50 2 533 195 534 614
2040 4 2 50 2 533 534 195 539
2041 4 2 50 2 508 615 195 196
2042 4 2 50 2 360 186 7 78
2043 4 2 50 2 360 7 186 471
2044 4 2 50 2 536 189 527 609
2045 4 2 50 2 536 527 189 535
2046 4 2 50 2 512 409 424 509
2047 4 2 50 2 424 409 512 404
2048 4 2 50 2 574 124 402 467
2049 4 2 50 2 574 402 124 428
2050 4 2 50 2 564 116 400 407
2051 4 2 50 2 400 116 564 149
2052 4 2 50 2 531 122 543 399
2053 4 2 50 2 543 122 531 155
2054 4 2 50 2 125 574 402 467
2055 4 2 50 2 150 413 118 568
2056 4 2 50 2 118 413 150 117
2057 4 2 50 2 114 582 549 147
2058 4 2 50 2 549 582 114 406
2059 4 2 50 2 193 86 532 194
2060 4 2 50 2 533 532 86 194
2061 4 2 50 2 533 86 532 342
2062 4 2 50 2 86 195 533 194
2063 4 2 50 2 83 84 528 191
2064 4 2 50 2 83 528 84 339
2065 4 2 50 2 192 528 84 191
2066 4 2 50 2 84 85 561 192
2067 4 2 50 2 84 561 85 332
2068 4 2 50 2 193 561 85 192
2069 4 2 50 2 193 85 561 332
2070 4 2 50 2 549 115 564 407
2071 4 2 50 2 564 115 549 148
2072 4 2 50 2 430 156 14 123
2073 4 2 50 2 430 14 156 477
2074 4 2 50 2 464 113 506 428
2075 4 2 50 2 464 506 113 146
2076 4 2 50 2 556 414 169 403
2077 4 2 50 2 169 414 556 498
2078 4 2 50 2 190 83 558 191
2079 4 2 50 2 528 558 83 191
2080 4 2 50 2 528 83 558 333
2081 4 2 50 2 82 83 558 190
2082 4 2 50 2 82 558 83 333
2083 4 2 50 2 416 550 427 511
2084 4 2 50 2 427 550 416 398
2085 4 2 50 2 572 346 356 541
2086 4 2 50 2 572 356 346 328
2087 4 2 50 2 149 117 400 116
2088 4 2 50 2 195 88 508 196
2089 4 2 50 2 189 82 535 190
2090 4 2 50 2 558 535 82 190
2091 4 2 50 2 558 82 535 348
2092 4 2 50 2 326 181 600 579
2093 4 2 50 2 326 600 181 71
2094 4 2 50 2 588 409 417 431
2095 4 2 50 2 417 409 588 509
2096 4 2 50 2 355 586 507 571
2097 4 2 50 2 355 507 586 353
2098 4 2 50 2 79 186 344 78
2099 4 2 50 2 360 344 186 78
2100 4 2 50 2 360 186 344 591
2101 4 2 50 2 187 344 186 591
2102 4 2 50 2 186 344 187 79
2103 4 2 50 2 332 193 342 532
2104 4 2 50 2 332 342 193 85
2105 4 2 50 2 86 342 193 532
2106 4 2 50 2 86 193 342 85
2107 4 2 50 2 359 581 580 331
2108 4 2 50 2 359 580 581 590
2109 4 2 50 2 561 84 528 339
2110 4 2 50 2 528 84 561 192
2111 4 2 50 2 330 589 76 510
2112 4 2 50 2 330 76 589 358
2113 4 2 50 2 359 185 604 75
2114 4 2 50 2 604 185 359 590
2115 4 2 50 2 149 150 400 117
2116 4 2 50 2 149 400 150 530
2117 4 2 50 2 413 400 150 117
2118 4 2 50 2 413 150 400 530
2119 4 2 50 2 87 539 533 195
2120 4 2 50 2 533 539 87 328
2121 4 2 50 2 533 86 87 195
2122 4 2 50 2 87 86 533 328
2123 4 2 50 2 340 573 351 505
2124 4 2 50 2 351 573 340 334
2125 4 2 50 2 338 573 350 334
2126 4 2 50 2 338 350 573 500
2127 4 2 50 2 329 578 354 341
2128 4 2 50 2 329 354 578 499
2129 4 2 50 2 399 585 156 543
2130 4 2 50 2 399 156 585 430
2131 4 2 50 2 122 156 399 123
2132 4 2 50 2 122 399 156 543
2133 4 2 50 2 113 582 506 415
2134 4 2 50 2 113 506 582 146
2135 4 2 50 2 81 82 535 189
2136 4 2 50 2 81 535 82 348
2137 4 2 50 2 188 81 536 189
2138 4 2 50 2 188 536 81 347
2139 4 2 50 2 535 536 81 189
2140 4 2 50 2 535 81 536 347
2141 4 2 50 2 327 188 347 536
2142 4 2 50 2 327 347 188 80
2143 4 2 50 2 163 431 480 138
2144 4 2 50 2 480 431 163 588
2145 4 2 50 2 587 125 466 145
2146 4 2 50 2 587 466 125 429
2147 4 2 50 2 358 175 593 589
2148 4 2 50 2 358 593 175 65
2149 4 2 50 2 416 587 402 429
2150 4 2 50 2 416 402 587 511
2151 4 2 50 2 402 587 125 429
2152 4 2 50 2 125 587 402 574
2153 4 2 50 2 187 344 327 79
2154 4 2 50 2 327 344 187 547
2155 4 2 50 2 327 188 187 79
2156 4 2 50 2 187 188 327 547
2157 4 2 50 2 136 588 487 431
2158 4 2 50 2 136 487 588 174
2159 4 2 50 2 89 590 581 157
2160 4 2 50 2 581 590 89 359
2161 4 2 50 2 87 539 508 346
2162 4 2 50 2 508 539 87 195
2163 4 2 50 2 508 88 87 346
2164 4 2 50 2 87 88 508 195
2165 4 2 50 2 373 503 20 470
2166 4 2 50 2 373 20 503 197
2167 4 2 50 2 208 565 21 617
2168 4 2 50 2 463 565 21 469
2169 4 2 50 2 463 21 565 617
2170 4 2 50 2 565 373 21 469
2171 4 2 50 2 565 21 373 208
2172 4 2 50 2 146 565 143 506
2173 4 2 50 2 143 565 146 617
2174 4 2 50 2 143 22 146 506
2175 4 2 50 2 146 22 143 617
2176 4 2 50 2 195 508 540 615
2177 4 2 50 2 540 508 195 539
2178 4 2 50 2 484 196 474 8
2179 4 2 50 2 474 196 484 508
2180 4 2 50 2 88 357 474 8
2181 4 2 50 2 474 357 88 508
2182 4 2 50 2 196 88 474 8
2183 4 2 50 2 474 88 196 508
$EndElements
