$MeshFormat
2.2 0 8
$EndMeshFormat
$PhysicalNames
1
3 1 "air"
$EndPhysicalNames
$Nodes
122
1 -0.01143 -0.00508 0
2 -0.01143 -0.00508 0.1
3 0.01143 -0.00508 0
4 0.01143 -0.00508 0.1
5 0.01143 0.00508 0
6 0.01143 0.00508 0.1
7 -0.01143 0.00508 0
8 -0.01143 0.00508 0.1
9 -0.01143 -0.00508 0.01000000000000001
10 -0.01143 -0.00508 0.02000000000000002
11 -0.01143 -0.00508 0.03000000000000004
12 -0.01143 -0.00508 0.04000000000000006
13 -0.01143 -0.00508 0.05000000000000004
14 -0.01143 -0.00508 0.06000000000000003
15 -0.01143 -0.00508 0.07000000000000003
16 -0.01143 -0.00508 0.08000000000000004
17 -0.01143 -0.00508 0.09000000000000004
18 0.01143 -0.00508 0.01000000000000001
19 0.01143 -0.00508 0.02000000000000002
20 0.01143 -0.00508 0.03000000000000004
21 0.01143 -0.00508 0.04000000000000006
22 0.01143 -0.00508 0.05000000000000004
23 0.01143 -0.00508 0.06000000000000003
24 0.01143 -0.00508 0.07000000000000003
25 0.01143 -0.00508 0.08000000000000004
26 0.01143 -0.00508 0.09000000000000004
27 -0.003810000000000716 -0.005080000000000418 0
28 0.003809999999999281 -0.005080000000000418 0
29 -0.003810000000000716 -0.005080000000000418 0.09999999999999432
30 0.003809999999999281 -0.005080000000000418 0.09999999999999432
31 0.01143 0.00508 0.01000000000000001
32 0.01143 0.00508 0.02000000000000002
33 0.01143 0.00508 0.03000000000000004
34 0.01143 0.00508 0.04000000000000006
35 0.01143 0.00508 0.05000000000000004
36 0.01143 0.00508 0.06000000000000003
37 0.01143 0.00508 0.07000000000000003
38 0.01143 0.00508 0.08000000000000004
39 0.01143 0.00508 0.09000000000000004
40 -0.01143 0.00508 0.01000000000000001
41 -0.01143 0.00508 0.02000000000000002
42 -0.01143 0.00508 0.03000000000000004
43 -0.01143 0.00508 0.04000000000000006
44 -0.01143 0.00508 0.05000000000000004
45 -0.01143 0.00508 0.06000000000000003
46 -0.01143 0.00508 0.07000000000000003
47 -0.01143 0.00508 0.08000000000000004
48 -0.01143 0.00508 0.09000000000000004
49 0.00380999999999894 0.005079999999999529 0
50 -0.003810000000001057 0.005079999999999529 0
51 0.00380999999999894 0.005079999999999529 0.09999999999999432
52 -0.003810000000001057 0.005079999999999529 0.09999999999999432
53 0.0003234109569216284 -0.00508 0.09324269327245502
54 0.0003234109569220378 -0.00508 0.006757306727542691
55 -0.00276974596215563 -0.00508 0.04500000000000006
56 -0.003862331063546385 -0.00508 0.07324269327245692
57 -0.003862331063546127 -0.00508 0.02675730672754272
58 0.003062621061696113 -0.00508 0.03525104381822042
59 0.00380999999999999 -0.00508 0.05333333333333336
60 0.002513892068411292 -0.00508 0.06451086094368434
61 -0.003397756794869014 -0.00508 0.01550208763644078
62 -0.003397756794869776 -0.00508 0.08449791236355887
63 0.005436013103271634 -0.00508 0.08629010093933567
64 0.005436013103271204 -0.00508 0.01370989906066392
65 0.005392575019908096 -0.00508 0.04471687543031079
66 -0.004086046391886487 -0.00508 0.05630736571283632
67 -0.005285891192801128 -0.00508 0.03540167010915266
68 0.00429224238231497 -0.00508 0.0760168532760757
69 -0.005658897077404315 -0.00508 0.06481218398579554
70 0.004357567262467995 -0.00508 0.02395480205272238
71 -0.005948869167589538 -0.00508 0.006451878872796697
72 0.006485884812038503 -0.00508 0.006093441157641326
73 -0.005948869167589773 -0.00508 0.09354812112720165
74 0.006485884812038507 -0.00508 0.09390655884235702
75 0.01143 8.673617379884035e-19 0.08500000000000002
76 0.01143 -8.673617379884035e-19 0.09500000000000007
77 0.01143 8.673617379884035e-19 0.03500000000000004
78 0.01143 0 0.05500000000000003
79 0.01143 0 0.04500000000000006
80 0.01143 -3.469446951953614e-18 0.07500000000000004
81 0.01143 -8.673617379884035e-19 0.02500000000000003
82 0.01143 -8.673617379884035e-19 0.06500000000000003
83 0.01143 -8.673617379884035e-19 0.005000000000000005
84 0.01143 8.673617379884035e-19 0.01500000000000002
85 -0.0003234109569225773 0.00508 0.0932426932724551
86 -0.0003234109569229815 0.00508 0.006757306727542635
87 0.00276974596215563 0.00508 0.04500000000000006
88 0.003862331063546349 0.00508 0.07324269327245699
89 0.003862331063546095 0.00508 0.02675730672754266
90 -0.003062621061696118 0.00508 0.03525104381822042
91 -0.00380999999999999 0.00508 0.05333333333333336
92 -0.002513892068411298 0.00508 0.06451086094368434
93 0.00339775679486873 0.00508 0.01550208763644077
94 0.003397756794869488 0.00508 0.0844979123635589
95 -0.005436013103271985 0.00508 0.0862901009393357
96 -0.005436013103271558 0.00508 0.01370989906066391
97 -0.005392575019908096 0.00508 0.04471687543031079
98 0.004086046391886487 0.00508 0.0563073657128363
99 0.00528589119280112 0.00508 0.03540167010915265
100 -0.004292242382315053 0.00508 0.07601685327607573
101 0.005658897077404308 0.00508 0.06481218398579552
102 -0.004357567262468078 0.00508 0.02395480205272237
103 -0.006485884812039121 0.00508 0.006093441157641311
104 0.005948869167588938 0.00508 0.006451878872796682
105 -0.006485884812039124 0.00508 0.09390655884235705
106 0.005948869167589169 0.00508 0.09354812112720168
107 -0.01143 -8.673617379884035e-19 0.08500000000000002
108 -0.01143 8.673617379884035e-19 0.09500000000000007
109 -0.01143 -8.673617379884035e-19 0.03500000000000004
110 -0.01143 0 0.05500000000000003
111 -0.01143 0 0.04500000000000006
112 -0.01143 8.673617379884035e-19 0.06500000000000003
113 -0.01143 -8.673617379884035e-19 0.07500000000000004
114 -0.01143 8.673617379884035e-19 0.02500000000000003
115 -0.01143 8.673617379884035e-19 0.005000000000000005
116 -0.01143 8.673617379884035e-19 0.01500000000000002
117 -1.058568865709016e-15 -3.165870343657673e-16 0
118 -0.006531428571429533 -3.892578497222389e-16 0
119 0.006531428571427621 -3.818171083293389e-16 0
120 -1.058568865709016e-15 -3.165870343657673e-16 0.09999999999999432
121 -0.006531428571429533 -3.892578497222389e-16 0.09999999999999432
122 0.006531428571427621 -3.818171083293389e-16 0.09999999999999432
$EndNodes
$Elements
281
1 4 2 1 1 119 104 117 72
2 4 2 1 1 117 118 71 103
3 4 2 1 1 120 122 74 106
4 4 2 1 1 105 121 73 120
5 4 2 1 1 50 118 117 103
6 4 2 1 1 28 119 117 72
7 4 2 1 1 121 105 52 120
8 4 2 1 1 122 74 30 120
9 4 2 1 1 54 117 104 72
10 4 2 1 1 86 117 71 103
11 4 2 1 1 74 53 120 106
12 4 2 1 1 73 85 105 120
13 4 2 1 1 104 64 54 72
14 4 2 1 1 96 86 71 103
15 4 2 1 1 74 63 53 106
16 4 2 1 1 105 95 85 73
17 4 2 1 1 79 99 77 65
18 4 2 1 1 97 109 67 111
19 4 2 1 1 71 86 96 54
20 4 2 1 1 95 85 73 53
21 4 2 1 1 45 92 112 69
22 4 2 1 1 77 79 65 21
23 4 2 1 1 97 43 109 111
24 4 2 1 1 34 99 77 79
25 4 2 1 1 109 12 67 111
26 4 2 1 1 101 88 60 82
27 4 2 1 1 56 112 92 69
28 4 2 1 1 83 84 104 72
29 4 2 1 1 115 116 71 103
30 4 2 1 1 76 75 74 106
31 4 2 1 1 107 105 108 73
32 4 2 1 1 64 104 84 72
33 4 2 1 1 96 71 116 103
34 4 2 1 1 63 74 75 106
35 4 2 1 1 95 105 107 73
36 4 2 1 1 120 53 85 106
37 4 2 1 1 85 73 53 120
38 4 2 1 1 104 86 117 54
39 4 2 1 1 71 117 86 54
40 4 2 1 1 92 45 66 69
41 4 2 1 1 97 67 109 90
42 4 2 1 1 65 99 77 58
43 4 2 1 1 87 99 79 65
44 4 2 1 1 67 55 97 111
45 4 2 1 1 103 115 116 40
46 4 2 1 1 72 83 84 18
47 4 2 1 1 108 48 105 107
48 4 2 1 1 75 74 26 76
49 4 2 1 1 58 77 65 21
50 4 2 1 1 97 109 43 90
51 4 2 1 1 49 104 117 119
52 4 2 1 1 122 120 51 106
53 4 2 1 1 71 27 118 117
54 4 2 1 1 29 73 121 120
55 4 2 1 1 96 61 71 54
56 4 2 1 1 62 95 73 53
57 4 2 1 1 101 98 36 82
58 4 2 1 1 54 28 117 72
59 4 2 1 1 117 86 50 103
60 4 2 1 1 74 53 30 120
61 4 2 1 1 85 52 105 120
62 4 2 1 1 93 102 61 70
63 4 2 1 1 103 116 96 40
64 4 2 1 1 72 84 64 18
65 4 2 1 1 55 90 87 58
66 4 2 1 1 95 105 48 107
67 4 2 1 1 74 26 63 75
68 4 2 1 1 59 87 35 79
69 4 2 1 1 111 13 55 91
70 4 2 1 1 87 99 65 58
71 4 2 1 1 97 55 67 90
72 4 2 1 1 89 77 58 20
73 4 2 1 1 42 109 57 90
74 4 2 1 1 90 55 67 58
75 4 2 1 1 99 87 90 58
76 4 2 1 1 24 60 88 82
77 4 2 1 1 46 112 92 56
78 4 2 1 1 87 99 34 79
79 4 2 1 1 55 67 12 111
80 4 2 1 1 79 59 87 65
81 4 2 1 1 55 97 111 91
82 4 2 1 1 90 97 55 87
83 4 2 1 1 65 55 87 58
84 4 2 1 1 100 62 68 94
85 4 2 1 1 81 32 84 70
86 4 2 1 1 116 114 10 102
87 4 2 1 1 38 75 68 80
88 4 2 1 1 113 100 107 16
89 4 2 1 1 23 78 98 82
90 4 2 1 1 62 53 63 94
91 4 2 1 1 89 90 57 58
92 4 2 1 1 91 111 13 110
93 4 2 1 1 78 59 35 79
94 4 2 1 1 61 93 64 54
95 4 2 1 1 99 89 77 58
96 4 2 1 1 67 57 109 90
97 4 2 1 1 70 84 81 19
98 4 2 1 1 102 116 114 41
99 4 2 1 1 75 25 68 80
100 4 2 1 1 47 113 100 107
101 4 2 1 1 77 89 81 20
102 4 2 1 1 114 109 57 42
103 4 2 1 1 98 78 36 82
104 4 2 1 1 114 57 10 102
105 4 2 1 1 81 89 32 70
106 4 2 1 1 91 44 111 110
107 4 2 1 1 59 78 22 79
108 4 2 1 1 32 93 84 70
109 4 2 1 1 116 10 61 102
110 4 2 1 1 38 68 88 80
111 4 2 1 1 113 100 16 56
112 4 2 1 1 94 75 68 38
113 4 2 1 1 16 100 107 62
114 4 2 1 1 23 78 59 98
115 4 2 1 1 110 91 45 66
116 4 2 1 1 37 88 101 82
117 4 2 1 1 15 112 56 69
118 4 2 1 1 55 91 59 87
119 4 2 1 1 60 92 56 88
120 4 2 1 1 77 89 33 81
121 4 2 1 1 109 57 11 114
122 4 2 1 1 37 88 82 80
123 4 2 1 1 15 112 113 56
124 4 2 1 1 82 88 24 80
125 4 2 1 1 113 112 46 56
126 4 2 1 1 60 92 88 101
127 4 2 1 1 69 92 56 60
128 4 2 1 1 87 98 59 35
129 4 2 1 1 13 55 91 66
130 4 2 1 1 110 13 91 66
131 4 2 1 1 78 59 98 35
132 4 2 1 1 93 89 102 70
133 4 2 1 1 57 61 102 70
134 4 2 1 1 42 57 102 90
135 4 2 1 1 58 70 89 20
136 4 2 1 1 90 89 99 58
137 4 2 1 1 67 57 90 58
138 4 2 1 1 24 60 68 88
139 4 2 1 1 100 46 92 56
140 4 2 1 1 23 59 60 98
141 4 2 1 1 91 92 45 66
142 4 2 1 1 84 104 31 83
143 4 2 1 1 116 71 9 115
144 4 2 1 1 106 76 75 39
145 4 2 1 1 108 107 73 17
146 4 2 1 1 84 93 64 70
147 4 2 1 1 102 61 116 96
148 4 2 1 1 66 92 60 98
149 4 2 1 1 68 63 75 94
150 4 2 1 1 100 95 107 62
151 4 2 1 1 94 68 100 88
152 4 2 1 1 62 56 100 68
153 4 2 1 1 70 81 89 20
154 4 2 1 1 102 114 57 42
155 4 2 1 1 64 93 61 70
156 4 2 1 1 96 102 61 93
157 4 2 1 1 79 22 59 65
158 4 2 1 1 111 97 44 91
159 4 2 1 1 93 32 89 70
160 4 2 1 1 61 10 57 102
161 4 2 1 1 63 68 62 94
162 4 2 1 1 62 100 95 94
163 4 2 1 1 68 94 38 88
164 4 2 1 1 56 100 16 62
165 4 2 1 1 70 64 84 19
166 4 2 1 1 116 102 96 41
167 4 2 1 1 68 63 25 75
168 4 2 1 1 95 47 100 107
169 4 2 1 1 98 92 60 101
170 4 2 1 1 66 92 69 60
171 4 2 1 1 57 102 90 89
172 4 2 1 1 89 57 70 58
173 4 2 1 1 59 55 87 65
174 4 2 1 1 91 55 97 87
175 4 2 1 1 88 68 24 80
176 4 2 1 1 100 113 46 56
177 4 2 1 1 56 68 60 88
178 4 2 1 1 92 100 56 88
179 4 2 1 1 98 59 91 87
180 4 2 1 1 66 55 91 59
181 4 2 1 1 84 93 104 64
182 4 2 1 1 116 61 71 96
183 4 2 1 1 77 89 99 33
184 4 2 1 1 67 57 11 109
185 4 2 1 1 94 63 75 106
186 4 2 1 1 73 107 95 62
187 4 2 1 1 60 59 66 98
188 4 2 1 1 91 92 66 98
189 4 2 1 1 104 117 86 49
190 4 2 1 1 51 120 85 106
191 4 2 1 1 71 27 117 54
192 4 2 1 1 73 29 53 120
193 4 2 1 1 118 115 71 103
194 4 2 1 1 104 119 83 72
195 4 2 1 1 121 108 105 73
196 4 2 1 1 74 122 76 106
197 4 2 1 1 106 75 94 39
198 4 2 1 1 107 73 17 62
199 4 2 1 1 93 104 31 84
200 4 2 1 1 61 71 9 116
201 4 2 1 1 89 57 102 70
202 4 2 1 1 59 91 66 98
203 4 2 1 1 68 56 100 88
204 4 2 1 1 50 86 117 49
205 4 2 1 1 28 117 27 54
206 4 2 1 1 120 85 52 51
207 4 2 1 1 29 30 53 120
208 4 2 1 1 87 34 35 79
209 4 2 1 1 12 13 55 111
210 4 2 1 1 24 23 60 82
211 4 2 1 1 45 112 92 46
212 4 2 1 1 21 58 77 20
213 4 2 1 1 109 42 43 90
214 4 2 1 1 7 118 50 103
215 4 2 1 1 28 3 119 72
216 4 2 1 1 52 8 105 121
217 4 2 1 1 74 30 4 122
218 4 2 1 1 115 1 7 118
219 4 2 1 1 8 2 108 121
220 4 2 1 1 119 3 5 83
221 4 2 1 1 6 4 122 76
222 4 2 1 1 75 94 39 38
223 4 2 1 1 16 107 17 62
224 4 2 1 1 93 31 32 84
225 4 2 1 1 61 9 10 116
226 4 2 1 1 51 6 122 106
227 4 2 1 1 5 104 49 119
228 4 2 1 1 73 121 2 29
229 4 2 1 1 1 71 27 118
230 4 2 1 1 44 91 45 110
231 4 2 1 1 22 78 59 23
232 4 2 1 1 32 33 89 81
233 4 2 1 1 57 10 11 114
234 4 2 1 1 88 37 38 80
235 4 2 1 1 16 15 113 56
236 4 2 1 1 103 7 115 40
237 4 2 1 1 72 3 83 18
238 4 2 1 1 105 8 48 108
239 4 2 1 1 74 4 26 76
240 4 2 1 1 98 36 78 35
241 4 2 1 1 110 14 13 66
242 4 2 1 1 112 15 14 69
243 4 2 1 1 36 37 101 82
244 4 2 1 1 118 7 115 103
245 4 2 1 1 83 119 3 72
246 4 2 1 1 108 105 8 121
247 4 2 1 1 4 74 122 76
248 4 2 1 1 20 70 81 19
249 4 2 1 1 114 102 41 42
250 4 2 1 1 119 5 104 83
251 4 2 1 1 71 1 115 118
252 4 2 1 1 76 122 6 106
253 4 2 1 1 121 2 108 73
254 4 2 1 1 97 44 43 111
255 4 2 1 1 65 79 22 21
256 4 2 1 1 67 11 12 109
257 4 2 1 1 34 77 99 33
258 4 2 1 1 106 6 76 39
259 4 2 1 1 73 2 108 17
260 4 2 1 1 5 31 104 83
261 4 2 1 1 71 1 9 115
262 4 2 1 1 25 24 68 80
263 4 2 1 1 47 113 46 100
264 4 2 1 1 19 64 84 18
265 4 2 1 1 40 116 96 41
266 4 2 1 1 26 25 63 75
267 4 2 1 1 95 48 47 107
268 4 2 1 1 69 14 110 66
269 4 2 1 1 110 14 69 112
270 4 2 1 1 110 45 69 66
271 4 2 1 1 69 45 110 112
272 4 2 1 1 82 98 60 101
273 4 2 1 1 82 60 98 23
274 4 2 1 1 93 54 104 64
275 4 2 1 1 104 54 93 86
276 4 2 1 1 54 96 93 86
277 4 2 1 1 54 93 96 61
278 4 2 1 1 53 94 106 63
279 4 2 1 1 106 94 53 85
280 4 2 1 1 95 53 94 85
281 4 2 1 1 94 53 95 62
$EndElements
