$MeshFormat
2.2 0 8
$EndMeshFormat
$PhysicalNames
1
3 1 "air_OPEM_RESERVED_1"
$EndPhysicalNames
$Nodes
148
1 0 0 0
2 0.01143 0 0
3 0.02285999999999999 0 0
4 0.02286 0 0.001
5 0 0 0.001
6 0.02286 0 0.099
7 0 0 0.099
8 0.02285999999999999 0 0.09999999999999999
9 0.01143 0 0.1
10 0 0 0.09999999999999999
11 0.02285999999999999 0.01016 0
12 0.02286 0.01016 0.001
13 0.02286 0.01016 0.099
14 0.02285999999999999 0.01016 0.09999999999999999
15 0.01143 0.01016 0
16 0 0.01016 0
17 0 0.01016 0.001
18 0 0.01016 0.099
19 0 0.01016 0.1
20 0.01143 0.01016 0.1
21 0.005714999999999997 0 0
22 0.01714499999999999 0 0
23 0.01524 0 0.001
24 0.007620000000000009 0 0.001
25 0.02286 0 0.0108
26 0.02286 0 0.0206
27 0.02286 0 0.0304
28 0.02286 0 0.04020000000000001
29 0.02286 0 0.05
30 0.02286 0 0.0598
31 0.02286 0 0.06960000000000001
32 0.02286 0 0.07940000000000001
33 0.02286 0 0.08919999999999999
34 0.007619999999999997 0 0.099
35 0.01523999999999999 0 0.099
36 0 0 0.0108
37 0 0 0.0206
38 0 0 0.0304
39 0 0 0.04020000000000001
40 0 0 0.05
41 0 0 0.0598
42 0 0 0.06960000000000001
43 0 0 0.07940000000000001
44 0 0 0.08919999999999999
45 0.01714499999999999 0 0.1
46 0.005714999999999997 0 0.1
47 0.02286 0.01016 0.0108
48 0.02286 0.01016 0.0206
49 0.02286 0.01016 0.0304
50 0.02286 0.01016 0.04020000000000001
51 0.02286 0.01016 0.05
52 0.02286 0.01016 0.0598
53 0.02286 0.01016 0.06960000000000001
54 0.02286 0.01016 0.07940000000000001
55 0.02286 0.01016 0.08919999999999999
56 0.017145 0.01016 0
57 0.005715000000000008 0.01016 0
58 0.007619999999999997 0.01016 0.001
59 0.01523999999999999 0.01016 0.001
60 0 0.01016 0.0108
61 0 0.01016 0.0206
62 0 0.01016 0.0304
63 0 0.01016 0.04020000000000001
64 0 0.01016 0.05
65 0 0.01016 0.0598
66 0 0.01016 0.06960000000000001
67 0 0.01016 0.07940000000000001
68 0 0.01016 0.08919999999999999
69 0.01524 0.01016 0.099
70 0.007620000000000009 0.01016 0.099
71 0.005715000000000008 0.01016 0.1
72 0.017145 0.01016 0.1
73 0.0111589143829159 0 0.09237417228606276
74 0.0117010856170841 0 0.007625827713937248
75 0.01529340165554019 0 0.07277417228606275
76 0.0143729510429125 0 0.0353
77 0.0143729510429125 0 0.0549
78 0.008411082675983433 0 0.06445345318372325
79 0.007566598344459803 0 0.02722582771393724
80 0.008487048957087495 0 0.04510000000000003
81 0.01487338105617559 0 0.0838069063674465
82 0.007986618943824403 0 0.0161930936325535
83 0.006032253578753804 0 0.0855635131089182
84 0.0168277464212462 0 0.01443648689108179
85 0.007125364457939077 0 0.07552357677930364
86 0.01675948707488722 0 0.06430552509395721
87 0.006085319668891961 0 0.03564516554278745
88 0.01541231912540715 0 0.02402590137292875
89 0.0165905902085825 0 0.0451
90 0.006254216535196687 0 0.05485069063674466
91 0.0173984590878183 0 0.09267621573070185
92 0.004962233592333939 0 0.09302753707899619
93 0.01789776640766606 0 0.006972462921003808
94 0.005461540912181701 0 0.00732378426929815
95 0.02286 0.005079999999999999 0.0745
96 0.02286 0.00508 0.08429999999999999
97 0.02286 0.00508 0.09409999999999999
98 0.02286 0.005079999999999999 0.0353
99 0.02286 0.005079999999999999 0.06470000000000001
100 0.02286 0.005079999999999999 0.04510000000000001
101 0.02286 0.00508 0.0549
102 0.02286 0.005080000000000001 0.0157
103 0.02286 0.005079999999999999 0.0255
104 0.02286 0.00508 0.005900000000000001
105 0.0111589143829159 0.01016 0.09237417228606276
106 0.0117010856170841 0.01016 0.007625827713937246
107 0.01622750761049949 0.01016 0.07438900674327531
108 0.01430871977775279 0.01016 0.03424455608281802
109 0.008410222309580571 0.01016 0.05515388851227285
110 0.008190181761622388 0.01016 0.02591371567943196
111 0.01437295104291247 0.01016 0.06470000000000004
112 0.01428856864737184 0.01016 0.04604093600219496
113 0.01500682476402693 0.01016 0.08403759700419114
114 0.008075702289133346 0.01016 0.0160056490561956
115 0.01684259364546435 0.01016 0.01440524612835548
116 0.006054494196729036 0.01016 0.08560196154837564
117 0.00802172500948118 0.01016 0.04020000000000001
118 0.008287571949657032 0.01016 0.0746326521851203
119 0.01580455416592115 0.01016 0.02413918654128584
120 0.01655834839997298 0.01016 0.05513896490289358
121 0.006214149060430014 0.01016 0.06477730813947864
122 0.006374529355042239 0.01016 0.03379743670310032
123 0.006403084986124699 0.01016 0.0466815770507165
124 0.00496668171592899 0.01016 0.09303522676688769
125 0.01742514782938857 0.01016 0.09272235385805079
126 0.005479357581243488 0.01016 0.007286295354026569
127 0.01790073585250969 0.01016 0.006966214768458545
128 0 0.005080000000000001 0.0745
129 0 0.00508 0.08429999999999999
130 0 0.00508 0.09409999999999999
131 0 0.005080000000000001 0.06470000000000001
132 0 0.005080000000000002 0.0353
133 0 0.005080000000000002 0.04510000000000001
134 0 0.005080000000000001 0.0549
135 0 0.005079999999999999 0.0157
136 0 0.00508 0.0255
137 0 0.00508 0.005900000000000001
138 0.007414412126503342 0.00508 0
139 0.003768882425300669 0.00508 0
140 0.01544578703703703 0.00508 0
141 0.0190911574074074 0.00508 0
142 0.007414412126503342 0.00508 0.1
143 0.003768882425300669 0.00508 0.1
144 0.01544578703703703 0.00508 0.1
145 0.0190911574074074 0.00508 0.1
146 0.01204857678852571 0.00461606740860572 0.01011482756428292
147 0.01144914883576958 0.005266716039469588 0.004869164239696141
148 0.01117163988077018 0.005075051167581304 0.09215897130635653
$EndNodes
$Elements
365
1 4 2 1 1 23 2 24 147
2 4 2 1 1 69 20 70 148
3 4 2 1 1 12 59 56 141
4 4 2 1 1 7 34 143 46
5 4 2 1 1 23 4 22 141
6 4 2 1 1 70 18 143 71
7 4 2 1 1 35 6 145 45
8 4 2 1 1 17 58 139 57
9 4 2 1 1 13 69 145 72
10 4 2 1 1 24 5 139 21
11 4 2 1 1 141 127 140 93
12 4 2 1 1 124 143 92 142
13 4 2 1 1 102 115 127 93
14 4 2 1 1 127 93 115 146
15 4 2 1 1 130 129 124 92
16 4 2 1 1 104 102 127 93
17 4 2 1 1 50 98 89 76
18 4 2 1 1 54 95 96 107
19 4 2 1 1 128 131 121 42
20 4 2 1 1 42 121 128 85
21 4 2 1 1 100 50 98 89
22 4 2 1 1 121 131 134 90
23 4 2 1 1 134 131 41 90
24 4 2 1 1 121 131 65 134
25 4 2 1 1 114 135 136 61
26 4 2 1 1 89 98 100 28
27 4 2 1 1 89 100 101 29
28 4 2 1 1 127 140 93 147
29 4 2 1 1 85 116 83 81
30 4 2 1 1 101 120 86 99
31 4 2 1 1 89 117 112 76
32 4 2 1 1 96 95 81 107
33 4 2 1 1 145 91 144 125
34 4 2 1 1 131 128 121 66
35 4 2 1 1 82 114 88 84
36 4 2 1 1 138 139 94 126
37 4 2 1 1 80 117 89 76
38 4 2 1 1 116 124 129 92
39 4 2 1 1 124 142 92 148
40 4 2 1 1 52 120 101 99
41 4 2 1 1 103 98 108 27
42 4 2 1 1 136 82 37 135
43 4 2 1 1 121 42 78 85
44 4 2 1 1 124 92 116 148
45 4 2 1 1 42 131 121 78
46 4 2 1 1 76 88 103 27
47 4 2 1 1 85 81 75 107
48 4 2 1 1 98 50 108 76
49 4 2 1 1 77 120 101 89
50 4 2 1 1 61 136 114 110
51 4 2 1 1 32 95 81 96
52 4 2 1 1 102 119 115 84
53 4 2 1 1 96 113 54 107
54 4 2 1 1 114 136 82 110
55 4 2 1 1 135 136 82 114
56 4 2 1 1 113 91 125 148
57 4 2 1 1 134 109 121 90
58 4 2 1 1 101 86 30 99
59 4 2 1 1 90 121 131 78
60 4 2 1 1 121 118 128 85
61 4 2 1 1 112 101 120 89
62 4 2 1 1 76 103 108 27
63 4 2 1 1 115 102 84 93
64 4 2 1 1 115 84 114 146
65 4 2 1 1 134 40 123 90
66 4 2 1 1 84 115 93 146
67 4 2 1 1 101 100 112 51
68 4 2 1 1 79 82 136 110
69 4 2 1 1 112 100 101 89
70 4 2 1 1 81 85 116 113
71 4 2 1 1 112 120 101 51
72 4 2 1 1 113 91 96 125
73 4 2 1 1 67 116 129 85
74 4 2 1 1 107 53 75 99
75 4 2 1 1 123 80 109 90
76 4 2 1 1 50 100 112 89
77 4 2 1 1 65 109 121 134
78 4 2 1 1 90 131 41 78
79 4 2 1 1 98 108 49 103
80 4 2 1 1 118 116 85 113
81 4 2 1 1 82 114 110 88
82 4 2 1 1 109 80 123 112
83 4 2 1 1 132 39 87 117
84 4 2 1 1 89 101 77 29
85 4 2 1 1 76 98 89 28
86 4 2 1 1 38 136 132 122
87 4 2 1 1 112 80 117 89
88 4 2 1 1 141 104 127 93
89 4 2 1 1 119 110 114 88
90 4 2 1 1 124 143 130 92
91 4 2 1 1 95 75 81 107
92 4 2 1 1 108 112 117 76
93 4 2 1 1 53 107 111 99
94 4 2 1 1 132 39 117 133
95 4 2 1 1 87 79 122 76
96 4 2 1 1 123 133 40 134
97 4 2 1 1 120 86 77 101
98 4 2 1 1 113 96 81 107
99 4 2 1 1 129 124 68 130
100 4 2 1 1 102 127 47 104
101 4 2 1 1 129 128 67 85
102 4 2 1 1 111 86 120 99
103 4 2 1 1 92 130 129 44
104 4 2 1 1 93 104 102 25
105 4 2 1 1 83 129 116 85
106 4 2 1 1 88 103 108 76
107 4 2 1 1 93 102 84 25
108 4 2 1 1 115 127 47 102
109 4 2 1 1 135 82 94 146
110 4 2 1 1 80 87 39 117
111 4 2 1 1 76 108 98 27
112 4 2 1 1 108 79 110 88
113 4 2 1 1 128 118 121 66
114 4 2 1 1 39 80 117 133
115 4 2 1 1 82 114 84 146
116 4 2 1 1 80 109 90 77
117 4 2 1 1 103 108 119 88
118 4 2 1 1 37 79 82 136
119 4 2 1 1 80 123 40 90
120 4 2 1 1 119 102 88 84
121 4 2 1 1 121 118 78 111
122 4 2 1 1 79 82 110 88
123 4 2 1 1 119 108 110 88
124 4 2 1 1 53 95 75 99
125 4 2 1 1 111 120 52 99
126 4 2 1 1 117 80 87 76
127 4 2 1 1 118 121 78 85
128 4 2 1 1 129 92 44 83
129 4 2 1 1 91 97 96 125
130 4 2 1 1 53 75 95 107
131 4 2 1 1 110 122 79 108
132 4 2 1 1 135 94 137 126
133 4 2 1 1 90 109 121 78
134 4 2 1 1 81 75 95 32
135 4 2 1 1 78 86 77 111
136 4 2 1 1 23 93 140 147
137 4 2 1 1 117 63 132 133
138 4 2 1 1 109 77 120 111
139 4 2 1 1 77 109 78 111
140 4 2 1 1 62 132 136 122
141 4 2 1 1 111 107 75 99
142 4 2 1 1 136 38 79 122
143 4 2 1 1 120 77 86 111
144 4 2 1 1 30 77 86 101
145 4 2 1 1 80 123 133 40
146 4 2 1 1 120 77 112 89
147 4 2 1 1 92 129 116 83
148 4 2 1 1 116 67 118 85
149 4 2 1 1 43 128 129 85
150 4 2 1 1 133 123 64 134
151 4 2 1 1 83 116 92 148
152 4 2 1 1 70 142 124 148
153 4 2 1 1 80 109 77 112
154 4 2 1 1 134 123 109 90
155 4 2 1 1 108 122 79 76
156 4 2 1 1 111 75 86 99
157 4 2 1 1 78 90 109 77
158 4 2 1 1 91 113 81 148
159 4 2 1 1 88 108 79 76
160 4 2 1 1 31 75 95 99
161 4 2 1 1 102 103 88 26
162 4 2 1 1 96 81 91 113
163 4 2 1 1 126 94 138 147
164 4 2 1 1 78 109 121 111
165 4 2 1 1 81 116 83 148
166 4 2 1 1 116 124 68 129
167 4 2 1 1 48 119 102 103
168 4 2 1 1 97 96 125 55
169 4 2 1 1 119 49 108 103
170 4 2 1 1 137 135 126 60
171 4 2 1 1 128 118 67 85
172 4 2 1 1 91 144 125 148
173 4 2 1 1 34 92 143 142
174 4 2 1 1 23 141 140 93
175 4 2 1 1 59 127 140 141
176 4 2 1 1 143 124 70 142
177 4 2 1 1 33 91 97 96
178 4 2 1 1 137 36 94 135
179 4 2 1 1 122 79 136 110
180 4 2 1 1 83 43 129 85
181 4 2 1 1 24 74 23 147
182 4 2 1 1 59 140 127 147
183 4 2 1 1 135 114 82 146
184 4 2 1 1 120 77 109 112
185 4 2 1 1 145 97 91 125
186 4 2 1 1 112 77 80 89
187 4 2 1 1 139 137 94 126
188 4 2 1 1 78 75 86 111
189 4 2 1 1 119 102 103 88
190 4 2 1 1 70 105 69 148
191 4 2 1 1 15 138 2 147
192 4 2 1 1 2 140 15 147
193 4 2 1 1 117 87 132 122
194 4 2 1 1 86 75 31 99
195 4 2 1 1 34 92 142 148
196 4 2 1 1 117 80 123 133
197 4 2 1 1 84 102 88 26
198 4 2 1 1 122 136 62 110
199 4 2 1 1 9 142 20 148
200 4 2 1 1 9 20 144 148
201 4 2 1 1 81 113 116 148
202 4 2 1 1 69 145 144 125
203 4 2 1 1 24 138 94 147
204 4 2 1 1 139 138 58 126
205 4 2 1 1 94 24 139 138
206 4 2 1 1 91 144 35 145
207 4 2 1 1 119 115 48 102
208 4 2 1 1 69 125 144 148
209 4 2 1 1 127 93 146 147
210 4 2 1 1 46 9 34 142
211 4 2 1 1 20 71 70 142
212 4 2 1 1 56 59 15 140
213 4 2 1 1 23 2 140 22
214 4 2 1 1 64 123 109 134
215 4 2 1 1 2 21 24 138
216 4 2 1 1 58 15 138 57
217 4 2 1 1 72 144 20 69
218 4 2 1 1 45 9 144 35
219 4 2 1 1 135 114 126 60
220 4 2 1 1 82 94 36 135
221 4 2 1 1 96 113 125 55
222 4 2 1 1 91 33 81 96
223 4 2 1 1 23 140 2 147
224 4 2 1 1 138 58 126 147
225 4 2 1 1 117 123 80 112
226 4 2 1 1 74 93 23 147
227 4 2 1 1 24 2 138 147
228 4 2 1 1 70 124 105 148
229 4 2 1 1 20 142 70 148
230 4 2 1 1 144 91 35 148
231 4 2 1 1 20 69 144 148
232 4 2 1 1 59 106 58 147
233 4 2 1 1 140 56 59 141
234 4 2 1 1 140 141 23 22
235 4 2 1 1 143 70 71 142
236 4 2 1 1 46 34 143 142
237 4 2 1 1 144 45 35 145
238 4 2 1 1 72 145 144 69
239 4 2 1 1 139 24 21 138
240 4 2 1 1 58 138 139 57
241 4 2 1 1 104 12 4 141
242 4 2 1 1 6 13 97 145
243 4 2 1 1 137 5 17 139
244 4 2 1 1 143 7 18 130
245 4 2 1 1 34 35 73 148
246 4 2 1 1 4 11 141 12
247 4 2 1 1 8 13 6 145
248 4 2 1 1 8 13 145 14
249 4 2 1 1 11 4 141 3
250 4 2 1 1 10 7 18 143
251 4 2 1 1 17 5 16 139
252 4 2 1 1 19 10 18 143
253 4 2 1 1 5 1 16 139
254 4 2 1 1 116 113 105 148
255 4 2 1 1 124 116 105 148
256 4 2 1 1 117 132 63 122
257 4 2 1 1 113 125 105 148
258 4 2 1 1 117 123 63 133
259 4 2 1 1 7 34 92 143
260 4 2 1 1 12 59 141 127
261 4 2 1 1 15 140 59 147
262 4 2 1 1 23 4 141 93
263 4 2 1 1 18 70 143 124
264 4 2 1 1 69 105 125 148
265 4 2 1 1 94 74 24 147
266 4 2 1 1 138 15 58 147
267 4 2 1 1 58 17 139 126
268 4 2 1 1 34 142 9 148
269 4 2 1 1 69 13 145 125
270 4 2 1 1 35 6 91 145
271 4 2 1 1 5 24 139 94
272 4 2 1 1 136 61 62 110
273 4 2 1 1 9 144 35 148
274 4 2 1 1 101 30 77 29
275 4 2 1 1 39 80 133 40
276 4 2 1 1 28 76 98 27
277 4 2 1 1 65 64 109 134
278 4 2 1 1 131 42 41 78
279 4 2 1 1 111 52 53 99
280 4 2 1 1 83 73 81 148
281 4 2 1 1 106 59 127 147
282 4 2 1 1 49 50 108 98
283 4 2 1 1 51 100 112 50
284 4 2 1 1 128 118 66 67
285 4 2 1 1 135 114 60 61
286 4 2 1 1 82 36 37 135
287 4 2 1 1 34 73 92 148
288 4 2 1 1 130 143 7 92
289 4 2 1 1 127 12 104 141
290 4 2 1 1 83 92 73 148
291 4 2 1 1 141 4 104 93
292 4 2 1 1 17 137 139 126
293 4 2 1 1 143 18 124 130
294 4 2 1 1 13 97 145 125
295 4 2 1 1 97 91 6 145
296 4 2 1 1 33 32 81 96
297 4 2 1 1 94 5 137 139
298 4 2 1 1 31 95 75 32
299 4 2 1 1 37 38 79 136
300 4 2 1 1 96 113 55 54
301 4 2 1 1 91 81 73 148
302 4 2 1 1 132 62 63 122
303 4 2 1 1 133 123 63 64
304 4 2 1 1 27 88 103 26
305 4 2 1 1 127 115 106 146
306 4 2 1 1 106 115 114 146
307 4 2 1 1 12 47 127 104
308 4 2 1 1 7 130 92 44
309 4 2 1 1 95 54 53 107
310 4 2 1 1 82 84 74 146
311 4 2 1 1 18 68 124 130
312 4 2 1 1 4 104 93 25
313 4 2 1 1 119 48 49 103
314 4 2 1 1 82 74 94 146
315 4 2 1 1 42 128 43 85
316 4 2 1 1 101 120 52 51
317 4 2 1 1 26 84 102 25
318 4 2 1 1 115 47 48 102
319 4 2 1 1 86 31 30 99
320 4 2 1 1 58 106 126 147
321 4 2 1 1 38 39 87 132
322 4 2 1 1 41 40 134 90
323 4 2 1 1 29 89 100 28
324 4 2 1 1 65 131 121 66
325 4 2 1 1 126 17 137 60
326 4 2 1 1 43 129 44 83
327 4 2 1 1 125 13 97 55
328 4 2 1 1 91 6 33 97
329 4 2 1 1 5 36 94 137
330 4 2 1 1 106 127 146 147
331 4 2 1 1 73 35 91 148
332 4 2 1 1 84 93 74 146
333 4 2 1 1 74 146 93 147
334 4 2 1 1 116 68 67 129
335 4 2 1 1 94 146 74 147
336 4 2 1 1 71 19 18 143
337 4 2 1 1 16 17 139 57
338 4 2 1 1 1 5 21 139
339 4 2 1 1 10 7 143 46
340 4 2 1 1 45 8 6 145
341 4 2 1 1 141 3 4 22
342 4 2 1 1 145 14 13 72
343 4 2 1 1 56 11 12 141
344 4 2 1 1 59 58 15 147
345 4 2 1 1 34 9 35 148
346 4 2 1 1 113 85 107 81
347 4 2 1 1 113 107 85 118
348 4 2 1 1 76 112 50 108
349 4 2 1 1 76 50 112 89
350 4 2 1 1 84 119 114 88
351 4 2 1 1 84 114 119 115
352 4 2 1 1 111 107 78 75
353 4 2 1 1 111 78 107 118
354 4 2 1 1 85 78 107 75
355 4 2 1 1 85 107 78 118
356 4 2 1 1 122 38 87 132
357 4 2 1 1 122 87 38 79
358 4 2 1 1 76 122 117 108
359 4 2 1 1 76 117 122 87
360 4 2 1 1 147 94 135 126
361 4 2 1 1 135 94 147 146
362 4 2 1 1 135 146 126 114
363 4 2 1 1 135 126 146 147
364 4 2 1 1 106 126 146 114
365 4 2 1 1 106 146 126 147
$EndElements
