$MeshFormat
2.2 0 8
$EndMeshFormat
$PhysicalNames
2
3 1 "core_OPEM_RESERVED_1"
3 2 "prepreg_OPEM_RESERVED_2"
$EndPhysicalNames
$Nodes
285
1 0.00486 0 0
2 8.500000000000001e-05 0 0
3 3.500000000000015e-05 0 0
4 0 0 0
5 0 0 0.001
6 3.500000000000015e-05 0 0.001
7 8.500000000000001e-05 0 0.001
8 0.00486 0 0.001
9 -0.0001397 0 0
10 -0.0002794 0 0
11 -0.0002794 0 0.001
12 -0.0001397 0 0.001
13 -0.0003150000000000001 0 0
14 -0.0003649999999999999 0 0
15 -0.005139400000000001 0 0
16 -0.005139400000000001 0 0.001
17 -0.0003649999999999999 0 0.001
18 -0.0003150000000000001 0 0.001
19 -0.0051394 0.0003048 0
20 -0.0051394 0.0003048 0.001
21 0.00486 0.0003048 0
22 0.00486 0.0003048 0.001
23 -0.0001397 0.0003048 0
24 -0.0001397 0.0003048 0.001
25 3.5e-05 3.499999999999991e-05 0
26 -0.0001397 3.499999999999992e-05 0
27 -0.000315 3.499999999999991e-05 0
28 8.500000000000001e-05 6.499999999999989e-05 0
29 -0.0001397 6.49999999999999e-05 0
30 -0.000365 6.499999999999989e-05 0
31 3.5e-05 3.5e-05 0.001
32 -0.0001397 3.5e-05 0.001
33 -0.000315 3.5e-05 0.001
34 8.500000000000001e-05 6.499999999999998e-05 0.001
35 -0.0001397 6.499999999999998e-05 0.001
36 -0.000365 6.499999999999998e-05 0.001
37 0.00486 -0.000301 0
38 0.00486 -0.000301 0.001
39 -0.0051394 -0.000301 0
40 -0.0051394 -0.000301 0.001
41 8.500000000000001e-05 -8.50000000000001e-05 0
42 -0.000365 -8.50000000000001e-05 0
43 3.5e-05 -5.50000000000001e-05 0
44 -0.000315 -5.50000000000001e-05 0
45 -1.833e-05 -3.174999999999999e-05 0
46 -0.00026107 -3.174999999999999e-05 0
47 8.500000000000001e-05 -8.500000000000001e-05 0.001
48 -0.000365 -8.500000000000001e-05 0.001
49 3.5e-05 -5.5e-05 0.001
50 -0.000315 -5.5e-05 0.001
51 -1.833e-05 -3.174999999999999e-05 0.001
52 -0.00026107 -3.174999999999999e-05 0.001
53 0.0043825 0 0
54 0.003905000000000001 0 0
55 0.003427500000000003 0 0
56 0.002950000000000004 0 0
57 0.002472500000000004 0 0
58 0.001995000000000003 0 0
59 0.001517500000000002 0 0
60 0.001040000000000001 0 0
61 0.0005625000000000014 0 0
62 0 0 0.0004999999999999983
63 0.0043825 0 0.001
64 0.003905000000000001 0 0.001
65 0.003427500000000003 0 0.001
66 0.002950000000000004 0 0.001
67 0.002472500000000004 0 0.001
68 0.001995000000000003 0 0.001
69 0.001517500000000002 0 0.001
70 0.001040000000000001 0 0.001
71 0.0005625000000000014 0 0.001
72 0.00486 0 0.0004999999999999983
73 -0.0002794 0 0.0004999999999999983
74 -0.0008424399999999999 0 0
75 -0.00131988 0 0
76 -0.00179732 0 0
77 -0.00227476 0 0
78 -0.002752199999999998 0 0
79 -0.003229639999999997 0 0
80 -0.003707079999999996 0 0
81 -0.004184519999999995 0 0
82 -0.004661959999999996 0 0
83 -0.005139400000000001 0 0.0004999999999999983
84 -0.0008424399999999999 0 0.001
85 -0.00131988 0 0.001
86 -0.00179732 0 0.001
87 -0.00227476 0 0.001
88 -0.002752199999999998 0 0.001
89 -0.003229639999999997 0 0.001
90 -0.003707079999999996 0 0.001
91 -0.004184519999999995 0 0.001
92 -0.004661959999999996 0 0.001
93 -0.005139400000000001 0.0003048 0.0004999999999999983
94 0.00486 0.0003048 0.0004999999999999983
95 -0.004639430000000002 0.0003048 0
96 -0.004139460000000002 0.0003048 0
97 -0.003639490000000004 0.0003048 0
98 -0.003139520000000006 0.0003048 0
99 -0.002639550000000005 0.0003048 0
100 -0.002139580000000004 0.0003048 0
101 -0.001639610000000003 0.0003048 0
102 -0.001139640000000002 0.0003048 0
103 -0.000639670000000001 0.0003048 0
104 0.0003602699999999985 0.0003048 0
105 0.0008602399999999982 0.0003048 0
106 0.001360209999999996 0.0003048 0
107 0.001860179999999994 0.0003048 0
108 0.002360149999999995 0.0003048 0
109 0.002860119999999997 0.0003048 0
110 0.003360089999999998 0.0003048 0
111 0.003860059999999998 0.0003048 0
112 0.004360029999999999 0.0003048 0
113 -0.004639430000000002 0.0003048 0.001
114 -0.004139460000000002 0.0003048 0.001
115 -0.003639490000000004 0.0003048 0.001
116 -0.003139520000000006 0.0003048 0.001
117 -0.002639550000000005 0.0003048 0.001
118 -0.002139580000000004 0.0003048 0.001
119 -0.001639610000000003 0.0003048 0.001
120 -0.001139640000000002 0.0003048 0.001
121 -0.000639670000000001 0.0003048 0.001
122 0.0003602699999999985 0.0003048 0.001
123 0.0008602399999999982 0.0003048 0.001
124 0.001360209999999996 0.0003048 0.001
125 0.001860179999999994 0.0003048 0.001
126 0.002360149999999995 0.0003048 0.001
127 0.002860119999999997 0.0003048 0.001
128 0.003360089999999998 0.0003048 0.001
129 0.003860059999999998 0.0003048 0.001
130 0.004360029999999999 0.0003048 0.001
131 0.00486 -0.000301 0.0004999999999999983
132 -0.005139400000000001 -0.000301 0.0004999999999999983
133 0.004360030000000001 -0.000301 0
134 0.003860060000000002 -0.000301 0
135 0.003360090000000002 -0.000301 0
136 0.002860120000000002 -0.000301 0
137 0.002360150000000004 -0.000301 0
138 0.001860180000000006 -0.000301 0
139 0.001360210000000008 -0.000301 0
140 0.0008602400000000104 -0.000301 0
141 0.0003602700000000097 -0.000301 0
142 -0.0001396999999999917 -0.000301 0
143 -0.0006396699999999924 -0.000301 0
144 -0.001139639999999994 -0.000301 0
145 -0.001639609999999994 -0.000301 0
146 -0.002139579999999996 -0.000301 0
147 -0.002639549999999997 -0.000301 0
148 -0.003139519999999998 -0.000301 0
149 -0.003639489999999999 -0.000301 0
150 -0.004139459999999999 -0.000301 0
151 -0.00463943 -0.000301 0
152 0.004360030000000001 -0.000301 0.001
153 0.003860060000000002 -0.000301 0.001
154 0.003360090000000002 -0.000301 0.001
155 0.002860120000000002 -0.000301 0.001
156 0.002360150000000004 -0.000301 0.001
157 0.001860180000000006 -0.000301 0.001
158 0.001360210000000008 -0.000301 0.001
159 0.0008602400000000104 -0.000301 0.001
160 0.0003602700000000097 -0.000301 0.001
161 -0.0001396999999999917 -0.000301 0.001
162 -0.0006396699999999924 -0.000301 0.001
163 -0.001139639999999994 -0.000301 0.001
164 -0.001639609999999994 -0.000301 0.001
165 -0.002139579999999996 -0.000301 0.001
166 -0.002639549999999997 -0.000301 0.001
167 -0.003139519999999998 -0.000301 0.001
168 -0.003639489999999999 -0.000301 0.001
169 -0.004139459999999999 -0.000301 0.001
170 -0.00463943 -0.000301 0.001
171 -1.833e-05 -3.175e-05 0.0004999999999999983
172 -0.00026107 -3.175e-05 0.0004999999999999983
173 0.003666250000000002 0 0.000413527130307068
174 0.00263166666666667 0 0.0006666666666666666
175 0.0008012500000000016 0 0.0004135271303070695
176 0.001756250000000002 0 0.00058647286969293
177 0.004127583493002057 0 0.0006125637651727573
178 0.002222380952380955 0 0.0003568255772531262
179 0.003177380952380956 0 0.0006178333287694316
180 0.001358333333333336 0 0.0003333333333333329
181 0.000428958333333335 0 0.0006611166876491298
182 0.000360744047619049 0 0.0003100384025651705
183 0.004546955025272881 0 0.0006725890279349282
184 0.004539382923045523 0 0.0003135683131363584
185 0.003666250000000002 0 0.0007553604955877113
186 0.004129745202292512 0 0.0002612768882058229
187 0.002755914115646262 0 0.0002944166532965479
188 0.003191176754229392 0 0.0002521161509364573
189 0.001212430555555558 0 0.0006814489714868409
190 0.0008012500000000016 0 0.0007553604955877137
191 0.002215559523809527 0 0.0007219930227225445
192 0.001756250000000003 0 0.0002446395044122856
193 -0.002513480000000003 0 0.0005865248312171592
194 -0.003400154285714281 0 0.0004146913102476269
195 -0.001001586666666666 0 0.0006385344721154043
196 -0.004423239999999995 0 0.0005865248312171577
197 -0.002036039999999999 0 0.0004134751687828416
198 -0.004004262040816321 0 0.0004148650447425951
199 -0.00154723238095238 0 0.0006138130917676442
200 -0.002977278857142855 0 0.0006491796285880116
201 -0.0006090805442176897 0 0.000696534957932608
202 -0.0006510284362996922 0 0.000322904904911844
203 -0.004806638746437714 0 0.0006556892168119964
204 -0.004818573280166747 0 0.0003109853418758002
205 -0.002924338231292515 0 0.0002955136398891334
206 -0.002513480000000001 0 0.0002446820014752696
207 -0.001558599999999996 0 0.0002446820014752657
208 -0.003707079999999996 0 0.000658157170258111
209 -0.002036039999999999 0 0.0007553179985247306
210 -0.004423239999999993 0 0.0002446820014752708
211 -0.001107508851064063 0 0.0002660524133690084
212 -0.005139400000000001 0.0001524 0.0007499999999999991
213 -0.005139400000000001 0.0001524 0.0002499999999999991
214 -0.004389445000000002 0.0003048 0.000567013278869896
215 0.0006114699580658722 0.0003048 0.0004994643488902002
216 0.001610194999999995 0.0003048 0.0005235733297398585
217 -0.003390124876564227 0.0003048 0.0005238466211224088
218 -0.0003896850000000016 0.0003048 0.000493037434041016
219 0.002608920041934123 0.0003048 0.0004994643488902027
220 -0.001389625000000002 0.0003048 0.0004930374340410158
221 0.003610074999999996 0.0003048 0.0004772270365812455
222 -0.002390779958065879 0.0003048 0.0004994643488902003
223 0.0001104874930109778 0.0003048 0.0004987502971552026
224 0.004110044999999994 0.0003048 0.0005670132788698936
225 -0.001889797493010982 0.0003048 0.0004987502971552026
226 -0.003889527710592199 0.0003048 0.0004826617782417808
227 -0.0008896550000000022 0.0003048 0.0004976791446803386
228 0.003109960362135011 0.0003048 0.0005118460671131176
229 0.002107937576879227 0.0003048 0.0004872034195678857
230 -0.002891836217949849 0.0003048 0.0004872359542562817
231 0.001112452423120767 0.0003048 0.0004872034195678814
232 0.004531289240633549 0.0003048 0.0003668407493897876
233 -0.004810689240633553 0.0003048 0.0003668407493897882
234 -0.004849501083988164 0.0003048 0.0007110028421598996
235 0.004570101083988158 0.0003048 0.0007110028421598994
236 0.00486 0.0001524 0.0007499999999999991
237 0.00486 0.0001524 0.0002499999999999991
238 0.004615632499999999 0.0001524 0
239 0.004135151785714285 0.0001441848914510695 0
240 4.146749999999947e-05 0.0001848999999999999 0
241 -0.004895047499999999 0.0001524 0
242 -0.004414618826530611 0.000144165127510849 0
243 -0.0003210175000000004 0.0001848999999999999 0
244 0.004615632499999999 0.0001524 0.001
245 0.004135151785714285 0.0001441848914510695 0.001
246 4.146749999999947e-05 0.0001849 0.001
247 -0.004895047499999999 0.0001524 0.001
248 -0.004414618826530611 0.000144165127510849 0.001
249 -0.0003210175000000003 0.0001849 0.001
250 0.002108950041934131 -0.000301 0.0004994643488902007
251 0.001109605123435788 -0.000301 0.0005238466211224088
252 0.003111319958065877 -0.000301 0.0004994643488902006
253 0.004110045000000001 -0.000301 0.000567013278869895
254 -0.004389444999999995 -0.000301 0.0005670132788698941
255 0.0001102850000000094 -0.000301 0.000506962565958984
256 -0.0008896549999999927 -0.000301 0.0005069625659589843
257 -0.001889594999999994 -0.000301 0.0005227729634187548
258 -0.00288891512343578 -0.000301 0.0005224996720362034
259 -0.002389491205170923 -0.000301 0.0004862429483532397
260 0.002610135000000004 -0.000301 0.0004998214496300668
261 0.0006101812051709362 -0.000301 0.0004890468581907928
262 -0.0003896849999999912 -0.000301 0.0005023208553196613
263 -0.001389624999999995 -0.000301 0.0004889190417975013
264 -0.003888607172810088 -0.000301 0.0004823564696794294
265 0.003613748801770622 -0.000301 0.0004790142974095637
266 0.001607893782050163 -0.000301 0.0004872359542562818
267 -0.003389257049374308 -0.000301 0.0005008093569526056
268 -0.004810689240633548 -0.000301 0.0003668407493897868
269 0.004531289240633552 -0.000301 0.000366840749389788
270 -0.004849501083988156 -0.000301 0.0007110028421598956
271 0.004570101083988164 -0.000301 0.0007110028421598994
272 0.00486 -0.0001505 0.0007499999999999991
273 0.00486 -0.0001505 0.0002499999999999991
274 -0.005139400000000001 -0.0001505 0.0007499999999999991
275 -0.005139400000000001 -0.0001505 0.0002499999999999991
276 0.0046156325 -0.0001505 0
277 -0.0048950475 -0.0001505 0
278 0.004135151785714285 -0.0001421811791172309 0
279 -0.004414618826530611 -0.0001421611656654693 0
280 0.0046156325 -0.0001505 0.001
281 -0.004895047499999998 -0.0001505 0.001
282 0.004135151785714285 -0.0001421811791172309 0.001
283 -0.004414618826530611 -0.0001421611656654693 0.001
284 -0.0001397 -3.175e-05 0.0007499999999999991
285 -0.0001397 -3.175e-05 0.0002499999999999991
$EndNodes
$Elements
826
1 4 2 1 1 32 31 62 35
2 4 2 1 1 26 25 29 62
3 4 2 1 1 33 32 73 35
4 4 2 1 1 27 26 29 73
5 4 2 1 1 35 73 33 36
6 4 2 1 1 30 29 73 27
7 4 2 1 1 35 34 31 62
8 4 2 1 1 29 28 62 25
9 4 2 1 1 31 32 62 5
10 4 2 1 1 26 25 62 4
11 4 2 1 1 32 33 73 11
12 4 2 1 1 26 10 73 27
13 4 2 1 1 73 32 62 35
14 4 2 1 1 73 62 26 29
15 4 2 1 1 73 29 243 23
16 4 2 1 1 62 29 23 240
17 4 2 1 1 73 35 24 249
18 4 2 1 1 62 35 246 24
19 4 2 1 1 104 223 23 240
20 4 2 1 1 121 218 24 249
21 4 2 1 1 122 246 24 223
22 4 2 1 1 103 243 23 218
23 4 2 1 1 73 36 35 249
24 4 2 1 1 29 30 73 243
25 4 2 1 1 35 34 62 246
26 4 2 1 1 28 29 62 240
27 4 2 1 1 73 62 29 23
28 4 2 1 1 62 73 35 24
29 4 2 1 1 83 16 203 212
30 4 2 1 1 63 64 245 177
31 4 2 1 1 8 72 183 236
32 4 2 1 1 21 237 94 232
33 4 2 1 1 93 19 233 213
34 4 2 1 1 224 111 112 239
35 4 2 1 1 242 96 95 214
36 4 2 1 1 15 83 204 213
37 4 2 1 1 16 92 203 247
38 4 2 1 1 72 1 184 237
39 4 2 1 1 36 249 73 201
40 4 2 1 1 92 91 196 248
41 4 2 1 1 8 63 244 183
42 4 2 1 1 236 235 22 94
43 4 2 1 1 212 93 20 234
44 4 2 1 1 113 248 92 196
45 4 2 1 1 22 244 130 235
46 4 2 1 1 20 234 113 247
47 4 2 1 1 112 21 232 238
48 4 2 1 1 19 241 95 233
49 4 2 1 1 96 242 210 214
50 4 2 1 1 71 190 181 215
51 4 2 1 1 95 210 242 214
52 4 2 1 1 81 82 210 242
53 4 2 1 1 73 32 12 62
54 4 2 1 1 73 62 9 26
55 4 2 1 1 21 237 232 238
56 4 2 1 1 19 241 233 213
57 4 2 1 1 82 15 204 241
58 4 2 1 1 249 121 218 201
59 4 2 1 1 190 71 123 215
60 4 2 1 1 245 63 177 130
61 4 2 1 1 62 23 223 240
62 4 2 1 1 249 218 73 201
63 4 2 1 1 224 111 239 186
64 4 2 1 1 62 24 246 223
65 4 2 1 1 73 24 218 249
66 4 2 1 1 73 23 243 218
67 4 2 1 1 214 114 113 248
68 4 2 1 1 53 1 238 184
69 4 2 1 1 239 112 224 186
70 4 2 1 1 54 53 239 186
71 4 2 1 1 129 130 245 224
72 4 2 1 1 31 7 62 34
73 4 2 1 1 25 2 28 62
74 4 2 1 1 33 73 17 36
75 4 2 1 1 73 14 30 27
76 4 2 1 1 16 212 247 203
77 4 2 1 1 195 201 227 84
78 4 2 1 1 32 62 5 12
79 4 2 1 1 62 9 26 4
80 4 2 1 1 73 32 11 12
81 4 2 1 1 26 10 9 73
82 4 2 1 1 240 104 223 182
83 4 2 1 1 201 121 227 84
84 4 2 1 1 117 88 200 193
85 4 2 1 1 245 177 64 129
86 4 2 1 1 121 227 218 201
87 4 2 1 1 193 222 117 87
88 4 2 1 1 186 221 111 173
89 4 2 1 1 224 221 186 173
90 4 2 1 1 62 6 7 31
91 4 2 1 1 25 2 62 3
92 4 2 1 1 197 77 206 222
93 4 2 1 1 18 73 17 33
94 4 2 1 1 27 73 14 13
95 4 2 1 1 179 174 66 127
96 4 2 1 1 62 218 23 73
97 4 2 1 1 223 34 246 62
98 4 2 1 1 231 190 123 215
99 4 2 1 1 62 5 6 31
100 4 2 1 1 62 4 25 3
101 4 2 1 1 222 118 117 87
102 4 2 1 1 11 73 18 33
103 4 2 1 1 27 73 13 10
104 4 2 1 1 76 101 100 225
105 4 2 1 1 100 197 76 225
106 4 2 1 1 248 113 214 196
107 4 2 1 1 104 215 182 61
108 4 2 1 1 122 71 181 215
109 4 2 1 1 176 68 191 125
110 4 2 1 1 196 92 113 203
111 4 2 1 1 200 230 117 193
112 4 2 1 1 8 183 244 236
113 4 2 1 1 120 119 220 85
114 4 2 1 1 243 30 73 218
115 4 2 1 1 215 223 104 182
116 4 2 1 1 215 104 105 61
117 4 2 1 1 87 193 222 209
118 4 2 1 1 77 197 100 222
119 4 2 1 1 195 227 120 84
120 4 2 1 1 103 102 74 227
121 4 2 1 1 195 120 220 85
122 4 2 1 1 62 218 223 23
123 4 2 1 1 121 120 227 84
124 4 2 1 1 103 74 202 227
125 4 2 1 1 123 71 122 215
126 4 2 1 1 204 210 233 196
127 4 2 1 1 117 116 230 200
128 4 2 1 1 179 174 127 228
129 4 2 1 1 116 117 88 200
130 4 2 1 1 106 107 216 192
131 4 2 1 1 199 220 119 85
132 4 2 1 1 191 125 126 229
133 4 2 1 1 230 98 205 217
134 4 2 1 1 232 183 177 184
135 4 2 1 1 229 126 191 219
136 4 2 1 1 222 118 87 209
137 4 2 1 1 181 122 215 223
138 4 2 1 1 223 181 34 62
139 4 2 1 1 219 108 57 178
140 4 2 1 1 224 221 111 186
141 4 2 1 1 189 190 70 123
142 4 2 1 1 128 185 179 221
143 4 2 1 1 219 57 187 178
144 4 2 1 1 220 199 195 85
145 4 2 1 1 97 80 194 226
146 4 2 1 1 218 103 202 227
147 4 2 1 1 76 207 101 225
148 4 2 1 1 91 214 198 196
149 4 2 1 1 58 178 229 192
150 4 2 1 1 130 177 245 224
151 4 2 1 1 177 232 184 186
152 4 2 1 1 102 211 74 227
153 4 2 1 1 207 76 197 225
154 4 2 1 1 230 222 117 193
155 4 2 1 1 91 226 114 208
156 4 2 1 1 109 110 228 188
157 4 2 1 1 119 118 225 209
158 4 2 1 1 125 191 176 229
159 4 2 1 1 222 225 118 209
160 4 2 1 1 105 106 231 60
161 4 2 1 1 185 128 129 221
162 4 2 1 1 228 174 127 219
163 4 2 1 1 177 185 64 129
164 4 2 1 1 215 175 182 61
165 4 2 1 1 175 215 105 61
166 4 2 1 1 15 204 241 213
167 4 2 1 1 123 189 190 231
168 4 2 1 1 233 241 204 213
169 4 2 1 1 107 229 216 192
170 4 2 1 1 111 110 55 173
171 4 2 1 1 106 180 59 192
172 4 2 1 1 229 107 58 192
173 4 2 1 1 128 179 66 127
174 4 2 1 1 207 101 225 220
175 4 2 1 1 98 194 205 217
176 4 2 1 1 222 197 100 225
177 4 2 1 1 28 104 240 182
178 4 2 1 1 233 210 95 214
179 4 2 1 1 108 109 219 187
180 4 2 1 1 230 206 99 222
181 4 2 1 1 80 198 194 226
182 4 2 1 1 57 108 219 187
183 4 2 1 1 115 114 226 208
184 4 2 1 1 116 217 230 200
185 4 2 1 1 111 54 186 173
186 4 2 1 1 114 115 90 208
187 4 2 1 1 198 226 91 208
188 4 2 1 1 211 202 74 227
189 4 2 1 1 125 69 124 216
190 4 2 1 1 70 189 123 124
191 4 2 1 1 181 7 34 62
192 4 2 1 1 110 221 228 188
193 4 2 1 1 91 248 214 196
194 4 2 1 1 118 119 86 209
195 4 2 1 1 96 210 198 214
196 4 2 1 1 220 227 120 195
197 4 2 1 1 228 128 179 221
198 4 2 1 1 228 219 109 187
199 4 2 1 1 233 204 196 203
200 4 2 1 1 1 237 238 184
201 4 2 1 1 117 88 193 87
202 4 2 1 1 124 189 123 231
203 4 2 1 1 107 106 59 192
204 4 2 1 1 109 108 57 187
205 4 2 1 1 176 69 125 216
206 4 2 1 1 96 80 97 226
207 4 2 1 1 129 245 177 224
208 4 2 1 1 176 189 69 216
209 4 2 1 1 105 231 175 60
210 4 2 1 1 237 232 238 184
211 4 2 1 1 174 126 127 219
212 4 2 1 1 211 75 207 220
213 4 2 1 1 121 249 36 201
214 4 2 1 1 98 79 194 97
215 4 2 1 1 127 128 179 228
216 4 2 1 1 76 77 197 100
217 4 2 1 1 108 219 229 178
218 4 2 1 1 180 231 106 60
219 4 2 1 1 124 69 189 216
220 4 2 1 1 180 106 216 192
221 4 2 1 1 185 179 65 128
222 4 2 1 1 125 68 191 126
223 4 2 1 1 112 232 224 186
224 4 2 1 1 225 220 119 199
225 4 2 1 1 212 234 247 203
226 4 2 1 1 55 54 111 173
227 4 2 1 1 175 231 180 60
228 4 2 1 1 126 174 191 219
229 4 2 1 1 226 194 97 217
230 4 2 1 1 205 99 98 230
231 4 2 1 1 110 111 221 173
232 4 2 1 1 30 202 73 218
233 4 2 1 1 75 211 102 220
234 4 2 1 1 194 98 97 217
235 4 2 1 1 89 115 217 208
236 4 2 1 1 211 102 220 227
237 4 2 1 1 198 80 96 226
238 4 2 1 1 188 228 109 187
239 4 2 1 1 79 194 205 98
240 4 2 1 1 179 174 228 187
241 4 2 1 1 231 215 105 175
242 4 2 1 1 99 205 206 230
243 4 2 1 1 90 91 114 208
244 4 2 1 1 176 69 68 125
245 4 2 1 1 235 244 183 236
246 4 2 1 1 89 194 217 200
247 4 2 1 1 216 125 176 229
248 4 2 1 1 173 179 221 188
249 4 2 1 1 217 116 89 200
250 4 2 1 1 216 231 106 180
251 4 2 1 1 235 177 130 224
252 4 2 1 1 189 124 216 231
253 4 2 1 1 177 185 224 173
254 4 2 1 1 67 174 126 127
255 4 2 1 1 214 233 210 196
256 4 2 1 1 227 202 218 201
257 4 2 1 1 224 185 129 221
258 4 2 1 1 232 177 224 186
259 4 2 1 1 183 235 236 94
260 4 2 1 1 61 105 175 60
261 4 2 1 1 115 217 116 89
262 4 2 1 1 244 183 63 235
263 4 2 1 1 115 89 90 208
264 4 2 1 1 73 17 36 201
265 4 2 1 1 214 114 248 91
266 4 2 1 1 198 80 81 96
267 4 2 1 1 186 177 224 173
268 4 2 1 1 210 81 242 96
269 4 2 1 1 226 96 198 214
270 4 2 1 1 219 228 174 187
271 4 2 1 1 217 194 89 208
272 4 2 1 1 99 78 205 98
273 4 2 1 1 94 236 183 72
274 4 2 1 1 179 228 221 188
275 4 2 1 1 226 217 115 208
276 4 2 1 1 177 185 129 224
277 4 2 1 1 14 73 30 202
278 4 2 1 1 62 2 28 182
279 4 2 1 1 226 198 194 208
280 4 2 1 1 80 194 79 97
281 4 2 1 1 81 210 198 96
282 4 2 1 1 191 229 219 178
283 4 2 1 1 71 7 34 181
284 4 2 1 1 221 185 179 173
285 4 2 1 1 193 197 222 209
286 4 2 1 1 219 174 191 178
287 4 2 1 1 196 214 233 203
288 4 2 1 1 230 205 206 193
289 4 2 1 1 221 224 185 173
290 4 2 1 1 215 231 190 175
291 4 2 1 1 222 230 206 193
292 4 2 1 1 199 211 220 195
293 4 2 1 1 109 56 188 187
294 4 2 1 1 22 244 235 236
295 4 2 1 1 20 212 234 247
296 4 2 1 1 233 204 83 213
297 4 2 1 1 234 233 214 203
298 4 2 1 1 17 36 201 84
299 4 2 1 1 130 244 63 235
300 4 2 1 1 199 119 86 85
301 4 2 1 1 66 65 179 128
302 4 2 1 1 67 174 191 126
303 4 2 1 1 174 219 187 178
304 4 2 1 1 223 215 181 182
305 4 2 1 1 178 108 57 58
306 4 2 1 1 225 197 207 199
307 4 2 1 1 225 222 197 209
308 4 2 1 1 34 71 181 122
309 4 2 1 1 237 94 232 72
310 4 2 1 1 93 233 83 213
311 4 2 1 1 205 230 200 193
312 4 2 1 1 78 205 206 99
313 4 2 1 1 206 197 222 193
314 4 2 1 1 184 237 232 72
315 4 2 1 1 54 239 111 186
316 4 2 1 1 110 109 56 188
317 4 2 1 1 85 195 120 84
318 4 2 1 1 178 176 229 192
319 4 2 1 1 204 210 95 233
320 4 2 1 1 74 14 30 202
321 4 2 1 1 201 36 121 84
322 4 2 1 1 176 216 229 192
323 4 2 1 1 182 2 28 61
324 4 2 1 1 225 197 199 209
325 4 2 1 1 207 211 220 199
326 4 2 1 1 201 227 202 195
327 4 2 1 1 174 67 66 127
328 4 2 1 1 188 179 228 187
329 4 2 1 1 184 232 112 186
330 4 2 1 1 220 225 207 199
331 4 2 1 1 204 210 82 95
332 4 2 1 1 232 94 183 72
333 4 2 1 1 183 235 94 232
334 4 2 1 1 202 30 74 103
335 4 2 1 1 229 191 176 178
336 4 2 1 1 64 185 65 129
337 4 2 1 1 189 231 180 175
338 4 2 1 1 28 104 182 61
339 4 2 1 1 112 239 53 186
340 4 2 1 1 216 176 189 180
341 4 2 1 1 88 89 116 200
342 4 2 1 1 184 112 53 186
343 4 2 1 1 190 71 70 123
344 4 2 1 1 67 191 68 126
345 4 2 1 1 214 210 198 196
346 4 2 1 1 231 189 190 175
347 4 2 1 1 234 93 233 203
348 4 2 1 1 128 65 185 129
349 4 2 1 1 83 233 93 203
350 4 2 1 1 79 205 78 98
351 4 2 1 1 62 223 181 182
352 4 2 1 1 60 106 180 59
353 4 2 1 1 95 241 204 233
354 4 2 1 1 184 232 183 72
355 4 2 1 1 241 204 82 95
356 4 2 1 1 83 204 233 203
357 4 2 1 1 189 70 69 124
358 4 2 1 1 227 220 211 195
359 4 2 1 1 202 73 218 201
360 4 2 1 1 206 77 78 99
361 4 2 1 1 58 107 59 192
362 4 2 1 1 238 232 112 184
363 4 2 1 1 57 56 109 187
364 4 2 1 1 242 82 210 95
365 4 2 1 1 53 238 112 184
366 4 2 1 1 56 55 110 188
367 4 2 1 1 217 226 194 208
368 4 2 1 1 86 87 118 209
369 4 2 1 1 75 76 207 101
370 4 2 1 1 175 181 215 182
371 4 2 1 1 227 211 202 195
372 4 2 1 1 231 216 189 180
373 4 2 1 1 215 190 181 175
374 4 2 1 1 74 75 211 102
375 4 2 1 1 237 21 1 238
376 4 2 1 1 244 22 8 236
377 4 2 1 1 241 19 15 213
378 4 2 1 1 212 20 16 247
379 4 2 1 1 216 176 180 192
380 4 2 1 1 223 34 122 246
381 4 2 1 1 223 122 34 181
382 4 2 1 1 182 240 62 223
383 4 2 1 1 182 62 240 28
384 4 2 1 1 30 218 103 202
385 4 2 1 1 103 218 30 243
386 4 2 1 1 222 77 99 100
387 4 2 1 1 222 99 77 206
388 4 2 1 1 220 75 101 102
389 4 2 1 1 220 101 75 207
390 4 2 1 1 119 209 199 86
391 4 2 1 1 199 209 119 225
392 4 2 1 1 58 229 108 107
393 4 2 1 1 58 108 229 178
394 4 2 1 1 226 91 214 198
395 4 2 1 1 214 91 226 114
396 4 2 1 1 110 173 188 55
397 4 2 1 1 188 173 110 221
398 4 2 1 1 203 214 113 196
399 4 2 1 1 203 113 214 234
400 4 2 1 1 63 235 177 130
401 4 2 1 1 177 235 63 183
402 4 2 1 1 235 177 232 183
403 4 2 1 1 235 232 177 224
404 4 2 1 1 205 217 200 230
405 4 2 1 1 200 217 205 194
406 4 2 1 1 113 203 247 234
407 4 2 1 1 247 203 113 92
408 4 2 1 1 203 93 212 234
409 4 2 1 1 203 212 93 83
410 4 2 1 1 62 218 24 223
411 4 2 1 1 62 24 218 73
412 4 2 2 2 48 47 284 49
413 4 2 2 2 41 42 285 43
414 4 2 2 2 46 43 45 285
415 4 2 2 2 284 52 49 51
416 4 2 2 2 50 172 284 48
417 4 2 2 2 285 44 42 172
418 4 2 2 2 49 171 47 284
419 4 2 2 2 43 171 285 41
420 4 2 2 2 16 83 203 274
421 4 2 2 2 63 64 177 282
422 4 2 2 2 72 8 183 272
423 4 2 2 2 132 268 39 275
424 4 2 2 2 269 273 131 37
425 4 2 2 2 278 253 134 133
426 4 2 2 2 279 151 150 254
427 4 2 2 2 83 15 204 275
428 4 2 2 2 92 16 203 281
429 4 2 2 2 1 72 184 273
430 4 2 2 2 91 92 196 283
431 4 2 2 2 132 40 270 274
432 4 2 2 2 271 131 272 38
433 4 2 2 2 8 63 183 280
434 4 2 2 2 255 142 262 285
435 4 2 2 2 271 152 38 280
436 4 2 2 2 170 40 281 270
437 4 2 2 2 262 161 255 284
438 4 2 2 2 181 190 71 261
439 4 2 2 2 92 283 170 196
440 4 2 2 2 37 269 276 133
441 4 2 2 2 151 39 268 277
442 4 2 2 2 82 81 210 279
443 4 2 2 2 150 210 279 254
444 4 2 2 2 279 210 151 254
445 4 2 2 2 15 82 204 277
446 4 2 2 2 269 276 273 37
447 4 2 2 2 275 268 39 277
448 4 2 2 2 41 171 285 255
449 4 2 2 2 186 278 253 134
450 4 2 2 2 262 42 172 285
451 4 2 2 2 282 152 177 63
452 4 2 2 2 54 53 186 278
453 4 2 2 2 48 172 284 262
454 4 2 2 2 53 1 184 276
455 4 2 2 2 283 169 170 254
456 4 2 2 2 153 152 253 282
457 4 2 2 2 285 255 142 41
458 4 2 2 2 186 253 278 133
459 4 2 2 2 171 255 47 284
460 4 2 2 2 262 142 42 285
461 4 2 2 2 203 281 16 274
462 4 2 2 2 48 161 262 284
463 4 2 2 2 166 259 193 87
464 4 2 2 2 255 161 47 284
465 4 2 2 2 177 153 282 64
466 4 2 2 2 162 201 256 84
467 4 2 2 2 262 201 256 162
468 4 2 2 2 197 146 76 257
469 4 2 2 2 265 173 186 134
470 4 2 2 2 201 195 256 84
471 4 2 2 2 179 174 155 66
472 4 2 2 2 71 160 181 261
473 4 2 2 2 172 255 285 171
474 4 2 2 2 166 165 259 87
475 4 2 2 2 173 186 253 265
476 4 2 2 2 87 259 193 209
477 4 2 2 2 69 157 158 266
478 4 2 2 2 146 145 76 257
479 4 2 2 2 183 272 8 280
480 4 2 2 2 192 58 178 250
481 4 2 2 2 254 170 283 196
482 4 2 2 2 251 60 139 140
483 4 2 2 2 191 157 68 176
484 4 2 2 2 196 170 92 203
485 4 2 2 2 164 163 263 85
486 4 2 2 2 157 69 176 266
487 4 2 2 2 202 74 143 256
488 4 2 2 2 174 179 155 252
489 4 2 2 2 74 144 143 256
490 4 2 2 2 197 76 207 257
491 4 2 2 2 58 192 138 250
492 4 2 2 2 172 255 171 284
493 4 2 2 2 163 195 263 85
494 4 2 2 2 200 88 167 166
495 4 2 2 2 206 259 77 197
496 4 2 2 2 60 180 251 139
497 4 2 2 2 250 191 156 260
498 4 2 2 2 41 255 142 141
499 4 2 2 2 256 143 202 262
500 4 2 2 2 76 145 207 257
501 4 2 2 2 159 190 251 261
502 4 2 2 2 162 262 201 48
503 4 2 2 2 162 161 262 48
504 4 2 2 2 87 165 259 209
505 4 2 2 2 210 204 268 196
506 4 2 2 2 263 199 164 85
507 4 2 2 2 141 182 255 261
508 4 2 2 2 149 264 194 80
509 4 2 2 2 189 69 158 266
510 4 2 2 2 143 142 42 262
511 4 2 2 2 205 148 258 267
512 4 2 2 2 260 174 155 252
513 4 2 2 2 144 74 211 256
514 4 2 2 2 184 183 177 269
515 4 2 2 2 191 156 157 250
516 4 2 2 2 137 57 178 260
517 4 2 2 2 69 189 176 266
518 4 2 2 2 163 162 256 84
519 4 2 2 2 195 199 263 85
520 4 2 2 2 57 187 178 260
521 4 2 2 2 185 154 179 265
522 4 2 2 2 159 190 70 189
523 4 2 2 2 265 186 253 134
524 4 2 2 2 141 61 182 261
525 4 2 2 2 254 91 198 196
526 4 2 2 2 181 160 255 261
527 4 2 2 2 188 252 136 135
528 4 2 2 2 161 47 160 255
529 4 2 2 2 192 138 250 266
530 4 2 2 2 177 253 152 282
531 4 2 2 2 256 195 163 84
532 4 2 2 2 205 148 147 258
533 4 2 2 2 186 184 177 269
534 4 2 2 2 255 172 285 262
535 4 2 2 2 74 202 211 256
536 4 2 2 2 153 154 185 265
537 4 2 2 2 167 258 267 200
538 4 2 2 2 204 275 15 277
539 4 2 2 2 60 251 175 140
540 4 2 2 2 135 55 173 134
541 4 2 2 2 41 182 255 141
542 4 2 2 2 153 177 185 64
543 4 2 2 2 176 191 157 250
544 4 2 2 2 260 137 187 136
545 4 2 2 2 268 275 204 277
546 4 2 2 2 141 140 61 261
547 4 2 2 2 77 259 146 197
548 4 2 2 2 198 264 169 254
549 4 2 2 2 267 168 89 208
550 4 2 2 2 265 252 188 135
551 4 2 2 2 210 268 151 254
552 4 2 2 2 252 179 154 265
553 4 2 2 2 175 180 251 60
554 4 2 2 2 255 172 262 284
555 4 2 2 2 155 154 179 66
556 4 2 2 2 180 59 192 266
557 4 2 2 2 181 47 7 62
558 4 2 2 2 267 89 167 200
559 4 2 2 2 167 258 200 166
560 4 2 2 2 47 160 255 181
561 4 2 2 2 155 179 154 252
562 4 2 2 2 250 137 178 260
563 4 2 2 2 187 57 137 260
564 4 2 2 2 169 168 264 208
565 4 2 2 2 198 194 264 80
566 4 2 2 2 264 149 150 80
567 4 2 2 2 70 158 159 189
568 4 2 2 2 202 143 42 262
569 4 2 2 2 206 147 259 258
570 4 2 2 2 252 260 187 136
571 4 2 2 2 41 171 255 182
572 4 2 2 2 207 145 263 257
573 4 2 2 2 194 148 149 79
574 4 2 2 2 168 89 167 267
575 4 2 2 2 54 186 173 134
576 4 2 2 2 90 168 169 208
577 4 2 2 2 194 264 149 267
578 4 2 2 2 267 258 205 200
579 4 2 2 2 184 276 1 273
580 4 2 2 2 156 174 155 260
581 4 2 2 2 57 187 137 136
582 4 2 2 2 150 198 210 254
583 4 2 2 2 254 283 91 196
584 4 2 2 2 148 205 194 267
585 4 2 2 2 147 206 205 258
586 4 2 2 2 193 88 166 87
587 4 2 2 2 196 204 268 203
588 4 2 2 2 169 91 198 254
589 4 2 2 2 193 258 259 166
590 4 2 2 2 250 157 176 266
591 4 2 2 2 157 68 156 191
592 4 2 2 2 253 177 153 282
593 4 2 2 2 273 184 276 269
594 4 2 2 2 194 89 267 200
595 4 2 2 2 174 156 191 260
596 4 2 2 2 165 257 259 209
597 4 2 2 2 256 195 263 163
598 4 2 2 2 173 265 135 134
599 4 2 2 2 164 165 86 209
600 4 2 2 2 175 182 61 261
601 4 2 2 2 253 186 269 133
602 4 2 2 2 197 259 146 257
603 4 2 2 2 65 154 179 185
604 4 2 2 2 203 270 281 274
605 4 2 2 2 194 149 148 267
606 4 2 2 2 55 54 173 134
607 4 2 2 2 267 205 194 200
608 4 2 2 2 140 175 61 261
609 4 2 2 2 179 174 187 252
610 4 2 2 2 75 207 263 211
611 4 2 2 2 146 76 77 197
612 4 2 2 2 198 264 150 80
613 4 2 2 2 263 144 211 256
614 4 2 2 2 194 205 148 79
615 4 2 2 2 252 187 188 136
616 4 2 2 2 165 164 257 209
617 4 2 2 2 140 251 175 261
618 4 2 2 2 190 159 251 189
619 4 2 2 2 272 183 271 280
620 4 2 2 2 267 264 168 208
621 4 2 2 2 188 173 179 265
622 4 2 2 2 89 194 267 208
623 4 2 2 2 91 90 169 208
624 4 2 2 2 158 251 189 266
625 4 2 2 2 157 69 68 176
626 4 2 2 2 139 180 251 266
627 4 2 2 2 155 174 156 67
628 4 2 2 2 263 144 75 211
629 4 2 2 2 177 253 271 152
630 4 2 2 2 263 199 257 164
631 4 2 2 2 177 253 185 173
632 4 2 2 2 254 210 268 196
633 4 2 2 2 50 73 17 18
634 4 2 2 2 73 44 14 13
635 4 2 2 2 52 172 50 11
636 4 2 2 2 172 44 10 46
637 4 2 2 2 256 202 201 262
638 4 2 2 2 62 47 49 171
639 4 2 2 2 260 187 174 252
640 4 2 2 2 185 253 153 265
641 4 2 2 2 47 62 49 7
642 4 2 2 2 177 253 186 269
643 4 2 2 2 251 159 158 189
644 4 2 2 2 168 90 89 208
645 4 2 2 2 59 180 139 266
646 4 2 2 2 131 272 183 271
647 4 2 2 2 252 188 179 265
648 4 2 2 2 280 183 271 63
649 4 2 2 2 80 150 198 81
650 4 2 2 2 169 283 91 254
651 4 2 2 2 198 150 264 254
652 4 2 2 2 79 149 194 80
653 4 2 2 2 253 177 186 173
654 4 2 2 2 50 73 11 172
655 4 2 2 2 73 44 10 172
656 4 2 2 2 73 50 11 18
657 4 2 2 2 44 73 10 13
658 4 2 2 2 177 253 153 185
659 4 2 2 2 279 210 150 81
660 4 2 2 2 175 61 60 140
661 4 2 2 2 7 71 47 181
662 4 2 2 2 258 206 205 193
663 4 2 2 2 250 178 191 260
664 4 2 2 2 131 183 272 72
665 4 2 2 2 264 194 198 208
666 4 2 2 2 173 185 179 265
667 4 2 2 2 210 198 150 81
668 4 2 2 2 56 188 187 136
669 4 2 2 2 205 147 148 78
670 4 2 2 2 178 174 191 260
671 4 2 2 2 17 201 48 84
672 4 2 2 2 196 268 254 203
673 4 2 2 2 258 259 206 193
674 4 2 2 2 259 197 193 209
675 4 2 2 2 272 271 38 280
676 4 2 2 2 270 40 281 274
677 4 2 2 2 263 211 199 195
678 4 2 2 2 253 185 173 265
679 4 2 2 2 62 49 7 6
680 4 2 2 2 43 62 2 3
681 4 2 2 2 174 191 156 67
682 4 2 2 2 268 270 254 203
683 4 2 2 2 275 83 268 204
684 4 2 2 2 178 187 174 260
685 4 2 2 2 65 179 154 66
686 4 2 2 2 86 164 199 85
687 4 2 2 2 271 152 280 63
688 4 2 2 2 56 188 136 135
689 4 2 2 2 51 62 49 171
690 4 2 2 2 51 62 5 49
691 4 2 2 2 4 43 62 45
692 4 2 2 2 45 43 62 171
693 4 2 2 2 62 5 49 6
694 4 2 2 2 4 43 3 62
695 4 2 2 2 57 178 58 137
696 4 2 2 2 192 178 176 250
697 4 2 2 2 199 197 207 257
698 4 2 2 2 160 47 71 181
699 4 2 2 2 268 132 83 275
700 4 2 2 2 72 273 131 269
701 4 2 2 2 181 255 182 261
702 4 2 2 2 74 42 14 202
703 4 2 2 2 250 176 192 266
704 4 2 2 2 48 201 162 84
705 4 2 2 2 184 273 72 269
706 4 2 2 2 61 182 2 41
707 4 2 2 2 200 258 205 193
708 4 2 2 2 251 190 175 261
709 4 2 2 2 54 278 186 134
710 4 2 2 2 85 163 195 84
711 4 2 2 2 268 151 204 210
712 4 2 2 2 197 206 259 193
713 4 2 2 2 197 259 257 209
714 4 2 2 2 206 147 205 78
715 4 2 2 2 211 207 263 199
716 4 2 2 2 67 155 174 66
717 4 2 2 2 180 176 189 266
718 4 2 2 2 187 188 179 252
719 4 2 2 2 191 176 178 250
720 4 2 2 2 202 201 195 256
721 4 2 2 2 269 186 184 133
722 4 2 2 2 151 204 210 82
723 4 2 2 2 257 199 197 209
724 4 2 2 2 207 263 199 257
725 4 2 2 2 72 131 183 269
726 4 2 2 2 271 183 131 269
727 4 2 2 2 185 65 153 64
728 4 2 2 2 180 251 189 175
729 4 2 2 2 143 42 74 202
730 4 2 2 2 89 88 167 200
731 4 2 2 2 68 156 191 67
732 4 2 2 2 41 61 182 141
733 4 2 2 2 278 53 186 133
734 4 2 2 2 70 71 190 159
735 4 2 2 2 186 53 184 133
736 4 2 2 2 153 154 65 185
737 4 2 2 2 254 198 210 196
738 4 2 2 2 78 148 205 79
739 4 2 2 2 270 268 132 203
740 4 2 2 2 180 60 59 139
741 4 2 2 2 83 132 268 203
742 4 2 2 2 48 47 161 284
743 4 2 2 2 59 58 192 138
744 4 2 2 2 204 151 268 277
745 4 2 2 2 183 184 72 269
746 4 2 2 2 42 41 285 142
747 4 2 2 2 158 70 69 189
748 4 2 2 2 204 151 277 82
749 4 2 2 2 204 83 268 203
750 4 2 2 2 187 57 56 136
751 4 2 2 2 195 263 211 256
752 4 2 2 2 267 194 264 208
753 4 2 2 2 188 56 55 135
754 4 2 2 2 269 184 276 133
755 4 2 2 2 189 251 190 175
756 4 2 2 2 184 53 276 133
757 4 2 2 2 279 151 210 82
758 4 2 2 2 147 206 77 78
759 4 2 2 2 165 87 86 209
760 4 2 2 2 195 211 202 256
761 4 2 2 2 180 189 251 266
762 4 2 2 2 182 175 181 261
763 4 2 2 2 76 207 145 75
764 4 2 2 2 175 190 181 261
765 4 2 2 2 75 144 74 211
766 4 2 2 2 273 276 1 37
767 4 2 2 2 38 8 272 280
768 4 2 2 2 40 16 281 274
769 4 2 2 2 275 39 15 277
770 4 2 2 2 176 180 192 266
771 4 2 2 2 50 49 284 52
772 4 2 2 2 52 172 284 50
773 4 2 2 2 51 171 49 284
774 4 2 2 2 45 171 285 43
775 4 2 2 2 44 285 43 46
776 4 2 2 2 48 49 284 50
777 4 2 2 2 285 44 43 42
778 4 2 2 2 285 44 172 46
779 4 2 2 2 71 261 159 160
780 4 2 2 2 159 261 71 190
781 4 2 2 2 75 263 145 144
782 4 2 2 2 75 145 263 207
783 4 2 2 2 250 58 137 138
784 4 2 2 2 250 137 58 178
785 4 2 2 2 169 198 208 264
786 4 2 2 2 169 208 198 91
787 4 2 2 2 266 59 138 139
788 4 2 2 2 266 138 59 192
789 4 2 2 2 171 182 181 255
790 4 2 2 2 181 182 171 62
791 4 2 2 2 181 47 171 255
792 4 2 2 2 171 47 181 62
793 4 2 2 2 259 77 147 206
794 4 2 2 2 147 77 259 146
795 4 2 2 2 166 200 193 258
796 4 2 2 2 166 193 200 88
797 4 2 2 2 209 164 199 86
798 4 2 2 2 209 199 164 257
799 4 2 2 2 2 182 43 41
800 4 2 2 2 2 43 182 62
801 4 2 2 2 171 43 182 41
802 4 2 2 2 171 182 43 62
803 4 2 2 2 135 173 188 265
804 4 2 2 2 135 188 173 55
805 4 2 2 2 254 203 170 196
806 4 2 2 2 170 203 254 270
807 4 2 2 2 271 63 177 152
808 4 2 2 2 177 63 271 183
809 4 2 2 2 177 271 269 183
810 4 2 2 2 269 271 177 253
811 4 2 2 2 203 170 281 270
812 4 2 2 2 203 281 170 92
813 4 2 2 2 203 132 274 83
814 4 2 2 2 203 274 132 270
815 4 2 2 2 42 172 202 262
816 4 2 2 2 172 201 202 262
817 4 2 2 2 202 201 172 73
818 4 2 2 2 172 48 201 262
819 4 2 2 2 172 44 202 73
820 4 2 2 2 172 202 44 42
821 4 2 2 2 14 202 44 73
822 4 2 2 2 14 44 202 42
823 4 2 2 2 172 50 201 48
824 4 2 2 2 172 201 50 73
825 4 2 2 2 17 201 50 48
826 4 2 2 2 17 50 201 73
$EndElements
