$MeshFormat
2.2 0 8
$EndMeshFormat
$PhysicalNames
2
3 1 "er3p15_OPEM_RESERVED_1"
3 2 "er3p3_OPEM_RESERVED_2"
$EndPhysicalNames
$Nodes
503
1 0 0.0001 0
2 0.00049 0.0001 0
3 0.0005 0.0001 0
4 0.0005 0.0001 0.002
5 0 0.0001 0.002
6 0.00049 0.0001 0.002
7 0.0013 0.0001 0
8 0.0013 0.0002 0
9 0.00081 0.0001 0
10 0.00081 0.00013 0
11 0.00075 0.00013 0
12 0.00069 0.00013 0
13 0.00069 0.0001 0
14 0.00061 0.0001 0
15 0.00061 0.00013 0
16 0.00055 0.00013 0
17 0.00049 0.00013 0
18 0 0.0002 0
19 0.0008 0.0001 0
20 0.0007945401685505001 0.000115 0
21 0.0007054598314495001 0.000115 0
22 0.0007 0.0001 0
23 0.0005999999999999999 0.0001 0
24 0.0005945401685505 0.000115 0
25 0.0005054598314494999 0.000115 0
26 0.0005054598314494999 0.000115 0.002
27 0.0013 0.0001 0.002
28 0.0013 0.0002 0.002
29 0.00081 0.0001 0.002
30 0.00081 0.00013 0.002
31 0.00075 0.00013 0.002
32 0.00069 0.00013 0.002
33 0.00069 0.0001 0.002
34 0.00061 0.0001 0.002
35 0.00061 0.00013 0.002
36 0.00055 0.00013 0.002
37 0.00049 0.00013 0.002
38 0 0.0002 0.002
39 0.0008 0.0001 0.002
40 0.0007945401685505001 0.000115 0.002
41 0.0007054598314495001 0.000115 0.002
42 0.0007 0.0001 0.002
43 0.0005999999999999999 0.0001 0.002
44 0.0005945401685505 0.000115 0.002
45 0.0008 0.0001 0.0009500000000000001
46 0.0008 0.0001 0.00105
47 0.0007 0.0001 0.0009500000000000001
48 0.0007 0.0001 0.00105
49 0.000163333333333333 0.0001 0
50 0.0003266666666666662 0.0001 0
51 0.0005 0.0001 0.000222222222222222
52 0.0005 0.0001 0.0004444444444444438
53 0.0005 0.0001 0.0006666666666666662
54 0.0005 0.0001 0.0008888888888888887
55 0.0005 0.0001 0.001111111111111111
56 0.0005 0.0001 0.001333333333333334
57 0.0005 0.0001 0.001555555555555556
58 0.0005 0.0001 0.001777777777777779
59 0.000163333333333333 0.0001 0.002
60 0.0003266666666666662 0.0001 0.002
61 0 0.0001 0.000222222222222222
62 0 0.0001 0.0004444444444444438
63 0 0.0001 0.0006666666666666662
64 0 0.0001 0.0008888888888888887
65 0 0.0001 0.001111111111111111
66 0 0.0001 0.001333333333333334
67 0 0.0001 0.001555555555555556
68 0 0.0001 0.001777777777777779
69 0.0009733333333333329 0.0001 0
70 0.001136666666666666 0.0001 0
71 0.001083333333333333 0.0002 0
72 0.0008666666666666652 0.0002 0
73 0.0006499999999999988 0.0002 0
74 0.0004333333333333326 0.0002 0
75 0.0002166666666666662 0.0002 0
76 0.0005054598314494999 0.000115 0.000222222222222222
77 0.0005054598314494999 0.000115 0.0004444444444444438
78 0.0005054598314494999 0.000115 0.0006666666666666662
79 0.0005054598314494999 0.000115 0.0008888888888888887
80 0.0005054598314494999 0.000115 0.001111111111111111
81 0.0005054598314494999 0.000115 0.001333333333333334
82 0.0005054598314494999 0.000115 0.001555555555555556
83 0.0005054598314494999 0.000115 0.001777777777777779
84 0.0009733333333333329 0.0001 0.002
85 0.001136666666666666 0.0001 0.002
86 0.001083333333333333 0.0002 0.002
87 0.0008666666666666652 0.0002 0.002
88 0.0006499999999999988 0.0002 0.002
89 0.0004333333333333326 0.0002 0.002
90 0.0002166666666666662 0.0002 0.002
91 0 0.0002 0.000222222222222222
92 0 0.0002 0.0004444444444444438
93 0 0.0002 0.0006666666666666662
94 0 0.0002 0.0008888888888888887
95 0 0.0002 0.001111111111111111
96 0 0.0002 0.001333333333333334
97 0 0.0002 0.001555555555555556
98 0 0.0002 0.001777777777777779
99 0.0013 0.0002 0.000222222222222222
100 0.0013 0.0002 0.0004444444444444438
101 0.0013 0.0002 0.0006666666666666662
102 0.0013 0.0002 0.0008888888888888887
103 0.0013 0.0002 0.001111111111111111
104 0.0013 0.0002 0.001333333333333334
105 0.0013 0.0002 0.001555555555555556
106 0.0013 0.0002 0.001777777777777779
107 0.0013 0.0001 0.000222222222222222
108 0.0013 0.0001 0.0004444444444444438
109 0.0013 0.0001 0.0006666666666666662
110 0.0013 0.0001 0.0008888888888888887
111 0.0013 0.0001 0.001111111111111111
112 0.0013 0.0001 0.001333333333333334
113 0.0013 0.0001 0.001555555555555556
114 0.0013 0.0001 0.001777777777777779
115 0.0008 0.0001 0.0002374999999999998
116 0.0008 0.0001 0.0004749999999999999
117 0.0008 0.0001 0.0007125
118 0.0008 0.0001 0.0012875
119 0.0008 0.0001 0.001525
120 0.0008 0.0001 0.0017625
121 0.0007945401685505 0.000115 0.000222222222222222
122 0.0007945401685505 0.000115 0.0004444444444444438
123 0.0007945401685505 0.000115 0.0006666666666666662
124 0.0007945401685505 0.000115 0.0008888888888888887
125 0.0007945401685505 0.000115 0.001111111111111111
126 0.0007945401685505 0.000115 0.001333333333333334
127 0.0007945401685505 0.000115 0.001555555555555556
128 0.0007945401685505 0.000115 0.001777777777777779
129 0.0007054598314495 0.000115 0.000222222222222222
130 0.0007054598314495 0.000115 0.0004444444444444438
131 0.0007054598314495 0.000115 0.0006666666666666662
132 0.0007054598314495 0.000115 0.0008888888888888887
133 0.0007054598314495 0.000115 0.001111111111111111
134 0.0007054598314495 0.000115 0.001333333333333334
135 0.0007054598314495 0.000115 0.001555555555555556
136 0.0007054598314495 0.000115 0.001777777777777779
137 0.0007 0.0001 0.0002374999999999998
138 0.0007 0.0001 0.0004749999999999999
139 0.0007 0.0001 0.0007125
140 0.0007 0.0001 0.0012875
141 0.0007 0.0001 0.001525
142 0.0007 0.0001 0.0017625
143 0.0005999999999999999 0.0001 0.000222222222222222
144 0.0005999999999999999 0.0001 0.0004444444444444438
145 0.0005999999999999999 0.0001 0.0006666666666666662
146 0.0005999999999999999 0.0001 0.0008888888888888887
147 0.0005999999999999999 0.0001 0.001111111111111111
148 0.0005999999999999999 0.0001 0.001333333333333334
149 0.0005999999999999999 0.0001 0.001555555555555556
150 0.0005999999999999999 0.0001 0.001777777777777779
151 0.0005945401685505 0.000115 0.000222222222222222
152 0.0005945401685505 0.000115 0.0004444444444444438
153 0.0005945401685505 0.000115 0.0006666666666666662
154 0.0005945401685505 0.000115 0.0008888888888888887
155 0.0005945401685505 0.000115 0.001111111111111111
156 0.0005945401685505 0.000115 0.001333333333333334
157 0.0005945401685505 0.000115 0.001555555555555556
158 0.0005945401685505 0.000115 0.001777777777777779
159 0.0002519756175533893 0.0001 0.001853050540376078
160 0.0002383462625500297 0.0001 0.000148912303152539
161 0.0003342578567491475 0.0001 0.0005941939141215693
162 0.0001924500897298754 0.0001 0.001
163 0.0001656055341286865 0.0001 0.001405569471938062
164 0.0003177645265453027 0.0001 0.001216668654721311
165 0.0001711179910798371 0.0001 0.0007471804671684093
166 0.0003216602736013032 0.0001 0.0003435356978276079
167 0.000175436539036254 0.0001 0.001655993335092496
168 0.000408333333333333 0.0001 0.0001060881119635938
169 0.0004083333333333331 0.0001 0.001893911888036406
170 0.0003670069253135889 0.0001 0.001696788923547126
171 0.0001292295234765737 0.0001 0.0003042968890522464
172 0.0001593776074844769 0.0001 0.0005167196798801572
173 0.0003440203332529029 0.0001 0.0008161549894742555
174 0.0003708469899056162 0.0001 0.001006564728839113
175 0.0003458242944909965 0.0001 0.00146792570724459
176 0.0001347468609266786 0.0001 0.001215875287935466
177 0.0001061818238719873 0.0001 0.0001350862828854015
178 0.0001077255461794728 0.0001 0.001866371347289162
179 9.499999999999982e-05 0.00015 0
180 0.001205 0.00015 0
181 9.499999999999982e-05 0.00015 0.002
182 0.001205 0.00015 0.002
183 0 0.00015 0.000111111111111111
184 0 0.00015 0.001666666666666667
185 0 0.00015 0.0007777777777777774
186 0 0.00015 0.000555555555555555
187 0 0.00015 0.0009999999999999998
188 0 0.00015 0.001222222222222222
189 0 0.00015 0.001444444444444445
190 0 0.00015 0.001888888888888889
191 0 0.00015 0.0003333333333333328
192 0.001107601245663954 0.0002 0.0007776966120325654
193 0.0001924500897298755 0.0002 0.001222222222222222
194 0.0001986635298992327 0.0002 0.000581295300132415
195 0.001108284590840404 0.0002 0.001441734526910396
196 0.0007740070525225108 0.0002 0.0001970850319193568
197 0.0005421223611067977 0.0002 0.001785274254428193
198 0.0003280342270479095 0.0002 0.0001668569294310262
199 0.0009521197667243389 0.0002 0.001799063839230011
200 0.001117154955863099 0.0002 0.0003348264607189877
201 0.0001937361205280009 0.0002 0.001641759356909105
202 0.001109375395131893 0.0002 0.0005557908824956288
203 0.0009158335850929511 0.0002 0.0006666447160340587
204 0.0009153482279452361 0.0002 0.0008885248657288652
205 0.0007232930341881708 0.0002 0.000777497214651174
206 0.0007231322533978917 0.0002 0.0009993342708180745
207 0.0005311170708224215 0.0002 0.0008883907879287884
208 0.0007203004091373276 0.0002 0.000561419904564805
209 0.0009148922078923106 0.0002 0.001110394136540397
210 0.0007230145097167667 0.0002 0.001220886782546212
211 0.0009149762538280778 0.0002 0.001331661634082809
212 0.0007226868568570299 0.0002 0.001441859404299416
213 0.0005382475443101857 0.0002 0.001331299149564188
214 0.0005385357965183263 0.0002 0.001546791120427287
215 0.0003408832429972309 0.0002 0.001441399928478723
216 0.0007379085922667927 0.0002 0.001661953668948381
217 0.0009009011661244875 0.0002 0.0004094562721882722
218 0.0009250670012670131 0.0002 0.001555171682503141
219 0.001107592388478644 0.0002 0.001221329558619235
220 0.00053914525679141 0.0002 0.001110111956655814
221 0.0003554914344915233 0.0002 0.001036597597389373
222 0.0003270519405150677 0.0002 0.0007946284031844186
223 0.0005340974604319289 0.0002 0.0006798767706385299
224 0.0005319740131965547 0.0002 0.0004453519504016503
225 0.001107401278311071 0.0002 0.000999742609737367
226 0.0005506743364112256 0.0002 0.0002123704486492833
227 0.0002088542182003428 0.0002 0.0003326286175994553
228 0.00112130667490981 0.0002 0.001661687790704533
229 0.0009728461846797759 0.0002 0.000183211462054668
230 0.0003344016303213082 0.0002 0.0018177891963102
231 0.0007522120076330367 0.0002 0.001848428315118192
232 0.0007040383954449395 0.0002 0.0003682161058952695
233 0.0003454670522917383 0.0002 0.0004481185750306054
234 0.0001454138906510215 0.0002 0.001438854079299788
235 0.000393243513664045 0.0002 0.001228326170862064
236 0.0001710245030584641 0.0002 0.0009718710000956316
237 0.000139347994694553 0.0002 0.000780670051793604
238 0.0003899358302943329 0.0002 0.001646602771310702
239 0.0001632386520251873 0.0002 0.001836335200316966
240 0.001136761347974812 0.0002 0.0001636647996830334
241 0.001142368690627104 0.0002 0.001840823362250315
242 0.0001558299018890566 0.0002 0.0001553149436901399
243 0.0003751700628845902 0.0002 0.0006062148237358032
244 0.0004186348771001771 0.0002 0.000313449807053921
245 0.0013 0.00015 0.000111111111111111
246 0.0013 0.00015 0.001666666666666667
247 0.0013 0.00015 0.0007777777777777774
248 0.0013 0.00015 0.000555555555555555
249 0.0013 0.00015 0.001222222222222222
250 0.0013 0.00015 0.001
251 0.0013 0.00015 0.001444444444444445
252 0.0013 0.00015 0.001888888888888889
253 0.0013 0.00015 0.0003333333333333328
254 0.0009065177045464806 0.0001 0.001009306632958569
255 0.001062426957721633 0.0001 0.001848869573931994
256 0.001062426957721633 0.0001 0.0001511304260680062
257 0.001092716458122618 0.0001 0.000535689574749165
258 0.00109507991901551 0.0001 0.001464405375788242
259 0.001141939047193207 0.0001 0.001002144376340959
260 0.001117127409521429 0.0001 0.001206046163084169
261 0.001102839447586898 0.0001 0.0007981414340095824
262 0.0009213100277779197 0.0001 0.00116875
263 0.0009323601740902096 0.0001 0.0008482208431139821
264 0.0009689028989530134 0.0001 0.001693558917403885
265 0.0009685089888041979 0.0001 0.0003064569076856828
266 0.0008916666666666663 0.0001 0.001893911888036407
267 0.0008916666666666662 0.0001 0.0001060881119635935
268 0.0009657579624330636 0.0001 0.0006778943499344154
269 0.0009601797015470775 0.0001 0.001327524766089764
270 0.001157457184837248 0.0001 0.001704842681557724
271 0.001156997622996964 0.0001 0.0002951757810467717
272 0.001191218249477053 0.0001 0.0001337056858674
273 0.001191310161845109 0.0001 0.001866298006653499
274 0.001016310753695861 0.0001 0.001067540205520479
275 0.001013863343452695 0.0001 0.0009421943970547447
276 0.00075 0.000115 0.0007777777777777774
277 0.00075 0.000115 0.001666666666666667
278 0.00075 0.000115 0.000111111111111111
279 0.00075 0.000115 0.000555555555555555
280 0.00075 0.000115 0.001
281 0.00075 0.000115 0.001222222222222222
282 0.00075 0.000115 0.001444444444444445
283 0.00075 0.000115 0.0003333333333333328
284 0.00075 0.000115 0.00188888888888889
285 0.00065 0.0001 3.464101615137754e-05
286 0.00065 0.0001 0.001965358983848622
287 0.0006547275866404807 0.0001 0.00188125
288 0.0006471371531119856 0.0001 0.0001023693515136888
289 0.0005499999999999999 0.000115 0.001666666666666667
290 0.0005499999999999999 0.000115 0.000111111111111111
291 0.0005499999999999999 0.000115 0.0007777777777777774
292 0.0005499999999999999 0.000115 0.000555555555555555
293 0.0005499999999999999 0.000115 0.001
294 0.0005499999999999999 0.000115 0.001222222222222222
295 0.0005499999999999999 0.000115 0.001444444444444445
296 0.0005499999999999999 0.000115 0.00188888888888889
297 0.00055 0.000115 0.0003333333333333329
298 0 0 0
299 0 0 0.002
300 0.00055 0 0
301 0.00075 0 0
302 0.0013 0 0
303 0.00055 0 0.002
304 0.00075 0 0.002
305 0.0013 0 0.002
306 0.0008 0 0.00105
307 0.0007 0 0.00105
308 0.0008 0 0.0009500000000000001
309 0.0007 0 0.0009500000000000001
310 0.00049 9.000000000000001e-05 0
311 0.00055 9.000000000000001e-05 0
312 0.00061 9.000000000000001e-05 0
313 0.00069 9.000000000000001e-05 0
314 0.00075 9.000000000000001e-05 0
315 0.00081 9.000000000000001e-05 0
316 0.00055 0.0001 0
317 0.00075 0.0001 0
318 0.00049 9.000000000000001e-05 0.002
319 0.00055 9.000000000000001e-05 0.002
320 0.00061 9.000000000000001e-05 0.002
321 0.00069 9.000000000000001e-05 0.002
322 0.00075 9.000000000000001e-05 0.002
323 0.00081 9.000000000000001e-05 0.002
324 0.00055 0.0001 0.002
325 0.00075 0.0001 0.002
326 0 0 0.000222222222222222
327 0 0 0.0004444444444444438
328 0 0 0.0006666666666666662
329 0 0 0.0008888888888888887
330 0 0 0.001111111111111111
331 0 0 0.001333333333333334
332 0 0 0.001555555555555556
333 0 0 0.001777777777777779
334 0.0001833333333333332 0 0
335 0.0003666666666666669 0 0
336 0.0009333333333333332 0 0
337 0.001116666666666667 0 0
338 0.0001833333333333332 0 0.002
339 0.0003666666666666669 0 0.002
340 0.0009333333333333332 0 0.002
341 0.001116666666666667 0 0.002
342 0.0013 0 0.000222222222222222
343 0.0013 0 0.0004444444444444438
344 0.0013 0 0.0006666666666666662
345 0.0013 0 0.0008888888888888887
346 0.0013 0 0.001111111111111111
347 0.0013 0 0.001333333333333334
348 0.0013 0 0.001555555555555556
349 0.0013 0 0.001777777777777779
350 0.0007500315997109712 0 0.0008606522568364837
351 0.0007500315997109709 0 0.001139347743163516
352 0.0006424981338110569 0 0.0001458364488968298
353 0.0006400198931165796 0 0.001849789137882312
354 0.0006429108278050465 0 0.0008600339422738315
355 0.0006463860309411006 0 0.001138944640156421
356 0.0006978458502315427 0 0.0007617063343720292
357 0.0006984250507542182 0 0.001238123429366346
358 0.0005806335600832583 0 0.0007623490327898876
359 0.0005195667874786085 0 0.000868760551826789
360 0.0005796320490010753 0 0.001239020381105248
361 0.0006420968565229397 0 0.0006527405369958323
362 0.0007695763065057042 0 0.0006572660438227563
363 0.0008618878508594974 0 0.0008763289396990652
364 0.000640356878130271 0 0.001349712435746066
365 0.0007695763065057044 0 0.001342733956177244
366 0.0008618878508594974 0 0.001123671060300934
367 0.0005057761109625991 0 0.0006561711044452348
368 0.0005047671345625518 0 0.001352261959197927
369 0.0004400191619027996 0 0.001225554916390474
370 0.0008805728692150369 0 0.0009999999999999996
371 0.0007101472835644178 0 0.0005335746974577964
372 0.0008558987597664013 0 0.0005373219695726571
373 0.0007101471651020558 0 0.001469450280562471
374 0.0008558987400226747 0 0.001463182193430721
375 0.0001890962555472132 0 0.0003216431104620507
376 0.000186277023035759 0 0.001671181997996649
377 0.0003366071730949065 0 0.001363937980825467
378 0.0004337828792194165 0 0.001488566332815601
379 0.0001924500897298754 0 0.0009999999999999998
380 0.001025 0 0.001841228675972853
381 0.001025 0 0.0001587713240271469
382 0.0009820495438110971 0 0.0009250908566989801
383 0.0009816797459735167 0 0.001083448491637321
384 0.0007886665514199616 0 0.001598342415817651
385 0.0007886665514199614 0 0.0004016575841823501
386 0.0009721954978242588 0 0.001248231441557434
387 0.0009722483260867702 0 0.0007529884653477514
388 0.000632092721583668 0 0.000397788773141361
389 0.0006361046595211548 0 0.001592897386429106
390 0.0009767867543248327 0 0.0004147130005761479
391 0.0009767867515043007 0 0.00158535902271005
392 0.0005920542547799341 0 0.001045302829294735
393 0.0009993008469867965 0 0.001415466830185856
394 0.0009993096554579248 0 0.0005848325186799378
395 0.0002746722753442855 0 0.001183972118042217
396 0.001123745967155587 0 0.001001016589087654
397 0.0003784134612506999 0 0.001069369943439788
398 0.0003675863831401197 0 0.0008809599712780881
399 0.0004588939930053532 0 0.001844006071731475
400 0.0004591663556351761 0 0.0001438821700646998
401 0.0001630820147317312 0 0.001463496107452828
402 0.0002101015547549757 0 0.0005620719774531603
403 0.0003395949220019949 0 0.0004357966468452829
404 0.0008232568571419614 0 0.000146787173175136
405 0.0008228438170262152 0 0.001852483757954721
406 0.0001840474070564925 0 0.0007726265427180993
407 0.001137000322397498 0 0.0008158857803804258
408 0.001136929884714149 0 0.00118607962518904
409 0.0002817636498923228 0 0.0001485981771778823
410 0.0002866526198544493 0 0.001834112900253256
411 0.0003862343901494243 0 0.00166823818638213
412 0.000348549706862362 0 0.0007162781821419182
413 0.001134118161037628 0 0.0003150649634204585
414 0.001134118160749819 0 0.00168494238589446
415 0.0005622673546367654 0 0.0005385555674108666
416 0.0005727745628724947 0 0.001472617638237597
417 0.0005541666666666667 0 0.0002717709887763163
418 0.0003666666666666667 0 0.0002869142586879058
419 0.0008242848345965412 0 0.0007612304550155434
420 0.0008243725633065685 0 0.001238944490091716
421 0.0007132467378663125 0 0.0002836893283620623
422 0.0006025528744965234 0 0.0009484098479363185
423 0.0005001321025125086 0 0.0009918999048798363
424 0.0005268726208331662 0 0.001703998260086843
425 0.0007132467378663123 0 0.001716310671637938
426 0.0004800604714028527 0 0.0004159974104224416
427 0.0005227728433980195 0 0.001118348769211084
428 0.0003004503638105221 0 0.001541810742819668
429 0.0004598311937870424 0 0.0007678910279157127
430 0.0003978745650862717 0 0.0005678540746849791
431 0.0008754629378410669 0 0.0002924259377647773
432 0.0008754629378410664 0 0.001707574062235223
433 0.0008842687909292005 0 0.001341711782288594
434 0.0008842635764826683 0 0.0006587278904877291
435 0.00113571230070189 0 0.0006607634407116783
436 0.001135705424691009 0 0.001339417976475975
437 0.0001632660129460588 0 0.00130225567947333
438 0.0001338679314544137 0 0.001854072845438997
439 0.0001308386477545738 0 0.000138492701972431
440 0.001174347378495119 0 0.001860850476147361
441 0.00117434737849512 0 0.0001391495238526377
442 0.001144376128815484 0 0.0005059723434333345
443 0.001144374261245205 0 0.001494094339739828
444 0.0001318064060606055 0 0.001173521866417996
445 0.001007913399489666 0 0.0002901350220892808
446 0.001007913399489664 0 0.001709864977910721
447 0.0005111538225191312 0 0.001585263560790256
448 0 5e-05 0.001666666666666667
449 0 5e-05 0.000111111111111111
450 0 5e-05 0.0007777777777777774
451 0 5e-05 0.000555555555555555
452 0 5.000000000000001e-05 0.001
453 0 5e-05 0.001222222222222222
454 0 5.000000000000003e-05 0.001444444444444445
455 0 5.000000000000001e-05 0.001888888888888889
456 0 5e-05 0.0003333333333333328
457 8.666666666666664e-05 5e-05 0
458 0.0005042687074829932 4.5e-05 0
459 0.0007199999999999999 5.102885682970024e-05 0
460 0.0006869429518273786 5.177575558394404e-05 0
461 0.00065 8.0100561265696e-05 0
462 0.0006276699581775891 4.293522947347947e-05 0
463 0.001213333333333333 5e-05 0
464 0.0007957312925170068 4.5e-05 0
465 8.666666666666664e-05 5e-05 0.002
466 0.0005042687074829932 4.5e-05 0.002
467 0.0007199999999999999 5.102885682970024e-05 0.002
468 0.0006869429518273786 5.177575558394404e-05 0.002
469 0.00065 8.0100561265696e-05 0.002
470 0.0006276699581775891 4.293522947347947e-05 0.002
471 0.001213333333333333 5e-05 0.002
472 0.0007957312925170068 4.5e-05 0.002
473 0.0013 5e-05 0.000111111111111111
474 0.0013 5e-05 0.001666666666666667
475 0.0013 5e-05 0.0007777777777777774
476 0.0013 5.000000000000001e-05 0.000555555555555555
477 0.0013 5e-05 0.001222222222222222
478 0.0013 5e-05 0.001
479 0.0013 5e-05 0.001444444444444445
480 0.0013 5.000000000000001e-05 0.001888888888888889
481 0.0013 5e-05 0.0003333333333333328
482 0.00075 5e-05 0.00105
483 0.0008 5e-05 0.001
484 0.00075 5e-05 0.0009500000000000001
485 0.0007 5e-05 0.001
486 0.00075 0.0001 0.0008312500000000001
487 0.00075 0.0001 0.0003562499999999999
488 0.00075 0.0001 0.0001202063188324498
489 0.00075 0.0001 0.00059375
490 0.00075 0.0001 0.00140625
491 0.00075 0.0001 0.00164375
492 0.00075 0.0001 0.00187979368116755
493 0.0007500000000000001 0.0001 0.00116875
494 0.0005499999999999999 0.0001 0.0007777777777777774
495 0.0005499999999999999 0.0001 0.001666666666666667
496 0.0005499999999999999 0.0001 0.001887526251384843
497 0.0005499999999999999 0.0001 0.000555555555555555
498 0.0005499999999999999 0.0001 0.001
499 0.0005499999999999999 0.0001 0.001222222222222222
500 0.0005499999999999999 0.0001 0.001444444444444445
501 0.0005499999999999999 0.0001 0.0003333333333333329
502 0.0005499999999999999 0.0001 0.0001124737486151577
503 0.0007060005950567896 5.189910365138619e-05 0.0001003227739823007
$EndNodes
$Elements
1658
1 4 2 1 1 144 130 138 137
2 4 2 1 1 151 73 288 15
3 4 2 1 1 151 15 288 24
4 4 2 1 1 12 129 73 288
5 4 2 1 1 115 116 265 122
6 4 2 1 1 119 120 264 127
7 4 2 1 1 231 41 287 136
8 4 2 1 1 231 41 136 284
9 4 2 1 1 127 211 119 126
10 4 2 1 1 158 35 44 287
11 4 2 1 1 128 40 231 284
12 4 2 1 1 21 288 129 12
13 4 2 1 1 203 122 116 123
14 4 2 1 1 129 130 283 232
15 4 2 1 1 102 247 192 101
16 4 2 1 1 103 250 225 102
17 4 2 1 1 219 103 104 249
18 4 2 1 1 133 134 281 210
19 4 2 1 1 132 133 280 206
20 4 2 1 1 132 131 205 276
21 4 2 1 1 105 195 104 251
22 4 2 1 1 135 134 212 282
23 4 2 1 1 73 151 288 129
24 4 2 1 1 211 127 119 218
25 4 2 1 1 130 131 279 208
26 4 2 1 1 1 61 177 183
27 4 2 1 1 114 27 252 273
28 4 2 1 1 7 107 245 272
29 4 2 1 1 99 100 200 253
30 4 2 1 1 246 106 105 228
31 4 2 1 1 41 287 136 42
32 4 2 1 1 111 110 259 250
33 4 2 1 1 135 216 136 277
34 4 2 1 1 64 65 162 187
35 4 2 1 1 92 194 93 186
36 4 2 1 1 241 28 252 106
37 4 2 1 1 202 101 248 100
38 4 2 1 1 98 97 201 184
39 4 2 1 1 191 91 92 227
40 4 2 1 1 8 99 240 245
41 4 2 1 1 95 188 193 96
42 4 2 1 1 93 237 94 185
43 4 2 1 1 242 18 183 91
44 4 2 1 1 62 63 172 186
45 4 2 1 1 24 151 23 288
46 4 2 1 1 151 23 288 143
47 4 2 1 1 189 234 96 97
48 4 2 1 1 187 236 94 95
49 4 2 1 1 63 64 165 185
50 4 2 1 1 67 68 167 184
51 4 2 1 1 61 62 171 191
52 4 2 1 1 110 109 261 247
53 4 2 1 1 38 98 239 190
54 4 2 1 1 66 67 163 189
55 4 2 1 1 65 66 176 188
56 4 2 1 1 68 5 178 190
57 4 2 1 1 111 112 249 260
58 4 2 1 1 18 179 75 242
59 4 2 1 1 240 71 8 180
60 4 2 1 1 38 239 90 181
61 4 2 1 1 108 109 248 257
62 4 2 1 1 113 114 246 270
63 4 2 1 1 112 113 251 258
64 4 2 1 1 107 108 253 271
65 4 2 1 1 203 122 217 116
66 4 2 1 1 19 115 267 121
67 4 2 1 1 120 39 266 128
68 4 2 1 1 241 182 28 86
69 4 2 1 1 150 43 287 44
70 4 2 1 1 150 44 287 158
71 4 2 1 1 21 22 129 288
72 4 2 1 1 35 197 36 88
73 4 2 1 1 181 38 239 190
74 4 2 1 1 180 8 240 245
75 4 2 1 1 274 254 209 275
76 4 2 1 1 218 120 128 127
77 4 2 1 1 197 36 88 89
78 4 2 1 1 286 35 88 287
79 4 2 1 1 226 16 74 73
80 4 2 1 1 182 28 252 241
81 4 2 1 1 72 73 11 196
82 4 2 1 1 179 18 183 242
83 4 2 1 1 72 121 10 267
84 4 2 1 1 204 209 254 275
85 4 2 1 1 226 16 17 74
86 4 2 1 1 287 44 286 35
87 4 2 1 1 225 274 209 275
88 4 2 1 1 32 287 286 88
89 4 2 1 1 124 205 206 204
90 4 2 1 1 210 209 125 206
91 4 2 1 1 209 45 254 46
92 4 2 1 1 245 240 180 272
93 4 2 1 1 274 209 219 225
94 4 2 1 1 192 225 204 275
95 4 2 1 1 211 212 210 126
96 4 2 1 1 121 122 115 217
97 4 2 1 1 209 204 225 275
98 4 2 1 1 258 119 264 218
99 4 2 1 1 231 88 31 87
100 4 2 1 1 112 219 104 249
101 4 2 1 1 12 288 73 285
102 4 2 1 1 101 247 192 109
103 4 2 1 1 182 252 273 241
104 4 2 1 1 219 104 195 112
105 4 2 1 1 207 132 205 206
106 4 2 1 1 112 104 195 251
107 4 2 1 1 187 162 95 65
108 4 2 1 1 73 288 15 285
109 4 2 1 1 179 183 177 242
110 4 2 1 1 220 210 133 206
111 4 2 1 1 253 100 200 108
112 4 2 1 1 262 219 209 211
113 4 2 1 1 91 191 171 227
114 4 2 1 1 161 52 166 233
115 4 2 1 1 199 87 84 86
116 4 2 1 1 219 195 260 112
117 4 2 1 1 225 250 259 102
118 4 2 1 1 209 210 125 281
119 4 2 1 1 218 127 216 212
120 4 2 1 1 49 1 177 179
121 4 2 1 1 208 205 123 203
122 4 2 1 1 229 72 71 69
123 4 2 1 1 250 259 103 225
124 4 2 1 1 202 261 109 192
125 4 2 1 1 93 194 63 186
126 4 2 1 1 105 113 246 228
127 4 2 1 1 92 227 194 172
128 4 2 1 1 70 7 180 272
129 4 2 1 1 85 27 273 182
130 4 2 1 1 210 212 213 134
131 4 2 1 1 202 101 192 109
132 4 2 1 1 247 192 109 261
133 4 2 1 1 199 84 255 86
134 4 2 1 1 116 257 265 217
135 4 2 1 1 112 260 219 249
136 4 2 1 1 275 204 192 263
137 4 2 1 1 172 63 194 186
138 4 2 1 1 92 171 191 227
139 4 2 1 1 102 259 225 261
140 4 2 1 1 32 287 41 286
141 4 2 1 1 102 192 247 261
142 4 2 1 1 187 162 236 95
143 4 2 1 1 202 248 101 109
144 4 2 1 1 90 230 89 60
145 4 2 1 1 102 247 110 261
146 4 2 1 1 190 239 181 178
147 4 2 1 1 84 266 87 199
148 4 2 1 1 259 260 103 225
149 4 2 1 1 192 204 203 263
150 4 2 1 1 176 236 162 95
151 4 2 1 1 108 200 253 271
152 4 2 1 1 68 184 98 167
153 4 2 1 1 221 222 79 174
154 4 2 1 1 128 218 216 199
155 4 2 1 1 216 135 214 212
156 4 2 1 1 62 171 191 92
157 4 2 1 1 161 166 172 233
158 4 2 1 1 110 259 250 102
159 4 2 1 1 197 89 230 169
160 4 2 1 1 41 231 31 284
161 4 2 1 1 216 231 128 199
162 4 2 1 1 225 192 102 261
163 4 2 1 1 193 236 176 95
164 4 2 1 1 238 201 175 170
165 4 2 1 1 270 246 113 228
166 4 2 1 1 194 92 172 186
167 4 2 1 1 205 131 223 208
168 4 2 1 1 79 207 222 221
169 4 2 1 1 80 79 174 221
170 4 2 1 1 209 219 262 274
171 4 2 1 1 95 162 176 65
172 4 2 1 1 173 79 222 174
173 4 2 1 1 184 201 98 167
174 4 2 1 1 219 103 260 225
175 4 2 1 1 110 259 102 261
176 4 2 1 1 165 237 236 173
177 4 2 1 1 258 195 105 251
178 4 2 1 1 222 236 173 174
179 4 2 1 1 222 236 237 173
180 4 2 1 1 266 84 255 199
181 4 2 1 1 258 105 113 251
182 4 2 1 1 151 73 226 129
183 4 2 1 1 119 258 269 218
184 4 2 1 1 259 103 111 250
185 4 2 1 1 226 129 73 196
186 4 2 1 1 232 217 208 122
187 4 2 1 1 260 103 219 249
188 4 2 1 1 236 222 221 174
189 4 2 1 1 112 195 258 251
190 4 2 1 1 231 32 88 287
191 4 2 1 1 40 231 284 31
192 4 2 1 1 189 234 67 163
193 4 2 1 1 211 195 218 269
194 4 2 1 1 118 209 262 125
195 4 2 1 1 134 135 212 156
196 4 2 1 1 69 71 229 256
197 4 2 1 1 156 135 212 157
198 4 2 1 1 21 288 12 285
199 4 2 1 1 199 264 218 228
200 4 2 1 1 165 237 185 64
201 4 2 1 1 260 259 103 111
202 4 2 1 1 260 103 249 111
203 4 2 1 1 31 30 231 87
204 4 2 1 1 231 32 31 88
205 4 2 1 1 20 267 10 121
206 4 2 1 1 211 219 195 269
207 4 2 1 1 41 231 32 31
208 4 2 1 1 51 244 166 52
209 4 2 1 1 41 231 287 32
210 4 2 1 1 50 198 74 75
211 4 2 1 1 272 240 180 70
212 4 2 1 1 173 236 162 174
213 4 2 1 1 257 203 217 268
214 4 2 1 1 268 203 217 116
215 4 2 1 1 229 217 196 121
216 4 2 1 1 219 260 195 269
217 4 2 1 1 258 112 260 195
218 4 2 1 1 97 184 67 167
219 4 2 1 1 56 55 164 235
220 4 2 1 1 90 230 60 159
221 4 2 1 1 176 162 236 193
222 4 2 1 1 108 100 200 257
223 4 2 1 1 160 166 168 198
224 4 2 1 1 217 229 200 265
225 4 2 1 1 167 170 175 201
226 4 2 1 1 78 77 53 243
227 4 2 1 1 237 165 222 173
228 4 2 1 1 52 243 53 77
229 4 2 1 1 109 257 261 202
230 4 2 1 1 198 226 168 74
231 4 2 1 1 85 182 273 241
232 4 2 1 1 218 120 127 264
233 4 2 1 1 236 162 165 173
234 4 2 1 1 207 154 132 206
235 4 2 1 1 116 257 217 268
236 4 2 1 1 154 207 132 205
237 4 2 1 1 211 262 219 269
238 4 2 1 1 189 234 97 67
239 4 2 1 1 202 248 109 257
240 4 2 1 1 228 105 113 258
241 4 2 1 1 193 235 215 164
242 4 2 1 1 192 261 275 263
243 4 2 1 1 5 59 178 181
244 4 2 1 1 204 124 117 263
245 4 2 1 1 13 14 285 12
246 4 2 1 1 69 229 72 267
247 4 2 1 1 217 202 203 257
248 4 2 1 1 227 92 171 172
249 4 2 1 1 241 199 255 86
250 4 2 1 1 105 228 195 258
251 4 2 1 1 234 193 215 163
252 4 2 1 1 12 14 285 15
253 4 2 1 1 117 203 204 263
254 4 2 1 1 92 62 171 172
255 4 2 1 1 201 234 215 175
256 4 2 1 1 167 230 159 170
257 4 2 1 1 49 179 177 242
258 4 2 1 1 226 17 168 74
259 4 2 1 1 194 227 233 172
260 4 2 1 1 237 93 63 185
261 4 2 1 1 196 232 226 129
262 4 2 1 1 256 69 71 70
263 4 2 1 1 193 188 176 96
264 4 2 1 1 230 89 60 169
265 4 2 1 1 163 193 215 164
266 4 2 1 1 176 188 193 95
267 4 2 1 1 268 192 203 263
268 4 2 1 1 79 53 54 173
269 4 2 1 1 243 52 233 77
270 4 2 1 1 184 97 201 167
271 4 2 1 1 198 51 244 166
272 4 2 1 1 238 201 215 175
273 4 2 1 1 230 239 201 159
274 4 2 1 1 221 236 162 193
275 4 2 1 1 245 180 7 272
276 4 2 1 1 52 243 161 53
277 4 2 1 1 252 273 27 182
278 4 2 1 1 258 264 270 228
279 4 2 1 1 260 259 274 225
280 4 2 1 1 183 177 1 179
281 4 2 1 1 271 108 200 257
282 4 2 1 1 241 255 199 228
283 4 2 1 1 193 162 221 164
284 4 2 1 1 187 236 162 64
285 4 2 1 1 113 270 228 258
286 4 2 1 1 265 257 271 200
287 4 2 1 1 274 219 260 225
288 4 2 1 1 165 194 237 222
289 4 2 1 1 164 162 221 174
290 4 2 1 1 175 164 163 215
291 4 2 1 1 198 51 166 168
292 4 2 1 1 225 192 261 275
293 4 2 1 1 202 200 100 257
294 4 2 1 1 217 200 202 257
295 4 2 1 1 166 171 172 227
296 4 2 1 1 266 231 87 199
297 4 2 1 1 159 201 230 167
298 4 2 1 1 237 94 185 64
299 4 2 1 1 66 176 188 96
300 4 2 1 1 243 222 53 78
301 4 2 1 1 217 200 257 265
302 4 2 1 1 219 260 262 274
303 4 2 1 1 166 233 227 172
304 4 2 1 1 236 94 237 64
305 4 2 1 1 243 222 194 161
306 4 2 1 1 176 162 193 164
307 4 2 1 1 94 236 187 64
308 4 2 1 1 253 200 99 271
309 4 2 1 1 106 246 270 228
310 4 2 1 1 161 53 243 173
311 4 2 1 1 77 224 233 243
312 4 2 1 1 288 24 15 285
313 4 2 1 1 261 259 225 275
314 4 2 1 1 53 222 243 173
315 4 2 1 1 205 132 124 206
316 4 2 1 1 240 71 180 70
317 4 2 1 1 153 223 131 208
318 4 2 1 1 125 133 210 206
319 4 2 1 1 52 243 233 161
320 4 2 1 1 84 85 255 86
321 4 2 1 1 228 264 218 258
322 4 2 1 1 211 218 119 269
323 4 2 1 1 165 63 194 172
324 4 2 1 1 181 239 90 59
325 4 2 1 1 215 213 81 235
326 4 2 1 1 222 243 223 78
327 4 2 1 1 267 69 229 256
328 4 2 1 1 169 26 4 83
329 4 2 1 1 4 169 83 58
330 4 2 1 1 56 55 235 80
331 4 2 1 1 208 152 224 232
332 4 2 1 1 81 80 56 235
333 4 2 1 1 171 242 91 227
334 4 2 1 1 223 153 131 205
335 4 2 1 1 272 256 240 70
336 4 2 1 1 165 194 222 161
337 4 2 1 1 273 255 85 241
338 4 2 1 1 237 63 165 185
339 4 2 1 1 167 201 230 170
340 4 2 1 1 198 50 160 75
341 4 2 1 1 128 40 266 231
342 4 2 1 1 195 228 218 258
343 4 2 1 1 149 142 157 150
344 4 2 1 1 238 230 201 170
345 4 2 1 1 232 208 152 130
346 4 2 1 1 134 210 212 126
347 4 2 1 1 269 195 218 258
348 4 2 1 1 98 239 68 167
349 4 2 1 1 170 175 238 57
350 4 2 1 1 221 235 193 164
351 4 2 1 1 178 68 239 167
352 4 2 1 1 193 234 96 163
353 4 2 1 1 49 160 50 75
354 4 2 1 1 202 192 203 268
355 4 2 1 1 119 269 126 211
356 4 2 1 1 159 230 60 169
357 4 2 1 1 32 34 286 33
358 4 2 1 1 239 181 178 59
359 4 2 1 1 179 49 75 242
360 4 2 1 1 213 156 210 134
361 4 2 1 1 34 32 286 35
362 4 2 1 1 155 220 210 133
363 4 2 1 1 155 220 133 206
364 4 2 1 1 230 238 197 83
365 4 2 1 1 96 176 193 163
366 4 2 1 1 80 54 55 174
367 4 2 1 1 229 240 200 256
368 4 2 1 1 77 51 244 76
369 4 2 1 1 79 54 80 174
370 4 2 1 1 199 255 264 228
371 4 2 1 1 260 258 195 269
372 4 2 1 1 51 77 244 52
373 4 2 1 1 159 239 201 167
374 4 2 1 1 83 57 58 170
375 4 2 1 1 96 66 176 163
376 4 2 1 1 214 238 215 82
377 4 2 1 1 165 161 172 194
378 4 2 1 1 156 213 212 134
379 4 2 1 1 159 60 90 59
380 4 2 1 1 270 255 241 228
381 4 2 1 1 239 98 201 167
382 4 2 1 1 123 268 116 203
383 4 2 1 1 244 226 76 198
384 4 2 1 1 173 54 79 174
385 4 2 1 1 135 214 157 216
386 4 2 1 1 221 162 236 174
387 4 2 1 1 256 200 229 265
388 4 2 1 1 267 20 19 121
389 4 2 1 1 39 40 266 128
390 4 2 1 1 119 264 218 127
391 4 2 1 1 71 240 229 256
392 4 2 1 1 176 188 95 65
393 4 2 1 1 270 264 255 228
394 4 2 1 1 245 99 240 272
395 4 2 1 1 256 229 267 265
396 4 2 1 1 85 182 241 86
397 4 2 1 1 287 43 286 44
398 4 2 1 1 151 226 232 129
399 4 2 1 1 205 123 131 208
400 4 2 1 1 239 159 178 167
401 4 2 1 1 161 222 165 173
402 4 2 1 1 230 90 239 159
403 4 2 1 1 159 230 169 170
404 4 2 1 1 152 145 144 138
405 4 2 1 1 156 141 149 148
406 4 2 1 1 166 160 171 227
407 4 2 1 1 265 116 217 122
408 4 2 1 1 83 197 230 169
409 4 2 1 1 41 40 284 31
410 4 2 1 1 20 21 278 11
411 4 2 1 1 24 25 290 16
412 4 2 1 1 230 238 83 170
413 4 2 1 1 26 44 296 36
414 4 2 1 1 71 240 256 70
415 4 2 1 1 163 176 193 164
416 4 2 1 1 241 252 273 106
417 4 2 1 1 135 157 214 212
418 4 2 1 1 146 153 154 139
419 4 2 1 1 155 140 148 147
420 4 2 1 1 153 146 145 139
421 4 2 1 1 177 160 49 242
422 4 2 1 1 190 181 5 178
423 4 2 1 1 168 76 226 198
424 4 2 1 1 161 194 233 172
425 4 2 1 1 161 243 222 173
426 4 2 1 1 262 260 219 269
427 4 2 1 1 266 255 264 199
428 4 2 1 1 242 177 171 91
429 4 2 1 1 160 166 198 227
430 4 2 1 1 154 147 146 47
431 4 2 1 1 155 47 147 154
432 4 2 1 1 172 92 62 186
433 4 2 1 1 268 261 192 263
434 4 2 1 1 221 80 220 235
435 4 2 1 1 168 3 25 76
436 4 2 1 1 200 256 271 265
437 4 2 1 1 30 266 231 87
438 4 2 1 1 76 168 3 51
439 4 2 1 1 242 160 198 227
440 4 2 1 1 77 52 233 244
441 4 2 1 1 127 135 216 212
442 4 2 1 1 40 231 31 30
443 4 2 1 1 256 240 200 271
444 4 2 1 1 51 198 244 76
445 4 2 1 1 217 122 115 265
446 4 2 1 1 171 160 177 242
447 4 2 1 1 242 183 177 91
448 4 2 1 1 177 61 171 91
449 4 2 1 1 37 6 60 169
450 4 2 1 1 198 166 244 227
451 4 2 1 1 233 52 166 244
452 4 2 1 1 241 255 85 86
453 4 2 1 1 47 155 147 48
454 4 2 1 1 40 266 231 30
455 4 2 1 1 171 160 242 227
456 4 2 1 1 159 90 239 59
457 4 2 1 1 160 198 75 242
458 4 2 1 1 270 241 106 228
459 4 2 1 1 75 49 160 242
460 4 2 1 1 69 10 9 267
461 4 2 1 1 84 29 30 266
462 4 2 1 1 241 273 270 106
463 4 2 1 1 272 107 99 271
464 4 2 1 1 273 114 270 106
465 4 2 1 1 240 99 200 271
466 4 2 1 1 272 99 240 271
467 4 2 1 1 198 168 50 74
468 4 2 1 1 166 233 244 227
469 4 2 1 1 178 159 239 59
470 4 2 1 1 115 121 229 267
471 4 2 1 1 257 202 203 268
472 4 2 1 1 229 115 267 265
473 4 2 1 1 233 224 77 244
474 4 2 1 1 99 245 107 272
475 4 2 1 1 114 273 252 106
476 4 2 1 1 107 253 99 271
477 4 2 1 1 239 98 68 178
478 4 2 1 1 275 254 204 263
479 4 2 1 1 129 196 232 283
480 4 2 1 1 114 246 270 106
481 4 2 1 1 130 232 208 122
482 4 2 1 1 163 215 234 175
483 4 2 1 1 98 239 190 178
484 4 2 1 1 266 128 231 199
485 4 2 1 1 168 50 160 198
486 4 2 1 1 73 15 12 285
487 4 2 1 1 203 117 268 263
488 4 2 1 1 171 61 191 91
489 4 2 1 1 243 194 233 161
490 4 2 1 1 26 169 6 37
491 4 2 1 1 50 2 17 168
492 4 2 1 1 270 255 273 241
493 4 2 1 1 254 209 262 274
494 4 2 1 1 61 177 183 91
495 4 2 1 1 20 267 9 10
496 4 2 1 1 266 40 29 30
497 4 2 1 1 198 51 168 76
498 4 2 1 1 240 256 272 271
499 4 2 1 1 72 10 69 267
500 4 2 1 1 266 30 84 87
501 4 2 1 1 41 287 42 286
502 4 2 1 1 60 89 37 169
503 4 2 1 1 88 32 35 286
504 4 2 1 1 26 169 4 6
505 4 2 1 1 225 259 274 275
506 4 2 1 1 183 1 18 179
507 4 2 1 1 21 22 288 285
508 4 2 1 1 252 27 28 182
509 4 2 1 1 168 25 2 17
510 4 2 1 1 68 98 190 178
511 4 2 1 1 20 267 19 9
512 4 2 1 1 40 39 266 29
513 4 2 1 1 180 7 8 245
514 4 2 1 1 181 5 38 190
515 4 2 1 1 208 279 130 122
516 4 2 1 1 3 168 25 2
517 4 2 1 1 17 50 168 74
518 4 2 1 1 134 281 210 126
519 4 2 1 1 128 136 231 216
520 4 2 1 1 196 129 121 283
521 4 2 1 1 133 125 280 206
522 4 2 1 1 212 127 135 282
523 4 2 1 1 23 24 288 285
524 4 2 1 1 132 124 276 205
525 4 2 1 1 276 123 131 205
526 4 2 1 1 280 124 132 206
527 4 2 1 1 125 133 281 210
528 4 2 1 1 126 134 282 212
529 4 2 1 1 136 128 277 216
530 4 2 1 1 131 123 279 208
531 4 2 1 1 13 21 12 285
532 4 2 1 1 15 24 14 285
533 4 2 1 1 130 122 283 232
534 4 2 1 1 127 135 277 216
535 4 2 1 1 82 157 214 289
536 4 2 1 1 32 41 33 286
537 4 2 1 1 34 44 35 286
538 4 2 1 1 151 76 297 226
539 4 2 1 1 155 80 294 220
540 4 2 1 1 197 158 83 289
541 4 2 1 1 79 154 207 293
542 4 2 1 1 293 80 155 220
543 4 2 1 1 297 77 152 224
544 4 2 1 1 81 156 294 213
545 4 2 1 1 77 152 224 292
546 4 2 1 1 117 123 203 268
547 4 2 1 1 157 214 295 82
548 4 2 1 1 197 158 296 83
549 4 2 1 1 153 291 223 78
550 4 2 1 1 128 136 284 231
551 4 2 1 1 150 287 142 136
552 4 2 1 1 151 290 76 226
553 4 2 1 1 129 121 278 196
554 4 2 1 1 23 14 24 285
555 4 2 1 1 22 21 13 285
556 4 2 1 1 34 43 44 286
557 4 2 1 1 42 33 41 286
558 4 2 1 1 144 130 152 138
559 4 2 1 1 129 22 137 288
560 4 2 1 1 46 118 262 125
561 4 2 1 1 45 117 124 263
562 4 2 1 1 42 142 287 136
563 4 2 1 1 156 135 141 134
564 4 2 1 1 119 269 118 126
565 4 2 1 1 204 123 117 124
566 4 2 1 1 123 204 117 203
567 4 2 1 1 116 117 268 123
568 4 2 1 1 45 209 124 125
569 4 2 1 1 45 209 125 46
570 4 2 1 1 82 83 214 238
571 4 2 1 1 82 214 83 289
572 4 2 1 1 197 214 83 238
573 4 2 1 1 197 83 214 289
574 4 2 1 1 220 80 213 235
575 4 2 1 1 220 213 80 294
576 4 2 1 1 81 213 80 235
577 4 2 1 1 81 80 213 294
578 4 2 1 1 213 156 220 210
579 4 2 1 1 213 220 156 294
580 4 2 1 1 155 220 156 210
581 4 2 1 1 155 156 220 294
582 4 2 1 1 155 154 220 206
583 4 2 1 1 155 220 154 293
584 4 2 1 1 207 220 154 206
585 4 2 1 1 207 154 220 293
586 4 2 1 1 207 154 223 205
587 4 2 1 1 153 223 154 205
588 4 2 1 1 153 154 223 291
589 4 2 1 1 226 76 224 244
590 4 2 1 1 226 224 76 297
591 4 2 1 1 77 224 76 244
592 4 2 1 1 77 76 224 297
593 4 2 1 1 121 72 229 267
594 4 2 1 1 121 229 72 196
595 4 2 1 1 157 156 214 212
596 4 2 1 1 157 214 156 295
597 4 2 1 1 213 214 156 212
598 4 2 1 1 224 152 226 232
599 4 2 1 1 224 226 152 297
600 4 2 1 1 151 226 152 232
601 4 2 1 1 151 152 226 297
602 4 2 1 1 223 153 224 208
603 4 2 1 1 152 224 153 208
604 4 2 1 1 152 153 224 292
605 4 2 1 1 77 78 224 243
606 4 2 1 1 77 224 78 292
607 4 2 1 1 223 224 78 243
608 4 2 1 1 158 157 197 216
609 4 2 1 1 158 197 157 289
610 4 2 1 1 214 197 157 216
611 4 2 1 1 214 157 197 289
612 4 2 1 1 76 25 226 290
613 4 2 1 1 16 25 226 17
614 4 2 1 1 16 226 25 290
615 4 2 1 1 79 80 207 221
616 4 2 1 1 79 207 80 293
617 4 2 1 1 220 207 80 221
618 4 2 1 1 220 80 207 293
619 4 2 1 1 213 81 214 215
620 4 2 1 1 82 214 81 215
621 4 2 1 1 82 81 214 295
622 4 2 1 1 78 79 223 222
623 4 2 1 1 78 223 79 291
624 4 2 1 1 207 223 79 222
625 4 2 1 1 16 226 15 73
626 4 2 1 1 151 15 226 73
627 4 2 1 1 129 196 12 73
628 4 2 1 1 11 12 196 73
629 4 2 1 1 232 122 196 217
630 4 2 1 1 232 196 122 283
631 4 2 1 1 121 196 122 217
632 4 2 1 1 121 122 196 283
633 4 2 1 1 35 158 88 287
634 4 2 1 1 35 88 158 197
635 4 2 1 1 231 88 158 287
636 4 2 1 1 231 158 88 197
637 4 2 1 1 118 126 209 125
638 4 2 1 1 281 209 126 125
639 4 2 1 1 36 197 37 89
640 4 2 1 1 209 124 206 204
641 4 2 1 1 127 211 212 218
642 4 2 1 1 128 127 216 218
643 4 2 1 1 128 216 127 277
644 4 2 1 1 121 10 196 72
645 4 2 1 1 11 196 10 72
646 4 2 1 1 204 123 205 203
647 4 2 1 1 197 169 37 89
648 4 2 1 1 216 136 157 135
649 4 2 1 1 142 157 136 135
650 4 2 1 1 122 208 203 217
651 4 2 1 1 266 128 264 120
652 4 2 1 1 266 264 128 199
653 4 2 1 1 218 264 128 120
654 4 2 1 1 218 128 264 199
655 4 2 1 1 79 53 222 78
656 4 2 1 1 222 53 79 173
657 4 2 1 1 236 165 64 237
658 4 2 1 1 236 64 165 162
659 4 2 1 1 168 25 226 76
660 4 2 1 1 168 226 25 17
661 4 2 1 1 115 217 229 121
662 4 2 1 1 229 217 115 265
663 4 2 1 1 235 164 175 215
664 4 2 1 1 175 164 235 56
665 4 2 1 1 163 167 234 67
666 4 2 1 1 97 234 167 67
667 4 2 1 1 97 167 234 201
668 4 2 1 1 157 136 150 142
669 4 2 1 1 144 151 137 143
670 4 2 1 1 238 57 215 82
671 4 2 1 1 238 215 57 175
672 4 2 1 1 81 215 57 82
673 4 2 1 1 152 151 130 144
674 4 2 1 1 152 130 151 232
675 4 2 1 1 137 130 151 144
676 4 2 1 1 56 235 215 81
677 4 2 1 1 215 235 56 175
678 4 2 1 1 215 57 56 81
679 4 2 1 1 56 57 215 175
680 4 2 1 1 261 202 268 192
681 4 2 1 1 261 268 202 257
682 4 2 1 1 83 57 238 82
683 4 2 1 1 238 57 83 170
684 4 2 1 1 235 80 174 221
685 4 2 1 1 174 80 235 55
686 4 2 1 1 174 164 235 221
687 4 2 1 1 235 164 174 55
688 4 2 1 1 156 149 135 157
689 4 2 1 1 156 135 149 141
690 4 2 1 1 142 135 149 157
691 4 2 1 1 142 149 135 141
692 4 2 1 1 257 100 248 108
693 4 2 1 1 257 248 100 202
694 4 2 1 1 158 231 216 197
695 4 2 1 1 24 16 226 15
696 4 2 1 1 226 16 24 290
697 4 2 1 1 226 151 24 15
698 4 2 1 1 24 151 226 290
699 4 2 1 1 158 44 197 296
700 4 2 1 1 158 197 44 35
701 4 2 1 1 36 197 44 296
702 4 2 1 1 36 44 197 35
703 4 2 1 1 21 129 196 12
704 4 2 1 1 196 129 21 278
705 4 2 1 1 196 11 21 12
706 4 2 1 1 21 11 196 278
707 4 2 1 1 63 237 194 93
708 4 2 1 1 194 237 63 165
709 4 2 1 1 139 154 47 132
710 4 2 1 1 139 47 154 146
711 4 2 1 1 155 140 48 133
712 4 2 1 1 155 48 140 147
713 4 2 1 1 129 151 130 232
714 4 2 1 1 130 151 129 137
715 4 2 1 1 152 138 153 145
716 4 2 1 1 83 169 170 58
717 4 2 1 1 170 169 83 230
718 4 2 1 1 163 96 189 234
719 4 2 1 1 163 189 96 66
720 4 2 1 1 46 262 209 125
721 4 2 1 1 46 209 262 254
722 4 2 1 1 121 20 196 10
723 4 2 1 1 121 196 20 278
724 4 2 1 1 11 196 20 10
725 4 2 1 1 11 20 196 278
726 4 2 1 1 83 197 26 296
727 4 2 1 1 36 197 26 37
728 4 2 1 1 36 26 197 296
729 4 2 1 1 288 137 151 143
730 4 2 1 1 288 151 137 129
731 4 2 1 1 150 287 231 158
732 4 2 1 1 150 231 287 136
733 4 2 1 1 216 150 231 158
734 4 2 1 1 216 231 150 136
735 4 2 1 1 157 150 216 158
736 4 2 1 1 157 216 150 136
737 4 2 1 1 153 139 138 131
738 4 2 1 1 138 139 153 145
739 4 2 1 1 131 130 153 208
740 4 2 1 1 131 153 130 138
741 4 2 1 1 152 153 130 208
742 4 2 1 1 152 130 153 138
743 4 2 1 1 124 263 254 45
744 4 2 1 1 254 263 124 204
745 4 2 1 1 254 209 124 45
746 4 2 1 1 124 209 254 204
747 4 2 1 1 133 134 155 140
748 4 2 1 1 133 155 134 210
749 4 2 1 1 156 134 155 210
750 4 2 1 1 47 133 155 48
751 4 2 1 1 153 131 154 139
752 4 2 1 1 153 154 131 205
753 4 2 1 1 132 154 131 139
754 4 2 1 1 132 131 154 205
755 4 2 1 1 133 132 155 206
756 4 2 1 1 133 155 132 47
757 4 2 1 1 154 155 132 206
758 4 2 1 1 154 132 155 47
759 4 2 1 1 124 125 206 280
760 4 2 1 1 124 206 125 209
761 4 2 1 1 124 123 205 204
762 4 2 1 1 124 205 123 276
763 4 2 1 1 127 126 212 211
764 4 2 1 1 212 126 127 282
765 4 2 1 1 123 122 208 203
766 4 2 1 1 123 208 122 279
767 4 2 1 1 169 26 197 37
768 4 2 1 1 169 197 26 83
769 4 2 1 1 141 148 134 140
770 4 2 1 1 141 134 148 156
771 4 2 1 1 155 134 148 140
772 4 2 1 1 155 148 134 156
773 4 2 1 1 154 223 79 207
774 4 2 1 1 154 79 223 291
775 4 2 1 1 214 156 81 213
776 4 2 1 1 214 81 156 295
777 4 2 1 1 153 224 78 223
778 4 2 1 1 153 78 224 292
779 4 2 1 1 269 126 262 118
780 4 2 1 1 269 262 126 211
781 4 2 1 1 209 262 126 118
782 4 2 1 1 209 126 262 211
783 4 2 1 1 209 126 210 281
784 4 2 1 1 209 210 126 211
785 4 2 1 1 167 234 175 163
786 4 2 1 1 167 175 234 201
787 4 2 2 2 310 51 502 3
788 4 2 2 2 139 47 356 486
789 4 2 2 2 323 492 120 405
790 4 2 2 2 353 320 470 286
791 4 2 2 2 53 54 429 494
792 4 2 2 2 137 138 421 487
793 4 2 2 2 51 310 502 400
794 4 2 2 2 149 364 416 500
795 4 2 2 2 149 148 364 500
796 4 2 2 2 144 145 497 415
797 4 2 2 2 150 149 389 495
798 4 2 2 2 332 448 333 376
799 4 2 2 2 356 47 354 350
800 4 2 2 2 329 379 452 330
801 4 2 2 2 346 396 478 345
802 4 2 2 2 321 322 467 492
803 4 2 2 2 54 55 423 498
804 4 2 2 2 61 1 177 449
805 4 2 2 2 114 27 273 480
806 4 2 2 2 7 107 272 473
807 4 2 2 2 413 481 343 342
808 4 2 2 2 349 348 414 474
809 4 2 2 2 332 401 331 454
810 4 2 2 2 149 364 373 416
811 4 2 2 2 327 328 402 451
812 4 2 2 2 110 111 259 478
813 4 2 2 2 441 302 473 342
814 4 2 2 2 305 349 440 480
815 4 2 2 2 477 408 346 347
816 4 2 2 2 328 329 406 450
817 4 2 2 2 345 407 475 344
818 4 2 2 2 326 439 298 449
819 4 2 2 2 64 65 452 162
820 4 2 2 2 299 455 438 333
821 4 2 2 2 356 47 350 486
822 4 2 2 2 442 476 344 343
823 4 2 2 2 347 479 443 348
824 4 2 2 2 353 303 304 470
825 4 2 2 2 352 301 300 462
826 4 2 2 2 444 330 331 453
827 4 2 2 2 327 375 326 456
828 4 2 2 2 62 63 451 172
829 4 2 2 2 63 64 450 165
830 4 2 2 2 67 68 448 167
831 4 2 2 2 61 62 456 171
832 4 2 2 2 109 110 261 475
833 4 2 2 2 66 67 454 163
834 4 2 2 2 311 462 312 502
835 4 2 2 2 66 65 176 453
836 4 2 2 2 5 68 178 455
837 4 2 2 2 111 112 260 477
838 4 2 2 2 108 109 257 476
839 4 2 2 2 113 114 270 474
840 4 2 2 2 112 113 258 479
841 4 2 2 2 107 108 271 481
842 4 2 2 2 462 312 288 285
843 4 2 2 2 14 13 285 461
844 4 2 2 2 394 116 390 372
845 4 2 2 2 119 393 391 374
846 4 2 2 2 288 285 22 503
847 4 2 2 2 467 353 304 468
848 4 2 2 2 470 304 353 468
849 4 2 2 2 286 470 353 468
850 4 2 2 2 287 468 286 353
851 4 2 2 2 34 33 469 286
852 4 2 2 2 304 353 467 492
853 4 2 2 2 146 356 47 354
854 4 2 2 2 304 322 492 467
855 4 2 2 2 393 119 269 374
856 4 2 2 2 341 305 440 471
857 4 2 2 2 302 463 337 441
858 4 2 2 2 116 394 268 372
859 4 2 2 2 298 439 334 457
860 4 2 2 2 338 299 465 438
861 4 2 2 2 421 138 385 487
862 4 2 2 2 399 339 303 466
863 4 2 2 2 138 144 421 388
864 4 2 2 2 119 258 264 391
865 4 2 2 2 119 433 269 374
866 4 2 2 2 257 116 265 390
867 4 2 2 2 393 119 391 258
868 4 2 2 2 452 330 444 65
869 4 2 2 2 300 335 400 458
870 4 2 2 2 364 141 149 373
871 4 2 2 2 116 394 390 257
872 4 2 2 2 328 451 63 172
873 4 2 2 2 330 379 452 444
874 4 2 2 2 405 472 304 340
875 4 2 2 2 336 464 301 404
876 4 2 2 2 285 288 462 503
877 4 2 2 2 455 465 299 438
878 4 2 2 2 285 462 461 460
879 4 2 2 2 323 120 266 405
880 4 2 2 2 257 109 261 435
881 4 2 2 2 307 309 422 485
882 4 2 2 2 307 422 392 485
883 4 2 2 2 474 348 414 113
884 4 2 2 2 314 459 301 503
885 4 2 2 2 108 481 343 413
886 4 2 2 2 42 287 321 286
887 4 2 2 2 451 328 402 172
888 4 2 2 2 49 1 457 177
889 4 2 2 2 450 329 406 64
890 4 2 2 2 347 443 479 436
891 4 2 2 2 500 368 364 416
892 4 2 2 2 344 435 476 442
893 4 2 2 2 444 162 452 65
894 4 2 2 2 70 7 272 463
895 4 2 2 2 27 85 273 471
896 4 2 2 2 333 448 68 376
897 4 2 2 2 19 115 315 267
898 4 2 2 2 323 120 39 266
899 4 2 2 2 379 162 452 444
900 4 2 2 2 418 52 166 426
901 4 2 2 2 393 119 258 269
902 4 2 2 2 352 404 301 503
903 4 2 2 2 116 394 257 268
904 4 2 2 2 452 162 329 64
905 4 2 2 2 318 399 496 466
906 4 2 2 2 329 162 406 64
907 4 2 2 2 112 258 260 436
908 4 2 2 2 298 439 457 449
909 4 2 2 2 329 379 162 452
910 4 2 2 2 414 474 113 270
911 4 2 2 2 162 329 406 379
912 4 2 2 2 398 406 379 173
913 4 2 2 2 303 353 399 496
914 4 2 2 2 383 262 386 274
915 4 2 2 2 481 108 271 413
916 4 2 2 2 52 161 166 403
917 4 2 2 2 170 167 175 428
918 4 2 2 2 60 338 410 339
919 4 2 2 2 350 356 486 419
920 4 2 2 2 146 485 47 147
921 4 2 2 2 357 493 420 351
922 4 2 2 2 55 56 164 369
923 4 2 2 2 407 435 475 344
924 4 2 2 2 261 109 475 435
925 4 2 2 2 400 352 300 502
926 4 2 2 2 429 358 367 494
927 4 2 2 2 411 378 428 57
928 4 2 2 2 462 311 300 502
929 4 2 2 2 480 440 305 471
930 4 2 2 2 463 302 473 441
931 4 2 2 2 85 255 341 84
932 4 2 2 2 70 256 69 337
933 4 2 2 2 406 165 450 64
934 4 2 2 2 459 460 301 503
935 4 2 2 2 417 352 400 502
936 4 2 2 2 477 408 347 436
937 4 2 2 2 421 138 388 385
938 4 2 2 2 469 470 286 468
939 4 2 2 2 259 478 396 345
940 4 2 2 2 54 53 429 173
941 4 2 2 2 464 404 488 503
942 4 2 2 2 448 167 68 376
943 4 2 2 2 308 309 484 350
944 4 2 2 2 381 336 69 337
945 4 2 2 2 164 56 175 377
946 4 2 2 2 341 380 340 84
947 4 2 2 2 475 261 435 407
948 4 2 2 2 381 69 256 337
949 4 2 2 2 380 341 255 84
950 4 2 2 2 147 485 47 48
951 4 2 2 2 396 478 259 346
952 4 2 2 2 461 313 285 460
953 4 2 2 2 140 48 355 147
954 4 2 2 2 356 146 47 139
955 4 2 2 2 308 45 350 484
956 4 2 2 2 306 351 46 482
957 4 2 2 2 444 331 437 453
958 4 2 2 2 161 166 403 172
959 4 2 2 2 476 109 257 435
960 4 2 2 2 451 402 327 172
961 4 2 2 2 162 165 406 64
962 4 2 2 2 434 372 268 394
963 4 2 2 2 400 310 502 458
964 4 2 2 2 427 423 498 392
965 4 2 2 2 353 304 405 492
966 4 2 2 2 309 350 47 484
967 4 2 2 2 258 479 436 112
968 4 2 2 2 175 164 377 163
969 4 2 2 2 375 327 402 172
970 4 2 2 2 256 413 445 381
971 4 2 2 2 414 446 380 255
972 4 2 2 2 171 456 327 62
973 4 2 2 2 478 259 110 345
974 4 2 2 2 139 138 361 145
975 4 2 2 2 439 457 449 177
976 4 2 2 2 141 140 364 148
977 4 2 2 2 162 398 379 173
978 4 2 2 2 300 352 462 502
979 4 2 2 2 436 477 260 112
980 4 2 2 2 335 334 409 50
981 4 2 2 2 327 375 456 171
982 4 2 2 2 471 480 440 273
983 4 2 2 2 463 473 272 441
984 4 2 2 2 145 146 356 139
985 4 2 2 2 162 379 406 173
986 4 2 2 2 150 389 425 424
987 4 2 2 2 303 399 466 496
988 4 2 2 2 67 401 454 163
989 4 2 2 2 148 149 364 141
990 4 2 2 2 174 395 162 397
991 4 2 2 2 119 433 118 269
992 4 2 2 2 489 434 117 362
993 4 2 2 2 388 417 426 501
994 4 2 2 2 285 462 460 503
995 4 2 2 2 338 159 60 410
996 4 2 2 2 271 257 390 413
997 4 2 2 2 270 414 391 258
998 4 2 2 2 67 167 401 163
999 4 2 2 2 346 478 259 111
1000 4 2 2 2 68 438 333 376
1001 4 2 2 2 418 52 51 166
1002 4 2 2 2 59 5 178 465
1003 4 2 2 2 50 334 160 49
1004 4 2 2 2 167 448 332 376
1005 4 2 2 2 408 477 260 436
1006 4 2 2 2 376 159 410 170
1007 4 2 2 2 288 23 285 312
1008 4 2 2 2 142 141 389 149
1009 4 2 2 2 310 51 168 400
1010 4 2 2 2 56 368 378 377
1011 4 2 2 2 393 433 374 269
1012 4 2 2 2 164 163 437 377
1013 4 2 2 2 445 431 265 381
1014 4 2 2 2 404 267 431 381
1015 4 2 2 2 429 359 358 494
1016 4 2 2 2 264 432 446 380
1017 4 2 2 2 363 254 370 382
1018 4 2 2 2 380 432 405 266
1019 4 2 2 2 162 176 395 164
1020 4 2 2 2 51 166 168 418
1021 4 2 2 2 52 403 430 161
1022 4 2 2 2 322 304 492 472
1023 4 2 2 2 321 322 492 42
1024 4 2 2 2 472 492 323 405
1025 4 2 2 2 164 395 162 174
1026 4 2 2 2 145 356 358 361
1027 4 2 2 2 483 46 306 370
1028 4 2 2 2 308 45 483 370
1029 4 2 2 2 174 164 395 397
1030 4 2 2 2 23 311 312 502
1031 4 2 2 2 53 52 430 161
1032 4 2 2 2 436 347 477 112
1033 4 2 2 2 458 400 300 502
1034 4 2 2 2 443 414 348 113
1035 4 2 2 2 444 162 176 395
1036 4 2 2 2 435 257 476 442
1037 4 2 2 2 473 272 7 463
1038 4 2 2 2 27 480 471 273
1039 4 2 2 2 149 150 389 142
1040 4 2 2 2 162 406 165 173
1041 4 2 2 2 442 390 257 413
1042 4 2 2 2 440 471 273 85
1043 4 2 2 2 343 442 108 413
1044 4 2 2 2 272 70 463 441
1045 4 2 2 2 449 457 1 177
1046 4 2 2 2 435 109 475 344
1047 4 2 2 2 421 144 137 143
1048 4 2 2 2 67 167 448 332
1049 4 2 2 2 407 259 396 345
1050 4 2 2 2 414 443 391 258
1051 4 2 2 2 378 175 428 57
1052 4 2 2 2 50 334 409 160
1053 4 2 2 2 257 265 271 390
1054 4 2 2 2 483 306 308 370
1055 4 2 2 2 264 258 270 391
1056 4 2 2 2 165 402 328 63
1057 4 2 2 2 405 340 380 266
1058 4 2 2 2 404 336 267 381
1059 4 2 2 2 386 260 383 274
1060 4 2 2 2 389 142 150 425
1061 4 2 2 2 352 417 143 502
1062 4 2 2 2 138 137 421 144
1063 4 2 2 2 259 408 396 346
1064 4 2 2 2 51 417 400 502
1065 4 2 2 2 63 402 328 172
1066 4 2 2 2 259 396 275 407
1067 4 2 2 2 401 332 67 454
1068 4 2 2 2 436 443 479 258
1069 4 2 2 2 439 457 177 49
1070 4 2 2 2 63 165 402 172
1071 4 2 2 2 438 68 167 376
1072 4 2 2 2 375 402 403 172
1073 4 2 2 2 350 486 47 484
1074 4 2 2 2 486 350 45 484
1075 4 2 2 2 351 48 493 482
1076 4 2 2 2 59 159 60 338
1077 4 2 2 2 351 493 46 482
1078 4 2 2 2 310 51 3 168
1079 4 2 2 2 443 414 113 270
1080 4 2 2 2 407 396 275 382
1081 4 2 2 2 407 110 259 345
1082 4 2 2 2 273 255 440 85
1083 4 2 2 2 148 357 364 360
1084 4 2 2 2 70 272 256 441
1085 4 2 2 2 166 375 403 172
1086 4 2 2 2 255 341 440 85
1087 4 2 2 2 337 70 256 441
1088 4 2 2 2 442 271 108 413
1089 4 2 2 2 150 399 353 496
1090 4 2 2 2 256 413 381 441
1091 4 2 2 2 337 463 70 441
1092 4 2 2 2 471 440 341 85
1093 4 2 2 2 411 376 410 170
1094 4 2 2 2 380 440 414 255
1095 4 2 2 2 376 332 167 401
1096 4 2 2 2 286 321 469 468
1097 4 2 2 2 378 411 447 57
1098 4 2 2 2 169 399 410 170
1099 4 2 2 2 437 66 176 453
1100 4 2 2 2 456 375 326 171
1101 4 2 2 2 167 178 68 438
1102 4 2 2 2 395 379 162 397
1103 4 2 2 2 346 259 408 111
1104 4 2 2 2 174 379 398 397
1105 4 2 2 2 54 55 174 423
1106 4 2 2 2 438 159 410 376
1107 4 2 2 2 67 167 332 401
1108 4 2 2 2 300 311 458 502
1109 4 2 2 2 303 466 319 496
1110 4 2 2 2 383 408 396 274
1111 4 2 2 2 163 437 176 164
1112 4 2 2 2 62 327 171 172
1113 4 2 2 2 369 56 164 377
1114 4 2 2 2 66 437 331 453
1115 4 2 2 2 479 347 436 112
1116 4 2 2 2 428 376 411 170
1117 4 2 2 2 53 412 429 173
1118 4 2 2 2 399 411 410 170
1119 4 2 2 2 260 386 262 274
1120 4 2 2 2 327 375 171 172
1121 4 2 2 2 396 408 259 274
1122 4 2 2 2 476 109 435 344
1123 4 2 2 2 401 331 454 163
1124 4 2 2 2 351 48 482 307
1125 4 2 2 2 410 339 399 169
1126 4 2 2 2 414 446 255 270
1127 4 2 2 2 328 406 402 165
1128 4 2 2 2 413 271 256 445
1129 4 2 2 2 339 410 60 169
1130 4 2 2 2 386 420 433 269
1131 4 2 2 2 56 369 368 377
1132 4 2 2 2 457 439 334 49
1133 4 2 2 2 351 306 307 482
1134 4 2 2 2 261 475 110 407
1135 4 2 2 2 178 465 455 438
1136 4 2 2 2 338 465 59 438
1137 4 2 2 2 444 176 162 65
1138 4 2 2 2 387 419 268 434
1139 4 2 2 2 58 57 411 170
1140 4 2 2 2 171 166 172 375
1141 4 2 2 2 167 159 178 438
1142 4 2 2 2 431 267 265 381
1143 4 2 2 2 57 56 378 175
1144 4 2 2 2 323 322 492 472
1145 4 2 2 2 350 309 47 354
1146 4 2 2 2 426 403 430 52
1147 4 2 2 2 264 432 380 266
1148 4 2 2 2 173 162 398 174
1149 4 2 2 2 257 261 268 435
1150 4 2 2 2 167 159 438 376
1151 4 2 2 2 257 271 108 442
1152 4 2 2 2 419 268 263 387
1153 4 2 2 2 409 375 418 166
1154 4 2 2 2 260 258 269 436
1155 4 2 2 2 257 108 476 442
1156 4 2 2 2 368 148 500 364
1157 4 2 2 2 270 113 443 258
1158 4 2 2 2 142 353 405 492
1159 4 2 2 2 430 415 426 52
1160 4 2 2 2 161 412 53 173
1161 4 2 2 2 396 383 274 275
1162 4 2 2 2 261 110 259 407
1163 4 2 2 2 439 160 177 171
1164 4 2 2 2 494 359 358 146
1165 4 2 2 2 267 256 265 381
1166 4 2 2 2 464 301 404 503
1167 4 2 2 2 165 328 406 450
1168 4 2 2 2 263 363 419 387
1169 4 2 2 2 264 380 255 266
1170 4 2 2 2 167 159 376 170
1171 4 2 2 2 359 354 358 146
1172 4 2 2 2 479 443 113 258
1173 4 2 2 2 274 383 254 275
1174 4 2 2 2 346 408 477 111
1175 4 2 2 2 254 383 370 382
1176 4 2 2 2 256 381 337 441
1177 4 2 2 2 440 380 341 255
1178 4 2 2 2 336 69 267 381
1179 4 2 2 2 167 428 376 401
1180 4 2 2 2 313 459 314 503
1181 4 2 2 2 437 395 164 377
1182 4 2 2 2 418 400 409 168
1183 4 2 2 2 169 410 159 170
1184 4 2 2 2 84 380 340 266
1185 4 2 2 2 407 475 110 345
1186 4 2 2 2 164 174 55 397
1187 4 2 2 2 369 164 55 397
1188 4 2 2 2 256 267 69 381
1189 4 2 2 2 84 255 380 266
1190 4 2 2 2 259 260 408 111
1191 4 2 2 2 144 415 388 371
1192 4 2 2 2 150 353 424 425
1193 4 2 2 2 427 498 55 392
1194 4 2 2 2 393 436 386 269
1195 4 2 2 2 149 373 389 416
1196 4 2 2 2 444 379 162 395
1197 4 2 2 2 412 402 406 165
1198 4 2 2 2 263 254 363 382
1199 4 2 2 2 399 353 424 150
1200 4 2 2 2 408 260 477 111
1201 4 2 2 2 326 439 177 171
1202 4 2 2 2 254 383 366 370
1203 4 2 2 2 375 409 160 166
1204 4 2 2 2 312 462 461 285
1205 4 2 2 2 175 428 401 377
1206 4 2 2 2 392 307 147 355
1207 4 2 2 2 115 116 431 265
1208 4 2 2 2 257 271 442 413
1209 4 2 2 2 161 165 412 173
1210 4 2 2 2 405 304 472 492
1211 4 2 2 2 58 399 150 496
1212 4 2 2 2 417 400 418 51
1213 4 2 2 2 119 432 264 120
1214 4 2 2 2 444 437 176 453
1215 4 2 2 2 443 414 270 258
1216 4 2 2 2 417 51 143 502
1217 4 2 2 2 494 429 359 54
1218 4 2 2 2 376 428 167 170
1219 4 2 2 2 162 379 398 174
1220 4 2 2 2 275 396 383 382
1221 4 2 2 2 375 409 439 160
1222 4 2 2 2 450 165 328 63
1223 4 2 2 2 275 261 259 407
1224 4 2 2 2 178 59 465 438
1225 4 2 2 2 311 310 458 502
1226 4 2 2 2 319 318 496 466
1227 4 2 2 2 160 334 439 49
1228 4 2 2 2 367 430 412 53
1229 4 2 2 2 412 402 165 161
1230 4 2 2 2 255 446 264 270
1231 4 2 2 2 338 59 159 438
1232 4 2 2 2 265 256 271 445
1233 4 2 2 2 501 426 388 144
1234 4 2 2 2 383 254 275 382
1235 4 2 2 2 161 403 402 172
1236 4 2 2 2 387 261 263 382
1237 4 2 2 2 410 159 60 169
1238 4 2 2 2 440 414 255 270
1239 4 2 2 2 163 401 437 377
1240 4 2 2 2 356 117 486 419
1241 4 2 2 2 55 369 397 427
1242 4 2 2 2 256 271 413 441
1243 4 2 2 2 177 160 439 49
1244 4 2 2 2 161 165 172 402
1245 4 2 2 2 493 357 420 118
1246 4 2 2 2 465 5 178 455
1247 4 2 2 2 435 387 268 394
1248 4 2 2 2 439 326 375 171
1249 4 2 2 2 408 260 259 274
1250 4 2 2 2 383 260 386 408
1251 4 2 2 2 261 275 263 382
1252 4 2 2 2 410 338 159 438
1253 4 2 2 2 378 175 56 377
1254 4 2 2 2 400 418 51 168
1255 4 2 2 2 367 412 429 53
1256 4 2 2 2 454 331 66 163
1257 4 2 2 2 423 422 498 392
1258 4 2 2 2 160 439 375 171
1259 4 2 2 2 308 45 370 363
1260 4 2 2 2 366 306 46 370
1261 4 2 2 2 403 426 166 52
1262 4 2 2 2 53 429 367 494
1263 4 2 2 2 137 352 404 421
1264 4 2 2 2 262 420 386 269
1265 4 2 2 2 375 160 171 166
1266 4 2 2 2 415 367 145 497
1267 4 2 2 2 418 403 426 166
1268 4 2 2 2 366 420 386 262
1269 4 2 2 2 263 117 268 419
1270 4 2 2 2 385 390 116 372
1271 4 2 2 2 263 363 387 382
1272 4 2 2 2 360 56 369 368
1273 4 2 2 2 273 440 255 270
1274 4 2 2 2 118 433 420 269
1275 4 2 2 2 285 460 313 503
1276 4 2 2 2 271 256 272 441
1277 4 2 2 2 384 391 374 119
1278 4 2 2 2 58 411 424 399
1279 4 2 2 2 419 117 268 434
1280 4 2 2 2 331 401 437 163
1281 4 2 2 2 369 164 395 377
1282 4 2 2 2 174 162 379 397
1283 4 2 2 2 370 45 254 363
1284 4 2 2 2 429 398 359 54
1285 4 2 2 2 169 58 399 170
1286 4 2 2 2 436 260 386 269
1287 4 2 2 2 431 115 267 404
1288 4 2 2 2 120 405 432 266
1289 4 2 2 2 408 383 260 274
1290 4 2 2 2 366 262 383 254
1291 4 2 2 2 45 308 350 363
1292 4 2 2 2 348 479 443 113
1293 4 2 2 2 407 261 387 382
1294 4 2 2 2 398 423 174 397
1295 4 2 2 2 351 306 46 366
1296 4 2 2 2 439 409 334 160
1297 4 2 2 2 445 265 256 381
1298 4 2 2 2 415 388 426 144
1299 4 2 2 2 442 108 476 343
1300 4 2 2 2 483 45 254 370
1301 4 2 2 2 351 355 48 307
1302 4 2 2 2 353 405 425 142
1303 4 2 2 2 380 446 264 255
1304 4 2 2 2 177 61 326 171
1305 4 2 2 2 474 414 349 270
1306 4 2 2 2 413 271 481 342
1307 4 2 2 2 424 58 399 150
1308 4 2 2 2 115 267 265 431
1309 4 2 2 2 415 367 361 145
1310 4 2 2 2 54 423 422 498
1311 4 2 2 2 432 264 120 266
1312 4 2 2 2 398 412 406 173
1313 4 2 2 2 483 254 46 370
1314 4 2 2 2 385 138 388 371
1315 4 2 2 2 441 473 272 342
1316 4 2 2 2 349 440 480 273
1317 4 2 2 2 389 149 447 495
1318 4 2 2 2 62 451 327 172
1319 4 2 2 2 400 335 409 168
1320 4 2 2 2 398 423 359 54
1321 4 2 2 2 469 470 320 286
1322 4 2 2 2 263 275 254 382
1323 4 2 2 2 275 261 407 382
1324 4 2 2 2 59 178 159 438
1325 4 2 2 2 262 386 366 383
1326 4 2 2 2 326 439 449 177
1327 4 2 2 2 402 412 430 161
1328 4 2 2 2 263 254 45 363
1329 4 2 2 2 398 423 54 174
1330 4 2 2 2 437 176 66 163
1331 4 2 2 2 58 411 399 170
1332 4 2 2 2 408 260 386 436
1333 4 2 2 2 361 367 358 145
1334 4 2 2 2 401 163 175 377
1335 4 2 2 2 369 395 164 397
1336 4 2 2 2 260 262 386 269
1337 4 2 2 2 254 262 383 274
1338 4 2 2 2 60 339 169 318
1339 4 2 2 2 176 437 395 164
1340 4 2 2 2 368 360 148 364
1341 4 2 2 2 169 6 60 318
1342 4 2 2 2 373 389 384 141
1343 4 2 2 2 423 498 55 427
1344 4 2 2 2 50 409 335 168
1345 4 2 2 2 440 349 414 270
1346 4 2 2 2 271 413 441 342
1347 4 2 2 2 387 268 261 435
1348 4 2 2 2 261 387 435 407
1349 4 2 2 2 397 423 55 427
1350 4 2 2 2 145 356 361 139
1351 4 2 2 2 148 357 140 364
1352 4 2 2 2 393 436 269 258
1353 4 2 2 2 262 118 420 269
1354 4 2 2 2 117 356 362 419
1355 4 2 2 2 364 365 357 140
1356 4 2 2 2 417 352 143 421
1357 4 2 2 2 420 357 365 118
1358 4 2 2 2 402 430 403 161
1359 4 2 2 2 453 176 444 65
1360 4 2 2 2 53 430 412 161
1361 4 2 2 2 331 437 66 163
1362 4 2 2 2 69 267 315 336
1363 4 2 2 2 362 139 361 356
1364 4 2 2 2 459 313 460 503
1365 4 2 2 2 84 340 323 266
1366 4 2 2 2 267 9 69 315
1367 4 2 2 2 323 29 84 266
1368 4 2 2 2 4 169 318 6
1369 4 2 2 2 416 378 447 57
1370 4 2 2 2 147 427 392 355
1371 4 2 2 2 429 398 54 173
1372 4 2 2 2 394 390 257 442
1373 4 2 2 2 393 391 443 258
1374 4 2 2 2 422 359 423 54
1375 4 2 2 2 61 456 326 171
1376 4 2 2 2 262 366 46 254
1377 4 2 2 2 409 50 160 168
1378 4 2 2 2 447 416 149 389
1379 4 2 2 2 268 257 435 394
1380 4 2 2 2 398 54 173 174
1381 4 2 2 2 254 366 46 370
1382 4 2 2 2 404 431 115 421
1383 4 2 2 2 55 174 423 397
1384 4 2 2 2 107 272 473 342
1385 4 2 2 2 114 349 480 273
1386 4 2 2 2 403 418 375 166
1387 4 2 2 2 107 481 271 342
1388 4 2 2 2 386 433 393 269
1389 4 2 2 2 114 474 349 270
1390 4 2 2 2 453 444 330 65
1391 4 2 2 2 322 323 492 39
1392 4 2 2 2 434 268 387 394
1393 4 2 2 2 274 259 396 275
1394 4 2 2 2 428 175 378 377
1395 4 2 2 2 138 144 388 371
1396 4 2 2 2 115 137 488 404
1397 4 2 2 2 61 326 449 177
1398 4 2 2 2 120 405 425 432
1399 4 2 2 2 142 405 120 492
1400 4 2 2 2 147 55 498 392
1401 4 2 2 2 311 310 502 3
1402 4 2 2 2 319 318 4 496
1403 4 2 2 2 426 501 52 144
1404 4 2 2 2 165 406 412 173
1405 4 2 2 2 149 373 141 389
1406 4 2 2 2 263 268 261 387
1407 4 2 2 2 19 267 315 9
1408 4 2 2 2 266 39 323 29
1409 4 2 2 2 499 148 56 360
1410 4 2 2 2 176 437 444 395
1411 4 2 2 2 325 492 39 322
1412 4 2 2 2 325 42 492 322
1413 4 2 2 2 335 310 50 168
1414 4 2 2 2 422 354 359 146
1415 4 2 2 2 319 324 43 496
1416 4 2 2 2 23 311 502 316
1417 4 2 2 2 4 324 319 496
1418 4 2 2 2 502 311 3 316
1419 4 2 2 2 50 310 2 168
1420 4 2 2 2 146 54 422 498
1421 4 2 2 2 420 365 433 118
1422 4 2 2 2 419 362 117 434
1423 4 2 2 2 404 115 137 421
1424 4 2 2 2 168 3 310 2
1425 4 2 2 2 356 117 139 486
1426 4 2 2 2 52 415 426 144
1427 4 2 2 2 398 429 412 173
1428 4 2 2 2 425 405 120 142
1429 4 2 2 2 390 431 265 445
1430 4 2 2 2 493 357 118 140
1431 4 2 2 2 432 391 264 446
1432 4 2 2 2 301 464 314 503
1433 4 2 2 2 360 148 56 368
1434 4 2 2 2 145 367 53 497
1435 4 2 2 2 480 305 27 471
1436 4 2 2 2 7 302 473 463
1437 4 2 2 2 299 5 465 455
1438 4 2 2 2 457 1 298 449
1439 4 2 2 2 371 385 116 372
1440 4 2 2 2 384 374 373 119
1441 4 2 2 2 55 147 427 392
1442 4 2 2 2 137 143 352 421
1443 4 2 2 2 149 500 416 57
1444 4 2 2 2 14 23 312 285
1445 4 2 2 2 499 55 147 427
1446 4 2 2 2 313 13 461 285
1447 4 2 2 2 500 56 148 368
1448 4 2 2 2 307 48 147 355
1449 4 2 2 2 257 435 394 442
1450 4 2 2 2 443 436 393 258
1451 4 2 2 2 144 52 415 497
1452 4 2 2 2 149 416 447 57
1453 4 2 2 2 422 359 54 146
1454 4 2 2 2 149 447 495 57
1455 4 2 2 2 54 359 494 146
1456 4 2 2 2 461 14 312 285
1457 4 2 2 2 150 353 425 142
1458 4 2 2 2 356 117 362 139
1459 4 2 2 2 118 357 365 140
1460 4 2 2 2 486 45 47 484
1461 4 2 2 2 493 48 46 482
1462 4 2 2 2 320 43 34 286
1463 4 2 2 2 33 42 321 286
1464 4 2 2 2 321 469 33 286
1465 4 2 2 2 489 117 139 362
1466 4 2 2 2 490 140 118 365
1467 4 2 2 2 137 115 487 421
1468 4 2 2 2 320 34 469 286
1469 4 2 2 2 353 150 287 142
1470 4 2 2 2 120 142 491 425
1471 4 2 2 2 501 417 51 143
1472 4 2 2 2 385 116 138 371
1473 4 2 2 2 490 373 119 141
1474 4 2 2 2 489 116 371 138
1475 4 2 2 2 119 373 384 141
1476 4 2 2 2 116 138 487 385
1477 4 2 2 2 254 46 45 483
1478 4 2 2 2 141 119 491 384
1479 4 2 2 2 22 313 314 503
1480 4 2 2 2 42 142 321 287
1481 4 2 2 2 143 312 288 462
1482 4 2 2 2 23 143 312 288
1483 4 2 2 2 143 23 312 502
1484 4 2 2 2 142 42 321 492
1485 4 2 2 2 323 492 39 120
1486 4 2 2 2 143 462 352 502
1487 4 2 2 2 143 312 462 502
1488 4 2 2 2 115 19 315 488
1489 4 2 2 2 137 288 22 503
1490 4 2 2 2 22 488 137 503
1491 4 2 2 2 140 48 357 355
1492 4 2 2 2 140 357 48 493
1493 4 2 2 2 351 357 48 355
1494 4 2 2 2 351 48 357 493
1495 4 2 2 2 315 488 404 115
1496 4 2 2 2 404 488 315 464
1497 4 2 2 2 404 267 315 115
1498 4 2 2 2 468 321 287 286
1499 4 2 2 2 141 140 373 364
1500 4 2 2 2 141 373 140 490
1501 4 2 2 2 365 373 140 364
1502 4 2 2 2 365 140 373 490
1503 4 2 2 2 362 139 371 361
1504 4 2 2 2 362 371 139 489
1505 4 2 2 2 138 371 139 361
1506 4 2 2 2 138 139 371 489
1507 4 2 2 2 142 141 425 389
1508 4 2 2 2 142 425 141 491
1509 4 2 2 2 384 425 141 389
1510 4 2 2 2 384 141 425 491
1511 4 2 2 2 45 350 419 363
1512 4 2 2 2 419 350 45 486
1513 4 2 2 2 45 117 419 486
1514 4 2 2 2 351 46 420 366
1515 4 2 2 2 351 420 46 493
1516 4 2 2 2 118 46 420 493
1517 4 2 2 2 147 355 148 499
1518 4 2 2 2 360 355 148 357
1519 4 2 2 2 360 148 355 499
1520 4 2 2 2 358 145 354 356
1521 4 2 2 2 146 354 145 356
1522 4 2 2 2 373 119 365 490
1523 4 2 2 2 373 365 119 374
1524 4 2 2 2 433 119 365 374
1525 4 2 2 2 55 56 427 499
1526 4 2 2 2 55 427 56 369
1527 4 2 2 2 360 427 56 499
1528 4 2 2 2 360 56 427 369
1529 4 2 2 2 53 52 367 430
1530 4 2 2 2 53 367 52 497
1531 4 2 2 2 415 367 52 430
1532 4 2 2 2 415 52 367 497
1533 4 2 2 2 116 489 434 117
1534 4 2 2 2 434 268 116 117
1535 4 2 2 2 116 268 434 372
1536 4 2 2 2 424 58 447 411
1537 4 2 2 2 57 447 58 411
1538 4 2 2 2 57 58 447 495
1539 4 2 2 2 144 143 388 501
1540 4 2 2 2 144 388 143 421
1541 4 2 2 2 417 388 143 501
1542 4 2 2 2 417 143 388 421
1543 4 2 2 2 416 57 368 378
1544 4 2 2 2 416 368 57 500
1545 4 2 2 2 56 368 57 378
1546 4 2 2 2 56 57 368 500
1547 4 2 2 2 52 51 426 418
1548 4 2 2 2 52 426 51 501
1549 4 2 2 2 417 426 51 418
1550 4 2 2 2 417 51 426 501
1551 4 2 2 2 421 115 385 431
1552 4 2 2 2 421 385 115 487
1553 4 2 2 2 116 385 115 431
1554 4 2 2 2 116 115 385 487
1555 4 2 2 2 120 425 384 432
1556 4 2 2 2 384 425 120 491
1557 4 2 2 2 384 119 120 432
1558 4 2 2 2 120 119 384 491
1559 4 2 2 2 286 320 287 353
1560 4 2 2 2 286 287 320 43
1561 4 2 2 2 320 319 353 470
1562 4 2 2 2 303 319 353 496
1563 4 2 2 2 303 353 319 470
1564 4 2 2 2 147 485 307 392
1565 4 2 2 2 147 307 485 48
1566 4 2 2 2 503 462 301 352
1567 4 2 2 2 503 301 462 460
1568 4 2 2 2 503 137 404 488
1569 4 2 2 2 503 404 137 352
1570 4 2 2 2 485 146 309 422
1571 4 2 2 2 485 309 146 47
1572 4 2 2 2 354 309 146 422
1573 4 2 2 2 354 146 309 47
1574 4 2 2 2 355 140 148 357
1575 4 2 2 2 355 148 140 147
1576 4 2 2 2 399 318 339 466
1577 4 2 2 2 399 339 318 169
1578 4 2 2 2 319 43 353 496
1579 4 2 2 2 319 353 43 320
1580 4 2 2 2 150 353 43 496
1581 4 2 2 2 169 318 58 4
1582 4 2 2 2 169 58 318 399
1583 4 2 2 2 496 58 318 4
1584 4 2 2 2 496 318 58 399
1585 4 2 2 2 428 57 170 411
1586 4 2 2 2 170 57 428 175
1587 4 2 2 2 358 146 145 494
1588 4 2 2 2 145 146 358 354
1589 4 2 2 2 409 166 168 160
1590 4 2 2 2 168 166 409 418
1591 4 2 2 2 355 499 427 360
1592 4 2 2 2 355 427 499 147
1593 4 2 2 2 175 401 167 163
1594 4 2 2 2 175 167 401 428
1595 4 2 2 2 349 273 270 440
1596 4 2 2 2 270 273 349 114
1597 4 2 2 2 367 494 145 53
1598 4 2 2 2 145 494 367 358
1599 4 2 2 2 342 272 271 107
1600 4 2 2 2 342 271 272 441
1601 4 2 2 2 116 431 390 385
1602 4 2 2 2 116 390 431 265
1603 4 2 2 2 432 119 391 384
1604 4 2 2 2 432 391 119 264
1605 4 2 2 2 405 323 340 266
1606 4 2 2 2 405 340 323 472
1607 4 2 2 2 400 310 335 168
1608 4 2 2 2 400 335 310 458
1609 4 2 2 2 313 285 22 13
1610 4 2 2 2 22 285 313 503
1611 4 2 2 2 445 271 390 413
1612 4 2 2 2 445 390 271 265
1613 4 2 2 2 270 446 391 414
1614 4 2 2 2 270 391 446 264
1615 4 2 2 2 144 371 361 415
1616 4 2 2 2 361 371 144 138
1617 4 2 2 2 361 145 144 415
1618 4 2 2 2 144 145 361 138
1619 4 2 2 2 438 68 455 178
1620 4 2 2 2 455 68 438 333
1621 4 2 2 2 19 314 488 317
1622 4 2 2 2 22 488 314 317
1623 4 2 2 2 22 314 488 503
1624 4 2 2 2 392 147 422 498
1625 4 2 2 2 392 422 147 485
1626 4 2 2 2 146 422 147 498
1627 4 2 2 2 146 147 422 485
1628 4 2 2 2 353 468 142 287
1629 4 2 2 2 321 142 468 287
1630 4 2 2 2 353 492 468 467
1631 4 2 2 2 353 468 492 142
1632 4 2 2 2 321 468 492 467
1633 4 2 2 2 321 492 468 142
1634 4 2 2 2 118 119 365 433
1635 4 2 2 2 118 365 119 490
1636 4 2 2 2 462 143 503 288
1637 4 2 2 2 462 503 143 352
1638 4 2 2 2 137 503 143 288
1639 4 2 2 2 137 143 503 352
1640 4 2 2 2 315 404 336 267
1641 4 2 2 2 336 404 315 464
1642 4 2 2 2 419 45 263 117
1643 4 2 2 2 263 45 419 363
1644 4 2 2 2 46 420 262 118
1645 4 2 2 2 46 262 420 366
1646 4 2 2 2 116 371 362 489
1647 4 2 2 2 362 371 116 372
1648 4 2 2 2 362 434 116 489
1649 4 2 2 2 116 434 362 372
1650 4 2 2 2 58 447 150 424
1651 4 2 2 2 58 150 447 495
1652 4 2 2 2 389 150 447 424
1653 4 2 2 2 389 447 150 495
1654 4 2 2 2 43 287 353 150
1655 4 2 2 2 43 353 287 320
1656 4 2 2 2 314 488 315 19
1657 4 2 2 2 464 488 314 503
1658 4 2 2 2 314 488 464 315
$EndElements
