$MeshFormat
2.2 0 8
$EndMeshFormat
$PhysicalNames
2
3 1 "teflon_OPEM_RESERVED_1"
3 2 "air_OPEM_RESERVED_2"
$EndPhysicalNames
$Nodes
157
1 0 0 0
2 0 0 0.1
3 0.02 0 0
4 0.02 0 0.1
5 0.01 0 0
6 0.01 0 0.1
7 0.02 0.0045 0
8 0.02 0.0045 0.1
9 0 0.0045 0
10 0 0.0045 0.1
11 0.01 0.0045 0
12 0.01 0.0045 0.1
13 0 0 0.009999999999999992
14 0 0 0.01999999999999997
15 0 0 0.02999999999999996
16 0 0 0.03999999999999995
17 0 0 0.04999999999999995
18 0 0 0.05999999999999996
19 0 0 0.06999999999999998
20 0 0 0.07999999999999997
21 0 0 0.09
22 0.02 0 0.009999999999999992
23 0.02 0 0.01999999999999997
24 0.02 0 0.02999999999999996
25 0.02 0 0.03999999999999995
26 0.02 0 0.04999999999999995
27 0.02 0 0.05999999999999996
28 0.02 0 0.06999999999999998
29 0.02 0 0.07999999999999997
30 0.02 0 0.09
31 0.02 0.0045 0.009999999999999992
32 0.02 0.0045 0.01999999999999997
33 0.02 0.0045 0.02999999999999996
34 0.02 0.0045 0.03999999999999995
35 0.02 0.0045 0.04999999999999995
36 0.02 0.0045 0.05999999999999996
37 0.02 0.0045 0.06999999999999998
38 0.02 0.0045 0.07999999999999997
39 0.02 0.0045 0.09
40 0 0.0045 0.009999999999999992
41 0 0.0045 0.01999999999999997
42 0 0.0045 0.02999999999999996
43 0 0.0045 0.03999999999999995
44 0 0.0045 0.04999999999999995
45 0 0.0045 0.05999999999999996
46 0 0.0045 0.06999999999999998
47 0 0.0045 0.07999999999999997
48 0 0.0045 0.09
49 0.009550188819175923 0 0.02498761177815052
50 0.01035274471909375 0 0.04498265648941073
51 0.009544726517863894 0 0.07499999999999997
52 0.01102317462994015 0 0.08500000000000001
53 0.01133974596215563 0 0.01499999999999998
54 0.009487717171703491 0 0.05499852521168455
55 0.01026759928556439 0 0.06499982442996241
56 0.009983822256378278 0 0.03499504471126018
57 0.007336822831633151 0 0.006574516661590242
58 0.007267892233693909 0 0.09344040574809809
59 0.01405457692304927 0 0.09406981558472929
60 0.01422017935193147 0 0.005798121337236099
61 0.02 0.00225 0.095
62 0.02 0.002249999999999999 0.08499999999999998
63 0.02 0.00225 0.004999999999999996
64 0.02 0.00225 0.06499999999999997
65 0.02 0.00225 0.02499999999999997
66 0.02 0.00225 0.04499999999999995
67 0.02 0.002249999999999999 0.05499999999999996
68 0.02 0.002249999999999999 0.01499999999999998
69 0.02 0.00225 0.07499999999999998
70 0.02 0.00225 0.03499999999999995
71 0.01044981118082408 0.0045 0.02498761177815052
72 0.009647255280906247 0.0045 0.04498265648941073
73 0.01045527348213611 0.0045 0.07499999999999997
74 0.008976825370059852 0.0045 0.08500000000000001
75 0.008660254037844369 0.0045 0.01499999999999998
76 0.01051228282829651 0.0045 0.05499852521168455
77 0.009732400714435614 0.0045 0.06499982442996241
78 0.01001617774362172 0.0045 0.03499504471126018
79 0.01266317716836685 0.0045 0.006574516661590242
80 0.01273210776630609 0.0045 0.09344040574809809
81 0.005945423076950734 0.0045 0.09406981558472929
82 0.005779820648068534 0.0045 0.005798121337236099
83 0 0.002249999999999999 0.08499999999999999
84 0 0.002249999999999999 0.02499999999999997
85 0 0.002249999999999999 0.004999999999999996
86 0 0.00225 0.04499999999999995
87 0 0.00225 0.05499999999999995
88 0 0.00225 0.01499999999999998
89 0 0.00225 0.06499999999999997
90 0 0.00225 0.095
91 0 0.002249999999999999 0.07499999999999997
92 0 0.00225 0.03499999999999995
93 0.005000000000000001 0.00225 0
94 0.015 0.00225 0
95 0.005000000000000001 0.00225 0.1
96 0.015 0.00225 0.1
97 0.02 0.008999999999999999 0
98 0.02 0.008999999999999999 0.1
99 0 0.008999999999999999 0
100 0 0.008999999999999999 0.1
101 0.01 0.008999999999999999 0
102 0.01 0.008999999999999999 0.1
103 0.02 0.008999999999999999 0.009999999999999992
104 0.02 0.008999999999999999 0.01999999999999997
105 0.02 0.008999999999999999 0.02999999999999996
106 0.02 0.008999999999999999 0.03999999999999995
107 0.02 0.008999999999999999 0.04999999999999995
108 0.02 0.008999999999999999 0.05999999999999996
109 0.02 0.008999999999999999 0.06999999999999998
110 0.02 0.008999999999999999 0.07999999999999997
111 0.02 0.008999999999999999 0.09
112 0 0.008999999999999999 0.009999999999999992
113 0 0.008999999999999999 0.01999999999999997
114 0 0.008999999999999999 0.02999999999999996
115 0 0.008999999999999999 0.03999999999999995
116 0 0.008999999999999999 0.04999999999999995
117 0 0.008999999999999999 0.05999999999999996
118 0 0.008999999999999999 0.06999999999999998
119 0 0.008999999999999999 0.07999999999999997
120 0 0.008999999999999999 0.09
121 0.02 0.006749999999999999 0.09500000000000001
122 0.02 0.006749999999999999 0.08499999999999998
123 0.02 0.00675 0.004999999999999996
124 0.02 0.006749999999999999 0.06499999999999997
125 0.02 0.006749999999999999 0.02499999999999997
126 0.02 0.00675 0.04499999999999995
127 0.02 0.006749999999999999 0.05499999999999996
128 0.02 0.006749999999999999 0.01499999999999998
129 0.02 0.006749999999999999 0.07499999999999998
130 0.02 0.006749999999999999 0.03499999999999995
131 0.01044981118082408 0.008999999999999999 0.02498761177815052
132 0.009647255280906247 0.008999999999999999 0.04498265648941073
133 0.01045527348213611 0.008999999999999999 0.07499999999999997
134 0.008976825370059852 0.008999999999999999 0.08500000000000001
135 0.008660254037844369 0.008999999999999999 0.01499999999999998
136 0.01051228282829651 0.008999999999999999 0.05499852521168455
137 0.009732400714435614 0.008999999999999999 0.06499982442996241
138 0.01001617774362172 0.008999999999999999 0.03499504471126018
139 0.01266317716836685 0.008999999999999999 0.006574516661590242
140 0.01273210776630609 0.008999999999999999 0.09344040574809809
141 0.005945423076950734 0.008999999999999999 0.09406981558472929
142 0.005779820648068534 0.008999999999999999 0.005798121337236099
143 0 0.006749999999999999 0.08499999999999999
144 0 0.006749999999999999 0.004999999999999996
145 0 0.00675 0.06499999999999997
146 0 0.006749999999999999 0.02499999999999997
147 0 0.006749999999999999 0.04499999999999995
148 0 0.00675 0.05499999999999996
149 0 0.006749999999999999 0.095
150 0 0.006750000000000001 0.01499999999999998
151 0 0.006749999999999999 0.07499999999999998
152 0 0.006749999999999999 0.03499999999999995
153 0.015 0.006749999999999999 0
154 0.005000000000000001 0.006749999999999999 0
155 0.015 0.006749999999999999 0.1
156 0.005000000000000001 0.006749999999999999 0.1
157 0.009548739441498599 0.006771944892461908 0.09573018136233037
$EndNodes
$Elements
431
1 4 2 1 1 2 6 58 95
2 4 2 1 1 8 12 80 96
3 4 2 1 1 57 5 1 93
4 4 2 1 1 11 7 79 94
5 4 2 1 1 36 37 77 64
6 4 2 1 1 19 18 89 55
7 4 2 1 1 15 16 56 92
8 4 2 1 1 33 34 78 70
9 4 2 1 1 17 16 86 50
10 4 2 1 1 35 34 66 72
11 4 2 1 1 70 56 24 25
12 4 2 1 1 43 42 78 92
13 4 2 1 1 42 41 71 84
14 4 2 1 1 24 49 65 23
15 4 2 1 1 28 69 51 29
16 4 2 1 1 47 46 73 91
17 4 2 1 1 54 67 27 26
18 4 2 1 1 45 44 76 87
19 4 2 1 1 96 4 6 59
20 4 2 1 1 12 10 81 95
21 4 2 1 1 9 11 82 93
22 4 2 1 1 94 5 3 60
23 4 2 1 1 40 9 82 85
24 4 2 1 1 60 3 63 22
25 4 2 1 1 83 21 20 52
26 4 2 1 1 39 38 62 74
27 4 2 1 1 30 59 4 61
28 4 2 1 1 10 48 81 90
29 4 2 1 1 44 43 72 86
30 4 2 1 1 50 66 26 25
31 4 2 1 1 68 75 32 31
32 4 2 1 1 14 13 88 53
33 4 2 1 1 27 64 55 28
34 4 2 1 1 46 45 77 89
35 4 2 1 1 36 35 67 76
36 4 2 1 1 87 18 17 54
37 4 2 1 1 61 80 8 39
38 4 2 1 1 21 90 2 58
39 4 2 1 1 30 29 52 62
40 4 2 1 1 48 47 74 83
41 4 2 1 1 31 7 63 79
42 4 2 1 1 1 13 57 85
43 4 2 1 1 37 38 73 69
44 4 2 1 1 20 19 91 51
45 4 2 1 1 33 32 65 71
46 4 2 1 1 14 15 49 84
47 4 2 1 1 23 53 68 22
48 4 2 1 1 41 40 75 88
49 4 2 1 1 93 1 57 85
50 4 2 1 1 7 63 79 94
51 4 2 1 1 58 90 2 95
52 4 2 1 1 80 61 8 96
53 4 2 1 1 70 78 56 25
54 4 2 1 1 92 43 56 78
55 4 2 1 1 43 56 16 92
56 4 2 1 1 78 70 34 25
57 4 2 1 1 92 56 15 42
58 4 2 1 1 78 33 70 24
59 4 2 1 1 70 56 78 24
60 4 2 1 1 42 92 56 78
61 4 2 1 1 89 77 19 55
62 4 2 1 1 64 77 55 37
63 4 2 1 1 64 55 77 36
64 4 2 1 1 89 18 77 55
65 4 2 1 1 37 55 64 28
66 4 2 1 1 46 77 19 89
67 4 2 1 1 50 34 66 25
68 4 2 1 1 86 16 43 72
69 4 2 1 1 86 72 17 50
70 4 2 1 1 66 35 72 50
71 4 2 1 1 55 64 27 36
72 4 2 1 1 18 77 45 89
73 4 2 1 1 34 66 72 50
74 4 2 1 1 72 86 16 50
75 4 2 1 1 49 84 42 71
76 4 2 1 1 49 65 71 24
77 4 2 1 1 51 91 47 73
78 4 2 1 1 29 69 51 73
79 4 2 1 1 28 51 69 73
80 4 2 1 1 51 46 91 73
81 4 2 1 1 84 49 41 71
82 4 2 1 1 71 65 49 23
83 4 2 1 1 84 15 49 42
84 4 2 1 1 71 65 33 24
85 4 2 1 1 66 26 35 50
86 4 2 1 1 86 72 44 17
87 4 2 1 1 68 75 53 32
88 4 2 1 1 75 88 13 53
89 4 2 1 1 68 75 31 53
90 4 2 1 1 75 14 88 53
91 4 2 1 1 27 67 54 76
92 4 2 1 1 54 87 45 76
93 4 2 1 1 26 54 67 76
94 4 2 1 1 44 87 54 76
95 4 2 1 1 91 19 46 51
96 4 2 1 1 69 37 28 73
97 4 2 1 1 72 56 43 78
98 4 2 1 1 50 56 78 25
99 4 2 1 1 27 67 76 36
100 4 2 1 1 45 18 87 54
101 4 2 1 1 62 52 74 38
102 4 2 1 1 74 83 20 52
103 4 2 1 1 21 83 74 52
104 4 2 1 1 62 74 52 39
105 4 2 1 1 87 17 44 54
106 4 2 1 1 26 67 35 76
107 4 2 1 1 16 56 43 72
108 4 2 1 1 78 34 50 25
109 4 2 1 1 71 33 78 24
110 4 2 1 1 56 49 15 42
111 4 2 1 1 78 56 71 24
112 4 2 1 1 69 29 38 73
113 4 2 1 1 47 20 91 51
114 4 2 1 1 16 56 72 50
115 4 2 1 1 72 78 34 50
116 4 2 1 1 32 65 71 23
117 4 2 1 1 84 49 14 41
118 4 2 1 1 71 56 49 24
119 4 2 1 1 57 93 85 82
120 4 2 1 1 79 94 63 60
121 4 2 1 1 19 77 46 51
122 4 2 1 1 28 37 55 73
123 4 2 1 1 19 77 51 55
124 4 2 1 1 77 55 37 73
125 4 2 1 1 80 96 59 61
126 4 2 1 1 95 58 90 81
127 4 2 1 1 18 45 77 54
128 4 2 1 1 55 27 76 36
129 4 2 1 1 21 83 48 74
130 4 2 1 1 52 30 62 39
131 4 2 1 1 54 77 18 55
132 4 2 1 1 76 77 55 36
133 4 2 1 1 72 44 17 54
134 4 2 1 1 35 26 76 50
135 4 2 1 1 28 55 51 73
136 4 2 1 1 77 46 51 73
137 4 2 1 1 54 17 72 50
138 4 2 1 1 76 72 35 50
139 4 2 1 1 54 55 27 76
140 4 2 1 1 54 45 77 76
141 4 2 1 1 76 26 54 50
142 4 2 1 1 72 44 54 76
143 4 2 1 1 95 90 10 81
144 4 2 1 1 59 96 4 61
145 4 2 1 1 40 88 13 75
146 4 2 1 1 53 31 68 22
147 4 2 1 1 47 83 20 74
148 4 2 1 1 62 29 52 38
149 4 2 1 1 74 51 47 73
150 4 2 1 1 29 51 52 73
151 4 2 1 1 38 29 52 73
152 4 2 1 1 47 20 51 74
153 4 2 1 1 38 52 74 73
154 4 2 1 1 74 20 51 52
155 4 2 1 1 75 41 49 71
156 4 2 1 1 53 71 49 23
157 4 2 1 1 3 63 94 60
158 4 2 1 1 85 93 9 82
159 4 2 1 1 53 60 79 22
160 4 2 1 1 75 32 71 53
161 4 2 1 1 49 14 75 53
162 4 2 1 1 41 49 14 75
163 4 2 1 1 32 71 53 23
164 4 2 1 1 75 13 57 53
165 4 2 1 1 31 75 79 53
166 4 2 1 1 14 88 41 75
167 4 2 1 1 53 68 32 23
168 4 2 1 1 74 58 21 52
169 4 2 1 1 74 80 52 39
170 4 2 1 1 79 31 53 22
171 4 2 1 1 74 81 58 80
172 4 2 1 1 59 58 80 52
173 4 2 1 1 60 79 57 53
174 4 2 1 1 57 82 75 79
175 4 2 1 1 96 12 80 59
176 4 2 1 1 11 94 79 60
177 4 2 1 1 6 12 96 59
178 4 2 1 1 78 72 56 50
179 4 2 1 1 94 11 5 60
180 4 2 1 1 55 77 51 73
181 4 2 1 1 58 74 80 52
182 4 2 1 1 55 54 77 76
183 4 2 1 1 76 54 72 50
184 4 2 1 1 79 75 57 53
185 4 2 1 1 59 80 61 39
186 4 2 1 1 58 21 90 81
187 4 2 1 1 51 74 52 73
188 4 2 1 1 8 4 96 61
189 4 2 1 1 93 9 1 85
190 4 2 1 1 7 3 63 94
191 4 2 1 1 10 2 90 95
192 4 2 1 1 85 13 57 82
193 4 2 1 1 71 49 75 53
194 4 2 1 1 61 30 59 39
195 4 2 1 1 48 90 21 81
196 4 2 1 1 13 85 40 82
197 4 2 1 1 81 21 74 58
198 4 2 1 1 81 74 21 48
199 4 2 1 1 59 39 52 80
200 4 2 1 1 52 39 59 30
201 4 2 1 1 82 13 75 40
202 4 2 1 1 82 75 13 57
203 4 2 1 1 79 22 63 31
204 4 2 1 1 63 22 79 60
205 4 2 1 1 56 71 42 78
206 4 2 1 1 42 71 56 49
207 4 2 1 1 59 12 58 6
208 4 2 1 1 59 58 12 80
209 4 2 1 1 81 12 58 80
210 4 2 1 1 60 11 57 79
211 4 2 1 1 60 57 11 5
212 4 2 1 1 82 57 11 79
213 4 2 1 1 12 58 95 81
214 4 2 1 1 12 95 58 6
215 4 2 1 1 57 11 93 82
216 4 2 1 1 57 93 11 5
217 4 2 2 2 155 102 98 140
218 4 2 2 2 12 8 80 155
219 4 2 2 2 7 11 79 153
220 4 2 2 2 139 101 97 153
221 4 2 2 2 137 108 109 124
222 4 2 2 2 37 36 77 124
223 4 2 2 2 106 130 138 105
224 4 2 2 2 34 33 78 130
225 4 2 2 2 107 126 132 106
226 4 2 2 2 35 34 72 126
227 4 2 2 2 43 42 152 78
228 4 2 2 2 114 115 152 138
229 4 2 2 2 113 114 146 131
230 4 2 2 2 42 41 146 71
231 4 2 2 2 46 47 73 151
232 4 2 2 2 119 151 118 133
233 4 2 2 2 116 117 148 136
234 4 2 2 2 44 45 76 148
235 4 2 2 2 12 10 156 81
236 4 2 2 2 102 100 141 156
237 4 2 2 2 11 9 82 154
238 4 2 2 2 154 101 99 142
239 4 2 2 2 40 9 144 82
240 4 2 2 2 142 99 144 112
241 4 2 2 2 110 134 122 111
242 4 2 2 2 39 38 74 122
243 4 2 2 2 10 48 149 81
244 4 2 2 2 100 120 141 149
245 4 2 2 2 44 43 147 72
246 4 2 2 2 147 132 115 116
247 4 2 2 2 32 31 75 128
248 4 2 2 2 103 104 135 128
249 4 2 2 2 117 145 137 118
250 4 2 2 2 45 46 77 145
251 4 2 2 2 36 35 76 127
252 4 2 2 2 127 136 108 107
253 4 2 2 2 8 39 80 121
254 4 2 2 2 98 121 140 111
255 4 2 2 2 47 48 74 143
256 4 2 2 2 134 120 119 143
257 4 2 2 2 97 103 139 123
258 4 2 2 2 31 7 79 123
259 4 2 2 2 133 109 110 129
260 4 2 2 2 38 37 73 129
261 4 2 2 2 33 32 71 125
262 4 2 2 2 125 131 105 104
263 4 2 2 2 150 135 112 113
264 4 2 2 2 40 41 75 150
265 4 2 2 2 153 97 139 123
266 4 2 2 2 7 79 123 153
267 4 2 2 2 80 8 121 155
268 4 2 2 2 98 121 155 140
269 4 2 2 2 141 12 81 157
270 4 2 2 2 102 12 141 157
271 4 2 2 2 80 102 140 157
272 4 2 2 2 141 81 140 157
273 4 2 2 2 152 115 43 78
274 4 2 2 2 78 152 115 138
275 4 2 2 2 126 132 72 107
276 4 2 2 2 72 35 126 107
277 4 2 2 2 146 114 42 131
278 4 2 2 2 42 146 131 71
279 4 2 2 2 109 77 137 124
280 4 2 2 2 109 37 77 124
281 4 2 2 2 137 108 124 36
282 4 2 2 2 124 77 137 36
283 4 2 2 2 75 135 104 128
284 4 2 2 2 128 104 75 32
285 4 2 2 2 133 119 151 73
286 4 2 2 2 47 151 119 73
287 4 2 2 2 118 151 46 73
288 4 2 2 2 151 118 133 73
289 4 2 2 2 45 148 117 136
290 4 2 2 2 45 148 136 76
291 4 2 2 2 122 38 134 110
292 4 2 2 2 38 134 74 122
293 4 2 2 2 116 148 44 76
294 4 2 2 2 102 80 12 157
295 4 2 2 2 148 116 136 76
296 4 2 2 2 146 41 113 71
297 4 2 2 2 126 72 106 34
298 4 2 2 2 131 146 113 71
299 4 2 2 2 130 138 105 33
300 4 2 2 2 126 72 132 106
301 4 2 2 2 138 130 78 33
302 4 2 2 2 81 80 140 157
303 4 2 2 2 138 78 130 106
304 4 2 2 2 78 42 152 138
305 4 2 2 2 106 78 130 34
306 4 2 2 2 42 114 152 138
307 4 2 2 2 132 115 43 147
308 4 2 2 2 105 131 125 33
309 4 2 2 2 145 77 137 118
310 4 2 2 2 72 132 43 147
311 4 2 2 2 77 45 145 137
312 4 2 2 2 77 145 46 118
313 4 2 2 2 137 45 145 117
314 4 2 2 2 143 134 120 48
315 4 2 2 2 131 42 78 138
316 4 2 2 2 132 78 138 106
317 4 2 2 2 33 131 125 71
318 4 2 2 2 147 72 132 116
319 4 2 2 2 37 109 73 129
320 4 2 2 2 72 147 44 116
321 4 2 2 2 106 72 78 34
322 4 2 2 2 78 132 72 106
323 4 2 2 2 131 78 42 71
324 4 2 2 2 114 42 131 138
325 4 2 2 2 109 133 73 129
326 4 2 2 2 127 108 136 36
327 4 2 2 2 78 115 132 138
328 4 2 2 2 132 43 115 78
329 4 2 2 2 35 136 127 107
330 4 2 2 2 75 40 150 112
331 4 2 2 2 105 138 131 33
332 4 2 2 2 78 131 138 33
333 4 2 2 2 136 76 127 36
334 4 2 2 2 77 137 118 73
335 4 2 2 2 77 136 45 137
336 4 2 2 2 76 35 136 127
337 4 2 2 2 43 132 72 78
338 4 2 2 2 46 77 118 73
339 4 2 2 2 133 118 137 73
340 4 2 2 2 136 77 45 76
341 4 2 2 2 117 137 45 136
342 4 2 2 2 116 72 132 136
343 4 2 2 2 137 77 109 73
344 4 2 2 2 77 37 109 73
345 4 2 2 2 78 131 33 71
346 4 2 2 2 44 72 116 76
347 4 2 2 2 136 116 72 76
348 4 2 2 2 136 108 137 36
349 4 2 2 2 136 137 77 36
350 4 2 2 2 38 133 129 73
351 4 2 2 2 133 137 109 73
352 4 2 2 2 136 35 72 107
353 4 2 2 2 136 72 132 107
354 4 2 2 2 76 136 77 36
355 4 2 2 2 133 38 74 73
356 4 2 2 2 35 136 72 76
357 4 2 2 2 131 75 104 71
358 4 2 2 2 125 131 104 71
359 4 2 2 2 139 153 123 79
360 4 2 2 2 155 121 80 140
361 4 2 2 2 141 140 102 157
362 4 2 2 2 133 38 129 110
363 4 2 2 2 110 38 134 133
364 4 2 2 2 38 74 134 133
365 4 2 2 2 48 143 134 74
366 4 2 2 2 32 104 75 71
367 4 2 2 2 75 131 104 135
368 4 2 2 2 81 12 80 157
369 4 2 2 2 74 47 119 73
370 4 2 2 2 133 74 119 73
371 4 2 2 2 32 125 104 71
372 4 2 2 2 48 134 141 81
373 4 2 2 2 74 133 119 134
374 4 2 2 2 41 75 113 71
375 4 2 2 2 131 113 75 71
376 4 2 2 2 47 119 143 74
377 4 2 2 2 75 82 40 142
378 4 2 2 2 100 141 156 149
379 4 2 2 2 149 156 10 81
380 4 2 2 2 134 141 120 48
381 4 2 2 2 135 75 150 112
382 4 2 2 2 75 135 113 131
383 4 2 2 2 119 134 143 74
384 4 2 2 2 142 40 75 112
385 4 2 2 2 81 134 141 140
386 4 2 2 2 150 41 75 113
387 4 2 2 2 139 82 75 142
388 4 2 2 2 9 144 82 154
389 4 2 2 2 99 144 154 142
390 4 2 2 2 80 74 81 140
391 4 2 2 2 82 139 75 79
392 4 2 2 2 135 150 75 113
393 4 2 2 2 48 134 81 74
394 4 2 2 2 141 156 149 81
395 4 2 2 2 75 135 142 112
396 4 2 2 2 144 82 154 142
397 4 2 2 2 134 81 74 140
398 4 2 2 2 142 75 139 135
399 4 2 2 2 140 39 121 80
400 4 2 2 2 123 103 139 79
401 4 2 2 2 156 141 12 81
402 4 2 2 2 154 82 101 142
403 4 2 2 2 141 149 48 81
404 4 2 2 2 144 40 82 142
405 4 2 2 2 80 102 155 140
406 4 2 2 2 153 139 11 79
407 4 2 2 2 12 102 141 156
408 4 2 2 2 80 102 12 155
409 4 2 2 2 101 11 82 154
410 4 2 2 2 139 11 101 153
411 4 2 2 2 144 40 142 112
412 4 2 2 2 149 120 141 48
413 4 2 2 2 142 82 101 139
414 4 2 2 2 139 82 11 79
415 4 2 2 2 82 11 101 139
416 4 2 2 2 39 140 121 111
417 4 2 2 2 144 9 99 154
418 4 2 2 2 156 10 100 149
419 4 2 2 2 153 7 97 123
420 4 2 2 2 8 98 121 155
421 4 2 2 2 103 123 31 79
422 4 2 2 2 74 39 140 80
423 4 2 2 2 135 103 75 139
424 4 2 2 2 135 75 103 128
425 4 2 2 2 79 75 103 139
426 4 2 2 2 111 134 39 140
427 4 2 2 2 111 39 134 122
428 4 2 2 2 74 39 134 140
429 4 2 2 2 74 134 39 122
430 4 2 2 2 75 31 103 128
431 4 2 2 2 75 103 31 79
$EndElements
