$MeshFormat
2.2 0 8
$EndMeshFormat
$PhysicalNames
3
3 1 "substrate_OPEM_RESERVED_1"
3 2 "air_OPEM_RESERVED_2"
3 3 "air_OPEM_RESERVED_3"
$EndPhysicalNames
$Nodes
299
1 0 0.001778 -0.000254
2 0.002 0.001778 -0.0002539999999999999
3 0.002 0.001778 -5.837437142986452e-05
4 0.001506486716632153 0.001778 -5.837437142986451e-05
5 0.001506486716632153 0.001778 0
6 0 0.001778 0
7 0.002 0.001778 -2.401321893160397e-05
8 0.001543003195566854 0.001778 -2.401321893160397e-05
9 0.001543003195566854 0.001778 0
10 0.002 0.001778 0
11 0.001575 0.001778 0
12 0.002 0 -0.0002539999999999999
13 0.002 0 -4.251372218669065e-05
14 0.002 0 -1.834259101746635e-05
15 0.002 0 0
16 0 0 -0.0002539999999999999
17 0 0 0
18 0.001835752497020487 0 0
19 0.001835752497020487 0 -4.251372218669065e-05
20 0.001863101661470647 0 0
21 0.001863101661470647 0 -1.834259101746635e-05
22 0.001875 0 0
23 0.001575 0.000889 0
24 0.001875 0.000889 0
25 0.0006666666666666662 0.001778 -0.000254
26 0.001333333333333335 0.001778 -0.000254
27 0.0007532433583160769 0.001778 0
28 0.002 0.001185333333333335 -0.000254
29 0.002 0.000592666666666668 -0.000254
30 0.002 0.001185333333333335 0
31 0.002 0.000592666666666668 0
32 0.001333333333333334 0 -0.000254
33 0.000666666666666665 0 -0.000254
34 0.001223834998013657 0 0
35 0.0006119174990068283 0 0
36 0 0.0005926666666666655 -0.000254
37 0 0.001185333333333332 -0.000254
38 0 0.0005926666666666655 0
39 0 0.001185333333333332 0
40 0.001575 0.001333499999999999 0
41 0.001875 0.0004444999999999991 0
42 0.002 0.0008890000000000014 -0.000127
43 0.002 0.001580444444444445 -9.839793172691143e-05
44 0.002 0.0003360344720118788 -0.000127
45 0.002 6.720689440237551e-05 -8.83712626408314e-05
46 0 0.001481666666666666 -0.000127
47 0 0.0002963333333333327 -0.000127
48 0 0.0008889999999999987 -0.000127
49 0.0005132643893095767 0.0008889999999999988 -0.000254
50 0.001486735610690423 0.0008890000000000012 -0.000254
51 0.001000000000000001 0.001262746094711437 -0.000254
52 0.0009999999999999994 0.0005152539052885636 -0.000254
53 0.001557580377992078 0.0004190400697501947 -0.000254
54 0.001557580377992078 0.001358959930249807 -0.000254
55 0.0004424196220079226 0.001358959930249805 -0.000254
56 0.0004424196220079219 0.0004190400697501935 -0.000254
57 0.001725 0.00111125 0
58 0.001781122448979592 0.001495273809523809 0
59 0.0004564704975721012 0.0009312577068136186 0
60 0.001221736279690572 0.001106872879809751 0
61 0.00131012872121283 0.0006978384612388192 0
62 0.001178680845179428 0.001454064575337891 0
63 0.0008302857761780374 0.001263624111988316 0
64 0.00148126541079287 0.0003638105902638202 0
65 0.000997019383533308 0.000399133261119822 0
66 0.0004927955719452221 0.0004704488099878078 0
67 0.0004087456908182201 0.001363420514630296 0
68 0.00162327882640114 0.0006568298103005277 0
69 0.0008866327087945117 0.0008367023537788468 0
70 0 0.001778 -0.003683
71 0.002 0.001778 -0.003683
72 0.002 0 -0.003683
73 0 0 -0.003683
74 0 0.001778 -0.0029972
75 0 0.001778 -0.002311399999999999
76 0 0.001778 -0.001625599999999999
77 0 0.001778 -0.0009398000000000011
78 0.002 0.001778 -0.0029972
79 0.002 0.001778 -0.002311399999999999
80 0.002 0.001778 -0.001625599999999999
81 0.002 0.001778 -0.0009398000000000011
82 0.0006666666666666662 0.001778 -0.003683
83 0.001333333333333335 0.001778 -0.003683
84 0.002 0 -0.0029972
85 0.002 0 -0.002311399999999999
86 0.002 0 -0.001625599999999999
87 0.002 0 -0.0009398000000000011
88 0.002 0.001185333333333335 -0.003683
89 0.002 0.000592666666666668 -0.003683
90 0 0 -0.0029972
91 0 0 -0.002311399999999999
92 0 0 -0.001625599999999999
93 0 0 -0.0009398000000000011
94 0.001333333333333334 0 -0.003683
95 0.000666666666666665 0 -0.003683
96 0 0.0005926666666666655 -0.003683
97 0 0.001185333333333332 -0.003683
98 0.001 0.001778 -0.0008951308824168406
99 0.001 0.001778 -0.003041869117583159
100 0.001431498355991878 0.001778 -0.001968499999999999
101 0.0005685016440081219 0.001778 -0.0019685
102 0.0005088578018784965 0.001778 -0.001300567770043421
103 0.0005088578018784965 0.001778 -0.002636432229956578
104 0.001491142198121504 0.001778 -0.001300567770043421
105 0.001491142198121504 0.001778 -0.002636432229956578
106 0.001 0.001778 -0.001626777288334928
107 0.001 0.001778 -0.002308298938210306
108 0.0004846451672628573 0.001778 -0.0007439903411388398
109 0.001515354832737143 0.001778 -0.0007439903411388393
110 0.0004846451672628574 0.001778 -0.00319300965886116
111 0.001515354832737143 0.001778 -0.00319300965886116
112 0.002 0.0008890000000000014 -0.0007672643893095765
113 0.002 0.0008890000000000014 -0.003169735610690423
114 0.002 0.001184079778084633 -0.0019685
115 0.002 0.001259841727439662 -0.001220495380911511
116 0.002 0.0005664854947905471 -0.001322775670933915
117 0.002 0.001259841727439662 -0.002716504619088489
118 0.002 0.0005664854947905469 -0.002614224329066084
119 0.002 0.0004634101535331454 -0.0019685
120 0.002 0.0004145149082372093 -0.0006990322252255713
121 0.002 0.0004145149082372096 -0.003237967774774428
122 0.002 0.001363485091762792 -0.0006990322252255713
123 0.002 0.001363485091762792 -0.003237967774774429
124 0.001 0 -0.0008951308824168406
125 0.001 0 -0.003041869117583159
126 0.0005685016440081221 0 -0.001968499999999999
127 0.001431498355991878 0 -0.0019685
128 0.001491142198121504 0 -0.001300567770043421
129 0.001491142198121504 0 -0.002636432229956578
130 0.0005088578018784965 0 -0.001300567770043421
131 0.0005088578018784965 0 -0.002636432229956578
132 0.001 0 -0.001626777288334928
133 0.001 0 -0.002308298938210306
134 0.001515354832737143 0 -0.0007439903411388398
135 0.0004846451672628571 0 -0.0007439903411388393
136 0.001515354832737143 0 -0.00319300965886116
137 0.0004846451672628573 0 -0.00319300965886116
138 0 0.0008889999999999987 -0.0007672643893095765
139 0 0.0008889999999999986 -0.003169735610690423
140 0 0.001184079778084633 -0.0019685
141 0 0.001259841727439661 -0.001220495380911511
142 0 0.0005664854947905462 -0.001322775670933915
143 0 0.001259841727439662 -0.002716504619088489
144 0 0.0005664854947905465 -0.002614224329066083
145 0 0.0004634101535331451 -0.001968499999999999
146 0 0.001363485091762791 -0.0006990322252255717
147 0 0.0004145149082372074 -0.0006990322252255709
148 0 0.001363485091762791 -0.003237967774774428
149 0 0.0004145149082372076 -0.003237967774774429
150 0.001486735610690423 0.0008890000000000012 -0.003683
151 0.0005132643893095767 0.0008889999999999988 -0.003683
152 0.0009999999999999994 0.0005152539052885636 -0.003683
153 0.001000000000000001 0.001262746094711437 -0.003683
154 0.0004424196220079226 0.001358959930249805 -0.003683
155 0.0004424196220079219 0.0004190400697501935 -0.003683
156 0.001557580377992078 0.0004190400697501947 -0.003683
157 0.001557580377992078 0.001358959930249807 -0.003683
158 0.0008591129743185661 0.0008890000000000001 -0.001113112974318566
159 0.001140887025681434 0.0008890000000000001 -0.002823887025681434
160 0.001092502261801526 0.0008073652611201207 -0.001953264360292185
161 0.0005959381205825388 0.001143227473974358 -0.003085738845617511
162 0.001404061879417464 0.001143227473974359 -0.0008512611543824867
163 0.002 0.001778 1.25e-05
164 0.001575 0.001778 1.25e-05
165 0.002 0.001778 3.479527722107762e-05
166 0.001543003195566854 0.001778 3.479527722107762e-05
167 0.001543003195566854 0.001778 1.25e-05
168 0.002 0.001778 6.625227192479259e-05
169 0.001506486716632153 0.001778 6.625227192479259e-05
170 0.001506486716632153 0.001778 1.25e-05
171 0.002 0.001778 0.003429
172 0 0.001778 0.003429
173 0 0.001778 1.25e-05
174 0.001575 0.000889 1.25e-05
175 0 0 1.25e-05
176 0.001835752497020487 0 1.25e-05
177 0.001863101661470647 0 1.25e-05
178 0.001875 0 1.25e-05
179 0.001875 0.000889 1.25e-05
180 0.002 0 1.25e-05
181 0.002 0 3e-05
182 0.002 0 5.526477108381298e-05
183 0.002 0 0.003429
184 0 0 0.003429
185 0.001863101661470647 0 3e-05
186 0.001835752497020487 0 5.526477108381298e-05
187 0.002 0.001778 0.0007388018175398327
188 0.002 0.001778 0.001411351363154874
189 0.002 0.001778 0.002083900908769917
190 0.002 0.001778 0.002756450454384958
191 0.0006666666666666662 0.001778 0.003429
192 0.001333333333333335 0.001778 0.003429
193 0 0.001778 0.0006957999999999996
194 0 0.001778 0.001379099999999999
195 0 0.001778 0.002062399999999997
196 0 0.001778 0.002745699999999997
197 0.0007532433583160758 0.001778 1.25e-05
198 0.001575 0.001333499999999999 1.25e-05
199 0 0.001185333333333335 1.25e-05
200 0 0.000592666666666668 1.25e-05
201 0.0006119174990068293 0 1.25e-05
202 0.001223834998013658 0 1.25e-05
203 0.001875 0.0004444999999999991 1.25e-05
204 0.002 0 0.0007300118168670498
205 0.002 0 0.001404758862650287
206 0.002 0 0.002079505908433523
207 0.002 0 0.002754252954216762
208 0.002 0.001185333333333335 0.003429
209 0.002 0.000592666666666668 0.003429
210 0.001333333333333334 0 0.003429
211 0.000666666666666665 0 0.003429
212 0 0.0005926666666666655 0.003429
213 0 0.001185333333333332 0.003429
214 0 0 0.0006957999999999996
215 0 0 0.001379099999999999
216 0 0 0.002062399999999997
217 0 0 0.002745699999999997
218 0.00149081113389788 0.001778 0.002418124033269257
219 0.001511915775467582 0.001778 0.001106794481693896
220 0.0005769400155211537 0.001778 0.001723133775806599
221 0.0005774955101225641 0.001778 0.00107037906720731
222 0.000511643447018681 0.001778 0.002408470147216877
223 0.001504825515490263 0.001778 0.001752570509802123
224 0.00151185703790799 0.001778 0.0005909689895784988
225 0.001001186005160759 0.001778 0.002832208387144801
226 0.001715860833526303 0.001778 0.0003420664023260593
227 0.001229224270373888 0.001778 0.0003245788220337833
228 0.001011064192125639 0.001778 0.002083900908769917
229 0.0006135484171811889 0.001778 0.0004786405588772529
230 0.001050594728833634 0.001778 0.001415477367883711
231 0.001516247603067948 0.001778 0.002943621898840997
232 0.0004818564744652928 0.001778 0.002942442305837397
233 0.001101486510043247 0.001778 0.0007943785340173141
234 0.001488573858970122 0.001778 0.0003161784984932185
235 0.0004564704975721011 0.0009312577068136203 1.25e-05
236 0.001221736279690572 0.001106872879809751 1.25e-05
237 0.00131012872121283 0.0006978384612388192 1.25e-05
238 0.001178680845179428 0.001454064575337891 1.25e-05
239 0.0008302857761780374 0.001263624111988316 1.25e-05
240 0.00148126541079287 0.00036381059026382 1.25e-05
241 0.0009970193835333082 0.0003991332611198222 1.25e-05
242 0.0004927955719452223 0.0004704488099878086 1.25e-05
243 0.0004087456908182199 0.001363420514630298 1.25e-05
244 0.00162327882640114 0.0006568298103005277 1.25e-05
245 0.0008866327087945117 0.000836702353778847 1.25e-05
246 0.002 0.0008890000000000014 0.002915735610690423
247 0.002 0.0008890000000000014 0.0005132643893095767
248 0.002 0.001195555008193693 0.001747626135962395
249 0.002 0.001204291642513697 0.001090208884876751
250 0.002 0.0004956415578215255 0.0009788357722035003
251 0.002 0.0005568753474752513 0.00170843178093934
252 0.002 0.0005597731510047792 0.002375073293277686
253 0.002 0.001260108424747478 0.002477430027497654
254 0.002 0.001366924995169407 0.0004817054727301907
255 0.002 0.0003954616448976391 0.0004554753498927878
256 0.002 0.001360322389286395 0.002985793761900544
257 0.002 0.0004171620538676851 0.002985496105016768
258 0.001486735610690423 0.0008890000000000012 0.003429
259 0.0005132643893095767 0.0008889999999999988 0.003429
260 0.0009999999999999994 0.0005152539052885636 0.003429
261 0.001000000000000001 0.001262746094711437 0.003429
262 0.0004424196220079226 0.001358959930249805 0.003429
263 0.0004424196220079219 0.0004190400697501935 0.003429
264 0.001557580377992078 0.0004190400697501947 0.003429
265 0.001557580377992078 0.001358959930249807 0.003429
266 0 0.0008890000000000013 0.0005257643893095767
267 0 0.0008889999999999986 0.002915735610690423
268 0 0.001186244841594095 0.001720749999999997
269 0 0.001260529050964078 0.00246470249245306
270 0 0.0005690509491802012 0.002359311362002113
271 0 0.001260529050964079 0.0009767975075469372
272 0 0.0005690509491802036 0.001082188637997887
273 0 0.0004648693479908999 0.001720749999999998
274 0 0.001362878515010176 0.002984317982025834
275 0 0.0004151214849898245 0.0004571820179741647
276 0 0.0004151214849898227 0.002984317982025835
277 0 0.001362878515010177 0.000457182017974164
278 0.0006210633824376857 0 0.001033721728215607
279 0.001002680166992781 0 0.002794080286317912
280 0.001437550323835339 0 0.001738190363550713
281 0.0005889971502713246 0 0.001715972989783213
282 0.001349364616682159 0 0.001046825398257683
283 0.0005146341827303538 0 0.002388761346081709
284 0.0009427529444529556 0 0.0005190127439879259
285 0.001494103058902989 0 0.002396888218312159
286 0.001473721326073959 0 0.0004917450655805662
287 0.0009953840401365844 0 0.001430685433537912
288 0.001011024250707795 0 0.00207514050659616
289 0.001513363611882019 0 0.002940159290757882
290 0.0004851035284102209 0 0.002939274293792976
291 0.0004351467651794942 0 0.0004547068944407064
292 0.001133275049111528 0.0008736883616678668 0.000887267386534488
293 0.001135671525269888 0.0008944407330030708 0.002564671525269888
294 0.0009001704317002354 0.0008161428853355275 0.001727144507705763
295 0.001451244465168851 0.0005592838216187653 0.0005381897046201822
296 0.001468253469812924 0.00111125 0.0005075788888176159
297 0.0006056660625441896 0.001139855995141646 0.0006118946996662279
298 0.001393188298141159 0.001191564741421529 0.001428417857929515
299 0.0005961864847721694 0.0006349315302808348 0.002831670351556851
$EndNodes
$Elements
829
1 4 2 1 1 10 30 58 43
2 4 2 1 1 41 15 44 31
3 4 2 1 1 37 36 49 48
4 4 2 1 1 29 28 50 42
5 4 2 1 1 38 39 59 48
6 4 2 1 1 8 7 11 58
7 4 2 1 1 17 38 66 47
8 4 2 1 1 1 37 55 46
9 4 2 1 1 36 16 56 47
10 4 2 1 1 12 29 53 44
11 4 2 1 1 39 6 67 46
12 4 2 1 1 3 4 58 8
13 4 2 1 1 60 61 69 50
14 4 2 1 1 60 69 51 50
15 4 2 1 1 19 21 45 44
16 4 2 1 1 28 2 54 43
17 4 2 1 1 57 42 24 50
18 4 2 1 1 49 51 69 52
19 4 2 1 1 42 57 28 50
20 4 2 1 1 50 61 69 52
21 4 2 1 1 46 55 1 67
22 4 2 1 1 47 56 66 35
23 4 2 1 1 59 48 36 38
24 4 2 1 1 48 36 49 59
25 4 2 1 1 66 17 47 35
26 4 2 1 1 50 69 51 52
27 4 2 1 1 43 58 2 54
28 4 2 1 1 58 4 2 54
29 4 2 1 1 1 6 46 67
30 4 2 1 1 48 49 37 59
31 4 2 1 1 26 2 4 54
32 4 2 1 1 18 20 21 44
33 4 2 1 1 12 19 45 44
34 4 2 1 1 58 43 28 54
35 4 2 1 1 29 68 50 53
36 4 2 1 1 23 24 68 50
37 4 2 1 1 50 57 28 54
38 4 2 1 1 27 5 62 26
39 4 2 1 1 39 48 37 59
40 4 2 1 1 40 57 23 50
41 4 2 1 1 25 1 55 67
42 4 2 1 1 32 19 12 53
43 4 2 1 1 19 12 53 44
44 4 2 1 1 40 23 60 50
45 4 2 1 1 33 65 34 32
46 4 2 1 1 50 51 60 54
47 4 2 1 1 52 50 61 53
48 4 2 1 1 6 25 27 67
49 4 2 1 1 19 18 21 44
50 4 2 1 1 62 51 25 26
51 4 2 1 1 24 23 57 50
52 4 2 1 1 41 24 31 29
53 4 2 1 1 36 59 38 66
54 4 2 1 1 65 33 52 32
55 4 2 1 1 6 1 25 67
56 4 2 1 1 59 36 49 66
57 4 2 1 1 40 58 57 54
58 4 2 1 1 33 56 16 35
59 4 2 1 1 8 7 58 3
60 4 2 1 1 22 41 44 20
61 4 2 1 1 19 18 64 32
62 4 2 1 1 41 24 29 68
63 4 2 1 1 51 55 49 63
64 4 2 1 1 56 49 36 66
65 4 2 1 1 25 27 62 26
66 4 2 1 1 4 3 58 2
67 4 2 1 1 60 40 50 54
68 4 2 1 1 28 57 58 54
69 4 2 1 1 49 55 37 59
70 4 2 1 1 8 4 58 40
71 4 2 1 1 63 49 51 69
72 4 2 1 1 37 39 59 67
73 4 2 1 1 59 55 37 67
74 4 2 1 1 58 11 8 40
75 4 2 1 1 33 65 35 34
76 4 2 1 1 64 34 65 32
77 4 2 1 1 40 60 62 54
78 4 2 1 1 52 64 65 32
79 4 2 1 1 32 64 19 53
80 4 2 1 1 40 57 50 54
81 4 2 1 1 58 2 3 43
82 4 2 1 1 64 18 34 32
83 4 2 1 1 59 49 55 63
84 4 2 1 1 59 49 63 69
85 4 2 1 1 40 62 4 54
86 4 2 1 1 61 64 52 53
87 4 2 1 1 62 51 26 54
88 4 2 1 1 69 66 49 52
89 4 2 1 1 29 41 68 53
90 4 2 1 1 50 68 61 53
91 4 2 1 1 32 52 64 53
92 4 2 1 1 61 64 65 52
93 4 2 1 1 63 55 59 67
94 4 2 1 1 65 33 56 52
95 4 2 1 1 51 25 55 63
96 4 2 1 1 37 55 46 67
97 4 2 1 1 11 9 8 40
98 4 2 1 1 46 39 37 67
99 4 2 1 1 51 62 60 54
100 4 2 1 1 30 57 58 28
101 4 2 1 1 27 51 25 62
102 4 2 1 1 56 49 66 52
103 4 2 1 1 27 63 51 62
104 4 2 1 1 53 29 41 44
105 4 2 1 1 4 58 40 54
106 4 2 1 1 23 61 60 50
107 4 2 1 1 66 49 59 69
108 4 2 1 1 65 56 66 52
109 4 2 1 1 66 69 65 52
110 4 2 1 1 64 61 68 53
111 4 2 1 1 20 18 41 44
112 4 2 1 1 14 21 45 13
113 4 2 1 1 7 10 11 58
114 4 2 1 1 57 24 42 30
115 4 2 1 1 69 51 63 60
116 4 2 1 1 30 58 43 28
117 4 2 1 1 63 51 25 27
118 4 2 1 1 64 68 41 53
119 4 2 1 1 4 5 62 40
120 4 2 1 1 61 65 69 52
121 4 2 1 1 26 4 62 54
122 4 2 1 1 24 42 31 29
123 4 2 1 1 68 61 23 50
124 4 2 1 1 42 57 30 28
125 4 2 1 1 58 3 7 43
126 4 2 1 1 8 9 5 40
127 4 2 1 1 4 8 5 40
128 4 2 1 1 62 63 51 60
129 4 2 1 1 5 4 62 26
130 4 2 1 1 7 10 58 43
131 4 2 1 1 19 21 13 45
132 4 2 1 1 14 21 22 45
133 4 2 1 1 29 31 41 44
134 4 2 1 1 12 19 13 45
135 4 2 1 1 22 15 14 45
136 4 2 1 1 30 31 24 42
137 4 2 1 1 21 44 22 45
138 4 2 1 1 22 44 21 20
139 4 2 1 1 24 29 50 42
140 4 2 1 1 50 29 24 68
141 4 2 1 1 47 35 16 56
142 4 2 1 1 16 35 47 17
143 4 2 1 1 15 44 22 41
144 4 2 1 1 22 44 15 45
145 4 2 1 1 64 53 44 19
146 4 2 1 1 44 53 64 41
147 4 2 1 1 44 18 64 19
148 4 2 1 1 64 18 44 41
149 4 2 1 1 66 36 47 38
150 4 2 1 1 66 47 36 56
151 4 2 1 1 25 67 63 27
152 4 2 1 1 63 67 25 55
153 4 2 1 1 35 56 65 33
154 4 2 1 1 35 65 56 66
155 4 2 2 2 103 160 143 161
156 4 2 2 2 103 107 101 160
157 4 2 2 2 140 103 101 160
158 4 2 2 2 103 140 143 160
159 4 2 2 2 101 106 102 158
160 4 2 2 2 144 143 160 161
161 4 2 2 2 104 160 115 162
162 4 2 2 2 144 160 159 161
163 4 2 2 2 101 106 158 160
164 4 2 2 2 133 131 126 160
165 4 2 2 2 140 101 102 158
166 4 2 2 2 105 100 107 160
167 4 2 2 2 128 158 134 162
168 4 2 2 2 133 159 131 160
169 4 2 2 2 131 159 137 161
170 4 2 2 2 131 144 126 160
171 4 2 2 2 130 132 126 160
172 4 2 2 2 131 159 144 160
173 4 2 2 2 100 104 106 160
174 4 2 2 2 140 101 158 160
175 4 2 2 2 52 53 134 162
176 4 2 2 2 137 152 155 161
177 4 2 2 2 53 120 134 162
178 4 2 2 2 137 155 149 161
179 4 2 2 2 105 114 100 160
180 4 2 2 2 145 126 144 160
181 4 2 2 2 105 107 159 160
182 4 2 2 2 144 143 140 160
183 4 2 2 2 100 114 104 160
184 4 2 2 2 130 158 132 160
185 4 2 2 2 105 159 114 160
186 4 2 2 2 55 138 146 158
187 4 2 2 2 157 113 123 159
188 4 2 2 2 130 142 158 160
189 4 2 2 2 102 141 140 158
190 4 2 2 2 114 105 117 159
191 4 2 2 2 128 124 134 158
192 4 2 2 2 56 138 49 158
193 4 2 2 2 49 138 55 158
194 4 2 2 2 150 113 157 159
195 4 2 2 2 156 113 150 159
196 4 2 2 2 131 125 137 159
197 4 2 2 2 104 114 115 160
198 4 2 2 2 55 146 108 158
199 4 2 2 2 52 134 158 162
200 4 2 2 2 157 123 111 159
201 4 2 2 2 137 159 152 161
202 4 2 2 2 56 147 138 158
203 4 2 2 2 156 121 113 159
204 4 2 2 2 131 137 144 161
205 4 2 2 2 116 115 160 162
206 4 2 2 2 144 137 149 161
207 4 2 2 2 128 158 116 160
208 4 2 2 2 56 135 147 158
209 4 2 2 2 156 136 121 159
210 4 2 2 2 132 158 128 160
211 4 2 2 2 52 134 124 158
212 4 2 2 2 152 137 125 159
213 4 2 2 2 52 50 53 162
214 4 2 2 2 151 155 152 161
215 4 2 2 2 116 160 158 162
216 4 2 2 2 116 158 128 162
217 4 2 2 2 131 144 159 161
218 4 2 2 2 144 140 145 160
219 4 2 2 2 53 50 112 162
220 4 2 2 2 155 151 139 161
221 4 2 2 2 145 140 142 160
222 4 2 2 2 129 127 118 160
223 4 2 2 2 112 120 53 162
224 4 2 2 2 155 139 149 161
225 4 2 2 2 140 158 142 160
226 4 2 2 2 129 133 127 160
227 4 2 2 2 129 159 133 160
228 4 2 2 2 56 52 135 158
229 4 2 2 2 108 51 55 158
230 4 2 2 2 153 157 111 159
231 4 2 2 2 156 152 136 159
232 4 2 2 2 118 127 119 160
233 4 2 2 2 129 118 159 160
234 4 2 2 2 127 132 128 160
235 4 2 2 2 141 108 146 158
236 4 2 2 2 117 111 123 159
237 4 2 2 2 56 49 52 158
238 4 2 2 2 55 51 49 158
239 4 2 2 2 103 99 107 161
240 4 2 2 2 98 106 104 162
241 4 2 2 2 153 150 157 159
242 4 2 2 2 156 150 152 159
243 4 2 2 2 116 120 112 162
244 4 2 2 2 144 149 139 161
245 4 2 2 2 124 128 132 158
246 4 2 2 2 101 107 106 160
247 4 2 2 2 133 125 131 159
248 4 2 2 2 141 146 138 158
249 4 2 2 2 117 123 113 159
250 4 2 2 2 114 159 118 160
251 4 2 2 2 108 141 102 158
252 4 2 2 2 111 117 105 159
253 4 2 2 2 114 116 115 160
254 4 2 2 2 98 158 106 162
255 4 2 2 2 99 159 107 161
256 4 2 2 2 140 141 142 158
257 4 2 2 2 117 118 114 159
258 4 2 2 2 100 106 107 160
259 4 2 2 2 142 147 135 158
260 4 2 2 2 135 52 124 158
261 4 2 2 2 98 51 108 158
262 4 2 2 2 118 121 136 159
263 4 2 2 2 125 136 152 159
264 4 2 2 2 111 99 153 159
265 4 2 2 2 142 135 130 158
266 4 2 2 2 118 136 129 159
267 4 2 2 2 130 124 132 158
268 4 2 2 2 106 98 102 158
269 4 2 2 2 133 129 125 159
270 4 2 2 2 105 107 99 159
271 4 2 2 2 135 124 130 158
272 4 2 2 2 108 102 98 158
273 4 2 2 2 125 129 136 159
274 4 2 2 2 111 105 99 159
275 4 2 2 2 128 127 119 86
276 4 2 2 2 126 92 130 145
277 4 2 2 2 142 138 147 158
278 4 2 2 2 118 113 121 159
279 4 2 2 2 100 80 104 114
280 4 2 2 2 140 101 76 102
281 4 2 2 2 101 103 140 75
282 4 2 2 2 100 105 79 114
283 4 2 2 2 119 114 118 160
284 4 2 2 2 119 116 114 160
285 4 2 2 2 52 49 51 158
286 4 2 2 2 152 150 153 159
287 4 2 2 2 98 51 158 162
288 4 2 2 2 99 153 159 161
289 4 2 2 2 115 104 80 114
290 4 2 2 2 102 76 140 141
291 4 2 2 2 143 140 103 75
292 4 2 2 2 114 105 79 117
293 4 2 2 2 51 52 158 162
294 4 2 2 2 152 159 153 161
295 4 2 2 2 51 50 52 162
296 4 2 2 2 152 153 151 161
297 4 2 2 2 128 134 87 120
298 4 2 2 2 37 146 55 138
299 4 2 2 2 54 122 28 112
300 4 2 2 2 139 97 148 154
301 4 2 2 2 123 157 88 113
302 4 2 2 2 37 55 49 138
303 4 2 2 2 97 139 151 154
304 4 2 2 2 36 49 56 138
305 4 2 2 2 112 29 50 53
306 4 2 2 2 54 28 50 112
307 4 2 2 2 89 113 150 156
308 4 2 2 2 96 155 151 139
309 4 2 2 2 88 157 150 113
310 4 2 2 2 119 116 128 86
311 4 2 2 2 142 130 92 145
312 4 2 2 2 132 133 126 160
313 4 2 2 2 53 112 29 120
314 4 2 2 2 113 89 121 156
315 4 2 2 2 36 56 147 138
316 4 2 2 2 149 155 96 139
317 4 2 2 2 141 138 142 158
318 4 2 2 2 113 118 117 159
319 4 2 2 2 132 127 133 160
320 4 2 2 2 122 112 54 162
321 4 2 2 2 148 139 154 161
322 4 2 2 2 54 112 50 162
323 4 2 2 2 151 154 139 161
324 4 2 2 2 51 109 54 162
325 4 2 2 2 154 153 110 161
326 4 2 2 2 87 116 128 120
327 4 2 2 2 115 116 112 162
328 4 2 2 2 144 139 143 161
329 4 2 2 2 55 108 25 51
330 4 2 2 2 156 152 94 136
331 4 2 2 2 82 110 154 153
332 4 2 2 2 53 32 52 134
333 4 2 2 2 109 26 51 54
334 4 2 2 2 135 56 33 52
335 4 2 2 2 95 155 137 152
336 4 2 2 2 157 111 83 153
337 4 2 2 2 98 109 51 162
338 4 2 2 2 99 110 153 161
339 4 2 2 2 122 109 115 162
340 4 2 2 2 110 143 148 161
341 4 2 2 2 74 110 143 148
342 4 2 2 2 81 109 115 122
343 4 2 2 2 146 77 108 141
344 4 2 2 2 123 78 111 117
345 4 2 2 2 104 115 109 162
346 4 2 2 2 110 103 143 161
347 4 2 2 2 98 25 108 51
348 4 2 2 2 32 124 52 134
349 4 2 2 2 52 33 135 124
350 4 2 2 2 51 98 26 109
351 4 2 2 2 37 36 138 49
352 4 2 2 2 151 96 139 97
353 4 2 2 2 28 29 50 112
354 4 2 2 2 150 88 113 89
355 4 2 2 2 110 82 99 153
356 4 2 2 2 125 94 152 136
357 4 2 2 2 152 137 95 125
358 4 2 2 2 99 83 111 153
359 4 2 2 2 143 103 110 74
360 4 2 2 2 102 108 77 141
361 4 2 2 2 109 115 104 81
362 4 2 2 2 105 111 78 117
363 4 2 2 2 109 122 54 162
364 4 2 2 2 148 154 110 161
365 4 2 2 2 104 109 98 162
366 4 2 2 2 110 99 103 161
367 4 2 2 2 1 55 146 108
368 4 2 2 2 2 109 122 54
369 4 2 2 2 148 70 110 154
370 4 2 2 2 71 157 123 111
371 4 2 2 2 134 53 12 120
372 4 2 2 2 156 72 121 136
373 4 2 2 2 147 16 135 56
374 4 2 2 2 73 137 155 149
375 4 2 2 2 51 98 25 26
376 4 2 2 2 124 52 33 32
377 4 2 2 2 94 152 95 125
378 4 2 2 2 82 83 99 153
379 4 2 2 2 100 79 80 114
380 4 2 2 2 140 101 75 76
381 4 2 2 2 51 54 50 162
382 4 2 2 2 154 151 153 161
383 4 2 2 2 91 92 126 145
384 4 2 2 2 86 127 119 85
385 4 2 2 2 74 143 103 75
386 4 2 2 2 102 77 76 141
387 4 2 2 2 105 78 79 117
388 4 2 2 2 115 104 81 80
389 4 2 2 2 1 37 146 55
390 4 2 2 2 148 97 70 154
391 4 2 2 2 123 157 71 88
392 4 2 2 2 28 2 122 54
393 4 2 2 2 77 1 146 108
394 4 2 2 2 70 110 74 148
395 4 2 2 2 78 71 123 111
396 4 2 2 2 2 109 81 122
397 4 2 2 2 122 115 112 162
398 4 2 2 2 139 148 143 161
399 4 2 2 2 121 89 72 156
400 4 2 2 2 12 29 120 53
401 4 2 2 2 36 16 147 56
402 4 2 2 2 149 155 73 96
403 4 2 2 2 87 134 12 120
404 4 2 2 2 136 72 121 84
405 4 2 2 2 93 147 16 135
406 4 2 2 2 137 73 90 149
407 4 2 2 2 90 91 131 144
408 4 2 2 2 85 129 118 84
409 4 2 2 2 87 128 116 86
410 4 2 2 2 130 92 93 142
411 4 2 2 2 53 12 32 134
412 4 2 2 2 70 82 110 154
413 4 2 2 2 108 1 55 25
414 4 2 2 2 2 26 109 54
415 4 2 2 2 94 72 156 136
416 4 2 2 2 56 16 135 33
417 4 2 2 2 155 137 73 95
418 4 2 2 2 71 157 111 83
419 4 2 2 2 162 106 160 158
420 4 2 2 2 162 160 106 104
421 4 2 2 2 107 161 160 103
422 4 2 2 2 160 161 107 159
423 4 2 2 2 128 119 160 116
424 4 2 2 2 128 160 119 127
425 4 2 2 2 118 127 85 119
426 4 2 2 2 85 127 118 129
427 4 2 2 2 145 130 160 142
428 4 2 2 2 145 160 130 126
429 4 2 2 2 126 144 91 145
430 4 2 2 2 91 144 126 131
431 4 2 2 2 136 118 84 121
432 4 2 2 2 136 84 118 129
433 4 2 2 2 142 135 93 130
434 4 2 2 2 142 93 135 147
435 4 2 2 2 128 120 162 134
436 4 2 2 2 162 120 128 116
437 4 2 2 2 137 144 90 131
438 4 2 2 2 90 144 137 149
439 4 2 3 3 241 292 245 297
440 4 2 3 3 241 245 242 297
441 4 2 3 3 241 242 284 292
442 4 2 3 3 275 278 291 297
443 4 2 3 3 271 221 294 297
444 4 2 3 3 241 242 292 297
445 4 2 3 3 292 294 221 297
446 4 2 3 3 291 284 242 297
447 4 2 3 3 269 222 293 294
448 4 2 3 3 285 280 288 294
449 4 2 3 3 228 223 218 293
450 4 2 3 3 269 294 293 299
451 4 2 3 3 292 294 282 298
452 4 2 3 3 250 292 282 298
453 4 2 3 3 280 282 294 298
454 4 2 3 3 285 288 293 294
455 4 2 3 3 241 245 292 295
456 4 2 3 3 287 280 282 294
457 4 2 3 3 291 242 275 297
458 4 2 3 3 262 274 232 299
459 4 2 3 3 228 223 293 298
460 4 2 3 3 287 282 292 294
461 4 2 3 3 221 230 294 298
462 4 2 3 3 221 294 292 298
463 4 2 3 3 284 292 242 297
464 4 2 3 3 232 261 262 299
465 4 2 3 3 222 293 232 299
466 4 2 3 3 248 218 223 293
467 4 2 3 3 241 292 284 295
468 4 2 3 3 269 222 232 299
469 4 2 3 3 228 293 222 294
470 4 2 3 3 220 228 222 294
471 4 2 3 3 269 232 274 299
472 4 2 3 3 221 230 220 294
473 4 2 3 3 237 236 245 296
474 4 2 3 3 248 293 223 298
475 4 2 3 3 264 258 246 293
476 4 2 3 3 268 220 222 294
477 4 2 3 3 256 246 265 293
478 4 2 3 3 272 294 292 297
479 4 2 3 3 258 265 246 293
480 4 2 3 3 264 246 257 293
481 4 2 3 3 269 270 294 299
482 4 2 3 3 269 293 222 299
483 4 2 3 3 269 268 222 294
484 4 2 3 3 271 221 268 294
485 4 2 3 3 221 220 268 294
486 4 2 3 3 271 294 272 297
487 4 2 3 3 256 265 231 293
488 4 2 3 3 237 245 295 296
489 4 2 3 3 280 251 282 298
490 4 2 3 3 232 293 261 299
491 4 2 3 3 253 218 248 293
492 4 2 3 3 289 264 257 293
493 4 2 3 3 228 293 294 298
494 4 2 3 3 278 292 272 294
495 4 2 3 3 278 287 292 294
496 4 2 3 3 275 272 278 297
497 4 2 3 3 248 294 293 298
498 4 2 3 3 245 296 236 297
499 4 2 3 3 241 237 245 295
500 4 2 3 3 251 250 282 298
501 4 2 3 3 222 225 232 293
502 4 2 3 3 262 261 259 299
503 4 2 3 3 261 232 225 293
504 4 2 3 3 283 294 270 299
505 4 2 3 3 272 292 278 297
506 4 2 3 3 262 267 274 299
507 4 2 3 3 234 198 226 296
508 4 2 3 3 251 280 252 294
509 4 2 3 3 251 280 294 298
510 4 2 3 3 245 236 239 297
511 4 2 3 3 267 262 259 299
512 4 2 3 3 227 239 238 297
513 4 2 3 3 166 165 58 164
514 4 2 3 3 233 292 221 297
515 4 2 3 3 269 274 267 299
516 4 2 3 3 227 238 296 297
517 4 2 3 3 278 281 287 294
518 4 2 3 3 270 283 281 294
519 4 2 3 3 234 238 198 296
520 4 2 3 3 264 289 260 293
521 4 2 3 3 30 31 247 179
522 4 2 3 3 283 288 281 294
523 4 2 3 3 278 272 281 294
524 4 2 3 3 233 219 292 296
525 4 2 3 3 261 231 265 293
526 4 2 3 3 231 253 256 293
527 4 2 3 3 31 30 24 179
528 4 2 3 3 250 295 292 296
529 4 2 3 3 251 294 248 298
530 4 2 3 3 273 281 272 294
531 4 2 3 3 273 270 281 294
532 4 2 3 3 264 260 258 293
533 4 2 3 3 261 265 258 293
534 4 2 3 3 275 266 272 297
535 4 2 3 3 275 242 266 297
536 4 2 3 3 292 295 245 296
537 4 2 3 3 227 296 233 297
538 4 2 3 3 246 256 253 293
539 4 2 3 3 224 234 226 296
540 4 2 3 3 279 288 283 299
541 4 2 3 3 233 224 219 296
542 4 2 3 3 282 292 250 295
543 4 2 3 3 247 295 250 296
544 4 2 3 3 271 268 272 294
545 4 2 3 3 218 253 231 293
546 4 2 3 3 242 245 235 297
547 4 2 3 3 268 269 270 294
548 4 2 3 3 242 235 266 297
549 4 2 3 3 228 220 230 294
550 4 2 3 3 282 278 287 292
551 4 2 3 3 279 293 288 299
552 4 2 3 3 292 296 219 298
553 4 2 3 3 289 279 260 293
554 4 2 3 3 284 292 282 295
555 4 2 3 3 289 257 252 293
556 4 2 3 3 253 248 252 293
557 4 2 3 3 245 292 296 297
558 4 2 3 3 284 278 282 292
559 4 2 3 3 261 225 231 293
560 4 2 3 3 233 292 219 298
561 4 2 3 3 233 296 292 297
562 4 2 3 3 222 228 225 293
563 4 2 3 3 228 294 230 298
564 4 2 3 3 285 289 252 293
565 4 2 3 3 285 288 279 293
566 4 2 3 3 203 247 179 244
567 4 2 3 3 289 285 279 293
568 4 2 3 3 257 246 252 293
569 4 2 3 3 203 244 240 295
570 4 2 3 3 58 226 234 198
571 4 2 3 3 241 286 240 295
572 4 2 3 3 174 244 179 247
573 4 2 3 3 244 247 174 295
574 4 2 3 3 220 222 195 268
575 4 2 3 3 234 227 238 296
576 4 2 3 3 223 218 248 189
577 4 2 3 3 220 194 221 268
578 4 2 3 3 227 234 224 296
579 4 2 3 3 218 231 225 293
580 4 2 3 3 214 291 275 278
581 4 2 3 3 228 218 225 293
582 4 2 3 3 268 273 272 294
583 4 2 3 3 169 168 58 166
584 4 2 3 3 261 258 260 293
585 4 2 3 3 270 273 268 294
586 4 2 3 3 203 255 244 295
587 4 2 3 3 282 280 205 251
588 4 2 3 3 271 221 194 268
589 4 2 3 3 268 222 195 269
590 4 2 3 3 260 293 279 299
591 4 2 3 3 239 227 229 297
592 4 2 3 3 224 249 219 296
593 4 2 3 3 226 58 254 198
594 4 2 3 3 218 253 248 189
595 4 2 3 3 57 174 179 247
596 4 2 3 3 280 285 206 252
597 4 2 3 3 205 250 282 251
598 4 2 3 3 286 202 241 240
599 4 2 3 3 249 224 254 296
600 4 2 3 3 249 250 292 296
601 4 2 3 3 237 244 174 295
602 4 2 3 3 272 273 215 281
603 4 2 3 3 278 272 215 281
604 4 2 3 3 261 293 260 299
605 4 2 3 3 287 288 280 294
606 4 2 3 3 241 284 286 295
607 4 2 3 3 203 247 244 255
608 4 2 3 3 259 261 260 299
609 4 2 3 3 236 237 174 296
610 4 2 3 3 224 233 227 296
611 4 2 3 3 249 247 250 296
612 4 2 3 3 249 292 250 298
613 4 2 3 3 169 58 234 198
614 4 2 3 3 244 255 247 295
615 4 2 3 3 249 219 296 298
616 4 2 3 3 203 247 31 179
617 4 2 3 3 282 204 286 295
618 4 2 3 3 233 229 227 297
619 4 2 3 3 226 198 254 296
620 4 2 3 3 57 254 58 198
621 4 2 3 3 230 233 219 298
622 4 2 3 3 241 240 237 295
623 4 2 3 3 228 230 223 298
624 4 2 3 3 246 208 256 265
625 4 2 3 3 246 264 209 258
626 4 2 3 3 208 246 258 265
627 4 2 3 3 274 262 213 267
628 4 2 3 3 203 240 255 295
629 4 2 3 3 286 255 240 295
630 4 2 3 3 287 281 288 294
631 4 2 3 3 262 213 267 259
632 4 2 3 3 267 212 263 259
633 4 2 3 3 238 169 234 198
634 4 2 3 3 180 41 203 31
635 4 2 3 3 209 257 264 246
636 4 2 3 3 246 253 252 293
637 4 2 3 3 237 295 174 296
638 4 2 3 3 255 286 204 295
639 4 2 3 3 267 212 276 263
640 4 2 3 3 254 187 224 249
641 4 2 3 3 284 282 286 295
642 4 2 3 3 241 284 202 286
643 4 2 3 3 198 57 254 296
644 4 2 3 3 224 187 219 249
645 4 2 3 3 266 200 235 242
646 4 2 3 3 224 226 254 296
647 4 2 3 3 174 247 57 296
648 4 2 3 3 276 290 217 299
649 4 2 3 3 236 198 238 296
650 4 2 3 3 272 214 275 278
651 4 2 3 3 290 283 217 299
652 4 2 3 3 277 235 199 243
653 4 2 3 3 182 31 203 255
654 4 2 3 3 251 280 206 252
655 4 2 3 3 277 235 243 297
656 4 2 3 3 174 295 247 296
657 4 2 3 3 249 296 292 298
658 4 2 3 3 193 271 277 297
659 4 2 3 3 240 203 255 186
660 4 2 3 3 201 241 242 284
661 4 2 3 3 267 259 263 299
662 4 2 3 3 271 193 221 297
663 4 2 3 3 227 239 197 238
664 4 2 3 3 282 250 204 295
665 4 2 3 3 247 203 31 255
666 4 2 3 3 262 232 191 261
667 4 2 3 3 169 58 226 234
668 4 2 3 3 231 192 261 265
669 4 2 3 3 263 260 290 299
670 4 2 3 3 277 199 235 266
671 4 2 3 3 263 276 267 299
672 4 2 3 3 235 277 266 297
673 4 2 3 3 193 277 229 297
674 4 2 3 3 269 267 270 299
675 4 2 3 3 251 249 250 298
676 4 2 3 3 221 193 229 297
677 4 2 3 3 272 266 271 297
678 4 2 3 3 275 200 266 242
679 4 2 3 3 255 204 250 295
680 4 2 3 3 198 174 57 296
681 4 2 3 3 290 263 211 260
682 4 2 3 3 260 210 289 264
683 4 2 3 3 242 291 201 284
684 4 2 3 3 240 244 237 295
685 4 2 3 3 198 236 174 296
686 4 2 3 3 180 203 181 31
687 4 2 3 3 290 260 279 299
688 4 2 3 3 286 240 255 186
689 4 2 3 3 235 245 239 297
690 4 2 3 3 180 41 31 15
691 4 2 3 3 190 231 253 256
692 4 2 3 3 217 270 276 299
693 4 2 3 3 274 196 232 269
694 4 2 3 3 217 283 270 299
695 4 2 3 3 223 219 188 298
696 4 2 3 3 260 211 290 279
697 4 2 3 3 208 246 209 258
698 4 2 3 3 260 210 279 289
699 4 2 3 3 229 233 221 297
700 4 2 3 3 261 232 191 225
701 4 2 3 3 253 218 231 190
702 4 2 3 3 212 267 213 259
703 4 2 3 3 192 261 225 231
704 4 2 3 3 57 247 254 296
705 4 2 3 3 58 254 57 30
706 4 2 3 3 31 181 182 203
707 4 2 3 3 222 232 196 269
708 4 2 3 3 229 243 239 297
709 4 2 3 3 277 243 229 297
710 4 2 3 3 30 57 179 247
711 4 2 3 3 199 200 235 266
712 4 2 3 3 239 197 229 227
713 4 2 3 3 239 243 235 297
714 4 2 3 3 277 173 229 243
715 4 2 3 3 290 279 283 299
716 4 2 3 3 178 203 177 185
717 4 2 3 3 256 171 231 265
718 4 2 3 3 172 262 274 232
719 4 2 3 3 250 247 255 295
720 4 2 3 3 263 290 276 299
721 4 2 3 3 264 183 289 257
722 4 2 3 3 275 291 175 242
723 4 2 3 3 211 260 210 279
724 4 2 3 3 271 221 193 194
725 4 2 3 3 290 263 276 184
726 4 2 3 3 219 249 188 298
727 4 2 3 3 223 188 248 298
728 4 2 3 3 220 195 194 268
729 4 2 3 3 204 250 282 205
730 4 2 3 3 254 57 30 247
731 4 2 3 3 229 193 173 277
732 4 2 3 3 263 259 260 299
733 4 2 3 3 168 30 254 58
734 4 2 3 3 272 215 214 278
735 4 2 3 3 191 261 225 192
736 4 2 3 3 284 201 241 202
737 4 2 3 3 249 254 247 296
738 4 2 3 3 215 273 216 281
739 4 2 3 3 223 230 219 298
740 4 2 3 3 200 175 242 275
741 4 2 3 3 248 249 251 298
742 4 2 3 3 242 291 175 201
743 4 2 3 3 181 185 203 178
744 4 2 3 3 190 253 218 189
745 4 2 3 3 186 255 286 204
746 4 2 3 3 170 197 238 227
747 4 2 3 3 277 271 266 297
748 4 2 3 3 254 187 226 224
749 4 2 3 3 163 30 165 58
750 4 2 3 3 10 30 163 58
751 4 2 3 3 172 274 262 213
752 4 2 3 3 208 171 256 265
753 4 2 3 3 190 171 231 256
754 4 2 3 3 222 196 195 269
755 4 2 3 3 274 196 172 232
756 4 2 3 3 232 172 262 191
757 4 2 3 3 192 231 171 265
758 4 2 3 3 276 270 267 299
759 4 2 3 3 227 169 234 238
760 4 2 3 3 240 286 202 186
761 4 2 3 3 187 168 254 226
762 4 2 3 3 248 223 189 188
763 4 2 3 3 183 207 289 257
764 4 2 3 3 257 264 183 209
765 4 2 3 3 270 217 216 283
766 4 2 3 3 188 219 187 249
767 4 2 3 3 197 229 173 243
768 4 2 3 3 229 197 239 243
769 4 2 3 3 212 276 263 184
770 4 2 3 3 207 206 285 252
771 4 2 3 3 206 205 280 251
772 4 2 3 3 217 290 276 184
773 4 2 3 3 289 210 183 264
774 4 2 3 3 184 290 263 211
775 4 2 3 3 58 254 168 226
776 4 2 3 3 174 40 57 23
777 4 2 3 3 174 40 198 57
778 4 2 3 3 58 30 165 168
779 4 2 3 3 248 188 249 298
780 4 2 3 3 291 175 214 275
781 4 2 3 3 185 176 203 177
782 4 2 3 3 173 199 243 277
783 4 2 3 3 169 166 58 198
784 4 2 3 3 255 186 182 204
785 4 2 3 3 24 203 31 179
786 4 2 3 3 58 164 11 40
787 4 2 3 3 58 166 164 198
788 4 2 3 3 176 240 202 186
789 4 2 3 3 164 58 198 40
790 4 2 3 3 41 24 203 31
791 4 2 3 3 203 186 185 182
792 4 2 3 3 181 185 182 203
793 4 2 3 3 203 255 186 182
794 4 2 3 3 168 169 58 226
795 4 2 3 3 167 164 166 198
796 4 2 3 3 227 170 169 238
797 4 2 3 3 22 180 41 178
798 4 2 3 3 41 178 180 203
799 4 2 3 3 186 176 203 185
800 4 2 3 3 10 164 11 58
801 4 2 3 3 203 240 176 186
802 4 2 3 3 198 58 57 40
803 4 2 3 3 238 170 169 198
804 4 2 3 3 165 166 58 168
805 4 2 3 3 180 203 178 181
806 4 2 3 3 180 22 41 15
807 4 2 3 3 164 163 165 58
808 4 2 3 3 164 10 163 58
809 4 2 3 3 167 166 170 198
810 4 2 3 3 166 169 170 198
811 4 2 3 3 24 174 57 23
812 4 2 3 3 174 24 57 179
813 4 2 3 3 179 24 57 30
814 4 2 3 3 297 284 278 291
815 4 2 3 3 297 278 284 292
816 4 2 3 3 294 285 252 293
817 4 2 3 3 294 252 285 280
818 4 2 3 3 298 221 233 292
819 4 2 3 3 298 233 221 230
820 4 2 3 3 297 236 238 296
821 4 2 3 3 297 238 236 239
822 4 2 3 3 299 288 294 293
823 4 2 3 3 299 294 288 283
824 4 2 3 3 270 281 216 273
825 4 2 3 3 216 281 270 283
826 4 2 3 3 252 294 248 251
827 4 2 3 3 248 294 252 293
828 4 2 3 3 289 252 207 285
829 4 2 3 3 207 252 289 257
$EndElements
