$MeshFormat
2.2 0 8
$EndMeshFormat
$PhysicalNames
1
3 1 "air_OPEM_RESERVED_1"
$EndPhysicalNames
$Nodes
124
1 0.007637592455588641 0.003058845455722501 -0.008163857427809869
2 -0.02813734712741668 -0.04882651012706941 -0.085804462615299
3 0.001248120480478048 -0.01371625478282729 0.00599065633515222
4 -0.03452681910252729 -0.06560161036561922 -0.0716499488523369
5 0.00444285646803334 -0.00532870466355239 -0.00108660054632882
6 -0.031332083114972 -0.0572140602463443 -0.0787272057338179
7 -0.00780450580527577 -0.009260879913170062 0.007184470433454791
8 -0.04357944538828109 -0.06114623549596201 -0.0704561347540343
9 -0.001415033830165171 0.007514220325379721 -0.006970043329507299
10 -0.03718997341317049 -0.04437113525741221 -0.0846106485169964
11 -0.00460976981772047 -0.000873329793895171 0.000107213551973749
12 -0.0403847094007258 -0.0527586853766871 -0.0775333916355154
13 0.004060098497288113 -0.002129690102556692 -0.01592791794655879
14 0.0004826045389875813 -0.007318225660835891 -0.02369197846530771
15 -0.003094889419312957 -0.0125067612191151 -0.03145603898405663
16 -0.006672383377613489 -0.01769529677739429 -0.03922009950280556
17 -0.01024987733591402 -0.02288383233567348 -0.04698416002155446
18 -0.01382737129421454 -0.02807236789395267 -0.05474822054030336
19 -0.01740486525251507 -0.03326090345223186 -0.06251228105905227
20 -0.0209823592108156 -0.03844943901051106 -0.07027634157780119
21 -0.02455985316911613 -0.04363797456879025 -0.07804040209655011
22 -0.002329373477822487 -0.01890479034110648 -0.001773404183596695
23 -0.005906867436123019 -0.02409332589938568 -0.009537464702345615
24 -0.009484361394423558 -0.02928186145766489 -0.01730152522109454
25 -0.01306185535272409 -0.03447039701594409 -0.02506558573984347
26 -0.01663934931102462 -0.03965893257422327 -0.03282964625859237
27 -0.02021684326932514 -0.04484746813250246 -0.04059370677734127
28 -0.02379433722762567 -0.05003600369078165 -0.04835776729609018
29 -0.0273718311859262 -0.05522453924906085 -0.0561218278148391
30 -0.03094932514422673 -0.06041307480734005 -0.06388588833358802
31 0.006040224461811489 -0.00113492960391462 -0.004625228987070079
32 0.002845488474256192 -0.009522479723189503 0.002452027894410957
33 -0.02973471512118947 -0.05302028518670056 -0.08226583417454644
34 -0.03292945110874478 -0.06140783530597546 -0.0751885772930654
35 -0.01138199976357631 -0.01444941547144927 -0.0005795900852941212
36 -0.01495949372187684 -0.01963795102972846 -0.008343650604043039
37 -0.01853698768017738 -0.02482648658800767 -0.01610771112279197
38 -0.02211448163847791 -0.03001502214628687 -0.02387177164154089
39 -0.02569197559677844 -0.03520355770456605 -0.03163583216028979
40 -0.02926946955507896 -0.04039209326284524 -0.03939989267903869
41 -0.03284696351337948 -0.04558062882112443 -0.0471639531977876
42 -0.03642445747168002 -0.05076916437940363 -0.05492801371653652
43 -0.04000195142998055 -0.05595769993768283 -0.06269207423528544
44 -0.004992527788465707 0.002325684767100527 -0.01473410384825622
45 -0.00857002174676624 -0.002862850791178671 -0.02249816436700514
46 -0.01214751570506678 -0.008051386349457876 -0.03026222488575406
47 -0.01572500966336731 -0.01323992190773707 -0.03802628540450299
48 -0.01930250362166784 -0.01842845746601626 -0.04579034592325189
49 -0.02287999757996836 -0.02361699302429545 -0.05355440644200079
50 -0.02645749153826889 -0.02880552858257464 -0.0613184669607497
51 -0.03003498549656942 -0.03399406414085384 -0.06908252747949861
52 -0.03361247945486995 -0.03918259969913303 -0.07684658799824753
53 -0.00620713781149761 -0.005067104853533015 0.003645841992713345
54 -0.003012401823942308 0.003320445265741883 -0.003431414888767704
55 -0.0419820773944968 -0.05695246043632254 -0.07399476319476656
56 -0.0387873414069415 -0.04856491031704765 -0.08107202007624759
57 -0.01445920395076615 -0.03183315827649919 -0.04550391184832102
58 -0.02441842554418285 -0.04587961193511098 -0.06860205969481971
59 -0.007304216034165106 -0.02145608715994083 -0.0299757908108232
60 -0.0002456568243725697 -0.01082119632163639 -0.01614107962499312
61 -0.03110191724069546 -0.05852206868063548 -0.07210031670457294
62 0.00141833738181507 -0.01135707009784458 -0.001523195424332975
63 -0.01927951726372178 -0.04098527990574558 -0.04789989820457825
64 -0.005275034779571404 -0.02033253551683915 -0.01878177339432798
65 -0.01243002269617247 -0.03070960663339756 -0.0343098944318258
66 -0.02316250457107403 -0.04627521330823508 -0.0576020759880725
67 0.003169352284647536 -0.006083305588278499 -0.007927303349640175
68 -0.02819934126350572 -0.05157816422073646 -0.07600524783837141
69 -0.0012617548499301 -0.01497320949724123 -0.008350570634326494
70 -0.02796080890190765 -0.05369556456920124 -0.06629422445152858
71 -0.01660498729820203 -0.03760688910447361 -0.04022741150413174
72 -0.01019952946548688 -0.02485360668975433 -0.0392510769356252
73 -0.01794241849877274 -0.03635711463528653 -0.05503330015091601
74 -0.02078211461547206 -0.04004445646827511 -0.06280521169413235
75 -0.009534709264850703 -0.02731208710358405 -0.02503460830702382
76 -0.00308743850368689 -0.01448696117567347 -0.02400933225590173
77 -0.03368689130795337 -0.05559111959337184 -0.05940695102506227
78 -0.03726438526625393 -0.06077965515165107 -0.06717101154381123
79 -0.02295440943305179 -0.04002551291853425 -0.03611476946881553
80 -0.01579942151645073 -0.02964844180197588 -0.02058664843131772
81 -0.01937691547475126 -0.03483697736025507 -0.02835070895006662
82 -0.02653190339135231 -0.04521404847681344 -0.04387882998756442
83 -0.03010939734965285 -0.05040258403509264 -0.05164289050631335
84 -0.0122219275581502 -0.02445990624369668 -0.01282258791256879
85 -0.005066939641549133 -0.01408283512713827 0.00270553312492905
86 -0.008644433599849665 -0.01927137068541748 -0.005058527393819868
87 -0.03569619610831899 -0.04726619371860157 -0.06247891255685022
88 -0.02148264898192629 -0.02625423176374034 -0.03311608033352324
89 -0.02620231955777207 -0.03093820495657178 -0.05142425536059637
90 -0.01152342738850888 -0.0122077781051274 -0.01001793248702337
91 -0.03736019031450563 -0.04673031994239159 -0.07709679675750954
92 -0.00483993569199528 0.0004346786403988927 -0.006519675477269349
93 -0.01666233566897067 -0.01710211013449394 -0.03072009397726597
94 -0.03066681815312103 -0.03775485452340038 -0.05983821878751622
95 -0.0127793483616184 -0.01181217673200442 -0.0210179161937717
96 -0.02579931347110051 -0.03279952899581068 -0.04142172660908125
97 -0.007742511669185382 -0.006509225819500777 -0.002614744343471123
98 -0.03911120521733839 -0.05200408445195822 -0.07069268883220256
99 -0.03468009808276044 -0.04311418054299506 -0.07026942154751543
100 -0.007981044030783872 -0.004391825471037232 -0.01232576773031258
101 -0.0224864898272793 -0.02540594133775528 -0.04389401291762936
102 -0.02961369927237645 -0.03851269417113268 -0.0490241804862895
103 -0.01913179755264228 -0.02008613252194858 -0.03830936371123468
104 -0.0330496269037752 -0.04397670712273254 -0.05468665574899603
105 -0.0152773185405572 -0.01826822093775895 -0.01586560092327026
106 -0.01780885347862131 -0.02137970805038203 -0.02344986236536067
107 -0.03087491329114333 -0.04400455491310128 -0.08132552530677332
108 -0.02729741933284278 -0.03881601935482205 -0.07356146478802436
109 -0.01656493745794119 -0.02325041267998446 -0.05026928323177762
110 -0.01298744349964066 -0.01806187712170528 -0.04250522271302872
111 -0.02014243141624171 -0.02843894823826365 -0.05803334375052652
112 -0.009409949541340131 -0.01287334156342608 -0.03474116219427981
113 -0.002254961624739064 -0.002496270446867684 -0.01921304115678196
114 -0.02371992537454225 -0.03362748379654285 -0.06579740426927544
115 -0.005832455583039597 -0.007684806005146882 -0.02697710167553089
116 0.00132253233356147 0.002692265111411515 -0.01144898063803304
117 0.001038918048748089 -0.0001543029201228167 -0.002976075554124249
118 0.002057859862408224 0.002520855704561869 -0.005233324037456098
119 -0.002155817938807127 -0.008541853039397338 0.004101181327356509
120 -0.001136876125147199 -0.005866694414713317 0.0018439328440252
121 -0.03473602153425085 -0.05203965850290989 -0.08061668074160383
122 -0.03371707972059117 -0.0493644998782264 -0.08287392922493467
123 -0.03793075752180657 -0.06042720862218575 -0.07353942386012194
124 -0.03691181570814619 -0.05775204999750053 -0.07579667234345426
$EndNodes
$Elements
285
1 4 2 1 1 12 68 6 121
2 4 2 1 1 80 81 38 75
3 4 2 1 1 101 103 88 72
4 4 2 1 1 88 38 81 75
5 4 2 1 1 95 112 46 76
6 4 2 1 1 80 25 81 75
7 4 2 1 1 71 101 88 57
8 4 2 1 1 81 39 88 71
9 4 2 1 1 96 101 88 71
10 4 2 1 1 50 74 114 73
11 4 2 1 1 112 115 46 76
12 4 2 1 1 120 62 97 67
13 4 2 1 1 61 124 98 68
14 4 2 1 1 39 81 79 71
15 4 2 1 1 88 65 71 57
16 4 2 1 1 88 103 93 72
17 4 2 1 1 15 115 112 76
18 4 2 1 1 118 67 117 92
19 4 2 1 1 68 122 121 91
20 4 2 1 1 106 80 38 75
21 4 2 1 1 26 79 81 71
22 4 2 1 1 68 12 124 98
23 4 2 1 1 96 101 71 57
24 4 2 1 1 112 95 59 76
25 4 2 1 1 94 74 114 50
26 4 2 1 1 29 83 66 104
27 4 2 1 1 62 97 119 120
28 4 2 1 1 61 98 124 123
29 4 2 1 1 93 88 65 75
30 4 2 1 1 38 88 106 75
31 4 2 1 1 65 88 81 75
32 4 2 1 1 96 39 79 71
33 4 2 1 1 75 65 93 59
34 4 2 1 1 25 65 81 75
35 4 2 1 1 39 96 88 71
36 4 2 1 1 46 112 95 93
37 4 2 1 1 88 93 106 75
38 4 2 1 1 81 88 65 71
39 4 2 1 1 101 103 72 110
40 4 2 1 1 58 74 114 94
41 4 2 1 1 87 29 66 104
42 4 2 1 1 103 93 72 110
43 4 2 1 1 58 74 20 114
44 4 2 1 1 105 90 84 64
45 4 2 1 1 59 15 112 76
46 4 2 1 1 94 74 50 73
47 4 2 1 1 12 68 124 6
48 4 2 1 1 58 108 51 114
49 4 2 1 1 45 115 113 60
50 4 2 1 1 84 23 90 86
51 4 2 1 1 102 66 83 104
52 4 2 1 1 65 26 81 71
53 4 2 1 1 84 36 90 105
54 4 2 1 1 73 74 114 19
55 4 2 1 1 14 113 115 60
56 4 2 1 1 90 36 84 86
57 4 2 1 1 108 58 20 114
58 4 2 1 1 112 95 93 59
59 4 2 1 1 95 46 115 76
60 4 2 1 1 17 101 72 110
61 4 2 1 1 114 111 50 73
62 4 2 1 1 89 18 109 57
63 4 2 1 1 84 24 80 106
64 4 2 1 1 59 65 93 72
65 4 2 1 1 93 65 88 72
66 4 2 1 1 72 93 16 110
67 4 2 1 1 114 51 58 94
68 4 2 1 1 115 45 95 60
69 4 2 1 1 23 84 90 64
70 4 2 1 1 114 111 73 19
71 4 2 1 1 95 115 60 76
72 4 2 1 1 105 84 37 106
73 4 2 1 1 28 83 82 102
74 4 2 1 1 103 47 93 110
75 4 2 1 1 101 17 109 110
76 4 2 1 1 105 106 64 75
77 4 2 1 1 111 89 18 109
78 4 2 1 1 112 16 93 110
79 4 2 1 1 83 28 66 102
80 4 2 1 1 106 24 80 75
81 4 2 1 1 84 80 37 106
82 4 2 1 1 103 101 48 110
83 4 2 1 1 60 115 14 76
84 4 2 1 1 83 102 104 41
85 4 2 1 1 102 83 82 41
86 4 2 1 1 70 77 29 87
87 4 2 1 1 51 108 58 99
88 4 2 1 1 45 113 100 60
89 4 2 1 1 90 23 69 86
90 4 2 1 1 109 48 101 110
91 4 2 1 1 50 111 89 73
92 4 2 1 1 89 111 49 109
93 4 2 1 1 93 47 112 110
94 4 2 1 1 27 63 82 79
95 4 2 1 1 82 63 28 102
96 4 2 1 1 94 102 66 73
97 4 2 1 1 17 72 101 57
98 4 2 1 1 70 61 98 68
99 4 2 1 1 100 97 67 92
100 4 2 1 1 99 68 98 91
101 4 2 1 1 97 62 69 67
102 4 2 1 1 58 66 94 87
103 4 2 1 1 64 95 90 60
104 4 2 1 1 75 93 106 59
105 4 2 1 1 109 17 101 57
106 4 2 1 1 64 106 95 59
107 4 2 1 1 59 93 16 72
108 4 2 1 1 89 18 57 73
109 4 2 1 1 66 74 94 73
110 4 2 1 1 106 64 75 59
111 4 2 1 1 99 107 68 91
112 4 2 1 1 98 78 61 70
113 4 2 1 1 116 100 67 92
114 4 2 1 1 85 62 69 97
115 4 2 1 1 95 64 59 76
116 4 2 1 1 63 66 28 102
117 4 2 1 1 16 112 93 59
118 4 2 1 1 89 111 18 73
119 4 2 1 1 120 5 62 67
120 4 2 1 1 61 6 124 68
121 4 2 1 1 89 94 50 73
122 4 2 1 1 102 94 89 73
123 4 2 1 1 66 94 87 104
124 4 2 1 1 102 63 66 73
125 4 2 1 1 109 101 89 57
126 4 2 1 1 94 51 58 99
127 4 2 1 1 66 70 29 87
128 4 2 1 1 95 45 100 60
129 4 2 1 1 90 69 23 64
130 4 2 1 1 98 70 68 99
131 4 2 1 1 100 97 69 67
132 4 2 1 1 89 96 63 57
133 4 2 1 1 107 68 21 99
134 4 2 1 1 78 98 43 70
135 4 2 1 1 67 13 100 116
136 4 2 1 1 69 35 85 97
137 4 2 1 1 74 58 66 94
138 4 2 1 1 67 118 116 92
139 4 2 1 1 122 68 107 91
140 4 2 1 1 106 93 95 59
141 4 2 1 1 66 102 94 104
142 4 2 1 1 97 85 62 119
143 4 2 1 1 61 78 98 123
144 4 2 1 1 82 40 96 102
145 4 2 1 1 79 27 63 71
146 4 2 1 1 105 95 90 64
147 4 2 1 1 87 94 58 99
148 4 2 1 1 66 58 70 87
149 4 2 1 1 95 100 90 60
150 4 2 1 1 90 69 64 60
151 4 2 1 1 95 105 106 64
152 4 2 1 1 79 63 96 71
153 4 2 1 1 31 67 117 118
154 4 2 1 1 68 121 122 33
155 4 2 1 1 68 58 21 99
156 4 2 1 1 70 98 43 87
157 4 2 1 1 67 100 13 60
158 4 2 1 1 69 90 35 97
159 4 2 1 1 43 77 70 87
160 4 2 1 1 108 21 58 99
161 4 2 1 1 113 13 100 60
162 4 2 1 1 69 90 86 35
163 4 2 1 1 108 107 21 99
164 4 2 1 1 77 78 43 70
165 4 2 1 1 116 13 100 113
166 4 2 1 1 35 86 69 85
167 4 2 1 1 60 64 95 76
168 4 2 1 1 82 96 63 102
169 4 2 1 1 57 63 89 73
170 4 2 1 1 108 107 99 52
171 4 2 1 1 77 30 78 70
172 4 2 1 1 44 116 100 113
173 4 2 1 1 86 22 69 85
174 4 2 1 1 97 53 119 120
175 4 2 1 1 55 124 98 123
176 4 2 1 1 96 89 101 57
177 4 2 1 1 71 63 96 57
178 4 2 1 1 118 31 67 116
179 4 2 1 1 33 122 68 107
180 4 2 1 1 49 101 89 109
181 4 2 1 1 85 97 53 119
182 4 2 1 1 98 78 55 123
183 4 2 1 1 102 96 63 89
184 4 2 1 1 58 68 70 99
185 4 2 1 1 87 70 98 99
186 4 2 1 1 69 90 97 100
187 4 2 1 1 69 100 67 60
188 4 2 1 1 107 99 52 91
189 4 2 1 1 30 61 78 70
190 4 2 1 1 92 116 100 44
191 4 2 1 1 22 62 69 85
192 4 2 1 1 33 68 2 107
193 4 2 1 1 8 98 78 55
194 4 2 1 1 7 85 97 53
195 4 2 1 1 31 1 67 116
196 4 2 1 1 63 102 89 73
197 4 2 1 1 9 1 118 116
198 4 2 1 1 122 2 10 107
199 4 2 1 1 87 58 70 99
200 4 2 1 1 69 90 100 60
201 4 2 1 1 118 54 9 92
202 4 2 1 1 56 122 10 91
203 4 2 1 1 34 4 61 123
204 4 2 1 1 32 62 3 119
205 4 2 1 1 4 8 78 123
206 4 2 1 1 7 3 85 119
207 4 2 1 1 1 31 118 116
208 4 2 1 1 2 122 33 107
209 4 2 1 1 53 7 85 119
210 4 2 1 1 55 78 8 123
211 4 2 1 1 67 1 13 116
212 4 2 1 1 85 35 7 97
213 4 2 1 1 78 98 8 43
214 4 2 1 1 21 2 68 107
215 4 2 1 1 109 18 17 57
216 4 2 1 1 112 16 15 59
217 4 2 1 1 81 26 65 25
218 4 2 1 1 38 39 88 81
219 4 2 1 1 118 117 54 92
220 4 2 1 1 56 121 122 91
221 4 2 1 1 119 32 62 120
222 4 2 1 1 124 34 61 123
223 4 2 1 1 84 23 24 64
224 4 2 1 1 94 114 51 50
225 4 2 1 1 29 83 28 66
226 4 2 1 1 46 115 45 95
227 4 2 1 1 39 40 96 79
228 4 2 1 1 61 78 4 30
229 4 2 1 1 9 116 92 44
230 4 2 1 1 22 3 62 85
231 4 2 1 1 10 107 52 91
232 4 2 1 1 43 42 77 87
233 4 2 1 1 58 20 21 108
234 4 2 1 1 86 90 36 35
235 4 2 1 1 14 13 113 60
236 4 2 1 1 102 82 40 41
237 4 2 1 1 49 48 101 109
238 4 2 1 1 49 111 89 50
239 4 2 1 1 112 46 47 93
240 4 2 1 1 27 63 28 82
241 4 2 1 1 47 103 48 110
242 4 2 1 1 80 38 37 106
243 4 2 1 1 42 83 104 41
244 4 2 1 1 74 20 114 19
245 4 2 1 1 116 118 9 92
246 4 2 1 1 107 10 122 91
247 4 2 1 1 85 3 62 119
248 4 2 1 1 61 4 78 123
249 4 2 1 1 30 77 29 70
250 4 2 1 1 99 51 108 52
251 4 2 1 1 100 44 113 45
252 4 2 1 1 23 22 69 86
253 4 2 1 1 36 84 37 105
254 4 2 1 1 111 18 73 19
255 4 2 1 1 27 79 26 71
256 4 2 1 1 25 80 24 75
257 4 2 1 1 17 72 16 110
258 4 2 1 1 115 15 14 76
259 4 2 1 1 12 121 56 91
260 4 2 1 1 117 11 54 92
261 4 2 1 1 32 5 62 120
262 4 2 1 1 34 6 124 61
263 4 2 1 1 67 117 5 31
264 4 2 1 1 68 6 121 33
265 4 2 1 1 53 97 11 120
266 4 2 1 1 12 124 98 55
267 4 2 1 1 104 42 77 83
268 4 2 1 1 77 42 104 87
269 4 2 1 1 77 29 104 83
270 4 2 1 1 104 29 77 87
271 4 2 1 1 84 106 75 24
272 4 2 1 1 75 106 84 105
273 4 2 1 1 75 64 84 24
274 4 2 1 1 84 64 75 105
275 4 2 1 1 88 57 72 65
276 4 2 1 1 72 57 88 101
277 4 2 1 1 96 82 79 40
278 4 2 1 1 79 82 96 63
279 4 2 1 1 120 67 11 5
280 4 2 1 1 120 11 67 97
281 4 2 1 1 117 11 67 5
282 4 2 1 1 68 12 91 121
283 4 2 1 1 68 91 12 98
284 4 2 1 1 11 67 92 117
285 4 2 1 1 11 92 67 97
$EndElements
