$MeshFormat
2.2 0 8
$EndMeshFormat
$PhysicalNames
1
3 1 "air_OPEM_RESERVED_1"
$EndPhysicalNames
$Nodes
128
1 0 0 0
2 0 0 0.1
3 0.02286 0 0
4 0.02286 0 0.1
5 0.01143 0 0
6 0.01143 0 0.1
7 0.02286 0.01016 0
8 0.02286 0.01016 0.1
9 0 0.01016 0
10 0 0.01016 0.1
11 0.01143 0.01016 0
12 0.01143 0.01016 0.1
13 0 0 0.01000000000000003
14 0 0 0.02000000000000004
15 0 0 0.03000000000000006
16 0 0 0.04000000000000006
17 0 0 0.05000000000000008
18 0 0 0.0600000000000001
19 0 0 0.0700000000000001
20 0 0 0.08000000000000011
21 0 0 0.09000000000000007
22 0.02286 0 0.01000000000000003
23 0.02286 0 0.02000000000000004
24 0.02286 0 0.03000000000000006
25 0.02286 0 0.04000000000000006
26 0.02286 0 0.05000000000000008
27 0.02286 0 0.0600000000000001
28 0.02286 0 0.0700000000000001
29 0.02286 0 0.08000000000000011
30 0.02286 0 0.09000000000000007
31 0.005714999999999997 0 0
32 0.01714499999999999 0 0
33 0.005714999999999997 0 0.1
34 0.01714499999999999 0 0.1
35 0.02286 0.01016 0.01000000000000003
36 0.02286 0.01016 0.02000000000000004
37 0.02286 0.01016 0.03000000000000006
38 0.02286 0.01016 0.04000000000000006
39 0.02286 0.01016 0.05000000000000008
40 0.02286 0.01016 0.0600000000000001
41 0.02286 0.01016 0.0700000000000001
42 0.02286 0.01016 0.08000000000000011
43 0.02286 0.01016 0.09000000000000007
44 0 0.01016 0.01000000000000003
45 0 0.01016 0.02000000000000004
46 0 0.01016 0.03000000000000006
47 0 0.01016 0.04000000000000006
48 0 0.01016 0.05000000000000008
49 0 0.01016 0.0600000000000001
50 0 0.01016 0.0700000000000001
51 0 0.01016 0.08000000000000011
52 0 0.01016 0.09000000000000007
53 0.017145 0.01016 0
54 0.005715000000000008 0.01016 0
55 0.017145 0.01016 0.1
56 0.005715000000000008 0.01016 0.1
57 0.00744948342508045 0 0.0837844997106495
58 0.00852502942388411 0 0.05391058798810407
59 0.008525029423884112 0 0.03608941201189609
60 0.01458482857048302 0 0.01528347410427792
61 0.01642876317431693 0 0.09545116637731613
62 0.006431236825683061 0 0.004548833622683894
63 0.01419974596215563 0 0.07500000000000009
64 0.0141997459621556 0 0.04500000000000007
65 0.008505711621889791 0 0.0659337817244824
66 0.008694344196175553 0 0.02372723836948247
67 0.008104046520756998 0 0.09384171421921292
68 0.01463799805003778 0 0.006025139182919586
69 0.01560406058167231 0 0.08731530278343427
70 0.007154920954098377 0 0.01234366655347527
71 0.006030988201825174 0 0.07494365628702644
72 0.0148798295802698 0 0.06000000000000014
73 0.01487982958026982 0 0.03000000000000006
74 0.006219575542425426 0 0.04500000000000007
75 0.01639098412190033 0 0.06659793569871821
76 0.01639374380789952 0 0.03662016859692012
77 0.01677580046938568 0 0.02380214249475211
78 0.01639374380789951 0 0.05337983140308003
79 0.02286 0.005080000000000001 0.07500000000000009
80 0.02286 0.00508 0.08500000000000009
81 0.02286 0.005080000000000001 0.09500000000000008
82 0.02286 0.005079999999999998 0.05500000000000009
83 0.02286 0.00508 0.02500000000000005
84 0.02286 0.00508 0.03500000000000006
85 0.02286 0.005079999999999999 0.04500000000000007
86 0.02286 0.005079999999999999 0.0650000000000001
87 0.02286 0.00508 0.005000000000000013
88 0.02286 0.00508 0.01500000000000003
89 0.01541051657491955 0.01016 0.0837844997106495
90 0.01433497057611589 0.01016 0.05391058798810407
91 0.01433497057611589 0.01016 0.03608941201189609
92 0.008275171429516975 0.01016 0.01528347410427792
93 0.00643123682568307 0.01016 0.09545116637731613
94 0.01642876317431694 0.01016 0.004548833622683894
95 0.008660254037844367 0.01016 0.07500000000000009
96 0.008660254037844395 0.01016 0.04500000000000007
97 0.01435428837811021 0.01016 0.0659337817244824
98 0.01416565580382445 0.01016 0.02372723836948247
99 0.014755953479243 0.01016 0.09384171421921292
100 0.00822200194996222 0.01016 0.006025139182919588
101 0.007255939418327684 0.01016 0.08731530278343427
102 0.01570507904590162 0.01016 0.01234366655347527
103 0.01682901179817482 0.01016 0.07494365628702644
104 0.007980170419730202 0.01016 0.06000000000000014
105 0.007980170419730181 0.01016 0.03000000000000006
106 0.01664042445757457 0.01016 0.04500000000000007
107 0.006469015878099667 0.01016 0.06659793569871821
108 0.006466256192100481 0.01016 0.03662016859692012
109 0.006084199530614322 0.01016 0.02380214249475211
110 0.006466256192100485 0.01016 0.05337983140308003
111 0 0.005079999999999999 0.07500000000000009
112 0 0.00508 0.08500000000000008
113 0 0.005079999999999999 0.09500000000000008
114 0 0.00508 0.05500000000000009
115 0 0.005080000000000002 0.0650000000000001
116 0 0.00508 0.04500000000000007
117 0 0.00508 0.02500000000000005
118 0 0.00508 0.03500000000000006
119 0 0.00508 0.005000000000000013
120 0 0.00508 0.01500000000000003
121 0.007414412126503342 0.00508 0
122 0.003768882425300669 0.00508 0
123 0.01544578703703703 0.00508 0
124 0.0190911574074074 0.00508 0
125 0.007414412126503342 0.00508 0.1
126 0.003768882425300669 0.00508 0.1
127 0.01544578703703703 0.00508 0.1
128 0.0190911574074074 0.00508 0.1
$EndNodes
$Elements
297
1 4 2 1 1 12 6 99 127
2 4 2 1 1 116 74 16 108
3 4 2 1 1 106 38 85 76
4 4 2 1 1 106 39 78 85
5 4 2 1 1 110 116 74 17
6 4 2 1 1 125 67 93 99
7 4 2 1 1 19 107 111 71
8 4 2 1 1 41 75 79 103
9 4 2 1 1 124 94 123 68
10 4 2 1 1 122 62 121 100
11 4 2 1 1 127 128 61 99
12 4 2 1 1 93 126 67 125
13 4 2 1 1 62 121 100 68
14 4 2 1 1 6 99 67 125
15 4 2 1 1 109 66 120 92
16 4 2 1 1 88 98 60 77
17 4 2 1 1 78 106 85 64
18 4 2 1 1 64 106 85 76
19 4 2 1 1 108 116 74 96
20 4 2 1 1 96 116 74 110
21 4 2 1 1 14 66 120 109
22 4 2 1 1 88 36 98 77
23 4 2 1 1 36 88 83 77
24 4 2 1 1 109 120 14 117
25 4 2 1 1 88 83 77 23
26 4 2 1 1 120 109 45 117
27 4 2 1 1 95 111 71 57
28 4 2 1 1 89 79 63 103
29 4 2 1 1 17 74 110 58
30 4 2 1 1 90 39 78 106
31 4 2 1 1 6 12 99 125
32 4 2 1 1 79 29 80 89
33 4 2 1 1 112 111 51 57
34 4 2 1 1 111 115 107 19
35 4 2 1 1 41 79 75 86
36 4 2 1 1 85 38 84 76
37 4 2 1 1 108 16 116 118
38 4 2 1 1 78 39 82 85
39 4 2 1 1 110 116 17 114
40 4 2 1 1 111 20 71 57
41 4 2 1 1 79 89 42 103
42 4 2 1 1 89 80 79 42
43 4 2 1 1 20 111 112 57
44 4 2 1 1 107 19 65 71
45 4 2 1 1 75 41 97 103
46 4 2 1 1 90 40 72 82
47 4 2 1 1 114 104 18 58
48 4 2 1 1 74 59 16 108
49 4 2 1 1 106 91 38 76
50 4 2 1 1 72 40 97 86
51 4 2 1 1 18 104 115 65
52 4 2 1 1 74 96 58 64
53 4 2 1 1 106 90 96 64
54 4 2 1 1 37 98 83 73
55 4 2 1 1 66 15 105 117
56 4 2 1 1 106 78 90 64
57 4 2 1 1 74 96 110 58
58 4 2 1 1 28 75 79 86
59 4 2 1 1 115 111 107 50
60 4 2 1 1 65 58 104 72
61 4 2 1 1 104 72 90 97
62 4 2 1 1 84 85 76 25
63 4 2 1 1 116 110 48 114
64 4 2 1 1 116 47 108 118
65 4 2 1 1 82 26 78 85
66 4 2 1 1 27 72 86 82
67 4 2 1 1 49 104 115 114
68 4 2 1 1 46 105 118 117
69 4 2 1 1 83 84 73 24
70 4 2 1 1 111 95 51 57
71 4 2 1 1 29 79 63 89
72 4 2 1 1 58 104 18 65
73 4 2 1 1 90 72 40 97
74 4 2 1 1 98 91 105 73
75 4 2 1 1 59 66 105 73
76 4 2 1 1 18 115 104 114
77 4 2 1 1 86 72 40 82
78 4 2 1 1 96 74 59 64
79 4 2 1 1 91 106 96 64
80 4 2 1 1 105 15 59 118
81 4 2 1 1 84 91 37 73
82 4 2 1 1 91 106 64 76
83 4 2 1 1 108 74 59 96
84 4 2 1 1 102 70 100 68
85 4 2 1 1 118 105 15 117
86 4 2 1 1 83 84 37 73
87 4 2 1 1 100 70 62 68
88 4 2 1 1 100 94 102 68
89 4 2 1 1 120 109 92 45
90 4 2 1 1 77 60 88 23
91 4 2 1 1 66 15 59 105
92 4 2 1 1 98 37 91 73
93 4 2 1 1 75 63 79 103
94 4 2 1 1 107 95 111 71
95 4 2 1 1 88 98 102 60
96 4 2 1 1 66 70 120 92
97 4 2 1 1 51 101 112 57
98 4 2 1 1 80 29 69 89
99 4 2 1 1 58 96 90 64
100 4 2 1 1 58 96 110 90
101 4 2 1 1 90 78 58 64
102 4 2 1 1 72 58 104 90
103 4 2 1 1 67 61 69 99
104 4 2 1 1 67 101 93 99
105 4 2 1 1 102 94 87 68
106 4 2 1 1 70 62 119 100
107 4 2 1 1 63 95 57 89
108 4 2 1 1 72 104 65 97
109 4 2 1 1 77 83 98 73
110 4 2 1 1 105 109 66 117
111 4 2 1 1 93 12 125 99
112 4 2 1 1 68 87 102 22
113 4 2 1 1 119 70 100 44
114 4 2 1 1 19 115 107 65
115 4 2 1 1 41 75 97 86
116 4 2 1 1 83 98 36 77
117 4 2 1 1 14 66 109 117
118 4 2 1 1 96 59 91 64
119 4 2 1 1 98 66 92 60
120 4 2 1 1 90 78 39 82
121 4 2 1 1 114 17 110 58
122 4 2 1 1 70 92 100 44
123 4 2 1 1 102 60 68 22
124 4 2 1 1 59 91 64 76
125 4 2 1 1 96 59 108 91
126 4 2 1 1 98 105 66 73
127 4 2 1 1 100 92 70 102
128 4 2 1 1 60 70 102 68
129 4 2 1 1 81 69 61 99
130 4 2 1 1 113 101 93 67
131 4 2 1 1 91 59 105 73
132 4 2 1 1 95 107 65 71
133 4 2 1 1 63 75 97 103
134 4 2 1 1 121 62 5 68
135 4 2 1 1 38 91 84 76
136 4 2 1 1 108 59 16 118
137 4 2 1 1 29 63 69 89
138 4 2 1 1 101 51 95 57
139 4 2 1 1 92 70 120 44
140 4 2 1 1 60 102 88 22
141 4 2 1 1 94 124 87 68
142 4 2 1 1 62 122 119 100
143 4 2 1 1 110 104 114 58
144 4 2 1 1 90 72 78 82
145 4 2 1 1 69 101 67 99
146 4 2 1 1 101 113 21 67
147 4 2 1 1 99 81 69 43
148 4 2 1 1 128 81 61 99
149 4 2 1 1 126 113 93 67
150 4 2 1 1 97 75 72 86
151 4 2 1 1 104 107 115 65
152 4 2 1 1 92 102 98 60
153 4 2 1 1 66 70 92 60
154 4 2 1 1 92 109 66 98
155 4 2 1 1 60 98 66 77
156 4 2 1 1 89 63 95 103
157 4 2 1 1 57 71 95 63
158 4 2 1 1 98 102 36 88
159 4 2 1 1 14 66 70 120
160 4 2 1 1 63 75 65 97
161 4 2 1 1 107 95 65 97
162 4 2 1 1 108 105 59 118
163 4 2 1 1 84 91 73 76
164 4 2 1 1 85 64 76 25
165 4 2 1 1 85 26 78 64
166 4 2 1 1 110 96 116 48
167 4 2 1 1 108 47 116 96
168 4 2 1 1 57 69 63 89
169 4 2 1 1 95 101 57 89
170 4 2 1 1 124 123 32 68
171 4 2 1 1 121 122 100 54
172 4 2 1 1 70 119 120 44
173 4 2 1 1 87 88 102 22
174 4 2 1 1 128 127 55 99
175 4 2 1 1 33 67 126 125
176 4 2 1 1 99 69 89 43
177 4 2 1 1 101 21 57 67
178 4 2 1 1 69 80 89 43
179 4 2 1 1 21 112 101 57
180 4 2 1 1 80 69 81 43
181 4 2 1 1 101 113 112 21
182 4 2 1 1 88 102 35 87
183 4 2 1 1 119 13 70 120
184 4 2 1 1 97 95 63 103
185 4 2 1 1 71 65 95 63
186 4 2 1 1 52 101 113 112
187 4 2 1 1 81 30 69 80
188 4 2 1 1 32 87 124 68
189 4 2 1 1 122 119 100 54
190 4 2 1 1 102 92 70 60
191 4 2 1 1 55 81 128 99
192 4 2 1 1 67 126 113 33
193 4 2 1 1 110 104 58 90
194 4 2 1 1 58 72 78 90
195 4 2 1 1 63 65 95 97
196 4 2 1 1 65 104 107 97
197 4 2 1 1 65 75 72 97
198 4 2 1 1 77 98 66 73
199 4 2 1 1 105 66 109 98
200 4 2 1 1 67 57 101 69
201 4 2 1 1 89 101 69 99
202 4 2 1 1 32 3 87 68
203 4 2 1 1 100 119 9 54
204 4 2 1 1 111 95 107 50
205 4 2 1 1 79 63 75 28
206 4 2 1 1 30 69 61 81
207 4 2 1 1 101 93 52 113
208 4 2 1 1 59 105 108 91
209 4 2 1 1 73 91 59 76
210 4 2 1 1 67 113 2 33
211 4 2 1 1 55 8 81 99
212 4 2 1 1 102 94 35 87
213 4 2 1 1 70 62 13 119
214 4 2 1 1 81 4 8 128
215 4 2 1 1 10 2 113 126
216 4 2 1 1 3 7 124 87
217 4 2 1 1 122 9 1 119
218 4 2 1 1 69 57 101 89
219 4 2 1 1 94 53 7 124
220 4 2 1 1 62 31 1 122
221 4 2 1 1 4 61 34 128
222 4 2 1 1 56 10 93 126
223 4 2 1 1 105 46 109 117
224 4 2 1 1 73 77 83 24
225 4 2 1 1 96 47 116 48
226 4 2 1 1 64 85 26 25
227 4 2 1 1 87 124 3 32
228 4 2 1 1 119 122 9 54
229 4 2 1 1 8 81 128 55
230 4 2 1 1 126 2 113 33
231 4 2 1 1 104 115 107 49
232 4 2 1 1 27 72 75 86
233 4 2 1 1 110 104 49 114
234 4 2 1 1 27 78 72 82
235 4 2 1 1 46 105 108 118
236 4 2 1 1 76 73 84 24
237 4 2 1 1 92 120 45 44
238 4 2 1 1 22 88 60 23
239 4 2 1 1 3 87 68 22
240 4 2 1 1 100 9 119 44
241 4 2 1 1 99 8 81 43
242 4 2 1 1 21 113 2 67
243 4 2 1 1 31 62 121 122
244 4 2 1 1 53 94 123 124
245 4 2 1 1 93 56 126 125
246 4 2 1 1 61 34 128 127
247 4 2 1 1 114 18 17 58
248 4 2 1 1 90 39 40 82
249 4 2 1 1 97 40 41 86
250 4 2 1 1 115 19 18 65
251 4 2 1 1 111 95 50 51
252 4 2 1 1 28 79 63 29
253 4 2 1 1 98 36 37 83
254 4 2 1 1 66 14 15 117
255 4 2 1 1 1 13 62 119
256 4 2 1 1 94 7 35 87
257 4 2 1 1 59 15 16 118
258 4 2 1 1 84 91 38 37
259 4 2 1 1 93 10 52 113
260 4 2 1 1 30 61 4 81
261 4 2 1 1 28 27 75 86
262 4 2 1 1 49 115 107 50
263 4 2 1 1 78 27 26 82
264 4 2 1 1 47 46 108 118
265 4 2 1 1 25 76 84 24
266 4 2 1 1 110 49 48 114
267 4 2 1 1 89 80 42 43
268 4 2 1 1 112 21 20 57
269 4 2 1 1 24 77 83 23
270 4 2 1 1 46 45 109 117
271 4 2 1 1 13 14 70 120
272 4 2 1 1 102 35 36 88
273 4 2 1 1 116 16 74 17
274 4 2 1 1 38 39 106 85
275 4 2 1 1 19 111 20 71
276 4 2 1 1 79 42 41 103
277 4 2 1 1 7 94 124 87
278 4 2 1 1 122 1 62 119
279 4 2 1 1 61 4 81 128
280 4 2 1 1 113 93 10 126
281 4 2 1 1 29 69 30 80
282 4 2 1 1 52 51 101 112
283 4 2 1 1 11 53 94 123
284 4 2 1 1 62 5 31 121
285 4 2 1 1 34 61 6 127
286 4 2 1 1 56 93 12 125
287 4 2 1 1 55 127 12 99
288 4 2 1 1 6 67 33 125
289 4 2 1 1 32 123 5 68
290 4 2 1 1 11 121 100 54
291 4 2 1 1 99 6 61 127
292 4 2 1 1 99 61 6 67
293 4 2 1 1 123 68 11 5
294 4 2 1 1 121 11 68 5
295 4 2 1 1 121 68 11 100
296 4 2 1 1 68 11 94 123
297 4 2 1 1 68 94 11 100
$EndElements
