$MeshFormat
2.2 0 8
$EndMeshFormat
$PhysicalNames
2
3 1 "teflon_OPEM_RESERVED_1"
3 2 "air_OPEM_RESERVED_2"
$EndPhysicalNames
$Nodes
172
1 0 0 0
2 0.01 0 0
3 0.02 0 0
4 0.02 0 0.001000000000000001
5 0 0 0.001000000000000001
6 0.02 0 0.09900000000000002
7 0 0 0.09900000000000002
8 0.02 0 0.1
9 0.01 0 0.1
10 0 0 0.1
11 0.02 0.0045 0
12 0.02 0.0045 0.001000000000000001
13 0.02 0.0045 0.099
14 0.02 0.0045 0.1
15 0 0.0045 0
16 0 0.0045 0.001000000000000001
17 0 0.0045 0.099
18 0 0.0045 0.1
19 0.01 0.0045 0
20 0.01 0.0045 0.1
21 0.02 0.008999999999999999 0
22 0.02 0.008999999999999999 0.001000000000000001
23 0.02 0.008999999999999999 0.09900000000000002
24 0.02 0.008999999999999999 0.1
25 0.01 0.008999999999999999 0
26 0 0.008999999999999999 0
27 0 0.008999999999999999 0.001000000000000001
28 0 0.008999999999999999 0.09900000000000002
29 0 0.008999999999999999 0.1
30 0.01 0.008999999999999999 0.1
31 0.009999999999999998 0 0.001000000000000001
32 0.02 0 0.0108
33 0.02 0 0.02060000000000001
34 0.02 0 0.03040000000000001
35 0.02 0 0.04020000000000001
36 0.02 0 0.05
37 0.02 0 0.05980000000000001
38 0.02 0 0.06960000000000001
39 0.02 0 0.07940000000000001
40 0.02 0 0.08920000000000002
41 0.01 0 0.099
42 0 0 0.0108
43 0 0 0.02060000000000001
44 0 0 0.03040000000000001
45 0 0 0.04020000000000001
46 0 0 0.05
47 0 0 0.05980000000000001
48 0 0 0.06960000000000001
49 0 0 0.07940000000000001
50 0 0 0.08920000000000002
51 0.02 0.0045 0.0108
52 0.02 0.0045 0.02060000000000001
53 0.02 0.0045 0.03040000000000001
54 0.02 0.0045 0.04020000000000001
55 0.02 0.0045 0.05
56 0.02 0.0045 0.05980000000000001
57 0.02 0.0045 0.06960000000000001
58 0.02 0.0045 0.07940000000000001
59 0.02 0.0045 0.08920000000000002
60 0 0.0045 0.0108
61 0 0.0045 0.02060000000000001
62 0 0.0045 0.03040000000000001
63 0 0.0045 0.04020000000000001
64 0 0.0045 0.05
65 0 0.0045 0.05980000000000001
66 0 0.0045 0.06960000000000001
67 0 0.0045 0.07940000000000001
68 0 0.0045 0.08920000000000002
69 0.02 0.008999999999999999 0.0108
70 0.02 0.008999999999999999 0.02060000000000001
71 0.02 0.008999999999999999 0.03040000000000001
72 0.02 0.008999999999999999 0.04020000000000001
73 0.02 0.008999999999999999 0.05
74 0.02 0.008999999999999999 0.05980000000000001
75 0.02 0.008999999999999999 0.06960000000000001
76 0.02 0.008999999999999999 0.07940000000000001
77 0.02 0.008999999999999999 0.08920000000000002
78 0.01 0.008999999999999999 0.001000000000000001
79 0 0.008999999999999999 0.0108
80 0 0.008999999999999999 0.02060000000000001
81 0 0.008999999999999999 0.03040000000000001
82 0 0.008999999999999999 0.04020000000000001
83 0 0.008999999999999999 0.05
84 0 0.008999999999999999 0.05980000000000001
85 0 0.008999999999999999 0.06960000000000001
86 0 0.008999999999999999 0.07940000000000001
87 0 0.008999999999999999 0.08920000000000002
88 0.009999999999999998 0.008999999999999999 0.099
89 0.00946198062269454 0 0.0353
90 0.01039427101489398 0 0.05487806027889805
91 0.01048373264637338 0 0.07450000000000001
92 0.0115129510429125 0 0.0157
93 0.01014633394354456 0 0.06469634337981635
94 0.008487048957087502 0 0.0843
95 0.01016248861093451 0 0.0255
96 0.009976041939598085 0 0.04509634337981634
97 0.007335226519440012 0 0.007474651325391501
98 0.01266477348055999 0 0.09252534867460849
99 0.005819070473277449 0 0.09324983468535411
100 0.01418092952672257 0 0.006750165314645874
101 0.02 0.00225 0.0941
102 0.02 0.002249999999999999 0.0353
103 0.02 0.002249999999999999 0.005900000000000002
104 0.02 0.002250000000000001 0.01570000000000001
105 0.02 0.002249999999999998 0.02550000000000001
106 0.02 0.002249999999999999 0.07450000000000001
107 0.02 0.00225 0.08430000000000001
108 0.02 0.00225 0.0549
109 0.02 0.00225 0.0451
110 0.02 0.00225 0.06470000000000001
111 0.009829307505168765 0.0045 0.08572669769049029
112 0.01051754580688768 0.0045 0.0353
113 0.01016672213719775 0.0045 0.0549
114 0.009783864136726784 0.0045 0.0143
115 0.009828645778896514 0.0045 0.06473114730557203
116 0.009762800962315563 0.0045 0.0451
117 0.01005023499060241 0.0045 0.02526666666666667
118 0.00994299221401088 0.0045 0.07474297416601039
119 0.006020270226324292 0.0045 0.0939197301523681
120 0.006016958027458219 0.0045 0.006082215743440235
121 0.013531546023455 0.0045 0.006283173677634321
122 0.01380179364607069 0.0045 0.09382922733090393
123 0 0.00225 0.0941
124 0 0.002250000000000001 0.0353
125 0 0.00225 0.01570000000000001
126 0 0.00225 0.02550000000000001
127 0 0.00225 0.07450000000000001
128 0 0.00225 0.08430000000000001
129 0 0.00225 0.005900000000000003
130 0 0.00225 0.0549
131 0 0.00225 0.0451
132 0 0.00225 0.06470000000000001
133 0.005000000000000001 0.00225 0
134 0.015 0.00225 0
135 0.005000000000000001 0.00225 0.1
136 0.015 0.00225 0.1
137 0.02 0.006749999999999999 0.0941
138 0.02 0.006749999999999999 0.0353
139 0.02 0.00675 0.01570000000000001
140 0.02 0.006749999999999999 0.02550000000000001
141 0.02 0.006749999999999999 0.07450000000000001
142 0.02 0.006749999999999999 0.08430000000000001
143 0.02 0.006749999999999999 0.005900000000000003
144 0.02 0.006749999999999999 0.0549
145 0.02 0.006749999999999999 0.0451
146 0.02 0.006749999999999999 0.06470000000000001
147 0.01039427101489398 0.008999999999999999 0.03532193972110194
148 0.00948912398816058 0.008999999999999999 0.05491567122935852
149 0.009516267353626616 0.008999999999999999 0.07450000000000001
150 0.0115129510429125 0.008999999999999999 0.0157
151 0.01031386593390205 0.008999999999999999 0.06470186562254268
152 0.0115129510429125 0.008999999999999999 0.0843
153 0.009421141500903951 0.008999999999999999 0.02550186562254268
154 0.009980565833842428 0.008999999999999999 0.04510626849174341
155 0.00733522651944001 0.008999999999999999 0.09252534867460849
156 0.007335226519440012 0.008999999999999999 0.007474651325391499
157 0.01418092952672257 0.008999999999999999 0.006750165314645874
158 0.01418092952672255 0.008999999999999999 0.09324983468535411
159 0 0.00675 0.0941
160 0 0.006749999999999999 0.005900000000000003
161 0 0.00675 0.0353
162 0 0.006749999999999999 0.01570000000000001
163 0 0.006750000000000002 0.02550000000000001
164 0 0.006749999999999999 0.07450000000000001
165 0 0.006749999999999999 0.08430000000000001
166 0 0.006749999999999999 0.0549
167 0 0.006749999999999999 0.0451
168 0 0.006749999999999999 0.06470000000000001
169 0.015 0.006749999999999999 0
170 0.005000000000000001 0.006749999999999999 0
171 0.015 0.006749999999999999 0.1
172 0.005000000000000001 0.006749999999999999 0.1
$EndNodes
$Elements
475
1 4 2 1 1 38 93 110 37
2 4 2 1 1 19 12 121 134
3 4 2 1 1 65 64 113 130
4 4 2 1 1 56 57 115 110
5 4 2 1 1 55 54 109 116
6 4 2 1 1 20 17 119 135
7 4 2 1 1 16 19 120 133
8 4 2 1 1 13 20 122 136
9 4 2 1 1 45 96 131 46
10 4 2 1 1 47 46 130 90
11 4 2 1 1 35 109 96 36
12 4 2 1 1 49 48 127 91
13 4 2 1 1 63 62 112 124
14 4 2 1 1 35 89 102 34
15 4 2 1 1 66 65 115 132
16 4 2 1 1 48 47 132 93
17 4 2 1 1 68 67 111 128
18 4 2 1 1 61 60 114 125
19 4 2 1 1 59 58 107 111
20 4 2 1 1 34 95 105 33
21 4 2 1 1 114 104 51 52
22 4 2 1 1 56 55 108 113
23 4 2 1 1 67 66 118 127
24 4 2 1 1 90 108 37 36
25 4 2 1 1 50 123 7 99
26 4 2 1 1 100 4 103 32
27 4 2 1 1 12 51 121 103
28 4 2 1 1 2 4 3 134
29 4 2 1 1 14 20 13 136
30 4 2 1 1 19 11 12 134
31 4 2 1 1 20 18 17 135
32 4 2 1 1 15 19 16 133
33 4 2 1 1 8 6 41 136
34 4 2 1 1 7 10 9 135
35 4 2 1 1 133 5 1 31
36 4 2 1 1 62 61 117 126
37 4 2 1 1 58 57 106 118
38 4 2 1 1 9 8 41 136
39 4 2 1 1 41 7 9 135
40 4 2 1 1 2 4 134 31
41 4 2 1 1 1 2 133 31
42 4 2 1 1 53 52 105 117
43 4 2 1 1 60 16 120 129
44 4 2 1 1 17 68 119 123
45 4 2 1 1 64 63 116 131
46 4 2 1 1 44 43 126 95
47 4 2 1 1 59 13 122 101
48 4 2 1 1 125 43 42 92
49 4 2 1 1 94 40 39 107
50 4 2 1 1 44 45 89 124
51 4 2 1 1 54 53 102 112
52 4 2 1 1 7 41 99 135
53 4 2 1 1 100 134 4 31
54 4 2 1 1 32 104 92 33
55 4 2 1 1 38 106 91 39
56 4 2 1 1 97 5 42 129
57 4 2 1 1 40 98 6 101
58 4 2 1 1 50 49 128 94
59 4 2 1 1 6 41 136 98
60 4 2 1 1 133 97 5 31
61 4 2 1 1 98 136 6 101
62 4 2 1 1 133 5 97 129
63 4 2 1 1 97 133 129 120
64 4 2 1 1 98 122 136 101
65 4 2 1 1 109 55 96 36
66 4 2 1 1 130 46 64 113
67 4 2 1 1 65 47 130 113
68 4 2 1 1 44 126 62 95
69 4 2 1 1 117 62 126 95
70 4 2 1 1 125 43 114 61
71 4 2 1 1 48 118 66 127
72 4 2 1 1 55 96 116 109
73 4 2 1 1 54 116 96 109
74 4 2 1 1 46 130 90 113
75 4 2 1 1 90 130 47 113
76 4 2 1 1 93 110 57 38
77 4 2 1 1 37 93 110 56
78 4 2 1 1 109 96 54 35
79 4 2 1 1 117 105 95 33
80 4 2 1 1 127 48 118 91
81 4 2 1 1 105 53 117 95
82 4 2 1 1 110 115 93 57
83 4 2 1 1 93 115 110 56
84 4 2 1 1 45 96 116 131
85 4 2 1 1 132 47 115 93
86 4 2 1 1 125 114 43 92
87 4 2 1 1 47 115 65 132
88 4 2 1 1 95 105 53 34
89 4 2 1 1 66 115 48 132
90 4 2 1 1 132 115 48 93
91 4 2 1 1 96 116 131 46
92 4 2 1 1 131 116 45 63
93 4 2 1 1 127 118 49 91
94 4 2 1 1 64 131 116 46
95 4 2 1 1 105 117 52 33
96 4 2 1 1 37 108 90 56
97 4 2 1 1 49 67 118 127
98 4 2 1 1 108 90 55 36
99 4 2 1 1 113 90 108 56
100 4 2 1 1 57 106 91 38
101 4 2 1 1 108 55 90 113
102 4 2 1 1 106 91 118 57
103 4 2 1 1 125 42 114 92
104 4 2 1 1 117 126 43 95
105 4 2 1 1 40 94 111 107
106 4 2 1 1 112 89 102 35
107 4 2 1 1 112 102 89 34
108 4 2 1 1 124 89 62 112
109 4 2 1 1 63 89 124 112
110 4 2 1 1 61 126 43 117
111 4 2 1 1 124 45 89 63
112 4 2 1 1 53 102 112 34
113 4 2 1 1 93 47 115 113
114 4 2 1 1 124 89 44 62
115 4 2 1 1 112 102 54 35
116 4 2 1 1 66 115 118 48
117 4 2 1 1 47 65 115 113
118 4 2 1 1 47 93 90 113
119 4 2 1 1 91 118 94 58
120 4 2 1 1 116 90 46 96
121 4 2 1 1 106 118 91 58
122 4 2 1 1 46 116 64 113
123 4 2 1 1 115 118 48 91
124 4 2 1 1 61 43 114 117
125 4 2 1 1 48 115 91 93
126 4 2 1 1 90 116 46 113
127 4 2 1 1 90 96 55 36
128 4 2 1 1 90 96 116 55
129 4 2 1 1 37 90 93 56
130 4 2 1 1 115 93 113 56
131 4 2 1 1 103 121 134 100
132 4 2 1 1 118 111 94 58
133 4 2 1 1 116 90 55 113
134 4 2 1 1 113 93 90 56
135 4 2 1 1 57 91 93 38
136 4 2 1 1 92 117 43 95
137 4 2 1 1 111 40 107 59
138 4 2 1 1 115 91 93 57
139 4 2 1 1 114 104 52 92
140 4 2 1 1 54 96 116 112
141 4 2 1 1 62 89 44 95
142 4 2 1 1 12 103 121 134
143 4 2 1 1 115 118 91 57
144 4 2 1 1 112 54 96 35
145 4 2 1 1 45 96 89 116
146 4 2 1 1 43 114 117 92
147 4 2 1 1 50 128 68 94
148 4 2 1 1 117 53 112 95
149 4 2 1 1 53 112 95 34
150 4 2 1 1 39 91 94 58
151 4 2 1 1 116 89 45 63
152 4 2 1 1 123 99 119 135
153 4 2 1 1 92 51 104 32
154 4 2 1 1 128 67 111 94
155 4 2 1 1 39 106 91 58
156 4 2 1 1 125 114 42 60
157 4 2 1 1 96 89 112 35
158 4 2 1 1 95 112 89 34
159 4 2 1 1 121 51 114 100
160 4 2 1 1 99 123 7 135
161 4 2 1 1 4 103 134 100
162 4 2 1 1 116 89 63 112
163 4 2 1 1 122 13 136 101
164 4 2 1 1 114 52 117 92
165 4 2 1 1 17 123 119 135
166 4 2 1 1 95 92 117 33
167 4 2 1 1 129 133 16 120
168 4 2 1 1 118 111 67 94
169 4 2 1 1 114 104 92 51
170 4 2 1 1 111 68 99 119
171 4 2 1 1 111 68 128 94
172 4 2 1 1 92 52 117 33
173 4 2 1 1 98 111 122 59
174 4 2 1 1 49 118 67 94
175 4 2 1 1 49 118 94 91
176 4 2 1 1 98 94 111 40
177 4 2 1 1 42 97 114 92
178 4 2 1 1 94 68 50 99
179 4 2 1 1 104 52 92 33
180 4 2 1 1 92 100 51 32
181 4 2 1 1 67 128 49 94
182 4 2 1 1 111 98 40 59
183 4 2 1 1 100 51 114 92
184 4 2 1 1 111 68 94 99
185 4 2 1 1 122 119 111 98
186 4 2 1 1 114 97 121 100
187 4 2 1 1 119 99 111 98
188 4 2 1 1 120 114 97 121
189 4 2 1 1 16 5 133 129
190 4 2 1 1 13 6 136 101
191 4 2 1 1 103 12 4 134
192 4 2 1 1 123 17 7 135
193 4 2 1 1 103 51 121 100
194 4 2 1 1 68 123 99 119
195 4 2 1 1 129 42 97 120
196 4 2 1 1 122 136 41 98
197 4 2 1 1 97 133 120 31
198 4 2 1 1 122 41 119 98
199 4 2 1 1 121 134 100 31
200 4 2 1 1 50 68 123 99
201 4 2 1 1 42 129 60 120
202 4 2 1 1 119 99 41 135
203 4 2 1 1 97 120 121 31
204 4 2 1 1 103 51 100 32
205 4 2 1 1 20 41 119 122
206 4 2 1 1 96 89 116 112
207 4 2 1 1 121 120 19 31
208 4 2 1 1 114 97 100 92
209 4 2 1 1 134 121 19 31
210 4 2 1 1 94 111 99 98
211 4 2 1 1 41 99 119 98
212 4 2 1 1 41 20 136 122
213 4 2 1 1 120 133 19 31
214 4 2 1 1 119 41 20 135
215 4 2 1 1 100 97 121 31
216 4 2 1 1 11 4 134 3
217 4 2 1 1 17 10 135 18
218 4 2 1 1 15 5 133 16
219 4 2 1 1 5 15 133 1
220 4 2 1 1 8 13 136 14
221 4 2 1 1 4 11 134 12
222 4 2 1 1 10 17 135 7
223 4 2 1 1 8 13 6 136
224 4 2 1 1 134 19 2 31
225 4 2 1 1 2 19 133 31
226 4 2 1 1 9 20 41 135
227 4 2 1 1 41 20 9 136
228 4 2 1 1 94 58 107 39
229 4 2 1 1 107 58 94 111
230 4 2 1 1 95 112 62 89
231 4 2 1 1 95 62 112 117
232 4 2 1 1 120 42 114 60
233 4 2 1 1 120 114 42 97
234 4 2 1 1 98 59 101 40
235 4 2 1 1 101 59 98 122
236 4 2 2 2 19 12 169 121
237 4 2 2 2 65 64 166 113
238 4 2 2 2 57 56 115 146
239 4 2 2 2 55 54 116 145
240 4 2 2 2 20 17 172 119
241 4 2 2 2 16 19 170 120
242 4 2 2 2 13 20 171 122
243 4 2 2 2 84 85 168 151
244 4 2 2 2 154 83 82 167
245 4 2 2 2 161 81 82 147
246 4 2 2 2 154 145 72 73
247 4 2 2 2 75 76 149 141
248 4 2 2 2 144 148 74 73
249 4 2 2 2 63 62 161 112
250 4 2 2 2 71 140 153 70
251 4 2 2 2 66 65 168 115
252 4 2 2 2 68 67 165 111
253 4 2 2 2 60 61 114 162
254 4 2 2 2 59 58 111 142
255 4 2 2 2 52 51 114 139
256 4 2 2 2 56 55 113 144
257 4 2 2 2 66 67 118 164
258 4 2 2 2 22 69 157 143
259 4 2 2 2 77 158 137 23
260 4 2 2 2 51 12 121 143
261 4 2 2 2 14 20 171 13
262 4 2 2 2 19 15 16 170
263 4 2 2 2 20 18 172 17
264 4 2 2 2 172 28 29 88
265 4 2 2 2 27 25 170 26
266 4 2 2 2 23 30 171 24
267 4 2 2 2 11 19 12 169
268 4 2 2 2 22 78 21 169
269 4 2 2 2 61 62 117 163
270 4 2 2 2 58 57 118 141
271 4 2 2 2 30 172 29 88
272 4 2 2 2 78 25 170 27
273 4 2 2 2 78 25 21 169
274 4 2 2 2 88 30 171 23
275 4 2 2 2 53 52 117 140
276 4 2 2 2 60 16 160 120
277 4 2 2 2 68 17 119 159
278 4 2 2 2 64 63 167 116
279 4 2 2 2 13 59 122 137
280 4 2 2 2 80 162 79 150
281 4 2 2 2 165 86 87 152
282 4 2 2 2 72 138 147 71
283 4 2 2 2 148 83 166 84
284 4 2 2 2 54 53 112 138
285 4 2 2 2 74 75 151 146
286 4 2 2 2 157 78 22 169
287 4 2 2 2 158 88 171 23
288 4 2 2 2 28 87 155 159
289 4 2 2 2 79 156 160 27
290 4 2 2 2 164 149 85 86
291 4 2 2 2 142 152 77 76
292 4 2 2 2 150 69 70 139
293 4 2 2 2 172 155 28 88
294 4 2 2 2 156 78 170 27
295 4 2 2 2 153 81 80 163
296 4 2 2 2 28 155 172 159
297 4 2 2 2 156 170 160 27
298 4 2 2 2 155 172 159 119
299 4 2 2 2 160 120 170 156
300 4 2 2 2 161 62 81 147
301 4 2 2 2 63 161 82 147
302 4 2 2 2 118 57 75 141
303 4 2 2 2 145 54 154 72
304 4 2 2 2 67 111 86 165
305 4 2 2 2 147 161 62 112
306 4 2 2 2 147 63 161 112
307 4 2 2 2 61 114 162 80
308 4 2 2 2 154 116 54 145
309 4 2 2 2 116 154 55 145
310 4 2 2 2 71 117 140 53
311 4 2 2 2 149 118 75 141
312 4 2 2 2 145 154 55 73
313 4 2 2 2 117 140 153 71
314 4 2 2 2 116 83 154 167
315 4 2 2 2 165 111 86 152
316 4 2 2 2 116 83 167 64
317 4 2 2 2 115 65 168 84
318 4 2 2 2 168 66 115 85
319 4 2 2 2 168 115 84 151
320 4 2 2 2 80 114 162 150
321 4 2 2 2 118 149 76 141
322 4 2 2 2 115 168 85 151
323 4 2 2 2 74 113 144 56
324 4 2 2 2 154 82 116 167
325 4 2 2 2 144 55 113 73
326 4 2 2 2 144 113 148 73
327 4 2 2 2 148 74 113 144
328 4 2 2 2 153 140 117 70
329 4 2 2 2 146 115 151 56
330 4 2 2 2 151 57 115 146
331 4 2 2 2 76 58 118 141
332 4 2 2 2 167 82 116 63
333 4 2 2 2 151 75 57 146
334 4 2 2 2 146 151 74 56
335 4 2 2 2 66 164 118 149
336 4 2 2 2 165 87 111 152
337 4 2 2 2 162 114 79 150
338 4 2 2 2 148 166 64 113
339 4 2 2 2 148 65 166 113
340 4 2 2 2 166 64 83 148
341 4 2 2 2 140 117 70 52
342 4 2 2 2 149 118 111 67
343 4 2 2 2 149 66 164 85
344 4 2 2 2 72 138 54 112
345 4 2 2 2 72 147 138 112
346 4 2 2 2 166 65 148 84
347 4 2 2 2 153 61 114 117
348 4 2 2 2 153 62 163 117
349 4 2 2 2 53 138 71 112
350 4 2 2 2 164 118 149 67
351 4 2 2 2 163 61 153 117
352 4 2 2 2 154 116 82 147
353 4 2 2 2 57 115 118 151
354 4 2 2 2 154 116 55 113
355 4 2 2 2 75 57 118 151
356 4 2 2 2 138 147 71 112
357 4 2 2 2 113 55 154 73
358 4 2 2 2 81 153 62 163
359 4 2 2 2 82 116 63 147
360 4 2 2 2 157 169 143 121
361 4 2 2 2 72 54 154 112
362 4 2 2 2 118 149 75 151
363 4 2 2 2 111 86 149 67
364 4 2 2 2 147 116 63 112
365 4 2 2 2 118 149 111 152
366 4 2 2 2 53 71 117 112
367 4 2 2 2 114 52 139 150
368 4 2 2 2 154 147 72 112
369 4 2 2 2 142 58 111 152
370 4 2 2 2 80 61 114 153
371 4 2 2 2 116 154 54 112
372 4 2 2 2 113 154 148 73
373 4 2 2 2 113 151 115 56
374 4 2 2 2 74 151 113 56
375 4 2 2 2 143 169 12 121
376 4 2 2 2 154 83 116 148
377 4 2 2 2 64 116 83 148
378 4 2 2 2 62 153 81 147
379 4 2 2 2 149 115 66 85
380 4 2 2 2 62 153 147 112
381 4 2 2 2 65 115 148 84
382 4 2 2 2 171 137 122 158
383 4 2 2 2 153 62 117 112
384 4 2 2 2 86 164 149 67
385 4 2 2 2 118 115 66 149
386 4 2 2 2 148 115 65 113
387 4 2 2 2 111 149 86 152
388 4 2 2 2 148 64 116 113
389 4 2 2 2 152 59 142 77
390 4 2 2 2 84 115 148 151
391 4 2 2 2 151 148 74 113
392 4 2 2 2 165 111 87 68
393 4 2 2 2 139 150 69 51
394 4 2 2 2 85 149 115 151
395 4 2 2 2 153 80 61 163
396 4 2 2 2 162 114 60 79
397 4 2 2 2 114 80 153 150
398 4 2 2 2 114 157 51 121
399 4 2 2 2 22 157 169 143
400 4 2 2 2 158 171 137 23
401 4 2 2 2 137 122 13 171
402 4 2 2 2 117 114 153 150
403 4 2 2 2 111 122 59 158
404 4 2 2 2 58 118 111 152
405 4 2 2 2 52 114 117 150
406 4 2 2 2 159 172 17 119
407 4 2 2 2 16 160 120 170
408 4 2 2 2 114 150 139 51
409 4 2 2 2 142 111 59 152
410 4 2 2 2 118 149 152 76
411 4 2 2 2 87 155 111 152
412 4 2 2 2 79 114 156 150
413 4 2 2 2 152 58 118 76
414 4 2 2 2 70 117 153 150
415 4 2 2 2 150 70 117 52
416 4 2 2 2 59 152 158 77
417 4 2 2 2 150 157 69 51
418 4 2 2 2 152 142 58 76
419 4 2 2 2 52 150 70 139
420 4 2 2 2 114 157 150 51
421 4 2 2 2 152 111 59 158
422 4 2 2 2 119 111 155 122
423 4 2 2 2 157 114 156 121
424 4 2 2 2 122 111 155 158
425 4 2 2 2 114 120 156 121
426 4 2 2 2 169 12 22 143
427 4 2 2 2 172 17 28 159
428 4 2 2 2 170 16 160 27
429 4 2 2 2 171 13 137 23
430 4 2 2 2 157 143 51 121
431 4 2 2 2 149 118 115 151
432 4 2 2 2 59 122 137 158
433 4 2 2 2 159 87 155 119
434 4 2 2 2 156 160 120 79
435 4 2 2 2 155 172 119 88
436 4 2 2 2 78 170 120 156
437 4 2 2 2 169 157 78 121
438 4 2 2 2 155 119 122 88
439 4 2 2 2 160 60 120 79
440 4 2 2 2 88 171 122 158
441 4 2 2 2 87 159 68 119
442 4 2 2 2 120 78 156 121
443 4 2 2 2 158 137 59 77
444 4 2 2 2 116 154 148 113
445 4 2 2 2 69 157 143 51
446 4 2 2 2 154 116 147 112
447 4 2 2 2 122 119 20 88
448 4 2 2 2 115 148 151 113
449 4 2 2 2 78 120 19 121
450 4 2 2 2 157 156 114 150
451 4 2 2 2 152 155 111 158
452 4 2 2 2 169 78 19 121
453 4 2 2 2 171 122 20 88
454 4 2 2 2 170 120 19 78
455 4 2 2 2 119 172 20 88
456 4 2 2 2 122 155 88 158
457 4 2 2 2 157 156 78 121
458 4 2 2 2 28 18 172 29
459 4 2 2 2 18 28 172 17
460 4 2 2 2 15 16 170 26
461 4 2 2 2 14 23 171 24
462 4 2 2 2 27 170 16 26
463 4 2 2 2 14 23 13 171
464 4 2 2 2 12 21 169 22
465 4 2 2 2 12 21 11 169
466 4 2 2 2 25 170 19 78
467 4 2 2 2 30 171 20 88
468 4 2 2 2 30 20 172 88
469 4 2 2 2 19 25 78 169
470 4 2 2 2 153 112 71 147
471 4 2 2 2 71 112 153 117
472 4 2 2 2 120 79 114 156
473 4 2 2 2 114 79 120 60
474 4 2 2 2 119 87 111 68
475 4 2 2 2 119 111 87 155
$EndElements
